%TF.GenerationSoftware,KiCad,Pcbnew,7.0.9*%
%TF.CreationDate,2024-02-15T17:21:18-06:00*%
%TF.ProjectId,MUX,4d55582e-6b69-4636-9164-5f7063625858,rev?*%
%TF.SameCoordinates,Original*%
%TF.FileFunction,Copper,L2,Bot*%
%TF.FilePolarity,Positive*%
%FSLAX46Y46*%
G04 Gerber Fmt 4.6, Leading zero omitted, Abs format (unit mm)*
G04 Created by KiCad (PCBNEW 7.0.9) date 2024-02-15 17:21:18*
%MOMM*%
%LPD*%
G01*
G04 APERTURE LIST*
%TA.AperFunction,ComponentPad*%
%ADD10R,1.700000X1.700000*%
%TD*%
%TA.AperFunction,ComponentPad*%
%ADD11O,1.700000X1.700000*%
%TD*%
%TA.AperFunction,SMDPad,CuDef*%
%ADD12C,8.050000*%
%TD*%
%TA.AperFunction,ViaPad*%
%ADD13C,0.800000*%
%TD*%
%TA.AperFunction,Conductor*%
%ADD14C,0.250000*%
%TD*%
G04 APERTURE END LIST*
D10*
%TO.P,J1,1,Pin_1*%
%TO.N,Net-(J1-Pin_1)*%
X147500000Y-93000000D03*
%TD*%
%TO.P,J2,1,Pin_1*%
%TO.N,Net-(J2-Pin_1)*%
X162500000Y-93000000D03*
%TD*%
%TO.P,J3,1,Pin_1*%
%TO.N,Net-(J3-Pin_1)*%
X157500000Y-82000000D03*
D11*
%TO.P,J3,2,Pin_2*%
X154960000Y-82000000D03*
%TO.P,J3,3,Pin_3*%
X152420000Y-82000000D03*
%TD*%
D10*
%TO.P,J6,1,Pin_1*%
%TO.N,Net-(J6-Pin_1)*%
X142000000Y-87500000D03*
%TD*%
D12*
%TO.P,J4,1,PWR*%
%TO.N,Net-(J4-PWR)*%
X147500000Y-87500000D03*
%TD*%
%TO.P,J5,1,PWR*%
%TO.N,Net-(J5-PWR)*%
X162500000Y-87500000D03*
%TD*%
D13*
%TO.N,GND*%
X154940000Y-91440000D03*
X147274072Y-82881020D03*
%TO.N,Net-(J5-PWR)*%
X161500000Y-85000000D03*
%TO.N,Net-(J4-PWR)*%
X167640000Y-87935641D03*
%TD*%
D14*
%TO.N,GND*%
X147274072Y-82881020D02*
X149032849Y-82881020D01*
X152400000Y-88900000D02*
X154940000Y-91440000D01*
X149032849Y-82881020D02*
X152400000Y-86248171D01*
X152400000Y-86248171D02*
X152400000Y-88900000D01*
%TO.N,Net-(J5-PWR)*%
X161500000Y-86500000D02*
X162500000Y-87500000D01*
X161500000Y-85000000D02*
X161500000Y-86500000D01*
%TO.N,Net-(J4-PWR)*%
X147500000Y-87500000D02*
X152165000Y-92165000D01*
X164430000Y-83150000D02*
X167640000Y-86360000D01*
X157480000Y-89925305D02*
X157480000Y-86368171D01*
X160698171Y-83150000D02*
X164430000Y-83150000D01*
X167640000Y-86360000D02*
X167640000Y-87935641D01*
X152165000Y-92165000D02*
X155240305Y-92165000D01*
X157480000Y-86368171D02*
X160698171Y-83150000D01*
X155240305Y-92165000D02*
X157480000Y-89925305D01*
%TD*%
M02*
