%TF.GenerationSoftware,KiCad,Pcbnew,7.0.9*%
%TF.CreationDate,2024-03-13T02:42:54-05:00*%
%TF.ProjectId,MUX,4d55582e-6b69-4636-9164-5f7063625858,rev?*%
%TF.SameCoordinates,Original*%
%TF.FileFunction,Legend,Top*%
%TF.FilePolarity,Positive*%
%FSLAX46Y46*%
G04 Gerber Fmt 4.6, Leading zero omitted, Abs format (unit mm)*
G04 Created by KiCad (PCBNEW 7.0.9) date 2024-03-13 02:42:54*
%MOMM*%
%LPD*%
G01*
G04 APERTURE LIST*
%ADD10C,0.150000*%
%ADD11C,0.152400*%
%ADD12C,0.127000*%
%ADD13C,0.200000*%
%ADD14C,0.120000*%
G04 APERTURE END LIST*
D10*
X144545180Y-86380952D02*
X144545180Y-85904762D01*
X144545180Y-85904762D02*
X145545180Y-85904762D01*
X145068990Y-86714286D02*
X145068990Y-87047619D01*
X144545180Y-87190476D02*
X144545180Y-86714286D01*
X144545180Y-86714286D02*
X145545180Y-86714286D01*
X145545180Y-86714286D02*
X145545180Y-87190476D01*
X144545180Y-87619048D02*
X145545180Y-87619048D01*
X145545180Y-87619048D02*
X145545180Y-87857143D01*
X145545180Y-87857143D02*
X145497561Y-88000000D01*
X145497561Y-88000000D02*
X145402323Y-88095238D01*
X145402323Y-88095238D02*
X145307085Y-88142857D01*
X145307085Y-88142857D02*
X145116609Y-88190476D01*
X145116609Y-88190476D02*
X144973752Y-88190476D01*
X144973752Y-88190476D02*
X144783276Y-88142857D01*
X144783276Y-88142857D02*
X144688038Y-88095238D01*
X144688038Y-88095238D02*
X144592800Y-88000000D01*
X144592800Y-88000000D02*
X144545180Y-87857143D01*
X144545180Y-87857143D02*
X144545180Y-87619048D01*
X145211847Y-89047619D02*
X144545180Y-89047619D01*
X145592800Y-88809524D02*
X144878514Y-88571429D01*
X144878514Y-88571429D02*
X144878514Y-89190476D01*
X153880952Y-85454819D02*
X153404762Y-85454819D01*
X153404762Y-85454819D02*
X153404762Y-84454819D01*
X154214286Y-84931009D02*
X154547619Y-84931009D01*
X154690476Y-85454819D02*
X154214286Y-85454819D01*
X154214286Y-85454819D02*
X154214286Y-84454819D01*
X154214286Y-84454819D02*
X154690476Y-84454819D01*
X155119048Y-85454819D02*
X155119048Y-84454819D01*
X155119048Y-84454819D02*
X155357143Y-84454819D01*
X155357143Y-84454819D02*
X155500000Y-84502438D01*
X155500000Y-84502438D02*
X155595238Y-84597676D01*
X155595238Y-84597676D02*
X155642857Y-84692914D01*
X155642857Y-84692914D02*
X155690476Y-84883390D01*
X155690476Y-84883390D02*
X155690476Y-85026247D01*
X155690476Y-85026247D02*
X155642857Y-85216723D01*
X155642857Y-85216723D02*
X155595238Y-85311961D01*
X155595238Y-85311961D02*
X155500000Y-85407200D01*
X155500000Y-85407200D02*
X155357143Y-85454819D01*
X155357143Y-85454819D02*
X155119048Y-85454819D01*
X156023810Y-84454819D02*
X156642857Y-84454819D01*
X156642857Y-84454819D02*
X156309524Y-84835771D01*
X156309524Y-84835771D02*
X156452381Y-84835771D01*
X156452381Y-84835771D02*
X156547619Y-84883390D01*
X156547619Y-84883390D02*
X156595238Y-84931009D01*
X156595238Y-84931009D02*
X156642857Y-85026247D01*
X156642857Y-85026247D02*
X156642857Y-85264342D01*
X156642857Y-85264342D02*
X156595238Y-85359580D01*
X156595238Y-85359580D02*
X156547619Y-85407200D01*
X156547619Y-85407200D02*
X156452381Y-85454819D01*
X156452381Y-85454819D02*
X156166667Y-85454819D01*
X156166667Y-85454819D02*
X156071429Y-85407200D01*
X156071429Y-85407200D02*
X156023810Y-85359580D01*
X161380952Y-90454819D02*
X160904762Y-90454819D01*
X160904762Y-90454819D02*
X160904762Y-89454819D01*
X161714286Y-89931009D02*
X162047619Y-89931009D01*
X162190476Y-90454819D02*
X161714286Y-90454819D01*
X161714286Y-90454819D02*
X161714286Y-89454819D01*
X161714286Y-89454819D02*
X162190476Y-89454819D01*
X162619048Y-90454819D02*
X162619048Y-89454819D01*
X162619048Y-89454819D02*
X162857143Y-89454819D01*
X162857143Y-89454819D02*
X163000000Y-89502438D01*
X163000000Y-89502438D02*
X163095238Y-89597676D01*
X163095238Y-89597676D02*
X163142857Y-89692914D01*
X163142857Y-89692914D02*
X163190476Y-89883390D01*
X163190476Y-89883390D02*
X163190476Y-90026247D01*
X163190476Y-90026247D02*
X163142857Y-90216723D01*
X163142857Y-90216723D02*
X163095238Y-90311961D01*
X163095238Y-90311961D02*
X163000000Y-90407200D01*
X163000000Y-90407200D02*
X162857143Y-90454819D01*
X162857143Y-90454819D02*
X162619048Y-90454819D01*
X163571429Y-89550057D02*
X163619048Y-89502438D01*
X163619048Y-89502438D02*
X163714286Y-89454819D01*
X163714286Y-89454819D02*
X163952381Y-89454819D01*
X163952381Y-89454819D02*
X164047619Y-89502438D01*
X164047619Y-89502438D02*
X164095238Y-89550057D01*
X164095238Y-89550057D02*
X164142857Y-89645295D01*
X164142857Y-89645295D02*
X164142857Y-89740533D01*
X164142857Y-89740533D02*
X164095238Y-89883390D01*
X164095238Y-89883390D02*
X163523810Y-90454819D01*
X163523810Y-90454819D02*
X164142857Y-90454819D01*
X148619047Y-89545180D02*
X149095237Y-89545180D01*
X149095237Y-89545180D02*
X149095237Y-90545180D01*
X148285713Y-90068990D02*
X147952380Y-90068990D01*
X147809523Y-89545180D02*
X148285713Y-89545180D01*
X148285713Y-89545180D02*
X148285713Y-90545180D01*
X148285713Y-90545180D02*
X147809523Y-90545180D01*
X147380951Y-89545180D02*
X147380951Y-90545180D01*
X147380951Y-90545180D02*
X147142856Y-90545180D01*
X147142856Y-90545180D02*
X146999999Y-90497561D01*
X146999999Y-90497561D02*
X146904761Y-90402323D01*
X146904761Y-90402323D02*
X146857142Y-90307085D01*
X146857142Y-90307085D02*
X146809523Y-90116609D01*
X146809523Y-90116609D02*
X146809523Y-89973752D01*
X146809523Y-89973752D02*
X146857142Y-89783276D01*
X146857142Y-89783276D02*
X146904761Y-89688038D01*
X146904761Y-89688038D02*
X146999999Y-89592800D01*
X146999999Y-89592800D02*
X147142856Y-89545180D01*
X147142856Y-89545180D02*
X147380951Y-89545180D01*
X145857142Y-89545180D02*
X146428570Y-89545180D01*
X146142856Y-89545180D02*
X146142856Y-90545180D01*
X146142856Y-90545180D02*
X146238094Y-90402323D01*
X146238094Y-90402323D02*
X146333332Y-90307085D01*
X146333332Y-90307085D02*
X146428570Y-90259466D01*
X150720476Y-89722295D02*
X150720476Y-90369914D01*
X150720476Y-90369914D02*
X150758571Y-90446104D01*
X150758571Y-90446104D02*
X150796666Y-90484200D01*
X150796666Y-90484200D02*
X150872857Y-90522295D01*
X150872857Y-90522295D02*
X151025238Y-90522295D01*
X151025238Y-90522295D02*
X151101428Y-90484200D01*
X151101428Y-90484200D02*
X151139523Y-90446104D01*
X151139523Y-90446104D02*
X151177619Y-90369914D01*
X151177619Y-90369914D02*
X151177619Y-89722295D01*
X151977618Y-90522295D02*
X151520475Y-90522295D01*
X151749047Y-90522295D02*
X151749047Y-89722295D01*
X151749047Y-89722295D02*
X151672856Y-89836580D01*
X151672856Y-89836580D02*
X151596666Y-89912771D01*
X151596666Y-89912771D02*
X151520475Y-89950866D01*
X149833333Y-86904819D02*
X149500000Y-86428628D01*
X149261905Y-86904819D02*
X149261905Y-85904819D01*
X149261905Y-85904819D02*
X149642857Y-85904819D01*
X149642857Y-85904819D02*
X149738095Y-85952438D01*
X149738095Y-85952438D02*
X149785714Y-86000057D01*
X149785714Y-86000057D02*
X149833333Y-86095295D01*
X149833333Y-86095295D02*
X149833333Y-86238152D01*
X149833333Y-86238152D02*
X149785714Y-86333390D01*
X149785714Y-86333390D02*
X149738095Y-86381009D01*
X149738095Y-86381009D02*
X149642857Y-86428628D01*
X149642857Y-86428628D02*
X149261905Y-86428628D01*
X150166667Y-85904819D02*
X150785714Y-85904819D01*
X150785714Y-85904819D02*
X150452381Y-86285771D01*
X150452381Y-86285771D02*
X150595238Y-86285771D01*
X150595238Y-86285771D02*
X150690476Y-86333390D01*
X150690476Y-86333390D02*
X150738095Y-86381009D01*
X150738095Y-86381009D02*
X150785714Y-86476247D01*
X150785714Y-86476247D02*
X150785714Y-86714342D01*
X150785714Y-86714342D02*
X150738095Y-86809580D01*
X150738095Y-86809580D02*
X150690476Y-86857200D01*
X150690476Y-86857200D02*
X150595238Y-86904819D01*
X150595238Y-86904819D02*
X150309524Y-86904819D01*
X150309524Y-86904819D02*
X150214286Y-86857200D01*
X150214286Y-86857200D02*
X150166667Y-86809580D01*
X154843333Y-92034819D02*
X154510000Y-91558628D01*
X154271905Y-92034819D02*
X154271905Y-91034819D01*
X154271905Y-91034819D02*
X154652857Y-91034819D01*
X154652857Y-91034819D02*
X154748095Y-91082438D01*
X154748095Y-91082438D02*
X154795714Y-91130057D01*
X154795714Y-91130057D02*
X154843333Y-91225295D01*
X154843333Y-91225295D02*
X154843333Y-91368152D01*
X154843333Y-91368152D02*
X154795714Y-91463390D01*
X154795714Y-91463390D02*
X154748095Y-91511009D01*
X154748095Y-91511009D02*
X154652857Y-91558628D01*
X154652857Y-91558628D02*
X154271905Y-91558628D01*
X155795714Y-92034819D02*
X155224286Y-92034819D01*
X155510000Y-92034819D02*
X155510000Y-91034819D01*
X155510000Y-91034819D02*
X155414762Y-91177676D01*
X155414762Y-91177676D02*
X155319524Y-91272914D01*
X155319524Y-91272914D02*
X155224286Y-91320533D01*
X160543333Y-92034819D02*
X160210000Y-91558628D01*
X159971905Y-92034819D02*
X159971905Y-91034819D01*
X159971905Y-91034819D02*
X160352857Y-91034819D01*
X160352857Y-91034819D02*
X160448095Y-91082438D01*
X160448095Y-91082438D02*
X160495714Y-91130057D01*
X160495714Y-91130057D02*
X160543333Y-91225295D01*
X160543333Y-91225295D02*
X160543333Y-91368152D01*
X160543333Y-91368152D02*
X160495714Y-91463390D01*
X160495714Y-91463390D02*
X160448095Y-91511009D01*
X160448095Y-91511009D02*
X160352857Y-91558628D01*
X160352857Y-91558628D02*
X159971905Y-91558628D01*
X160924286Y-91130057D02*
X160971905Y-91082438D01*
X160971905Y-91082438D02*
X161067143Y-91034819D01*
X161067143Y-91034819D02*
X161305238Y-91034819D01*
X161305238Y-91034819D02*
X161400476Y-91082438D01*
X161400476Y-91082438D02*
X161448095Y-91130057D01*
X161448095Y-91130057D02*
X161495714Y-91225295D01*
X161495714Y-91225295D02*
X161495714Y-91320533D01*
X161495714Y-91320533D02*
X161448095Y-91463390D01*
X161448095Y-91463390D02*
X160876667Y-92034819D01*
X160876667Y-92034819D02*
X161495714Y-92034819D01*
X147166666Y-90184819D02*
X147166666Y-90899104D01*
X147166666Y-90899104D02*
X147119047Y-91041961D01*
X147119047Y-91041961D02*
X147023809Y-91137200D01*
X147023809Y-91137200D02*
X146880952Y-91184819D01*
X146880952Y-91184819D02*
X146785714Y-91184819D01*
X148166666Y-91184819D02*
X147595238Y-91184819D01*
X147880952Y-91184819D02*
X147880952Y-90184819D01*
X147880952Y-90184819D02*
X147785714Y-90327676D01*
X147785714Y-90327676D02*
X147690476Y-90422914D01*
X147690476Y-90422914D02*
X147595238Y-90470533D01*
X162166666Y-90184819D02*
X162166666Y-90899104D01*
X162166666Y-90899104D02*
X162119047Y-91041961D01*
X162119047Y-91041961D02*
X162023809Y-91137200D01*
X162023809Y-91137200D02*
X161880952Y-91184819D01*
X161880952Y-91184819D02*
X161785714Y-91184819D01*
X162595238Y-90280057D02*
X162642857Y-90232438D01*
X162642857Y-90232438D02*
X162738095Y-90184819D01*
X162738095Y-90184819D02*
X162976190Y-90184819D01*
X162976190Y-90184819D02*
X163071428Y-90232438D01*
X163071428Y-90232438D02*
X163119047Y-90280057D01*
X163119047Y-90280057D02*
X163166666Y-90375295D01*
X163166666Y-90375295D02*
X163166666Y-90470533D01*
X163166666Y-90470533D02*
X163119047Y-90613390D01*
X163119047Y-90613390D02*
X162547619Y-91184819D01*
X162547619Y-91184819D02*
X163166666Y-91184819D01*
X159724819Y-81833333D02*
X160439104Y-81833333D01*
X160439104Y-81833333D02*
X160581961Y-81880952D01*
X160581961Y-81880952D02*
X160677200Y-81976190D01*
X160677200Y-81976190D02*
X160724819Y-82119047D01*
X160724819Y-82119047D02*
X160724819Y-82214285D01*
X159724819Y-81452380D02*
X159724819Y-80833333D01*
X159724819Y-80833333D02*
X160105771Y-81166666D01*
X160105771Y-81166666D02*
X160105771Y-81023809D01*
X160105771Y-81023809D02*
X160153390Y-80928571D01*
X160153390Y-80928571D02*
X160201009Y-80880952D01*
X160201009Y-80880952D02*
X160296247Y-80833333D01*
X160296247Y-80833333D02*
X160534342Y-80833333D01*
X160534342Y-80833333D02*
X160629580Y-80880952D01*
X160629580Y-80880952D02*
X160677200Y-80928571D01*
X160677200Y-80928571D02*
X160724819Y-81023809D01*
X160724819Y-81023809D02*
X160724819Y-81309523D01*
X160724819Y-81309523D02*
X160677200Y-81404761D01*
X160677200Y-81404761D02*
X160629580Y-81452380D01*
X161374405Y-83319819D02*
X161374405Y-82319819D01*
X161374405Y-82319819D02*
X161612500Y-82319819D01*
X161612500Y-82319819D02*
X161755357Y-82367438D01*
X161755357Y-82367438D02*
X161850595Y-82462676D01*
X161850595Y-82462676D02*
X161898214Y-82557914D01*
X161898214Y-82557914D02*
X161945833Y-82748390D01*
X161945833Y-82748390D02*
X161945833Y-82891247D01*
X161945833Y-82891247D02*
X161898214Y-83081723D01*
X161898214Y-83081723D02*
X161850595Y-83176961D01*
X161850595Y-83176961D02*
X161755357Y-83272200D01*
X161755357Y-83272200D02*
X161612500Y-83319819D01*
X161612500Y-83319819D02*
X161374405Y-83319819D01*
X162898214Y-83319819D02*
X162326786Y-83319819D01*
X162612500Y-83319819D02*
X162612500Y-82319819D01*
X162612500Y-82319819D02*
X162517262Y-82462676D01*
X162517262Y-82462676D02*
X162422024Y-82557914D01*
X162422024Y-82557914D02*
X162326786Y-82605533D01*
X141166666Y-84184819D02*
X141166666Y-84899104D01*
X141166666Y-84899104D02*
X141119047Y-85041961D01*
X141119047Y-85041961D02*
X141023809Y-85137200D01*
X141023809Y-85137200D02*
X140880952Y-85184819D01*
X140880952Y-85184819D02*
X140785714Y-85184819D01*
X142071428Y-84184819D02*
X141880952Y-84184819D01*
X141880952Y-84184819D02*
X141785714Y-84232438D01*
X141785714Y-84232438D02*
X141738095Y-84280057D01*
X141738095Y-84280057D02*
X141642857Y-84422914D01*
X141642857Y-84422914D02*
X141595238Y-84613390D01*
X141595238Y-84613390D02*
X141595238Y-84994342D01*
X141595238Y-84994342D02*
X141642857Y-85089580D01*
X141642857Y-85089580D02*
X141690476Y-85137200D01*
X141690476Y-85137200D02*
X141785714Y-85184819D01*
X141785714Y-85184819D02*
X141976190Y-85184819D01*
X141976190Y-85184819D02*
X142071428Y-85137200D01*
X142071428Y-85137200D02*
X142119047Y-85089580D01*
X142119047Y-85089580D02*
X142166666Y-84994342D01*
X142166666Y-84994342D02*
X142166666Y-84756247D01*
X142166666Y-84756247D02*
X142119047Y-84661009D01*
X142119047Y-84661009D02*
X142071428Y-84613390D01*
X142071428Y-84613390D02*
X141976190Y-84565771D01*
X141976190Y-84565771D02*
X141785714Y-84565771D01*
X141785714Y-84565771D02*
X141690476Y-84613390D01*
X141690476Y-84613390D02*
X141642857Y-84661009D01*
X141642857Y-84661009D02*
X141595238Y-84756247D01*
X145454819Y-84166666D02*
X144978628Y-84499999D01*
X145454819Y-84738094D02*
X144454819Y-84738094D01*
X144454819Y-84738094D02*
X144454819Y-84357142D01*
X144454819Y-84357142D02*
X144502438Y-84261904D01*
X144502438Y-84261904D02*
X144550057Y-84214285D01*
X144550057Y-84214285D02*
X144645295Y-84166666D01*
X144645295Y-84166666D02*
X144788152Y-84166666D01*
X144788152Y-84166666D02*
X144883390Y-84214285D01*
X144883390Y-84214285D02*
X144931009Y-84261904D01*
X144931009Y-84261904D02*
X144978628Y-84357142D01*
X144978628Y-84357142D02*
X144978628Y-84738094D01*
X144788152Y-83309523D02*
X145454819Y-83309523D01*
X144407200Y-83547618D02*
X145121485Y-83785713D01*
X145121485Y-83785713D02*
X145121485Y-83166666D01*
D11*
%TO.C,LED4*%
X144568200Y-87058250D02*
X144568200Y-87941750D01*
X145431800Y-87941750D02*
X145431800Y-87058250D01*
%TO.C,LED3*%
X154558250Y-85431800D02*
X155441750Y-85431800D01*
X155441750Y-84568200D02*
X154558250Y-84568200D01*
%TO.C,LED2*%
X162058250Y-90431800D02*
X162941750Y-90431800D01*
X162941750Y-89568200D02*
X162058250Y-89568200D01*
%TO.C,LED1*%
X147941750Y-89568200D02*
X147058250Y-89568200D01*
X147058250Y-90431800D02*
X147941750Y-90431800D01*
D12*
%TO.C,U1*%
X152400000Y-89195000D02*
X149600000Y-89195000D01*
X152400000Y-86205000D02*
X149600000Y-86205000D01*
D13*
X154290000Y-89075000D02*
G75*
G03*
X154290000Y-89075000I-100000J0D01*
G01*
D14*
%TO.C,R3*%
X150227064Y-85535000D02*
X149772936Y-85535000D01*
X150227064Y-84065000D02*
X149772936Y-84065000D01*
%TO.C,R1*%
X152172936Y-90705000D02*
X152627064Y-90705000D01*
X152172936Y-92175000D02*
X152627064Y-92175000D01*
%TO.C,R2*%
X157707064Y-92175000D02*
X157252936Y-92175000D01*
X157707064Y-90705000D02*
X157252936Y-90705000D01*
%TO.C,J1*%
X146170000Y-94710000D02*
X146170000Y-94830000D01*
X146170000Y-94830000D02*
X148830000Y-94830000D01*
X147500000Y-92170000D02*
X148830000Y-92170000D01*
X148830000Y-92170000D02*
X148830000Y-93500000D01*
X148830000Y-94710000D02*
X148830000Y-94830000D01*
%TO.C,J2*%
X161170000Y-94710000D02*
X161170000Y-94830000D01*
X161170000Y-94830000D02*
X163830000Y-94830000D01*
X162500000Y-92170000D02*
X163830000Y-92170000D01*
X163830000Y-92170000D02*
X163830000Y-93500000D01*
X163830000Y-94710000D02*
X163830000Y-94830000D01*
%TO.C,J3*%
X156230000Y-80170000D02*
X151090000Y-80170000D01*
X156230000Y-80170000D02*
X156230000Y-82830000D01*
X151090000Y-80170000D02*
X151090000Y-82830000D01*
X158830000Y-81500000D02*
X158830000Y-82830000D01*
X158830000Y-82830000D02*
X157500000Y-82830000D01*
X156230000Y-82830000D02*
X151090000Y-82830000D01*
D12*
%TO.C,D1*%
X157687500Y-85250000D02*
X158187500Y-85250000D01*
X157687500Y-87750000D02*
X158187500Y-87750000D01*
X157937500Y-85000000D02*
X157937500Y-85500000D01*
X160512500Y-84137500D02*
X160512500Y-84405000D01*
X160512500Y-88595000D02*
X160512500Y-88862500D01*
X160512500Y-88862500D02*
X164362500Y-88862500D01*
X164362500Y-84137500D02*
X160512500Y-84137500D01*
X164362500Y-84405000D02*
X164362500Y-84137500D01*
X164362500Y-88862500D02*
X164362500Y-88595000D01*
D14*
%TO.C,J6*%
X140170000Y-88710000D02*
X140170000Y-88830000D01*
X140170000Y-88830000D02*
X142830000Y-88830000D01*
X141500000Y-86170000D02*
X142830000Y-86170000D01*
X142830000Y-86170000D02*
X142830000Y-87500000D01*
X142830000Y-88710000D02*
X142830000Y-88830000D01*
%TO.C,G\u002A\u002A\u002A*%
G36*
X165797382Y-92581209D02*
G01*
X165796132Y-92582459D01*
X165794882Y-92581209D01*
X165796132Y-92579959D01*
X165797382Y-92581209D01*
G37*
G36*
X165802382Y-92578709D02*
G01*
X165801132Y-92579959D01*
X165799882Y-92578709D01*
X165801132Y-92577459D01*
X165802382Y-92578709D01*
G37*
G36*
X165924894Y-93041254D02*
G01*
X165923644Y-93042504D01*
X165922394Y-93041254D01*
X165923644Y-93040004D01*
X165924894Y-93041254D01*
G37*
G36*
X165927395Y-93253775D02*
G01*
X165926144Y-93255025D01*
X165924894Y-93253775D01*
X165926144Y-93252525D01*
X165927395Y-93253775D01*
G37*
G36*
X165937396Y-93076258D02*
G01*
X165936145Y-93077508D01*
X165934895Y-93076258D01*
X165936145Y-93075008D01*
X165937396Y-93076258D01*
G37*
G36*
X165989901Y-92786229D02*
G01*
X165988651Y-92787479D01*
X165987400Y-92786229D01*
X165988651Y-92784979D01*
X165989901Y-92786229D01*
G37*
G36*
X166014903Y-92878738D02*
G01*
X166013653Y-92879988D01*
X166012403Y-92878738D01*
X166013653Y-92877488D01*
X166014903Y-92878738D01*
G37*
G36*
X166042406Y-92751226D02*
G01*
X166041156Y-92752476D01*
X166039906Y-92751226D01*
X166041156Y-92749976D01*
X166042406Y-92751226D01*
G37*
G36*
X166042406Y-93201270D02*
G01*
X166041156Y-93202520D01*
X166039906Y-93201270D01*
X166041156Y-93200020D01*
X166042406Y-93201270D01*
G37*
G36*
X166049907Y-92746225D02*
G01*
X166048657Y-92747475D01*
X166047406Y-92746225D01*
X166048657Y-92744975D01*
X166049907Y-92746225D01*
G37*
G36*
X166059908Y-92596210D02*
G01*
X166058658Y-92597461D01*
X166057407Y-92596210D01*
X166058658Y-92594960D01*
X166059908Y-92596210D01*
G37*
G36*
X166069909Y-92661217D02*
G01*
X166068658Y-92662467D01*
X166067408Y-92661217D01*
X166068658Y-92659967D01*
X166069909Y-92661217D01*
G37*
G36*
X166092411Y-93146265D02*
G01*
X166091161Y-93147515D01*
X166089911Y-93146265D01*
X166091161Y-93145014D01*
X166092411Y-93146265D01*
G37*
G36*
X166137415Y-92543705D02*
G01*
X166136165Y-92544955D01*
X166134915Y-92543705D01*
X166136165Y-92542455D01*
X166137415Y-92543705D01*
G37*
G36*
X166147416Y-92538705D02*
G01*
X166146166Y-92539955D01*
X166144916Y-92538705D01*
X166146166Y-92537455D01*
X166147416Y-92538705D01*
G37*
G36*
X166192421Y-92881238D02*
G01*
X166191171Y-92882489D01*
X166189920Y-92881238D01*
X166191171Y-92879988D01*
X166192421Y-92881238D01*
G37*
G36*
X166192421Y-93056256D02*
G01*
X166191171Y-93057506D01*
X166189920Y-93056256D01*
X166191171Y-93055006D01*
X166192421Y-93056256D01*
G37*
G36*
X166574958Y-93321282D02*
G01*
X166573708Y-93322532D01*
X166572458Y-93321282D01*
X166573708Y-93320032D01*
X166574958Y-93321282D01*
G37*
G36*
X165909048Y-93271902D02*
G01*
X165909379Y-93277021D01*
X165909048Y-93278153D01*
X165908136Y-93278467D01*
X165907787Y-93275027D01*
X165908180Y-93271478D01*
X165909048Y-93271902D01*
G37*
G36*
X166041572Y-92933327D02*
G01*
X166041872Y-92936294D01*
X166041572Y-92936661D01*
X166040086Y-92936317D01*
X166039906Y-92934994D01*
X166040820Y-92932936D01*
X166041572Y-92933327D01*
G37*
G36*
X166084077Y-92673301D02*
G01*
X166084376Y-92676269D01*
X166084077Y-92676635D01*
X166082590Y-92676292D01*
X166082410Y-92674968D01*
X166083325Y-92672910D01*
X166084077Y-92673301D01*
G37*
G36*
X166581626Y-93323365D02*
G01*
X166581282Y-93324852D01*
X166579959Y-93325032D01*
X166577901Y-93324117D01*
X166578292Y-93323365D01*
X166581259Y-93323066D01*
X166581626Y-93323365D01*
G37*
G36*
X165750686Y-93203522D02*
G01*
X165750788Y-93207449D01*
X165748663Y-93209136D01*
X165746017Y-93207344D01*
X165745924Y-93203351D01*
X165746763Y-93202134D01*
X165749465Y-93201576D01*
X165750686Y-93203522D01*
G37*
G36*
X165866009Y-93219068D02*
G01*
X165869528Y-93221085D01*
X165868938Y-93222390D01*
X165867536Y-93222522D01*
X165864146Y-93220706D01*
X165863656Y-93220050D01*
X165864058Y-93218630D01*
X165866009Y-93219068D01*
G37*
G36*
X166016219Y-92982981D02*
G01*
X166015469Y-92984841D01*
X166013136Y-92986088D01*
X166010215Y-92986849D01*
X166011413Y-92985018D01*
X166011736Y-92984688D01*
X166015014Y-92982714D01*
X166016219Y-92982981D01*
G37*
G36*
X165977207Y-92821347D02*
G01*
X165977400Y-92822188D01*
X165975575Y-92825722D01*
X165974899Y-92826233D01*
X165972592Y-92826119D01*
X165972399Y-92825278D01*
X165974224Y-92821743D01*
X165974899Y-92821233D01*
X165977207Y-92821347D01*
G37*
G36*
X166049122Y-93196634D02*
G01*
X166048657Y-93197520D01*
X166046301Y-93199907D01*
X166045861Y-93200020D01*
X166045691Y-93198405D01*
X166046156Y-93197520D01*
X166048512Y-93195132D01*
X166048952Y-93195019D01*
X166049122Y-93196634D01*
G37*
G36*
X166069078Y-93198960D02*
G01*
X166071161Y-93203731D01*
X166070575Y-93204572D01*
X166066871Y-93202036D01*
X166066683Y-93201895D01*
X166064050Y-93198162D01*
X166064360Y-93195835D01*
X166066583Y-93195224D01*
X166069078Y-93198960D01*
G37*
G36*
X165940988Y-93064810D02*
G01*
X165945033Y-93070200D01*
X165948140Y-93075819D01*
X165948601Y-93079654D01*
X165948329Y-93080060D01*
X165946129Y-93079390D01*
X165943171Y-93074971D01*
X165941957Y-93072367D01*
X165939247Y-93065469D01*
X165938902Y-93062966D01*
X165940988Y-93064810D01*
G37*
G36*
X166078309Y-93209629D02*
G01*
X166082310Y-93211487D01*
X166083846Y-93212823D01*
X166084679Y-93214505D01*
X166083288Y-93214467D01*
X166078507Y-93212633D01*
X166078034Y-93212443D01*
X166073730Y-93210320D01*
X166072409Y-93209085D01*
X166074259Y-93208583D01*
X166078309Y-93209629D01*
G37*
G36*
X166131646Y-92546107D02*
G01*
X166129118Y-92548615D01*
X166124953Y-92551568D01*
X166120521Y-92553983D01*
X166117413Y-92554884D01*
X166116748Y-92553774D01*
X166119719Y-92550964D01*
X166121164Y-92549956D01*
X166126816Y-92546648D01*
X166130837Y-92545054D01*
X166131165Y-92545027D01*
X166131646Y-92546107D01*
G37*
G36*
X166007697Y-92991477D02*
G01*
X166005801Y-92995443D01*
X166000918Y-93001199D01*
X165996776Y-93005183D01*
X165988301Y-93011725D01*
X165980995Y-93014612D01*
X165977937Y-93014899D01*
X165970038Y-93016242D01*
X165963560Y-93019040D01*
X165959269Y-93021147D01*
X165957400Y-93020668D01*
X165957398Y-93020596D01*
X165959710Y-93016438D01*
X165966757Y-93012422D01*
X165973134Y-93010097D01*
X165980739Y-93006723D01*
X165989488Y-93001554D01*
X165993783Y-92998520D01*
X166000085Y-92993863D01*
X166004658Y-92990768D01*
X166006174Y-92989999D01*
X166007697Y-92991477D01*
G37*
G36*
X167522530Y-92681479D02*
G01*
X167525029Y-92683691D01*
X167528451Y-92686227D01*
X167530110Y-92686184D01*
X167533896Y-92685915D01*
X167536263Y-92686550D01*
X167539200Y-92689730D01*
X167538825Y-92694922D01*
X167535845Y-92701164D01*
X167530968Y-92707491D01*
X167524902Y-92712942D01*
X167518352Y-92716552D01*
X167513557Y-92717472D01*
X167507117Y-92716466D01*
X167502853Y-92714088D01*
X167501072Y-92708720D01*
X167501281Y-92700928D01*
X167503117Y-92692696D01*
X167506214Y-92686011D01*
X167508461Y-92683613D01*
X167516098Y-92680260D01*
X167522530Y-92681479D01*
G37*
G36*
X167293466Y-92621114D02*
G01*
X167296712Y-92624353D01*
X167297529Y-92629798D01*
X167295843Y-92636449D01*
X167291588Y-92643742D01*
X167285966Y-92650180D01*
X167280182Y-92654265D01*
X167277304Y-92654966D01*
X167272992Y-92652906D01*
X167267802Y-92647492D01*
X167265836Y-92644749D01*
X167261680Y-92637001D01*
X167261391Y-92631361D01*
X167261528Y-92631214D01*
X167287528Y-92631214D01*
X167288779Y-92632464D01*
X167290029Y-92631214D01*
X167288779Y-92629964D01*
X167287528Y-92631214D01*
X167261528Y-92631214D01*
X167265315Y-92627149D01*
X167273796Y-92623687D01*
X167277014Y-92622765D01*
X167287121Y-92620660D01*
X167293466Y-92621114D01*
G37*
G36*
X166977643Y-92642188D02*
G01*
X166980932Y-92647739D01*
X166982051Y-92657656D01*
X166978517Y-92666451D01*
X166971805Y-92672536D01*
X166962307Y-92676729D01*
X166954571Y-92676855D01*
X166950495Y-92674468D01*
X166947753Y-92668775D01*
X166949046Y-92663300D01*
X166958329Y-92663300D01*
X166958673Y-92664787D01*
X166959996Y-92664967D01*
X166962054Y-92664052D01*
X166961663Y-92663300D01*
X166958696Y-92663001D01*
X166958329Y-92663300D01*
X166949046Y-92663300D01*
X166949474Y-92661487D01*
X166954819Y-92653716D01*
X166967497Y-92653716D01*
X166968747Y-92654966D01*
X166969997Y-92653716D01*
X166968747Y-92652466D01*
X166967497Y-92653716D01*
X166954819Y-92653716D01*
X166955712Y-92652417D01*
X166957481Y-92650401D01*
X166962104Y-92646215D01*
X166969997Y-92646215D01*
X166971247Y-92647465D01*
X166972497Y-92646215D01*
X166971247Y-92644965D01*
X166969997Y-92646215D01*
X166962104Y-92646215D01*
X166965587Y-92643061D01*
X166972366Y-92640317D01*
X166977643Y-92642188D01*
G37*
G36*
X167415351Y-92449715D02*
G01*
X167428662Y-92449963D01*
X167440262Y-92450456D01*
X167449033Y-92451197D01*
X167452918Y-92451872D01*
X167460520Y-92454998D01*
X167468900Y-92459996D01*
X167471862Y-92462198D01*
X167477822Y-92467842D01*
X167482257Y-92474537D01*
X167486176Y-92483942D01*
X167487554Y-92488001D01*
X167490496Y-92497556D01*
X167491970Y-92504862D01*
X167492143Y-92512035D01*
X167491182Y-92521188D01*
X167490536Y-92525749D01*
X167488839Y-92536072D01*
X167486871Y-92543183D01*
X167483845Y-92548843D01*
X167478972Y-92554812D01*
X167476165Y-92557856D01*
X167470490Y-92564491D01*
X167466720Y-92570009D01*
X167465676Y-92573168D01*
X167468480Y-92576412D01*
X167473116Y-92579355D01*
X167478712Y-92583173D01*
X167485206Y-92589080D01*
X167487609Y-92591661D01*
X167491933Y-92596894D01*
X167494177Y-92601234D01*
X167494796Y-92606488D01*
X167494249Y-92614468D01*
X167493997Y-92616965D01*
X167492589Y-92626565D01*
X167490618Y-92635043D01*
X167488919Y-92639662D01*
X167480216Y-92651100D01*
X167466694Y-92661365D01*
X167448406Y-92670419D01*
X167446614Y-92671139D01*
X167436969Y-92673517D01*
X167423904Y-92674777D01*
X167408865Y-92674950D01*
X167393297Y-92674067D01*
X167378646Y-92672160D01*
X167366911Y-92669431D01*
X167350035Y-92664222D01*
X167350035Y-92653506D01*
X167350607Y-92645089D01*
X167351575Y-92640061D01*
X167384420Y-92640061D01*
X167385309Y-92642389D01*
X167387248Y-92643306D01*
X167395786Y-92644458D01*
X167407164Y-92644531D01*
X167419357Y-92643614D01*
X167430344Y-92641796D01*
X167432228Y-92641330D01*
X167444266Y-92637141D01*
X167452028Y-92631730D01*
X167456219Y-92624321D01*
X167457542Y-92614138D01*
X167457545Y-92613447D01*
X167457201Y-92605310D01*
X167455707Y-92600349D01*
X167452372Y-92596760D01*
X167450670Y-92595513D01*
X167443199Y-92591226D01*
X167435295Y-92587842D01*
X167427576Y-92586117D01*
X167418029Y-92585204D01*
X167408215Y-92585096D01*
X167399694Y-92585791D01*
X167394027Y-92587283D01*
X167393039Y-92587960D01*
X167391096Y-92592247D01*
X167390020Y-92599144D01*
X167389951Y-92601086D01*
X167389352Y-92609215D01*
X167387900Y-92619510D01*
X167386535Y-92626720D01*
X167384846Y-92635229D01*
X167384420Y-92640061D01*
X167351575Y-92640061D01*
X167352027Y-92637717D01*
X167352449Y-92636440D01*
X167354896Y-92626890D01*
X167356794Y-92612821D01*
X167358120Y-92594687D01*
X167358195Y-92592460D01*
X167370037Y-92592460D01*
X167370951Y-92594518D01*
X167371703Y-92594127D01*
X167372003Y-92591160D01*
X167371703Y-92590793D01*
X167370217Y-92591136D01*
X167370037Y-92592460D01*
X167358195Y-92592460D01*
X167358853Y-92572942D01*
X167358972Y-92548040D01*
X167358665Y-92531716D01*
X167385056Y-92531716D01*
X167385349Y-92538409D01*
X167386986Y-92541702D01*
X167391057Y-92543185D01*
X167393164Y-92543557D01*
X167408272Y-92545599D01*
X167422808Y-92546792D01*
X167435709Y-92547114D01*
X167445912Y-92546539D01*
X167452355Y-92545045D01*
X167452683Y-92544881D01*
X167457337Y-92540789D01*
X167460951Y-92535505D01*
X167462698Y-92531066D01*
X167462995Y-92526291D01*
X167461778Y-92519539D01*
X167460065Y-92513023D01*
X167456207Y-92501372D01*
X167451673Y-92493490D01*
X167445441Y-92488158D01*
X167436489Y-92484157D01*
X167435595Y-92483848D01*
X167420768Y-92480398D01*
X167407371Y-92480984D01*
X167397939Y-92483831D01*
X167392772Y-92486094D01*
X167389743Y-92488604D01*
X167388103Y-92492731D01*
X167387103Y-92499843D01*
X167386655Y-92504458D01*
X167385806Y-92515070D01*
X167385224Y-92525411D01*
X167385056Y-92531716D01*
X167358665Y-92531716D01*
X167358453Y-92520435D01*
X167358293Y-92515276D01*
X167357953Y-92504951D01*
X167365717Y-92504951D01*
X167365912Y-92510359D01*
X167366411Y-92511844D01*
X167366801Y-92510577D01*
X167367214Y-92503291D01*
X167366801Y-92499326D01*
X167366182Y-92498141D01*
X167365790Y-92501282D01*
X167365717Y-92504951D01*
X167357953Y-92504951D01*
X167356504Y-92460989D01*
X167365233Y-92460989D01*
X167365693Y-92464232D01*
X167366547Y-92464270D01*
X167367143Y-92460924D01*
X167366744Y-92459478D01*
X167365634Y-92458531D01*
X167365233Y-92460989D01*
X167356504Y-92460989D01*
X167356285Y-92454343D01*
X167362248Y-92452078D01*
X167367349Y-92451134D01*
X167376328Y-92450423D01*
X167388066Y-92449948D01*
X167401447Y-92449711D01*
X167415351Y-92449715D01*
G37*
G36*
X167116268Y-92450356D02*
G01*
X167129341Y-92451275D01*
X167139560Y-92452711D01*
X167142883Y-92453527D01*
X167157965Y-92459007D01*
X167168825Y-92465351D01*
X167176241Y-92473306D01*
X167180991Y-92483619D01*
X167183046Y-92492101D01*
X167184465Y-92500803D01*
X167184550Y-92507037D01*
X167182994Y-92513011D01*
X167179492Y-92520935D01*
X167178878Y-92522221D01*
X167171846Y-92536936D01*
X167183494Y-92549071D01*
X167192329Y-92560043D01*
X167197817Y-92571601D01*
X167200240Y-92584852D01*
X167199881Y-92600901D01*
X167198886Y-92609343D01*
X167197134Y-92617941D01*
X167193982Y-92624094D01*
X167188133Y-92630144D01*
X167186658Y-92631434D01*
X167178726Y-92637920D01*
X167171358Y-92642882D01*
X167163521Y-92646706D01*
X167154183Y-92649777D01*
X167142311Y-92652481D01*
X167126874Y-92655204D01*
X167120230Y-92656266D01*
X167105110Y-92658403D01*
X167093516Y-92659401D01*
X167084120Y-92659317D01*
X167075592Y-92658208D01*
X167075395Y-92658171D01*
X167071135Y-92656317D01*
X167070808Y-92652250D01*
X167070960Y-92651636D01*
X167071298Y-92647299D01*
X167071268Y-92639011D01*
X167070896Y-92627806D01*
X167070212Y-92614718D01*
X167069824Y-92608712D01*
X167066945Y-92580566D01*
X167101914Y-92580566D01*
X167103462Y-92591862D01*
X167104357Y-92601099D01*
X167104916Y-92612090D01*
X167105010Y-92617811D01*
X167105010Y-92632464D01*
X167115637Y-92632463D01*
X167124313Y-92631519D01*
X167134457Y-92629118D01*
X167139416Y-92627462D01*
X167147882Y-92624642D01*
X167155331Y-92622829D01*
X167158525Y-92622463D01*
X167162452Y-92621867D01*
X167165056Y-92619537D01*
X167166596Y-92614656D01*
X167167330Y-92606409D01*
X167167517Y-92594062D01*
X167167153Y-92581185D01*
X167166337Y-92576208D01*
X167175017Y-92576208D01*
X167176268Y-92577459D01*
X167177518Y-92576208D01*
X167176268Y-92574958D01*
X167175017Y-92576208D01*
X167166337Y-92576208D01*
X167165729Y-92572501D01*
X167162745Y-92567236D01*
X167157699Y-92564613D01*
X167150091Y-92563858D01*
X167148029Y-92563865D01*
X167136735Y-92565340D01*
X167124173Y-92569746D01*
X167118690Y-92572307D01*
X167101914Y-92580566D01*
X167066945Y-92580566D01*
X167066681Y-92577988D01*
X167061576Y-92546770D01*
X167060320Y-92541205D01*
X167090009Y-92541205D01*
X167091259Y-92542455D01*
X167092509Y-92541205D01*
X167091259Y-92539955D01*
X167090009Y-92541205D01*
X167060320Y-92541205D01*
X167059192Y-92536205D01*
X167160016Y-92536205D01*
X167161266Y-92537455D01*
X167162516Y-92536205D01*
X167161266Y-92534954D01*
X167160016Y-92536205D01*
X167059192Y-92536205D01*
X167054882Y-92517104D01*
X167049947Y-92499908D01*
X167047188Y-92488909D01*
X167047153Y-92488700D01*
X167057506Y-92488700D01*
X167058756Y-92489950D01*
X167060006Y-92488700D01*
X167058756Y-92487450D01*
X167057506Y-92488700D01*
X167047153Y-92488700D01*
X167045170Y-92476766D01*
X167044953Y-92474510D01*
X167076780Y-92474510D01*
X167076816Y-92475034D01*
X167078414Y-92482637D01*
X167081007Y-92492005D01*
X167084189Y-92501978D01*
X167087551Y-92511395D01*
X167090687Y-92519093D01*
X167093190Y-92523913D01*
X167094316Y-92524953D01*
X167098341Y-92524165D01*
X167105354Y-92522124D01*
X167111862Y-92519953D01*
X167120510Y-92517229D01*
X167127995Y-92515412D01*
X167131610Y-92514952D01*
X167138024Y-92512972D01*
X167145316Y-92507893D01*
X167151972Y-92501006D01*
X167156369Y-92493859D01*
X167157186Y-92489950D01*
X167170017Y-92489950D01*
X167170932Y-92492008D01*
X167171684Y-92491617D01*
X167171983Y-92488650D01*
X167171684Y-92488283D01*
X167170197Y-92488626D01*
X167170017Y-92489950D01*
X167157186Y-92489950D01*
X167158086Y-92485642D01*
X167156064Y-92481199D01*
X167167517Y-92481199D01*
X167168767Y-92482449D01*
X167170017Y-92481199D01*
X167168767Y-92479949D01*
X167167517Y-92481199D01*
X167156064Y-92481199D01*
X167155410Y-92479761D01*
X167148728Y-92476413D01*
X167144463Y-92474564D01*
X167143621Y-92472679D01*
X167142585Y-92470679D01*
X167137172Y-92469123D01*
X167127993Y-92468104D01*
X167115660Y-92467711D01*
X167110324Y-92467744D01*
X167095245Y-92468338D01*
X167084829Y-92469620D01*
X167078774Y-92471655D01*
X167076780Y-92474510D01*
X167044953Y-92474510D01*
X167044670Y-92471569D01*
X167043754Y-92457024D01*
X167053755Y-92453522D01*
X167061529Y-92451854D01*
X167072972Y-92450704D01*
X167086779Y-92450070D01*
X167101646Y-92449955D01*
X167116268Y-92450356D01*
G37*
G36*
X166807630Y-92495030D02*
G01*
X166817588Y-92498130D01*
X166829641Y-92498641D01*
X166841564Y-92496499D01*
X166842881Y-92496061D01*
X166850808Y-92493929D01*
X166855348Y-92494467D01*
X166856042Y-92495006D01*
X166857118Y-92498074D01*
X166855405Y-92499692D01*
X166853544Y-92501927D01*
X166854044Y-92505927D01*
X166855748Y-92510420D01*
X166857855Y-92516438D01*
X166860703Y-92525890D01*
X166863876Y-92537344D01*
X166866223Y-92546412D01*
X166869309Y-92558001D01*
X166872363Y-92568237D01*
X166874992Y-92575863D01*
X166876527Y-92579246D01*
X166879034Y-92585773D01*
X166880027Y-92592997D01*
X166880988Y-92601272D01*
X166883990Y-92605434D01*
X166887426Y-92606211D01*
X166889181Y-92607127D01*
X166890335Y-92610412D01*
X166891018Y-92616873D01*
X166891361Y-92627320D01*
X166891410Y-92630698D01*
X166891854Y-92642917D01*
X166892795Y-92652092D01*
X166894133Y-92657374D01*
X166894599Y-92658075D01*
X166896930Y-92662765D01*
X166897490Y-92666717D01*
X166898889Y-92671368D01*
X166901240Y-92672468D01*
X166904587Y-92673865D01*
X166903796Y-92678047D01*
X166898869Y-92684997D01*
X166897490Y-92686601D01*
X166892936Y-92692515D01*
X166890274Y-92697378D01*
X166889989Y-92698660D01*
X166888228Y-92703073D01*
X166883711Y-92703862D01*
X166880715Y-92702707D01*
X166874813Y-92700321D01*
X166869362Y-92698824D01*
X166864927Y-92696701D01*
X166862518Y-92693533D01*
X166862809Y-92690814D01*
X166865374Y-92689970D01*
X166866400Y-92688558D01*
X166864394Y-92685594D01*
X166862544Y-92681885D01*
X166860572Y-92674639D01*
X166858423Y-92663555D01*
X166856044Y-92648329D01*
X166853382Y-92628657D01*
X166851505Y-92613504D01*
X166885186Y-92613504D01*
X166885646Y-92616747D01*
X166886499Y-92616785D01*
X166887096Y-92613439D01*
X166886697Y-92611993D01*
X166885587Y-92611046D01*
X166885186Y-92613504D01*
X166851505Y-92613504D01*
X166851066Y-92609962D01*
X166849974Y-92602051D01*
X166848917Y-92596284D01*
X166848358Y-92594426D01*
X166846005Y-92595072D01*
X166840218Y-92598033D01*
X166831748Y-92602888D01*
X166821346Y-92609214D01*
X166815515Y-92612886D01*
X166803691Y-92620307D01*
X166792728Y-92626985D01*
X166783609Y-92632339D01*
X166777313Y-92635784D01*
X166775815Y-92636493D01*
X166767901Y-92639855D01*
X166771458Y-92653036D01*
X166774203Y-92665758D01*
X166776011Y-92679526D01*
X166776937Y-92693651D01*
X166777035Y-92707447D01*
X166776359Y-92720225D01*
X166774961Y-92731298D01*
X166772897Y-92739977D01*
X166770221Y-92745575D01*
X166766985Y-92747404D01*
X166764189Y-92745854D01*
X166763478Y-92742444D01*
X166764043Y-92738353D01*
X166764831Y-92734048D01*
X166763598Y-92732815D01*
X166759413Y-92734409D01*
X166755887Y-92736209D01*
X166748450Y-92738945D01*
X166741850Y-92739959D01*
X166737325Y-92739458D01*
X166735369Y-92736953D01*
X166734899Y-92730988D01*
X166734895Y-92730599D01*
X166734778Y-92729030D01*
X166747475Y-92729030D01*
X166748692Y-92729778D01*
X166752015Y-92726566D01*
X166752795Y-92725598D01*
X166754957Y-92722637D01*
X166753662Y-92723257D01*
X166751851Y-92724654D01*
X166748388Y-92727738D01*
X166747475Y-92729030D01*
X166734778Y-92729030D01*
X166734288Y-92722426D01*
X166734080Y-92720868D01*
X166764194Y-92720868D01*
X166765324Y-92722473D01*
X166766943Y-92720331D01*
X166767477Y-92716222D01*
X166767148Y-92711518D01*
X166766519Y-92709972D01*
X166765394Y-92712095D01*
X166764365Y-92716222D01*
X166764194Y-92720868D01*
X166734080Y-92720868D01*
X166732750Y-92710917D01*
X166732183Y-92707471D01*
X166742475Y-92707471D01*
X166744377Y-92709899D01*
X166744975Y-92709972D01*
X166747403Y-92708069D01*
X166747475Y-92707471D01*
X166745573Y-92705044D01*
X166744975Y-92704971D01*
X166742547Y-92706874D01*
X166742475Y-92707471D01*
X166732183Y-92707471D01*
X166730557Y-92697588D01*
X166727987Y-92683957D01*
X166725316Y-92671539D01*
X166723891Y-92666009D01*
X166762674Y-92666009D01*
X166763134Y-92669252D01*
X166763987Y-92669291D01*
X166764584Y-92665944D01*
X166764185Y-92664498D01*
X166763075Y-92663551D01*
X166762674Y-92666009D01*
X166723891Y-92666009D01*
X166722820Y-92661852D01*
X166721789Y-92658684D01*
X166718960Y-92649392D01*
X166716671Y-92639267D01*
X166716359Y-92637431D01*
X166714781Y-92630847D01*
X166711734Y-92620843D01*
X166707648Y-92608627D01*
X166702958Y-92595404D01*
X166698094Y-92582379D01*
X166695649Y-92576208D01*
X166709972Y-92576208D01*
X166711222Y-92577459D01*
X166712472Y-92576208D01*
X166711222Y-92574958D01*
X166709972Y-92576208D01*
X166695649Y-92576208D01*
X166693490Y-92570759D01*
X166693142Y-92569958D01*
X166707471Y-92569958D01*
X166708386Y-92572016D01*
X166709138Y-92571625D01*
X166709437Y-92568657D01*
X166709138Y-92568291D01*
X166707652Y-92568634D01*
X166707471Y-92569958D01*
X166693142Y-92569958D01*
X166689576Y-92561750D01*
X166688312Y-92559169D01*
X166685748Y-92548930D01*
X166685952Y-92546205D01*
X166697470Y-92546205D01*
X166698720Y-92547456D01*
X166699971Y-92546205D01*
X166698720Y-92544955D01*
X166697470Y-92546205D01*
X166685952Y-92546205D01*
X166686242Y-92542318D01*
X166686814Y-92539955D01*
X166694970Y-92539955D01*
X166695823Y-92542390D01*
X166696073Y-92542455D01*
X166698207Y-92540703D01*
X166698720Y-92539955D01*
X166698522Y-92537651D01*
X166697618Y-92537455D01*
X166695072Y-92539270D01*
X166694970Y-92539955D01*
X166686814Y-92539955D01*
X166687610Y-92536671D01*
X166689587Y-92533704D01*
X166709972Y-92533704D01*
X166711222Y-92534954D01*
X166712472Y-92533704D01*
X166711222Y-92532454D01*
X166709972Y-92533704D01*
X166689587Y-92533704D01*
X166690185Y-92532807D01*
X166695207Y-92529444D01*
X166701728Y-92526293D01*
X166709988Y-92522543D01*
X166714695Y-92520645D01*
X166716848Y-92520378D01*
X166717445Y-92521527D01*
X166717472Y-92522859D01*
X166718732Y-92526471D01*
X166721966Y-92532617D01*
X166724757Y-92537236D01*
X166728438Y-92544125D01*
X166733062Y-92554383D01*
X166738034Y-92566619D01*
X166742724Y-92579330D01*
X166747112Y-92591797D01*
X166750268Y-92600195D01*
X166752583Y-92605188D01*
X166754447Y-92607437D01*
X166756249Y-92607604D01*
X166758379Y-92606353D01*
X166758566Y-92606218D01*
X166758577Y-92606211D01*
X166772478Y-92606211D01*
X166773728Y-92607462D01*
X166774978Y-92606211D01*
X166773728Y-92604961D01*
X166772478Y-92606211D01*
X166758577Y-92606211D01*
X166760907Y-92604782D01*
X166778656Y-92604782D01*
X166778728Y-92604784D01*
X166782569Y-92603636D01*
X166787479Y-92601211D01*
X166791121Y-92598723D01*
X166791302Y-92597639D01*
X166791230Y-92597638D01*
X166787389Y-92598786D01*
X166782479Y-92601211D01*
X166778837Y-92603699D01*
X166778656Y-92604782D01*
X166760907Y-92604782D01*
X166763536Y-92603169D01*
X166771494Y-92598896D01*
X166781511Y-92593837D01*
X166792656Y-92588428D01*
X166792944Y-92588293D01*
X166843318Y-92588293D01*
X166843661Y-92589779D01*
X166844985Y-92589960D01*
X166847043Y-92589045D01*
X166846652Y-92588293D01*
X166843685Y-92587994D01*
X166843318Y-92588293D01*
X166792944Y-92588293D01*
X166804000Y-92583104D01*
X166814614Y-92578303D01*
X166823568Y-92574459D01*
X166829932Y-92572009D01*
X166832778Y-92571390D01*
X166832783Y-92571393D01*
X166836711Y-92571608D01*
X166837331Y-92571303D01*
X166837104Y-92568723D01*
X166834548Y-92563006D01*
X166830145Y-92555151D01*
X166827271Y-92550528D01*
X166817362Y-92534417D01*
X166809692Y-92520537D01*
X166805312Y-92511202D01*
X166834984Y-92511202D01*
X166836234Y-92512452D01*
X166837484Y-92511202D01*
X166836234Y-92509952D01*
X166834984Y-92511202D01*
X166805312Y-92511202D01*
X166804376Y-92509208D01*
X166801525Y-92500747D01*
X166801253Y-92495472D01*
X166803671Y-92493702D01*
X166807630Y-92495030D01*
G37*
G36*
X166326135Y-93097430D02*
G01*
X166326054Y-93101130D01*
X166324025Y-93105565D01*
X166321622Y-93111312D01*
X166319484Y-93119684D01*
X166318633Y-93124779D01*
X166316917Y-93134733D01*
X166314320Y-93146465D01*
X166312144Y-93154774D01*
X166309695Y-93164452D01*
X166307991Y-93173313D01*
X166307432Y-93178846D01*
X166306430Y-93186083D01*
X166303784Y-93196137D01*
X166300036Y-93207330D01*
X166295730Y-93217981D01*
X166292968Y-93223667D01*
X166290379Y-93229791D01*
X166289555Y-93234417D01*
X166289591Y-93234655D01*
X166289168Y-93239051D01*
X166287266Y-93245628D01*
X166286694Y-93247156D01*
X166284618Y-93253672D01*
X166283971Y-93258345D01*
X166284085Y-93258958D01*
X166283542Y-93262701D01*
X166280981Y-93269746D01*
X166276903Y-93279071D01*
X166271808Y-93289656D01*
X166266196Y-93300481D01*
X166260566Y-93310526D01*
X166255418Y-93318771D01*
X166253370Y-93321651D01*
X166247505Y-93328370D01*
X166238855Y-93336978D01*
X166228618Y-93346334D01*
X166218660Y-93354755D01*
X166207448Y-93363949D01*
X166196046Y-93373494D01*
X166185881Y-93382185D01*
X166179127Y-93388139D01*
X166170726Y-93395264D01*
X166162340Y-93401606D01*
X166155702Y-93405860D01*
X166155374Y-93406032D01*
X166147181Y-93410692D01*
X166139394Y-93415777D01*
X166138665Y-93416306D01*
X166130612Y-93421217D01*
X166118850Y-93427066D01*
X166104472Y-93433432D01*
X166088569Y-93439898D01*
X166072235Y-93446043D01*
X166056561Y-93451450D01*
X166042639Y-93455699D01*
X166031562Y-93458371D01*
X166027404Y-93458987D01*
X166018730Y-93459957D01*
X166007826Y-93461363D01*
X165999423Y-93462554D01*
X165991083Y-93463382D01*
X165979270Y-93464017D01*
X165965247Y-93464446D01*
X165950274Y-93464660D01*
X165935613Y-93464646D01*
X165922525Y-93464394D01*
X165912271Y-93463892D01*
X165907393Y-93463377D01*
X165873702Y-93456823D01*
X165844577Y-93448523D01*
X165819878Y-93438435D01*
X165807383Y-93431659D01*
X165797542Y-93425966D01*
X165786029Y-93419648D01*
X165777380Y-93415123D01*
X165769216Y-93410899D01*
X165762413Y-93407041D01*
X165756300Y-93402966D01*
X165750208Y-93398092D01*
X165743464Y-93391837D01*
X165735398Y-93383619D01*
X165725340Y-93372856D01*
X165712618Y-93358966D01*
X165712409Y-93358738D01*
X165697968Y-93342613D01*
X165686845Y-93329495D01*
X165678713Y-93318971D01*
X165673246Y-93310626D01*
X165670981Y-93306207D01*
X165667719Y-93298446D01*
X165665502Y-93292432D01*
X165664869Y-93289904D01*
X165663599Y-93286441D01*
X165660404Y-93280660D01*
X165658793Y-93278099D01*
X165654917Y-93270264D01*
X165651517Y-93260202D01*
X165650032Y-93253775D01*
X165648072Y-93245371D01*
X165645737Y-93238916D01*
X165643975Y-93236268D01*
X165641516Y-93232962D01*
X165637779Y-93226232D01*
X165633406Y-93217270D01*
X165631358Y-93212731D01*
X165627032Y-93202589D01*
X165624652Y-93195947D01*
X165623992Y-93191806D01*
X165624821Y-93189162D01*
X165625731Y-93188081D01*
X165628763Y-93185873D01*
X165630505Y-93187993D01*
X165630900Y-93189115D01*
X165633756Y-93193302D01*
X165639227Y-93198601D01*
X165642379Y-93201102D01*
X165649948Y-93207743D01*
X165656809Y-93215436D01*
X165658461Y-93217733D01*
X165662524Y-93222930D01*
X165669329Y-93230629D01*
X165678001Y-93239882D01*
X165687668Y-93249736D01*
X165689927Y-93251974D01*
X165700234Y-93262005D01*
X165707866Y-93269008D01*
X165713613Y-93273561D01*
X165718267Y-93276240D01*
X165722620Y-93277619D01*
X165725846Y-93278114D01*
X165736323Y-93281048D01*
X165747919Y-93287224D01*
X165749478Y-93288269D01*
X165762503Y-93297229D01*
X165773067Y-93292611D01*
X165783127Y-93286047D01*
X165792829Y-93275892D01*
X165801078Y-93263504D01*
X165806450Y-93251275D01*
X165809486Y-93242707D01*
X165812551Y-93235152D01*
X165813796Y-93232523D01*
X165816869Y-93225146D01*
X165818443Y-93219693D01*
X165821545Y-93213682D01*
X165826976Y-93211642D01*
X165833972Y-93213614D01*
X165840601Y-93218498D01*
X165851124Y-93227949D01*
X165861690Y-93236645D01*
X165871644Y-93244138D01*
X165880335Y-93249983D01*
X165887109Y-93253735D01*
X165891315Y-93254949D01*
X165892391Y-93253852D01*
X165891212Y-93250558D01*
X165888341Y-93244844D01*
X165884778Y-93238503D01*
X165881526Y-93233329D01*
X165879740Y-93231180D01*
X165878604Y-93228070D01*
X165879011Y-93226207D01*
X165881366Y-93223730D01*
X165882652Y-93223934D01*
X165884772Y-93223755D01*
X165884890Y-93223128D01*
X165882676Y-93221415D01*
X165876808Y-93218844D01*
X165868445Y-93215907D01*
X165866306Y-93215236D01*
X165854522Y-93211134D01*
X165850022Y-93208771D01*
X166004902Y-93208771D01*
X166006152Y-93210021D01*
X166007402Y-93208771D01*
X166006152Y-93207521D01*
X166004902Y-93208771D01*
X165850022Y-93208771D01*
X165846680Y-93207016D01*
X165841768Y-93202195D01*
X165839011Y-93196677D01*
X165837627Y-93194031D01*
X165835429Y-93194170D01*
X165831123Y-93197353D01*
X165829688Y-93198552D01*
X165823577Y-93202734D01*
X165818150Y-93204926D01*
X165817223Y-93205020D01*
X165812780Y-93207184D01*
X165807793Y-93212750D01*
X165803150Y-93220328D01*
X165799740Y-93228531D01*
X165798527Y-93234249D01*
X165797315Y-93239191D01*
X165794643Y-93246675D01*
X165791048Y-93255496D01*
X165787065Y-93264447D01*
X165783232Y-93272323D01*
X165780085Y-93277919D01*
X165778168Y-93280028D01*
X165775333Y-93278988D01*
X165772181Y-93277422D01*
X165769648Y-93275698D01*
X165769272Y-93273505D01*
X165771374Y-93269685D01*
X165776096Y-93263311D01*
X165780880Y-93256549D01*
X165784071Y-93251090D01*
X165784881Y-93248752D01*
X165786322Y-93244829D01*
X165789826Y-93239418D01*
X165790166Y-93238979D01*
X165793595Y-93233534D01*
X165793671Y-93230656D01*
X165790496Y-93230926D01*
X165788900Y-93231722D01*
X165783812Y-93235779D01*
X165777679Y-93242337D01*
X165771501Y-93250090D01*
X165766274Y-93257731D01*
X165762995Y-93263951D01*
X165762378Y-93266481D01*
X165761601Y-93270077D01*
X165758802Y-93272061D01*
X165753283Y-93272488D01*
X165744344Y-93271416D01*
X165731597Y-93268964D01*
X165718868Y-93265742D01*
X165709626Y-93261778D01*
X165702359Y-93256228D01*
X165696288Y-93249215D01*
X165691660Y-93242795D01*
X165690221Y-93239507D01*
X165691880Y-93238710D01*
X165694872Y-93239299D01*
X165698922Y-93241163D01*
X165699872Y-93242544D01*
X165701991Y-93244659D01*
X165707130Y-93247297D01*
X165713465Y-93249747D01*
X165719169Y-93251299D01*
X165722348Y-93251291D01*
X165723752Y-93247840D01*
X165723609Y-93241377D01*
X165722127Y-93233572D01*
X165719516Y-93226096D01*
X165719091Y-93225206D01*
X165716857Y-93219289D01*
X165717934Y-93216493D01*
X165722688Y-93216590D01*
X165729609Y-93218678D01*
X165736452Y-93220560D01*
X165739700Y-93220222D01*
X165739876Y-93219712D01*
X165742018Y-93218267D01*
X165747479Y-93218794D01*
X165753272Y-93219422D01*
X165757431Y-93218044D01*
X165760071Y-93214152D01*
X165761306Y-93207237D01*
X165761250Y-93196791D01*
X165760018Y-93182302D01*
X165758534Y-93169625D01*
X165758189Y-93164067D01*
X165759566Y-93160350D01*
X165763663Y-93156923D01*
X165768681Y-93153867D01*
X165777490Y-93149727D01*
X165788227Y-93146826D01*
X165802019Y-93144790D01*
X165813297Y-93143708D01*
X165822035Y-93143610D01*
X165829559Y-93144871D01*
X165837197Y-93147864D01*
X165846274Y-93152963D01*
X165858118Y-93160540D01*
X165858236Y-93160618D01*
X165868083Y-93166813D01*
X165874785Y-93170336D01*
X165879177Y-93171544D01*
X165881989Y-93170861D01*
X165887485Y-93169570D01*
X165897206Y-93170035D01*
X165902662Y-93170759D01*
X165914698Y-93171971D01*
X165924002Y-93171717D01*
X165929908Y-93170097D01*
X165931753Y-93167211D01*
X165931557Y-93166438D01*
X165932908Y-93163766D01*
X165937752Y-93160609D01*
X165944691Y-93157519D01*
X165952326Y-93155047D01*
X165959258Y-93153745D01*
X165963332Y-93153909D01*
X165970748Y-93154336D01*
X165981866Y-93153103D01*
X165995741Y-93150389D01*
X166011427Y-93146375D01*
X166025577Y-93142044D01*
X166050001Y-93133992D01*
X166066893Y-93150754D01*
X166074859Y-93158542D01*
X166080501Y-93163445D01*
X166085014Y-93166130D01*
X166089593Y-93167264D01*
X166095433Y-93167514D01*
X166096920Y-93167517D01*
X166105076Y-93166609D01*
X166114290Y-93164220D01*
X166123413Y-93160850D01*
X166131294Y-93156997D01*
X166136782Y-93153163D01*
X166138729Y-93149846D01*
X166138633Y-93149393D01*
X166140147Y-93146744D01*
X166145308Y-93142073D01*
X166153469Y-93135920D01*
X166161147Y-93130670D01*
X166171006Y-93123842D01*
X166178477Y-93118020D01*
X166182875Y-93113770D01*
X166183737Y-93111918D01*
X166184814Y-93108428D01*
X166188826Y-93103958D01*
X166189699Y-93103239D01*
X166196712Y-93097717D01*
X166194675Y-93108239D01*
X166193055Y-93120282D01*
X166192678Y-93132110D01*
X166193510Y-93142184D01*
X166195515Y-93148967D01*
X166195583Y-93149085D01*
X166199433Y-93155608D01*
X166201706Y-93159377D01*
X166202916Y-93162200D01*
X166202028Y-93164638D01*
X166198276Y-93167503D01*
X166190896Y-93171602D01*
X166189434Y-93172371D01*
X166180498Y-93176495D01*
X166173146Y-93178851D01*
X166169197Y-93179105D01*
X166164144Y-93179758D01*
X166155952Y-93183188D01*
X166147090Y-93188060D01*
X166137814Y-93193977D01*
X166132392Y-93198517D01*
X166130109Y-93202338D01*
X166129915Y-93203879D01*
X166128380Y-93208487D01*
X166123074Y-93210747D01*
X166123039Y-93210753D01*
X166115257Y-93212367D01*
X166109913Y-93213608D01*
X166105685Y-93214594D01*
X166106153Y-93214091D01*
X166109343Y-93212652D01*
X166115115Y-93208370D01*
X166116817Y-93203044D01*
X166115003Y-93198878D01*
X166111479Y-93196620D01*
X166106334Y-93197897D01*
X166106132Y-93197988D01*
X166099132Y-93199705D01*
X166094483Y-93197979D01*
X166093077Y-93193266D01*
X166093380Y-93191496D01*
X166093879Y-93187804D01*
X166092178Y-93185883D01*
X166087132Y-93184935D01*
X166083531Y-93184617D01*
X166075294Y-93184722D01*
X166068318Y-93186071D01*
X166066670Y-93186778D01*
X166060949Y-93188599D01*
X166052687Y-93189743D01*
X166048337Y-93189930D01*
X166039262Y-93190719D01*
X166030328Y-93192673D01*
X166022879Y-93195352D01*
X166018258Y-93198315D01*
X166017403Y-93200053D01*
X166018994Y-93202344D01*
X166022157Y-93201627D01*
X166023654Y-93200020D01*
X166027201Y-93197575D01*
X166030614Y-93199063D01*
X166031678Y-93201996D01*
X166029605Y-93206337D01*
X166023067Y-93210202D01*
X166012596Y-93213278D01*
X166012403Y-93213318D01*
X166004747Y-93215103D01*
X165999902Y-93216382D01*
X165995609Y-93217453D01*
X165995783Y-93216527D01*
X165998652Y-93214163D01*
X166001857Y-93211275D01*
X166001529Y-93210325D01*
X165997296Y-93211303D01*
X165989590Y-93213912D01*
X165983188Y-93215811D01*
X165976852Y-93216570D01*
X165968927Y-93216239D01*
X165957758Y-93214866D01*
X165957751Y-93214866D01*
X165936853Y-93211928D01*
X165930248Y-93218614D01*
X165926138Y-93223151D01*
X165925358Y-93225841D01*
X165927545Y-93228207D01*
X165927901Y-93228475D01*
X165930540Y-93231026D01*
X165929904Y-93233621D01*
X165926720Y-93237087D01*
X165922965Y-93241211D01*
X165922644Y-93242471D01*
X165925268Y-93241103D01*
X165930348Y-93237345D01*
X165936145Y-93232523D01*
X165945392Y-93225677D01*
X165952670Y-93222953D01*
X165954424Y-93222897D01*
X165961148Y-93223271D01*
X165954667Y-93224275D01*
X165949477Y-93226560D01*
X165942684Y-93231449D01*
X165937270Y-93236401D01*
X165930139Y-93243018D01*
X165924430Y-93246435D01*
X165918640Y-93247512D01*
X165917774Y-93247525D01*
X165910613Y-93246332D01*
X165906249Y-93243497D01*
X165903638Y-93240840D01*
X165900950Y-93241917D01*
X165899098Y-93243675D01*
X165895463Y-93250603D01*
X165895715Y-93259354D01*
X165899813Y-93268658D01*
X165899892Y-93268777D01*
X165903269Y-93275049D01*
X165904859Y-93280308D01*
X165904876Y-93280687D01*
X165906213Y-93286433D01*
X165909302Y-93292982D01*
X165912811Y-93297530D01*
X165912931Y-93297623D01*
X165914793Y-93300422D01*
X165918000Y-93306511D01*
X165921879Y-93314609D01*
X165922116Y-93315125D01*
X165925975Y-93324146D01*
X165927614Y-93329853D01*
X165927267Y-93333287D01*
X165926439Y-93334457D01*
X165925190Y-93338440D01*
X165925033Y-93345512D01*
X165925763Y-93354141D01*
X165927173Y-93362794D01*
X165929056Y-93369937D01*
X165931206Y-93374037D01*
X165931821Y-93374429D01*
X165934293Y-93373251D01*
X165934895Y-93370245D01*
X165935943Y-93366071D01*
X165937491Y-93365036D01*
X165938517Y-93362766D01*
X165939123Y-93356836D01*
X165939334Y-93348566D01*
X165939176Y-93339277D01*
X165938672Y-93330290D01*
X165937849Y-93322925D01*
X165936731Y-93318503D01*
X165936604Y-93318274D01*
X165935258Y-93313870D01*
X165934452Y-93307138D01*
X165934419Y-93306403D01*
X165933679Y-93300566D01*
X165932287Y-93297617D01*
X165931990Y-93297529D01*
X165929973Y-93299462D01*
X165929895Y-93300177D01*
X165928335Y-93301607D01*
X165927177Y-93301145D01*
X165925468Y-93297656D01*
X165925692Y-93294750D01*
X165925712Y-93290221D01*
X165924660Y-93288634D01*
X165923169Y-93285435D01*
X165922416Y-93279360D01*
X165922394Y-93278064D01*
X165922805Y-93273412D01*
X165924471Y-93269030D01*
X165928044Y-93263932D01*
X165934176Y-93257131D01*
X165940458Y-93250709D01*
X165948717Y-93242503D01*
X165954578Y-93237227D01*
X165959132Y-93234229D01*
X165963471Y-93232858D01*
X165968686Y-93232463D01*
X165971086Y-93232434D01*
X165988252Y-93230828D01*
X166007260Y-93226107D01*
X166028894Y-93218070D01*
X166032298Y-93216616D01*
X166045219Y-93211623D01*
X166054713Y-93209280D01*
X166060525Y-93209619D01*
X166062408Y-93212497D01*
X166064032Y-93215446D01*
X166068101Y-93220266D01*
X166069917Y-93222146D01*
X166074678Y-93227675D01*
X166076042Y-93232024D01*
X166075276Y-93235464D01*
X166074023Y-93241217D01*
X166074254Y-93244483D01*
X166073767Y-93248903D01*
X166072251Y-93251465D01*
X166070491Y-93255611D01*
X166071831Y-93257948D01*
X166075093Y-93258782D01*
X166080968Y-93256746D01*
X166086602Y-93253749D01*
X166094760Y-93249135D01*
X166102217Y-93245017D01*
X166105274Y-93243380D01*
X166111202Y-93239584D01*
X166114956Y-93236222D01*
X166119793Y-93233242D01*
X166123803Y-93232523D01*
X166128408Y-93230892D01*
X166134650Y-93226686D01*
X166141439Y-93220934D01*
X166147685Y-93214665D01*
X166152296Y-93208908D01*
X166154182Y-93204692D01*
X166154082Y-93203951D01*
X166155055Y-93201194D01*
X166160494Y-93198684D01*
X166164179Y-93197652D01*
X166173734Y-93194667D01*
X166183188Y-93190851D01*
X166185156Y-93189898D01*
X166192045Y-93186835D01*
X166197581Y-93185139D01*
X166198692Y-93185018D01*
X166203479Y-93183533D01*
X166210788Y-93179640D01*
X166219342Y-93174181D01*
X166227864Y-93167999D01*
X166235075Y-93161936D01*
X166237758Y-93159249D01*
X166242617Y-93154314D01*
X166246155Y-93151409D01*
X166246863Y-93151100D01*
X166252392Y-93149302D01*
X166259892Y-93145362D01*
X166267535Y-93140385D01*
X166273491Y-93135478D01*
X166274505Y-93134388D01*
X166279009Y-93129829D01*
X166282446Y-93127567D01*
X166282797Y-93127513D01*
X166285660Y-93125834D01*
X166290697Y-93121549D01*
X166296755Y-93115784D01*
X166302681Y-93109664D01*
X166307322Y-93104316D01*
X166309039Y-93101895D01*
X166312758Y-93098710D01*
X166318308Y-93096610D01*
X166323549Y-93096154D01*
X166326135Y-93097430D01*
G37*
G36*
X166208351Y-92444396D02*
G01*
X166214199Y-92445269D01*
X166219735Y-92446655D01*
X166224241Y-92448055D01*
X166231959Y-92450874D01*
X166237137Y-92453373D01*
X166238649Y-92454989D01*
X166239890Y-92457069D01*
X166244449Y-92459731D01*
X166245416Y-92460150D01*
X166250247Y-92462957D01*
X166257195Y-92467944D01*
X166265131Y-92474178D01*
X166272928Y-92480730D01*
X166279459Y-92486668D01*
X166283596Y-92491061D01*
X166284398Y-92492341D01*
X166282554Y-92493782D01*
X166277031Y-92495615D01*
X166270143Y-92497209D01*
X166259348Y-92498608D01*
X166248574Y-92498795D01*
X166239069Y-92497885D01*
X166232078Y-92495992D01*
X166228904Y-92493398D01*
X166225300Y-92490584D01*
X166218054Y-92490135D01*
X166207877Y-92491957D01*
X166195482Y-92495955D01*
X166188696Y-92498731D01*
X166179242Y-92502688D01*
X166171281Y-92505707D01*
X166166104Y-92507312D01*
X166165146Y-92507452D01*
X166159696Y-92508976D01*
X166151202Y-92513197D01*
X166140440Y-92519581D01*
X166128185Y-92527598D01*
X166115215Y-92536716D01*
X166102305Y-92546404D01*
X166090231Y-92556130D01*
X166079769Y-92565364D01*
X166077726Y-92567310D01*
X166069759Y-92574819D01*
X166062438Y-92581353D01*
X166057002Y-92585818D01*
X166055811Y-92586666D01*
X166051768Y-92590368D01*
X166050617Y-92595379D01*
X166050941Y-92599648D01*
X166051783Y-92605545D01*
X166052454Y-92608596D01*
X166052548Y-92608712D01*
X166053215Y-92610807D01*
X166053673Y-92613712D01*
X166054624Y-92618689D01*
X166056471Y-92626640D01*
X166058478Y-92634551D01*
X166060378Y-92642830D01*
X166061342Y-92650601D01*
X166061430Y-92659451D01*
X166060705Y-92670962D01*
X166060140Y-92677324D01*
X166058814Y-92689213D01*
X166057231Y-92699934D01*
X166055619Y-92708075D01*
X166054593Y-92711490D01*
X166051044Y-92717311D01*
X166045244Y-92724215D01*
X166038228Y-92731254D01*
X166031029Y-92737481D01*
X166024683Y-92741945D01*
X166020222Y-92743699D01*
X166019571Y-92743619D01*
X166016895Y-92743769D01*
X166013458Y-92746060D01*
X166008873Y-92750942D01*
X166002751Y-92758868D01*
X165994704Y-92770288D01*
X165987423Y-92781046D01*
X165977294Y-92795285D01*
X165968887Y-92805118D01*
X165962002Y-92810751D01*
X165956941Y-92812403D01*
X165952846Y-92814631D01*
X165950628Y-92819990D01*
X165950942Y-92826763D01*
X165951177Y-92827577D01*
X165954221Y-92832075D01*
X165959864Y-92837122D01*
X165961971Y-92838584D01*
X165968293Y-92843079D01*
X165976729Y-92849630D01*
X165985657Y-92856970D01*
X165987400Y-92858457D01*
X165994893Y-92864777D01*
X166000887Y-92869615D01*
X166004431Y-92872212D01*
X166004940Y-92872453D01*
X166005441Y-92874782D01*
X166005709Y-92880995D01*
X166005710Y-92889978D01*
X166005602Y-92895148D01*
X166004890Y-92905949D01*
X166003429Y-92918207D01*
X166001429Y-92930851D01*
X165999098Y-92942810D01*
X165996645Y-92953012D01*
X165994279Y-92960388D01*
X165992209Y-92963865D01*
X165992198Y-92963872D01*
X165990271Y-92967281D01*
X165989901Y-92970145D01*
X165988966Y-92974129D01*
X165987732Y-92974998D01*
X165984736Y-92976280D01*
X165978766Y-92979675D01*
X165970997Y-92984506D01*
X165969272Y-92985624D01*
X165953035Y-92996137D01*
X165938704Y-93005262D01*
X165926801Y-93012676D01*
X165917847Y-93018054D01*
X165912366Y-93021073D01*
X165911456Y-93021478D01*
X165907887Y-93024950D01*
X165908246Y-93030337D01*
X165911530Y-93035432D01*
X165914198Y-93038816D01*
X165913006Y-93039913D01*
X165910280Y-93040004D01*
X165905739Y-93041191D01*
X165905587Y-93044648D01*
X165909268Y-93049629D01*
X165916067Y-93057280D01*
X165920683Y-93063420D01*
X165922394Y-93067088D01*
X165922394Y-93067098D01*
X165923829Y-93069926D01*
X165927619Y-93075527D01*
X165932993Y-93082771D01*
X165933901Y-93083946D01*
X165942893Y-93096029D01*
X165948544Y-93104906D01*
X165951033Y-93110925D01*
X165950539Y-93114434D01*
X165949812Y-93115064D01*
X165948114Y-93118137D01*
X165949898Y-93121302D01*
X165953490Y-93122512D01*
X165957284Y-93124405D01*
X165960251Y-93127728D01*
X165962232Y-93130388D01*
X165964512Y-93131614D01*
X165968350Y-93131445D01*
X165975004Y-93129920D01*
X165980868Y-93128372D01*
X165989990Y-93125476D01*
X165996549Y-93122479D01*
X165999314Y-93120031D01*
X166001642Y-93116357D01*
X166006438Y-93110496D01*
X166012036Y-93104385D01*
X166018376Y-93097473D01*
X166020942Y-93093742D01*
X166019668Y-93093135D01*
X166014486Y-93095593D01*
X166007016Y-93100010D01*
X165999919Y-93104111D01*
X165994375Y-93106835D01*
X165992185Y-93107511D01*
X165988414Y-93109117D01*
X165985793Y-93111261D01*
X165979330Y-93114687D01*
X165972265Y-93113647D01*
X165967067Y-93109628D01*
X165963662Y-93105095D01*
X165962398Y-93102332D01*
X165961638Y-93098578D01*
X165960770Y-93095839D01*
X165961296Y-93094955D01*
X165964330Y-93097377D01*
X165968021Y-93101260D01*
X165973692Y-93106832D01*
X165977713Y-93109293D01*
X165979480Y-93108532D01*
X165978387Y-93104437D01*
X165977683Y-93103041D01*
X165976471Y-93100097D01*
X165977726Y-93098890D01*
X165982445Y-93099002D01*
X165986344Y-93099414D01*
X165993467Y-93099863D01*
X165996609Y-93098971D01*
X165996889Y-93097332D01*
X165998643Y-93094584D01*
X166005129Y-93092643D01*
X166006152Y-93092480D01*
X166016269Y-93089976D01*
X166023037Y-93086229D01*
X166023732Y-93085070D01*
X166074909Y-93085070D01*
X166077202Y-93087421D01*
X166083258Y-93089150D01*
X166088297Y-93089719D01*
X166093032Y-93088800D01*
X166100247Y-93086127D01*
X166105547Y-93083674D01*
X166112928Y-93080362D01*
X166118682Y-93078488D01*
X166120911Y-93078342D01*
X166124992Y-93078044D01*
X166129915Y-93076174D01*
X166136574Y-93073595D01*
X166145245Y-93071242D01*
X166154193Y-93069466D01*
X166161682Y-93068619D01*
X166165721Y-93068931D01*
X166169803Y-93068791D01*
X166176693Y-93067040D01*
X166182220Y-93065085D01*
X166191418Y-93061790D01*
X166202977Y-93058099D01*
X166214401Y-93054811D01*
X166214446Y-93054798D01*
X166225221Y-93051666D01*
X166231997Y-93048822D01*
X166235679Y-93045584D01*
X166237174Y-93041270D01*
X166237402Y-93037504D01*
X166238615Y-93030747D01*
X166241264Y-93023951D01*
X166243614Y-93017826D01*
X166242614Y-93014354D01*
X166237924Y-93013383D01*
X166229202Y-93014760D01*
X166223791Y-93016127D01*
X166214808Y-93018173D01*
X166207291Y-93019200D01*
X166203062Y-93019019D01*
X166200437Y-93018350D01*
X166201766Y-93019853D01*
X166203525Y-93021246D01*
X166205829Y-93024003D01*
X166204494Y-93025103D01*
X166200684Y-93024269D01*
X166197582Y-93022655D01*
X166195674Y-93019472D01*
X166197789Y-93015815D01*
X166203141Y-93012581D01*
X166207595Y-93011213D01*
X166212770Y-93009401D01*
X166214923Y-93007303D01*
X166214923Y-93007302D01*
X166213383Y-93005182D01*
X166208553Y-93006223D01*
X166203249Y-93008744D01*
X166196008Y-93011844D01*
X166187383Y-93014614D01*
X166186007Y-93014966D01*
X166177877Y-93018146D01*
X166170897Y-93022797D01*
X166169945Y-93023724D01*
X166164046Y-93030003D01*
X166171483Y-93030003D01*
X166177756Y-93030867D01*
X166181657Y-93032741D01*
X166185274Y-93033539D01*
X166192309Y-93033205D01*
X166201372Y-93031976D01*
X166211073Y-93030090D01*
X166220019Y-93027784D01*
X166226822Y-93025297D01*
X166227668Y-93024872D01*
X166230844Y-93023519D01*
X166231905Y-93024823D01*
X166231333Y-93029779D01*
X166230990Y-93031713D01*
X166229627Y-93038637D01*
X166227837Y-93042530D01*
X166224297Y-93044499D01*
X166217686Y-93045645D01*
X166213706Y-93046142D01*
X166204636Y-93047857D01*
X166200345Y-93050169D01*
X166199921Y-93051373D01*
X166198371Y-93053717D01*
X166193197Y-93053534D01*
X166192789Y-93053454D01*
X166183751Y-93053992D01*
X166175387Y-93057267D01*
X166165816Y-93061103D01*
X166157720Y-93062396D01*
X166152214Y-93061030D01*
X166151032Y-93059788D01*
X166148536Y-93058422D01*
X166146634Y-93059788D01*
X166142194Y-93061845D01*
X166137540Y-93062389D01*
X166133796Y-93062158D01*
X166133272Y-93061085D01*
X166136251Y-93058312D01*
X166139788Y-93055513D01*
X166146971Y-93049694D01*
X166153703Y-93043949D01*
X166154789Y-93042979D01*
X166158598Y-93039368D01*
X166158733Y-93038540D01*
X166155723Y-93039844D01*
X166149968Y-93041369D01*
X166146515Y-93041042D01*
X166142864Y-93041880D01*
X166136811Y-93045400D01*
X166129454Y-93050716D01*
X166121891Y-93056939D01*
X166115222Y-93063183D01*
X166110545Y-93068560D01*
X166109055Y-93071297D01*
X166106424Y-93074876D01*
X166101587Y-93078257D01*
X166096192Y-93080652D01*
X166091886Y-93081275D01*
X166090393Y-93080206D01*
X166087897Y-93079339D01*
X166083114Y-93080188D01*
X166078153Y-93082091D01*
X166075125Y-93084383D01*
X166074909Y-93085070D01*
X166023732Y-93085070D01*
X166025759Y-93081689D01*
X166025616Y-93079961D01*
X166026539Y-93075599D01*
X166028453Y-93074181D01*
X166031833Y-93074366D01*
X166032405Y-93076116D01*
X166034734Y-93078848D01*
X166041036Y-93080992D01*
X166042724Y-93081312D01*
X166048684Y-93082032D01*
X166053071Y-93081253D01*
X166057533Y-93078262D01*
X166063719Y-93072347D01*
X166063909Y-93072156D01*
X166070098Y-93065044D01*
X166072828Y-93059877D01*
X166072066Y-93057109D01*
X166067780Y-93057196D01*
X166064908Y-93058199D01*
X166058607Y-93059981D01*
X166054452Y-93060256D01*
X166049987Y-93061055D01*
X166042977Y-93063649D01*
X166037659Y-93066128D01*
X166029498Y-93070159D01*
X166024896Y-93072051D01*
X166023010Y-93072041D01*
X166022999Y-93070368D01*
X166023029Y-93070257D01*
X166022323Y-93068042D01*
X166018347Y-93067507D01*
X166018370Y-93069055D01*
X166019869Y-93071216D01*
X166021275Y-93074142D01*
X166018891Y-93076345D01*
X166015989Y-93077570D01*
X166008674Y-93079275D01*
X166000164Y-93079759D01*
X165992072Y-93079125D01*
X165986010Y-93077477D01*
X165983705Y-93075498D01*
X165983897Y-93070561D01*
X165984952Y-93068695D01*
X165987814Y-93063499D01*
X165988646Y-93060886D01*
X165990234Y-93054611D01*
X165991343Y-93050630D01*
X165992011Y-93046325D01*
X165991341Y-93045005D01*
X166039906Y-93045005D01*
X166040820Y-93047063D01*
X166041572Y-93046671D01*
X166041872Y-93043704D01*
X166041572Y-93043338D01*
X166040086Y-93043681D01*
X166039906Y-93045005D01*
X165991341Y-93045005D01*
X165987686Y-93046560D01*
X165982614Y-93050255D01*
X165977841Y-93054636D01*
X165975079Y-93058248D01*
X165974899Y-93058959D01*
X165972885Y-93062405D01*
X165968499Y-93063898D01*
X165964224Y-93062678D01*
X165963855Y-93062333D01*
X165963414Y-93059626D01*
X165966525Y-93055472D01*
X165972260Y-93050375D01*
X165979831Y-93043771D01*
X165986841Y-93037021D01*
X165989762Y-93033883D01*
X165994587Y-93028541D01*
X166001569Y-93021081D01*
X166009351Y-93012949D01*
X166010873Y-93011381D01*
X166021244Y-92999495D01*
X166029044Y-92988030D01*
X166033722Y-92977891D01*
X166034850Y-92971817D01*
X166036468Y-92967590D01*
X166038936Y-92963874D01*
X166048069Y-92963874D01*
X166050420Y-92963501D01*
X166051593Y-92962915D01*
X166056359Y-92959412D01*
X166061881Y-92954155D01*
X166062408Y-92953584D01*
X166068658Y-92946713D01*
X166060311Y-92951480D01*
X166055347Y-92954901D01*
X166051204Y-92958694D01*
X166048555Y-92961979D01*
X166048069Y-92963874D01*
X166038936Y-92963874D01*
X166040573Y-92961409D01*
X166044352Y-92956815D01*
X166050334Y-92949973D01*
X166055418Y-92943906D01*
X166057478Y-92941288D01*
X166059728Y-92938079D01*
X166059093Y-92937779D01*
X166054953Y-92940294D01*
X166054179Y-92940787D01*
X166047201Y-92945245D01*
X166048862Y-92932724D01*
X166049590Y-92923349D01*
X166049103Y-92916684D01*
X166047571Y-92913430D01*
X166045164Y-92914283D01*
X166044555Y-92915062D01*
X166042972Y-92916682D01*
X166043261Y-92914033D01*
X166043659Y-92912492D01*
X166045352Y-92902210D01*
X166044314Y-92894951D01*
X166040786Y-92891210D01*
X166035006Y-92891480D01*
X166033723Y-92892004D01*
X166029133Y-92893631D01*
X166027512Y-92892472D01*
X166027404Y-92891186D01*
X166029581Y-92888226D01*
X166033655Y-92887489D01*
X166038422Y-92886448D01*
X166039883Y-92882391D01*
X166039906Y-92881359D01*
X166041590Y-92876017D01*
X166047096Y-92870383D01*
X166050532Y-92867846D01*
X166057646Y-92862445D01*
X166064558Y-92856440D01*
X166070467Y-92850651D01*
X166074567Y-92845897D01*
X166076058Y-92842995D01*
X166075400Y-92842485D01*
X166072972Y-92840396D01*
X166072409Y-92837484D01*
X166070904Y-92833319D01*
X166066937Y-92832744D01*
X166061327Y-92835576D01*
X166055166Y-92841322D01*
X166050525Y-92847305D01*
X166047753Y-92852228D01*
X166047406Y-92853652D01*
X166045288Y-92856237D01*
X166040843Y-92856445D01*
X166035324Y-92854683D01*
X166031918Y-92851561D01*
X166031523Y-92848316D01*
X166033676Y-92846573D01*
X166036966Y-92843138D01*
X166037405Y-92841045D01*
X166038843Y-92838160D01*
X166041457Y-92838504D01*
X166044347Y-92838695D01*
X166044253Y-92835259D01*
X166044197Y-92835042D01*
X166044496Y-92832122D01*
X166049907Y-92832122D01*
X166051399Y-92835628D01*
X166055416Y-92835508D01*
X166061268Y-92831964D01*
X166066375Y-92827257D01*
X166070305Y-92822431D01*
X166070182Y-92820313D01*
X166065933Y-92820870D01*
X166058577Y-92823605D01*
X166051857Y-92827798D01*
X166049907Y-92832122D01*
X166044496Y-92832122D01*
X166044645Y-92830665D01*
X166048690Y-92825648D01*
X166052481Y-92822424D01*
X166058807Y-92816524D01*
X166061440Y-92811325D01*
X166061618Y-92808136D01*
X166062698Y-92802229D01*
X166067686Y-92798245D01*
X166067748Y-92798214D01*
X166073244Y-92793776D01*
X166078017Y-92787171D01*
X166078490Y-92786234D01*
X166083199Y-92779343D01*
X166089188Y-92774129D01*
X166089867Y-92773750D01*
X166095376Y-92770407D01*
X166098625Y-92767535D01*
X166098655Y-92767488D01*
X166098148Y-92765857D01*
X166094673Y-92765858D01*
X166089930Y-92767339D01*
X166087786Y-92768476D01*
X166085514Y-92769215D01*
X166085992Y-92767237D01*
X166088561Y-92763483D01*
X166091760Y-92759814D01*
X166098024Y-92759814D01*
X166098366Y-92759977D01*
X166100648Y-92758216D01*
X166101162Y-92757476D01*
X166101799Y-92755139D01*
X166101457Y-92754976D01*
X166099175Y-92756736D01*
X166098661Y-92757476D01*
X166098024Y-92759814D01*
X166091760Y-92759814D01*
X166092560Y-92758897D01*
X166097330Y-92754419D01*
X166098021Y-92753855D01*
X166102018Y-92750292D01*
X166102815Y-92748726D01*
X166101906Y-92748883D01*
X166096513Y-92749886D01*
X166094763Y-92748079D01*
X166095398Y-92746712D01*
X166096161Y-92747475D01*
X166097411Y-92746225D01*
X166096192Y-92745006D01*
X166096636Y-92744053D01*
X166102113Y-92738401D01*
X166102268Y-92738267D01*
X166107709Y-92733087D01*
X166110863Y-92729044D01*
X166111202Y-92727537D01*
X166112139Y-92724919D01*
X166116123Y-92721479D01*
X166120294Y-92717991D01*
X166120662Y-92714295D01*
X166119486Y-92711283D01*
X166116776Y-92707220D01*
X166114557Y-92706441D01*
X166110489Y-92708032D01*
X166105757Y-92708902D01*
X166102673Y-92708694D01*
X166102412Y-92708313D01*
X166104171Y-92705986D01*
X166108440Y-92702201D01*
X166108793Y-92701922D01*
X166112948Y-92698219D01*
X166113447Y-92695527D01*
X166111107Y-92692408D01*
X166108332Y-92686187D01*
X166108171Y-92678106D01*
X166110277Y-92670122D01*
X166114300Y-92664189D01*
X166116374Y-92662826D01*
X166122315Y-92661264D01*
X166126161Y-92661562D01*
X166128871Y-92661524D01*
X166129099Y-92657730D01*
X166129005Y-92657119D01*
X166129261Y-92651163D01*
X166130640Y-92647964D01*
X166131469Y-92645128D01*
X166127829Y-92643298D01*
X166127724Y-92643270D01*
X166122210Y-92641828D01*
X166127567Y-92638076D01*
X166130979Y-92634794D01*
X166129963Y-92632495D01*
X166129849Y-92632423D01*
X166128093Y-92629419D01*
X166129664Y-92626519D01*
X166133276Y-92625765D01*
X166133918Y-92625964D01*
X166137047Y-92626342D01*
X166136819Y-92624429D01*
X166133560Y-92621315D01*
X166132270Y-92620453D01*
X166128691Y-92616752D01*
X166127744Y-92610809D01*
X166127895Y-92608081D01*
X166129173Y-92601888D01*
X166132523Y-92596739D01*
X166139053Y-92591001D01*
X166139915Y-92590338D01*
X166147816Y-92583152D01*
X166151062Y-92577152D01*
X166151167Y-92575995D01*
X166151885Y-92571036D01*
X166154738Y-92567516D01*
X166160771Y-92564534D01*
X166166918Y-92562450D01*
X166174744Y-92559539D01*
X166178582Y-92557116D01*
X166178152Y-92555489D01*
X166173816Y-92554956D01*
X166168706Y-92553696D01*
X166167418Y-92551268D01*
X166166101Y-92548846D01*
X166161463Y-92548627D01*
X166159292Y-92548944D01*
X166151167Y-92550307D01*
X166158042Y-92544412D01*
X166163364Y-92539250D01*
X166164468Y-92536249D01*
X166161411Y-92534974D01*
X166159292Y-92534854D01*
X166155560Y-92534631D01*
X166155954Y-92533612D01*
X166159917Y-92531355D01*
X166166397Y-92528460D01*
X166171061Y-92527079D01*
X166176711Y-92524662D01*
X166180437Y-92521828D01*
X166187515Y-92517918D01*
X166195293Y-92518700D01*
X166201539Y-92522798D01*
X166205370Y-92527652D01*
X166205182Y-92531923D01*
X166204892Y-92532511D01*
X166204243Y-92535877D01*
X166206729Y-92539358D01*
X166211864Y-92543258D01*
X166223951Y-92552427D01*
X166235972Y-92563513D01*
X166248987Y-92577528D01*
X166254723Y-92584198D01*
X166263589Y-92595492D01*
X166268733Y-92604633D01*
X166270247Y-92612700D01*
X166268224Y-92620770D01*
X166262759Y-92629923D01*
X166259103Y-92634809D01*
X166247721Y-92650022D01*
X166237732Y-92664522D01*
X166229740Y-92677379D01*
X166224352Y-92687660D01*
X166223564Y-92689515D01*
X166220285Y-92696054D01*
X166216909Y-92700340D01*
X166215917Y-92700973D01*
X166214182Y-92702617D01*
X166213253Y-92706491D01*
X166213035Y-92713501D01*
X166213436Y-92724556D01*
X166213452Y-92724869D01*
X166213783Y-92734927D01*
X166213701Y-92742920D01*
X166213234Y-92747664D01*
X166212888Y-92748437D01*
X166212247Y-92751218D01*
X166211820Y-92757908D01*
X166211595Y-92767421D01*
X166211562Y-92778670D01*
X166211708Y-92790569D01*
X166212022Y-92802031D01*
X166212493Y-92811971D01*
X166213108Y-92819301D01*
X166213678Y-92822499D01*
X166213629Y-92828204D01*
X166209462Y-92834536D01*
X166209411Y-92834594D01*
X166204499Y-92840678D01*
X166198061Y-92849505D01*
X166191156Y-92859535D01*
X166184842Y-92869230D01*
X166180228Y-92876964D01*
X166178178Y-92881822D01*
X166179440Y-92885028D01*
X166182054Y-92887240D01*
X166186152Y-92892426D01*
X166188910Y-92899550D01*
X166189000Y-92899990D01*
X166190762Y-92904973D01*
X166194408Y-92912874D01*
X166199265Y-92922447D01*
X166204662Y-92932446D01*
X166209927Y-92941626D01*
X166214387Y-92948740D01*
X166217317Y-92952495D01*
X166220430Y-92956403D01*
X166224730Y-92963090D01*
X166229208Y-92970846D01*
X166232856Y-92977958D01*
X166234244Y-92981248D01*
X166236735Y-92988057D01*
X166238687Y-92993124D01*
X166239071Y-92996208D01*
X166236059Y-92997386D01*
X166232871Y-92997500D01*
X166226022Y-92998796D01*
X166221233Y-93001548D01*
X166218339Y-93005506D01*
X166219501Y-93006922D01*
X166224239Y-93005356D01*
X166224978Y-93004972D01*
X166230283Y-93003343D01*
X166233193Y-93004769D01*
X166237561Y-93006791D01*
X166243050Y-93007501D01*
X166250470Y-93008690D01*
X166257676Y-93011380D01*
X166264627Y-93013686D01*
X166270678Y-93013717D01*
X166274123Y-93013010D01*
X166273187Y-93014217D01*
X166272501Y-93014702D01*
X166270272Y-93016482D01*
X166270282Y-93017953D01*
X166273263Y-93019713D01*
X166279945Y-93022362D01*
X166283460Y-93023671D01*
X166290430Y-93026420D01*
X166293357Y-93028316D01*
X166292940Y-93030097D01*
X166291033Y-93031670D01*
X166286104Y-93033925D01*
X166283206Y-93033918D01*
X166279555Y-93034036D01*
X166278764Y-93036804D01*
X166280753Y-93039650D01*
X166285157Y-93040412D01*
X166291489Y-93038373D01*
X166298185Y-93034308D01*
X166303677Y-93028992D01*
X166304444Y-93027921D01*
X166305828Y-93025473D01*
X166617463Y-93025473D01*
X166618889Y-93027457D01*
X166622512Y-93025917D01*
X166626213Y-93022502D01*
X166630694Y-93018747D01*
X166633910Y-93017502D01*
X166637821Y-93016016D01*
X166643281Y-93012369D01*
X166644148Y-93011672D01*
X166650877Y-93006753D01*
X166659171Y-93001492D01*
X166661842Y-92999961D01*
X166668702Y-92995618D01*
X166672256Y-92992205D01*
X166672039Y-92990256D01*
X166670433Y-92989999D01*
X166667536Y-92991306D01*
X166661650Y-92994775D01*
X166653902Y-92999734D01*
X166651622Y-93001250D01*
X166643674Y-93006480D01*
X166637409Y-93010417D01*
X166633899Y-93012391D01*
X166633554Y-93012501D01*
X166630443Y-93013954D01*
X166625637Y-93017390D01*
X166620854Y-93021425D01*
X166617810Y-93024675D01*
X166617463Y-93025473D01*
X166305828Y-93025473D01*
X166306680Y-93023965D01*
X166305648Y-93022621D01*
X166303539Y-93022502D01*
X166297097Y-93021561D01*
X166290276Y-93019239D01*
X166284811Y-93016289D01*
X166282436Y-93013465D01*
X166282430Y-93013337D01*
X166280457Y-93009784D01*
X166277359Y-93007463D01*
X166273981Y-93004497D01*
X166273756Y-93002375D01*
X166272847Y-93000560D01*
X166269451Y-92999962D01*
X166263188Y-92998947D01*
X166260717Y-92997901D01*
X166642465Y-92997901D01*
X166643507Y-92999833D01*
X166647236Y-92998863D01*
X166650130Y-92997412D01*
X166654354Y-92994159D01*
X166654505Y-92992002D01*
X166650949Y-92992095D01*
X166648716Y-92992954D01*
X166644127Y-92995723D01*
X166642465Y-92997901D01*
X166260717Y-92997901D01*
X166259997Y-92997596D01*
X166258254Y-92996538D01*
X166257539Y-92995723D01*
X166258564Y-92994861D01*
X166262042Y-92993659D01*
X166268685Y-92991827D01*
X166277803Y-92989439D01*
X167686171Y-92989439D01*
X167686318Y-92989999D01*
X167689754Y-92991915D01*
X167694134Y-92992499D01*
X167698591Y-92993222D01*
X167699209Y-92996104D01*
X167698865Y-92997355D01*
X167699263Y-93002759D01*
X167702297Y-93009831D01*
X167706921Y-93016859D01*
X167712087Y-93022128D01*
X167714977Y-93023723D01*
X167719066Y-93025937D01*
X167720071Y-93027600D01*
X167722211Y-93029742D01*
X167727440Y-93031978D01*
X167728197Y-93032206D01*
X167733823Y-93033849D01*
X167736784Y-93034747D01*
X167736869Y-93034778D01*
X167736620Y-93033088D01*
X167735977Y-93031253D01*
X167732567Y-93028091D01*
X167729805Y-93027503D01*
X167725890Y-93026380D01*
X167725072Y-93024949D01*
X167723045Y-93022143D01*
X167718856Y-93019563D01*
X167710905Y-93013417D01*
X167705862Y-93004428D01*
X167704680Y-92995625D01*
X167704727Y-92990464D01*
X167703036Y-92988140D01*
X167698260Y-92987522D01*
X167694999Y-92987499D01*
X167688623Y-92988023D01*
X167686171Y-92989439D01*
X166277803Y-92989439D01*
X166279204Y-92989072D01*
X166283680Y-92987902D01*
X166296504Y-92984749D01*
X166311155Y-92981449D01*
X166324534Y-92978699D01*
X166324934Y-92978623D01*
X166335602Y-92976436D01*
X166349409Y-92973380D01*
X166364653Y-92969843D01*
X166379632Y-92966212D01*
X166381189Y-92965824D01*
X166416193Y-92957069D01*
X166456197Y-92959781D01*
X166471778Y-92960920D01*
X166487425Y-92962206D01*
X166501645Y-92963508D01*
X166512943Y-92964694D01*
X166516203Y-92965092D01*
X166538508Y-92966819D01*
X166560543Y-92965968D01*
X166583444Y-92962384D01*
X166608352Y-92955911D01*
X166626213Y-92950061D01*
X166631533Y-92948451D01*
X166637342Y-92947344D01*
X166644548Y-92946690D01*
X166654058Y-92946440D01*
X166666780Y-92946543D01*
X166682945Y-92946931D01*
X166727175Y-92948169D01*
X166757952Y-92919177D01*
X166770757Y-92906755D01*
X166784592Y-92892736D01*
X166798015Y-92878616D01*
X166809587Y-92865889D01*
X166812482Y-92862568D01*
X166833162Y-92840370D01*
X166855026Y-92820274D01*
X166876927Y-92803289D01*
X166888739Y-92795537D01*
X166894820Y-92792138D01*
X166904525Y-92787077D01*
X166916949Y-92780811D01*
X166931187Y-92773795D01*
X166946333Y-92766484D01*
X166949404Y-92765020D01*
X166967332Y-92756617D01*
X166981994Y-92750085D01*
X166994556Y-92744983D01*
X167006184Y-92740870D01*
X167018047Y-92737304D01*
X167031310Y-92733845D01*
X167032923Y-92733448D01*
X167065510Y-92725806D01*
X167094415Y-92719848D01*
X167120615Y-92715445D01*
X167145090Y-92712471D01*
X167168819Y-92710799D01*
X167192781Y-92710303D01*
X167209382Y-92710562D01*
X167226764Y-92711218D01*
X167239974Y-92712129D01*
X167249836Y-92713383D01*
X167257176Y-92715070D01*
X167260026Y-92716053D01*
X167267576Y-92718615D01*
X167278184Y-92721741D01*
X167290025Y-92724906D01*
X167295029Y-92726144D01*
X167324164Y-92733628D01*
X167349447Y-92741299D01*
X167372013Y-92749686D01*
X167393000Y-92759319D01*
X167413543Y-92770726D01*
X167434780Y-92784438D01*
X167457846Y-92800982D01*
X167461296Y-92803562D01*
X167482546Y-92820185D01*
X167499685Y-92835101D01*
X167513141Y-92848708D01*
X167523014Y-92860943D01*
X167527845Y-92867091D01*
X167534762Y-92875059D01*
X167543128Y-92884201D01*
X167552305Y-92893871D01*
X167561654Y-92903421D01*
X167570537Y-92912206D01*
X167578316Y-92919579D01*
X167584353Y-92924892D01*
X167588009Y-92927500D01*
X167588769Y-92927557D01*
X167591642Y-92927220D01*
X167597099Y-92930169D01*
X167598877Y-92931465D01*
X167605776Y-92935558D01*
X167614696Y-92938413D01*
X167626852Y-92940479D01*
X167640931Y-92941597D01*
X167658428Y-92941914D01*
X167677831Y-92941488D01*
X167697632Y-92940380D01*
X167716320Y-92938648D01*
X167732333Y-92936360D01*
X167742841Y-92934781D01*
X167752176Y-92933919D01*
X167758710Y-92933908D01*
X167759835Y-92934081D01*
X167767310Y-92936770D01*
X167777148Y-92941599D01*
X167787739Y-92947665D01*
X167797474Y-92954071D01*
X167802579Y-92957988D01*
X167809907Y-92964025D01*
X167818482Y-92970956D01*
X167822297Y-92973995D01*
X167835720Y-92986772D01*
X167847687Y-93002149D01*
X167853809Y-93012501D01*
X167858842Y-93021536D01*
X167865930Y-93033191D01*
X167874402Y-93046468D01*
X167883587Y-93060366D01*
X167892814Y-93073883D01*
X167901412Y-93086021D01*
X167908711Y-93095778D01*
X167913632Y-93101716D01*
X167938612Y-93125529D01*
X167966057Y-93145281D01*
X167995501Y-93160656D01*
X168006737Y-93165145D01*
X168017701Y-93169432D01*
X168027939Y-93173876D01*
X168035775Y-93177734D01*
X168037811Y-93178916D01*
X168050505Y-93189112D01*
X168061422Y-93202119D01*
X168070148Y-93216948D01*
X168076265Y-93232610D01*
X168079358Y-93248116D01*
X168079011Y-93262478D01*
X168076600Y-93271080D01*
X168066151Y-93289883D01*
X168051890Y-93305481D01*
X168033887Y-93317819D01*
X168012214Y-93326841D01*
X168001122Y-93329841D01*
X167989141Y-93332676D01*
X167977649Y-93335511D01*
X167968395Y-93337910D01*
X167965095Y-93338827D01*
X167958219Y-93340207D01*
X167947753Y-93341568D01*
X167935105Y-93342755D01*
X167921683Y-93343613D01*
X167921341Y-93343629D01*
X167905859Y-93344740D01*
X167889747Y-93346714D01*
X167872212Y-93349707D01*
X167852459Y-93353873D01*
X167829694Y-93359368D01*
X167803124Y-93366345D01*
X167798829Y-93367511D01*
X167778276Y-93372459D01*
X167754982Y-93376797D01*
X167728150Y-93380660D01*
X167702569Y-93383605D01*
X167664144Y-93387447D01*
X167630223Y-93390431D01*
X167600386Y-93392573D01*
X167574211Y-93393891D01*
X167551281Y-93394400D01*
X167531173Y-93394115D01*
X167513469Y-93393053D01*
X167498816Y-93391386D01*
X167481379Y-93389510D01*
X167459147Y-93388189D01*
X167432053Y-93387421D01*
X167411291Y-93387215D01*
X167390843Y-93387201D01*
X167374451Y-93387368D01*
X167361170Y-93387772D01*
X167350056Y-93388463D01*
X167340165Y-93389496D01*
X167330554Y-93390923D01*
X167323782Y-93392130D01*
X167314039Y-93393667D01*
X167301162Y-93395271D01*
X167285858Y-93396895D01*
X167268835Y-93398489D01*
X167250799Y-93400003D01*
X167232459Y-93401389D01*
X167214521Y-93402597D01*
X167197693Y-93403578D01*
X167182683Y-93404283D01*
X167170198Y-93404662D01*
X167160946Y-93404666D01*
X167155633Y-93404247D01*
X167154703Y-93403895D01*
X167151944Y-93403346D01*
X167145276Y-93402651D01*
X167135783Y-93401912D01*
X167127479Y-93401388D01*
X167108776Y-93400172D01*
X167093747Y-93398688D01*
X167081066Y-93396581D01*
X167069407Y-93393496D01*
X167057445Y-93389079D01*
X167043854Y-93382974D01*
X167027307Y-93374826D01*
X167026253Y-93374296D01*
X167013178Y-93367945D01*
X167000252Y-93362074D01*
X166988800Y-93357261D01*
X166980149Y-93354081D01*
X166978748Y-93353657D01*
X166971516Y-93351514D01*
X166960599Y-93348174D01*
X166947075Y-93343971D01*
X166939623Y-93341629D01*
X167173004Y-93341629D01*
X167173172Y-93344180D01*
X167176000Y-93345034D01*
X167179860Y-93343017D01*
X167180922Y-93341284D01*
X167181703Y-93338139D01*
X167179662Y-93337928D01*
X167176472Y-93339051D01*
X167173004Y-93341629D01*
X166939623Y-93341629D01*
X166932018Y-93339239D01*
X166917752Y-93334709D01*
X166913320Y-93333346D01*
X167200346Y-93333346D01*
X167203020Y-93337033D01*
X167207257Y-93339526D01*
X167213196Y-93339491D01*
X167221856Y-93336834D01*
X167226627Y-93334881D01*
X167234883Y-93331853D01*
X167241986Y-93330929D01*
X167250687Y-93331812D01*
X167252365Y-93332093D01*
X167260251Y-93333118D01*
X167267122Y-93332930D01*
X167274884Y-93331298D01*
X167284932Y-93328163D01*
X167294306Y-93325055D01*
X167302085Y-93322516D01*
X167306845Y-93321009D01*
X167307323Y-93320869D01*
X167309507Y-93319287D01*
X167307884Y-93316885D01*
X167305034Y-93315556D01*
X167299959Y-93315810D01*
X167291607Y-93317744D01*
X167288089Y-93318729D01*
X167276396Y-93321312D01*
X167262936Y-93323161D01*
X167252525Y-93323813D01*
X167242480Y-93324368D01*
X167233715Y-93325585D01*
X167228028Y-93327208D01*
X167227799Y-93327326D01*
X167217676Y-93331696D01*
X167209131Y-93333187D01*
X167204185Y-93332115D01*
X167200716Y-93331229D01*
X167200346Y-93333346D01*
X166913320Y-93333346D01*
X166896757Y-93328252D01*
X166880150Y-93323690D01*
X166867712Y-93320969D01*
X166859224Y-93320035D01*
X166858996Y-93320034D01*
X166843488Y-93320584D01*
X166824598Y-93322117D01*
X166803809Y-93324462D01*
X166782604Y-93327451D01*
X166762468Y-93330911D01*
X166760073Y-93331374D01*
X166738861Y-93334848D01*
X166718601Y-93336882D01*
X166700312Y-93337432D01*
X166685015Y-93336457D01*
X166676533Y-93334816D01*
X166671017Y-93332817D01*
X166662026Y-93329030D01*
X166650558Y-93323898D01*
X166637614Y-93317864D01*
X166629029Y-93313740D01*
X166626103Y-93312367D01*
X167680067Y-93312367D01*
X167682146Y-93313010D01*
X167687614Y-93311781D01*
X167692661Y-93309994D01*
X167708640Y-93305955D01*
X167722493Y-93305030D01*
X167734382Y-93304178D01*
X167747559Y-93301462D01*
X167762811Y-93296646D01*
X167780926Y-93289494D01*
X167795255Y-93283188D01*
X167805270Y-93277696D01*
X167814498Y-93270973D01*
X167821929Y-93263935D01*
X167826554Y-93257498D01*
X167827582Y-93253872D01*
X167829605Y-93250909D01*
X167834880Y-93246633D01*
X167841433Y-93242467D01*
X167851820Y-93235740D01*
X167858420Y-93229104D01*
X167862238Y-93221221D01*
X167864074Y-93212357D01*
X167864715Y-93205568D01*
X167863697Y-93201114D01*
X167860152Y-93197021D01*
X167855683Y-93193301D01*
X167848138Y-93185608D01*
X167844314Y-93178019D01*
X167844240Y-93177676D01*
X167842171Y-93171607D01*
X167839940Y-93170188D01*
X167838428Y-93173178D01*
X167838392Y-93179274D01*
X167840456Y-93186937D01*
X167845612Y-93193773D01*
X167848708Y-93196627D01*
X167854298Y-93201859D01*
X167856760Y-93206009D01*
X167856933Y-93211035D01*
X167856408Y-93214585D01*
X167853138Y-93224573D01*
X167846594Y-93232575D01*
X167835949Y-93239573D01*
X167834864Y-93240135D01*
X167828329Y-93244232D01*
X167823858Y-93248428D01*
X167823084Y-93249734D01*
X167818124Y-93257894D01*
X167810225Y-93266258D01*
X167801070Y-93273124D01*
X167798561Y-93274521D01*
X167778601Y-93283669D01*
X167758060Y-93291249D01*
X167738422Y-93296780D01*
X167721168Y-93299785D01*
X167720071Y-93299890D01*
X167706980Y-93301583D01*
X167695561Y-93304038D01*
X167686708Y-93306979D01*
X167681311Y-93310125D01*
X167680067Y-93312367D01*
X166626103Y-93312367D01*
X166603098Y-93301571D01*
X166580394Y-93292070D01*
X166559986Y-93285120D01*
X166540948Y-93280606D01*
X166522351Y-93278412D01*
X166503266Y-93278422D01*
X166482765Y-93280521D01*
X166459920Y-93284592D01*
X166436923Y-93289766D01*
X166422583Y-93293091D01*
X166407534Y-93296389D01*
X166393759Y-93299235D01*
X166384940Y-93300910D01*
X166376054Y-93302180D01*
X166364487Y-93303385D01*
X166351087Y-93304486D01*
X166336707Y-93305443D01*
X166322195Y-93306216D01*
X166308402Y-93306767D01*
X166296179Y-93307054D01*
X166286375Y-93307039D01*
X166279842Y-93306682D01*
X166277430Y-93305942D01*
X166277429Y-93305929D01*
X166278473Y-93302926D01*
X166281287Y-93296518D01*
X166285391Y-93287766D01*
X166288534Y-93281305D01*
X166296606Y-93264429D01*
X166300959Y-93254599D01*
X167620620Y-93254599D01*
X167621404Y-93257118D01*
X167626242Y-93256937D01*
X167634991Y-93254074D01*
X167639231Y-93252321D01*
X167648748Y-93249099D01*
X167657646Y-93248482D01*
X167668114Y-93250404D01*
X167671531Y-93251362D01*
X167677695Y-93250799D01*
X167684393Y-93246459D01*
X167690393Y-93242392D01*
X167697120Y-93240470D01*
X167705718Y-93240024D01*
X167712456Y-93239855D01*
X167717734Y-93238958D01*
X167722790Y-93236746D01*
X167728859Y-93232631D01*
X167737179Y-93226026D01*
X167739924Y-93223778D01*
X167752464Y-93213146D01*
X167761668Y-93204368D01*
X167768335Y-93196490D01*
X167773263Y-93188556D01*
X167777254Y-93179610D01*
X167777570Y-93178785D01*
X167778834Y-93173795D01*
X167777804Y-93172496D01*
X167775167Y-93174565D01*
X167771610Y-93179679D01*
X167770214Y-93182248D01*
X167764858Y-93190891D01*
X167757188Y-93199948D01*
X167746508Y-93210157D01*
X167734112Y-93220647D01*
X167726264Y-93226800D01*
X167720452Y-93230358D01*
X167714953Y-93232024D01*
X167708046Y-93232505D01*
X167705104Y-93232523D01*
X167694834Y-93233176D01*
X167688784Y-93235227D01*
X167687455Y-93236410D01*
X167680655Y-93242289D01*
X167672725Y-93244060D01*
X167664074Y-93242596D01*
X167657785Y-93241213D01*
X167652152Y-93241260D01*
X167645316Y-93242953D01*
X167637629Y-93245677D01*
X167629425Y-93249096D01*
X167623316Y-93252299D01*
X167620621Y-93254595D01*
X167620620Y-93254599D01*
X166300959Y-93254599D01*
X166302873Y-93250277D01*
X166307156Y-93239293D01*
X166309275Y-93231924D01*
X166309403Y-93229258D01*
X166309836Y-93225119D01*
X166311790Y-93218572D01*
X166312700Y-93216192D01*
X166322687Y-93185665D01*
X166329251Y-93152160D01*
X166329266Y-93151978D01*
X166352436Y-93151978D01*
X166354175Y-93154760D01*
X166358738Y-93159857D01*
X166365150Y-93166336D01*
X166372434Y-93173263D01*
X166379611Y-93179706D01*
X166385706Y-93184731D01*
X166389315Y-93187196D01*
X166395663Y-93188886D01*
X166399985Y-93187495D01*
X166405236Y-93186207D01*
X166410542Y-93188657D01*
X166416369Y-93191578D01*
X166421623Y-93192428D01*
X166424687Y-93191054D01*
X166424944Y-93190019D01*
X166422912Y-93187815D01*
X166421105Y-93187519D01*
X166416257Y-93186211D01*
X166411272Y-93183591D01*
X166405299Y-93181078D01*
X166400495Y-93182222D01*
X166395757Y-93183139D01*
X166390119Y-93180829D01*
X166382955Y-93174922D01*
X166376055Y-93167743D01*
X166370194Y-93162010D01*
X166363842Y-93156874D01*
X166358060Y-93153044D01*
X166353907Y-93151226D01*
X166352436Y-93151978D01*
X166329266Y-93151978D01*
X166330453Y-93137854D01*
X166431248Y-93137854D01*
X166431976Y-93140257D01*
X166435379Y-93145250D01*
X166443089Y-93154441D01*
X166452055Y-93163489D01*
X166461319Y-93171595D01*
X166469920Y-93177958D01*
X166476901Y-93181778D01*
X166480051Y-93182518D01*
X166484420Y-93184612D01*
X166486200Y-93187521D01*
X166490306Y-93193220D01*
X166497933Y-93198293D01*
X166507602Y-93202212D01*
X166517834Y-93204449D01*
X166527152Y-93204479D01*
X166531000Y-93203503D01*
X166534753Y-93201304D01*
X166533856Y-93199591D01*
X166528646Y-93198553D01*
X166521828Y-93198336D01*
X166509264Y-93197019D01*
X166498926Y-93193135D01*
X166491852Y-93187160D01*
X166489904Y-93183648D01*
X166486347Y-93178822D01*
X166482781Y-93177518D01*
X166477287Y-93175716D01*
X166469336Y-93170709D01*
X166462833Y-93165554D01*
X166571087Y-93165554D01*
X166571352Y-93168162D01*
X166574982Y-93171733D01*
X166580671Y-93175441D01*
X166587113Y-93178461D01*
X166593004Y-93179970D01*
X166593990Y-93180018D01*
X166601700Y-93181006D01*
X166608146Y-93183383D01*
X166608175Y-93183401D01*
X166612022Y-93185274D01*
X166617785Y-93187163D01*
X166626327Y-93189297D01*
X166638509Y-93191902D01*
X166646215Y-93193449D01*
X166654358Y-93194621D01*
X166658610Y-93194223D01*
X166658895Y-93192808D01*
X166655793Y-93191142D01*
X166649531Y-93189486D01*
X166646106Y-93188883D01*
X166637063Y-93187007D01*
X166626412Y-93184081D01*
X166620448Y-93182130D01*
X166610201Y-93178925D01*
X166599617Y-93176259D01*
X166594413Y-93175262D01*
X166586161Y-93173186D01*
X166579309Y-93170120D01*
X166577521Y-93168824D01*
X166573395Y-93165894D01*
X166571087Y-93165554D01*
X166462833Y-93165554D01*
X166459724Y-93163090D01*
X166449245Y-93153454D01*
X166445204Y-93149390D01*
X166438208Y-93142566D01*
X166433441Y-93138672D01*
X166431248Y-93137854D01*
X166330453Y-93137854D01*
X166332250Y-93116471D01*
X166332434Y-93104945D01*
X166332047Y-93096021D01*
X166362437Y-93096021D01*
X166363720Y-93097823D01*
X166365268Y-93097071D01*
X166413163Y-93097071D01*
X166413531Y-93101413D01*
X166414664Y-93102510D01*
X166417185Y-93100514D01*
X166417443Y-93099072D01*
X166417884Y-93094343D01*
X166418952Y-93087583D01*
X166419024Y-93087196D01*
X166419160Y-93086000D01*
X166488065Y-93086000D01*
X166488754Y-93093146D01*
X166489981Y-93101711D01*
X166491903Y-93107691D01*
X166495485Y-93112910D01*
X166501694Y-93119192D01*
X166503375Y-93120773D01*
X166510868Y-93127423D01*
X166517889Y-93133039D01*
X166522638Y-93136236D01*
X166527937Y-93140434D01*
X166533726Y-93146955D01*
X166535799Y-93149851D01*
X166541875Y-93157199D01*
X166547415Y-93159913D01*
X166548116Y-93159940D01*
X166551822Y-93159595D01*
X166550917Y-93158275D01*
X166549525Y-93157424D01*
X166545573Y-93153795D01*
X166540966Y-93147822D01*
X166539847Y-93146089D01*
X166533920Y-93138738D01*
X166526485Y-93132211D01*
X166525276Y-93131393D01*
X166518006Y-93126163D01*
X166509748Y-93119401D01*
X166507683Y-93117547D01*
X167087509Y-93117547D01*
X167089528Y-93121999D01*
X167094420Y-93126933D01*
X167100440Y-93130914D01*
X167105756Y-93132513D01*
X167111402Y-93131710D01*
X167119580Y-93129642D01*
X167125559Y-93127755D01*
X167138578Y-93122323D01*
X167149767Y-93115847D01*
X167158535Y-93108880D01*
X167164289Y-93101974D01*
X167166437Y-93095681D01*
X167164867Y-93091080D01*
X167160499Y-93087884D01*
X167155624Y-93088949D01*
X167149826Y-93094025D01*
X167143991Y-93099470D01*
X167136392Y-93105555D01*
X167133269Y-93107806D01*
X167125002Y-93112360D01*
X167115918Y-93115583D01*
X167107368Y-93117202D01*
X167100704Y-93116944D01*
X167097516Y-93115021D01*
X167094088Y-93113148D01*
X167089882Y-93114062D01*
X167087539Y-93117097D01*
X167087509Y-93117547D01*
X166507683Y-93117547D01*
X166505878Y-93115927D01*
X166499415Y-93109125D01*
X166495856Y-93102749D01*
X166493953Y-93094443D01*
X166493758Y-93093068D01*
X166493038Y-93085041D01*
X166493833Y-93078789D01*
X166496739Y-93072863D01*
X166502353Y-93065810D01*
X166507086Y-93060631D01*
X166511847Y-93056040D01*
X166516381Y-93053602D01*
X166522561Y-93052649D01*
X166529813Y-93052505D01*
X166538570Y-93052222D01*
X166543291Y-93051217D01*
X166544881Y-93049301D01*
X166825565Y-93049301D01*
X166826146Y-93051911D01*
X166828531Y-93054782D01*
X166834699Y-93058772D01*
X166842061Y-93059887D01*
X166848425Y-93057895D01*
X166849485Y-93057006D01*
X166852152Y-93051523D01*
X166852362Y-93045422D01*
X167788221Y-93045422D01*
X167791613Y-93049849D01*
X167797020Y-93055335D01*
X167802792Y-93061255D01*
X167806747Y-93066125D01*
X167807870Y-93068320D01*
X167808562Y-93068759D01*
X167809414Y-93066305D01*
X167808854Y-93061991D01*
X167804775Y-93056604D01*
X167799850Y-93052035D01*
X167792551Y-93046269D01*
X167788604Y-93044147D01*
X167788221Y-93045422D01*
X166852362Y-93045422D01*
X166852395Y-93044461D01*
X166850417Y-93038067D01*
X166847523Y-93035024D01*
X166845962Y-93034578D01*
X167424248Y-93034578D01*
X167426293Y-93039106D01*
X167431645Y-93043559D01*
X167438625Y-93045048D01*
X167445136Y-93043348D01*
X167447430Y-93041392D01*
X167449791Y-93035167D01*
X167448094Y-93028630D01*
X167442851Y-93023497D01*
X167441966Y-93023037D01*
X167434333Y-93021366D01*
X167428192Y-93023392D01*
X167424509Y-93028126D01*
X167424248Y-93034578D01*
X166845962Y-93034578D01*
X166843869Y-93033980D01*
X166839886Y-93035464D01*
X166834185Y-93040049D01*
X166833181Y-93040962D01*
X166827754Y-93046115D01*
X166825565Y-93049301D01*
X166544881Y-93049301D01*
X166544918Y-93049256D01*
X166544955Y-93048755D01*
X166543854Y-93046632D01*
X166539924Y-93045463D01*
X166532232Y-93045026D01*
X166529041Y-93045005D01*
X166517184Y-93045890D01*
X166508280Y-93049099D01*
X166500957Y-93055458D01*
X166493842Y-93065793D01*
X166493454Y-93066451D01*
X166489850Y-93073248D01*
X166488180Y-93079043D01*
X166488065Y-93086000D01*
X166419160Y-93086000D01*
X166419643Y-93081763D01*
X166418566Y-93080784D01*
X166417968Y-93081258D01*
X166415660Y-93085206D01*
X166413966Y-93091073D01*
X166413163Y-93097071D01*
X166365268Y-93097071D01*
X166366789Y-93096332D01*
X166370477Y-93092285D01*
X166371930Y-93090002D01*
X166378405Y-93083001D01*
X166386815Y-93078411D01*
X166393767Y-93075156D01*
X166395143Y-93074013D01*
X166417641Y-93074013D01*
X166418868Y-93074977D01*
X166419492Y-93075008D01*
X166421778Y-93072960D01*
X166424698Y-93067940D01*
X166425117Y-93067034D01*
X166430684Y-93059606D01*
X166439388Y-93053145D01*
X166449371Y-93048798D01*
X166456617Y-93047613D01*
X166465717Y-93046686D01*
X166466735Y-93046255D01*
X166487450Y-93046255D01*
X166488700Y-93047505D01*
X166489950Y-93046255D01*
X166488700Y-93045005D01*
X166487450Y-93046255D01*
X166466735Y-93046255D01*
X166471180Y-93044373D01*
X166472448Y-93041953D01*
X166470330Y-93040457D01*
X166464788Y-93040563D01*
X166457040Y-93042010D01*
X166448305Y-93044543D01*
X166439801Y-93047902D01*
X166436440Y-93049578D01*
X166426157Y-93056786D01*
X166420813Y-93064280D01*
X166418242Y-93070833D01*
X166417641Y-93074013D01*
X166395143Y-93074013D01*
X166397154Y-93072342D01*
X166396579Y-93070477D01*
X166393361Y-93070007D01*
X166387457Y-93071696D01*
X166380153Y-93076028D01*
X166372756Y-93081904D01*
X166366573Y-93088223D01*
X166362914Y-93093885D01*
X166362437Y-93096021D01*
X166332047Y-93096021D01*
X166331954Y-93093863D01*
X166330653Y-93085352D01*
X166328736Y-93080071D01*
X166326411Y-93078681D01*
X166324703Y-93080295D01*
X166322870Y-93082233D01*
X166322472Y-93080633D01*
X166320836Y-93077656D01*
X166316521Y-93078066D01*
X166310241Y-93081578D01*
X166302711Y-93087906D01*
X166301622Y-93088976D01*
X166295263Y-93094693D01*
X166290099Y-93098167D01*
X166287374Y-93098725D01*
X166284615Y-93099270D01*
X166283325Y-93101856D01*
X166280926Y-93105582D01*
X166275564Y-93111553D01*
X166268180Y-93118891D01*
X166259717Y-93126718D01*
X166251116Y-93134155D01*
X166243317Y-93140323D01*
X166238675Y-93143519D01*
X166231242Y-93148746D01*
X166224640Y-93154230D01*
X166218105Y-93160298D01*
X166211624Y-93152595D01*
X166208867Y-93149107D01*
X166207070Y-93145743D01*
X166206075Y-93141432D01*
X166205726Y-93135100D01*
X166205865Y-93125675D01*
X166206209Y-93115576D01*
X166206567Y-93101134D01*
X166206223Y-93090959D01*
X166204886Y-93084334D01*
X166202266Y-93080542D01*
X166198071Y-93078866D01*
X166192011Y-93078590D01*
X166191218Y-93078614D01*
X166185671Y-93079182D01*
X166181344Y-93081038D01*
X166176937Y-93085095D01*
X166171152Y-93092267D01*
X166170372Y-93093291D01*
X166162224Y-93102583D01*
X166152220Y-93112043D01*
X166144464Y-93118192D01*
X166131700Y-93127128D01*
X166122300Y-93133520D01*
X166115567Y-93137748D01*
X166110806Y-93140186D01*
X166107321Y-93141213D01*
X166104415Y-93141205D01*
X166102623Y-93140851D01*
X166094439Y-93137856D01*
X166084577Y-93132847D01*
X166075195Y-93127023D01*
X166069155Y-93122275D01*
X166063645Y-93119052D01*
X166055905Y-93118215D01*
X166045080Y-93119749D01*
X166037405Y-93121621D01*
X166033105Y-93122567D01*
X166033027Y-93121315D01*
X166035530Y-93118332D01*
X166038870Y-93113290D01*
X166039922Y-93109814D01*
X166041239Y-93105447D01*
X166044437Y-93099485D01*
X166044906Y-93098760D01*
X166048743Y-93092457D01*
X166049216Y-93089518D01*
X166046022Y-93089355D01*
X166040808Y-93090769D01*
X166033032Y-93094749D01*
X166028345Y-93101616D01*
X166028307Y-93101706D01*
X166025650Y-93108570D01*
X166025155Y-93111642D01*
X166026770Y-93111614D01*
X166027589Y-93111147D01*
X166028504Y-93111650D01*
X166026964Y-93115019D01*
X166023141Y-93118727D01*
X166016117Y-93123389D01*
X166007322Y-93128071D01*
X166006152Y-93128619D01*
X165997241Y-93133053D01*
X165989882Y-93137304D01*
X165985504Y-93140538D01*
X165985219Y-93140851D01*
X165981306Y-93144274D01*
X165978487Y-93144701D01*
X165978040Y-93142056D01*
X165978304Y-93141264D01*
X165977982Y-93138153D01*
X165973719Y-93137822D01*
X165965741Y-93140289D01*
X165965686Y-93140311D01*
X165959011Y-93141874D01*
X165950049Y-93142671D01*
X165945497Y-93142681D01*
X165933760Y-93143503D01*
X165921695Y-93147134D01*
X165917448Y-93148942D01*
X165907280Y-93152808D01*
X165899511Y-93154357D01*
X165896845Y-93154157D01*
X165891563Y-93152881D01*
X165883210Y-93150950D01*
X165873639Y-93148794D01*
X165863768Y-93146427D01*
X165854932Y-93144013D01*
X165849222Y-93142138D01*
X165844743Y-93139910D01*
X165844497Y-93137966D01*
X165846050Y-93136569D01*
X165848439Y-93133107D01*
X165846043Y-93129780D01*
X165838773Y-93126496D01*
X165834885Y-93125289D01*
X165829013Y-93123287D01*
X165820358Y-93119953D01*
X165809990Y-93115743D01*
X165798977Y-93111114D01*
X165788387Y-93106520D01*
X165779289Y-93102418D01*
X165772751Y-93099264D01*
X165769879Y-93097555D01*
X165767024Y-93095683D01*
X165761504Y-93092661D01*
X165759878Y-93091826D01*
X165735940Y-93078077D01*
X165711884Y-93061296D01*
X165689893Y-93043023D01*
X165683432Y-93038214D01*
X165675379Y-93033566D01*
X165673620Y-93032722D01*
X165662994Y-93026195D01*
X165653044Y-93016338D01*
X165643844Y-93003751D01*
X165638659Y-92996158D01*
X165633576Y-92989238D01*
X165632199Y-92987499D01*
X165623347Y-92976590D01*
X165616445Y-92967719D01*
X165610836Y-92959819D01*
X165605867Y-92951823D01*
X165600881Y-92942665D01*
X165595223Y-92931278D01*
X165588237Y-92916594D01*
X165586894Y-92913742D01*
X165581942Y-92900336D01*
X165578000Y-92884163D01*
X165575426Y-92867280D01*
X165574579Y-92851743D01*
X165574928Y-92844985D01*
X165579719Y-92818720D01*
X165588875Y-92791183D01*
X165602470Y-92762207D01*
X165620579Y-92731626D01*
X165634387Y-92711394D01*
X165643890Y-92699088D01*
X165654977Y-92686307D01*
X165666819Y-92673865D01*
X165678585Y-92662577D01*
X165689445Y-92653258D01*
X165698571Y-92646723D01*
X165702267Y-92644734D01*
X165708251Y-92641669D01*
X165717187Y-92636622D01*
X165727820Y-92630319D01*
X165737901Y-92624110D01*
X165750897Y-92616125D01*
X165766223Y-92606974D01*
X165781814Y-92597878D01*
X165793620Y-92591164D01*
X165805629Y-92584352D01*
X165816996Y-92577740D01*
X165826522Y-92572036D01*
X165833007Y-92567948D01*
X165833517Y-92567605D01*
X165840370Y-92563373D01*
X165850076Y-92557932D01*
X165860963Y-92552205D01*
X165865575Y-92549892D01*
X165874574Y-92545168D01*
X165881194Y-92541127D01*
X165884622Y-92538303D01*
X165884743Y-92537363D01*
X165884278Y-92535382D01*
X165887783Y-92533226D01*
X165894277Y-92531434D01*
X165896142Y-92531122D01*
X165900329Y-92529794D01*
X165907896Y-92526754D01*
X165917722Y-92522471D01*
X165927395Y-92518025D01*
X165945476Y-92509809D01*
X165965952Y-92501001D01*
X165987946Y-92491937D01*
X166010580Y-92482953D01*
X166032979Y-92474385D01*
X166054265Y-92466568D01*
X166073562Y-92459839D01*
X166089994Y-92454533D01*
X166101869Y-92451186D01*
X166109824Y-92449731D01*
X166121620Y-92448261D01*
X166136101Y-92446890D01*
X166152110Y-92445732D01*
X166163125Y-92445132D01*
X166179579Y-92444404D01*
X166191978Y-92444008D01*
X166201256Y-92443991D01*
X166208351Y-92444396D01*
G37*
%TO.C,R4*%
X145915000Y-84227064D02*
X145915000Y-83772936D01*
X147385000Y-84227064D02*
X147385000Y-83772936D01*
%TD*%
M02*
