%TF.GenerationSoftware,KiCad,Pcbnew,7.0.9*%
%TF.CreationDate,2024-03-13T02:42:53-05:00*%
%TF.ProjectId,MUX,4d55582e-6b69-4636-9164-5f7063625858,rev?*%
%TF.SameCoordinates,Original*%
%TF.FileFunction,Copper,L1,Top*%
%TF.FilePolarity,Positive*%
%FSLAX46Y46*%
G04 Gerber Fmt 4.6, Leading zero omitted, Abs format (unit mm)*
G04 Created by KiCad (PCBNEW 7.0.9) date 2024-03-13 02:42:53*
%MOMM*%
%LPD*%
G01*
G04 APERTURE LIST*
G04 Aperture macros list*
%AMRoundRect*
0 Rectangle with rounded corners*
0 $1 Rounding radius*
0 $2 $3 $4 $5 $6 $7 $8 $9 X,Y pos of 4 corners*
0 Add a 4 corners polygon primitive as box body*
4,1,4,$2,$3,$4,$5,$6,$7,$8,$9,$2,$3,0*
0 Add four circle primitives for the rounded corners*
1,1,$1+$1,$2,$3*
1,1,$1+$1,$4,$5*
1,1,$1+$1,$6,$7*
1,1,$1+$1,$8,$9*
0 Add four rect primitives between the rounded corners*
20,1,$1+$1,$2,$3,$4,$5,0*
20,1,$1+$1,$4,$5,$6,$7,0*
20,1,$1+$1,$6,$7,$8,$9,0*
20,1,$1+$1,$8,$9,$2,$3,0*%
G04 Aperture macros list end*
%TA.AperFunction,SMDPad,CuDef*%
%ADD10R,0.609600X0.660400*%
%TD*%
%TA.AperFunction,SMDPad,CuDef*%
%ADD11R,0.660400X0.609600*%
%TD*%
%TA.AperFunction,SMDPad,CuDef*%
%ADD12RoundRect,0.020000X0.690000X0.180000X-0.690000X0.180000X-0.690000X-0.180000X0.690000X-0.180000X0*%
%TD*%
%TA.AperFunction,SMDPad,CuDef*%
%ADD13RoundRect,0.250000X0.350000X0.450000X-0.350000X0.450000X-0.350000X-0.450000X0.350000X-0.450000X0*%
%TD*%
%TA.AperFunction,SMDPad,CuDef*%
%ADD14RoundRect,0.250000X-0.350000X-0.450000X0.350000X-0.450000X0.350000X0.450000X-0.350000X0.450000X0*%
%TD*%
%TA.AperFunction,ComponentPad*%
%ADD15R,1.700000X1.700000*%
%TD*%
%TA.AperFunction,ComponentPad*%
%ADD16O,1.700000X1.700000*%
%TD*%
%TA.AperFunction,SMDPad,CuDef*%
%ADD17R,1.875000X1.050000*%
%TD*%
%TA.AperFunction,SMDPad,CuDef*%
%ADD18RoundRect,0.250000X0.450000X-0.350000X0.450000X0.350000X-0.450000X0.350000X-0.450000X-0.350000X0*%
%TD*%
%TA.AperFunction,ViaPad*%
%ADD19C,0.800000*%
%TD*%
%TA.AperFunction,Conductor*%
%ADD20C,0.250000*%
%TD*%
G04 APERTURE END LIST*
D10*
%TO.P,LED4,1*%
%TO.N,Net-(LED4-Pad1)*%
X145000000Y-86420500D03*
%TO.P,LED4,2*%
%TO.N,Net-(J6-Pin_1)*%
X145000000Y-88579500D03*
%TD*%
D11*
%TO.P,LED3,1*%
%TO.N,Net-(LED3-Pad1)*%
X153920500Y-85000000D03*
%TO.P,LED3,2*%
%TO.N,Net-(J3-Pin_1)*%
X156079500Y-85000000D03*
%TD*%
%TO.P,LED2,1*%
%TO.N,Net-(LED2-Pad1)*%
X161420500Y-90000000D03*
%TO.P,LED2,2*%
%TO.N,Net-(J2-Pin_1)*%
X163579500Y-90000000D03*
%TD*%
%TO.P,LED1,1*%
%TO.N,Net-(LED1-Pad1)*%
X148579500Y-90000000D03*
%TO.P,LED1,2*%
%TO.N,Net-(J1-Pin_1)*%
X146420500Y-90000000D03*
%TD*%
D12*
%TO.P,U1,1,A*%
%TO.N,Net-(J1-Pin_1)*%
X152770000Y-88675000D03*
%TO.P,U1,2,B*%
%TO.N,Net-(J2-Pin_1)*%
X152770000Y-88025000D03*
%TO.P,U1,3,~{Y}*%
%TO.N,unconnected-(U1-~{Y}-Pad3)*%
X152770000Y-87375000D03*
%TO.P,U1,4,GND*%
%TO.N,GND*%
X152770000Y-86725000D03*
%TO.P,U1,5,Y*%
%TO.N,Net-(J3-Pin_1)*%
X149230000Y-86725000D03*
%TO.P,U1,6,~{A}/B*%
%TO.N,Net-(J6-Pin_1)*%
X149230000Y-87375000D03*
%TO.P,U1,7,~{G}*%
%TO.N,GND*%
X149230000Y-88025000D03*
%TO.P,U1,8,VCC*%
%TO.N,VCC*%
X149230000Y-88675000D03*
%TD*%
D13*
%TO.P,R3,1*%
%TO.N,Net-(LED3-Pad1)*%
X151000000Y-84800000D03*
%TO.P,R3,2*%
%TO.N,GND*%
X149000000Y-84800000D03*
%TD*%
D14*
%TO.P,R1,1*%
%TO.N,Net-(LED1-Pad1)*%
X151400000Y-91440000D03*
%TO.P,R1,2*%
%TO.N,GND*%
X153400000Y-91440000D03*
%TD*%
D13*
%TO.P,R2,1*%
%TO.N,Net-(LED2-Pad1)*%
X158480000Y-91440000D03*
%TO.P,R2,2*%
%TO.N,GND*%
X156480000Y-91440000D03*
%TD*%
D15*
%TO.P,J1,1,Pin_1*%
%TO.N,Net-(J1-Pin_1)*%
X147500000Y-93500000D03*
%TD*%
%TO.P,J2,1,Pin_1*%
%TO.N,Net-(J2-Pin_1)*%
X162500000Y-93500000D03*
%TD*%
%TO.P,J3,1,Pin_1*%
%TO.N,Net-(J3-Pin_1)*%
X157500000Y-81500000D03*
D16*
%TO.P,J3,2,Pin_2*%
X154960000Y-81500000D03*
%TO.P,J3,3,Pin_3*%
X152420000Y-81500000D03*
%TD*%
D17*
%TO.P,D1,1*%
%TO.N,VCC*%
X159775000Y-85250000D03*
%TO.P,D1,2*%
%TO.N,Net-(J5-PWR)*%
X165100000Y-85250000D03*
%TO.P,D1,3*%
%TO.N,GND*%
X159775000Y-87750000D03*
%TO.P,D1,4*%
%TO.N,Net-(J4-PWR)*%
X165100000Y-87750000D03*
%TD*%
D15*
%TO.P,J6,1,Pin_1*%
%TO.N,Net-(J6-Pin_1)*%
X141500000Y-87500000D03*
%TD*%
D18*
%TO.P,R4,1*%
%TO.N,Net-(LED4-Pad1)*%
X146650000Y-85000000D03*
%TO.P,R4,2*%
%TO.N,GND*%
X146650000Y-83000000D03*
%TD*%
D19*
%TO.N,GND*%
X152400000Y-86500000D03*
X157480000Y-88000000D03*
X154940000Y-91440000D03*
X147274072Y-82000000D03*
%TO.N,Net-(J5-PWR)*%
X161500000Y-85000000D03*
%TO.N,Net-(J4-PWR)*%
X168000000Y-87935641D03*
%TD*%
D20*
%TO.N,Net-(J2-Pin_1)*%
X163579500Y-91920500D02*
X163579500Y-90000000D01*
X152325000Y-92128173D02*
X153196827Y-93000000D01*
X153805000Y-88998458D02*
X152325000Y-90478458D01*
X153196827Y-93000000D02*
X162500000Y-93000000D01*
X153805000Y-88350001D02*
X153805000Y-88998458D01*
X152325000Y-90478458D02*
X152325000Y-92128173D01*
X162500000Y-93000000D02*
X163579500Y-91920500D01*
X152770000Y-88025000D02*
X153479999Y-88025000D01*
X153479999Y-88025000D02*
X153805000Y-88350001D01*
%TO.N,Net-(J3-Pin_1)*%
X148024072Y-85519072D02*
X147724072Y-85519072D01*
X149230000Y-86725000D02*
X148024072Y-85519072D01*
%TO.N,Net-(J6-Pin_1)*%
X148195000Y-88025000D02*
X147588205Y-88631795D01*
X148520001Y-87375000D02*
X148195000Y-87700001D01*
X148195000Y-87700001D02*
X148195000Y-88025000D01*
X149230000Y-87375000D02*
X148520001Y-87375000D01*
%TO.N,GND*%
X150725000Y-87239999D02*
X149939999Y-88025000D01*
X149939999Y-88025000D02*
X149230000Y-88025000D01*
X150725000Y-86525000D02*
X150725000Y-87239999D01*
X149000000Y-84800000D02*
X150725000Y-86525000D01*
%TO.N,VCC*%
X149939999Y-88675000D02*
X149230000Y-88675000D01*
X151198638Y-87416361D02*
X149939999Y-88675000D01*
X151198638Y-86238458D02*
X151198638Y-87416361D01*
X151768755Y-85668341D02*
X151198638Y-86238458D01*
%TO.N,GND*%
X152405000Y-86360000D02*
X152400000Y-86360000D01*
X152770000Y-86725000D02*
X152405000Y-86360000D01*
X157730000Y-87750000D02*
X157480000Y-88000000D01*
X159775000Y-87750000D02*
X157730000Y-87750000D01*
%TO.N,VCC*%
X158197500Y-85250000D02*
X159775000Y-85250000D01*
X157779159Y-85668341D02*
X158197500Y-85250000D01*
X151768755Y-85668341D02*
X157779159Y-85668341D01*
%TO.N,Net-(J6-Pin_1)*%
X145000000Y-88579500D02*
X145052295Y-88631795D01*
X145052295Y-88631795D02*
X147588205Y-88631795D01*
%TO.N,Net-(J1-Pin_1)*%
X146420500Y-89445200D02*
X146420500Y-90000000D01*
X146665700Y-89200000D02*
X146420500Y-89445200D01*
X152245000Y-89200000D02*
X146665700Y-89200000D01*
X152770000Y-88675000D02*
X152245000Y-89200000D01*
%TO.N,GND*%
X147274072Y-82000000D02*
X149000000Y-83725928D01*
X147274072Y-82881020D02*
X147274072Y-83074072D01*
X147274072Y-82375928D02*
X146650000Y-83000000D01*
X147274072Y-82000000D02*
X147274072Y-82375928D01*
X156480000Y-91440000D02*
X154940000Y-91440000D01*
X154940000Y-91440000D02*
X153400000Y-91440000D01*
X159775000Y-87750000D02*
X158337500Y-89187500D01*
X158337500Y-89582500D02*
X156480000Y-91440000D01*
X149000000Y-83725928D02*
X149000000Y-84800000D01*
X158337500Y-89187500D02*
X158337500Y-89582500D01*
%TO.N,VCC*%
X151175000Y-86737904D02*
X151175000Y-86262096D01*
X151175000Y-86262096D02*
X151768755Y-85668341D01*
%TO.N,Net-(LED1-Pad1)*%
X149960000Y-90000000D02*
X151400000Y-91440000D01*
X148579500Y-90000000D02*
X149960000Y-90000000D01*
%TO.N,Net-(LED2-Pad1)*%
X159920000Y-90000000D02*
X158480000Y-91440000D01*
X161420500Y-90000000D02*
X159920000Y-90000000D01*
%TO.N,Net-(LED3-Pad1)*%
X151200000Y-85000000D02*
X151000000Y-84800000D01*
X153920500Y-85000000D02*
X151200000Y-85000000D01*
%TO.N,Net-(J1-Pin_1)*%
X146420500Y-91920500D02*
X146420500Y-90000000D01*
X147500000Y-93000000D02*
X146420500Y-91920500D01*
%TO.N,Net-(J3-Pin_1)*%
X154960000Y-82000000D02*
X156079500Y-83119500D01*
X144780000Y-83249900D02*
X146754900Y-81275000D01*
X157500000Y-82000000D02*
X154960000Y-82000000D01*
X144885000Y-83925000D02*
X144780000Y-83820000D01*
X147385050Y-83885050D02*
X147345100Y-83925000D01*
X146754900Y-81275000D02*
X152195000Y-81275000D01*
X147724072Y-85519072D02*
X147724072Y-84224072D01*
X152195000Y-81275000D02*
X152420000Y-81500000D01*
X147345100Y-83925000D02*
X144885000Y-83925000D01*
X156079500Y-83119500D02*
X156079500Y-85000000D01*
X144780000Y-83820000D02*
X144780000Y-83249900D01*
X147724072Y-84224072D02*
X147385050Y-83885050D01*
%TO.N,Net-(J5-PWR)*%
X163802500Y-85250000D02*
X163552500Y-85000000D01*
X165100000Y-85250000D02*
X163802500Y-85250000D01*
X161500000Y-85000000D02*
X163552500Y-85000000D01*
%TO.N,Net-(J4-PWR)*%
X167814359Y-87750000D02*
X165100000Y-87750000D01*
X168000000Y-87935641D02*
X167814359Y-87750000D01*
X167454359Y-87750000D02*
X165100000Y-87750000D01*
%TO.N,Net-(J6-Pin_1)*%
X143079500Y-88579500D02*
X145000000Y-88579500D01*
X142000000Y-87500000D02*
X143079500Y-88579500D01*
%TO.N,Net-(LED4-Pad1)*%
X145936777Y-85000000D02*
X145000000Y-85936777D01*
X147210000Y-84800000D02*
X146650000Y-85360000D01*
X146650000Y-85360000D02*
X147274072Y-84735928D01*
X145000000Y-85936777D02*
X145000000Y-86420500D01*
X146650000Y-85000000D02*
X145936777Y-85000000D01*
%TD*%
M02*
