%TF.GenerationSoftware,KiCad,Pcbnew,7.0.9*%
%TF.CreationDate,2024-03-13T02:42:54-05:00*%
%TF.ProjectId,MUX,4d55582e-6b69-4636-9164-5f7063625858,rev?*%
%TF.SameCoordinates,Original*%
%TF.FileFunction,Copper,L2,Bot*%
%TF.FilePolarity,Positive*%
%FSLAX46Y46*%
G04 Gerber Fmt 4.6, Leading zero omitted, Abs format (unit mm)*
G04 Created by KiCad (PCBNEW 7.0.9) date 2024-03-13 02:42:54*
%MOMM*%
%LPD*%
G01*
G04 APERTURE LIST*
G04 Aperture macros list*
%AMFreePoly0*
4,1,111,3.404321,4.105137,3.804748,4.045739,4.197424,3.947379,4.578569,3.811003,4.944512,3.637925,5.291727,3.429812,5.616872,3.188668,5.916815,2.916815,6.188668,2.616872,6.429812,2.291727,6.637925,1.944512,6.811003,1.578569,6.947379,1.197424,7.045739,0.804748,7.105137,0.404321,7.125000,0.000000,7.105137,-0.404321,7.045739,-0.804748,6.947379,-1.197424,6.811003,-1.578569,
6.637925,-1.944512,6.429812,-2.291727,6.188668,-2.616872,5.916815,-2.916815,5.616872,-3.188668,5.291727,-3.429812,4.944512,-3.637925,4.578569,-3.811003,4.197424,-3.947379,3.804748,-4.045739,3.404321,-4.105137,3.000000,-4.125000,2.595679,-4.105137,2.195252,-4.045739,1.802576,-3.947379,1.421431,-3.811003,1.055488,-3.637925,0.708273,-3.429812,0.383128,-3.188668,0.083185,-2.916815,
-0.188668,-2.616872,-0.429812,-2.291727,-0.637925,-1.944512,-0.811003,-1.578569,-0.947379,-1.197424,-1.045739,-0.804748,-1.105137,-0.404321,-1.125000,0.000000,0.994891,0.000000,1.015300,-0.285357,1.076112,-0.564904,1.176089,-0.832952,1.313195,-1.084044,1.484640,-1.313067,1.686933,-1.515360,1.915956,-1.686805,2.167048,-1.823911,2.435096,-1.923888,2.714643,-1.984700,3.000000,-2.005109,
3.285357,-1.984700,3.564904,-1.923888,3.832952,-1.823911,4.084044,-1.686805,4.313067,-1.515360,4.515360,-1.313067,4.686805,-1.084044,4.823911,-0.832952,4.923888,-0.564904,4.984700,-0.285357,5.005109,0.000000,4.984700,0.285357,4.923888,0.564904,4.823911,0.832952,4.686805,1.084044,4.515360,1.313067,4.313067,1.515360,4.084044,1.686805,3.832952,1.823911,3.564904,1.923888,
3.285357,1.984700,3.000000,2.005109,2.714643,1.984700,2.435096,1.923888,2.167048,1.823911,1.915956,1.686805,1.686933,1.515360,1.484640,1.313067,1.313195,1.084044,1.176089,0.832952,1.076112,0.564904,1.015300,0.285357,0.994891,0.000000,-1.125000,0.000000,-1.105137,0.404321,-1.045739,0.804748,-0.947379,1.197424,-0.811003,1.578569,-0.637925,1.944512,-0.429812,2.291727,
-0.188668,2.616872,0.083185,2.916815,0.383128,3.188668,0.708273,3.429812,1.055488,3.637925,1.421431,3.811003,1.802576,3.947379,2.195252,4.045739,2.595679,4.105137,3.000000,4.125000,3.404321,4.105137,3.404321,4.105137,$1*%
G04 Aperture macros list end*
%TA.AperFunction,ComponentPad*%
%ADD10R,1.700000X1.700000*%
%TD*%
%TA.AperFunction,ComponentPad*%
%ADD11O,1.700000X1.700000*%
%TD*%
%TA.AperFunction,SMDPad,CuDef*%
%ADD12FreePoly0,180.000000*%
%TD*%
%TA.AperFunction,ViaPad*%
%ADD13C,0.800000*%
%TD*%
%TA.AperFunction,Conductor*%
%ADD14C,0.250000*%
%TD*%
G04 APERTURE END LIST*
D10*
%TO.P,J1,1,Pin_1*%
%TO.N,Net-(J1-Pin_1)*%
X147500000Y-93500000D03*
%TD*%
%TO.P,J2,1,Pin_1*%
%TO.N,Net-(J2-Pin_1)*%
X162500000Y-93500000D03*
%TD*%
%TO.P,J3,1,Pin_1*%
%TO.N,Net-(J3-Pin_1)*%
X157500000Y-81500000D03*
D11*
%TO.P,J3,2,Pin_2*%
X154960000Y-81500000D03*
%TO.P,J3,3,Pin_3*%
X152420000Y-81500000D03*
%TD*%
D10*
%TO.P,J6,1,Pin_1*%
%TO.N,Net-(J6-Pin_1)*%
X141500000Y-87500000D03*
%TD*%
D12*
%TO.P,J4,1,PWR*%
%TO.N,Net-(J4-PWR)*%
X150000000Y-87500000D03*
%TD*%
%TO.P,J5,1,PWR*%
%TO.N,Net-(J5-PWR)*%
X166000000Y-87500000D03*
%TD*%
D13*
%TO.N,GND*%
X152400000Y-86500000D03*
X157480000Y-88000000D03*
X154940000Y-91440000D03*
X147274072Y-82000000D03*
%TO.N,Net-(J5-PWR)*%
X161500000Y-85000000D03*
%TO.N,Net-(J4-PWR)*%
X168000000Y-87935641D03*
%TD*%
D14*
%TO.N,GND*%
X153078299Y-83820000D02*
X151258299Y-82000000D01*
X156580000Y-83820000D02*
X153078299Y-83820000D01*
X157030000Y-87550000D02*
X157030000Y-84270000D01*
X157030000Y-84270000D02*
X156580000Y-83820000D01*
X157480000Y-88000000D02*
X157030000Y-87550000D01*
X151258299Y-82000000D02*
X147274072Y-82000000D01*
%TO.N,Net-(J4-PWR)*%
X158545025Y-85303147D02*
X160024086Y-83824086D01*
X158545025Y-87425025D02*
X158545025Y-85303147D01*
X155240305Y-92165000D02*
X152165000Y-92165000D01*
X152165000Y-92165000D02*
X150000000Y-90000000D01*
X158545025Y-87425025D02*
X158545025Y-88860280D01*
X158545025Y-88860280D02*
X155240305Y-92165000D01*
X150000000Y-90000000D02*
X150000000Y-87500000D01*
%TO.N,Net-(J3-Pin_1)*%
X152420000Y-81500000D02*
X154960000Y-81500000D01*
%TO.N,GND*%
X152400000Y-88900000D02*
X154940000Y-91440000D01*
X149032849Y-82881020D02*
X148155092Y-82881020D01*
X148155092Y-82881020D02*
X147274072Y-82000000D01*
X149032849Y-82881020D02*
X152400000Y-86248171D01*
X152400000Y-86248171D02*
X152400000Y-88900000D01*
%TO.N,Net-(J5-PWR)*%
X161500000Y-85000000D02*
X163500000Y-85000000D01*
X163500000Y-85000000D02*
X166000000Y-87500000D01*
%TO.N,Net-(J4-PWR)*%
X167640000Y-85839714D02*
X167640000Y-87575641D01*
X167640000Y-87575641D02*
X168000000Y-87935641D01*
X160024086Y-83824086D02*
X160803147Y-83045025D01*
X160024086Y-83824086D02*
X160698171Y-83150000D01*
X160803147Y-83045025D02*
X164845311Y-83045025D01*
X164845311Y-83045025D02*
X167640000Y-85839714D01*
%TD*%
M02*
