%TF.GenerationSoftware,KiCad,Pcbnew,7.0.9*%
%TF.CreationDate,2024-03-13T02:42:56-05:00*%
%TF.ProjectId,MUX,4d55582e-6b69-4636-9164-5f7063625858,rev?*%
%TF.SameCoordinates,Original*%
%TF.FileFunction,Drillmap*%
%TF.FilePolarity,Positive*%
%FSLAX45Y45*%
G04 Gerber Fmt 4.5, Leading zero omitted, Abs format (unit mm)*
G04 Created by KiCad (PCBNEW 7.0.9) date 2024-03-13 02:42:56*
%MOMM*%
%LPD*%
G01*
G04 APERTURE LIST*
%ADD10C,0.100000*%
%ADD11C,0.200000*%
G04 APERTURE END LIST*
D10*
X16510000Y-8128000D02*
G75*
G03*
X16510000Y-8128000I0J0D01*
G01*
X15625000Y-8750000D02*
G75*
G03*
X15625000Y-8750000I-125000J0D01*
G01*
X14750000Y-8100000D02*
X15050000Y-8100000D01*
X15050000Y-8000000D01*
X16000000Y-8000000D01*
X16000000Y-8100000D01*
X16250000Y-8100000D01*
X16250000Y-8000000D01*
X17000000Y-8000000D01*
X17000000Y-9500000D01*
X15650000Y-9500000D01*
X15650000Y-9400000D01*
X15350000Y-9400000D01*
X15350000Y-9500000D01*
X14000000Y-9500000D01*
X14000000Y-8000000D01*
X14750000Y-8000000D01*
X14750000Y-8100000D01*
D11*
X14255777Y-9816484D02*
X14255777Y-9616484D01*
X14255777Y-9616484D02*
X14303396Y-9616484D01*
X14303396Y-9616484D02*
X14331967Y-9626008D01*
X14331967Y-9626008D02*
X14351015Y-9645055D01*
X14351015Y-9645055D02*
X14360539Y-9664103D01*
X14360539Y-9664103D02*
X14370062Y-9702198D01*
X14370062Y-9702198D02*
X14370062Y-9730770D01*
X14370062Y-9730770D02*
X14360539Y-9768865D01*
X14360539Y-9768865D02*
X14351015Y-9787912D01*
X14351015Y-9787912D02*
X14331967Y-9806960D01*
X14331967Y-9806960D02*
X14303396Y-9816484D01*
X14303396Y-9816484D02*
X14255777Y-9816484D01*
X14455777Y-9816484D02*
X14455777Y-9683150D01*
X14455777Y-9721246D02*
X14465301Y-9702198D01*
X14465301Y-9702198D02*
X14474824Y-9692674D01*
X14474824Y-9692674D02*
X14493872Y-9683150D01*
X14493872Y-9683150D02*
X14512920Y-9683150D01*
X14579586Y-9816484D02*
X14579586Y-9683150D01*
X14579586Y-9616484D02*
X14570062Y-9626008D01*
X14570062Y-9626008D02*
X14579586Y-9635531D01*
X14579586Y-9635531D02*
X14589110Y-9626008D01*
X14589110Y-9626008D02*
X14579586Y-9616484D01*
X14579586Y-9616484D02*
X14579586Y-9635531D01*
X14703396Y-9816484D02*
X14684348Y-9806960D01*
X14684348Y-9806960D02*
X14674824Y-9787912D01*
X14674824Y-9787912D02*
X14674824Y-9616484D01*
X14808158Y-9816484D02*
X14789110Y-9806960D01*
X14789110Y-9806960D02*
X14779586Y-9787912D01*
X14779586Y-9787912D02*
X14779586Y-9616484D01*
X15036729Y-9816484D02*
X15036729Y-9616484D01*
X15036729Y-9616484D02*
X15103396Y-9759341D01*
X15103396Y-9759341D02*
X15170062Y-9616484D01*
X15170062Y-9616484D02*
X15170062Y-9816484D01*
X15351015Y-9816484D02*
X15351015Y-9711722D01*
X15351015Y-9711722D02*
X15341491Y-9692674D01*
X15341491Y-9692674D02*
X15322443Y-9683150D01*
X15322443Y-9683150D02*
X15284348Y-9683150D01*
X15284348Y-9683150D02*
X15265301Y-9692674D01*
X15351015Y-9806960D02*
X15331967Y-9816484D01*
X15331967Y-9816484D02*
X15284348Y-9816484D01*
X15284348Y-9816484D02*
X15265301Y-9806960D01*
X15265301Y-9806960D02*
X15255777Y-9787912D01*
X15255777Y-9787912D02*
X15255777Y-9768865D01*
X15255777Y-9768865D02*
X15265301Y-9749817D01*
X15265301Y-9749817D02*
X15284348Y-9740293D01*
X15284348Y-9740293D02*
X15331967Y-9740293D01*
X15331967Y-9740293D02*
X15351015Y-9730770D01*
X15446253Y-9683150D02*
X15446253Y-9883150D01*
X15446253Y-9692674D02*
X15465301Y-9683150D01*
X15465301Y-9683150D02*
X15503396Y-9683150D01*
X15503396Y-9683150D02*
X15522443Y-9692674D01*
X15522443Y-9692674D02*
X15531967Y-9702198D01*
X15531967Y-9702198D02*
X15541491Y-9721246D01*
X15541491Y-9721246D02*
X15541491Y-9778389D01*
X15541491Y-9778389D02*
X15531967Y-9797436D01*
X15531967Y-9797436D02*
X15522443Y-9806960D01*
X15522443Y-9806960D02*
X15503396Y-9816484D01*
X15503396Y-9816484D02*
X15465301Y-9816484D01*
X15465301Y-9816484D02*
X15446253Y-9806960D01*
X15627205Y-9797436D02*
X15636729Y-9806960D01*
X15636729Y-9806960D02*
X15627205Y-9816484D01*
X15627205Y-9816484D02*
X15617682Y-9806960D01*
X15617682Y-9806960D02*
X15627205Y-9797436D01*
X15627205Y-9797436D02*
X15627205Y-9816484D01*
X15627205Y-9692674D02*
X15636729Y-9702198D01*
X15636729Y-9702198D02*
X15627205Y-9711722D01*
X15627205Y-9711722D02*
X15617682Y-9702198D01*
X15617682Y-9702198D02*
X15627205Y-9692674D01*
X15627205Y-9692674D02*
X15627205Y-9711722D01*
M02*
