%TF.GenerationSoftware,KiCad,Pcbnew,7.0.9*%
%TF.CreationDate,2024-03-13T02:47:38-05:00*%
%TF.ProjectId,SWITCHES,53574954-4348-4455-932e-6b696361645f,rev?*%
%TF.SameCoordinates,Original*%
%TF.FileFunction,Legend,Top*%
%TF.FilePolarity,Positive*%
%FSLAX46Y46*%
G04 Gerber Fmt 4.6, Leading zero omitted, Abs format (unit mm)*
G04 Created by KiCad (PCBNEW 7.0.9) date 2024-03-13 02:47:38*
%MOMM*%
%LPD*%
G01*
G04 APERTURE LIST*
%ADD10C,0.150000*%
%ADD11C,0.254000*%
%ADD12C,0.127000*%
%ADD13C,0.200000*%
%ADD14C,0.152400*%
%ADD15C,0.120000*%
%ADD16C,0.100000*%
G04 APERTURE END LIST*
D10*
X161263095Y-92042200D02*
X161405952Y-92089819D01*
X161405952Y-92089819D02*
X161644047Y-92089819D01*
X161644047Y-92089819D02*
X161739285Y-92042200D01*
X161739285Y-92042200D02*
X161786904Y-91994580D01*
X161786904Y-91994580D02*
X161834523Y-91899342D01*
X161834523Y-91899342D02*
X161834523Y-91804104D01*
X161834523Y-91804104D02*
X161786904Y-91708866D01*
X161786904Y-91708866D02*
X161739285Y-91661247D01*
X161739285Y-91661247D02*
X161644047Y-91613628D01*
X161644047Y-91613628D02*
X161453571Y-91566009D01*
X161453571Y-91566009D02*
X161358333Y-91518390D01*
X161358333Y-91518390D02*
X161310714Y-91470771D01*
X161310714Y-91470771D02*
X161263095Y-91375533D01*
X161263095Y-91375533D02*
X161263095Y-91280295D01*
X161263095Y-91280295D02*
X161310714Y-91185057D01*
X161310714Y-91185057D02*
X161358333Y-91137438D01*
X161358333Y-91137438D02*
X161453571Y-91089819D01*
X161453571Y-91089819D02*
X161691666Y-91089819D01*
X161691666Y-91089819D02*
X161834523Y-91137438D01*
X162215476Y-91185057D02*
X162263095Y-91137438D01*
X162263095Y-91137438D02*
X162358333Y-91089819D01*
X162358333Y-91089819D02*
X162596428Y-91089819D01*
X162596428Y-91089819D02*
X162691666Y-91137438D01*
X162691666Y-91137438D02*
X162739285Y-91185057D01*
X162739285Y-91185057D02*
X162786904Y-91280295D01*
X162786904Y-91280295D02*
X162786904Y-91375533D01*
X162786904Y-91375533D02*
X162739285Y-91518390D01*
X162739285Y-91518390D02*
X162167857Y-92089819D01*
X162167857Y-92089819D02*
X162786904Y-92089819D01*
X151040952Y-86854819D02*
X150564762Y-86854819D01*
X150564762Y-86854819D02*
X150564762Y-85854819D01*
X151374286Y-86331009D02*
X151707619Y-86331009D01*
X151850476Y-86854819D02*
X151374286Y-86854819D01*
X151374286Y-86854819D02*
X151374286Y-85854819D01*
X151374286Y-85854819D02*
X151850476Y-85854819D01*
X152279048Y-86854819D02*
X152279048Y-85854819D01*
X152279048Y-85854819D02*
X152517143Y-85854819D01*
X152517143Y-85854819D02*
X152660000Y-85902438D01*
X152660000Y-85902438D02*
X152755238Y-85997676D01*
X152755238Y-85997676D02*
X152802857Y-86092914D01*
X152802857Y-86092914D02*
X152850476Y-86283390D01*
X152850476Y-86283390D02*
X152850476Y-86426247D01*
X152850476Y-86426247D02*
X152802857Y-86616723D01*
X152802857Y-86616723D02*
X152755238Y-86711961D01*
X152755238Y-86711961D02*
X152660000Y-86807200D01*
X152660000Y-86807200D02*
X152517143Y-86854819D01*
X152517143Y-86854819D02*
X152279048Y-86854819D01*
X153707619Y-85854819D02*
X153517143Y-85854819D01*
X153517143Y-85854819D02*
X153421905Y-85902438D01*
X153421905Y-85902438D02*
X153374286Y-85950057D01*
X153374286Y-85950057D02*
X153279048Y-86092914D01*
X153279048Y-86092914D02*
X153231429Y-86283390D01*
X153231429Y-86283390D02*
X153231429Y-86664342D01*
X153231429Y-86664342D02*
X153279048Y-86759580D01*
X153279048Y-86759580D02*
X153326667Y-86807200D01*
X153326667Y-86807200D02*
X153421905Y-86854819D01*
X153421905Y-86854819D02*
X153612381Y-86854819D01*
X153612381Y-86854819D02*
X153707619Y-86807200D01*
X153707619Y-86807200D02*
X153755238Y-86759580D01*
X153755238Y-86759580D02*
X153802857Y-86664342D01*
X153802857Y-86664342D02*
X153802857Y-86426247D01*
X153802857Y-86426247D02*
X153755238Y-86331009D01*
X153755238Y-86331009D02*
X153707619Y-86283390D01*
X153707619Y-86283390D02*
X153612381Y-86235771D01*
X153612381Y-86235771D02*
X153421905Y-86235771D01*
X153421905Y-86235771D02*
X153326667Y-86283390D01*
X153326667Y-86283390D02*
X153279048Y-86331009D01*
X153279048Y-86331009D02*
X153231429Y-86426247D01*
X157633333Y-79804819D02*
X157300000Y-79328628D01*
X157061905Y-79804819D02*
X157061905Y-78804819D01*
X157061905Y-78804819D02*
X157442857Y-78804819D01*
X157442857Y-78804819D02*
X157538095Y-78852438D01*
X157538095Y-78852438D02*
X157585714Y-78900057D01*
X157585714Y-78900057D02*
X157633333Y-78995295D01*
X157633333Y-78995295D02*
X157633333Y-79138152D01*
X157633333Y-79138152D02*
X157585714Y-79233390D01*
X157585714Y-79233390D02*
X157538095Y-79281009D01*
X157538095Y-79281009D02*
X157442857Y-79328628D01*
X157442857Y-79328628D02*
X157061905Y-79328628D01*
X158585714Y-79804819D02*
X158014286Y-79804819D01*
X158300000Y-79804819D02*
X158300000Y-78804819D01*
X158300000Y-78804819D02*
X158204762Y-78947676D01*
X158204762Y-78947676D02*
X158109524Y-79042914D01*
X158109524Y-79042914D02*
X158014286Y-79090533D01*
D11*
X165013842Y-88467619D02*
X165074318Y-88286190D01*
X165074318Y-88286190D02*
X165074318Y-87983809D01*
X165074318Y-87983809D02*
X165013842Y-87862857D01*
X165013842Y-87862857D02*
X164953365Y-87802381D01*
X164953365Y-87802381D02*
X164832413Y-87741904D01*
X164832413Y-87741904D02*
X164711461Y-87741904D01*
X164711461Y-87741904D02*
X164590508Y-87802381D01*
X164590508Y-87802381D02*
X164530032Y-87862857D01*
X164530032Y-87862857D02*
X164469556Y-87983809D01*
X164469556Y-87983809D02*
X164409080Y-88225714D01*
X164409080Y-88225714D02*
X164348603Y-88346666D01*
X164348603Y-88346666D02*
X164288127Y-88407143D01*
X164288127Y-88407143D02*
X164167175Y-88467619D01*
X164167175Y-88467619D02*
X164046222Y-88467619D01*
X164046222Y-88467619D02*
X163925270Y-88407143D01*
X163925270Y-88407143D02*
X163864794Y-88346666D01*
X163864794Y-88346666D02*
X163804318Y-88225714D01*
X163804318Y-88225714D02*
X163804318Y-87923333D01*
X163804318Y-87923333D02*
X163864794Y-87741904D01*
X165074318Y-86532380D02*
X165074318Y-87258095D01*
X165074318Y-86895238D02*
X163804318Y-86895238D01*
X163804318Y-86895238D02*
X163985746Y-87016190D01*
X163985746Y-87016190D02*
X164106699Y-87137142D01*
X164106699Y-87137142D02*
X164167175Y-87258095D01*
D10*
X156884819Y-93833333D02*
X157599104Y-93833333D01*
X157599104Y-93833333D02*
X157741961Y-93880952D01*
X157741961Y-93880952D02*
X157837200Y-93976190D01*
X157837200Y-93976190D02*
X157884819Y-94119047D01*
X157884819Y-94119047D02*
X157884819Y-94214285D01*
X157313390Y-93214285D02*
X157265771Y-93309523D01*
X157265771Y-93309523D02*
X157218152Y-93357142D01*
X157218152Y-93357142D02*
X157122914Y-93404761D01*
X157122914Y-93404761D02*
X157075295Y-93404761D01*
X157075295Y-93404761D02*
X156980057Y-93357142D01*
X156980057Y-93357142D02*
X156932438Y-93309523D01*
X156932438Y-93309523D02*
X156884819Y-93214285D01*
X156884819Y-93214285D02*
X156884819Y-93023809D01*
X156884819Y-93023809D02*
X156932438Y-92928571D01*
X156932438Y-92928571D02*
X156980057Y-92880952D01*
X156980057Y-92880952D02*
X157075295Y-92833333D01*
X157075295Y-92833333D02*
X157122914Y-92833333D01*
X157122914Y-92833333D02*
X157218152Y-92880952D01*
X157218152Y-92880952D02*
X157265771Y-92928571D01*
X157265771Y-92928571D02*
X157313390Y-93023809D01*
X157313390Y-93023809D02*
X157313390Y-93214285D01*
X157313390Y-93214285D02*
X157361009Y-93309523D01*
X157361009Y-93309523D02*
X157408628Y-93357142D01*
X157408628Y-93357142D02*
X157503866Y-93404761D01*
X157503866Y-93404761D02*
X157694342Y-93404761D01*
X157694342Y-93404761D02*
X157789580Y-93357142D01*
X157789580Y-93357142D02*
X157837200Y-93309523D01*
X157837200Y-93309523D02*
X157884819Y-93214285D01*
X157884819Y-93214285D02*
X157884819Y-93023809D01*
X157884819Y-93023809D02*
X157837200Y-92928571D01*
X157837200Y-92928571D02*
X157789580Y-92880952D01*
X157789580Y-92880952D02*
X157694342Y-92833333D01*
X157694342Y-92833333D02*
X157503866Y-92833333D01*
X157503866Y-92833333D02*
X157408628Y-92880952D01*
X157408628Y-92880952D02*
X157361009Y-92928571D01*
X157361009Y-92928571D02*
X157313390Y-93023809D01*
X141666666Y-95284819D02*
X141666666Y-95999104D01*
X141666666Y-95999104D02*
X141619047Y-96141961D01*
X141619047Y-96141961D02*
X141523809Y-96237200D01*
X141523809Y-96237200D02*
X141380952Y-96284819D01*
X141380952Y-96284819D02*
X141285714Y-96284819D01*
X142047619Y-95284819D02*
X142714285Y-95284819D01*
X142714285Y-95284819D02*
X142285714Y-96284819D01*
X146746666Y-87544819D02*
X146746666Y-88259104D01*
X146746666Y-88259104D02*
X146699047Y-88401961D01*
X146699047Y-88401961D02*
X146603809Y-88497200D01*
X146603809Y-88497200D02*
X146460952Y-88544819D01*
X146460952Y-88544819D02*
X146365714Y-88544819D01*
X147651428Y-87544819D02*
X147460952Y-87544819D01*
X147460952Y-87544819D02*
X147365714Y-87592438D01*
X147365714Y-87592438D02*
X147318095Y-87640057D01*
X147318095Y-87640057D02*
X147222857Y-87782914D01*
X147222857Y-87782914D02*
X147175238Y-87973390D01*
X147175238Y-87973390D02*
X147175238Y-88354342D01*
X147175238Y-88354342D02*
X147222857Y-88449580D01*
X147222857Y-88449580D02*
X147270476Y-88497200D01*
X147270476Y-88497200D02*
X147365714Y-88544819D01*
X147365714Y-88544819D02*
X147556190Y-88544819D01*
X147556190Y-88544819D02*
X147651428Y-88497200D01*
X147651428Y-88497200D02*
X147699047Y-88449580D01*
X147699047Y-88449580D02*
X147746666Y-88354342D01*
X147746666Y-88354342D02*
X147746666Y-88116247D01*
X147746666Y-88116247D02*
X147699047Y-88021009D01*
X147699047Y-88021009D02*
X147651428Y-87973390D01*
X147651428Y-87973390D02*
X147556190Y-87925771D01*
X147556190Y-87925771D02*
X147365714Y-87925771D01*
X147365714Y-87925771D02*
X147270476Y-87973390D01*
X147270476Y-87973390D02*
X147222857Y-88021009D01*
X147222857Y-88021009D02*
X147175238Y-88116247D01*
X158359047Y-85945180D02*
X158835237Y-85945180D01*
X158835237Y-85945180D02*
X158835237Y-86945180D01*
X158025713Y-86468990D02*
X157692380Y-86468990D01*
X157549523Y-85945180D02*
X158025713Y-85945180D01*
X158025713Y-85945180D02*
X158025713Y-86945180D01*
X158025713Y-86945180D02*
X157549523Y-86945180D01*
X157120951Y-85945180D02*
X157120951Y-86945180D01*
X157120951Y-86945180D02*
X156882856Y-86945180D01*
X156882856Y-86945180D02*
X156739999Y-86897561D01*
X156739999Y-86897561D02*
X156644761Y-86802323D01*
X156644761Y-86802323D02*
X156597142Y-86707085D01*
X156597142Y-86707085D02*
X156549523Y-86516609D01*
X156549523Y-86516609D02*
X156549523Y-86373752D01*
X156549523Y-86373752D02*
X156597142Y-86183276D01*
X156597142Y-86183276D02*
X156644761Y-86088038D01*
X156644761Y-86088038D02*
X156739999Y-85992800D01*
X156739999Y-85992800D02*
X156882856Y-85945180D01*
X156882856Y-85945180D02*
X157120951Y-85945180D01*
X155644761Y-86945180D02*
X156120951Y-86945180D01*
X156120951Y-86945180D02*
X156168570Y-86468990D01*
X156168570Y-86468990D02*
X156120951Y-86516609D01*
X156120951Y-86516609D02*
X156025713Y-86564228D01*
X156025713Y-86564228D02*
X155787618Y-86564228D01*
X155787618Y-86564228D02*
X155692380Y-86516609D01*
X155692380Y-86516609D02*
X155644761Y-86468990D01*
X155644761Y-86468990D02*
X155597142Y-86373752D01*
X155597142Y-86373752D02*
X155597142Y-86135657D01*
X155597142Y-86135657D02*
X155644761Y-86040419D01*
X155644761Y-86040419D02*
X155692380Y-85992800D01*
X155692380Y-85992800D02*
X155787618Y-85945180D01*
X155787618Y-85945180D02*
X156025713Y-85945180D01*
X156025713Y-85945180D02*
X156120951Y-85992800D01*
X156120951Y-85992800D02*
X156168570Y-86040419D01*
X145960952Y-86854819D02*
X145484762Y-86854819D01*
X145484762Y-86854819D02*
X145484762Y-85854819D01*
X146294286Y-86331009D02*
X146627619Y-86331009D01*
X146770476Y-86854819D02*
X146294286Y-86854819D01*
X146294286Y-86854819D02*
X146294286Y-85854819D01*
X146294286Y-85854819D02*
X146770476Y-85854819D01*
X147199048Y-86854819D02*
X147199048Y-85854819D01*
X147199048Y-85854819D02*
X147437143Y-85854819D01*
X147437143Y-85854819D02*
X147580000Y-85902438D01*
X147580000Y-85902438D02*
X147675238Y-85997676D01*
X147675238Y-85997676D02*
X147722857Y-86092914D01*
X147722857Y-86092914D02*
X147770476Y-86283390D01*
X147770476Y-86283390D02*
X147770476Y-86426247D01*
X147770476Y-86426247D02*
X147722857Y-86616723D01*
X147722857Y-86616723D02*
X147675238Y-86711961D01*
X147675238Y-86711961D02*
X147580000Y-86807200D01*
X147580000Y-86807200D02*
X147437143Y-86854819D01*
X147437143Y-86854819D02*
X147199048Y-86854819D01*
X148103810Y-85854819D02*
X148770476Y-85854819D01*
X148770476Y-85854819D02*
X148341905Y-86854819D01*
X140880952Y-86854819D02*
X140404762Y-86854819D01*
X140404762Y-86854819D02*
X140404762Y-85854819D01*
X141214286Y-86331009D02*
X141547619Y-86331009D01*
X141690476Y-86854819D02*
X141214286Y-86854819D01*
X141214286Y-86854819D02*
X141214286Y-85854819D01*
X141214286Y-85854819D02*
X141690476Y-85854819D01*
X142119048Y-86854819D02*
X142119048Y-85854819D01*
X142119048Y-85854819D02*
X142357143Y-85854819D01*
X142357143Y-85854819D02*
X142500000Y-85902438D01*
X142500000Y-85902438D02*
X142595238Y-85997676D01*
X142595238Y-85997676D02*
X142642857Y-86092914D01*
X142642857Y-86092914D02*
X142690476Y-86283390D01*
X142690476Y-86283390D02*
X142690476Y-86426247D01*
X142690476Y-86426247D02*
X142642857Y-86616723D01*
X142642857Y-86616723D02*
X142595238Y-86711961D01*
X142595238Y-86711961D02*
X142500000Y-86807200D01*
X142500000Y-86807200D02*
X142357143Y-86854819D01*
X142357143Y-86854819D02*
X142119048Y-86854819D01*
X143261905Y-86283390D02*
X143166667Y-86235771D01*
X143166667Y-86235771D02*
X143119048Y-86188152D01*
X143119048Y-86188152D02*
X143071429Y-86092914D01*
X143071429Y-86092914D02*
X143071429Y-86045295D01*
X143071429Y-86045295D02*
X143119048Y-85950057D01*
X143119048Y-85950057D02*
X143166667Y-85902438D01*
X143166667Y-85902438D02*
X143261905Y-85854819D01*
X143261905Y-85854819D02*
X143452381Y-85854819D01*
X143452381Y-85854819D02*
X143547619Y-85902438D01*
X143547619Y-85902438D02*
X143595238Y-85950057D01*
X143595238Y-85950057D02*
X143642857Y-86045295D01*
X143642857Y-86045295D02*
X143642857Y-86092914D01*
X143642857Y-86092914D02*
X143595238Y-86188152D01*
X143595238Y-86188152D02*
X143547619Y-86235771D01*
X143547619Y-86235771D02*
X143452381Y-86283390D01*
X143452381Y-86283390D02*
X143261905Y-86283390D01*
X143261905Y-86283390D02*
X143166667Y-86331009D01*
X143166667Y-86331009D02*
X143119048Y-86378628D01*
X143119048Y-86378628D02*
X143071429Y-86473866D01*
X143071429Y-86473866D02*
X143071429Y-86664342D01*
X143071429Y-86664342D02*
X143119048Y-86759580D01*
X143119048Y-86759580D02*
X143166667Y-86807200D01*
X143166667Y-86807200D02*
X143261905Y-86854819D01*
X143261905Y-86854819D02*
X143452381Y-86854819D01*
X143452381Y-86854819D02*
X143547619Y-86807200D01*
X143547619Y-86807200D02*
X143595238Y-86759580D01*
X143595238Y-86759580D02*
X143642857Y-86664342D01*
X143642857Y-86664342D02*
X143642857Y-86473866D01*
X143642857Y-86473866D02*
X143595238Y-86378628D01*
X143595238Y-86378628D02*
X143547619Y-86331009D01*
X143547619Y-86331009D02*
X143452381Y-86283390D01*
X143786905Y-87239819D02*
X143786905Y-86239819D01*
X143786905Y-86239819D02*
X144025000Y-86239819D01*
X144025000Y-86239819D02*
X144167857Y-86287438D01*
X144167857Y-86287438D02*
X144263095Y-86382676D01*
X144263095Y-86382676D02*
X144310714Y-86477914D01*
X144310714Y-86477914D02*
X144358333Y-86668390D01*
X144358333Y-86668390D02*
X144358333Y-86811247D01*
X144358333Y-86811247D02*
X144310714Y-87001723D01*
X144310714Y-87001723D02*
X144263095Y-87096961D01*
X144263095Y-87096961D02*
X144167857Y-87192200D01*
X144167857Y-87192200D02*
X144025000Y-87239819D01*
X144025000Y-87239819D02*
X143786905Y-87239819D01*
X145310714Y-87239819D02*
X144739286Y-87239819D01*
X145025000Y-87239819D02*
X145025000Y-86239819D01*
X145025000Y-86239819D02*
X144929762Y-86382676D01*
X144929762Y-86382676D02*
X144834524Y-86477914D01*
X144834524Y-86477914D02*
X144739286Y-86525533D01*
X150913095Y-78969819D02*
X150913095Y-79779342D01*
X150913095Y-79779342D02*
X150960714Y-79874580D01*
X150960714Y-79874580D02*
X151008333Y-79922200D01*
X151008333Y-79922200D02*
X151103571Y-79969819D01*
X151103571Y-79969819D02*
X151294047Y-79969819D01*
X151294047Y-79969819D02*
X151389285Y-79922200D01*
X151389285Y-79922200D02*
X151436904Y-79874580D01*
X151436904Y-79874580D02*
X151484523Y-79779342D01*
X151484523Y-79779342D02*
X151484523Y-78969819D01*
X152484523Y-79969819D02*
X151913095Y-79969819D01*
X152198809Y-79969819D02*
X152198809Y-78969819D01*
X152198809Y-78969819D02*
X152103571Y-79112676D01*
X152103571Y-79112676D02*
X152008333Y-79207914D01*
X152008333Y-79207914D02*
X151913095Y-79255533D01*
X167816666Y-82124819D02*
X167816666Y-82839104D01*
X167816666Y-82839104D02*
X167769047Y-82981961D01*
X167769047Y-82981961D02*
X167673809Y-83077200D01*
X167673809Y-83077200D02*
X167530952Y-83124819D01*
X167530952Y-83124819D02*
X167435714Y-83124819D01*
X168816666Y-83124819D02*
X168245238Y-83124819D01*
X168530952Y-83124819D02*
X168530952Y-82124819D01*
X168530952Y-82124819D02*
X168435714Y-82267676D01*
X168435714Y-82267676D02*
X168340476Y-82362914D01*
X168340476Y-82362914D02*
X168245238Y-82410533D01*
X156906666Y-95724819D02*
X156906666Y-96439104D01*
X156906666Y-96439104D02*
X156859047Y-96581961D01*
X156859047Y-96581961D02*
X156763809Y-96677200D01*
X156763809Y-96677200D02*
X156620952Y-96724819D01*
X156620952Y-96724819D02*
X156525714Y-96724819D01*
X157335238Y-95820057D02*
X157382857Y-95772438D01*
X157382857Y-95772438D02*
X157478095Y-95724819D01*
X157478095Y-95724819D02*
X157716190Y-95724819D01*
X157716190Y-95724819D02*
X157811428Y-95772438D01*
X157811428Y-95772438D02*
X157859047Y-95820057D01*
X157859047Y-95820057D02*
X157906666Y-95915295D01*
X157906666Y-95915295D02*
X157906666Y-96010533D01*
X157906666Y-96010533D02*
X157859047Y-96153390D01*
X157859047Y-96153390D02*
X157287619Y-96724819D01*
X157287619Y-96724819D02*
X157906666Y-96724819D01*
X151826666Y-95284819D02*
X151826666Y-95999104D01*
X151826666Y-95999104D02*
X151779047Y-96141961D01*
X151779047Y-96141961D02*
X151683809Y-96237200D01*
X151683809Y-96237200D02*
X151540952Y-96284819D01*
X151540952Y-96284819D02*
X151445714Y-96284819D01*
X152207619Y-95284819D02*
X152826666Y-95284819D01*
X152826666Y-95284819D02*
X152493333Y-95665771D01*
X152493333Y-95665771D02*
X152636190Y-95665771D01*
X152636190Y-95665771D02*
X152731428Y-95713390D01*
X152731428Y-95713390D02*
X152779047Y-95761009D01*
X152779047Y-95761009D02*
X152826666Y-95856247D01*
X152826666Y-95856247D02*
X152826666Y-96094342D01*
X152826666Y-96094342D02*
X152779047Y-96189580D01*
X152779047Y-96189580D02*
X152731428Y-96237200D01*
X152731428Y-96237200D02*
X152636190Y-96284819D01*
X152636190Y-96284819D02*
X152350476Y-96284819D01*
X152350476Y-96284819D02*
X152255238Y-96237200D01*
X152255238Y-96237200D02*
X152207619Y-96189580D01*
X157073333Y-86804819D02*
X156740000Y-86328628D01*
X156501905Y-86804819D02*
X156501905Y-85804819D01*
X156501905Y-85804819D02*
X156882857Y-85804819D01*
X156882857Y-85804819D02*
X156978095Y-85852438D01*
X156978095Y-85852438D02*
X157025714Y-85900057D01*
X157025714Y-85900057D02*
X157073333Y-85995295D01*
X157073333Y-85995295D02*
X157073333Y-86138152D01*
X157073333Y-86138152D02*
X157025714Y-86233390D01*
X157025714Y-86233390D02*
X156978095Y-86281009D01*
X156978095Y-86281009D02*
X156882857Y-86328628D01*
X156882857Y-86328628D02*
X156501905Y-86328628D01*
X157978095Y-85804819D02*
X157501905Y-85804819D01*
X157501905Y-85804819D02*
X157454286Y-86281009D01*
X157454286Y-86281009D02*
X157501905Y-86233390D01*
X157501905Y-86233390D02*
X157597143Y-86185771D01*
X157597143Y-86185771D02*
X157835238Y-86185771D01*
X157835238Y-86185771D02*
X157930476Y-86233390D01*
X157930476Y-86233390D02*
X157978095Y-86281009D01*
X157978095Y-86281009D02*
X158025714Y-86376247D01*
X158025714Y-86376247D02*
X158025714Y-86614342D01*
X158025714Y-86614342D02*
X157978095Y-86709580D01*
X157978095Y-86709580D02*
X157930476Y-86757200D01*
X157930476Y-86757200D02*
X157835238Y-86804819D01*
X157835238Y-86804819D02*
X157597143Y-86804819D01*
X157597143Y-86804819D02*
X157501905Y-86757200D01*
X157501905Y-86757200D02*
X157454286Y-86709580D01*
X151993333Y-86804819D02*
X151660000Y-86328628D01*
X151421905Y-86804819D02*
X151421905Y-85804819D01*
X151421905Y-85804819D02*
X151802857Y-85804819D01*
X151802857Y-85804819D02*
X151898095Y-85852438D01*
X151898095Y-85852438D02*
X151945714Y-85900057D01*
X151945714Y-85900057D02*
X151993333Y-85995295D01*
X151993333Y-85995295D02*
X151993333Y-86138152D01*
X151993333Y-86138152D02*
X151945714Y-86233390D01*
X151945714Y-86233390D02*
X151898095Y-86281009D01*
X151898095Y-86281009D02*
X151802857Y-86328628D01*
X151802857Y-86328628D02*
X151421905Y-86328628D01*
X152850476Y-85804819D02*
X152660000Y-85804819D01*
X152660000Y-85804819D02*
X152564762Y-85852438D01*
X152564762Y-85852438D02*
X152517143Y-85900057D01*
X152517143Y-85900057D02*
X152421905Y-86042914D01*
X152421905Y-86042914D02*
X152374286Y-86233390D01*
X152374286Y-86233390D02*
X152374286Y-86614342D01*
X152374286Y-86614342D02*
X152421905Y-86709580D01*
X152421905Y-86709580D02*
X152469524Y-86757200D01*
X152469524Y-86757200D02*
X152564762Y-86804819D01*
X152564762Y-86804819D02*
X152755238Y-86804819D01*
X152755238Y-86804819D02*
X152850476Y-86757200D01*
X152850476Y-86757200D02*
X152898095Y-86709580D01*
X152898095Y-86709580D02*
X152945714Y-86614342D01*
X152945714Y-86614342D02*
X152945714Y-86376247D01*
X152945714Y-86376247D02*
X152898095Y-86281009D01*
X152898095Y-86281009D02*
X152850476Y-86233390D01*
X152850476Y-86233390D02*
X152755238Y-86185771D01*
X152755238Y-86185771D02*
X152564762Y-86185771D01*
X152564762Y-86185771D02*
X152469524Y-86233390D01*
X152469524Y-86233390D02*
X152421905Y-86281009D01*
X152421905Y-86281009D02*
X152374286Y-86376247D01*
X143604819Y-89066666D02*
X143128628Y-89399999D01*
X143604819Y-89638094D02*
X142604819Y-89638094D01*
X142604819Y-89638094D02*
X142604819Y-89257142D01*
X142604819Y-89257142D02*
X142652438Y-89161904D01*
X142652438Y-89161904D02*
X142700057Y-89114285D01*
X142700057Y-89114285D02*
X142795295Y-89066666D01*
X142795295Y-89066666D02*
X142938152Y-89066666D01*
X142938152Y-89066666D02*
X143033390Y-89114285D01*
X143033390Y-89114285D02*
X143081009Y-89161904D01*
X143081009Y-89161904D02*
X143128628Y-89257142D01*
X143128628Y-89257142D02*
X143128628Y-89638094D01*
X142604819Y-88733332D02*
X142604819Y-88066666D01*
X142604819Y-88066666D02*
X143604819Y-88495237D01*
X141983333Y-86804819D02*
X141650000Y-86328628D01*
X141411905Y-86804819D02*
X141411905Y-85804819D01*
X141411905Y-85804819D02*
X141792857Y-85804819D01*
X141792857Y-85804819D02*
X141888095Y-85852438D01*
X141888095Y-85852438D02*
X141935714Y-85900057D01*
X141935714Y-85900057D02*
X141983333Y-85995295D01*
X141983333Y-85995295D02*
X141983333Y-86138152D01*
X141983333Y-86138152D02*
X141935714Y-86233390D01*
X141935714Y-86233390D02*
X141888095Y-86281009D01*
X141888095Y-86281009D02*
X141792857Y-86328628D01*
X141792857Y-86328628D02*
X141411905Y-86328628D01*
X142554762Y-86233390D02*
X142459524Y-86185771D01*
X142459524Y-86185771D02*
X142411905Y-86138152D01*
X142411905Y-86138152D02*
X142364286Y-86042914D01*
X142364286Y-86042914D02*
X142364286Y-85995295D01*
X142364286Y-85995295D02*
X142411905Y-85900057D01*
X142411905Y-85900057D02*
X142459524Y-85852438D01*
X142459524Y-85852438D02*
X142554762Y-85804819D01*
X142554762Y-85804819D02*
X142745238Y-85804819D01*
X142745238Y-85804819D02*
X142840476Y-85852438D01*
X142840476Y-85852438D02*
X142888095Y-85900057D01*
X142888095Y-85900057D02*
X142935714Y-85995295D01*
X142935714Y-85995295D02*
X142935714Y-86042914D01*
X142935714Y-86042914D02*
X142888095Y-86138152D01*
X142888095Y-86138152D02*
X142840476Y-86185771D01*
X142840476Y-86185771D02*
X142745238Y-86233390D01*
X142745238Y-86233390D02*
X142554762Y-86233390D01*
X142554762Y-86233390D02*
X142459524Y-86281009D01*
X142459524Y-86281009D02*
X142411905Y-86328628D01*
X142411905Y-86328628D02*
X142364286Y-86423866D01*
X142364286Y-86423866D02*
X142364286Y-86614342D01*
X142364286Y-86614342D02*
X142411905Y-86709580D01*
X142411905Y-86709580D02*
X142459524Y-86757200D01*
X142459524Y-86757200D02*
X142554762Y-86804819D01*
X142554762Y-86804819D02*
X142745238Y-86804819D01*
X142745238Y-86804819D02*
X142840476Y-86757200D01*
X142840476Y-86757200D02*
X142888095Y-86709580D01*
X142888095Y-86709580D02*
X142935714Y-86614342D01*
X142935714Y-86614342D02*
X142935714Y-86423866D01*
X142935714Y-86423866D02*
X142888095Y-86328628D01*
X142888095Y-86328628D02*
X142840476Y-86281009D01*
X142840476Y-86281009D02*
X142745238Y-86233390D01*
D12*
%TO.C,S2*%
X165000000Y-84400000D02*
X165000000Y-90400000D01*
X159000000Y-90400000D02*
X165000000Y-90400000D01*
X159000000Y-90400000D02*
X159000000Y-84400000D01*
X159000000Y-84400000D02*
X165000000Y-84400000D01*
D13*
X168350000Y-89700000D02*
G75*
G03*
X168350000Y-89700000I-100000J0D01*
G01*
D14*
%TO.C,LED6*%
X151718250Y-86831800D02*
X152601750Y-86831800D01*
X152601750Y-85968200D02*
X151718250Y-85968200D01*
D15*
%TO.C,R1*%
X157572936Y-80265000D02*
X158027064Y-80265000D01*
X157572936Y-81735000D02*
X158027064Y-81735000D01*
D16*
%TO.C,S1*%
X167040000Y-79200000D02*
X167040000Y-79200000D01*
X167040000Y-79300000D02*
X167040000Y-79300000D01*
D13*
X169500000Y-82500000D02*
X169500000Y-92500000D01*
X168250000Y-82500000D02*
X169500000Y-82500000D01*
X160750000Y-82500000D02*
X159500000Y-82500000D01*
X159500000Y-82500000D02*
X159500000Y-92500000D01*
X169500000Y-92500000D02*
X168250000Y-92500000D01*
X159500000Y-92500000D02*
X160750000Y-92500000D01*
D16*
X167040000Y-79300000D02*
G75*
G03*
X167040000Y-79200000I0J50000D01*
G01*
X167040000Y-79200000D02*
G75*
G03*
X167040000Y-79300000I0J-50000D01*
G01*
D15*
%TO.C,J8*%
X153390000Y-92170000D02*
X148250000Y-92170000D01*
X153390000Y-92170000D02*
X153390000Y-94830000D01*
X148250000Y-92170000D02*
X148250000Y-94830000D01*
X155990000Y-93500000D02*
X155990000Y-94830000D01*
X155990000Y-94830000D02*
X154660000Y-94830000D01*
X153390000Y-94830000D02*
X148250000Y-94830000D01*
%TO.C,J7*%
X143330000Y-94830000D02*
X142000000Y-94830000D01*
X143330000Y-93500000D02*
X143330000Y-94830000D01*
X143330000Y-92230000D02*
X143330000Y-89630000D01*
X143330000Y-92230000D02*
X140670000Y-92230000D01*
X143330000Y-89630000D02*
X140670000Y-89630000D01*
X140670000Y-92230000D02*
X140670000Y-89630000D01*
%TO.C,J6*%
X145750000Y-89530000D02*
X145750000Y-92740000D01*
X145750000Y-89530000D02*
X148410000Y-89530000D01*
X145750000Y-94260000D02*
X145750000Y-94930000D01*
X145750000Y-94930000D02*
X148410000Y-94930000D01*
X148410000Y-89530000D02*
X148410000Y-90200000D01*
X148410000Y-90200000D02*
X149620000Y-90200000D01*
X148410000Y-91720000D02*
X148410000Y-94930000D01*
D14*
%TO.C,LED5*%
X157681750Y-85968200D02*
X156798250Y-85968200D01*
X156798250Y-86831800D02*
X157681750Y-86831800D01*
%TO.C,LED7*%
X146638250Y-86831800D02*
X147521750Y-86831800D01*
X147521750Y-85968200D02*
X146638250Y-85968200D01*
%TO.C,LED8*%
X141558250Y-86831800D02*
X142441750Y-86831800D01*
X142441750Y-85968200D02*
X141558250Y-85968200D01*
D12*
%TO.C,D1*%
X148950000Y-84400000D02*
X148450000Y-84400000D01*
X148950000Y-81900000D02*
X148450000Y-81900000D01*
X148700000Y-84650000D02*
X148700000Y-84150000D01*
X146125000Y-85512500D02*
X146125000Y-85245000D01*
X146125000Y-81055000D02*
X146125000Y-80787500D01*
X146125000Y-80787500D02*
X142275000Y-80787500D01*
X142275000Y-85512500D02*
X146125000Y-85512500D01*
X142275000Y-85245000D02*
X142275000Y-85512500D01*
X142275000Y-80787500D02*
X142275000Y-81055000D01*
%TO.C,U1*%
X150235000Y-80650000D02*
X153765000Y-80650000D01*
X153765000Y-85650000D02*
X150235000Y-85650000D01*
D13*
X147910000Y-80875000D02*
G75*
G03*
X147910000Y-80875000I-100000J0D01*
G01*
D15*
%TO.C,J1*%
X166820000Y-83670000D02*
X168150000Y-83670000D01*
X166820000Y-85000000D02*
X166820000Y-83670000D01*
X166820000Y-86270000D02*
X166820000Y-91410000D01*
X166820000Y-86270000D02*
X169480000Y-86270000D01*
X166820000Y-91410000D02*
X169480000Y-91410000D01*
X169480000Y-86270000D02*
X169480000Y-91410000D01*
%TO.C,J2*%
X158570000Y-92230000D02*
X158570000Y-89630000D01*
X158570000Y-92230000D02*
X155910000Y-92230000D01*
X158570000Y-89630000D02*
X155910000Y-89630000D01*
X157240000Y-94830000D02*
X155910000Y-94830000D01*
X155910000Y-94830000D02*
X155910000Y-93500000D01*
X155910000Y-92230000D02*
X155910000Y-89630000D01*
%TO.C,J3*%
X153490000Y-94830000D02*
X152160000Y-94830000D01*
X153490000Y-93500000D02*
X153490000Y-94830000D01*
X153490000Y-92230000D02*
X153490000Y-89630000D01*
X153490000Y-92230000D02*
X150830000Y-92230000D01*
X153490000Y-89630000D02*
X150830000Y-89630000D01*
X150830000Y-92230000D02*
X150830000Y-89630000D01*
%TO.C,R5*%
X157012936Y-87265000D02*
X157467064Y-87265000D01*
X157012936Y-88735000D02*
X157467064Y-88735000D01*
%TO.C,R6*%
X151932936Y-87265000D02*
X152387064Y-87265000D01*
X151932936Y-88735000D02*
X152387064Y-88735000D01*
%TO.C,R7*%
X144065000Y-89127064D02*
X144065000Y-88672936D01*
X145535000Y-89127064D02*
X145535000Y-88672936D01*
%TO.C,R8*%
X141922936Y-87265000D02*
X142377064Y-87265000D01*
X141922936Y-88735000D02*
X142377064Y-88735000D01*
%TD*%
M02*
