%TF.GenerationSoftware,KiCad,Pcbnew,7.0.9*%
%TF.CreationDate,2024-03-13T02:47:39-05:00*%
%TF.ProjectId,SWITCHES,53574954-4348-4455-932e-6b696361645f,rev?*%
%TF.SameCoordinates,Original*%
%TF.FileFunction,Legend,Bot*%
%TF.FilePolarity,Positive*%
%FSLAX46Y46*%
G04 Gerber Fmt 4.6, Leading zero omitted, Abs format (unit mm)*
G04 Created by KiCad (PCBNEW 7.0.9) date 2024-03-13 02:47:39*
%MOMM*%
%LPD*%
G01*
G04 APERTURE LIST*
%ADD10C,0.150000*%
%ADD11C,0.080000*%
%ADD12C,0.100000*%
G04 APERTURE END LIST*
D10*
X158414285Y-89424200D02*
X158328571Y-89452771D01*
X158328571Y-89452771D02*
X158185713Y-89452771D01*
X158185713Y-89452771D02*
X158128571Y-89424200D01*
X158128571Y-89424200D02*
X158099999Y-89395628D01*
X158099999Y-89395628D02*
X158071428Y-89338485D01*
X158071428Y-89338485D02*
X158071428Y-89281342D01*
X158071428Y-89281342D02*
X158099999Y-89224200D01*
X158099999Y-89224200D02*
X158128571Y-89195628D01*
X158128571Y-89195628D02*
X158185713Y-89167057D01*
X158185713Y-89167057D02*
X158299999Y-89138485D01*
X158299999Y-89138485D02*
X158357142Y-89109914D01*
X158357142Y-89109914D02*
X158385713Y-89081342D01*
X158385713Y-89081342D02*
X158414285Y-89024200D01*
X158414285Y-89024200D02*
X158414285Y-88967057D01*
X158414285Y-88967057D02*
X158385713Y-88909914D01*
X158385713Y-88909914D02*
X158357142Y-88881342D01*
X158357142Y-88881342D02*
X158299999Y-88852771D01*
X158299999Y-88852771D02*
X158157142Y-88852771D01*
X158157142Y-88852771D02*
X158071428Y-88881342D01*
X157871427Y-88852771D02*
X157728570Y-89452771D01*
X157728570Y-89452771D02*
X157614284Y-89024200D01*
X157614284Y-89024200D02*
X157499999Y-89452771D01*
X157499999Y-89452771D02*
X157357142Y-88852771D01*
X157128570Y-89452771D02*
X157128570Y-88852771D01*
X156928571Y-88852771D02*
X156585714Y-88852771D01*
X156757142Y-89452771D02*
X156757142Y-88852771D01*
X156042856Y-89395628D02*
X156071428Y-89424200D01*
X156071428Y-89424200D02*
X156157142Y-89452771D01*
X156157142Y-89452771D02*
X156214285Y-89452771D01*
X156214285Y-89452771D02*
X156299999Y-89424200D01*
X156299999Y-89424200D02*
X156357142Y-89367057D01*
X156357142Y-89367057D02*
X156385713Y-89309914D01*
X156385713Y-89309914D02*
X156414285Y-89195628D01*
X156414285Y-89195628D02*
X156414285Y-89109914D01*
X156414285Y-89109914D02*
X156385713Y-88995628D01*
X156385713Y-88995628D02*
X156357142Y-88938485D01*
X156357142Y-88938485D02*
X156299999Y-88881342D01*
X156299999Y-88881342D02*
X156214285Y-88852771D01*
X156214285Y-88852771D02*
X156157142Y-88852771D01*
X156157142Y-88852771D02*
X156071428Y-88881342D01*
X156071428Y-88881342D02*
X156042856Y-88909914D01*
X155785713Y-89452771D02*
X155785713Y-88852771D01*
X155785713Y-89138485D02*
X155442856Y-89138485D01*
X155442856Y-89452771D02*
X155442856Y-88852771D01*
X155157142Y-89138485D02*
X154957142Y-89138485D01*
X154871428Y-89452771D02*
X155157142Y-89452771D01*
X155157142Y-89452771D02*
X155157142Y-88852771D01*
X155157142Y-88852771D02*
X154871428Y-88852771D01*
X154642857Y-89424200D02*
X154557143Y-89452771D01*
X154557143Y-89452771D02*
X154414285Y-89452771D01*
X154414285Y-89452771D02*
X154357143Y-89424200D01*
X154357143Y-89424200D02*
X154328571Y-89395628D01*
X154328571Y-89395628D02*
X154300000Y-89338485D01*
X154300000Y-89338485D02*
X154300000Y-89281342D01*
X154300000Y-89281342D02*
X154328571Y-89224200D01*
X154328571Y-89224200D02*
X154357143Y-89195628D01*
X154357143Y-89195628D02*
X154414285Y-89167057D01*
X154414285Y-89167057D02*
X154528571Y-89138485D01*
X154528571Y-89138485D02*
X154585714Y-89109914D01*
X154585714Y-89109914D02*
X154614285Y-89081342D01*
X154614285Y-89081342D02*
X154642857Y-89024200D01*
X154642857Y-89024200D02*
X154642857Y-88967057D01*
X154642857Y-88967057D02*
X154614285Y-88909914D01*
X154614285Y-88909914D02*
X154585714Y-88881342D01*
X154585714Y-88881342D02*
X154528571Y-88852771D01*
X154528571Y-88852771D02*
X154385714Y-88852771D01*
X154385714Y-88852771D02*
X154300000Y-88881342D01*
X153585713Y-89452771D02*
X153585713Y-88852771D01*
X153585713Y-88852771D02*
X153357142Y-88852771D01*
X153357142Y-88852771D02*
X153299999Y-88881342D01*
X153299999Y-88881342D02*
X153271428Y-88909914D01*
X153271428Y-88909914D02*
X153242856Y-88967057D01*
X153242856Y-88967057D02*
X153242856Y-89052771D01*
X153242856Y-89052771D02*
X153271428Y-89109914D01*
X153271428Y-89109914D02*
X153299999Y-89138485D01*
X153299999Y-89138485D02*
X153357142Y-89167057D01*
X153357142Y-89167057D02*
X153585713Y-89167057D01*
X152642856Y-89395628D02*
X152671428Y-89424200D01*
X152671428Y-89424200D02*
X152757142Y-89452771D01*
X152757142Y-89452771D02*
X152814285Y-89452771D01*
X152814285Y-89452771D02*
X152899999Y-89424200D01*
X152899999Y-89424200D02*
X152957142Y-89367057D01*
X152957142Y-89367057D02*
X152985713Y-89309914D01*
X152985713Y-89309914D02*
X153014285Y-89195628D01*
X153014285Y-89195628D02*
X153014285Y-89109914D01*
X153014285Y-89109914D02*
X152985713Y-88995628D01*
X152985713Y-88995628D02*
X152957142Y-88938485D01*
X152957142Y-88938485D02*
X152899999Y-88881342D01*
X152899999Y-88881342D02*
X152814285Y-88852771D01*
X152814285Y-88852771D02*
X152757142Y-88852771D01*
X152757142Y-88852771D02*
X152671428Y-88881342D01*
X152671428Y-88881342D02*
X152642856Y-88909914D01*
X152185713Y-89138485D02*
X152099999Y-89167057D01*
X152099999Y-89167057D02*
X152071428Y-89195628D01*
X152071428Y-89195628D02*
X152042856Y-89252771D01*
X152042856Y-89252771D02*
X152042856Y-89338485D01*
X152042856Y-89338485D02*
X152071428Y-89395628D01*
X152071428Y-89395628D02*
X152099999Y-89424200D01*
X152099999Y-89424200D02*
X152157142Y-89452771D01*
X152157142Y-89452771D02*
X152385713Y-89452771D01*
X152385713Y-89452771D02*
X152385713Y-88852771D01*
X152385713Y-88852771D02*
X152185713Y-88852771D01*
X152185713Y-88852771D02*
X152128571Y-88881342D01*
X152128571Y-88881342D02*
X152099999Y-88909914D01*
X152099999Y-88909914D02*
X152071428Y-88967057D01*
X152071428Y-88967057D02*
X152071428Y-89024200D01*
X152071428Y-89024200D02*
X152099999Y-89081342D01*
X152099999Y-89081342D02*
X152128571Y-89109914D01*
X152128571Y-89109914D02*
X152185713Y-89138485D01*
X152185713Y-89138485D02*
X152385713Y-89138485D01*
X155857142Y-90418771D02*
X156057142Y-90133057D01*
X156199999Y-90418771D02*
X156199999Y-89818771D01*
X156199999Y-89818771D02*
X155971428Y-89818771D01*
X155971428Y-89818771D02*
X155914285Y-89847342D01*
X155914285Y-89847342D02*
X155885714Y-89875914D01*
X155885714Y-89875914D02*
X155857142Y-89933057D01*
X155857142Y-89933057D02*
X155857142Y-90018771D01*
X155857142Y-90018771D02*
X155885714Y-90075914D01*
X155885714Y-90075914D02*
X155914285Y-90104485D01*
X155914285Y-90104485D02*
X155971428Y-90133057D01*
X155971428Y-90133057D02*
X156199999Y-90133057D01*
X155599999Y-90104485D02*
X155399999Y-90104485D01*
X155314285Y-90418771D02*
X155599999Y-90418771D01*
X155599999Y-90418771D02*
X155599999Y-89818771D01*
X155599999Y-89818771D02*
X155314285Y-89818771D01*
X155142857Y-89818771D02*
X154942857Y-90418771D01*
X154942857Y-90418771D02*
X154742857Y-89818771D01*
X153771428Y-90418771D02*
X154114285Y-90418771D01*
X153942856Y-90418771D02*
X153942856Y-89818771D01*
X153942856Y-89818771D02*
X153999999Y-89904485D01*
X153999999Y-89904485D02*
X154057142Y-89961628D01*
X154057142Y-89961628D02*
X154114285Y-89990200D01*
D11*
X157499999Y-84329649D02*
X157499999Y-84686792D01*
X157499999Y-84686792D02*
X157523808Y-84758220D01*
X157523808Y-84758220D02*
X157571427Y-84805840D01*
X157571427Y-84805840D02*
X157642856Y-84829649D01*
X157642856Y-84829649D02*
X157690475Y-84829649D01*
X157190475Y-84829649D02*
X157238094Y-84805840D01*
X157238094Y-84805840D02*
X157261904Y-84782030D01*
X157261904Y-84782030D02*
X157285713Y-84734411D01*
X157285713Y-84734411D02*
X157285713Y-84591554D01*
X157285713Y-84591554D02*
X157261904Y-84543935D01*
X157261904Y-84543935D02*
X157238094Y-84520125D01*
X157238094Y-84520125D02*
X157190475Y-84496316D01*
X157190475Y-84496316D02*
X157119047Y-84496316D01*
X157119047Y-84496316D02*
X157071428Y-84520125D01*
X157071428Y-84520125D02*
X157047618Y-84543935D01*
X157047618Y-84543935D02*
X157023809Y-84591554D01*
X157023809Y-84591554D02*
X157023809Y-84734411D01*
X157023809Y-84734411D02*
X157047618Y-84782030D01*
X157047618Y-84782030D02*
X157071428Y-84805840D01*
X157071428Y-84805840D02*
X157119047Y-84829649D01*
X157119047Y-84829649D02*
X157190475Y-84829649D01*
X156809523Y-84496316D02*
X156809523Y-84829649D01*
X156809523Y-84543935D02*
X156785713Y-84520125D01*
X156785713Y-84520125D02*
X156738094Y-84496316D01*
X156738094Y-84496316D02*
X156666666Y-84496316D01*
X156666666Y-84496316D02*
X156619047Y-84520125D01*
X156619047Y-84520125D02*
X156595237Y-84567744D01*
X156595237Y-84567744D02*
X156595237Y-84829649D01*
X156142856Y-84829649D02*
X156142856Y-84567744D01*
X156142856Y-84567744D02*
X156166666Y-84520125D01*
X156166666Y-84520125D02*
X156214285Y-84496316D01*
X156214285Y-84496316D02*
X156309523Y-84496316D01*
X156309523Y-84496316D02*
X156357142Y-84520125D01*
X156142856Y-84805840D02*
X156190475Y-84829649D01*
X156190475Y-84829649D02*
X156309523Y-84829649D01*
X156309523Y-84829649D02*
X156357142Y-84805840D01*
X156357142Y-84805840D02*
X156380951Y-84758220D01*
X156380951Y-84758220D02*
X156380951Y-84710601D01*
X156380951Y-84710601D02*
X156357142Y-84662982D01*
X156357142Y-84662982D02*
X156309523Y-84639173D01*
X156309523Y-84639173D02*
X156190475Y-84639173D01*
X156190475Y-84639173D02*
X156142856Y-84615363D01*
X155976189Y-84496316D02*
X155785713Y-84496316D01*
X155904761Y-84329649D02*
X155904761Y-84758220D01*
X155904761Y-84758220D02*
X155880951Y-84805840D01*
X155880951Y-84805840D02*
X155833332Y-84829649D01*
X155833332Y-84829649D02*
X155785713Y-84829649D01*
X155619047Y-84829649D02*
X155619047Y-84329649D01*
X155404761Y-84829649D02*
X155404761Y-84567744D01*
X155404761Y-84567744D02*
X155428571Y-84520125D01*
X155428571Y-84520125D02*
X155476190Y-84496316D01*
X155476190Y-84496316D02*
X155547618Y-84496316D01*
X155547618Y-84496316D02*
X155595237Y-84520125D01*
X155595237Y-84520125D02*
X155619047Y-84543935D01*
X154952380Y-84829649D02*
X154952380Y-84567744D01*
X154952380Y-84567744D02*
X154976190Y-84520125D01*
X154976190Y-84520125D02*
X155023809Y-84496316D01*
X155023809Y-84496316D02*
X155119047Y-84496316D01*
X155119047Y-84496316D02*
X155166666Y-84520125D01*
X154952380Y-84805840D02*
X154999999Y-84829649D01*
X154999999Y-84829649D02*
X155119047Y-84829649D01*
X155119047Y-84829649D02*
X155166666Y-84805840D01*
X155166666Y-84805840D02*
X155190475Y-84758220D01*
X155190475Y-84758220D02*
X155190475Y-84710601D01*
X155190475Y-84710601D02*
X155166666Y-84662982D01*
X155166666Y-84662982D02*
X155119047Y-84639173D01*
X155119047Y-84639173D02*
X154999999Y-84639173D01*
X154999999Y-84639173D02*
X154952380Y-84615363D01*
X154714285Y-84496316D02*
X154714285Y-84829649D01*
X154714285Y-84543935D02*
X154690475Y-84520125D01*
X154690475Y-84520125D02*
X154642856Y-84496316D01*
X154642856Y-84496316D02*
X154571428Y-84496316D01*
X154571428Y-84496316D02*
X154523809Y-84520125D01*
X154523809Y-84520125D02*
X154499999Y-84567744D01*
X154499999Y-84567744D02*
X154499999Y-84829649D01*
X153880952Y-84829649D02*
X153880952Y-84329649D01*
X153880952Y-84567744D02*
X153595238Y-84567744D01*
X153595238Y-84829649D02*
X153595238Y-84329649D01*
X153166666Y-84805840D02*
X153214285Y-84829649D01*
X153214285Y-84829649D02*
X153309523Y-84829649D01*
X153309523Y-84829649D02*
X153357142Y-84805840D01*
X153357142Y-84805840D02*
X153380951Y-84758220D01*
X153380951Y-84758220D02*
X153380951Y-84567744D01*
X153380951Y-84567744D02*
X153357142Y-84520125D01*
X153357142Y-84520125D02*
X153309523Y-84496316D01*
X153309523Y-84496316D02*
X153214285Y-84496316D01*
X153214285Y-84496316D02*
X153166666Y-84520125D01*
X153166666Y-84520125D02*
X153142856Y-84567744D01*
X153142856Y-84567744D02*
X153142856Y-84615363D01*
X153142856Y-84615363D02*
X153380951Y-84662982D01*
X152952380Y-84805840D02*
X152904761Y-84829649D01*
X152904761Y-84829649D02*
X152809523Y-84829649D01*
X152809523Y-84829649D02*
X152761904Y-84805840D01*
X152761904Y-84805840D02*
X152738095Y-84758220D01*
X152738095Y-84758220D02*
X152738095Y-84734411D01*
X152738095Y-84734411D02*
X152761904Y-84686792D01*
X152761904Y-84686792D02*
X152809523Y-84662982D01*
X152809523Y-84662982D02*
X152880952Y-84662982D01*
X152880952Y-84662982D02*
X152928571Y-84639173D01*
X152928571Y-84639173D02*
X152952380Y-84591554D01*
X152952380Y-84591554D02*
X152952380Y-84567744D01*
X152952380Y-84567744D02*
X152928571Y-84520125D01*
X152928571Y-84520125D02*
X152880952Y-84496316D01*
X152880952Y-84496316D02*
X152809523Y-84496316D01*
X152809523Y-84496316D02*
X152761904Y-84520125D01*
X152547618Y-84805840D02*
X152499999Y-84829649D01*
X152499999Y-84829649D02*
X152404761Y-84829649D01*
X152404761Y-84829649D02*
X152357142Y-84805840D01*
X152357142Y-84805840D02*
X152333333Y-84758220D01*
X152333333Y-84758220D02*
X152333333Y-84734411D01*
X152333333Y-84734411D02*
X152357142Y-84686792D01*
X152357142Y-84686792D02*
X152404761Y-84662982D01*
X152404761Y-84662982D02*
X152476190Y-84662982D01*
X152476190Y-84662982D02*
X152523809Y-84639173D01*
X152523809Y-84639173D02*
X152547618Y-84591554D01*
X152547618Y-84591554D02*
X152547618Y-84567744D01*
X152547618Y-84567744D02*
X152523809Y-84520125D01*
X152523809Y-84520125D02*
X152476190Y-84496316D01*
X152476190Y-84496316D02*
X152404761Y-84496316D01*
X152404761Y-84496316D02*
X152357142Y-84520125D01*
X157428570Y-85825125D02*
X157452379Y-85801316D01*
X157452379Y-85801316D02*
X157499998Y-85729887D01*
X157499998Y-85729887D02*
X157523808Y-85682268D01*
X157523808Y-85682268D02*
X157547617Y-85610840D01*
X157547617Y-85610840D02*
X157571427Y-85491792D01*
X157571427Y-85491792D02*
X157571427Y-85396554D01*
X157571427Y-85396554D02*
X157547617Y-85277506D01*
X157547617Y-85277506D02*
X157523808Y-85206078D01*
X157523808Y-85206078D02*
X157499998Y-85158459D01*
X157499998Y-85158459D02*
X157452379Y-85087030D01*
X157452379Y-85087030D02*
X157428570Y-85063220D01*
X157238094Y-85301316D02*
X157238094Y-85729887D01*
X157238094Y-85729887D02*
X157261903Y-85777506D01*
X157261903Y-85777506D02*
X157309522Y-85801316D01*
X157309522Y-85801316D02*
X157333332Y-85801316D01*
X157238094Y-85134649D02*
X157261903Y-85158459D01*
X157261903Y-85158459D02*
X157238094Y-85182268D01*
X157238094Y-85182268D02*
X157214284Y-85158459D01*
X157214284Y-85158459D02*
X157238094Y-85134649D01*
X157238094Y-85134649D02*
X157238094Y-85182268D01*
X156809523Y-85610840D02*
X156857142Y-85634649D01*
X156857142Y-85634649D02*
X156952380Y-85634649D01*
X156952380Y-85634649D02*
X156999999Y-85610840D01*
X156999999Y-85610840D02*
X157023808Y-85563220D01*
X157023808Y-85563220D02*
X157023808Y-85372744D01*
X157023808Y-85372744D02*
X156999999Y-85325125D01*
X156999999Y-85325125D02*
X156952380Y-85301316D01*
X156952380Y-85301316D02*
X156857142Y-85301316D01*
X156857142Y-85301316D02*
X156809523Y-85325125D01*
X156809523Y-85325125D02*
X156785713Y-85372744D01*
X156785713Y-85372744D02*
X156785713Y-85420363D01*
X156785713Y-85420363D02*
X157023808Y-85467982D01*
X156642856Y-85301316D02*
X156452380Y-85301316D01*
X156571428Y-85134649D02*
X156571428Y-85563220D01*
X156571428Y-85563220D02*
X156547618Y-85610840D01*
X156547618Y-85610840D02*
X156499999Y-85634649D01*
X156499999Y-85634649D02*
X156452380Y-85634649D01*
X156309523Y-85610840D02*
X156261904Y-85634649D01*
X156261904Y-85634649D02*
X156166666Y-85634649D01*
X156166666Y-85634649D02*
X156119047Y-85610840D01*
X156119047Y-85610840D02*
X156095238Y-85563220D01*
X156095238Y-85563220D02*
X156095238Y-85539411D01*
X156095238Y-85539411D02*
X156119047Y-85491792D01*
X156119047Y-85491792D02*
X156166666Y-85467982D01*
X156166666Y-85467982D02*
X156238095Y-85467982D01*
X156238095Y-85467982D02*
X156285714Y-85444173D01*
X156285714Y-85444173D02*
X156309523Y-85396554D01*
X156309523Y-85396554D02*
X156309523Y-85372744D01*
X156309523Y-85372744D02*
X156285714Y-85325125D01*
X156285714Y-85325125D02*
X156238095Y-85301316D01*
X156238095Y-85301316D02*
X156166666Y-85301316D01*
X156166666Y-85301316D02*
X156119047Y-85325125D01*
X155666666Y-85634649D02*
X155666666Y-85372744D01*
X155666666Y-85372744D02*
X155690476Y-85325125D01*
X155690476Y-85325125D02*
X155738095Y-85301316D01*
X155738095Y-85301316D02*
X155833333Y-85301316D01*
X155833333Y-85301316D02*
X155880952Y-85325125D01*
X155666666Y-85610840D02*
X155714285Y-85634649D01*
X155714285Y-85634649D02*
X155833333Y-85634649D01*
X155833333Y-85634649D02*
X155880952Y-85610840D01*
X155880952Y-85610840D02*
X155904761Y-85563220D01*
X155904761Y-85563220D02*
X155904761Y-85515601D01*
X155904761Y-85515601D02*
X155880952Y-85467982D01*
X155880952Y-85467982D02*
X155833333Y-85444173D01*
X155833333Y-85444173D02*
X155714285Y-85444173D01*
X155714285Y-85444173D02*
X155666666Y-85420363D01*
X155428571Y-85634649D02*
X155428571Y-85301316D01*
X155428571Y-85348935D02*
X155404761Y-85325125D01*
X155404761Y-85325125D02*
X155357142Y-85301316D01*
X155357142Y-85301316D02*
X155285714Y-85301316D01*
X155285714Y-85301316D02*
X155238095Y-85325125D01*
X155238095Y-85325125D02*
X155214285Y-85372744D01*
X155214285Y-85372744D02*
X155214285Y-85634649D01*
X155214285Y-85372744D02*
X155190476Y-85325125D01*
X155190476Y-85325125D02*
X155142857Y-85301316D01*
X155142857Y-85301316D02*
X155071428Y-85301316D01*
X155071428Y-85301316D02*
X155023809Y-85325125D01*
X155023809Y-85325125D02*
X154999999Y-85372744D01*
X154999999Y-85372744D02*
X154999999Y-85634649D01*
X154547618Y-85634649D02*
X154547618Y-85372744D01*
X154547618Y-85372744D02*
X154571428Y-85325125D01*
X154571428Y-85325125D02*
X154619047Y-85301316D01*
X154619047Y-85301316D02*
X154714285Y-85301316D01*
X154714285Y-85301316D02*
X154761904Y-85325125D01*
X154547618Y-85610840D02*
X154595237Y-85634649D01*
X154595237Y-85634649D02*
X154714285Y-85634649D01*
X154714285Y-85634649D02*
X154761904Y-85610840D01*
X154761904Y-85610840D02*
X154785713Y-85563220D01*
X154785713Y-85563220D02*
X154785713Y-85515601D01*
X154785713Y-85515601D02*
X154761904Y-85467982D01*
X154761904Y-85467982D02*
X154714285Y-85444173D01*
X154714285Y-85444173D02*
X154595237Y-85444173D01*
X154595237Y-85444173D02*
X154547618Y-85420363D01*
X154309523Y-85587030D02*
X154285713Y-85610840D01*
X154285713Y-85610840D02*
X154309523Y-85634649D01*
X154309523Y-85634649D02*
X154333332Y-85610840D01*
X154333332Y-85610840D02*
X154309523Y-85587030D01*
X154309523Y-85587030D02*
X154309523Y-85634649D01*
X153857142Y-85610840D02*
X153904761Y-85634649D01*
X153904761Y-85634649D02*
X153999999Y-85634649D01*
X153999999Y-85634649D02*
X154047618Y-85610840D01*
X154047618Y-85610840D02*
X154071428Y-85587030D01*
X154071428Y-85587030D02*
X154095237Y-85539411D01*
X154095237Y-85539411D02*
X154095237Y-85396554D01*
X154095237Y-85396554D02*
X154071428Y-85348935D01*
X154071428Y-85348935D02*
X154047618Y-85325125D01*
X154047618Y-85325125D02*
X153999999Y-85301316D01*
X153999999Y-85301316D02*
X153904761Y-85301316D01*
X153904761Y-85301316D02*
X153857142Y-85325125D01*
X153571428Y-85634649D02*
X153619047Y-85610840D01*
X153619047Y-85610840D02*
X153642857Y-85587030D01*
X153642857Y-85587030D02*
X153666666Y-85539411D01*
X153666666Y-85539411D02*
X153666666Y-85396554D01*
X153666666Y-85396554D02*
X153642857Y-85348935D01*
X153642857Y-85348935D02*
X153619047Y-85325125D01*
X153619047Y-85325125D02*
X153571428Y-85301316D01*
X153571428Y-85301316D02*
X153500000Y-85301316D01*
X153500000Y-85301316D02*
X153452381Y-85325125D01*
X153452381Y-85325125D02*
X153428571Y-85348935D01*
X153428571Y-85348935D02*
X153404762Y-85396554D01*
X153404762Y-85396554D02*
X153404762Y-85539411D01*
X153404762Y-85539411D02*
X153428571Y-85587030D01*
X153428571Y-85587030D02*
X153452381Y-85610840D01*
X153452381Y-85610840D02*
X153500000Y-85634649D01*
X153500000Y-85634649D02*
X153571428Y-85634649D01*
X153190476Y-85634649D02*
X153190476Y-85301316D01*
X153190476Y-85348935D02*
X153166666Y-85325125D01*
X153166666Y-85325125D02*
X153119047Y-85301316D01*
X153119047Y-85301316D02*
X153047619Y-85301316D01*
X153047619Y-85301316D02*
X153000000Y-85325125D01*
X153000000Y-85325125D02*
X152976190Y-85372744D01*
X152976190Y-85372744D02*
X152976190Y-85634649D01*
X152976190Y-85372744D02*
X152952381Y-85325125D01*
X152952381Y-85325125D02*
X152904762Y-85301316D01*
X152904762Y-85301316D02*
X152833333Y-85301316D01*
X152833333Y-85301316D02*
X152785714Y-85325125D01*
X152785714Y-85325125D02*
X152761904Y-85372744D01*
X152761904Y-85372744D02*
X152761904Y-85634649D01*
X152571428Y-85825125D02*
X152547618Y-85801316D01*
X152547618Y-85801316D02*
X152499999Y-85729887D01*
X152499999Y-85729887D02*
X152476190Y-85682268D01*
X152476190Y-85682268D02*
X152452380Y-85610840D01*
X152452380Y-85610840D02*
X152428571Y-85491792D01*
X152428571Y-85491792D02*
X152428571Y-85396554D01*
X152428571Y-85396554D02*
X152452380Y-85277506D01*
X152452380Y-85277506D02*
X152476190Y-85206078D01*
X152476190Y-85206078D02*
X152499999Y-85158459D01*
X152499999Y-85158459D02*
X152547618Y-85087030D01*
X152547618Y-85087030D02*
X152571428Y-85063220D01*
D12*
X147333333Y-86457419D02*
X147333333Y-87171704D01*
X147333333Y-87171704D02*
X147380952Y-87314561D01*
X147380952Y-87314561D02*
X147476190Y-87409800D01*
X147476190Y-87409800D02*
X147619047Y-87457419D01*
X147619047Y-87457419D02*
X147714285Y-87457419D01*
X146428571Y-86790752D02*
X146428571Y-87457419D01*
X146666666Y-86409800D02*
X146904761Y-87124085D01*
X146904761Y-87124085D02*
X146285714Y-87124085D01*
X163333333Y-86457419D02*
X163333333Y-87171704D01*
X163333333Y-87171704D02*
X163380952Y-87314561D01*
X163380952Y-87314561D02*
X163476190Y-87409800D01*
X163476190Y-87409800D02*
X163619047Y-87457419D01*
X163619047Y-87457419D02*
X163714285Y-87457419D01*
X162380952Y-86457419D02*
X162857142Y-86457419D01*
X162857142Y-86457419D02*
X162904761Y-86933609D01*
X162904761Y-86933609D02*
X162857142Y-86885990D01*
X162857142Y-86885990D02*
X162761904Y-86838371D01*
X162761904Y-86838371D02*
X162523809Y-86838371D01*
X162523809Y-86838371D02*
X162428571Y-86885990D01*
X162428571Y-86885990D02*
X162380952Y-86933609D01*
X162380952Y-86933609D02*
X162333333Y-87028847D01*
X162333333Y-87028847D02*
X162333333Y-87266942D01*
X162333333Y-87266942D02*
X162380952Y-87362180D01*
X162380952Y-87362180D02*
X162428571Y-87409800D01*
X162428571Y-87409800D02*
X162523809Y-87457419D01*
X162523809Y-87457419D02*
X162761904Y-87457419D01*
X162761904Y-87457419D02*
X162857142Y-87409800D01*
X162857142Y-87409800D02*
X162904761Y-87362180D01*
%TO.C,G\u002A\u002A\u002A*%
G36*
X166305118Y-93561209D02*
G01*
X166303868Y-93562459D01*
X166302618Y-93561209D01*
X166303868Y-93559959D01*
X166305118Y-93561209D01*
G37*
G36*
X166300118Y-93558709D02*
G01*
X166298868Y-93559959D01*
X166297618Y-93558709D01*
X166298868Y-93557459D01*
X166300118Y-93558709D01*
G37*
G36*
X166177606Y-94021254D02*
G01*
X166176356Y-94022504D01*
X166175106Y-94021254D01*
X166176356Y-94020004D01*
X166177606Y-94021254D01*
G37*
G36*
X166175106Y-94233775D02*
G01*
X166173856Y-94235025D01*
X166172605Y-94233775D01*
X166173856Y-94232525D01*
X166175106Y-94233775D01*
G37*
G36*
X166165105Y-94056258D02*
G01*
X166163855Y-94057508D01*
X166162604Y-94056258D01*
X166163855Y-94055008D01*
X166165105Y-94056258D01*
G37*
G36*
X166112600Y-93766229D02*
G01*
X166111349Y-93767479D01*
X166110099Y-93766229D01*
X166111349Y-93764979D01*
X166112600Y-93766229D01*
G37*
G36*
X166087597Y-93858738D02*
G01*
X166086347Y-93859988D01*
X166085097Y-93858738D01*
X166086347Y-93857488D01*
X166087597Y-93858738D01*
G37*
G36*
X166060094Y-94181270D02*
G01*
X166058844Y-94182520D01*
X166057594Y-94181270D01*
X166058844Y-94180020D01*
X166060094Y-94181270D01*
G37*
G36*
X166060094Y-93731226D02*
G01*
X166058844Y-93732476D01*
X166057594Y-93731226D01*
X166058844Y-93729976D01*
X166060094Y-93731226D01*
G37*
G36*
X166052594Y-93726225D02*
G01*
X166051343Y-93727475D01*
X166050093Y-93726225D01*
X166051343Y-93724975D01*
X166052594Y-93726225D01*
G37*
G36*
X166042593Y-93576210D02*
G01*
X166041342Y-93577461D01*
X166040092Y-93576210D01*
X166041342Y-93574960D01*
X166042593Y-93576210D01*
G37*
G36*
X166032592Y-93641217D02*
G01*
X166031342Y-93642467D01*
X166030091Y-93641217D01*
X166031342Y-93639967D01*
X166032592Y-93641217D01*
G37*
G36*
X166010089Y-94126265D02*
G01*
X166008839Y-94127515D01*
X166007589Y-94126265D01*
X166008839Y-94125014D01*
X166010089Y-94126265D01*
G37*
G36*
X165965085Y-93523705D02*
G01*
X165963835Y-93524955D01*
X165962585Y-93523705D01*
X165963835Y-93522455D01*
X165965085Y-93523705D01*
G37*
G36*
X165955084Y-93518705D02*
G01*
X165953834Y-93519955D01*
X165952584Y-93518705D01*
X165953834Y-93517455D01*
X165955084Y-93518705D01*
G37*
G36*
X165910080Y-94036256D02*
G01*
X165908829Y-94037506D01*
X165907579Y-94036256D01*
X165908829Y-94035006D01*
X165910080Y-94036256D01*
G37*
G36*
X165910080Y-93861238D02*
G01*
X165908829Y-93862489D01*
X165907579Y-93861238D01*
X165908829Y-93859988D01*
X165910080Y-93861238D01*
G37*
G36*
X165527542Y-94301282D02*
G01*
X165526292Y-94302532D01*
X165525042Y-94301282D01*
X165526292Y-94300032D01*
X165527542Y-94301282D01*
G37*
G36*
X166192213Y-94255027D02*
G01*
X166191864Y-94258467D01*
X166190952Y-94258153D01*
X166190621Y-94257021D01*
X166190952Y-94251902D01*
X166191820Y-94251478D01*
X166192213Y-94255027D01*
G37*
G36*
X166060094Y-93914994D02*
G01*
X166059914Y-93916317D01*
X166058428Y-93916661D01*
X166058128Y-93916294D01*
X166058428Y-93913327D01*
X166059180Y-93912936D01*
X166060094Y-93914994D01*
G37*
G36*
X166017590Y-93654968D02*
G01*
X166017410Y-93656292D01*
X166015923Y-93656635D01*
X166015624Y-93656269D01*
X166015923Y-93653301D01*
X166016675Y-93652910D01*
X166017590Y-93654968D01*
G37*
G36*
X165521708Y-94303365D02*
G01*
X165522099Y-94304117D01*
X165520041Y-94305032D01*
X165518718Y-94304852D01*
X165518374Y-94303365D01*
X165518741Y-94303066D01*
X165521708Y-94303365D01*
G37*
G36*
X166353237Y-94182134D02*
G01*
X166354076Y-94183351D01*
X166353983Y-94187344D01*
X166351337Y-94189136D01*
X166349212Y-94187449D01*
X166349314Y-94183522D01*
X166350535Y-94181576D01*
X166353237Y-94182134D01*
G37*
G36*
X166236344Y-94200050D02*
G01*
X166235854Y-94200706D01*
X166232464Y-94202522D01*
X166231062Y-94202390D01*
X166230472Y-94201085D01*
X166233991Y-94199068D01*
X166235942Y-94198630D01*
X166236344Y-94200050D01*
G37*
G36*
X166088264Y-93964688D02*
G01*
X166088587Y-93965018D01*
X166089785Y-93966849D01*
X166086864Y-93966088D01*
X166084531Y-93964841D01*
X166083781Y-93962981D01*
X166084986Y-93962714D01*
X166088264Y-93964688D01*
G37*
G36*
X166125776Y-93801743D02*
G01*
X166127601Y-93805278D01*
X166127408Y-93806119D01*
X166125101Y-93806233D01*
X166124425Y-93805722D01*
X166122600Y-93802188D01*
X166122793Y-93801347D01*
X166125101Y-93801233D01*
X166125776Y-93801743D01*
G37*
G36*
X166051488Y-94175132D02*
G01*
X166053844Y-94177520D01*
X166054309Y-94178405D01*
X166054139Y-94180020D01*
X166053699Y-94179907D01*
X166051343Y-94177520D01*
X166050878Y-94176634D01*
X166051048Y-94175019D01*
X166051488Y-94175132D01*
G37*
G36*
X166035640Y-94175835D02*
G01*
X166035950Y-94178162D01*
X166033317Y-94181895D01*
X166033129Y-94182036D01*
X166029425Y-94184572D01*
X166028839Y-94183731D01*
X166030922Y-94178960D01*
X166033417Y-94175224D01*
X166035640Y-94175835D01*
G37*
G36*
X166160753Y-94045469D02*
G01*
X166158043Y-94052367D01*
X166156829Y-94054971D01*
X166153871Y-94059390D01*
X166151671Y-94060060D01*
X166151399Y-94059654D01*
X166151860Y-94055819D01*
X166154967Y-94050200D01*
X166159012Y-94044810D01*
X166161098Y-94042966D01*
X166160753Y-94045469D01*
G37*
G36*
X166027591Y-94189085D02*
G01*
X166026270Y-94190320D01*
X166021966Y-94192443D01*
X166021493Y-94192633D01*
X166016712Y-94194467D01*
X166015321Y-94194505D01*
X166016154Y-94192823D01*
X166017690Y-94191487D01*
X166021691Y-94189629D01*
X166025741Y-94188583D01*
X166027591Y-94189085D01*
G37*
G36*
X165969163Y-93525054D02*
G01*
X165973184Y-93526648D01*
X165978836Y-93529956D01*
X165980281Y-93530964D01*
X165983252Y-93533774D01*
X165982587Y-93534884D01*
X165979479Y-93533983D01*
X165975047Y-93531568D01*
X165970882Y-93528615D01*
X165968354Y-93526107D01*
X165968835Y-93525027D01*
X165969163Y-93525054D01*
G37*
G36*
X166095342Y-93970768D02*
G01*
X166099915Y-93973863D01*
X166106217Y-93978520D01*
X166110512Y-93981554D01*
X166119261Y-93986723D01*
X166126866Y-93990097D01*
X166133243Y-93992422D01*
X166140290Y-93996438D01*
X166142602Y-94000596D01*
X166142600Y-94000668D01*
X166140731Y-94001147D01*
X166136440Y-93999040D01*
X166129962Y-93996242D01*
X166122063Y-93994899D01*
X166119005Y-93994612D01*
X166111699Y-93991725D01*
X166103224Y-93985183D01*
X166099082Y-93981199D01*
X166094199Y-93975443D01*
X166092303Y-93971477D01*
X166093826Y-93969999D01*
X166095342Y-93970768D01*
G37*
G36*
X164591539Y-93663613D02*
G01*
X164593786Y-93666011D01*
X164596883Y-93672696D01*
X164598719Y-93680928D01*
X164598928Y-93688720D01*
X164597147Y-93694088D01*
X164592883Y-93696466D01*
X164586443Y-93697472D01*
X164581648Y-93696552D01*
X164575098Y-93692942D01*
X164569032Y-93687491D01*
X164564155Y-93681164D01*
X164561175Y-93674922D01*
X164560800Y-93669730D01*
X164563737Y-93666550D01*
X164566104Y-93665915D01*
X164569890Y-93666184D01*
X164571549Y-93666227D01*
X164574971Y-93663691D01*
X164577470Y-93661479D01*
X164583902Y-93660260D01*
X164591539Y-93663613D01*
G37*
G36*
X164838609Y-93611361D02*
G01*
X164838320Y-93617001D01*
X164834164Y-93624749D01*
X164832198Y-93627492D01*
X164827008Y-93632906D01*
X164822696Y-93634966D01*
X164819818Y-93634265D01*
X164814034Y-93630180D01*
X164808412Y-93623742D01*
X164804157Y-93616449D01*
X164802830Y-93611214D01*
X164809971Y-93611214D01*
X164811221Y-93612464D01*
X164812472Y-93611214D01*
X164811221Y-93609964D01*
X164809971Y-93611214D01*
X164802830Y-93611214D01*
X164802471Y-93609798D01*
X164803288Y-93604353D01*
X164806534Y-93601114D01*
X164812879Y-93600660D01*
X164822986Y-93602765D01*
X164826204Y-93603687D01*
X164834685Y-93607149D01*
X164838472Y-93611214D01*
X164838609Y-93611361D01*
G37*
G36*
X165142519Y-93630401D02*
G01*
X165144288Y-93632417D01*
X165145181Y-93633716D01*
X165150526Y-93641487D01*
X165150954Y-93643300D01*
X165152247Y-93648775D01*
X165149505Y-93654468D01*
X165145429Y-93656855D01*
X165137693Y-93656729D01*
X165128195Y-93652536D01*
X165121483Y-93646451D01*
X165120519Y-93644052D01*
X165137946Y-93644052D01*
X165140004Y-93644967D01*
X165141327Y-93644787D01*
X165141671Y-93643300D01*
X165141304Y-93643001D01*
X165138337Y-93643300D01*
X165137946Y-93644052D01*
X165120519Y-93644052D01*
X165117949Y-93637656D01*
X165118394Y-93633716D01*
X165130003Y-93633716D01*
X165131253Y-93634966D01*
X165132503Y-93633716D01*
X165131253Y-93632466D01*
X165130003Y-93633716D01*
X165118394Y-93633716D01*
X165119068Y-93627739D01*
X165119971Y-93626215D01*
X165127503Y-93626215D01*
X165128753Y-93627465D01*
X165130003Y-93626215D01*
X165128753Y-93624965D01*
X165127503Y-93626215D01*
X165119971Y-93626215D01*
X165122357Y-93622188D01*
X165127634Y-93620317D01*
X165134413Y-93623061D01*
X165137896Y-93626215D01*
X165142519Y-93630401D01*
G37*
G36*
X164742047Y-93484951D02*
G01*
X164741707Y-93495276D01*
X164741547Y-93500435D01*
X164741335Y-93511716D01*
X164741028Y-93528040D01*
X164741147Y-93552942D01*
X164741805Y-93572460D01*
X164741880Y-93574687D01*
X164743206Y-93592821D01*
X164745104Y-93606890D01*
X164747551Y-93616440D01*
X164747973Y-93617717D01*
X164748425Y-93620061D01*
X164749393Y-93625089D01*
X164749965Y-93633506D01*
X164749965Y-93644222D01*
X164733089Y-93649431D01*
X164721354Y-93652160D01*
X164706703Y-93654067D01*
X164691135Y-93654950D01*
X164676096Y-93654777D01*
X164663031Y-93653517D01*
X164653386Y-93651139D01*
X164651594Y-93650419D01*
X164633306Y-93641365D01*
X164619784Y-93631100D01*
X164611081Y-93619662D01*
X164609382Y-93615043D01*
X164607411Y-93606565D01*
X164606003Y-93596965D01*
X164605751Y-93594468D01*
X164605681Y-93593447D01*
X164642455Y-93593447D01*
X164642458Y-93594138D01*
X164643781Y-93604321D01*
X164647972Y-93611730D01*
X164655734Y-93617141D01*
X164667772Y-93621330D01*
X164669656Y-93621796D01*
X164680643Y-93623614D01*
X164692836Y-93624531D01*
X164704214Y-93624458D01*
X164712752Y-93623306D01*
X164714691Y-93622389D01*
X164715580Y-93620061D01*
X164715154Y-93615229D01*
X164713465Y-93606720D01*
X164712100Y-93599510D01*
X164710648Y-93589215D01*
X164710049Y-93581086D01*
X164709980Y-93579144D01*
X164708904Y-93572247D01*
X164708411Y-93571160D01*
X164727997Y-93571160D01*
X164728297Y-93574127D01*
X164729049Y-93574518D01*
X164729963Y-93572460D01*
X164729783Y-93571136D01*
X164728297Y-93570793D01*
X164727997Y-93571160D01*
X164708411Y-93571160D01*
X164706961Y-93567960D01*
X164705973Y-93567283D01*
X164700306Y-93565791D01*
X164691785Y-93565096D01*
X164681971Y-93565204D01*
X164672424Y-93566117D01*
X164664705Y-93567842D01*
X164656801Y-93571226D01*
X164649330Y-93575513D01*
X164647628Y-93576760D01*
X164644293Y-93580349D01*
X164642799Y-93585310D01*
X164642455Y-93593447D01*
X164605681Y-93593447D01*
X164605204Y-93586488D01*
X164605823Y-93581234D01*
X164608067Y-93576894D01*
X164612391Y-93571661D01*
X164614794Y-93569080D01*
X164621288Y-93563173D01*
X164626884Y-93559355D01*
X164631520Y-93556412D01*
X164634324Y-93553168D01*
X164633280Y-93550009D01*
X164629510Y-93544491D01*
X164623835Y-93537856D01*
X164621028Y-93534812D01*
X164616155Y-93528843D01*
X164613129Y-93523183D01*
X164611161Y-93516072D01*
X164609553Y-93506291D01*
X164637005Y-93506291D01*
X164637302Y-93511066D01*
X164639049Y-93515505D01*
X164642663Y-93520789D01*
X164647317Y-93524881D01*
X164647645Y-93525045D01*
X164654088Y-93526539D01*
X164664291Y-93527114D01*
X164677192Y-93526792D01*
X164691728Y-93525599D01*
X164706836Y-93523557D01*
X164708943Y-93523185D01*
X164713014Y-93521702D01*
X164714651Y-93518409D01*
X164714944Y-93511716D01*
X164714776Y-93505411D01*
X164714194Y-93495070D01*
X164713345Y-93484458D01*
X164713232Y-93483291D01*
X164732786Y-93483291D01*
X164733199Y-93490577D01*
X164733589Y-93491844D01*
X164734088Y-93490359D01*
X164734283Y-93484951D01*
X164734210Y-93481282D01*
X164733818Y-93478141D01*
X164733199Y-93479326D01*
X164732786Y-93483291D01*
X164713232Y-93483291D01*
X164712897Y-93479843D01*
X164711897Y-93472731D01*
X164710257Y-93468604D01*
X164707228Y-93466094D01*
X164702061Y-93463831D01*
X164692629Y-93460984D01*
X164679232Y-93460398D01*
X164664405Y-93463848D01*
X164663511Y-93464157D01*
X164654559Y-93468158D01*
X164648327Y-93473490D01*
X164643793Y-93481372D01*
X164639935Y-93493023D01*
X164638222Y-93499539D01*
X164637005Y-93506291D01*
X164609553Y-93506291D01*
X164609464Y-93505749D01*
X164608818Y-93501188D01*
X164607857Y-93492035D01*
X164608030Y-93484862D01*
X164609504Y-93477556D01*
X164612446Y-93468001D01*
X164613824Y-93463942D01*
X164617743Y-93454537D01*
X164622178Y-93447842D01*
X164628138Y-93442198D01*
X164629852Y-93440924D01*
X164732857Y-93440924D01*
X164733453Y-93444270D01*
X164734307Y-93444232D01*
X164734767Y-93440989D01*
X164734366Y-93438531D01*
X164733256Y-93439478D01*
X164732857Y-93440924D01*
X164629852Y-93440924D01*
X164631100Y-93439996D01*
X164639480Y-93434998D01*
X164647082Y-93431872D01*
X164650967Y-93431197D01*
X164659738Y-93430456D01*
X164671338Y-93429963D01*
X164684649Y-93429715D01*
X164698553Y-93429711D01*
X164711934Y-93429948D01*
X164723672Y-93430423D01*
X164732651Y-93431134D01*
X164737752Y-93432078D01*
X164743715Y-93434343D01*
X164743496Y-93440989D01*
X164742047Y-93484951D01*
G37*
G36*
X165054830Y-93456766D02*
G01*
X165052847Y-93468700D01*
X165052812Y-93468909D01*
X165050053Y-93479908D01*
X165045118Y-93497104D01*
X165040808Y-93516205D01*
X165039680Y-93521205D01*
X165038424Y-93526770D01*
X165033319Y-93557988D01*
X165033055Y-93560566D01*
X165030176Y-93588712D01*
X165029788Y-93594718D01*
X165029104Y-93607806D01*
X165028732Y-93619011D01*
X165028702Y-93627299D01*
X165029040Y-93631636D01*
X165029192Y-93632250D01*
X165028865Y-93636317D01*
X165024605Y-93638171D01*
X165024408Y-93638208D01*
X165015880Y-93639317D01*
X165006484Y-93639401D01*
X164994890Y-93638403D01*
X164979770Y-93636266D01*
X164973126Y-93635204D01*
X164957689Y-93632481D01*
X164945817Y-93629777D01*
X164936479Y-93626706D01*
X164928642Y-93622882D01*
X164921274Y-93617920D01*
X164913342Y-93611434D01*
X164911867Y-93610144D01*
X164906018Y-93604094D01*
X164902866Y-93597941D01*
X164901114Y-93589343D01*
X164900119Y-93580901D01*
X164899966Y-93574062D01*
X164932483Y-93574062D01*
X164932670Y-93586409D01*
X164933404Y-93594656D01*
X164934944Y-93599537D01*
X164937548Y-93601867D01*
X164941475Y-93602463D01*
X164944669Y-93602829D01*
X164952118Y-93604642D01*
X164960584Y-93607462D01*
X164965543Y-93609118D01*
X164975687Y-93611519D01*
X164984363Y-93612463D01*
X164994990Y-93612464D01*
X164994990Y-93597811D01*
X164995084Y-93592090D01*
X164995643Y-93581099D01*
X164996538Y-93571862D01*
X164998086Y-93560566D01*
X164981310Y-93552307D01*
X164975827Y-93549746D01*
X164963265Y-93545340D01*
X164951971Y-93543865D01*
X164949909Y-93543858D01*
X164942301Y-93544613D01*
X164937255Y-93547236D01*
X164934271Y-93552501D01*
X164933663Y-93556208D01*
X164932847Y-93561185D01*
X164932483Y-93574062D01*
X164899966Y-93574062D01*
X164899760Y-93564852D01*
X164901341Y-93556208D01*
X164922482Y-93556208D01*
X164923732Y-93557459D01*
X164924983Y-93556208D01*
X164923732Y-93554958D01*
X164922482Y-93556208D01*
X164901341Y-93556208D01*
X164902183Y-93551601D01*
X164907671Y-93540043D01*
X164916506Y-93529071D01*
X164924056Y-93521205D01*
X165007491Y-93521205D01*
X165008741Y-93522455D01*
X165009991Y-93521205D01*
X165008741Y-93519955D01*
X165007491Y-93521205D01*
X164924056Y-93521205D01*
X164928154Y-93516936D01*
X164927805Y-93516205D01*
X164937484Y-93516205D01*
X164938734Y-93517455D01*
X164939984Y-93516205D01*
X164938734Y-93514954D01*
X164937484Y-93516205D01*
X164927805Y-93516205D01*
X164921122Y-93502221D01*
X164920508Y-93500935D01*
X164917006Y-93493011D01*
X164915450Y-93487037D01*
X164915535Y-93480803D01*
X164916954Y-93472101D01*
X164917790Y-93468650D01*
X164928017Y-93468650D01*
X164928316Y-93471617D01*
X164929068Y-93472008D01*
X164929983Y-93469950D01*
X164929803Y-93468626D01*
X164928316Y-93468283D01*
X164928017Y-93468650D01*
X164917790Y-93468650D01*
X164918519Y-93465642D01*
X164941914Y-93465642D01*
X164942814Y-93469950D01*
X164943631Y-93473859D01*
X164948028Y-93481006D01*
X164954684Y-93487893D01*
X164961976Y-93492972D01*
X164968390Y-93494952D01*
X164972005Y-93495412D01*
X164979490Y-93497229D01*
X164988138Y-93499953D01*
X164994646Y-93502124D01*
X165001659Y-93504165D01*
X165005684Y-93504953D01*
X165006810Y-93503913D01*
X165009313Y-93499093D01*
X165012449Y-93491395D01*
X165015811Y-93481978D01*
X165018993Y-93472005D01*
X165019908Y-93468700D01*
X165039994Y-93468700D01*
X165041244Y-93469950D01*
X165042494Y-93468700D01*
X165041244Y-93467450D01*
X165039994Y-93468700D01*
X165019908Y-93468700D01*
X165021586Y-93462637D01*
X165023184Y-93455034D01*
X165023220Y-93454510D01*
X165021226Y-93451655D01*
X165015171Y-93449620D01*
X165004755Y-93448338D01*
X164989676Y-93447744D01*
X164984340Y-93447711D01*
X164972007Y-93448104D01*
X164962828Y-93449123D01*
X164957415Y-93450679D01*
X164956379Y-93452679D01*
X164955537Y-93454564D01*
X164951272Y-93456413D01*
X164944590Y-93459761D01*
X164943936Y-93461199D01*
X164941914Y-93465642D01*
X164918519Y-93465642D01*
X164919009Y-93463619D01*
X164920124Y-93461199D01*
X164929983Y-93461199D01*
X164931233Y-93462449D01*
X164932483Y-93461199D01*
X164931233Y-93459949D01*
X164929983Y-93461199D01*
X164920124Y-93461199D01*
X164923759Y-93453306D01*
X164931175Y-93445351D01*
X164942035Y-93439007D01*
X164957117Y-93433527D01*
X164960440Y-93432711D01*
X164970659Y-93431275D01*
X164983732Y-93430356D01*
X164998354Y-93429955D01*
X165013221Y-93430070D01*
X165027028Y-93430704D01*
X165038471Y-93431854D01*
X165046245Y-93433522D01*
X165056246Y-93437024D01*
X165055330Y-93451569D01*
X165055047Y-93454510D01*
X165054830Y-93456766D01*
G37*
G36*
X165290308Y-93500537D02*
G01*
X165282638Y-93514417D01*
X165272729Y-93530528D01*
X165269855Y-93535151D01*
X165265452Y-93543006D01*
X165262896Y-93548723D01*
X165262669Y-93551303D01*
X165263289Y-93551608D01*
X165267217Y-93551393D01*
X165267222Y-93551390D01*
X165270068Y-93552009D01*
X165276432Y-93554459D01*
X165285386Y-93558303D01*
X165296000Y-93563104D01*
X165307056Y-93568293D01*
X165307344Y-93568428D01*
X165318489Y-93573837D01*
X165328506Y-93578896D01*
X165336464Y-93583169D01*
X165339093Y-93584782D01*
X165341423Y-93586211D01*
X165341434Y-93586218D01*
X165341621Y-93586353D01*
X165343751Y-93587604D01*
X165345553Y-93587437D01*
X165347417Y-93585188D01*
X165349732Y-93580195D01*
X165352888Y-93571797D01*
X165357276Y-93559330D01*
X165358428Y-93556208D01*
X165387528Y-93556208D01*
X165388778Y-93557459D01*
X165390028Y-93556208D01*
X165388778Y-93554958D01*
X165387528Y-93556208D01*
X165358428Y-93556208D01*
X165361214Y-93548657D01*
X165390563Y-93548657D01*
X165390862Y-93551625D01*
X165391614Y-93552016D01*
X165392529Y-93549958D01*
X165392348Y-93548634D01*
X165390862Y-93548291D01*
X165390563Y-93548657D01*
X165361214Y-93548657D01*
X165361966Y-93546619D01*
X165366938Y-93534383D01*
X165370624Y-93526205D01*
X165400029Y-93526205D01*
X165401280Y-93527456D01*
X165402530Y-93526205D01*
X165401280Y-93524955D01*
X165400029Y-93526205D01*
X165370624Y-93526205D01*
X165371562Y-93524125D01*
X165373790Y-93519955D01*
X165401280Y-93519955D01*
X165401793Y-93520703D01*
X165403927Y-93522455D01*
X165404177Y-93522390D01*
X165405030Y-93519955D01*
X165404928Y-93519270D01*
X165402382Y-93517455D01*
X165401478Y-93517651D01*
X165401280Y-93519955D01*
X165373790Y-93519955D01*
X165375243Y-93517236D01*
X165377377Y-93513704D01*
X165387528Y-93513704D01*
X165388778Y-93514954D01*
X165390028Y-93513704D01*
X165388778Y-93512454D01*
X165387528Y-93513704D01*
X165377377Y-93513704D01*
X165378034Y-93512617D01*
X165381268Y-93506471D01*
X165382528Y-93502859D01*
X165382555Y-93501527D01*
X165383152Y-93500378D01*
X165385305Y-93500645D01*
X165390012Y-93502543D01*
X165398272Y-93506293D01*
X165404793Y-93509444D01*
X165409815Y-93512807D01*
X165410413Y-93513704D01*
X165412390Y-93516671D01*
X165413186Y-93519955D01*
X165413758Y-93522318D01*
X165414048Y-93526205D01*
X165414252Y-93528930D01*
X165411688Y-93539169D01*
X165410424Y-93541750D01*
X165406858Y-93549958D01*
X165406510Y-93550759D01*
X165404351Y-93556208D01*
X165401906Y-93562379D01*
X165397042Y-93575404D01*
X165392352Y-93588627D01*
X165388266Y-93600843D01*
X165385219Y-93610847D01*
X165383641Y-93617431D01*
X165383329Y-93619267D01*
X165381040Y-93629392D01*
X165378211Y-93638684D01*
X165377180Y-93641852D01*
X165376109Y-93646009D01*
X165374684Y-93651539D01*
X165372013Y-93663957D01*
X165369443Y-93677588D01*
X165367817Y-93687471D01*
X165367250Y-93690917D01*
X165365920Y-93700868D01*
X165365712Y-93702426D01*
X165365222Y-93709030D01*
X165365105Y-93710599D01*
X165365101Y-93710988D01*
X165364631Y-93716953D01*
X165362675Y-93719458D01*
X165358150Y-93719959D01*
X165351550Y-93718945D01*
X165344113Y-93716209D01*
X165340587Y-93714409D01*
X165336402Y-93712815D01*
X165335169Y-93714048D01*
X165335957Y-93718353D01*
X165336522Y-93722444D01*
X165335811Y-93725854D01*
X165333015Y-93727404D01*
X165329779Y-93725575D01*
X165327103Y-93719977D01*
X165325039Y-93711298D01*
X165323946Y-93702637D01*
X165345043Y-93702637D01*
X165347205Y-93705598D01*
X165347985Y-93706566D01*
X165351308Y-93709778D01*
X165352525Y-93709030D01*
X165351612Y-93707738D01*
X165348149Y-93704654D01*
X165346338Y-93703257D01*
X165345043Y-93702637D01*
X165323946Y-93702637D01*
X165323641Y-93700225D01*
X165323429Y-93696222D01*
X165332523Y-93696222D01*
X165333057Y-93700331D01*
X165334676Y-93702473D01*
X165335806Y-93700868D01*
X165335635Y-93696222D01*
X165334606Y-93692095D01*
X165333481Y-93689972D01*
X165332852Y-93691518D01*
X165332523Y-93696222D01*
X165323429Y-93696222D01*
X165322966Y-93687471D01*
X165352525Y-93687471D01*
X165352597Y-93688069D01*
X165355025Y-93689972D01*
X165355623Y-93689899D01*
X165357525Y-93687471D01*
X165357453Y-93686874D01*
X165355025Y-93684971D01*
X165354427Y-93685044D01*
X165352525Y-93687471D01*
X165322966Y-93687471D01*
X165322965Y-93687447D01*
X165323063Y-93673651D01*
X165323989Y-93659526D01*
X165325773Y-93645944D01*
X165335416Y-93645944D01*
X165336013Y-93649291D01*
X165336866Y-93649252D01*
X165337326Y-93646009D01*
X165336925Y-93643551D01*
X165335815Y-93644498D01*
X165335416Y-93645944D01*
X165325773Y-93645944D01*
X165325797Y-93645758D01*
X165328542Y-93633036D01*
X165332099Y-93619855D01*
X165324185Y-93616493D01*
X165322687Y-93615784D01*
X165316391Y-93612339D01*
X165307272Y-93606985D01*
X165296309Y-93600307D01*
X165284485Y-93592886D01*
X165278654Y-93589214D01*
X165273716Y-93586211D01*
X165325022Y-93586211D01*
X165326272Y-93587462D01*
X165327522Y-93586211D01*
X165326272Y-93584961D01*
X165325022Y-93586211D01*
X165273716Y-93586211D01*
X165268252Y-93582888D01*
X165259782Y-93578033D01*
X165259012Y-93577639D01*
X165308698Y-93577639D01*
X165308879Y-93578723D01*
X165312521Y-93581211D01*
X165317431Y-93583636D01*
X165321272Y-93584784D01*
X165321344Y-93584782D01*
X165321163Y-93583699D01*
X165317521Y-93581211D01*
X165312611Y-93578786D01*
X165308770Y-93577638D01*
X165308698Y-93577639D01*
X165259012Y-93577639D01*
X165253995Y-93575072D01*
X165251642Y-93574426D01*
X165251083Y-93576284D01*
X165250026Y-93582051D01*
X165248934Y-93589962D01*
X165248495Y-93593504D01*
X165246618Y-93608657D01*
X165243956Y-93628329D01*
X165241577Y-93643555D01*
X165239428Y-93654639D01*
X165237456Y-93661885D01*
X165235606Y-93665594D01*
X165233600Y-93668558D01*
X165234626Y-93669970D01*
X165237191Y-93670814D01*
X165237482Y-93673533D01*
X165235073Y-93676701D01*
X165230638Y-93678824D01*
X165225187Y-93680321D01*
X165219285Y-93682707D01*
X165216289Y-93683862D01*
X165211772Y-93683073D01*
X165210011Y-93678660D01*
X165209726Y-93677378D01*
X165207064Y-93672515D01*
X165202510Y-93666601D01*
X165201131Y-93664997D01*
X165196204Y-93658047D01*
X165195413Y-93653865D01*
X165198760Y-93652468D01*
X165201111Y-93651368D01*
X165202510Y-93646717D01*
X165203070Y-93642765D01*
X165205401Y-93638075D01*
X165205867Y-93637374D01*
X165207205Y-93632092D01*
X165208146Y-93622917D01*
X165208590Y-93610698D01*
X165208639Y-93607320D01*
X165208982Y-93596873D01*
X165209345Y-93593439D01*
X165212904Y-93593439D01*
X165213501Y-93596785D01*
X165214354Y-93596747D01*
X165214814Y-93593504D01*
X165214413Y-93591046D01*
X165213303Y-93591993D01*
X165212904Y-93593439D01*
X165209345Y-93593439D01*
X165209665Y-93590412D01*
X165210819Y-93587127D01*
X165212574Y-93586211D01*
X165216010Y-93585434D01*
X165219012Y-93581272D01*
X165219973Y-93572997D01*
X165220516Y-93569045D01*
X165252957Y-93569045D01*
X165255015Y-93569960D01*
X165256339Y-93569779D01*
X165256682Y-93568293D01*
X165256315Y-93567994D01*
X165253348Y-93568293D01*
X165252957Y-93569045D01*
X165220516Y-93569045D01*
X165220966Y-93565773D01*
X165223473Y-93559246D01*
X165225008Y-93555863D01*
X165227637Y-93548237D01*
X165230691Y-93538001D01*
X165233777Y-93526412D01*
X165236124Y-93517344D01*
X165239297Y-93505890D01*
X165242145Y-93496438D01*
X165243978Y-93491202D01*
X165262516Y-93491202D01*
X165263766Y-93492452D01*
X165265016Y-93491202D01*
X165263766Y-93489952D01*
X165262516Y-93491202D01*
X165243978Y-93491202D01*
X165244252Y-93490420D01*
X165245956Y-93485927D01*
X165246456Y-93481927D01*
X165244595Y-93479692D01*
X165242882Y-93478074D01*
X165243958Y-93475006D01*
X165244652Y-93474467D01*
X165249192Y-93473929D01*
X165257119Y-93476061D01*
X165258436Y-93476499D01*
X165270359Y-93478641D01*
X165282412Y-93478130D01*
X165292370Y-93475030D01*
X165296329Y-93473702D01*
X165298747Y-93475472D01*
X165298475Y-93480747D01*
X165295624Y-93489208D01*
X165294688Y-93491202D01*
X165290308Y-93500537D01*
G37*
G36*
X166245478Y-94191134D02*
G01*
X166233694Y-94195236D01*
X166231555Y-94195907D01*
X166223192Y-94198844D01*
X166217324Y-94201415D01*
X166215110Y-94203128D01*
X166215228Y-94203755D01*
X166217348Y-94203934D01*
X166218634Y-94203730D01*
X166220989Y-94206207D01*
X166221396Y-94208070D01*
X166220260Y-94211180D01*
X166218474Y-94213329D01*
X166215222Y-94218503D01*
X166211659Y-94224844D01*
X166208788Y-94230558D01*
X166207609Y-94233852D01*
X166208685Y-94234949D01*
X166212891Y-94233735D01*
X166219665Y-94229983D01*
X166228356Y-94224138D01*
X166238310Y-94216645D01*
X166248876Y-94207949D01*
X166259399Y-94198498D01*
X166266028Y-94193614D01*
X166273024Y-94191642D01*
X166278455Y-94193682D01*
X166281557Y-94199693D01*
X166283131Y-94205146D01*
X166286204Y-94212523D01*
X166287449Y-94215152D01*
X166290514Y-94222707D01*
X166293550Y-94231275D01*
X166298922Y-94243504D01*
X166307171Y-94255892D01*
X166316873Y-94266047D01*
X166326933Y-94272611D01*
X166337497Y-94277229D01*
X166350522Y-94268269D01*
X166352081Y-94267224D01*
X166363677Y-94261048D01*
X166374154Y-94258114D01*
X166377380Y-94257619D01*
X166381733Y-94256240D01*
X166386387Y-94253561D01*
X166392134Y-94249008D01*
X166399766Y-94242005D01*
X166410073Y-94231974D01*
X166412332Y-94229736D01*
X166421999Y-94219882D01*
X166430671Y-94210629D01*
X166437476Y-94202930D01*
X166441539Y-94197733D01*
X166443191Y-94195436D01*
X166450052Y-94187743D01*
X166457621Y-94181102D01*
X166460773Y-94178601D01*
X166466244Y-94173302D01*
X166469100Y-94169115D01*
X166469495Y-94167993D01*
X166471237Y-94165873D01*
X166474269Y-94168081D01*
X166475179Y-94169162D01*
X166476008Y-94171806D01*
X166475348Y-94175947D01*
X166472968Y-94182589D01*
X166468642Y-94192731D01*
X166466594Y-94197270D01*
X166462221Y-94206232D01*
X166458484Y-94212962D01*
X166456025Y-94216268D01*
X166454263Y-94218916D01*
X166451928Y-94225371D01*
X166449968Y-94233775D01*
X166448483Y-94240202D01*
X166445083Y-94250264D01*
X166441207Y-94258099D01*
X166439596Y-94260660D01*
X166436401Y-94266441D01*
X166435131Y-94269904D01*
X166434498Y-94272432D01*
X166432281Y-94278446D01*
X166429019Y-94286207D01*
X166426754Y-94290626D01*
X166421287Y-94298971D01*
X166413155Y-94309495D01*
X166402032Y-94322613D01*
X166387591Y-94338738D01*
X166387382Y-94338966D01*
X166374660Y-94352856D01*
X166364602Y-94363619D01*
X166356536Y-94371837D01*
X166349792Y-94378092D01*
X166343700Y-94382966D01*
X166337587Y-94387041D01*
X166330784Y-94390899D01*
X166322620Y-94395123D01*
X166313971Y-94399648D01*
X166302458Y-94405966D01*
X166292617Y-94411659D01*
X166280122Y-94418435D01*
X166255423Y-94428523D01*
X166226298Y-94436823D01*
X166192607Y-94443377D01*
X166187729Y-94443892D01*
X166177475Y-94444394D01*
X166164387Y-94444646D01*
X166149726Y-94444660D01*
X166134753Y-94444446D01*
X166120730Y-94444017D01*
X166108917Y-94443382D01*
X166100577Y-94442554D01*
X166092174Y-94441363D01*
X166081270Y-94439957D01*
X166072596Y-94438987D01*
X166068438Y-94438371D01*
X166057361Y-94435699D01*
X166043439Y-94431450D01*
X166027765Y-94426043D01*
X166011431Y-94419898D01*
X165995528Y-94413432D01*
X165981150Y-94407066D01*
X165969388Y-94401217D01*
X165961335Y-94396306D01*
X165960606Y-94395777D01*
X165952819Y-94390692D01*
X165944626Y-94386032D01*
X165944298Y-94385860D01*
X165937660Y-94381606D01*
X165929274Y-94375264D01*
X165920873Y-94368139D01*
X165914119Y-94362185D01*
X165903954Y-94353494D01*
X165892552Y-94343949D01*
X165881340Y-94334755D01*
X165871382Y-94326334D01*
X165861145Y-94316978D01*
X165852495Y-94308370D01*
X165846630Y-94301651D01*
X165844582Y-94298771D01*
X165839434Y-94290526D01*
X165833804Y-94280481D01*
X165828192Y-94269656D01*
X165823097Y-94259071D01*
X165819019Y-94249746D01*
X165816458Y-94242701D01*
X165815915Y-94238958D01*
X165816029Y-94238345D01*
X165815382Y-94233672D01*
X165813306Y-94227156D01*
X165812734Y-94225628D01*
X165810832Y-94219051D01*
X165810409Y-94214655D01*
X165810445Y-94214417D01*
X165809621Y-94209791D01*
X165807032Y-94203667D01*
X165804270Y-94197981D01*
X165799964Y-94187330D01*
X165796216Y-94176137D01*
X165793570Y-94166083D01*
X165792568Y-94158846D01*
X165792009Y-94153313D01*
X165790305Y-94144452D01*
X165787856Y-94134774D01*
X165785680Y-94126465D01*
X165783083Y-94114733D01*
X165781367Y-94104779D01*
X165780516Y-94099684D01*
X165778378Y-94091312D01*
X165775975Y-94085565D01*
X165773946Y-94081130D01*
X165773865Y-94077430D01*
X165776451Y-94076154D01*
X165781692Y-94076610D01*
X165787242Y-94078710D01*
X165790961Y-94081895D01*
X165792678Y-94084316D01*
X165797319Y-94089664D01*
X165803245Y-94095784D01*
X165809303Y-94101549D01*
X165814340Y-94105834D01*
X165817203Y-94107513D01*
X165817554Y-94107567D01*
X165820991Y-94109829D01*
X165825495Y-94114388D01*
X165826509Y-94115478D01*
X165832465Y-94120385D01*
X165840108Y-94125362D01*
X165847608Y-94129302D01*
X165853137Y-94131100D01*
X165853845Y-94131409D01*
X165857383Y-94134314D01*
X165862242Y-94139249D01*
X165864925Y-94141936D01*
X165872136Y-94147999D01*
X165880658Y-94154181D01*
X165889212Y-94159640D01*
X165896521Y-94163533D01*
X165901308Y-94165018D01*
X165902419Y-94165139D01*
X165907955Y-94166835D01*
X165914844Y-94169898D01*
X165916812Y-94170851D01*
X165926266Y-94174667D01*
X165935821Y-94177652D01*
X165939506Y-94178684D01*
X165944945Y-94181194D01*
X165945918Y-94183951D01*
X165945818Y-94184692D01*
X165947704Y-94188908D01*
X165952315Y-94194665D01*
X165958561Y-94200934D01*
X165965350Y-94206686D01*
X165971592Y-94210892D01*
X165976197Y-94212523D01*
X165980207Y-94213242D01*
X165985044Y-94216222D01*
X165988798Y-94219584D01*
X165994726Y-94223380D01*
X165997783Y-94225017D01*
X166005240Y-94229135D01*
X166013398Y-94233749D01*
X166019032Y-94236746D01*
X166024907Y-94238782D01*
X166028169Y-94237948D01*
X166029509Y-94235611D01*
X166027749Y-94231465D01*
X166026233Y-94228903D01*
X166025746Y-94224483D01*
X166025977Y-94221217D01*
X166024724Y-94215464D01*
X166023958Y-94212024D01*
X166025322Y-94207675D01*
X166030083Y-94202146D01*
X166031899Y-94200266D01*
X166035968Y-94195446D01*
X166037592Y-94192497D01*
X166039475Y-94189619D01*
X166045287Y-94189280D01*
X166054781Y-94191623D01*
X166067702Y-94196616D01*
X166071106Y-94198070D01*
X166092740Y-94206107D01*
X166111748Y-94210828D01*
X166128914Y-94212434D01*
X166131314Y-94212463D01*
X166136529Y-94212858D01*
X166140868Y-94214229D01*
X166145422Y-94217227D01*
X166151283Y-94222503D01*
X166159542Y-94230709D01*
X166165824Y-94237131D01*
X166171956Y-94243932D01*
X166175529Y-94249030D01*
X166177195Y-94253412D01*
X166177606Y-94258064D01*
X166177584Y-94259360D01*
X166176831Y-94265435D01*
X166175340Y-94268634D01*
X166174288Y-94270221D01*
X166174308Y-94274750D01*
X166174532Y-94277656D01*
X166172823Y-94281145D01*
X166171665Y-94281607D01*
X166170105Y-94280177D01*
X166170027Y-94279462D01*
X166168010Y-94277529D01*
X166167713Y-94277617D01*
X166166321Y-94280566D01*
X166165581Y-94286403D01*
X166165548Y-94287138D01*
X166164742Y-94293870D01*
X166163396Y-94298274D01*
X166163269Y-94298503D01*
X166162151Y-94302925D01*
X166161328Y-94310290D01*
X166160824Y-94319277D01*
X166160666Y-94328566D01*
X166160877Y-94336836D01*
X166161483Y-94342766D01*
X166162509Y-94345036D01*
X166164057Y-94346071D01*
X166165105Y-94350245D01*
X166165707Y-94353251D01*
X166168179Y-94354429D01*
X166168794Y-94354037D01*
X166170944Y-94349937D01*
X166172827Y-94342794D01*
X166174237Y-94334141D01*
X166174967Y-94325512D01*
X166174810Y-94318440D01*
X166173561Y-94314457D01*
X166172733Y-94313287D01*
X166172386Y-94309853D01*
X166174025Y-94304146D01*
X166177884Y-94295125D01*
X166178121Y-94294609D01*
X166182000Y-94286511D01*
X166185207Y-94280422D01*
X166187069Y-94277623D01*
X166187189Y-94277530D01*
X166190698Y-94272982D01*
X166193787Y-94266433D01*
X166195124Y-94260687D01*
X166195141Y-94260308D01*
X166196731Y-94255049D01*
X166200108Y-94248777D01*
X166200187Y-94248658D01*
X166204285Y-94239354D01*
X166204537Y-94230603D01*
X166200902Y-94223675D01*
X166199050Y-94221917D01*
X166196362Y-94220840D01*
X166193751Y-94223497D01*
X166189387Y-94226332D01*
X166182226Y-94227525D01*
X166181360Y-94227512D01*
X166175570Y-94226435D01*
X166169861Y-94223018D01*
X166162730Y-94216401D01*
X166157316Y-94211449D01*
X166150523Y-94206560D01*
X166145333Y-94204275D01*
X166138852Y-94203271D01*
X166145576Y-94202897D01*
X166147330Y-94202953D01*
X166154608Y-94205677D01*
X166163855Y-94212523D01*
X166169652Y-94217345D01*
X166174732Y-94221103D01*
X166177356Y-94222471D01*
X166177035Y-94221211D01*
X166173280Y-94217087D01*
X166170096Y-94213621D01*
X166169460Y-94211026D01*
X166172099Y-94208475D01*
X166172455Y-94208207D01*
X166174642Y-94205841D01*
X166173862Y-94203151D01*
X166169752Y-94198614D01*
X166163147Y-94191928D01*
X166142249Y-94194866D01*
X166142242Y-94194866D01*
X166131073Y-94196239D01*
X166123148Y-94196570D01*
X166116812Y-94195811D01*
X166110410Y-94193912D01*
X166102704Y-94191303D01*
X166098471Y-94190325D01*
X166098143Y-94191275D01*
X166101348Y-94194163D01*
X166104217Y-94196527D01*
X166104391Y-94197453D01*
X166100098Y-94196382D01*
X166095253Y-94195103D01*
X166087597Y-94193318D01*
X166087404Y-94193278D01*
X166076933Y-94190202D01*
X166074512Y-94188771D01*
X166092598Y-94188771D01*
X166093848Y-94190021D01*
X166095098Y-94188771D01*
X166093848Y-94187521D01*
X166092598Y-94188771D01*
X166074512Y-94188771D01*
X166070395Y-94186337D01*
X166068322Y-94181996D01*
X166069386Y-94179063D01*
X166072799Y-94177575D01*
X166076346Y-94180020D01*
X166077843Y-94181627D01*
X166081006Y-94182344D01*
X166082597Y-94180053D01*
X166081742Y-94178315D01*
X166077121Y-94175352D01*
X166069672Y-94172673D01*
X166060738Y-94170719D01*
X166051663Y-94169930D01*
X166047313Y-94169743D01*
X166039051Y-94168599D01*
X166033330Y-94166778D01*
X166031682Y-94166071D01*
X166024706Y-94164722D01*
X166016469Y-94164617D01*
X166012868Y-94164935D01*
X166007822Y-94165883D01*
X166006121Y-94167804D01*
X166006620Y-94171496D01*
X166006923Y-94173266D01*
X166005517Y-94177979D01*
X166000868Y-94179705D01*
X165993868Y-94177988D01*
X165993666Y-94177897D01*
X165988521Y-94176620D01*
X165984997Y-94178878D01*
X165983183Y-94183044D01*
X165984885Y-94188370D01*
X165990657Y-94192652D01*
X165993847Y-94194091D01*
X165994315Y-94194594D01*
X165990087Y-94193608D01*
X165984743Y-94192367D01*
X165976961Y-94190753D01*
X165976926Y-94190747D01*
X165971620Y-94188487D01*
X165970085Y-94183879D01*
X165969891Y-94182338D01*
X165967608Y-94178517D01*
X165962186Y-94173977D01*
X165952910Y-94168060D01*
X165944048Y-94163188D01*
X165935856Y-94159758D01*
X165930803Y-94159105D01*
X165926854Y-94158851D01*
X165919502Y-94156495D01*
X165910566Y-94152371D01*
X165909104Y-94151602D01*
X165901724Y-94147503D01*
X165897972Y-94144638D01*
X165897084Y-94142200D01*
X165898294Y-94139377D01*
X165900567Y-94135608D01*
X165904417Y-94129085D01*
X165904485Y-94128967D01*
X165906490Y-94122184D01*
X165907322Y-94112110D01*
X165906945Y-94100282D01*
X165905325Y-94088239D01*
X165903288Y-94077717D01*
X165910301Y-94083239D01*
X165911174Y-94083958D01*
X165915186Y-94088428D01*
X165916263Y-94091918D01*
X165917125Y-94093770D01*
X165921523Y-94098020D01*
X165928994Y-94103842D01*
X165938853Y-94110670D01*
X165946531Y-94115920D01*
X165954692Y-94122073D01*
X165959853Y-94126744D01*
X165961367Y-94129393D01*
X165961271Y-94129846D01*
X165963218Y-94133163D01*
X165968706Y-94136997D01*
X165976587Y-94140850D01*
X165985710Y-94144220D01*
X165994924Y-94146609D01*
X166003080Y-94147517D01*
X166004567Y-94147514D01*
X166010407Y-94147264D01*
X166014986Y-94146130D01*
X166019499Y-94143445D01*
X166025141Y-94138542D01*
X166033107Y-94130754D01*
X166049999Y-94113992D01*
X166074423Y-94122044D01*
X166088573Y-94126375D01*
X166104259Y-94130389D01*
X166118134Y-94133103D01*
X166129252Y-94134336D01*
X166136668Y-94133909D01*
X166140742Y-94133745D01*
X166147674Y-94135047D01*
X166155309Y-94137519D01*
X166162248Y-94140609D01*
X166167092Y-94143766D01*
X166168443Y-94146438D01*
X166168247Y-94147211D01*
X166170092Y-94150097D01*
X166175998Y-94151717D01*
X166185302Y-94151971D01*
X166197338Y-94150759D01*
X166202794Y-94150035D01*
X166212515Y-94149570D01*
X166218011Y-94150861D01*
X166220823Y-94151544D01*
X166225215Y-94150336D01*
X166231917Y-94146813D01*
X166241764Y-94140618D01*
X166241882Y-94140540D01*
X166253726Y-94132963D01*
X166262803Y-94127864D01*
X166270441Y-94124871D01*
X166277965Y-94123610D01*
X166286703Y-94123708D01*
X166297981Y-94124790D01*
X166311773Y-94126826D01*
X166322510Y-94129727D01*
X166331319Y-94133867D01*
X166336337Y-94136923D01*
X166340434Y-94140350D01*
X166341811Y-94144067D01*
X166341466Y-94149625D01*
X166339982Y-94162302D01*
X166338750Y-94176791D01*
X166338694Y-94187237D01*
X166339929Y-94194152D01*
X166342569Y-94198044D01*
X166346728Y-94199422D01*
X166352521Y-94198794D01*
X166357982Y-94198267D01*
X166360124Y-94199712D01*
X166360300Y-94200222D01*
X166363548Y-94200560D01*
X166370391Y-94198678D01*
X166377312Y-94196590D01*
X166382066Y-94196493D01*
X166383143Y-94199289D01*
X166380909Y-94205206D01*
X166380484Y-94206096D01*
X166377873Y-94213572D01*
X166376391Y-94221377D01*
X166376248Y-94227840D01*
X166377652Y-94231291D01*
X166380831Y-94231299D01*
X166386535Y-94229747D01*
X166392870Y-94227297D01*
X166398009Y-94224659D01*
X166400128Y-94222544D01*
X166401078Y-94221163D01*
X166405128Y-94219299D01*
X166408120Y-94218710D01*
X166409779Y-94219507D01*
X166408340Y-94222795D01*
X166403712Y-94229215D01*
X166397641Y-94236228D01*
X166390374Y-94241778D01*
X166381132Y-94245742D01*
X166368403Y-94248964D01*
X166355656Y-94251416D01*
X166346717Y-94252488D01*
X166341198Y-94252061D01*
X166338399Y-94250077D01*
X166337622Y-94246481D01*
X166337005Y-94243951D01*
X166333726Y-94237731D01*
X166328499Y-94230090D01*
X166322321Y-94222337D01*
X166316188Y-94215779D01*
X166311100Y-94211722D01*
X166309504Y-94210926D01*
X166306329Y-94210656D01*
X166306405Y-94213534D01*
X166309834Y-94218979D01*
X166310174Y-94219418D01*
X166313678Y-94224829D01*
X166315119Y-94228752D01*
X166315929Y-94231090D01*
X166319120Y-94236549D01*
X166323904Y-94243311D01*
X166328626Y-94249685D01*
X166330728Y-94253505D01*
X166330352Y-94255698D01*
X166327819Y-94257422D01*
X166324667Y-94258988D01*
X166321832Y-94260028D01*
X166319915Y-94257919D01*
X166316768Y-94252323D01*
X166312935Y-94244447D01*
X166308952Y-94235496D01*
X166305357Y-94226675D01*
X166302685Y-94219191D01*
X166301473Y-94214249D01*
X166300260Y-94208531D01*
X166296850Y-94200328D01*
X166292207Y-94192750D01*
X166287220Y-94187184D01*
X166282777Y-94185020D01*
X166281850Y-94184926D01*
X166276423Y-94182734D01*
X166270312Y-94178552D01*
X166268877Y-94177353D01*
X166264571Y-94174170D01*
X166262373Y-94174031D01*
X166260989Y-94176677D01*
X166258232Y-94182195D01*
X166253320Y-94187016D01*
X166249978Y-94188771D01*
X166245478Y-94191134D01*
G37*
G36*
X166011439Y-93743483D02*
G01*
X166014008Y-93747237D01*
X166014486Y-93749215D01*
X166012214Y-93748476D01*
X166010070Y-93747339D01*
X166005327Y-93745858D01*
X166001852Y-93745857D01*
X166001345Y-93747488D01*
X166001375Y-93747535D01*
X166004624Y-93750407D01*
X166010133Y-93753750D01*
X166010812Y-93754129D01*
X166016801Y-93759343D01*
X166021510Y-93766234D01*
X166021983Y-93767171D01*
X166026756Y-93773776D01*
X166032252Y-93778214D01*
X166032314Y-93778245D01*
X166037302Y-93782229D01*
X166038382Y-93788136D01*
X166038560Y-93791325D01*
X166041193Y-93796524D01*
X166047519Y-93802424D01*
X166051310Y-93805648D01*
X166055355Y-93810665D01*
X166055504Y-93812122D01*
X166055803Y-93815042D01*
X166055747Y-93815259D01*
X166055653Y-93818695D01*
X166058543Y-93818504D01*
X166061157Y-93818160D01*
X166062595Y-93821045D01*
X166063034Y-93823138D01*
X166066324Y-93826573D01*
X166068477Y-93828316D01*
X166068082Y-93831561D01*
X166064676Y-93834683D01*
X166059157Y-93836445D01*
X166054712Y-93836237D01*
X166052594Y-93833652D01*
X166052247Y-93832228D01*
X166049475Y-93827305D01*
X166044834Y-93821322D01*
X166038673Y-93815576D01*
X166033063Y-93812744D01*
X166029096Y-93813319D01*
X166027591Y-93817484D01*
X166027028Y-93820396D01*
X166024600Y-93822485D01*
X166023942Y-93822995D01*
X166025433Y-93825897D01*
X166029533Y-93830651D01*
X166035442Y-93836440D01*
X166042354Y-93842445D01*
X166049468Y-93847846D01*
X166052904Y-93850383D01*
X166058410Y-93856017D01*
X166060094Y-93861359D01*
X166060117Y-93862391D01*
X166061578Y-93866448D01*
X166066345Y-93867489D01*
X166070419Y-93868226D01*
X166072596Y-93871186D01*
X166072488Y-93872472D01*
X166070867Y-93873631D01*
X166066277Y-93872004D01*
X166064994Y-93871480D01*
X166059214Y-93871210D01*
X166055686Y-93874951D01*
X166054648Y-93882210D01*
X166056341Y-93892492D01*
X166056739Y-93894033D01*
X166057028Y-93896682D01*
X166055445Y-93895062D01*
X166054836Y-93894283D01*
X166052429Y-93893430D01*
X166050897Y-93896684D01*
X166050410Y-93903349D01*
X166051138Y-93912724D01*
X166052799Y-93925245D01*
X166045821Y-93920787D01*
X166045047Y-93920294D01*
X166040907Y-93917779D01*
X166040272Y-93918079D01*
X166042522Y-93921288D01*
X166044582Y-93923906D01*
X166049666Y-93929973D01*
X166055648Y-93936815D01*
X166059427Y-93941409D01*
X166061064Y-93943874D01*
X166063532Y-93947590D01*
X166065150Y-93951817D01*
X166066278Y-93957891D01*
X166070956Y-93968030D01*
X166078756Y-93979495D01*
X166089127Y-93991381D01*
X166090649Y-93992949D01*
X166098431Y-94001081D01*
X166105413Y-94008541D01*
X166110238Y-94013883D01*
X166113159Y-94017021D01*
X166120169Y-94023771D01*
X166127740Y-94030375D01*
X166133475Y-94035472D01*
X166136586Y-94039626D01*
X166136145Y-94042333D01*
X166135776Y-94042678D01*
X166131501Y-94043898D01*
X166127115Y-94042405D01*
X166125101Y-94038959D01*
X166124921Y-94038248D01*
X166122159Y-94034636D01*
X166117386Y-94030255D01*
X166112314Y-94026560D01*
X166108659Y-94025005D01*
X166107989Y-94026325D01*
X166108657Y-94030630D01*
X166109766Y-94034611D01*
X166111354Y-94040886D01*
X166112186Y-94043499D01*
X166115048Y-94048695D01*
X166116103Y-94050561D01*
X166116295Y-94055498D01*
X166113990Y-94057477D01*
X166107928Y-94059125D01*
X166099836Y-94059759D01*
X166091326Y-94059275D01*
X166084011Y-94057570D01*
X166081109Y-94056345D01*
X166078725Y-94054142D01*
X166080131Y-94051216D01*
X166081630Y-94049055D01*
X166081653Y-94047507D01*
X166077677Y-94048042D01*
X166076971Y-94050257D01*
X166077001Y-94050368D01*
X166076990Y-94052041D01*
X166075104Y-94052051D01*
X166070502Y-94050159D01*
X166062341Y-94046128D01*
X166057023Y-94043649D01*
X166050013Y-94041055D01*
X166045548Y-94040256D01*
X166041393Y-94039981D01*
X166035092Y-94038199D01*
X166032220Y-94037196D01*
X166027934Y-94037109D01*
X166027172Y-94039877D01*
X166029902Y-94045044D01*
X166036091Y-94052156D01*
X166036281Y-94052347D01*
X166042467Y-94058262D01*
X166046929Y-94061253D01*
X166051316Y-94062032D01*
X166057276Y-94061312D01*
X166058964Y-94060992D01*
X166065266Y-94058848D01*
X166067595Y-94056116D01*
X166068167Y-94054366D01*
X166071547Y-94054181D01*
X166073461Y-94055599D01*
X166074384Y-94059961D01*
X166074241Y-94061689D01*
X166076268Y-94065070D01*
X166076963Y-94066229D01*
X166083731Y-94069976D01*
X166093848Y-94072480D01*
X166094871Y-94072643D01*
X166101357Y-94074584D01*
X166103111Y-94077332D01*
X166103391Y-94078971D01*
X166106533Y-94079863D01*
X166113656Y-94079414D01*
X166117555Y-94079002D01*
X166122274Y-94078890D01*
X166123529Y-94080097D01*
X166122317Y-94083041D01*
X166121613Y-94084437D01*
X166120520Y-94088532D01*
X166122287Y-94089293D01*
X166126308Y-94086832D01*
X166131979Y-94081260D01*
X166135670Y-94077377D01*
X166138704Y-94074955D01*
X166139230Y-94075839D01*
X166138362Y-94078578D01*
X166137602Y-94082332D01*
X166136338Y-94085095D01*
X166132933Y-94089628D01*
X166127735Y-94093647D01*
X166120670Y-94094687D01*
X166114207Y-94091261D01*
X166111586Y-94089117D01*
X166107815Y-94087511D01*
X166105625Y-94086835D01*
X166100081Y-94084111D01*
X166092984Y-94080010D01*
X166085514Y-94075593D01*
X166080332Y-94073135D01*
X166079058Y-94073742D01*
X166081624Y-94077473D01*
X166087964Y-94084385D01*
X166093562Y-94090496D01*
X166098358Y-94096357D01*
X166100686Y-94100031D01*
X166103451Y-94102479D01*
X166110010Y-94105476D01*
X166119132Y-94108372D01*
X166124996Y-94109920D01*
X166131650Y-94111445D01*
X166135488Y-94111614D01*
X166137768Y-94110388D01*
X166139749Y-94107728D01*
X166142716Y-94104405D01*
X166146510Y-94102512D01*
X166150102Y-94101302D01*
X166151886Y-94098137D01*
X166150188Y-94095064D01*
X166149461Y-94094434D01*
X166148967Y-94090925D01*
X166151456Y-94084906D01*
X166157107Y-94076029D01*
X166166099Y-94063946D01*
X166167007Y-94062771D01*
X166172381Y-94055527D01*
X166176171Y-94049926D01*
X166177606Y-94047098D01*
X166177606Y-94047088D01*
X166179317Y-94043420D01*
X166183933Y-94037280D01*
X166190732Y-94029629D01*
X166194413Y-94024648D01*
X166194261Y-94021191D01*
X166189720Y-94020004D01*
X166186994Y-94019913D01*
X166185802Y-94018816D01*
X166188470Y-94015432D01*
X166191754Y-94010337D01*
X166192113Y-94004950D01*
X166188544Y-94001478D01*
X166187634Y-94001073D01*
X166182153Y-93998054D01*
X166173199Y-93992676D01*
X166161296Y-93985262D01*
X166146965Y-93976137D01*
X166130728Y-93965624D01*
X166129003Y-93964506D01*
X166121234Y-93959675D01*
X166115264Y-93956280D01*
X166112268Y-93954998D01*
X166111034Y-93954129D01*
X166110099Y-93950145D01*
X166109729Y-93947281D01*
X166107802Y-93943872D01*
X166107791Y-93943865D01*
X166105721Y-93940388D01*
X166103355Y-93933012D01*
X166100902Y-93922810D01*
X166098571Y-93910851D01*
X166096571Y-93898207D01*
X166095110Y-93885949D01*
X166094398Y-93875148D01*
X166094290Y-93869978D01*
X166094291Y-93860995D01*
X166094559Y-93854782D01*
X166095060Y-93852453D01*
X166095569Y-93852212D01*
X166099113Y-93849615D01*
X166105107Y-93844777D01*
X166112600Y-93838457D01*
X166114343Y-93836970D01*
X166123271Y-93829630D01*
X166131707Y-93823079D01*
X166138029Y-93818584D01*
X166140136Y-93817122D01*
X166145779Y-93812075D01*
X166148823Y-93807577D01*
X166149058Y-93806763D01*
X166149372Y-93799990D01*
X166147154Y-93794631D01*
X166143059Y-93792403D01*
X166137998Y-93790751D01*
X166131113Y-93785118D01*
X166122706Y-93775285D01*
X166112577Y-93761046D01*
X166105296Y-93750288D01*
X166097249Y-93738868D01*
X166091127Y-93730942D01*
X166086542Y-93726060D01*
X166083105Y-93723769D01*
X166080429Y-93723619D01*
X166079778Y-93723699D01*
X166075317Y-93721945D01*
X166068971Y-93717481D01*
X166061772Y-93711254D01*
X166054756Y-93704215D01*
X166048956Y-93697311D01*
X166045407Y-93691490D01*
X166044381Y-93688075D01*
X166042769Y-93679934D01*
X166041186Y-93669213D01*
X166039860Y-93657324D01*
X166039295Y-93650962D01*
X166038570Y-93639451D01*
X166038658Y-93630601D01*
X166039622Y-93622830D01*
X166041522Y-93614551D01*
X166043529Y-93606640D01*
X166045376Y-93598689D01*
X166046327Y-93593712D01*
X166046785Y-93590807D01*
X166047452Y-93588712D01*
X166047546Y-93588596D01*
X166048217Y-93585545D01*
X166049059Y-93579648D01*
X166049383Y-93575379D01*
X166048232Y-93570368D01*
X166044189Y-93566666D01*
X166042998Y-93565818D01*
X166037562Y-93561353D01*
X166030241Y-93554819D01*
X166022274Y-93547310D01*
X166020231Y-93545364D01*
X166009769Y-93536130D01*
X165997695Y-93526404D01*
X165984785Y-93516716D01*
X165971815Y-93507598D01*
X165959560Y-93499581D01*
X165948798Y-93493197D01*
X165940304Y-93488976D01*
X165934854Y-93487452D01*
X165933896Y-93487312D01*
X165928719Y-93485707D01*
X165920758Y-93482688D01*
X165911304Y-93478731D01*
X165904518Y-93475955D01*
X165892123Y-93471957D01*
X165881946Y-93470135D01*
X165874700Y-93470584D01*
X165871096Y-93473398D01*
X165867922Y-93475992D01*
X165860931Y-93477885D01*
X165851426Y-93478795D01*
X165840652Y-93478608D01*
X165829857Y-93477209D01*
X165822969Y-93475615D01*
X165817446Y-93473782D01*
X165815602Y-93472341D01*
X165816404Y-93471061D01*
X165820541Y-93466668D01*
X165827072Y-93460730D01*
X165834869Y-93454178D01*
X165842805Y-93447944D01*
X165849753Y-93442957D01*
X165854584Y-93440150D01*
X165855551Y-93439731D01*
X165860110Y-93437069D01*
X165861351Y-93434989D01*
X165862863Y-93433373D01*
X165868041Y-93430874D01*
X165875759Y-93428055D01*
X165880265Y-93426655D01*
X165885801Y-93425269D01*
X165891649Y-93424396D01*
X165898744Y-93423991D01*
X165908022Y-93424008D01*
X165920421Y-93424404D01*
X165936875Y-93425132D01*
X165947890Y-93425732D01*
X165963899Y-93426890D01*
X165978380Y-93428261D01*
X165990176Y-93429731D01*
X165998131Y-93431186D01*
X166010006Y-93434533D01*
X166026438Y-93439839D01*
X166045735Y-93446568D01*
X166067021Y-93454385D01*
X166089420Y-93462953D01*
X166112054Y-93471937D01*
X166134048Y-93481001D01*
X166154524Y-93489809D01*
X166172605Y-93498025D01*
X166182278Y-93502471D01*
X166192104Y-93506754D01*
X166199671Y-93509794D01*
X166203858Y-93511122D01*
X166205723Y-93511434D01*
X166212217Y-93513226D01*
X166215722Y-93515382D01*
X166215257Y-93517363D01*
X166215378Y-93518303D01*
X166218806Y-93521127D01*
X166225426Y-93525168D01*
X166234425Y-93529892D01*
X166239037Y-93532205D01*
X166249924Y-93537932D01*
X166259630Y-93543373D01*
X166266483Y-93547605D01*
X166266993Y-93547948D01*
X166273478Y-93552036D01*
X166283004Y-93557740D01*
X166294371Y-93564352D01*
X166306380Y-93571164D01*
X166318186Y-93577878D01*
X166333777Y-93586974D01*
X166349103Y-93596125D01*
X166362099Y-93604110D01*
X166372180Y-93610319D01*
X166382813Y-93616622D01*
X166391749Y-93621669D01*
X166397733Y-93624734D01*
X166401429Y-93626723D01*
X166410555Y-93633258D01*
X166421415Y-93642577D01*
X166433181Y-93653865D01*
X166445023Y-93666307D01*
X166456110Y-93679088D01*
X166465613Y-93691394D01*
X166479421Y-93711626D01*
X166497530Y-93742207D01*
X166511125Y-93771183D01*
X166520281Y-93798720D01*
X166525072Y-93824985D01*
X166525421Y-93831743D01*
X166524574Y-93847280D01*
X166522000Y-93864163D01*
X166518058Y-93880336D01*
X166513106Y-93893742D01*
X166511763Y-93896594D01*
X166504777Y-93911278D01*
X166499119Y-93922665D01*
X166494133Y-93931823D01*
X166489164Y-93939819D01*
X166483555Y-93947719D01*
X166476653Y-93956590D01*
X166467801Y-93967499D01*
X166466424Y-93969238D01*
X166461341Y-93976158D01*
X166456156Y-93983751D01*
X166446956Y-93996338D01*
X166437006Y-94006195D01*
X166426380Y-94012722D01*
X166424621Y-94013566D01*
X166416568Y-94018214D01*
X166410107Y-94023023D01*
X166388116Y-94041296D01*
X166364060Y-94058077D01*
X166340122Y-94071826D01*
X166338496Y-94072661D01*
X166332976Y-94075683D01*
X166330121Y-94077555D01*
X166327249Y-94079264D01*
X166320711Y-94082418D01*
X166311613Y-94086520D01*
X166301023Y-94091114D01*
X166290010Y-94095743D01*
X166279642Y-94099953D01*
X166270987Y-94103287D01*
X166265115Y-94105289D01*
X166261227Y-94106496D01*
X166253957Y-94109780D01*
X166251561Y-94113107D01*
X166253950Y-94116569D01*
X166255503Y-94117966D01*
X166255257Y-94119910D01*
X166250778Y-94122138D01*
X166245068Y-94124013D01*
X166236232Y-94126427D01*
X166226361Y-94128794D01*
X166216790Y-94130950D01*
X166208437Y-94132881D01*
X166203155Y-94134157D01*
X166200489Y-94134357D01*
X166192720Y-94132808D01*
X166182552Y-94128942D01*
X166178305Y-94127134D01*
X166166240Y-94123503D01*
X166154503Y-94122681D01*
X166149951Y-94122671D01*
X166140989Y-94121874D01*
X166134314Y-94120311D01*
X166134259Y-94120289D01*
X166126281Y-94117822D01*
X166122018Y-94118153D01*
X166121696Y-94121264D01*
X166121960Y-94122056D01*
X166121513Y-94124701D01*
X166118694Y-94124274D01*
X166114781Y-94120851D01*
X166114496Y-94120538D01*
X166110118Y-94117304D01*
X166102759Y-94113053D01*
X166093848Y-94108619D01*
X166092678Y-94108071D01*
X166083883Y-94103389D01*
X166076859Y-94098727D01*
X166073036Y-94095019D01*
X166071496Y-94091650D01*
X166072411Y-94091147D01*
X166073230Y-94091614D01*
X166074845Y-94091642D01*
X166074350Y-94088570D01*
X166071693Y-94081706D01*
X166071655Y-94081616D01*
X166066968Y-94074749D01*
X166059192Y-94070769D01*
X166053978Y-94069355D01*
X166050784Y-94069518D01*
X166051257Y-94072457D01*
X166055094Y-94078760D01*
X166055563Y-94079485D01*
X166058761Y-94085447D01*
X166060078Y-94089814D01*
X166061130Y-94093290D01*
X166064470Y-94098332D01*
X166066973Y-94101315D01*
X166066895Y-94102567D01*
X166062595Y-94101621D01*
X166054920Y-94099749D01*
X166044095Y-94098215D01*
X166036355Y-94099052D01*
X166030845Y-94102275D01*
X166024805Y-94107023D01*
X166015423Y-94112847D01*
X166005561Y-94117856D01*
X165997377Y-94120851D01*
X165995585Y-94121205D01*
X165992679Y-94121213D01*
X165989194Y-94120186D01*
X165984433Y-94117748D01*
X165977700Y-94113520D01*
X165968300Y-94107128D01*
X165955536Y-94098192D01*
X165947780Y-94092043D01*
X165937776Y-94082583D01*
X165929628Y-94073291D01*
X165928848Y-94072267D01*
X165923063Y-94065095D01*
X165918656Y-94061038D01*
X165914329Y-94059182D01*
X165908782Y-94058614D01*
X165907989Y-94058590D01*
X165901929Y-94058866D01*
X165897734Y-94060542D01*
X165895114Y-94064334D01*
X165893777Y-94070959D01*
X165893433Y-94081134D01*
X165893791Y-94095576D01*
X165894135Y-94105675D01*
X165894274Y-94115100D01*
X165893925Y-94121432D01*
X165892930Y-94125743D01*
X165891133Y-94129107D01*
X165888376Y-94132595D01*
X165881895Y-94140298D01*
X165875360Y-94134230D01*
X165868758Y-94128746D01*
X165861325Y-94123519D01*
X165856683Y-94120323D01*
X165848884Y-94114155D01*
X165840283Y-94106718D01*
X165831820Y-94098891D01*
X165824436Y-94091553D01*
X165819074Y-94085582D01*
X165816675Y-94081856D01*
X165815385Y-94079270D01*
X165812626Y-94078725D01*
X165809901Y-94078167D01*
X165804737Y-94074693D01*
X165798378Y-94068976D01*
X165797289Y-94067906D01*
X165789759Y-94061578D01*
X165783479Y-94058066D01*
X165779164Y-94057656D01*
X165777528Y-94060633D01*
X165777130Y-94062233D01*
X165775297Y-94060295D01*
X165773589Y-94058681D01*
X165771264Y-94060071D01*
X165769347Y-94065352D01*
X165768046Y-94073863D01*
X165767953Y-94076021D01*
X165767566Y-94084945D01*
X165767750Y-94096471D01*
X165769547Y-94117854D01*
X165770734Y-94131978D01*
X165770749Y-94132160D01*
X165777313Y-94165665D01*
X165787300Y-94196192D01*
X165788210Y-94198572D01*
X165790164Y-94205119D01*
X165790597Y-94209258D01*
X165790725Y-94211924D01*
X165792844Y-94219293D01*
X165797127Y-94230277D01*
X165799041Y-94234599D01*
X165803394Y-94244429D01*
X165811466Y-94261305D01*
X165814609Y-94267766D01*
X165818713Y-94276518D01*
X165821527Y-94282926D01*
X165822571Y-94285929D01*
X165822570Y-94285942D01*
X165820158Y-94286682D01*
X165813625Y-94287039D01*
X165803821Y-94287054D01*
X165791598Y-94286767D01*
X165777805Y-94286216D01*
X165763293Y-94285443D01*
X165748913Y-94284486D01*
X165735513Y-94283385D01*
X165723946Y-94282180D01*
X165715060Y-94280910D01*
X165706241Y-94279235D01*
X165692466Y-94276389D01*
X165677417Y-94273091D01*
X165663077Y-94269766D01*
X165640080Y-94264592D01*
X165617235Y-94260521D01*
X165596734Y-94258422D01*
X165577649Y-94258412D01*
X165559052Y-94260606D01*
X165540014Y-94265120D01*
X165519606Y-94272070D01*
X165496902Y-94281571D01*
X165473897Y-94292367D01*
X165470971Y-94293740D01*
X165462386Y-94297864D01*
X165449442Y-94303898D01*
X165437974Y-94309030D01*
X165428983Y-94312817D01*
X165423467Y-94314816D01*
X165414985Y-94316457D01*
X165399688Y-94317432D01*
X165381399Y-94316882D01*
X165361139Y-94314848D01*
X165339927Y-94311374D01*
X165337532Y-94310911D01*
X165317396Y-94307451D01*
X165296191Y-94304462D01*
X165275402Y-94302117D01*
X165256512Y-94300584D01*
X165241004Y-94300034D01*
X165240776Y-94300035D01*
X165232288Y-94300969D01*
X165219850Y-94303690D01*
X165203243Y-94308252D01*
X165186680Y-94313346D01*
X165182248Y-94314709D01*
X165167982Y-94319239D01*
X165160377Y-94321629D01*
X165152925Y-94323971D01*
X165139401Y-94328174D01*
X165128484Y-94331514D01*
X165121252Y-94333657D01*
X165119851Y-94334081D01*
X165111200Y-94337261D01*
X165099748Y-94342074D01*
X165086822Y-94347945D01*
X165073747Y-94354296D01*
X165072693Y-94354826D01*
X165056146Y-94362974D01*
X165042555Y-94369079D01*
X165030593Y-94373496D01*
X165018934Y-94376581D01*
X165006253Y-94378688D01*
X164991224Y-94380172D01*
X164972521Y-94381388D01*
X164964217Y-94381912D01*
X164954724Y-94382651D01*
X164948056Y-94383346D01*
X164945297Y-94383895D01*
X164944367Y-94384247D01*
X164939054Y-94384666D01*
X164929802Y-94384662D01*
X164917317Y-94384283D01*
X164902307Y-94383578D01*
X164885479Y-94382597D01*
X164867541Y-94381389D01*
X164849201Y-94380003D01*
X164831165Y-94378489D01*
X164814142Y-94376895D01*
X164798838Y-94375271D01*
X164785961Y-94373667D01*
X164776218Y-94372130D01*
X164769446Y-94370923D01*
X164759835Y-94369496D01*
X164749944Y-94368463D01*
X164738830Y-94367772D01*
X164725549Y-94367368D01*
X164709157Y-94367201D01*
X164688709Y-94367215D01*
X164667947Y-94367421D01*
X164640853Y-94368189D01*
X164618621Y-94369510D01*
X164601184Y-94371386D01*
X164586531Y-94373053D01*
X164568827Y-94374115D01*
X164548719Y-94374400D01*
X164525789Y-94373891D01*
X164499614Y-94372573D01*
X164469777Y-94370431D01*
X164435856Y-94367447D01*
X164397431Y-94363605D01*
X164371850Y-94360660D01*
X164345018Y-94356797D01*
X164321724Y-94352459D01*
X164301171Y-94347511D01*
X164296876Y-94346345D01*
X164270306Y-94339368D01*
X164247541Y-94333873D01*
X164227788Y-94329707D01*
X164210253Y-94326714D01*
X164194141Y-94324740D01*
X164178659Y-94323629D01*
X164178317Y-94323613D01*
X164164895Y-94322755D01*
X164152247Y-94321568D01*
X164141781Y-94320207D01*
X164134905Y-94318827D01*
X164131605Y-94317910D01*
X164122351Y-94315511D01*
X164110859Y-94312676D01*
X164098878Y-94309841D01*
X164087786Y-94306841D01*
X164069639Y-94299287D01*
X164790493Y-94299287D01*
X164792677Y-94300869D01*
X164793155Y-94301009D01*
X164797915Y-94302516D01*
X164805694Y-94305055D01*
X164815068Y-94308163D01*
X164825116Y-94311298D01*
X164832878Y-94312930D01*
X164839749Y-94313118D01*
X164847635Y-94312093D01*
X164849313Y-94311812D01*
X164858014Y-94310929D01*
X164865117Y-94311853D01*
X164873373Y-94314881D01*
X164878144Y-94316834D01*
X164886804Y-94319491D01*
X164892743Y-94319526D01*
X164895100Y-94318139D01*
X164918297Y-94318139D01*
X164919078Y-94321284D01*
X164920140Y-94323017D01*
X164924000Y-94325034D01*
X164926828Y-94324180D01*
X164926996Y-94321629D01*
X164923528Y-94319051D01*
X164920338Y-94317928D01*
X164918297Y-94318139D01*
X164895100Y-94318139D01*
X164896980Y-94317033D01*
X164899654Y-94313346D01*
X164899284Y-94311229D01*
X164895815Y-94312115D01*
X164890869Y-94313187D01*
X164882324Y-94311696D01*
X164872201Y-94307326D01*
X164871972Y-94307208D01*
X164866285Y-94305585D01*
X164857520Y-94304368D01*
X164847475Y-94303813D01*
X164837064Y-94303161D01*
X164823604Y-94301312D01*
X164811911Y-94298729D01*
X164808393Y-94297744D01*
X164800041Y-94295810D01*
X164794966Y-94295556D01*
X164792116Y-94296885D01*
X164790493Y-94299287D01*
X164069639Y-94299287D01*
X164066113Y-94297819D01*
X164048110Y-94285481D01*
X164033849Y-94269883D01*
X164023400Y-94251080D01*
X164020989Y-94242478D01*
X164020642Y-94228116D01*
X164023735Y-94212610D01*
X164029852Y-94196948D01*
X164036548Y-94185568D01*
X164235285Y-94185568D01*
X164235926Y-94192357D01*
X164237762Y-94201221D01*
X164241580Y-94209104D01*
X164248180Y-94215740D01*
X164258567Y-94222467D01*
X164265120Y-94226633D01*
X164270395Y-94230909D01*
X164272418Y-94233872D01*
X164273446Y-94237498D01*
X164278071Y-94243935D01*
X164285502Y-94250973D01*
X164294730Y-94257696D01*
X164304745Y-94263188D01*
X164319074Y-94269494D01*
X164337189Y-94276646D01*
X164352441Y-94281462D01*
X164365618Y-94284178D01*
X164377507Y-94285030D01*
X164391360Y-94285955D01*
X164407339Y-94289994D01*
X164412386Y-94291781D01*
X164417854Y-94293010D01*
X164419933Y-94292367D01*
X164418689Y-94290125D01*
X164413292Y-94286979D01*
X164404439Y-94284038D01*
X164393020Y-94281583D01*
X164379929Y-94279890D01*
X164378832Y-94279785D01*
X164361578Y-94276780D01*
X164341940Y-94271249D01*
X164321399Y-94263669D01*
X164301439Y-94254521D01*
X164298930Y-94253124D01*
X164289775Y-94246258D01*
X164281876Y-94237894D01*
X164276916Y-94229734D01*
X164276142Y-94228428D01*
X164271671Y-94224232D01*
X164265136Y-94220135D01*
X164264051Y-94219573D01*
X164253406Y-94212575D01*
X164246862Y-94204573D01*
X164243592Y-94194585D01*
X164243067Y-94191035D01*
X164243240Y-94186009D01*
X164245702Y-94181859D01*
X164251292Y-94176627D01*
X164254388Y-94173773D01*
X164259544Y-94166937D01*
X164261608Y-94159274D01*
X164261576Y-94153795D01*
X164321166Y-94153795D01*
X164322430Y-94158785D01*
X164322746Y-94159610D01*
X164326737Y-94168556D01*
X164331665Y-94176490D01*
X164338332Y-94184368D01*
X164347536Y-94193146D01*
X164360076Y-94203778D01*
X164362821Y-94206026D01*
X164371141Y-94212631D01*
X164377210Y-94216746D01*
X164382266Y-94218958D01*
X164387544Y-94219855D01*
X164394282Y-94220024D01*
X164402880Y-94220470D01*
X164409607Y-94222392D01*
X164415607Y-94226459D01*
X164422305Y-94230799D01*
X164428469Y-94231362D01*
X164431886Y-94230404D01*
X164442354Y-94228482D01*
X164451252Y-94229099D01*
X164460769Y-94232321D01*
X164465009Y-94234074D01*
X164473758Y-94236937D01*
X164478596Y-94237118D01*
X164479380Y-94234599D01*
X164479379Y-94234595D01*
X164476684Y-94232299D01*
X164470575Y-94229096D01*
X164462371Y-94225677D01*
X164454684Y-94222953D01*
X164447848Y-94221260D01*
X164442215Y-94221213D01*
X164435926Y-94222596D01*
X164427275Y-94224060D01*
X164419345Y-94222289D01*
X164412545Y-94216410D01*
X164411216Y-94215227D01*
X164405166Y-94213176D01*
X164394896Y-94212523D01*
X164391954Y-94212505D01*
X164385047Y-94212024D01*
X164379548Y-94210358D01*
X164373736Y-94206800D01*
X164365888Y-94200647D01*
X164353492Y-94190157D01*
X164344231Y-94181304D01*
X165565247Y-94181304D01*
X165569000Y-94183503D01*
X165572848Y-94184479D01*
X165582166Y-94184449D01*
X165592398Y-94182212D01*
X165602067Y-94178293D01*
X165609694Y-94173220D01*
X165612000Y-94170019D01*
X165675056Y-94170019D01*
X165675313Y-94171054D01*
X165678377Y-94172428D01*
X165683631Y-94171578D01*
X165689458Y-94168657D01*
X165694764Y-94166207D01*
X165700015Y-94167495D01*
X165704337Y-94168886D01*
X165710685Y-94167196D01*
X165714294Y-94164731D01*
X165720389Y-94159706D01*
X165727566Y-94153263D01*
X165734850Y-94146336D01*
X165741262Y-94139857D01*
X165745825Y-94134760D01*
X165747564Y-94131978D01*
X165746093Y-94131226D01*
X165741940Y-94133044D01*
X165736158Y-94136874D01*
X165729806Y-94142010D01*
X165723945Y-94147743D01*
X165717045Y-94154922D01*
X165709881Y-94160829D01*
X165704243Y-94163139D01*
X165699505Y-94162222D01*
X165694701Y-94161078D01*
X165688728Y-94163591D01*
X165683743Y-94166211D01*
X165678895Y-94167519D01*
X165677088Y-94167815D01*
X165675056Y-94170019D01*
X165612000Y-94170019D01*
X165613800Y-94167521D01*
X165615580Y-94164612D01*
X165619949Y-94162518D01*
X165623099Y-94161778D01*
X165630080Y-94157958D01*
X165638681Y-94151595D01*
X165647945Y-94143489D01*
X165656911Y-94134441D01*
X165664621Y-94125250D01*
X165668024Y-94120257D01*
X165668752Y-94117854D01*
X165666559Y-94118672D01*
X165661792Y-94122566D01*
X165654796Y-94129390D01*
X165650755Y-94133454D01*
X165640276Y-94143090D01*
X165637167Y-94145554D01*
X165630664Y-94150709D01*
X165622713Y-94155716D01*
X165617219Y-94157518D01*
X165613653Y-94158822D01*
X165610096Y-94163648D01*
X165608148Y-94167160D01*
X165601074Y-94173135D01*
X165590736Y-94177019D01*
X165578172Y-94178336D01*
X165571354Y-94178553D01*
X165566144Y-94179591D01*
X165565247Y-94181304D01*
X164344231Y-94181304D01*
X164342812Y-94179948D01*
X164336765Y-94172808D01*
X165441105Y-94172808D01*
X165441390Y-94174223D01*
X165445642Y-94174621D01*
X165453785Y-94173449D01*
X165461491Y-94171902D01*
X165473673Y-94169297D01*
X165482215Y-94167163D01*
X165487978Y-94165274D01*
X165491825Y-94163401D01*
X165491854Y-94163383D01*
X165498300Y-94161006D01*
X165506010Y-94160018D01*
X165506996Y-94159970D01*
X165512887Y-94158461D01*
X165519329Y-94155441D01*
X165525018Y-94151733D01*
X165528648Y-94148162D01*
X165528913Y-94145554D01*
X165526605Y-94145894D01*
X165522479Y-94148824D01*
X165520691Y-94150120D01*
X165513839Y-94153186D01*
X165505587Y-94155262D01*
X165500383Y-94156259D01*
X165489799Y-94158925D01*
X165479552Y-94162130D01*
X165473588Y-94164081D01*
X165462937Y-94167007D01*
X165453894Y-94168883D01*
X165450469Y-94169486D01*
X165444207Y-94171142D01*
X165441105Y-94172808D01*
X164336765Y-94172808D01*
X164335142Y-94170891D01*
X164329786Y-94162248D01*
X164328390Y-94159679D01*
X164324833Y-94154565D01*
X164322196Y-94152496D01*
X164321166Y-94153795D01*
X164261576Y-94153795D01*
X164261572Y-94153178D01*
X164260060Y-94150188D01*
X164257829Y-94151607D01*
X164255760Y-94157676D01*
X164255686Y-94158019D01*
X164251862Y-94165608D01*
X164244317Y-94173301D01*
X164239848Y-94177021D01*
X164236303Y-94181114D01*
X164235285Y-94185568D01*
X164036548Y-94185568D01*
X164038578Y-94182119D01*
X164049495Y-94169112D01*
X164062189Y-94158916D01*
X164064225Y-94157734D01*
X164072061Y-94153876D01*
X164082299Y-94149432D01*
X164093263Y-94145145D01*
X164104499Y-94140656D01*
X164106531Y-94139595D01*
X165548178Y-94139595D01*
X165551884Y-94139940D01*
X165552585Y-94139913D01*
X165558125Y-94137199D01*
X165564201Y-94129851D01*
X165566274Y-94126955D01*
X165572063Y-94120434D01*
X165577362Y-94116236D01*
X165582111Y-94113039D01*
X165589132Y-94107423D01*
X165596625Y-94100773D01*
X165598306Y-94099192D01*
X165604515Y-94092910D01*
X165608097Y-94087691D01*
X165610019Y-94081711D01*
X165611246Y-94073146D01*
X165611935Y-94066000D01*
X165611865Y-94061763D01*
X165680357Y-94061763D01*
X165680840Y-94066000D01*
X165680976Y-94067196D01*
X165681048Y-94067583D01*
X165682116Y-94074343D01*
X165682557Y-94079072D01*
X165682815Y-94080514D01*
X165685336Y-94082510D01*
X165686469Y-94081413D01*
X165686837Y-94077071D01*
X165686034Y-94071073D01*
X165684340Y-94065206D01*
X165682032Y-94061258D01*
X165681434Y-94060784D01*
X165680357Y-94061763D01*
X165611865Y-94061763D01*
X165611820Y-94059043D01*
X165610150Y-94053248D01*
X165606546Y-94046451D01*
X165606158Y-94045793D01*
X165599043Y-94035458D01*
X165591720Y-94029099D01*
X165583829Y-94026255D01*
X165610050Y-94026255D01*
X165611300Y-94027505D01*
X165612550Y-94026255D01*
X165611300Y-94025005D01*
X165610050Y-94026255D01*
X165583829Y-94026255D01*
X165582816Y-94025890D01*
X165570959Y-94025005D01*
X165567768Y-94025026D01*
X165560076Y-94025463D01*
X165556146Y-94026632D01*
X165555045Y-94028755D01*
X165555082Y-94029256D01*
X165555119Y-94029301D01*
X165556709Y-94031217D01*
X165561430Y-94032222D01*
X165570187Y-94032505D01*
X165577439Y-94032649D01*
X165583619Y-94033602D01*
X165588153Y-94036040D01*
X165592914Y-94040631D01*
X165597647Y-94045810D01*
X165603261Y-94052863D01*
X165606167Y-94058789D01*
X165606962Y-94065041D01*
X165606242Y-94073068D01*
X165606047Y-94074443D01*
X165604144Y-94082749D01*
X165600585Y-94089125D01*
X165594122Y-94095927D01*
X165592317Y-94097547D01*
X165590252Y-94099401D01*
X165581994Y-94106163D01*
X165574724Y-94111393D01*
X165573515Y-94112211D01*
X165566080Y-94118738D01*
X165560153Y-94126089D01*
X165559034Y-94127822D01*
X165554427Y-94133795D01*
X165550475Y-94137424D01*
X165549083Y-94138275D01*
X165548178Y-94139595D01*
X164106531Y-94139595D01*
X164133943Y-94125281D01*
X164161388Y-94105529D01*
X164186368Y-94081716D01*
X164191289Y-94075778D01*
X164191362Y-94075681D01*
X164933563Y-94075681D01*
X164935711Y-94081974D01*
X164941465Y-94088880D01*
X164950233Y-94095847D01*
X164961422Y-94102323D01*
X164974441Y-94107755D01*
X164980420Y-94109642D01*
X164988598Y-94111710D01*
X164994244Y-94112513D01*
X164999560Y-94110914D01*
X165005580Y-94106933D01*
X165010472Y-94101999D01*
X165012491Y-94097547D01*
X165012461Y-94097097D01*
X165010118Y-94094062D01*
X165005912Y-94093148D01*
X165002484Y-94095021D01*
X164999296Y-94096944D01*
X164992632Y-94097202D01*
X164984082Y-94095583D01*
X164974998Y-94092360D01*
X164966731Y-94087806D01*
X164963608Y-94085555D01*
X164956009Y-94079470D01*
X164950174Y-94074025D01*
X164944376Y-94068949D01*
X164939501Y-94067884D01*
X164935133Y-94071080D01*
X164933563Y-94075681D01*
X164191362Y-94075681D01*
X164198588Y-94066021D01*
X164207186Y-94053883D01*
X164212359Y-94046305D01*
X164290586Y-94046305D01*
X164291438Y-94048759D01*
X164292130Y-94048320D01*
X164293253Y-94046125D01*
X164297208Y-94041255D01*
X164302980Y-94035335D01*
X164308387Y-94029849D01*
X164311779Y-94025422D01*
X164311396Y-94024147D01*
X164307449Y-94026269D01*
X164300150Y-94032035D01*
X164295225Y-94036604D01*
X164291146Y-94041991D01*
X164290586Y-94046305D01*
X164212359Y-94046305D01*
X164216413Y-94040366D01*
X164225598Y-94026468D01*
X164232809Y-94015167D01*
X164650209Y-94015167D01*
X164652570Y-94021392D01*
X164654864Y-94023348D01*
X164661375Y-94025048D01*
X164664127Y-94024461D01*
X165247605Y-94024461D01*
X165247638Y-94025422D01*
X165247848Y-94031523D01*
X165250515Y-94037006D01*
X165251575Y-94037895D01*
X165257939Y-94039887D01*
X165265301Y-94038772D01*
X165271469Y-94034782D01*
X165273854Y-94031911D01*
X165274435Y-94029301D01*
X165272246Y-94026115D01*
X165267863Y-94021953D01*
X165627552Y-94021953D01*
X165628820Y-94024373D01*
X165633265Y-94026255D01*
X165634283Y-94026686D01*
X165643383Y-94027613D01*
X165650629Y-94028798D01*
X165660612Y-94033145D01*
X165669316Y-94039606D01*
X165674883Y-94047034D01*
X165675302Y-94047940D01*
X165678222Y-94052960D01*
X165680508Y-94055008D01*
X165681132Y-94054977D01*
X165682359Y-94054013D01*
X165682043Y-94052342D01*
X165702846Y-94052342D01*
X165704857Y-94054013D01*
X165706233Y-94055156D01*
X165713185Y-94058411D01*
X165721595Y-94063001D01*
X165728070Y-94070002D01*
X165729523Y-94072285D01*
X165733211Y-94076332D01*
X165734732Y-94077071D01*
X165736280Y-94077823D01*
X165737563Y-94076021D01*
X165737086Y-94073885D01*
X165733427Y-94068223D01*
X165727244Y-94061904D01*
X165719847Y-94056028D01*
X165712543Y-94051696D01*
X165706639Y-94050007D01*
X165703421Y-94050477D01*
X165702846Y-94052342D01*
X165682043Y-94052342D01*
X165681758Y-94050833D01*
X165679187Y-94044280D01*
X165673843Y-94036786D01*
X165663560Y-94029578D01*
X165660199Y-94027902D01*
X165651695Y-94024543D01*
X165642960Y-94022010D01*
X165635212Y-94020563D01*
X165629670Y-94020457D01*
X165627552Y-94021953D01*
X165267863Y-94021953D01*
X165266819Y-94020962D01*
X165265815Y-94020049D01*
X165260114Y-94015464D01*
X165256131Y-94013980D01*
X165254038Y-94014578D01*
X165252477Y-94015024D01*
X165249583Y-94018067D01*
X165247605Y-94024461D01*
X164664127Y-94024461D01*
X164668355Y-94023559D01*
X164673707Y-94019106D01*
X164675752Y-94014578D01*
X164675491Y-94008126D01*
X164671808Y-94003392D01*
X164665667Y-94001366D01*
X164658034Y-94003037D01*
X164657149Y-94003497D01*
X164651906Y-94008630D01*
X164650209Y-94015167D01*
X164232809Y-94015167D01*
X164233057Y-94014778D01*
X164363131Y-94014778D01*
X164363216Y-94014747D01*
X164366177Y-94013849D01*
X164371803Y-94012206D01*
X164372560Y-94011978D01*
X164377789Y-94009742D01*
X164379929Y-94007600D01*
X164380934Y-94005937D01*
X164385023Y-94003723D01*
X164387913Y-94002128D01*
X164393079Y-93996859D01*
X164397703Y-93989831D01*
X164400737Y-93982759D01*
X164401135Y-93977355D01*
X164400791Y-93976104D01*
X164401409Y-93973222D01*
X164405866Y-93972499D01*
X164408071Y-93972205D01*
X165427744Y-93972205D01*
X165431298Y-93975618D01*
X165438158Y-93979961D01*
X165440829Y-93981492D01*
X165449123Y-93986753D01*
X165455852Y-93991672D01*
X165456719Y-93992369D01*
X165462179Y-93996016D01*
X165466090Y-93997502D01*
X165469306Y-93998747D01*
X165473787Y-94002502D01*
X165477488Y-94005917D01*
X165481111Y-94007457D01*
X165482537Y-94005473D01*
X165482190Y-94004675D01*
X165479146Y-94001425D01*
X165474363Y-93997390D01*
X165469557Y-93993954D01*
X165466446Y-93992501D01*
X165466101Y-93992391D01*
X165462591Y-93990417D01*
X165456326Y-93986480D01*
X165448378Y-93981250D01*
X165446098Y-93979734D01*
X165438350Y-93974775D01*
X165433645Y-93972002D01*
X165445495Y-93972002D01*
X165445646Y-93974159D01*
X165449870Y-93977412D01*
X165452764Y-93978863D01*
X165456493Y-93979833D01*
X165457535Y-93977901D01*
X165455873Y-93975723D01*
X165451284Y-93972954D01*
X165449051Y-93972095D01*
X165445495Y-93972002D01*
X165433645Y-93972002D01*
X165432464Y-93971306D01*
X165429567Y-93969999D01*
X165427961Y-93970256D01*
X165427744Y-93972205D01*
X164408071Y-93972205D01*
X164410246Y-93971915D01*
X164413682Y-93969999D01*
X164413829Y-93969439D01*
X164411377Y-93968023D01*
X164405001Y-93967499D01*
X164401740Y-93967522D01*
X164396964Y-93968140D01*
X164395273Y-93970464D01*
X164395320Y-93975625D01*
X164394138Y-93984428D01*
X164389095Y-93993417D01*
X164381144Y-93999563D01*
X164376955Y-94002143D01*
X164374928Y-94004949D01*
X164374110Y-94006380D01*
X164370195Y-94007503D01*
X164367433Y-94008091D01*
X164364023Y-94011253D01*
X164363380Y-94013088D01*
X164363131Y-94014778D01*
X164233057Y-94014778D01*
X164234070Y-94013191D01*
X164241158Y-94001536D01*
X164246191Y-93992501D01*
X164252313Y-93982149D01*
X164264280Y-93966772D01*
X164277703Y-93953995D01*
X164281518Y-93950956D01*
X164290093Y-93944025D01*
X164297421Y-93937988D01*
X164302526Y-93934071D01*
X164312261Y-93927665D01*
X164322852Y-93921599D01*
X164332690Y-93916770D01*
X164340165Y-93914081D01*
X164341290Y-93913908D01*
X164347824Y-93913919D01*
X164357159Y-93914781D01*
X164367667Y-93916360D01*
X164383680Y-93918648D01*
X164402368Y-93920380D01*
X164422169Y-93921488D01*
X164441572Y-93921914D01*
X164459069Y-93921597D01*
X164473148Y-93920479D01*
X164485304Y-93918413D01*
X164494224Y-93915558D01*
X164501123Y-93911465D01*
X164502901Y-93910169D01*
X164508358Y-93907220D01*
X164511231Y-93907557D01*
X164511991Y-93907500D01*
X164515647Y-93904892D01*
X164521684Y-93899579D01*
X164529463Y-93892206D01*
X164538346Y-93883421D01*
X164547695Y-93873871D01*
X164556872Y-93864201D01*
X164565238Y-93855059D01*
X164572155Y-93847091D01*
X164576986Y-93840943D01*
X164586859Y-93828708D01*
X164600315Y-93815101D01*
X164617454Y-93800185D01*
X164638704Y-93783562D01*
X164642154Y-93780982D01*
X164665220Y-93764438D01*
X164686457Y-93750726D01*
X164707000Y-93739319D01*
X164727987Y-93729686D01*
X164750553Y-93721299D01*
X164775836Y-93713628D01*
X164804971Y-93706144D01*
X164809975Y-93704906D01*
X164821816Y-93701741D01*
X164832424Y-93698615D01*
X164839974Y-93696053D01*
X164842824Y-93695070D01*
X164850164Y-93693383D01*
X164860026Y-93692129D01*
X164873236Y-93691218D01*
X164890618Y-93690562D01*
X164907219Y-93690303D01*
X164931181Y-93690799D01*
X164954910Y-93692471D01*
X164979385Y-93695445D01*
X165005585Y-93699848D01*
X165034490Y-93705806D01*
X165067077Y-93713448D01*
X165068690Y-93713845D01*
X165081953Y-93717304D01*
X165093816Y-93720870D01*
X165105444Y-93724983D01*
X165118006Y-93730085D01*
X165132668Y-93736617D01*
X165150596Y-93745020D01*
X165153667Y-93746484D01*
X165168813Y-93753795D01*
X165183051Y-93760811D01*
X165195475Y-93767077D01*
X165205180Y-93772138D01*
X165211261Y-93775537D01*
X165223073Y-93783289D01*
X165244974Y-93800274D01*
X165266838Y-93820370D01*
X165287518Y-93842568D01*
X165290413Y-93845889D01*
X165301985Y-93858616D01*
X165315408Y-93872736D01*
X165329243Y-93886755D01*
X165342048Y-93899177D01*
X165372825Y-93928169D01*
X165417055Y-93926931D01*
X165433220Y-93926543D01*
X165445942Y-93926440D01*
X165455452Y-93926690D01*
X165462658Y-93927344D01*
X165468467Y-93928451D01*
X165473787Y-93930061D01*
X165491648Y-93935911D01*
X165516556Y-93942384D01*
X165539457Y-93945968D01*
X165561492Y-93946819D01*
X165583797Y-93945092D01*
X165587057Y-93944694D01*
X165598355Y-93943508D01*
X165612575Y-93942206D01*
X165628222Y-93940920D01*
X165643803Y-93939781D01*
X165683807Y-93937069D01*
X165718811Y-93945824D01*
X165720368Y-93946212D01*
X165735347Y-93949843D01*
X165750591Y-93953380D01*
X165764398Y-93956436D01*
X165775066Y-93958623D01*
X165775466Y-93958699D01*
X165788845Y-93961449D01*
X165803496Y-93964749D01*
X165816320Y-93967902D01*
X165820796Y-93969072D01*
X165822197Y-93969439D01*
X165831315Y-93971827D01*
X165837958Y-93973659D01*
X165841436Y-93974861D01*
X165842461Y-93975723D01*
X165841746Y-93976538D01*
X165840003Y-93977596D01*
X165839283Y-93977901D01*
X165836812Y-93978947D01*
X165830549Y-93979962D01*
X165827153Y-93980560D01*
X165826244Y-93982375D01*
X165826019Y-93984497D01*
X165822641Y-93987463D01*
X165819543Y-93989784D01*
X165817570Y-93993337D01*
X165817564Y-93993465D01*
X165815189Y-93996289D01*
X165809724Y-93999239D01*
X165802903Y-94001561D01*
X165796461Y-94002502D01*
X165794352Y-94002621D01*
X165793320Y-94003965D01*
X165794172Y-94005473D01*
X165795556Y-94007921D01*
X165796323Y-94008992D01*
X165801815Y-94014308D01*
X165808511Y-94018373D01*
X165814843Y-94020412D01*
X165819247Y-94019650D01*
X165821236Y-94016804D01*
X165820445Y-94014036D01*
X165816794Y-94013918D01*
X165813896Y-94013925D01*
X165808967Y-94011670D01*
X165807060Y-94010097D01*
X165806643Y-94008316D01*
X165809570Y-94006420D01*
X165816540Y-94003671D01*
X165820055Y-94002362D01*
X165826737Y-93999713D01*
X165829718Y-93997953D01*
X165829719Y-93997826D01*
X165856386Y-93997826D01*
X165858736Y-94003951D01*
X165861385Y-94010747D01*
X165862598Y-94017504D01*
X165862826Y-94021270D01*
X165864321Y-94025584D01*
X165868003Y-94028822D01*
X165874779Y-94031666D01*
X165885554Y-94034798D01*
X165885599Y-94034811D01*
X165897023Y-94038099D01*
X165908582Y-94041790D01*
X165917780Y-94045085D01*
X165923307Y-94047040D01*
X165930197Y-94048791D01*
X165934279Y-94048931D01*
X165938318Y-94048619D01*
X165945807Y-94049466D01*
X165954755Y-94051242D01*
X165963426Y-94053595D01*
X165970085Y-94056174D01*
X165975008Y-94058044D01*
X165979089Y-94058342D01*
X165981318Y-94058488D01*
X165987072Y-94060362D01*
X165994453Y-94063674D01*
X165999753Y-94066127D01*
X166006968Y-94068800D01*
X166011703Y-94069719D01*
X166016742Y-94069150D01*
X166022798Y-94067421D01*
X166025091Y-94065070D01*
X166024875Y-94064383D01*
X166021847Y-94062091D01*
X166016886Y-94060188D01*
X166012103Y-94059339D01*
X166009607Y-94060206D01*
X166008114Y-94061275D01*
X166003808Y-94060652D01*
X165998413Y-94058257D01*
X165993576Y-94054876D01*
X165990945Y-94051297D01*
X165989455Y-94048560D01*
X165984778Y-94043183D01*
X165978109Y-94036939D01*
X165970546Y-94030716D01*
X165963189Y-94025400D01*
X165960273Y-94023704D01*
X166058128Y-94023704D01*
X166058428Y-94026671D01*
X166059180Y-94027063D01*
X166060094Y-94025005D01*
X166059914Y-94023681D01*
X166058428Y-94023338D01*
X166058128Y-94023704D01*
X165960273Y-94023704D01*
X165957136Y-94021880D01*
X165953485Y-94021042D01*
X165950032Y-94021369D01*
X165944277Y-94019844D01*
X165941267Y-94018540D01*
X165941402Y-94019368D01*
X165945211Y-94022979D01*
X165946297Y-94023949D01*
X165953029Y-94029694D01*
X165960212Y-94035513D01*
X165963749Y-94038312D01*
X165966728Y-94041085D01*
X165966204Y-94042158D01*
X165962460Y-94042389D01*
X165957806Y-94041845D01*
X165953366Y-94039788D01*
X165951464Y-94038422D01*
X165948968Y-94039788D01*
X165947786Y-94041030D01*
X165942280Y-94042396D01*
X165934184Y-94041103D01*
X165924613Y-94037267D01*
X165916249Y-94033992D01*
X165907211Y-94033454D01*
X165906803Y-94033534D01*
X165901629Y-94033717D01*
X165900079Y-94031373D01*
X165899655Y-94030169D01*
X165895364Y-94027857D01*
X165886294Y-94026142D01*
X165882314Y-94025645D01*
X165875703Y-94024499D01*
X165872163Y-94022530D01*
X165870373Y-94018637D01*
X165869010Y-94011713D01*
X165868667Y-94009779D01*
X165868095Y-94004823D01*
X165869156Y-94003519D01*
X165872332Y-94004872D01*
X165873178Y-94005297D01*
X165879981Y-94007784D01*
X165888927Y-94010090D01*
X165898628Y-94011976D01*
X165907691Y-94013205D01*
X165914726Y-94013539D01*
X165918343Y-94012741D01*
X165922244Y-94010867D01*
X165928517Y-94010003D01*
X165935954Y-94010003D01*
X165930055Y-94003724D01*
X165929103Y-94002797D01*
X165922123Y-93998146D01*
X165913993Y-93994966D01*
X165912617Y-93994614D01*
X165903992Y-93991844D01*
X165896751Y-93988744D01*
X165891447Y-93986223D01*
X165886617Y-93985182D01*
X165885077Y-93987302D01*
X165885077Y-93987303D01*
X165887230Y-93989401D01*
X165892405Y-93991213D01*
X165896859Y-93992581D01*
X165902211Y-93995815D01*
X165904326Y-93999472D01*
X165902418Y-94002655D01*
X165899316Y-94004269D01*
X165895506Y-94005103D01*
X165894171Y-94004003D01*
X165896475Y-94001246D01*
X165898234Y-93999853D01*
X165899563Y-93998350D01*
X165896938Y-93999019D01*
X165892709Y-93999200D01*
X165885192Y-93998173D01*
X165876209Y-93996127D01*
X165870798Y-93994760D01*
X165862076Y-93993383D01*
X165857386Y-93994354D01*
X165856386Y-93997826D01*
X165829719Y-93997826D01*
X165829728Y-93996482D01*
X165827499Y-93994702D01*
X165826813Y-93994217D01*
X165825877Y-93993010D01*
X165829322Y-93993717D01*
X165835373Y-93993686D01*
X165842324Y-93991380D01*
X165849530Y-93988690D01*
X165856950Y-93987501D01*
X165862439Y-93986791D01*
X165866807Y-93984769D01*
X165869717Y-93983343D01*
X165875022Y-93984972D01*
X165875761Y-93985356D01*
X165880499Y-93986922D01*
X165881661Y-93985506D01*
X165878767Y-93981548D01*
X165873978Y-93978796D01*
X165867129Y-93977500D01*
X165863941Y-93977386D01*
X165860929Y-93976208D01*
X165861313Y-93973124D01*
X165863265Y-93968057D01*
X165865756Y-93961248D01*
X165867144Y-93957958D01*
X165870792Y-93950846D01*
X165875270Y-93943090D01*
X165879570Y-93936403D01*
X165882683Y-93932495D01*
X165885613Y-93928740D01*
X165886884Y-93926713D01*
X166031342Y-93926713D01*
X166037592Y-93933584D01*
X166038119Y-93934155D01*
X166043641Y-93939412D01*
X166048407Y-93942915D01*
X166049580Y-93943501D01*
X166051931Y-93943874D01*
X166051445Y-93941979D01*
X166048796Y-93938694D01*
X166044653Y-93934901D01*
X166039689Y-93931480D01*
X166031342Y-93926713D01*
X165886884Y-93926713D01*
X165890073Y-93921626D01*
X165895338Y-93912446D01*
X165900735Y-93902447D01*
X165905592Y-93892874D01*
X165909238Y-93884973D01*
X165911000Y-93879990D01*
X165911090Y-93879550D01*
X165913848Y-93872426D01*
X165917946Y-93867240D01*
X165920560Y-93865028D01*
X165921822Y-93861822D01*
X165919772Y-93856964D01*
X165915158Y-93849230D01*
X165908844Y-93839535D01*
X165901939Y-93829505D01*
X165895501Y-93820678D01*
X165890589Y-93814594D01*
X165890538Y-93814536D01*
X165886371Y-93808204D01*
X165886322Y-93802499D01*
X165886334Y-93802431D01*
X166029695Y-93802431D01*
X166033625Y-93807257D01*
X166038732Y-93811964D01*
X166044584Y-93815508D01*
X166048601Y-93815628D01*
X166050093Y-93812122D01*
X166048143Y-93807798D01*
X166041423Y-93803605D01*
X166034067Y-93800870D01*
X166029818Y-93800313D01*
X166029695Y-93802431D01*
X165886334Y-93802431D01*
X165886892Y-93799301D01*
X165887507Y-93791971D01*
X165887978Y-93782031D01*
X165888292Y-93770569D01*
X165888438Y-93758670D01*
X165888405Y-93747421D01*
X165888180Y-93737908D01*
X165888003Y-93735139D01*
X165998201Y-93735139D01*
X165998838Y-93737476D01*
X165999352Y-93738216D01*
X166001634Y-93739977D01*
X166001976Y-93739814D01*
X166001339Y-93737476D01*
X166000825Y-93736736D01*
X165998543Y-93734976D01*
X165998201Y-93735139D01*
X165888003Y-93735139D01*
X165887753Y-93731218D01*
X165887112Y-93728437D01*
X165886766Y-93727664D01*
X165886299Y-93722920D01*
X165886217Y-93714927D01*
X165886548Y-93704869D01*
X165886564Y-93704556D01*
X165886965Y-93693501D01*
X165886747Y-93686491D01*
X165885818Y-93682617D01*
X165884083Y-93680973D01*
X165883091Y-93680340D01*
X165879715Y-93676054D01*
X165876436Y-93669515D01*
X165875648Y-93667660D01*
X165870260Y-93657379D01*
X165862268Y-93644522D01*
X165852279Y-93630022D01*
X165840897Y-93614809D01*
X165837241Y-93609923D01*
X165831776Y-93600770D01*
X165829753Y-93592700D01*
X165831267Y-93584633D01*
X165836411Y-93575492D01*
X165845277Y-93564198D01*
X165851013Y-93557528D01*
X165864028Y-93543513D01*
X165876049Y-93532427D01*
X165888136Y-93523258D01*
X165893271Y-93519358D01*
X165895757Y-93515877D01*
X165895108Y-93512511D01*
X165894818Y-93511923D01*
X165894630Y-93507652D01*
X165898461Y-93502798D01*
X165904707Y-93498700D01*
X165912485Y-93497918D01*
X165919563Y-93501828D01*
X165923289Y-93504662D01*
X165928939Y-93507079D01*
X165933603Y-93508460D01*
X165940083Y-93511355D01*
X165944046Y-93513612D01*
X165944440Y-93514631D01*
X165940708Y-93514854D01*
X165938589Y-93514974D01*
X165935532Y-93516249D01*
X165936636Y-93519250D01*
X165941958Y-93524412D01*
X165948833Y-93530307D01*
X165940708Y-93528944D01*
X165938537Y-93528627D01*
X165933899Y-93528846D01*
X165932582Y-93531268D01*
X165931294Y-93533696D01*
X165926184Y-93534956D01*
X165921848Y-93535489D01*
X165921418Y-93537116D01*
X165925256Y-93539539D01*
X165933082Y-93542450D01*
X165939229Y-93544534D01*
X165945262Y-93547516D01*
X165948115Y-93551036D01*
X165948833Y-93555995D01*
X165948938Y-93557152D01*
X165952184Y-93563152D01*
X165960085Y-93570338D01*
X165960947Y-93571001D01*
X165967477Y-93576739D01*
X165970827Y-93581888D01*
X165972105Y-93588081D01*
X165972256Y-93590809D01*
X165971309Y-93596752D01*
X165967730Y-93600453D01*
X165966440Y-93601315D01*
X165963181Y-93604429D01*
X165962953Y-93606342D01*
X165966082Y-93605964D01*
X165966724Y-93605765D01*
X165970336Y-93606519D01*
X165971907Y-93609419D01*
X165970151Y-93612423D01*
X165970037Y-93612495D01*
X165969021Y-93614794D01*
X165972433Y-93618076D01*
X165977790Y-93621828D01*
X165972276Y-93623270D01*
X165972171Y-93623298D01*
X165968531Y-93625128D01*
X165969360Y-93627964D01*
X165970739Y-93631163D01*
X165970995Y-93637119D01*
X165970901Y-93637730D01*
X165971129Y-93641524D01*
X165973839Y-93641562D01*
X165977685Y-93641264D01*
X165983626Y-93642826D01*
X165985700Y-93644189D01*
X165989723Y-93650122D01*
X165991829Y-93658106D01*
X165991668Y-93666187D01*
X165988893Y-93672408D01*
X165986553Y-93675527D01*
X165987052Y-93678219D01*
X165991207Y-93681922D01*
X165991560Y-93682201D01*
X165995829Y-93685986D01*
X165997588Y-93688313D01*
X165997327Y-93688694D01*
X165994243Y-93688902D01*
X165989511Y-93688032D01*
X165985443Y-93686441D01*
X165983224Y-93687220D01*
X165980514Y-93691283D01*
X165979338Y-93694295D01*
X165979706Y-93697991D01*
X165983877Y-93701479D01*
X165987861Y-93704919D01*
X165988798Y-93707537D01*
X165989137Y-93709044D01*
X165992291Y-93713087D01*
X165997732Y-93718267D01*
X165997887Y-93718401D01*
X166003364Y-93724053D01*
X166003808Y-93725006D01*
X166002589Y-93726225D01*
X166003839Y-93727475D01*
X166004602Y-93726712D01*
X166005237Y-93728079D01*
X166003487Y-93729886D01*
X165998094Y-93728883D01*
X165997185Y-93728726D01*
X165997982Y-93730292D01*
X166001979Y-93733855D01*
X166002670Y-93734419D01*
X166007440Y-93738897D01*
X166008240Y-93739814D01*
X166011439Y-93743483D01*
G37*
G36*
X168266667Y-94043333D02*
G01*
X168263334Y-94046666D01*
X168260000Y-94043333D01*
X168263334Y-94040000D01*
X168266667Y-94043333D01*
G37*
G36*
X167846667Y-93650000D02*
G01*
X167843334Y-93653333D01*
X167840000Y-93650000D01*
X167843334Y-93646666D01*
X167846667Y-93650000D01*
G37*
G36*
X167753334Y-93763333D02*
G01*
X167750000Y-93766666D01*
X167746667Y-93763333D01*
X167750000Y-93760000D01*
X167753334Y-93763333D01*
G37*
G36*
X167713334Y-93576666D02*
G01*
X167710000Y-93580000D01*
X167706667Y-93576666D01*
X167710000Y-93573333D01*
X167713334Y-93576666D01*
G37*
G36*
X167433334Y-94056666D02*
G01*
X167430000Y-94060000D01*
X167426667Y-94056666D01*
X167430000Y-94053333D01*
X167433334Y-94056666D01*
G37*
G36*
X167386667Y-94003333D02*
G01*
X167383334Y-94006666D01*
X167380000Y-94003333D01*
X167383334Y-94000000D01*
X167386667Y-94003333D01*
G37*
G36*
X168057304Y-94158969D02*
G01*
X168055246Y-94161931D01*
X168049607Y-94166666D01*
X168048675Y-94166601D01*
X168047207Y-94162742D01*
X168054364Y-94156030D01*
X168058090Y-94154407D01*
X168057304Y-94158969D01*
G37*
G36*
X167701778Y-94052506D02*
G01*
X167702640Y-94053384D01*
X167705835Y-94058267D01*
X167698046Y-94056238D01*
X167691825Y-94052913D01*
X167689824Y-94047954D01*
X167693038Y-94047240D01*
X167701778Y-94052506D01*
G37*
G36*
X167314826Y-92245498D02*
G01*
X167320000Y-92253358D01*
X167317292Y-92256957D01*
X167306096Y-92253027D01*
X167297974Y-92247358D01*
X167295809Y-92241969D01*
X167304227Y-92240621D01*
X167314826Y-92245498D01*
G37*
G36*
X168294875Y-94073589D02*
G01*
X168300000Y-94080000D01*
X168299924Y-94081508D01*
X168297061Y-94086666D01*
X168295991Y-94086359D01*
X168290000Y-94080000D01*
X168288959Y-94077417D01*
X168292940Y-94073333D01*
X168294875Y-94073589D01*
G37*
G36*
X168247931Y-94034060D02*
G01*
X168253334Y-94039790D01*
X168251918Y-94042549D01*
X168243334Y-94042410D01*
X168238547Y-94040252D01*
X168233334Y-94035953D01*
X168234439Y-94034759D01*
X168243334Y-94033333D01*
X168247931Y-94034060D01*
G37*
G36*
X167911907Y-93694438D02*
G01*
X167913334Y-93703333D01*
X167912606Y-93707930D01*
X167906876Y-93713333D01*
X167904118Y-93711917D01*
X167904256Y-93703333D01*
X167906415Y-93698546D01*
X167910714Y-93693333D01*
X167911907Y-93694438D01*
G37*
G36*
X167734875Y-93553589D02*
G01*
X167740000Y-93560000D01*
X167739924Y-93561508D01*
X167737061Y-93566666D01*
X167735991Y-93566359D01*
X167730000Y-93560000D01*
X167728959Y-93557417D01*
X167732940Y-93553333D01*
X167734875Y-93553589D01*
G37*
G36*
X167736893Y-93640145D02*
G01*
X167749964Y-93643375D01*
X167753239Y-93649236D01*
X167745000Y-93655584D01*
X167739324Y-93657709D01*
X167729061Y-93658267D01*
X167720000Y-93650000D01*
X167716450Y-93644777D01*
X167718933Y-93640904D01*
X167732518Y-93640000D01*
X167736893Y-93640145D01*
G37*
G36*
X168311409Y-94139734D02*
G01*
X168320000Y-94153333D01*
X168322505Y-94157993D01*
X168329929Y-94173096D01*
X168333054Y-94181666D01*
X168331714Y-94186709D01*
X168326165Y-94181532D01*
X168317155Y-94165642D01*
X168314504Y-94160146D01*
X168308323Y-94144602D01*
X168307404Y-94137311D01*
X168311409Y-94139734D01*
G37*
G36*
X167685790Y-93487083D02*
G01*
X167697136Y-93499341D01*
X167700613Y-93503760D01*
X167708698Y-93517864D01*
X167709656Y-93527223D01*
X167703730Y-93529352D01*
X167693868Y-93523758D01*
X167683771Y-93513000D01*
X167676653Y-93500594D01*
X167675723Y-93490057D01*
X167679461Y-93484578D01*
X167685790Y-93487083D01*
G37*
G36*
X167929058Y-94117227D02*
G01*
X167934654Y-94120238D01*
X167940000Y-94127522D01*
X167944421Y-94133661D01*
X167956667Y-94141213D01*
X167967944Y-94147956D01*
X167973334Y-94154857D01*
X167972239Y-94156111D01*
X167964297Y-94153360D01*
X167951679Y-94145391D01*
X167937980Y-94134626D01*
X167926799Y-94123491D01*
X167924768Y-94120995D01*
X167921855Y-94115467D01*
X167929058Y-94117227D01*
G37*
G36*
X167800989Y-93770053D02*
G01*
X167816900Y-93771204D01*
X167823235Y-93774705D01*
X167822805Y-93781666D01*
X167821900Y-93785341D01*
X167824138Y-93792498D01*
X167833144Y-93790665D01*
X167846667Y-93780000D01*
X167851457Y-93775408D01*
X167858251Y-93771342D01*
X167860000Y-93776948D01*
X167858880Y-93783352D01*
X167851667Y-93796694D01*
X167846421Y-93801748D01*
X167837907Y-93806413D01*
X167830959Y-93804454D01*
X167816106Y-93798612D01*
X167797574Y-93790638D01*
X167779373Y-93782315D01*
X167765512Y-93775426D01*
X167760000Y-93771757D01*
X167762221Y-93771127D01*
X167774258Y-93770317D01*
X167793254Y-93770000D01*
X167800989Y-93770053D01*
G37*
G36*
X167172741Y-93573015D02*
G01*
X167178375Y-93575590D01*
X167197000Y-93581367D01*
X167220023Y-93586219D01*
X167243973Y-93589703D01*
X167265377Y-93591377D01*
X167280766Y-93590798D01*
X167286667Y-93587525D01*
X167291103Y-93582719D01*
X167303724Y-93580337D01*
X167319303Y-93581380D01*
X167332521Y-93586023D01*
X167336571Y-93589785D01*
X167337743Y-93598259D01*
X167337554Y-93598849D01*
X167342065Y-93606458D01*
X167354867Y-93618795D01*
X167373555Y-93633493D01*
X167376550Y-93635669D01*
X167395195Y-93649523D01*
X167408351Y-93659827D01*
X167413334Y-93664488D01*
X167413069Y-93665313D01*
X167405830Y-93666801D01*
X167392899Y-93664768D01*
X167379967Y-93659981D01*
X167372199Y-93656923D01*
X167363345Y-93659981D01*
X167354574Y-93665702D01*
X167334954Y-93664500D01*
X167305553Y-93654384D01*
X167305115Y-93654198D01*
X167277162Y-93643280D01*
X167256605Y-93637176D01*
X167244975Y-93636224D01*
X167243805Y-93640762D01*
X167245580Y-93644815D01*
X167240922Y-93643902D01*
X167237971Y-93641386D01*
X167236483Y-93633630D01*
X167236569Y-93630653D01*
X167228211Y-93625458D01*
X167211350Y-93621635D01*
X167189150Y-93620091D01*
X167170881Y-93617204D01*
X167158624Y-93606395D01*
X167150793Y-93585000D01*
X167150709Y-93584646D01*
X167149892Y-93570649D01*
X167156982Y-93566910D01*
X167172741Y-93573015D01*
G37*
G36*
X168527360Y-94200187D02*
G01*
X168519750Y-94201382D01*
X168501881Y-94206067D01*
X168480000Y-94213053D01*
X168459005Y-94220311D01*
X168444622Y-94224412D01*
X168436592Y-94224005D01*
X168431548Y-94218807D01*
X168426127Y-94208535D01*
X168424209Y-94205000D01*
X168418546Y-94196666D01*
X168426667Y-94196666D01*
X168430000Y-94200000D01*
X168433334Y-94196666D01*
X168430000Y-94193333D01*
X168426667Y-94196666D01*
X168418546Y-94196666D01*
X168411309Y-94186015D01*
X168397721Y-94172081D01*
X168386709Y-94166666D01*
X168383817Y-94165467D01*
X168373930Y-94156453D01*
X168361709Y-94141504D01*
X168339635Y-94112088D01*
X168316021Y-94083348D01*
X168298107Y-94065398D01*
X168285448Y-94057749D01*
X168276403Y-94052610D01*
X168276391Y-94040869D01*
X168277427Y-94032796D01*
X168271577Y-94026184D01*
X168255322Y-94020439D01*
X168251721Y-94019472D01*
X168231993Y-94015147D01*
X168217352Y-94013370D01*
X168216950Y-94013371D01*
X168197669Y-94016544D01*
X168173554Y-94024493D01*
X168149060Y-94035266D01*
X168128641Y-94046910D01*
X168116752Y-94057473D01*
X168106987Y-94068207D01*
X168096069Y-94073333D01*
X168093594Y-94073664D01*
X168080193Y-94079397D01*
X168063926Y-94090000D01*
X168050077Y-94099212D01*
X168029894Y-94105590D01*
X168008835Y-94101665D01*
X167983260Y-94087314D01*
X167973039Y-94080680D01*
X167954563Y-94069891D01*
X167941544Y-94063823D01*
X167938627Y-94063049D01*
X167922815Y-94060671D01*
X167900742Y-94058858D01*
X167875665Y-94057684D01*
X167850846Y-94057222D01*
X167829543Y-94057546D01*
X167815017Y-94058731D01*
X167810526Y-94060850D01*
X167811745Y-94063119D01*
X167810602Y-94066213D01*
X167801156Y-94064054D01*
X167781562Y-94056356D01*
X167773550Y-94052756D01*
X167763663Y-94045891D01*
X167765669Y-94040617D01*
X167768383Y-94038266D01*
X167766849Y-94032658D01*
X167755585Y-94028373D01*
X167737155Y-94026666D01*
X167724271Y-94023313D01*
X167709629Y-94012923D01*
X167698793Y-94004679D01*
X167685014Y-94002363D01*
X167672705Y-94000506D01*
X167657298Y-93988790D01*
X167656726Y-93988184D01*
X167641283Y-93976813D01*
X167625880Y-93972219D01*
X167625585Y-93972224D01*
X167611146Y-93972997D01*
X167588657Y-93974728D01*
X167563150Y-93976975D01*
X167539658Y-93979294D01*
X167523215Y-93981245D01*
X167512952Y-93980529D01*
X167496729Y-93977277D01*
X167483525Y-93974378D01*
X167481501Y-93976588D01*
X167489168Y-93985746D01*
X167496201Y-93996657D01*
X167496927Y-94006246D01*
X167496857Y-94006358D01*
X167486594Y-94012634D01*
X167473394Y-94011792D01*
X167464620Y-94004281D01*
X167464345Y-94003677D01*
X167455120Y-93996299D01*
X167439072Y-93990814D01*
X167433759Y-93989527D01*
X167415285Y-93982450D01*
X167397139Y-93972504D01*
X167382292Y-93961747D01*
X167373713Y-93952235D01*
X167374373Y-93946024D01*
X167375064Y-93945562D01*
X167375960Y-93939829D01*
X167364175Y-93932503D01*
X167356760Y-93929375D01*
X167346109Y-93927764D01*
X167339365Y-93933712D01*
X167336273Y-93941277D01*
X167335372Y-93957222D01*
X167335888Y-93962115D01*
X167332242Y-93969323D01*
X167318827Y-93971111D01*
X167318302Y-93971109D01*
X167304596Y-93968597D01*
X167301630Y-93960555D01*
X167300027Y-93954199D01*
X167290375Y-93950226D01*
X167270000Y-93948136D01*
X167249407Y-93946772D01*
X167232210Y-93944036D01*
X167225546Y-93938703D01*
X167227811Y-93929066D01*
X167237403Y-93913417D01*
X167244859Y-93901519D01*
X167250319Y-93889286D01*
X167252867Y-93875223D01*
X167253132Y-93855508D01*
X167251743Y-93826321D01*
X167251585Y-93823551D01*
X167250177Y-93796259D01*
X167250016Y-93780053D01*
X167251482Y-93772879D01*
X167254956Y-93772682D01*
X167260821Y-93777409D01*
X167268759Y-93786920D01*
X167273617Y-93799366D01*
X167277370Y-93805401D01*
X167290364Y-93817602D01*
X167310439Y-93833362D01*
X167335284Y-93850755D01*
X167351498Y-93861818D01*
X167375317Y-93879633D01*
X167390253Y-93893216D01*
X167394941Y-93901408D01*
X167397555Y-93907538D01*
X167411935Y-93918386D01*
X167438275Y-93931863D01*
X167455222Y-93939296D01*
X167477189Y-93946964D01*
X167495727Y-93949694D01*
X167515902Y-93948575D01*
X167523538Y-93947532D01*
X167539133Y-93943660D01*
X167553684Y-93936210D01*
X167570598Y-93923152D01*
X167593284Y-93902454D01*
X167638097Y-93860180D01*
X167709390Y-93883287D01*
X167743781Y-93893904D01*
X167783516Y-93904764D01*
X167818015Y-93912643D01*
X167845441Y-93917184D01*
X167863956Y-93918030D01*
X167871726Y-93914824D01*
X167877371Y-93911075D01*
X167891073Y-93912298D01*
X167908825Y-93918141D01*
X167926870Y-93927014D01*
X167941451Y-93937323D01*
X167948811Y-93947479D01*
X167949978Y-93950809D01*
X167955825Y-93956559D01*
X167968441Y-93959300D01*
X167991087Y-93960000D01*
X168007265Y-93959546D01*
X168032661Y-93957298D01*
X168051711Y-93953798D01*
X168052238Y-93953648D01*
X168067670Y-93950931D01*
X168073334Y-93953798D01*
X168073343Y-93954148D01*
X168078844Y-93959680D01*
X168092042Y-93959160D01*
X168109314Y-93953324D01*
X168127039Y-93942905D01*
X168127509Y-93942557D01*
X168145548Y-93930891D01*
X168170341Y-93916844D01*
X168196667Y-93903380D01*
X168210470Y-93896830D01*
X168230968Y-93888231D01*
X168247601Y-93884242D01*
X168265652Y-93883897D01*
X168290404Y-93886231D01*
X168315111Y-93890264D01*
X168346727Y-93898147D01*
X168372731Y-93907422D01*
X168407989Y-93923333D01*
X168405662Y-94003333D01*
X168403334Y-94083333D01*
X168428334Y-94082572D01*
X168432882Y-94082545D01*
X168447457Y-94084358D01*
X168453334Y-94088431D01*
X168454516Y-94090303D01*
X168465592Y-94092209D01*
X168486660Y-94090630D01*
X168519986Y-94086209D01*
X168506814Y-94119627D01*
X168499034Y-94143799D01*
X168498063Y-94162889D01*
X168505958Y-94172031D01*
X168522780Y-94171287D01*
X168548591Y-94160718D01*
X168562937Y-94154016D01*
X168571197Y-94152643D01*
X168573334Y-94157703D01*
X168573317Y-94158214D01*
X168567693Y-94170128D01*
X168555121Y-94183901D01*
X168540158Y-94195324D01*
X168536626Y-94196666D01*
X168527360Y-94200187D01*
G37*
G36*
X167847591Y-94123767D02*
G01*
X167860290Y-94123241D01*
X167866039Y-94123281D01*
X167878685Y-94129589D01*
X167897375Y-94144197D01*
X167923411Y-94168029D01*
X167936002Y-94180075D01*
X167954337Y-94198244D01*
X167965372Y-94211108D01*
X167970702Y-94221214D01*
X167971926Y-94231106D01*
X167970639Y-94243333D01*
X167969986Y-94248040D01*
X167967539Y-94267175D01*
X167966213Y-94280000D01*
X167965721Y-94284391D01*
X167962059Y-94300000D01*
X167961547Y-94301394D01*
X167957963Y-94305134D01*
X167953334Y-94296666D01*
X167951204Y-94291321D01*
X167948756Y-94287839D01*
X167946042Y-94291267D01*
X167941871Y-94303558D01*
X167935053Y-94326666D01*
X167933595Y-94332046D01*
X167928693Y-94360130D01*
X167926646Y-94391427D01*
X167927207Y-94423191D01*
X167930130Y-94452676D01*
X167935169Y-94477136D01*
X167942078Y-94493826D01*
X167950608Y-94500000D01*
X167954063Y-94496118D01*
X167958655Y-94482278D01*
X167962988Y-94462051D01*
X167966488Y-94439296D01*
X167968584Y-94417871D01*
X167968702Y-94401634D01*
X167966271Y-94394444D01*
X167964056Y-94393100D01*
X167960000Y-94383607D01*
X167960638Y-94379237D01*
X167965890Y-94363129D01*
X167974802Y-94341698D01*
X167985385Y-94319276D01*
X167995646Y-94300196D01*
X168003593Y-94288788D01*
X168006288Y-94285386D01*
X168014157Y-94269746D01*
X168020824Y-94249491D01*
X168023308Y-94240614D01*
X168028942Y-94225837D01*
X168033596Y-94220000D01*
X168033719Y-94219994D01*
X168038739Y-94213955D01*
X168043347Y-94199941D01*
X168043596Y-94198854D01*
X168048490Y-94186625D01*
X168054013Y-94183752D01*
X168055787Y-94184182D01*
X168066366Y-94180429D01*
X168080648Y-94170477D01*
X168084753Y-94167123D01*
X168098541Y-94157289D01*
X168107136Y-94153333D01*
X168111427Y-94151182D01*
X168124276Y-94141800D01*
X168142940Y-94126679D01*
X168165040Y-94107695D01*
X168185202Y-94090200D01*
X168202877Y-94076069D01*
X168215025Y-94068677D01*
X168223934Y-94066691D01*
X168231894Y-94068779D01*
X168242464Y-94077073D01*
X168251051Y-94092750D01*
X168255437Y-94107055D01*
X168263671Y-94126666D01*
X168268505Y-94136980D01*
X168277427Y-94157915D01*
X168286828Y-94181557D01*
X168290898Y-94191141D01*
X168304054Y-94215471D01*
X168320193Y-94239394D01*
X168337063Y-94260038D01*
X168352412Y-94274530D01*
X168363991Y-94280000D01*
X168372069Y-94281556D01*
X168386537Y-94288132D01*
X168393623Y-94291633D01*
X168404018Y-94290904D01*
X168418114Y-94281510D01*
X168432833Y-94270496D01*
X168467291Y-94251147D01*
X168499913Y-94242839D01*
X168502969Y-94242471D01*
X168514305Y-94239419D01*
X168526770Y-94232615D01*
X168542362Y-94220565D01*
X168563078Y-94201776D01*
X168590914Y-94174751D01*
X168595740Y-94169971D01*
X168621838Y-94143548D01*
X168645746Y-94118461D01*
X168664990Y-94097346D01*
X168677100Y-94082839D01*
X168682711Y-94075640D01*
X168698983Y-94057061D01*
X168713334Y-94043398D01*
X168728735Y-94030348D01*
X168745903Y-94014465D01*
X168758649Y-94004456D01*
X168765676Y-94005015D01*
X168766416Y-94015923D01*
X168760825Y-94036441D01*
X168748862Y-94065832D01*
X168745501Y-94073133D01*
X168733760Y-94096669D01*
X168723359Y-94114810D01*
X168716225Y-94124114D01*
X168711385Y-94131100D01*
X168704788Y-94148412D01*
X168699372Y-94170780D01*
X168695883Y-94185749D01*
X168685439Y-94216863D01*
X168672767Y-94244144D01*
X168664497Y-94259461D01*
X168656447Y-94276591D01*
X168653334Y-94286509D01*
X168651224Y-94296864D01*
X168641770Y-94317918D01*
X168626421Y-94343592D01*
X168607045Y-94370853D01*
X168585510Y-94396666D01*
X168569873Y-94413858D01*
X168545554Y-94440738D01*
X168518708Y-94470526D01*
X168492821Y-94499359D01*
X168482784Y-94510457D01*
X168456255Y-94538116D01*
X168432743Y-94559156D01*
X168408555Y-94576665D01*
X168380000Y-94593728D01*
X168370745Y-94598912D01*
X168338924Y-94616844D01*
X168307490Y-94634696D01*
X168282077Y-94649273D01*
X168260386Y-94660999D01*
X168228068Y-94676602D01*
X168198743Y-94688965D01*
X168181822Y-94694754D01*
X168146821Y-94704865D01*
X168106241Y-94715034D01*
X168064647Y-94724211D01*
X168026601Y-94731349D01*
X167996667Y-94735398D01*
X167979806Y-94736642D01*
X167939175Y-94738302D01*
X167894402Y-94738764D01*
X167849845Y-94738070D01*
X167809863Y-94736260D01*
X167778816Y-94733374D01*
X167751397Y-94729827D01*
X167722368Y-94726390D01*
X167700000Y-94724070D01*
X167682812Y-94721272D01*
X167651282Y-94713172D01*
X167612760Y-94701098D01*
X167570077Y-94686139D01*
X167526064Y-94669382D01*
X167483552Y-94651917D01*
X167445373Y-94634833D01*
X167414356Y-94619217D01*
X167393334Y-94606158D01*
X167389719Y-94603479D01*
X167368115Y-94588941D01*
X167347776Y-94577120D01*
X167346770Y-94576591D01*
X167330131Y-94565902D01*
X167308516Y-94549676D01*
X167286334Y-94531206D01*
X167263277Y-94511195D01*
X167233436Y-94485831D01*
X167206387Y-94463333D01*
X167203559Y-94461017D01*
X167169832Y-94433127D01*
X167144381Y-94411274D01*
X167125127Y-94393430D01*
X167109993Y-94377567D01*
X167096901Y-94361657D01*
X167083773Y-94343673D01*
X167079113Y-94336891D01*
X167059545Y-94305421D01*
X167041246Y-94271698D01*
X167025803Y-94239021D01*
X167014804Y-94210688D01*
X167009835Y-94190000D01*
X167009158Y-94183153D01*
X167005013Y-94153368D01*
X166999474Y-94125596D01*
X166993387Y-94103594D01*
X166987597Y-94091120D01*
X166981538Y-94080613D01*
X166972829Y-94060214D01*
X166963546Y-94034847D01*
X166955130Y-94008738D01*
X166949023Y-93986112D01*
X166946667Y-93971191D01*
X166946648Y-93970251D01*
X166944724Y-93955146D01*
X166940260Y-93932227D01*
X166934136Y-93906066D01*
X166927395Y-93877203D01*
X166921433Y-93847505D01*
X166917719Y-93824133D01*
X166916076Y-93814039D01*
X166910027Y-93793053D01*
X166902408Y-93778976D01*
X166896220Y-93769529D01*
X166897158Y-93760355D01*
X166903643Y-93756962D01*
X166918979Y-93757569D01*
X166934763Y-93764699D01*
X166945364Y-93776469D01*
X166949072Y-93782210D01*
X166961588Y-93796479D01*
X166979852Y-93814700D01*
X167001344Y-93834633D01*
X167023546Y-93854036D01*
X167043939Y-93870670D01*
X167060006Y-93882294D01*
X167069227Y-93886666D01*
X167075577Y-93888332D01*
X167086919Y-93896970D01*
X167093319Y-93902191D01*
X167104367Y-93903859D01*
X167106049Y-93903571D01*
X167116362Y-93908342D01*
X167128153Y-93920583D01*
X167145380Y-93939200D01*
X167178538Y-93964028D01*
X167221441Y-93987818D01*
X167272052Y-94009476D01*
X167328334Y-94027913D01*
X167332241Y-94029120D01*
X167347401Y-94036577D01*
X167353334Y-94044720D01*
X167354871Y-94049670D01*
X167364060Y-94062785D01*
X167379038Y-94079124D01*
X167396905Y-94096022D01*
X167414765Y-94110812D01*
X167429721Y-94120829D01*
X167438874Y-94123409D01*
X167449168Y-94124058D01*
X167462704Y-94131834D01*
X167473509Y-94140322D01*
X167493853Y-94154080D01*
X167517174Y-94168257D01*
X167539984Y-94180857D01*
X167558794Y-94189881D01*
X167570116Y-94193333D01*
X167571085Y-94193318D01*
X167578260Y-94189895D01*
X167576870Y-94178333D01*
X167574238Y-94167474D01*
X167572425Y-94150603D01*
X167571790Y-94143102D01*
X167566575Y-94126494D01*
X167565787Y-94124767D01*
X167565803Y-94123333D01*
X167693334Y-94123333D01*
X167696667Y-94126666D01*
X167700000Y-94123333D01*
X167696667Y-94120000D01*
X167693334Y-94123333D01*
X167565803Y-94123333D01*
X167565891Y-94115385D01*
X167573435Y-94102374D01*
X167589769Y-94083219D01*
X167619052Y-94051323D01*
X167657860Y-94069707D01*
X167676398Y-94078295D01*
X167701062Y-94089230D01*
X167720000Y-94097082D01*
X167720354Y-94097217D01*
X167742010Y-94104126D01*
X167769249Y-94110923D01*
X167798384Y-94116920D01*
X167825727Y-94121431D01*
X167843529Y-94123333D01*
X167847591Y-94123767D01*
G37*
G36*
X167795916Y-92144789D02*
G01*
X167836414Y-92161617D01*
X167877979Y-92179217D01*
X167917918Y-92196450D01*
X167953541Y-92212178D01*
X167982155Y-92225260D01*
X168001069Y-92234559D01*
X168010626Y-92239439D01*
X168028473Y-92247392D01*
X168040000Y-92250958D01*
X168044026Y-92251337D01*
X168058334Y-92252624D01*
X168062238Y-92254162D01*
X168066667Y-92263612D01*
X168070842Y-92270346D01*
X168085722Y-92280998D01*
X168109326Y-92293030D01*
X168122545Y-92299353D01*
X168151213Y-92314483D01*
X168183402Y-92332764D01*
X168214326Y-92351527D01*
X168229817Y-92361182D01*
X168264886Y-92382398D01*
X168300179Y-92403049D01*
X168330000Y-92419776D01*
X168341610Y-92426174D01*
X168374822Y-92445213D01*
X168410720Y-92466581D01*
X168443334Y-92486751D01*
X168457522Y-92495610D01*
X168490544Y-92515399D01*
X168523154Y-92534012D01*
X168550000Y-92548356D01*
X168554233Y-92550527D01*
X168578422Y-92564727D01*
X168602198Y-92582416D01*
X168628439Y-92605931D01*
X168660024Y-92637606D01*
X168660103Y-92637688D01*
X168687104Y-92666878D01*
X168713811Y-92697780D01*
X168737144Y-92726714D01*
X168754027Y-92750000D01*
X168774459Y-92782025D01*
X168795434Y-92816571D01*
X168814932Y-92850208D01*
X168831504Y-92880369D01*
X168843701Y-92904488D01*
X168850073Y-92920000D01*
X168850591Y-92921721D01*
X168857428Y-92939919D01*
X168866558Y-92960000D01*
X168882761Y-93000392D01*
X168895397Y-93059597D01*
X168897941Y-93123236D01*
X168890110Y-93188567D01*
X168888930Y-93194225D01*
X168881767Y-93222888D01*
X168873686Y-93248249D01*
X168866221Y-93265381D01*
X168864322Y-93268722D01*
X168856505Y-93284978D01*
X168853334Y-93296054D01*
X168850748Y-93306644D01*
X168841139Y-93327301D01*
X168825858Y-93354056D01*
X168806421Y-93384551D01*
X168784344Y-93416429D01*
X168761143Y-93447332D01*
X168738334Y-93474904D01*
X168734212Y-93479746D01*
X168724063Y-93493428D01*
X168720000Y-93501908D01*
X168715892Y-93512538D01*
X168703715Y-93528951D01*
X168686346Y-93547359D01*
X168666703Y-93564697D01*
X168647704Y-93577898D01*
X168638805Y-93583188D01*
X168612666Y-93600305D01*
X168589342Y-93617430D01*
X168572806Y-93630555D01*
X168528126Y-93664976D01*
X168489143Y-93692999D01*
X168452806Y-93716645D01*
X168416064Y-93737935D01*
X168375866Y-93758892D01*
X168339114Y-93777062D01*
X168298983Y-93796160D01*
X168266087Y-93810705D01*
X168237913Y-93821795D01*
X168211947Y-93830529D01*
X168191321Y-93838229D01*
X168174338Y-93848485D01*
X168168116Y-93858435D01*
X168173820Y-93866967D01*
X168175987Y-93868512D01*
X168177373Y-93872954D01*
X168169856Y-93877518D01*
X168152010Y-93882829D01*
X168122407Y-93889513D01*
X168098013Y-93895056D01*
X168075028Y-93901038D01*
X168060000Y-93905821D01*
X168049062Y-93909813D01*
X168034313Y-93912191D01*
X168019125Y-93908722D01*
X167998068Y-93898792D01*
X167987804Y-93894224D01*
X167955840Y-93885091D01*
X167916667Y-93879218D01*
X167912929Y-93878859D01*
X167884197Y-93875750D01*
X167858355Y-93872414D01*
X167840604Y-93869513D01*
X167827923Y-93867393D01*
X167821137Y-93868828D01*
X167822061Y-93875753D01*
X167823408Y-93881688D01*
X167820505Y-93886666D01*
X167817980Y-93885969D01*
X167811453Y-93878047D01*
X167810372Y-93876478D01*
X167799943Y-93868642D01*
X167781325Y-93857997D01*
X167757635Y-93846380D01*
X167752635Y-93844058D01*
X167728883Y-93831686D01*
X167712787Y-93820923D01*
X167706749Y-93813333D01*
X167706016Y-93808952D01*
X167701065Y-93793446D01*
X167693069Y-93774007D01*
X167688826Y-93764029D01*
X167683685Y-93748773D01*
X167683161Y-93741283D01*
X167685163Y-93741325D01*
X167694799Y-93747364D01*
X167709536Y-93759379D01*
X167726638Y-93774844D01*
X167743370Y-93791232D01*
X167756994Y-93806015D01*
X167764777Y-93816666D01*
X167768254Y-93821192D01*
X167784752Y-93831833D01*
X167811118Y-93841666D01*
X167829791Y-93847054D01*
X167849167Y-93851686D01*
X167860874Y-93852108D01*
X167867924Y-93848239D01*
X167873334Y-93840000D01*
X167880329Y-93832060D01*
X167894346Y-93826666D01*
X167899397Y-93826355D01*
X167905569Y-93821704D01*
X167904740Y-93808453D01*
X167904023Y-93795706D01*
X167909381Y-93776053D01*
X167923206Y-93752693D01*
X167946572Y-93723443D01*
X167958628Y-93708704D01*
X167969246Y-93693718D01*
X167973334Y-93685023D01*
X167976288Y-93678100D01*
X167985949Y-93663696D01*
X168000000Y-93645899D01*
X168005945Y-93638811D01*
X168019528Y-93621783D01*
X168025283Y-93612067D01*
X168024050Y-93607687D01*
X168016667Y-93606666D01*
X168009867Y-93605874D01*
X168007314Y-93600418D01*
X168013076Y-93587149D01*
X168015809Y-93579316D01*
X168011409Y-93565423D01*
X168010954Y-93564886D01*
X167997492Y-93552431D01*
X167975695Y-93535599D01*
X167948638Y-93516492D01*
X167919398Y-93497210D01*
X167891049Y-93479855D01*
X167866667Y-93466528D01*
X167866491Y-93466440D01*
X167842678Y-93454605D01*
X167821809Y-93444213D01*
X167808386Y-93437506D01*
X167799201Y-93430046D01*
X167793386Y-93415393D01*
X167792156Y-93405996D01*
X167787209Y-93397001D01*
X167781785Y-93388517D01*
X167775394Y-93369324D01*
X167768944Y-93342571D01*
X167762993Y-93311219D01*
X167758100Y-93278229D01*
X167754820Y-93246560D01*
X167753713Y-93219174D01*
X167754093Y-93163333D01*
X167809330Y-93117065D01*
X167827078Y-93102478D01*
X167849807Y-93084613D01*
X167868088Y-93071180D01*
X167879096Y-93064315D01*
X167889879Y-93056064D01*
X167898014Y-93040551D01*
X167899811Y-93023344D01*
X167894987Y-93008750D01*
X167883257Y-93001077D01*
X167881476Y-93000708D01*
X167869299Y-92995560D01*
X167855770Y-92984719D01*
X167839551Y-92966728D01*
X167819305Y-92940128D01*
X167793693Y-92903461D01*
X167783188Y-92888154D01*
X167760835Y-92856789D01*
X167743645Y-92835047D01*
X167730409Y-92821629D01*
X167719914Y-92815233D01*
X167710950Y-92814557D01*
X167710595Y-92814614D01*
X167699749Y-92810708D01*
X167683691Y-92798995D01*
X167665150Y-92782146D01*
X167646853Y-92762828D01*
X167631531Y-92743712D01*
X167621913Y-92727467D01*
X167619152Y-92718822D01*
X167614471Y-92696421D01*
X167610157Y-92667307D01*
X167606880Y-92635572D01*
X167604651Y-92601198D01*
X167604470Y-92573841D01*
X167606707Y-92551916D01*
X167611542Y-92531438D01*
X167615080Y-92518446D01*
X167620194Y-92495387D01*
X167622545Y-92478333D01*
X167624343Y-92465769D01*
X167627931Y-92460000D01*
X167628825Y-92459480D01*
X167631013Y-92450644D01*
X167631264Y-92434334D01*
X167630731Y-92427781D01*
X167628141Y-92417097D01*
X167622070Y-92406108D01*
X167610887Y-92392685D01*
X167592963Y-92374702D01*
X167566667Y-92350029D01*
X167552741Y-92337555D01*
X167524047Y-92313588D01*
X167491761Y-92288288D01*
X167457870Y-92263052D01*
X167424364Y-92239274D01*
X167393230Y-92218352D01*
X167366457Y-92201679D01*
X167346032Y-92190652D01*
X167333944Y-92186666D01*
X167330718Y-92186229D01*
X167315711Y-92181805D01*
X167293521Y-92173633D01*
X167267674Y-92162973D01*
X167256075Y-92158106D01*
X167217647Y-92144717D01*
X167186824Y-92138571D01*
X167164709Y-92139805D01*
X167152407Y-92148559D01*
X167149988Y-92151347D01*
X167135022Y-92157349D01*
X167109848Y-92160161D01*
X167076531Y-92159652D01*
X167037136Y-92155697D01*
X167005745Y-92151394D01*
X167020134Y-92136666D01*
X167240000Y-92136666D01*
X167243334Y-92140000D01*
X167246667Y-92136666D01*
X167243334Y-92133333D01*
X167240000Y-92136666D01*
X167020134Y-92136666D01*
X167037873Y-92118510D01*
X167054944Y-92102363D01*
X167078885Y-92082620D01*
X167100000Y-92068038D01*
X167110718Y-92061558D01*
X167128024Y-92050224D01*
X167138559Y-92042143D01*
X167140901Y-92040057D01*
X167151874Y-92033648D01*
X167167929Y-92028975D01*
X167190709Y-92025875D01*
X167221858Y-92024181D01*
X167263022Y-92023729D01*
X167315843Y-92024353D01*
X167336163Y-92024796D01*
X167392744Y-92027024D01*
X167440505Y-92030973D01*
X167482850Y-92037233D01*
X167523181Y-92046399D01*
X167564901Y-92059061D01*
X167611413Y-92075814D01*
X167620724Y-92079325D01*
X167652609Y-92091072D01*
X167683095Y-92101949D01*
X167706667Y-92109976D01*
X167707730Y-92110326D01*
X167728882Y-92118004D01*
X167759174Y-92129871D01*
X167775910Y-92136666D01*
X167795916Y-92144789D01*
G37*
G36*
X167309582Y-92276786D02*
G01*
X167301653Y-92278798D01*
X167293146Y-92281227D01*
X167280836Y-92291854D01*
X167276435Y-92306434D01*
X167280591Y-92320651D01*
X167293950Y-92330195D01*
X167301365Y-92335049D01*
X167306796Y-92348782D01*
X167306826Y-92349431D01*
X167313248Y-92362780D01*
X167330902Y-92382944D01*
X167359856Y-92410000D01*
X167376383Y-92425062D01*
X167395247Y-92443718D01*
X167408174Y-92458344D01*
X167413028Y-92466666D01*
X167411535Y-92468832D01*
X167403550Y-92464464D01*
X167390309Y-92451666D01*
X167388866Y-92450111D01*
X167368932Y-92432471D01*
X167353616Y-92426924D01*
X167343186Y-92433572D01*
X167342830Y-92435962D01*
X167346642Y-92447845D01*
X167355438Y-92465217D01*
X167367052Y-92484391D01*
X167379317Y-92501678D01*
X167390068Y-92513389D01*
X167395853Y-92521800D01*
X167391665Y-92533528D01*
X167390849Y-92534876D01*
X167387837Y-92546476D01*
X167395296Y-92558485D01*
X167402497Y-92568490D01*
X167406667Y-92580051D01*
X167408340Y-92590938D01*
X167413390Y-92610078D01*
X167420115Y-92630738D01*
X167426773Y-92647101D01*
X167428461Y-92655135D01*
X167425022Y-92669843D01*
X167421801Y-92678550D01*
X167425735Y-92694317D01*
X167427573Y-92698157D01*
X167431691Y-92715310D01*
X167433334Y-92736576D01*
X167433610Y-92745619D01*
X167435741Y-92760705D01*
X167439287Y-92766666D01*
X167442745Y-92768037D01*
X167449268Y-92777162D01*
X167449707Y-92778486D01*
X167447600Y-92791669D01*
X167436344Y-92802299D01*
X167419660Y-92806666D01*
X167415895Y-92806738D01*
X167409078Y-92809067D01*
X167413334Y-92816666D01*
X167419198Y-92821933D01*
X167431521Y-92826666D01*
X167433326Y-92826874D01*
X167445914Y-92832477D01*
X167461216Y-92843333D01*
X167465681Y-92847272D01*
X167473819Y-92856366D01*
X167473396Y-92860000D01*
X167469581Y-92862223D01*
X167469750Y-92872543D01*
X167470592Y-92880505D01*
X167466804Y-92884888D01*
X167463110Y-92889163D01*
X167456517Y-92893201D01*
X167457834Y-92900212D01*
X167471972Y-92908341D01*
X167498673Y-92917383D01*
X167512954Y-92921624D01*
X167534440Y-92929614D01*
X167546634Y-92938313D01*
X167552083Y-92950038D01*
X167553334Y-92967104D01*
X167553333Y-92967548D01*
X167550081Y-92989037D01*
X167539568Y-93002219D01*
X167536016Y-93004733D01*
X167529917Y-93010828D01*
X167532090Y-93017503D01*
X167543117Y-93029177D01*
X167545592Y-93031666D01*
X167555135Y-93043029D01*
X167556235Y-93052592D01*
X167550045Y-93066579D01*
X167549235Y-93068093D01*
X167539356Y-93081260D01*
X167529956Y-93086666D01*
X167522728Y-93090488D01*
X167516230Y-93102699D01*
X167515555Y-93106264D01*
X167516122Y-93117862D01*
X167521073Y-93133523D01*
X167531313Y-93155655D01*
X167547745Y-93186666D01*
X167566447Y-93222241D01*
X167578818Y-93250257D01*
X167584143Y-93271006D01*
X167582614Y-93286431D01*
X167574421Y-93298476D01*
X167559755Y-93309084D01*
X167559564Y-93309197D01*
X167543616Y-93325422D01*
X167538938Y-93347623D01*
X167545490Y-93374722D01*
X167563233Y-93405640D01*
X167573426Y-93420512D01*
X167581686Y-93434303D01*
X167583844Y-93440656D01*
X167583911Y-93441885D01*
X167590375Y-93449190D01*
X167603519Y-93460000D01*
X167617282Y-93471913D01*
X167630337Y-93487883D01*
X167636172Y-93501595D01*
X167633082Y-93510155D01*
X167631922Y-93510963D01*
X167626826Y-93522514D01*
X167631039Y-93539653D01*
X167633430Y-93543333D01*
X167643926Y-93559488D01*
X167652137Y-93569918D01*
X167652173Y-93570000D01*
X167655623Y-93577816D01*
X167650593Y-93580000D01*
X167645440Y-93580847D01*
X167640000Y-93586666D01*
X167636272Y-93592653D01*
X167625819Y-93591325D01*
X167612192Y-93582300D01*
X167608606Y-93579139D01*
X167601030Y-93573820D01*
X167601344Y-93577054D01*
X167608932Y-93587612D01*
X167623179Y-93604263D01*
X167631244Y-93613980D01*
X167642165Y-93630503D01*
X167646512Y-93642337D01*
X167646515Y-93643015D01*
X167644490Y-93650235D01*
X167636235Y-93652623D01*
X167618334Y-93651261D01*
X167613523Y-93650649D01*
X167590429Y-93647026D01*
X167571667Y-93643146D01*
X167564046Y-93641477D01*
X167555375Y-93642702D01*
X167553334Y-93651780D01*
X167553533Y-93653374D01*
X167559809Y-93665252D01*
X167572329Y-93680828D01*
X167587597Y-93696459D01*
X167602122Y-93708508D01*
X167612409Y-93713333D01*
X167612811Y-93713494D01*
X167618300Y-93720572D01*
X167627777Y-93735826D01*
X167639481Y-93756075D01*
X167651649Y-93778137D01*
X167662522Y-93798831D01*
X167670337Y-93814974D01*
X167673334Y-93823386D01*
X167673209Y-93823603D01*
X167666187Y-93823078D01*
X167651711Y-93819534D01*
X167621944Y-93813898D01*
X167596580Y-93817011D01*
X167574550Y-93830000D01*
X167571047Y-93832860D01*
X167557023Y-93842694D01*
X167547848Y-93846666D01*
X167542564Y-93848193D01*
X167531567Y-93856052D01*
X167531039Y-93856557D01*
X167517687Y-93864797D01*
X167499425Y-93871710D01*
X167498730Y-93871900D01*
X167482679Y-93874515D01*
X167468386Y-93871212D01*
X167449873Y-93860658D01*
X167422498Y-93842435D01*
X167373216Y-93806108D01*
X167335574Y-93772834D01*
X167310116Y-93743071D01*
X167307766Y-93739667D01*
X167294664Y-93721867D01*
X167284312Y-93712329D01*
X167272789Y-93708488D01*
X167256175Y-93707777D01*
X167250403Y-93707854D01*
X167235482Y-93709652D01*
X167225107Y-93715279D01*
X167218525Y-93726633D01*
X167214983Y-93745608D01*
X167213729Y-93774101D01*
X167214010Y-93814008D01*
X167214231Y-93828090D01*
X167214359Y-93858271D01*
X167213527Y-93878710D01*
X167211395Y-93892024D01*
X167207626Y-93900831D01*
X167201880Y-93907750D01*
X167188367Y-93921263D01*
X167145850Y-93892484D01*
X167142420Y-93890151D01*
X167121519Y-93875480D01*
X167105172Y-93863258D01*
X167096667Y-93855929D01*
X167096421Y-93855648D01*
X167087763Y-93847155D01*
X167072345Y-93833068D01*
X167053334Y-93816284D01*
X167052348Y-93815424D01*
X167033616Y-93797931D01*
X167019047Y-93782284D01*
X167011724Y-93771779D01*
X167007596Y-93764987D01*
X167000798Y-93762840D01*
X167000395Y-93762998D01*
X166992169Y-93759638D01*
X166977753Y-93749060D01*
X166959996Y-93733329D01*
X166944648Y-93719187D01*
X166929868Y-93707917D01*
X166918548Y-93703564D01*
X166907589Y-93704419D01*
X166894812Y-93709058D01*
X166885103Y-93716026D01*
X166882924Y-93724002D01*
X166881168Y-93743519D01*
X166880683Y-93760381D01*
X166880374Y-93771114D01*
X166880523Y-93803922D01*
X166881594Y-93839081D01*
X166883133Y-93866095D01*
X166883568Y-93873725D01*
X166886425Y-93904990D01*
X166886536Y-93905819D01*
X166888041Y-93917038D01*
X166894474Y-93951882D01*
X166903401Y-93989823D01*
X166913721Y-94026787D01*
X166924332Y-94058703D01*
X166934135Y-94081496D01*
X166939529Y-94096203D01*
X166943171Y-94115922D01*
X166943196Y-94116224D01*
X166945829Y-94133726D01*
X166951428Y-94153459D01*
X166960901Y-94177759D01*
X166960957Y-94177882D01*
X166975159Y-94208965D01*
X166995111Y-94249416D01*
X167028407Y-94315500D01*
X166902537Y-94311285D01*
X166896768Y-94311089D01*
X166848288Y-94309071D01*
X166806745Y-94306368D01*
X166768839Y-94302506D01*
X166731273Y-94297010D01*
X166690747Y-94289404D01*
X166643962Y-94279215D01*
X166587619Y-94265967D01*
X166554201Y-94258359D01*
X166483133Y-94245287D01*
X166420327Y-94238289D01*
X166366933Y-94237464D01*
X166324101Y-94242913D01*
X166318180Y-94244312D01*
X166262492Y-94259945D01*
X166203618Y-94281071D01*
X166139146Y-94308633D01*
X166085345Y-94334568D01*
X166066667Y-94343572D01*
X165963334Y-94395639D01*
X165883334Y-94395568D01*
X165851848Y-94395107D01*
X165809553Y-94392441D01*
X165767784Y-94386757D01*
X165720000Y-94377324D01*
X165689391Y-94371090D01*
X165641553Y-94363500D01*
X165591351Y-94358505D01*
X165533334Y-94355466D01*
X165430000Y-94351782D01*
X165350000Y-94378686D01*
X165321802Y-94387994D01*
X165319403Y-94388761D01*
X165275885Y-94402673D01*
X165236436Y-94414916D01*
X165228606Y-94417346D01*
X165186667Y-94429908D01*
X165175515Y-94433251D01*
X165100376Y-94460091D01*
X165030000Y-94492416D01*
X164993390Y-94511045D01*
X164951374Y-94530615D01*
X164914287Y-94545005D01*
X164878537Y-94555393D01*
X164840529Y-94562956D01*
X164796667Y-94568872D01*
X164780286Y-94569884D01*
X164751968Y-94570478D01*
X164714771Y-94570608D01*
X164670993Y-94570321D01*
X164622932Y-94569662D01*
X164572886Y-94568676D01*
X164523154Y-94567409D01*
X164476034Y-94565908D01*
X164433825Y-94564217D01*
X164398826Y-94562383D01*
X164373334Y-94560451D01*
X164353823Y-94558351D01*
X164309262Y-94552659D01*
X164263319Y-94545843D01*
X164223334Y-94538953D01*
X164220521Y-94538420D01*
X164197696Y-94534323D01*
X164176805Y-94531240D01*
X164155669Y-94529090D01*
X164132107Y-94527791D01*
X164103939Y-94527263D01*
X164068985Y-94527422D01*
X164025066Y-94528188D01*
X163970000Y-94529479D01*
X163925117Y-94530777D01*
X163877366Y-94532556D01*
X163834071Y-94534574D01*
X163797449Y-94536715D01*
X163769719Y-94538861D01*
X163753102Y-94540897D01*
X163741936Y-94542438D01*
X163712482Y-94544303D01*
X163672806Y-94545040D01*
X163624873Y-94544728D01*
X163570650Y-94543445D01*
X163512103Y-94541270D01*
X163451199Y-94538281D01*
X163389904Y-94534557D01*
X163330183Y-94530176D01*
X163274005Y-94525216D01*
X163223334Y-94519757D01*
X163165270Y-94511960D01*
X163081688Y-94497999D01*
X162992474Y-94479957D01*
X162895448Y-94457383D01*
X162788427Y-94429825D01*
X162779693Y-94427534D01*
X162748534Y-94420486D01*
X162718731Y-94416141D01*
X162685400Y-94413942D01*
X162643660Y-94413333D01*
X162633838Y-94413293D01*
X162589830Y-94411952D01*
X162555206Y-94408825D01*
X162531900Y-94404073D01*
X162524688Y-94401855D01*
X162501056Y-94395255D01*
X162471246Y-94387515D01*
X162440000Y-94379882D01*
X162433463Y-94378313D01*
X162384316Y-94364060D01*
X162351615Y-94350000D01*
X164273334Y-94350000D01*
X164275139Y-94355322D01*
X164285000Y-94359967D01*
X164286213Y-94360033D01*
X164299565Y-94362913D01*
X164320689Y-94369206D01*
X164345592Y-94377743D01*
X164355444Y-94381293D01*
X164378083Y-94388672D01*
X164394477Y-94391771D01*
X164409199Y-94391125D01*
X164426823Y-94387270D01*
X164434845Y-94385295D01*
X164453625Y-94382436D01*
X164469758Y-94384738D01*
X164490413Y-94392828D01*
X164493604Y-94394214D01*
X164523392Y-94404274D01*
X164546466Y-94406667D01*
X164548810Y-94405850D01*
X164613334Y-94405850D01*
X164614694Y-94410000D01*
X164622740Y-94419507D01*
X164630263Y-94423879D01*
X164636928Y-94419578D01*
X164638079Y-94414916D01*
X164632521Y-94406023D01*
X164629812Y-94404392D01*
X164617736Y-94400385D01*
X164613334Y-94405850D01*
X164548810Y-94405850D01*
X164561375Y-94401470D01*
X164566667Y-94388761D01*
X164563091Y-94383023D01*
X164549856Y-94383965D01*
X164547600Y-94384417D01*
X164526782Y-94382870D01*
X164499081Y-94373573D01*
X164481903Y-94366934D01*
X164458433Y-94362082D01*
X164433360Y-94363329D01*
X164418662Y-94364574D01*
X164390669Y-94362389D01*
X164356766Y-94353848D01*
X164324015Y-94344908D01*
X164296222Y-94340453D01*
X164279147Y-94342142D01*
X164273334Y-94350000D01*
X162351615Y-94350000D01*
X162344926Y-94347124D01*
X162312115Y-94325864D01*
X162282707Y-94298640D01*
X162260652Y-94272231D01*
X162237201Y-94233551D01*
X162224460Y-94195996D01*
X162223262Y-94161487D01*
X162225771Y-94146792D01*
X162242396Y-94090049D01*
X162268433Y-94042849D01*
X162793578Y-94042849D01*
X162795343Y-94064203D01*
X162796453Y-94073455D01*
X162801912Y-94096743D01*
X162812384Y-94114736D01*
X162830360Y-94130754D01*
X162858334Y-94148118D01*
X162872217Y-94156769D01*
X162887624Y-94169457D01*
X162893334Y-94179248D01*
X162893635Y-94181576D01*
X162901008Y-94195062D01*
X162916006Y-94212120D01*
X162935622Y-94229951D01*
X162956845Y-94245758D01*
X162976667Y-94256743D01*
X162980814Y-94258488D01*
X163033268Y-94279756D01*
X163076109Y-94295304D01*
X163111309Y-94305721D01*
X163140838Y-94311596D01*
X163166667Y-94313518D01*
X163178914Y-94313962D01*
X163214687Y-94318492D01*
X163246667Y-94326666D01*
X163252231Y-94328617D01*
X163274060Y-94335945D01*
X163286478Y-94339091D01*
X163292047Y-94338487D01*
X163293334Y-94334568D01*
X163287956Y-94327034D01*
X163271881Y-94318577D01*
X163247816Y-94310620D01*
X163218498Y-94304055D01*
X163186667Y-94299777D01*
X163150353Y-94294314D01*
X163107831Y-94283885D01*
X163063731Y-94269786D01*
X163021003Y-94253168D01*
X162982596Y-94235182D01*
X162951459Y-94216983D01*
X162930542Y-94199721D01*
X162921627Y-94189204D01*
X162910866Y-94174059D01*
X162906667Y-94164373D01*
X162904044Y-94159420D01*
X162892411Y-94149203D01*
X162874628Y-94138014D01*
X162862529Y-94131026D01*
X162843710Y-94118556D01*
X162831612Y-94108447D01*
X162830949Y-94107680D01*
X162823665Y-94094563D01*
X162818038Y-94077019D01*
X162814849Y-94059265D01*
X162814882Y-94045519D01*
X162818919Y-94040000D01*
X162822358Y-94039535D01*
X162836469Y-94031056D01*
X162850754Y-94014953D01*
X162862182Y-93995214D01*
X162867718Y-93975826D01*
X162867945Y-93972646D01*
X162866916Y-93962653D01*
X163021806Y-93962653D01*
X163023598Y-93975000D01*
X163030727Y-93992586D01*
X163049988Y-94023672D01*
X163076526Y-94055309D01*
X163107603Y-94083943D01*
X163133514Y-94104443D01*
X163155608Y-94120826D01*
X163172559Y-94131216D01*
X163187076Y-94136966D01*
X163201865Y-94139431D01*
X163219636Y-94139964D01*
X163222561Y-94139977D01*
X163245142Y-94141516D01*
X163260649Y-94146893D01*
X163274646Y-94157924D01*
X163283503Y-94166020D01*
X163293676Y-94171877D01*
X163305907Y-94172059D01*
X163325581Y-94167589D01*
X163335665Y-94165157D01*
X163353693Y-94162791D01*
X163370421Y-94165226D01*
X163392484Y-94172998D01*
X163412270Y-94180336D01*
X163432378Y-94185711D01*
X163443344Y-94184848D01*
X163446667Y-94177882D01*
X163446622Y-94177463D01*
X163439714Y-94170900D01*
X163423053Y-94162466D01*
X163399514Y-94153639D01*
X163374371Y-94145913D01*
X163356091Y-94142218D01*
X163341286Y-94142484D01*
X163325402Y-94146258D01*
X163319317Y-94148038D01*
X163303873Y-94150974D01*
X163293009Y-94147769D01*
X163280523Y-94137167D01*
X163279626Y-94136315D01*
X163265959Y-94126112D01*
X163249929Y-94121243D01*
X163226119Y-94120000D01*
X163222294Y-94119980D01*
X163200678Y-94118429D01*
X163182742Y-94113072D01*
X163164108Y-94102043D01*
X163140399Y-94083478D01*
X163124619Y-94070182D01*
X163091153Y-94039697D01*
X163083208Y-94031089D01*
X166336984Y-94031089D01*
X166340000Y-94036666D01*
X166344029Y-94040275D01*
X166361583Y-94045891D01*
X166385324Y-94045389D01*
X166411640Y-94039743D01*
X166436918Y-94029925D01*
X166457547Y-94016908D01*
X166464505Y-94008333D01*
X166633506Y-94008333D01*
X166636918Y-94012233D01*
X166648366Y-94012949D01*
X166663153Y-94009700D01*
X166676309Y-94003096D01*
X166685455Y-93997946D01*
X166695976Y-93999975D01*
X166701945Y-94004385D01*
X166713495Y-94005726D01*
X166728737Y-93999170D01*
X166749258Y-93983913D01*
X166776647Y-93959152D01*
X166791830Y-93944454D01*
X166809816Y-93926172D01*
X166822113Y-93912564D01*
X166826667Y-93905819D01*
X166824961Y-93900745D01*
X166815876Y-93901971D01*
X166798946Y-93913931D01*
X166774152Y-93936634D01*
X166766665Y-93943927D01*
X166743543Y-93965805D01*
X166727194Y-93979599D01*
X166715702Y-93986549D01*
X166707150Y-93987896D01*
X166699620Y-93984882D01*
X166695448Y-93982932D01*
X166681800Y-93982964D01*
X166661129Y-93990660D01*
X166653077Y-93994594D01*
X166639110Y-94002799D01*
X166633506Y-94008333D01*
X166464505Y-94008333D01*
X166469915Y-94001666D01*
X166476564Y-93992151D01*
X166487331Y-93986666D01*
X166492233Y-93985552D01*
X166506820Y-93978122D01*
X166524084Y-93966017D01*
X166531810Y-93960049D01*
X166551653Y-93945996D01*
X166567861Y-93936090D01*
X166581187Y-93926024D01*
X166590186Y-93912748D01*
X166595924Y-93900949D01*
X166607568Y-93885765D01*
X166615224Y-93875186D01*
X166616314Y-93866095D01*
X166611995Y-93866267D01*
X166601748Y-93874557D01*
X166588512Y-93889671D01*
X166577920Y-93902562D01*
X166566033Y-93915136D01*
X166559128Y-93920000D01*
X166555179Y-93921651D01*
X166543205Y-93930107D01*
X166527545Y-93943333D01*
X166524777Y-93945633D01*
X166517704Y-93951510D01*
X166501116Y-93962441D01*
X166489192Y-93966768D01*
X166484704Y-93966982D01*
X166467366Y-93973666D01*
X166459085Y-93990000D01*
X166459011Y-93990381D01*
X166449770Y-94004504D01*
X166430134Y-94016031D01*
X166402896Y-94023802D01*
X166370851Y-94026656D01*
X166354981Y-94026831D01*
X166341222Y-94028055D01*
X166336984Y-94031089D01*
X163083208Y-94031089D01*
X163070145Y-94016935D01*
X166009119Y-94016935D01*
X166016304Y-94019050D01*
X166031985Y-94018449D01*
X166053511Y-94015523D01*
X166078234Y-94010662D01*
X166103502Y-94004256D01*
X166126667Y-93996698D01*
X166132737Y-93994530D01*
X166160919Y-93986313D01*
X166188125Y-93980581D01*
X166203583Y-93977061D01*
X166225114Y-93968169D01*
X166240678Y-93956976D01*
X166246667Y-93945633D01*
X166246399Y-93943627D01*
X166240202Y-93939964D01*
X166228907Y-93943554D01*
X166216667Y-93953333D01*
X166201773Y-93963152D01*
X166176967Y-93966666D01*
X166171052Y-93966824D01*
X166152957Y-93969308D01*
X166142149Y-93973851D01*
X166136223Y-93977899D01*
X166118841Y-93984620D01*
X166090478Y-93992197D01*
X166050000Y-94000962D01*
X166038178Y-94003646D01*
X166020163Y-94009044D01*
X166010334Y-94013845D01*
X166009119Y-94016935D01*
X163070145Y-94016935D01*
X163066858Y-94013374D01*
X163050015Y-93989423D01*
X163046137Y-93983076D01*
X163034631Y-93967541D01*
X163026002Y-93960450D01*
X163021806Y-93962653D01*
X162866916Y-93962653D01*
X162866157Y-93955280D01*
X162859909Y-93949443D01*
X162851579Y-93955378D01*
X162843547Y-93973333D01*
X162841202Y-93980995D01*
X162833116Y-94001032D01*
X162823170Y-94012919D01*
X162808439Y-94020593D01*
X162799826Y-94024540D01*
X162794691Y-94030899D01*
X162793578Y-94042849D01*
X162268433Y-94042849D01*
X162269021Y-94041783D01*
X162306020Y-94001568D01*
X162353765Y-93968973D01*
X162412628Y-93943570D01*
X162413959Y-93943115D01*
X162445659Y-93929272D01*
X166293334Y-93929272D01*
X166294499Y-93932439D01*
X166302439Y-93933438D01*
X166314122Y-93928354D01*
X166325066Y-93918683D01*
X166333583Y-93908658D01*
X166345568Y-93896152D01*
X166362466Y-93879854D01*
X166385993Y-93858109D01*
X166417864Y-93829266D01*
X166436753Y-93811973D01*
X166449795Y-93798054D01*
X166457155Y-93785428D01*
X166461066Y-93770153D01*
X166463763Y-93748288D01*
X166464625Y-93727939D01*
X166647456Y-93727939D01*
X166649086Y-93743251D01*
X166652597Y-93763333D01*
X166655285Y-93772312D01*
X166659818Y-93777232D01*
X166663560Y-93772517D01*
X166665278Y-93760404D01*
X166663736Y-93743134D01*
X166663423Y-93741531D01*
X166658605Y-93725666D01*
X166653089Y-93716947D01*
X166648748Y-93717122D01*
X166647456Y-93727939D01*
X166464625Y-93727939D01*
X166465096Y-93716829D01*
X166459931Y-93689758D01*
X166446295Y-93665359D01*
X166422516Y-93639207D01*
X166409710Y-93627672D01*
X166401953Y-93623333D01*
X166460000Y-93623333D01*
X166463334Y-93626666D01*
X166466667Y-93623333D01*
X166463334Y-93620000D01*
X166460000Y-93623333D01*
X166401953Y-93623333D01*
X166397592Y-93620894D01*
X166382358Y-93618485D01*
X166358921Y-93618814D01*
X166339897Y-93619926D01*
X166321561Y-93621865D01*
X166312241Y-93624008D01*
X166307655Y-93629324D01*
X166312883Y-93634804D01*
X166316777Y-93635757D01*
X166328343Y-93638588D01*
X166352339Y-93640000D01*
X166372936Y-93640531D01*
X166388327Y-93643818D01*
X166401380Y-93652280D01*
X166417667Y-93668333D01*
X166424154Y-93675214D01*
X166440834Y-93695417D01*
X166449081Y-93712840D01*
X166450317Y-93731946D01*
X166445965Y-93757201D01*
X166441691Y-93773473D01*
X166434314Y-93789468D01*
X166421993Y-93803844D01*
X166411078Y-93813076D01*
X166401627Y-93821070D01*
X166379450Y-93839383D01*
X166353878Y-93862130D01*
X166330444Y-93884527D01*
X166311185Y-93904539D01*
X166298136Y-93920132D01*
X166293334Y-93929272D01*
X162445659Y-93929272D01*
X162485743Y-93911768D01*
X162555236Y-93868273D01*
X162621065Y-93813764D01*
X162681856Y-93749376D01*
X162730732Y-93683647D01*
X162933334Y-93683647D01*
X162933898Y-93685801D01*
X162940166Y-93684578D01*
X162945393Y-93680478D01*
X163812688Y-93680478D01*
X163815548Y-93697447D01*
X163822122Y-93716461D01*
X163831667Y-93733792D01*
X163837796Y-93741650D01*
X163851335Y-93754656D01*
X163862223Y-93759857D01*
X163868716Y-93758888D01*
X163872223Y-93753997D01*
X163866357Y-93741678D01*
X163856427Y-93723920D01*
X163844547Y-93704145D01*
X163842214Y-93700486D01*
X163914970Y-93700486D01*
X163919709Y-93721204D01*
X163930721Y-93745937D01*
X163935817Y-93753997D01*
X163947031Y-93771731D01*
X163955278Y-93782371D01*
X163966670Y-93795053D01*
X163973517Y-93800000D01*
X163977251Y-93799561D01*
X163982583Y-93792562D01*
X163978475Y-93776818D01*
X163964876Y-93752045D01*
X163954886Y-93735514D01*
X163942557Y-93713622D01*
X163934397Y-93697319D01*
X163933490Y-93695338D01*
X163976909Y-93695338D01*
X163978123Y-93709449D01*
X163986098Y-93729782D01*
X163999565Y-93753514D01*
X164017255Y-93777819D01*
X164019678Y-93780732D01*
X164031457Y-93792562D01*
X164038593Y-93799729D01*
X164052955Y-93806631D01*
X164062522Y-93801314D01*
X164061467Y-93796034D01*
X164053754Y-93783087D01*
X164040859Y-93766314D01*
X164031425Y-93754684D01*
X164025232Y-93746414D01*
X164656747Y-93746414D01*
X164657079Y-93763463D01*
X164668580Y-93783455D01*
X164687564Y-93801314D01*
X164690172Y-93803767D01*
X164720353Y-93823007D01*
X164757618Y-93839783D01*
X164766174Y-93842844D01*
X164803783Y-93852037D01*
X164832856Y-93851089D01*
X164853334Y-93840000D01*
X164862247Y-93828454D01*
X164866667Y-93816457D01*
X164861862Y-93805811D01*
X164850141Y-93801591D01*
X164837088Y-93806317D01*
X164826776Y-93809947D01*
X164807363Y-93810091D01*
X164785028Y-93806208D01*
X164764896Y-93798831D01*
X164755210Y-93792315D01*
X164738673Y-93779283D01*
X164719673Y-93763042D01*
X164700202Y-93747228D01*
X164679426Y-93735616D01*
X164665023Y-93735367D01*
X164656747Y-93746414D01*
X164025232Y-93746414D01*
X164014020Y-93731442D01*
X164001922Y-93713400D01*
X165434236Y-93713400D01*
X165438044Y-93727669D01*
X165448739Y-93747568D01*
X165465046Y-93770412D01*
X165474162Y-93780791D01*
X165487629Y-93791355D01*
X165496636Y-93791807D01*
X165499702Y-93781666D01*
X165499312Y-93779432D01*
X165493279Y-93767605D01*
X165481958Y-93751840D01*
X165467948Y-93735101D01*
X165453847Y-93720353D01*
X165453733Y-93720257D01*
X165526404Y-93720257D01*
X165527487Y-93731657D01*
X165533876Y-93747895D01*
X165544048Y-93765897D01*
X165555793Y-93781666D01*
X165556480Y-93782589D01*
X165569648Y-93794897D01*
X165571218Y-93795956D01*
X165582060Y-93799305D01*
X165588740Y-93790881D01*
X165587301Y-93783360D01*
X165579179Y-93768755D01*
X165566728Y-93751257D01*
X165552697Y-93734391D01*
X165539834Y-93721685D01*
X165530890Y-93716666D01*
X165526404Y-93720257D01*
X165453733Y-93720257D01*
X165444851Y-93712755D01*
X165589389Y-93712755D01*
X165596002Y-93725462D01*
X165596189Y-93725659D01*
X165605804Y-93736661D01*
X165620435Y-93754328D01*
X165636992Y-93774931D01*
X165637593Y-93775689D01*
X165650572Y-93790881D01*
X165660925Y-93802999D01*
X165675935Y-93816457D01*
X165678474Y-93818733D01*
X165690602Y-93823137D01*
X165697669Y-93816459D01*
X165698201Y-93813076D01*
X165692274Y-93798515D01*
X165675239Y-93777839D01*
X165665437Y-93767249D01*
X165646006Y-93744850D01*
X165630212Y-93725000D01*
X165624325Y-93717570D01*
X165611875Y-93704978D01*
X165602936Y-93700000D01*
X165593185Y-93702956D01*
X165589389Y-93712755D01*
X165444851Y-93712755D01*
X165442251Y-93710559D01*
X165435759Y-93708686D01*
X165434236Y-93713400D01*
X164001922Y-93713400D01*
X164000432Y-93711178D01*
X163996592Y-93705183D01*
X163985935Y-93692919D01*
X163978699Y-93691968D01*
X163976909Y-93695338D01*
X163933490Y-93695338D01*
X163932340Y-93692827D01*
X163925370Y-93683407D01*
X163918562Y-93685438D01*
X163917478Y-93686738D01*
X163914970Y-93700486D01*
X163842214Y-93700486D01*
X163832831Y-93685767D01*
X163823389Y-93672202D01*
X163818334Y-93666864D01*
X163814285Y-93669280D01*
X163812688Y-93680478D01*
X162945393Y-93680478D01*
X162953819Y-93673868D01*
X162975408Y-93653274D01*
X162990299Y-93637223D01*
X162998458Y-93625619D01*
X165489603Y-93625619D01*
X165493221Y-93643867D01*
X165503876Y-93657887D01*
X165511932Y-93662343D01*
X165529634Y-93664787D01*
X165546212Y-93659798D01*
X165558620Y-93649436D01*
X165563810Y-93635757D01*
X165558737Y-93620821D01*
X165557219Y-93618863D01*
X165549778Y-93611030D01*
X166509093Y-93611030D01*
X166509342Y-93616684D01*
X166520089Y-93622534D01*
X166523859Y-93623333D01*
X166540534Y-93626867D01*
X166547161Y-93627925D01*
X166573464Y-93635353D01*
X166597777Y-93646115D01*
X166618247Y-93661082D01*
X166635200Y-93685914D01*
X166640949Y-93698827D01*
X166645727Y-93703726D01*
X166649764Y-93698436D01*
X166650750Y-93692884D01*
X166707474Y-93692884D01*
X166716843Y-93700684D01*
X166735665Y-93709948D01*
X166748008Y-93716829D01*
X166757312Y-93722016D01*
X166776714Y-93744286D01*
X166780082Y-93750159D01*
X166787866Y-93760404D01*
X166789835Y-93762996D01*
X166797131Y-93766857D01*
X166800000Y-93760381D01*
X166799991Y-93759735D01*
X166793903Y-93741721D01*
X166778980Y-93722297D01*
X166758746Y-93704575D01*
X166736725Y-93691661D01*
X166716441Y-93686666D01*
X166708630Y-93687849D01*
X166708176Y-93689827D01*
X166707474Y-93692884D01*
X166650750Y-93692884D01*
X166651293Y-93689827D01*
X166645480Y-93672274D01*
X166630730Y-93653684D01*
X166609481Y-93635944D01*
X166584169Y-93620937D01*
X166557234Y-93610550D01*
X166531112Y-93606668D01*
X166520140Y-93607289D01*
X166509093Y-93611030D01*
X165549778Y-93611030D01*
X165542643Y-93603520D01*
X165527230Y-93591659D01*
X165515477Y-93586814D01*
X165514226Y-93586829D01*
X165504817Y-93591125D01*
X165500780Y-93592968D01*
X165492347Y-93607276D01*
X165489603Y-93625619D01*
X162998458Y-93625619D01*
X162999870Y-93623610D01*
X163000231Y-93616809D01*
X162992935Y-93616798D01*
X162979348Y-93624440D01*
X162963644Y-93637895D01*
X162948772Y-93654214D01*
X162937685Y-93670447D01*
X162933334Y-93683647D01*
X162730732Y-93683647D01*
X162736237Y-93676244D01*
X162736750Y-93675462D01*
X162758407Y-93641993D01*
X162780111Y-93607576D01*
X162793052Y-93586501D01*
X163133334Y-93586501D01*
X163137134Y-93592108D01*
X163148786Y-93591826D01*
X163148961Y-93591756D01*
X163893334Y-93591756D01*
X163894739Y-93596699D01*
X163901667Y-93608052D01*
X163906194Y-93612868D01*
X163914143Y-93616809D01*
X163924089Y-93621740D01*
X163943768Y-93621234D01*
X163960846Y-93612157D01*
X163970936Y-93595314D01*
X163971614Y-93591125D01*
X163967614Y-93573408D01*
X163955371Y-93559171D01*
X163938664Y-93553333D01*
X163937966Y-93553359D01*
X163925469Y-93558286D01*
X163910741Y-93568976D01*
X163898467Y-93581457D01*
X163893334Y-93591756D01*
X163148961Y-93591756D01*
X163165149Y-93585283D01*
X163183000Y-93573333D01*
X163202694Y-93556401D01*
X163224659Y-93533751D01*
X163236251Y-93515006D01*
X163238416Y-93498894D01*
X163237497Y-93488973D01*
X163241259Y-93481538D01*
X163242111Y-93481439D01*
X165974323Y-93481439D01*
X165982358Y-93489115D01*
X165988818Y-93493154D01*
X166005555Y-93503877D01*
X166025204Y-93516666D01*
X166037105Y-93524440D01*
X166054797Y-93535872D01*
X166066179Y-93543066D01*
X166078556Y-93550875D01*
X166094731Y-93561399D01*
X166110326Y-93570838D01*
X166117983Y-93572596D01*
X166120000Y-93567150D01*
X166119929Y-93566499D01*
X166113979Y-93557854D01*
X166101867Y-93546838D01*
X166088403Y-93537361D01*
X166078397Y-93533333D01*
X166076827Y-93533032D01*
X166066174Y-93527222D01*
X166051739Y-93516348D01*
X166038621Y-93506298D01*
X166018260Y-93493266D01*
X165998497Y-93482885D01*
X165984159Y-93477425D01*
X166020651Y-93477425D01*
X166023038Y-93486187D01*
X166027645Y-93491300D01*
X166039967Y-93499982D01*
X166049199Y-93503466D01*
X166055717Y-93501362D01*
X166053725Y-93493663D01*
X166042698Y-93483529D01*
X166041134Y-93482526D01*
X166027391Y-93476109D01*
X166020651Y-93477425D01*
X165984159Y-93477425D01*
X165982730Y-93476881D01*
X165974354Y-93476983D01*
X165974323Y-93481439D01*
X163242111Y-93481439D01*
X163254488Y-93480000D01*
X163267565Y-93478323D01*
X163273334Y-93474046D01*
X163272353Y-93470569D01*
X163261551Y-93464533D01*
X163240011Y-93462884D01*
X163237885Y-93462972D01*
X163228172Y-93465608D01*
X163222824Y-93474413D01*
X163219390Y-93492965D01*
X163216054Y-93509336D01*
X163206915Y-93527347D01*
X163189380Y-93545305D01*
X163180194Y-93552925D01*
X163162125Y-93566071D01*
X163148334Y-93573841D01*
X163138807Y-93579108D01*
X163133334Y-93586501D01*
X162793052Y-93586501D01*
X162799367Y-93576216D01*
X162813681Y-93551919D01*
X162814930Y-93549730D01*
X162836709Y-93515264D01*
X162861285Y-93481962D01*
X162886405Y-93452480D01*
X162909815Y-93429478D01*
X162929260Y-93415612D01*
X162931350Y-93414521D01*
X162951090Y-93401881D01*
X162970000Y-93386704D01*
X162987966Y-93372451D01*
X163015395Y-93355419D01*
X163044846Y-93340806D01*
X163072199Y-93330613D01*
X163093334Y-93326840D01*
X163095756Y-93326884D01*
X163119287Y-93328998D01*
X163143334Y-93333254D01*
X163172449Y-93338627D01*
X163214965Y-93343706D01*
X163263385Y-93347400D01*
X163313756Y-93349487D01*
X163362124Y-93349745D01*
X163404535Y-93347951D01*
X163436995Y-93345203D01*
X163460978Y-93342146D01*
X163477798Y-93338161D01*
X163490608Y-93332490D01*
X163502559Y-93324376D01*
X163509182Y-93319557D01*
X163523434Y-93310858D01*
X163531750Y-93308230D01*
X163533770Y-93307485D01*
X163543803Y-93299512D01*
X163560205Y-93284350D01*
X163581211Y-93263818D01*
X163605056Y-93239733D01*
X163629975Y-93213914D01*
X163654202Y-93188179D01*
X163675973Y-93164346D01*
X163693523Y-93144234D01*
X163705087Y-93129661D01*
X163732407Y-93095894D01*
X163768226Y-93059766D01*
X163813684Y-93020251D01*
X163870000Y-92976216D01*
X163879198Y-92969338D01*
X163940701Y-92925224D01*
X163997327Y-92888663D01*
X164052105Y-92858246D01*
X164108064Y-92832561D01*
X164168235Y-92810197D01*
X164235648Y-92789743D01*
X164313334Y-92769789D01*
X164326678Y-92766487D01*
X164358251Y-92758049D01*
X164386535Y-92749713D01*
X164406667Y-92742881D01*
X164414266Y-92740261D01*
X164433837Y-92735762D01*
X164460134Y-92732418D01*
X164495356Y-92729990D01*
X164541704Y-92728241D01*
X164585970Y-92727549D01*
X164649860Y-92728873D01*
X164713131Y-92733330D01*
X164778392Y-92741260D01*
X164848253Y-92752999D01*
X164925324Y-92768888D01*
X165012214Y-92789264D01*
X165016515Y-92790323D01*
X165051880Y-92799546D01*
X165083511Y-92809053D01*
X165114518Y-92820021D01*
X165148012Y-92833625D01*
X165187106Y-92851042D01*
X165234911Y-92873448D01*
X165243100Y-92877350D01*
X165283485Y-92896844D01*
X165321449Y-92915553D01*
X165354577Y-92932261D01*
X165380455Y-92945755D01*
X165396667Y-92954819D01*
X165428162Y-92975488D01*
X165486560Y-93020777D01*
X165544860Y-93074361D01*
X165600000Y-93133549D01*
X165607756Y-93142449D01*
X165638615Y-93176384D01*
X165674408Y-93214033D01*
X165711298Y-93251412D01*
X165745446Y-93284538D01*
X165827558Y-93361886D01*
X165947127Y-93358458D01*
X165971680Y-93357784D01*
X166008938Y-93357013D01*
X166036247Y-93357016D01*
X166055812Y-93357931D01*
X166069836Y-93359900D01*
X166080523Y-93363063D01*
X166090077Y-93367561D01*
X166091802Y-93368463D01*
X166114617Y-93377892D01*
X166137003Y-93383834D01*
X166138863Y-93384148D01*
X166162115Y-93389899D01*
X166185275Y-93397997D01*
X166186230Y-93398390D01*
X166211791Y-93405122D01*
X166247800Y-93409625D01*
X166291677Y-93411838D01*
X166340843Y-93411701D01*
X166392718Y-93409151D01*
X166444723Y-93404129D01*
X166467903Y-93401407D01*
X166536231Y-93395213D01*
X166595797Y-93393188D01*
X166649614Y-93395421D01*
X166700696Y-93401998D01*
X166752057Y-93413005D01*
X166778807Y-93419572D01*
X166824195Y-93430183D01*
X166871286Y-93440697D01*
X166913334Y-93449583D01*
X166955445Y-93458367D01*
X166999562Y-93468261D01*
X167022720Y-93474046D01*
X167033673Y-93476782D01*
X167057154Y-93483738D01*
X167069381Y-93488942D01*
X167069727Y-93492204D01*
X167057569Y-93493333D01*
X167045202Y-93495596D01*
X167038928Y-93501362D01*
X167035179Y-93504808D01*
X167028057Y-93518247D01*
X167009224Y-93537971D01*
X166985817Y-93550844D01*
X166962170Y-93553946D01*
X166961413Y-93553867D01*
X166951618Y-93557413D01*
X166950244Y-93567150D01*
X166950154Y-93567786D01*
X166957665Y-93581102D01*
X166971093Y-93592944D01*
X166989147Y-93604615D01*
X167000200Y-93609771D01*
X167009962Y-93610645D01*
X167018680Y-93604178D01*
X167020040Y-93602829D01*
X167025214Y-93597187D01*
X167024459Y-93593444D01*
X167015546Y-93589530D01*
X166996245Y-93583380D01*
X166989972Y-93580045D01*
X166989976Y-93580000D01*
X167060000Y-93580000D01*
X167065735Y-93584699D01*
X167079607Y-93586666D01*
X167094322Y-93584803D01*
X167103334Y-93580000D01*
X167103721Y-93579089D01*
X167098896Y-93574912D01*
X167083727Y-93573333D01*
X167080326Y-93573402D01*
X167065868Y-93575622D01*
X167060000Y-93580000D01*
X166989976Y-93580000D01*
X166990495Y-93573545D01*
X167002181Y-93566245D01*
X167023861Y-93559171D01*
X167024927Y-93558902D01*
X167042142Y-93553638D01*
X167048407Y-93548667D01*
X167045856Y-93542356D01*
X167045420Y-93541827D01*
X167041851Y-93535667D01*
X167048846Y-93537146D01*
X167052707Y-93537870D01*
X167068458Y-93536425D01*
X167088122Y-93531058D01*
X167106550Y-93525075D01*
X167129742Y-93519137D01*
X167148979Y-93515847D01*
X167161342Y-93515668D01*
X167163914Y-93519061D01*
X167155410Y-93524897D01*
X167140001Y-93530000D01*
X167139918Y-93530018D01*
X167121752Y-93536325D01*
X167115575Y-93545723D01*
X167120093Y-93560172D01*
X167121388Y-93562853D01*
X167126933Y-93579089D01*
X167127348Y-93580305D01*
X167132152Y-93601387D01*
X167132527Y-93603543D01*
X167137170Y-93620767D01*
X167145979Y-93630286D01*
X167163418Y-93637215D01*
X167166216Y-93638105D01*
X167187201Y-93644963D01*
X167214634Y-93654126D01*
X167243334Y-93663863D01*
X167249520Y-93665943D01*
X167277513Y-93674512D01*
X167302608Y-93680992D01*
X167320000Y-93684114D01*
X167340230Y-93686020D01*
X167379561Y-93691258D01*
X167406427Y-93697540D01*
X167421419Y-93704989D01*
X167430504Y-93710109D01*
X167443931Y-93710693D01*
X167451349Y-93709699D01*
X167464953Y-93714677D01*
X167478107Y-93722727D01*
X167498213Y-93731465D01*
X167518600Y-93738036D01*
X167533334Y-93740224D01*
X167541860Y-93739719D01*
X167558694Y-93739055D01*
X167565305Y-93738652D01*
X167570348Y-93735268D01*
X167565207Y-93725311D01*
X167563574Y-93723191D01*
X167549756Y-93712233D01*
X167531046Y-93703285D01*
X167522539Y-93700384D01*
X167511712Y-93697342D01*
X167510742Y-93699613D01*
X167517737Y-93707849D01*
X167518761Y-93708981D01*
X167525476Y-93717037D01*
X167523023Y-93717932D01*
X167509872Y-93712588D01*
X167491447Y-93703809D01*
X167478199Y-93694192D01*
X167476885Y-93686314D01*
X167476287Y-93683850D01*
X167468187Y-93674109D01*
X167452774Y-93659479D01*
X167432180Y-93642070D01*
X167424975Y-93636221D01*
X167399280Y-93614732D01*
X167375295Y-93593834D01*
X167357418Y-93577338D01*
X167348931Y-93570000D01*
X167586667Y-93570000D01*
X167590000Y-93573333D01*
X167593334Y-93570000D01*
X167590000Y-93566666D01*
X167586667Y-93570000D01*
X167348931Y-93570000D01*
X167341643Y-93563698D01*
X167318046Y-93550182D01*
X167297051Y-93543333D01*
X167560000Y-93543333D01*
X167563334Y-93546666D01*
X167566667Y-93543333D01*
X167563334Y-93540000D01*
X167560000Y-93543333D01*
X167297051Y-93543333D01*
X167287049Y-93540070D01*
X167264870Y-93533731D01*
X167239705Y-93525183D01*
X167221547Y-93517499D01*
X167207472Y-93510888D01*
X167199851Y-93510384D01*
X167195834Y-93516433D01*
X167192677Y-93521249D01*
X167180954Y-93526564D01*
X167180542Y-93526560D01*
X167173825Y-93525309D01*
X167179572Y-93520406D01*
X167184796Y-93513074D01*
X167180912Y-93503913D01*
X167169250Y-93496430D01*
X167152518Y-93493333D01*
X167149047Y-93493164D01*
X167136409Y-93488269D01*
X167132735Y-93479320D01*
X167140000Y-93470000D01*
X167143962Y-93464650D01*
X167146667Y-93451154D01*
X167147197Y-93446733D01*
X167153188Y-93429992D01*
X167163701Y-93411360D01*
X167178345Y-93389375D01*
X167197537Y-93359500D01*
X167216339Y-93329246D01*
X167233368Y-93300922D01*
X167247242Y-93276833D01*
X167256581Y-93259288D01*
X167260000Y-93250592D01*
X167261910Y-93237083D01*
X167268026Y-93219708D01*
X167276150Y-93205733D01*
X167283986Y-93200000D01*
X167290359Y-93198653D01*
X167293254Y-93192672D01*
X167290265Y-93180788D01*
X167280886Y-93161794D01*
X167264607Y-93134483D01*
X167240923Y-93097649D01*
X167237145Y-93091954D01*
X167223391Y-93072292D01*
X167212623Y-93058521D01*
X167206907Y-93053333D01*
X167205296Y-93046984D01*
X167203841Y-93028914D01*
X167202586Y-93000742D01*
X167201566Y-92964087D01*
X167200817Y-92920566D01*
X167200374Y-92871797D01*
X167200372Y-92870877D01*
X167440564Y-92870877D01*
X167443060Y-92879556D01*
X167444772Y-92881760D01*
X167454544Y-92886666D01*
X167457499Y-92884888D01*
X167453200Y-92876505D01*
X167445738Y-92870165D01*
X167440564Y-92870877D01*
X167200372Y-92870877D01*
X167200273Y-92819400D01*
X167200549Y-92764993D01*
X167200397Y-92737603D01*
X167199000Y-92718194D01*
X167195945Y-92707390D01*
X167190851Y-92702737D01*
X167189721Y-92702190D01*
X167180799Y-92692287D01*
X167173101Y-92675961D01*
X167172454Y-92674161D01*
X167164121Y-92657093D01*
X167149792Y-92632409D01*
X167131179Y-92602768D01*
X167109992Y-92570826D01*
X167087941Y-92539242D01*
X167066737Y-92510675D01*
X167056595Y-92496388D01*
X167047704Y-92477486D01*
X167046653Y-92459223D01*
X167053990Y-92439243D01*
X167070262Y-92415190D01*
X167096016Y-92384708D01*
X167117567Y-92361272D01*
X167149349Y-92329637D01*
X167178211Y-92304369D01*
X167202828Y-92286500D01*
X167220876Y-92277560D01*
X167261180Y-92277560D01*
X167266667Y-92280000D01*
X167270196Y-92279518D01*
X167271112Y-92275555D01*
X167270134Y-92274757D01*
X167262223Y-92275555D01*
X167261180Y-92277560D01*
X167220876Y-92277560D01*
X167221875Y-92277065D01*
X167234028Y-92277095D01*
X167237126Y-92277461D01*
X167240000Y-92270184D01*
X167238872Y-92264873D01*
X167230000Y-92255744D01*
X167229446Y-92255524D01*
X167220779Y-92247038D01*
X167223493Y-92235187D01*
X167237059Y-92222463D01*
X167249291Y-92215679D01*
X167260040Y-92215374D01*
X167275393Y-92221968D01*
X167278547Y-92223557D01*
X167290051Y-92230057D01*
X167290746Y-92233737D01*
X167281667Y-92237102D01*
X167274385Y-92239724D01*
X167267620Y-92246151D01*
X167273292Y-92254229D01*
X167291667Y-92264687D01*
X167295033Y-92266311D01*
X167307765Y-92273174D01*
X167308963Y-92275555D01*
X167309582Y-92276786D01*
G37*
%TD*%
M02*
