%TF.GenerationSoftware,KiCad,Pcbnew,7.0.9*%
%TF.CreationDate,2024-03-13T02:47:38-05:00*%
%TF.ProjectId,SWITCHES,53574954-4348-4455-932e-6b696361645f,rev?*%
%TF.SameCoordinates,Original*%
%TF.FileFunction,Copper,L1,Top*%
%TF.FilePolarity,Positive*%
%FSLAX46Y46*%
G04 Gerber Fmt 4.6, Leading zero omitted, Abs format (unit mm)*
G04 Created by KiCad (PCBNEW 7.0.9) date 2024-03-13 02:47:38*
%MOMM*%
%LPD*%
G01*
G04 APERTURE LIST*
G04 Aperture macros list*
%AMRoundRect*
0 Rectangle with rounded corners*
0 $1 Rounding radius*
0 $2 $3 $4 $5 $6 $7 $8 $9 X,Y pos of 4 corners*
0 Add a 4 corners polygon primitive as box body*
4,1,4,$2,$3,$4,$5,$6,$7,$8,$9,$2,$3,0*
0 Add four circle primitives for the rounded corners*
1,1,$1+$1,$2,$3*
1,1,$1+$1,$4,$5*
1,1,$1+$1,$6,$7*
1,1,$1+$1,$8,$9*
0 Add four rect primitives between the rounded corners*
20,1,$1+$1,$2,$3,$4,$5,0*
20,1,$1+$1,$4,$5,$6,$7,0*
20,1,$1+$1,$6,$7,$8,$9,0*
20,1,$1+$1,$8,$9,$2,$3,0*%
G04 Aperture macros list end*
%TA.AperFunction,SMDPad,CuDef*%
%ADD10R,2.100000X1.400000*%
%TD*%
%TA.AperFunction,SMDPad,CuDef*%
%ADD11R,0.660400X0.609600*%
%TD*%
%TA.AperFunction,SMDPad,CuDef*%
%ADD12RoundRect,0.250000X-0.350000X-0.450000X0.350000X-0.450000X0.350000X0.450000X-0.350000X0.450000X0*%
%TD*%
%TA.AperFunction,SMDPad,CuDef*%
%ADD13R,1.000000X2.700000*%
%TD*%
%TA.AperFunction,ComponentPad*%
%ADD14R,1.700000X1.700000*%
%TD*%
%TA.AperFunction,ComponentPad*%
%ADD15O,1.700000X1.700000*%
%TD*%
%TA.AperFunction,SMDPad,CuDef*%
%ADD16R,1.900000X1.000000*%
%TD*%
%TA.AperFunction,SMDPad,CuDef*%
%ADD17R,1.500000X1.000000*%
%TD*%
%TA.AperFunction,SMDPad,CuDef*%
%ADD18R,1.875000X1.050000*%
%TD*%
%TA.AperFunction,SMDPad,CuDef*%
%ADD19RoundRect,0.020500X-0.764500X-0.184500X0.764500X-0.184500X0.764500X0.184500X-0.764500X0.184500X0*%
%TD*%
%TA.AperFunction,SMDPad,CuDef*%
%ADD20RoundRect,0.250000X0.450000X-0.350000X0.450000X0.350000X-0.450000X0.350000X-0.450000X-0.350000X0*%
%TD*%
%TA.AperFunction,ViaPad*%
%ADD21C,0.800000*%
%TD*%
%TA.AperFunction,Conductor*%
%ADD22C,0.250000*%
%TD*%
G04 APERTURE END LIST*
D10*
%TO.P,S2,1*%
%TO.N,GND*%
X166550000Y-89650000D03*
%TO.P,S2,2*%
%TO.N,/OUTPUT0*%
X157450000Y-89650000D03*
%TO.P,S2,3*%
%TO.N,/VCC_RES*%
X166550000Y-85150000D03*
%TO.P,S2,4*%
%TO.N,/DEBOUNCE1*%
X157450000Y-85150000D03*
%TD*%
D11*
%TO.P,LED6,1*%
%TO.N,Net-(LED6-Pad1)*%
X151080500Y-86400000D03*
%TO.P,LED6,2*%
%TO.N,/OUTPUT1*%
X153239500Y-86400000D03*
%TD*%
D12*
%TO.P,R1,1*%
%TO.N,VCC*%
X156800000Y-81000000D03*
%TO.P,R1,2*%
%TO.N,/VCC_RES*%
X158800000Y-81000000D03*
%TD*%
D13*
%TO.P,S1,1,1*%
%TO.N,/DEBOUNCE0*%
X167040000Y-81150000D03*
%TO.P,S1,2,2*%
%TO.N,/DEBOUNCE1*%
X161960000Y-93850000D03*
%TO.P,S1,4,4*%
%TO.N,/DEBOUNCE2*%
X161960000Y-81150000D03*
%TO.P,S1,8,8*%
%TO.N,/DEBOUNCE3*%
X167040000Y-93850000D03*
%TO.P,S1,C1,C1*%
%TO.N,/VCC_RES*%
X164500000Y-81150000D03*
%TO.P,S1,C2,C2*%
%TO.N,unconnected-(S1-PadC2)*%
X164500000Y-93850000D03*
%TD*%
D14*
%TO.P,J8,1,Pin_1*%
%TO.N,/OUTPUT1*%
X154660000Y-93500000D03*
D15*
%TO.P,J8,3,Pin_3*%
X149580000Y-93500000D03*
%TD*%
D14*
%TO.P,J7,1,Pin_1*%
%TO.N,/OUTPUT3*%
X142000000Y-93500000D03*
D15*
%TO.P,J7,2,Pin_2*%
X142000000Y-90960000D03*
%TD*%
D16*
%TO.P,J6,1,Pin_1*%
%TO.N,/OUTPUT2*%
X148730000Y-90960000D03*
D17*
%TO.P,J6,2,Pin_2*%
X145080000Y-93500000D03*
%TD*%
D11*
%TO.P,LED5,1*%
%TO.N,Net-(LED5-Pad1)*%
X158319500Y-86400000D03*
%TO.P,LED5,2*%
%TO.N,/OUTPUT0*%
X156160500Y-86400000D03*
%TD*%
%TO.P,LED7,1*%
%TO.N,Net-(LED7-Pad1)*%
X146000500Y-86400000D03*
%TO.P,LED7,2*%
%TO.N,/OUTPUT2*%
X148159500Y-86400000D03*
%TD*%
%TO.P,LED8,1*%
%TO.N,Net-(LED8-Pad1)*%
X140920500Y-86400000D03*
%TO.P,LED8,2*%
%TO.N,/OUTPUT3*%
X143079500Y-86400000D03*
%TD*%
D18*
%TO.P,D1,1*%
%TO.N,VCC*%
X146862500Y-84400000D03*
%TO.P,D1,2*%
%TO.N,Net-(J5-PWR)*%
X141537500Y-84400000D03*
%TO.P,D1,3*%
%TO.N,GND*%
X146862500Y-81900000D03*
%TO.P,D1,4*%
%TO.N,Net-(J4-PWR)*%
X141537500Y-81900000D03*
%TD*%
D19*
%TO.P,U1,1,Q4*%
%TO.N,/OUTPUT3*%
X149130000Y-80875000D03*
%TO.P,U1,2,Q1*%
%TO.N,/OUTPUT0*%
X149130000Y-81525000D03*
%TO.P,U1,3,R1*%
%TO.N,GND*%
X149130000Y-82175000D03*
%TO.P,U1,4,S1*%
%TO.N,/DEBOUNCE0*%
X149130000Y-82825000D03*
%TO.P,U1,5,ENABLE*%
%TO.N,VCC*%
X149130000Y-83475000D03*
%TO.P,U1,6,S2*%
%TO.N,/DEBOUNCE1*%
X149130000Y-84125000D03*
%TO.P,U1,7,R2*%
%TO.N,GND*%
X149130000Y-84775000D03*
%TO.P,U1,8,VSS*%
X149130000Y-85425000D03*
%TO.P,U1,9,Q2*%
%TO.N,/OUTPUT1*%
X154870000Y-85425000D03*
%TO.P,U1,10,Q3*%
%TO.N,/OUTPUT2*%
X154870000Y-84775000D03*
%TO.P,U1,11,R3*%
%TO.N,GND*%
X154870000Y-84125000D03*
%TO.P,U1,12,S3*%
%TO.N,/DEBOUNCE2*%
X154870000Y-83475000D03*
%TO.P,U1,13*%
%TO.N,N/C*%
X154870000Y-82825000D03*
%TO.P,U1,14,S4*%
%TO.N,/DEBOUNCE3*%
X154870000Y-82175000D03*
%TO.P,U1,15,R4*%
%TO.N,GND*%
X154870000Y-81525000D03*
%TO.P,U1,16,VDD*%
%TO.N,VCC*%
X154870000Y-80875000D03*
%TD*%
D14*
%TO.P,J1,1,Pin_1*%
%TO.N,/VCC_RES*%
X168150000Y-85000000D03*
D15*
%TO.P,J1,2,Pin_2*%
%TO.N,/DEBOUNCE1*%
X168150000Y-87540000D03*
%TO.P,J1,3,Pin_3*%
%TO.N,GND*%
X168150000Y-90080000D03*
%TD*%
D14*
%TO.P,J2,1,Pin_1*%
%TO.N,/OUTPUT0*%
X157240000Y-93500000D03*
D15*
%TO.P,J2,2,Pin_2*%
X157240000Y-90960000D03*
%TD*%
D14*
%TO.P,J3,1,Pin_1*%
%TO.N,/OUTPUT1*%
X152160000Y-93500000D03*
D15*
%TO.P,J3,2,Pin_2*%
X152160000Y-90960000D03*
%TD*%
D12*
%TO.P,R5,1*%
%TO.N,Net-(LED5-Pad1)*%
X156240000Y-88000000D03*
%TO.P,R5,2*%
%TO.N,GND*%
X158240000Y-88000000D03*
%TD*%
%TO.P,R6,1*%
%TO.N,Net-(LED6-Pad1)*%
X151160000Y-88000000D03*
%TO.P,R6,2*%
%TO.N,GND*%
X153160000Y-88000000D03*
%TD*%
D20*
%TO.P,R7,1*%
%TO.N,Net-(LED7-Pad1)*%
X144800000Y-89900000D03*
%TO.P,R7,2*%
%TO.N,GND*%
X144800000Y-87900000D03*
%TD*%
D12*
%TO.P,R8,1*%
%TO.N,Net-(LED8-Pad1)*%
X141150000Y-88000000D03*
%TO.P,R8,2*%
%TO.N,GND*%
X143150000Y-88000000D03*
%TD*%
D21*
%TO.N,GND*%
X160020000Y-93980000D03*
%TO.N,Net-(J5-PWR)*%
X144462701Y-80962701D03*
%TO.N,Net-(J4-PWR)*%
X142240000Y-81280000D03*
%TO.N,/OUTPUT0*%
X150500000Y-81500000D03*
X155000000Y-86500000D03*
%TO.N,/VCC_RES*%
X165100000Y-81280000D03*
%TO.N,/DEBOUNCE0*%
X160020000Y-83500000D03*
X145500000Y-83000000D03*
%TO.N,/DEBOUNCE3*%
X167640000Y-93980000D03*
X153500000Y-82200000D03*
%TO.N,/DEBOUNCE1*%
X162560000Y-92300000D03*
X150600000Y-84000000D03*
%TO.N,/DEBOUNCE2*%
X160000000Y-82000000D03*
X153500000Y-83400000D03*
%TD*%
D22*
%TO.N,GND*%
X147320000Y-94675000D02*
X154440000Y-94675000D01*
X144800000Y-86385000D02*
X144800000Y-87900000D01*
X144775000Y-86360000D02*
X144800000Y-86385000D01*
X145186396Y-81900000D02*
X144775000Y-82311396D01*
X144800000Y-87900000D02*
X143775000Y-88925000D01*
X149130000Y-85425000D02*
X149130000Y-84775000D01*
X160020000Y-89780000D02*
X158240000Y-88000000D01*
X151534104Y-84125000D02*
X154870000Y-84125000D01*
X144700000Y-88000000D02*
X144800000Y-87900000D01*
X144775000Y-84625000D02*
X144775000Y-86360000D01*
X144215000Y-94675000D02*
X147320000Y-94675000D01*
X160020000Y-93980000D02*
X160020000Y-89780000D01*
X143150000Y-88000000D02*
X144700000Y-88000000D01*
X149130000Y-82175000D02*
X146937500Y-82175000D01*
X153160000Y-88000000D02*
X155835000Y-90675000D01*
X155835000Y-94675000D02*
X154440000Y-94675000D01*
X154870000Y-81525000D02*
X153850305Y-81525000D01*
X166980000Y-90080000D02*
X166550000Y-89650000D01*
X143845000Y-94165000D02*
X144355000Y-94675000D01*
X153394695Y-81280000D02*
X151534104Y-83140591D01*
X153850305Y-81525000D02*
X153605305Y-81280000D01*
X159325000Y-94675000D02*
X160020000Y-93980000D01*
X149130000Y-84775000D02*
X150884104Y-84775000D01*
X150884104Y-84775000D02*
X151534104Y-84125000D01*
X144775000Y-86360000D02*
X144775000Y-86975000D01*
X143775000Y-88925000D02*
X143775000Y-94235000D01*
X144355000Y-94675000D02*
X147320000Y-94675000D01*
X146862500Y-81900000D02*
X145186396Y-81900000D01*
X143775000Y-94235000D02*
X144215000Y-94675000D01*
X168100000Y-90080000D02*
X166980000Y-90080000D01*
X155835000Y-90675000D02*
X155835000Y-94675000D01*
X144775000Y-84625000D02*
X145575000Y-85425000D01*
X144775000Y-82311396D02*
X144775000Y-84625000D01*
X154440000Y-94675000D02*
X159325000Y-94675000D01*
X145575000Y-85425000D02*
X149130000Y-85425000D01*
X151534104Y-83140591D02*
X151534104Y-84125000D01*
X153605305Y-81280000D02*
X153394695Y-81280000D01*
X146937500Y-82175000D02*
X146662500Y-81900000D01*
%TO.N,VCC*%
X155875000Y-80875000D02*
X156500000Y-81500000D01*
X149999695Y-83475000D02*
X149130000Y-83475000D01*
X154770000Y-80775000D02*
X152699695Y-80775000D01*
X152699695Y-80775000D02*
X149999695Y-83475000D01*
X147587500Y-83475000D02*
X146662500Y-84400000D01*
X154870000Y-80875000D02*
X154770000Y-80775000D01*
X154870000Y-80875000D02*
X155875000Y-80875000D01*
X149130000Y-83475000D02*
X147587500Y-83475000D01*
%TO.N,Net-(J5-PWR)*%
X144462701Y-80962701D02*
X144462701Y-81274799D01*
X144462701Y-81274799D02*
X141337500Y-84400000D01*
%TO.N,Net-(J4-PWR)*%
X141957500Y-81280000D02*
X141337500Y-81900000D01*
X142240000Y-81280000D02*
X141957500Y-81280000D01*
%TO.N,/OUTPUT0*%
X155580300Y-86500000D02*
X154940000Y-87140300D01*
X156160500Y-86500000D02*
X155580300Y-86500000D01*
X155000000Y-86500000D02*
X156160500Y-86500000D01*
X156240000Y-86579500D02*
X156160500Y-86500000D01*
X149155000Y-81500000D02*
X149130000Y-81525000D01*
X154940000Y-88660000D02*
X157240000Y-90960000D01*
X154940000Y-87140300D02*
X154940000Y-88660000D01*
X150500000Y-81500000D02*
X149155000Y-81500000D01*
X157240000Y-90460000D02*
X157240000Y-93000000D01*
%TO.N,/OUTPUT1*%
X152160000Y-90460000D02*
X152160000Y-87386827D01*
X154660000Y-93500000D02*
X152160000Y-93500000D01*
X152910278Y-86879000D02*
X153239500Y-86549778D01*
X152160000Y-90460000D02*
X152160000Y-93000000D01*
X153795000Y-86500000D02*
X154870000Y-85425000D01*
X153239500Y-86549778D02*
X153239500Y-86500000D01*
X152160000Y-93500000D02*
X149580000Y-93500000D01*
X153239500Y-86500000D02*
X153795000Y-86500000D01*
X147080000Y-93000000D02*
X149620000Y-93000000D01*
X152160000Y-87386827D02*
X152667827Y-86879000D01*
X152667827Y-86879000D02*
X152910278Y-86879000D01*
%TO.N,/OUTPUT2*%
X148739700Y-86500000D02*
X149860000Y-87620300D01*
X148970000Y-90220000D02*
X148730000Y-90460000D01*
X151520500Y-84775000D02*
X154870000Y-84775000D01*
X148159500Y-86500000D02*
X149795500Y-86500000D01*
X148159500Y-86500000D02*
X148739700Y-86500000D01*
X149795500Y-86500000D02*
X151520500Y-84775000D01*
X149860000Y-90220000D02*
X148970000Y-90220000D01*
X145080000Y-93000000D02*
X147620000Y-90460000D01*
X149860000Y-87620300D02*
X149860000Y-90220000D01*
X147620000Y-90460000D02*
X148730000Y-90460000D01*
%TO.N,/OUTPUT3*%
X145575000Y-80875000D02*
X149130000Y-80875000D01*
X143079500Y-86500000D02*
X143079500Y-86975000D01*
X142000000Y-90460000D02*
X142000000Y-93000000D01*
X142225000Y-87311827D02*
X142225000Y-90235000D01*
X142225000Y-90235000D02*
X142000000Y-90460000D01*
X143079500Y-86500000D02*
X143079500Y-83370500D01*
X143079500Y-83370500D02*
X145575000Y-80875000D01*
X143079500Y-86975000D02*
X142561827Y-86975000D01*
X142561827Y-86975000D02*
X142225000Y-87311827D01*
%TO.N,Net-(LED5-Pad1)*%
X157265000Y-86975000D02*
X157894278Y-86975000D01*
X157894278Y-86975000D02*
X158319500Y-86549778D01*
X158319500Y-86549778D02*
X158319500Y-86500000D01*
X157265000Y-86975000D02*
X156240000Y-88000000D01*
X158319500Y-86450222D02*
X158319500Y-86500000D01*
%TO.N,Net-(LED6-Pad1)*%
X151160000Y-88000000D02*
X151160000Y-86579500D01*
X151160000Y-86579500D02*
X151080500Y-86500000D01*
%TO.N,Net-(LED7-Pad1)*%
X145825000Y-86675500D02*
X146000500Y-86500000D01*
X144800000Y-89900000D02*
X145825000Y-88875000D01*
X146080000Y-86579500D02*
X146000500Y-86500000D01*
X146000500Y-86500000D02*
X146000500Y-86549778D01*
X145825000Y-88875000D02*
X145825000Y-86675500D01*
%TO.N,Net-(LED8-Pad1)*%
X141000000Y-88000000D02*
X141000000Y-86579500D01*
X141000000Y-86579500D02*
X140920500Y-86500000D01*
%TO.N,/VCC_RES*%
X164955505Y-81273562D02*
X164959314Y-81277371D01*
X161135000Y-84095000D02*
X161135000Y-83589695D01*
X161135000Y-83589695D02*
X160270305Y-82725000D01*
X158800000Y-81825305D02*
X158800000Y-81000000D01*
X164500000Y-82420000D02*
X164460000Y-82420000D01*
X164460000Y-82420000D02*
X162655000Y-84225000D01*
X164959314Y-81277371D02*
X164978987Y-81327495D01*
X162655000Y-84225000D02*
X161265000Y-84225000D01*
X167600000Y-85000000D02*
X167475000Y-85125000D01*
X161265000Y-84225000D02*
X161135000Y-84095000D01*
X168000000Y-85150000D02*
X168150000Y-85000000D01*
X166550000Y-85150000D02*
X168000000Y-85150000D01*
X160270305Y-82725000D02*
X159699695Y-82725000D01*
X164623562Y-81273562D02*
X164955505Y-81273562D01*
X164500000Y-81150000D02*
X164623562Y-81273562D01*
X159699695Y-82725000D02*
X158800000Y-81825305D01*
X167680000Y-85000000D02*
X168000000Y-85000000D01*
X167080000Y-85000000D02*
X167600000Y-85000000D01*
%TO.N,/DEBOUNCE0*%
X164785000Y-84675000D02*
X161078604Y-84675000D01*
X145775000Y-82825000D02*
X145500000Y-83100000D01*
X149130000Y-82825000D02*
X146175000Y-82825000D01*
X167040000Y-82420000D02*
X164785000Y-84675000D01*
X161078604Y-84675000D02*
X160020000Y-83616396D01*
X146175000Y-82825000D02*
X146000000Y-83000000D01*
X146175000Y-82825000D02*
X145775000Y-82825000D01*
X160020000Y-83616396D02*
X160020000Y-83500000D01*
%TO.N,/DEBOUNCE3*%
X153525000Y-82175000D02*
X153500000Y-82200000D01*
X167040000Y-92580000D02*
X167040000Y-93380000D01*
X167040000Y-93380000D02*
X167640000Y-93980000D01*
X154870000Y-82175000D02*
X153525000Y-82175000D01*
%TO.N,/DEBOUNCE1*%
X158750000Y-85150000D02*
X162500000Y-88900000D01*
X157450000Y-85150000D02*
X158750000Y-85150000D01*
X162560000Y-92300000D02*
X162560000Y-92580000D01*
X161960000Y-91730000D02*
X166150000Y-87540000D01*
X161960000Y-92580000D02*
X161960000Y-91730000D01*
X150600000Y-83800000D02*
X150275000Y-84125000D01*
X162500000Y-88900000D02*
X165100000Y-88900000D01*
X150275000Y-84125000D02*
X149130000Y-84125000D01*
X166150000Y-87540000D02*
X167600000Y-87540000D01*
%TO.N,/DEBOUNCE2*%
X161960000Y-81880000D02*
X161960000Y-82420000D01*
X154870000Y-83475000D02*
X153525000Y-83475000D01*
X161540000Y-82000000D02*
X161960000Y-82420000D01*
X160000000Y-82000000D02*
X161540000Y-82000000D01*
X153525000Y-83475000D02*
X153500000Y-83500000D01*
%TD*%
M02*
