%TF.GenerationSoftware,KiCad,Pcbnew,7.0.9*%
%TF.CreationDate,2024-03-13T01:01:39-05:00*%
%TF.ProjectId,BOARD,424f4152-442e-46b6-9963-61645f706362,rev?*%
%TF.SameCoordinates,Original*%
%TF.FileFunction,Copper,L2,Bot*%
%TF.FilePolarity,Positive*%
%FSLAX46Y46*%
G04 Gerber Fmt 4.6, Leading zero omitted, Abs format (unit mm)*
G04 Created by KiCad (PCBNEW 7.0.9) date 2024-03-13 01:01:39*
%MOMM*%
%LPD*%
G01*
G04 APERTURE LIST*
G04 Aperture macros list*
%AMRoundRect*
0 Rectangle with rounded corners*
0 $1 Rounding radius*
0 $2 $3 $4 $5 $6 $7 $8 $9 X,Y pos of 4 corners*
0 Add a 4 corners polygon primitive as box body*
4,1,4,$2,$3,$4,$5,$6,$7,$8,$9,$2,$3,0*
0 Add four circle primitives for the rounded corners*
1,1,$1+$1,$2,$3*
1,1,$1+$1,$4,$5*
1,1,$1+$1,$6,$7*
1,1,$1+$1,$8,$9*
0 Add four rect primitives between the rounded corners*
20,1,$1+$1,$2,$3,$4,$5,0*
20,1,$1+$1,$4,$5,$6,$7,0*
20,1,$1+$1,$6,$7,$8,$9,0*
20,1,$1+$1,$8,$9,$2,$3,0*%
G04 Aperture macros list end*
%TA.AperFunction,ComponentPad*%
%ADD10R,1.700000X1.700000*%
%TD*%
%TA.AperFunction,ComponentPad*%
%ADD11R,1.845000X1.845000*%
%TD*%
%TA.AperFunction,ComponentPad*%
%ADD12C,1.845000*%
%TD*%
%TA.AperFunction,ComponentPad*%
%ADD13O,1.700000X1.700000*%
%TD*%
%TA.AperFunction,ComponentPad*%
%ADD14R,1.620000X1.620000*%
%TD*%
%TA.AperFunction,ComponentPad*%
%ADD15C,1.620000*%
%TD*%
%TA.AperFunction,ComponentPad*%
%ADD16R,2.200000X2.200000*%
%TD*%
%TA.AperFunction,ComponentPad*%
%ADD17O,2.200000X2.200000*%
%TD*%
%TA.AperFunction,SMDPad,CuDef*%
%ADD18RoundRect,0.250000X-0.350000X-0.450000X0.350000X-0.450000X0.350000X0.450000X-0.350000X0.450000X0*%
%TD*%
%TA.AperFunction,SMDPad,CuDef*%
%ADD19R,0.400000X1.350000*%
%TD*%
%TA.AperFunction,ComponentPad*%
%ADD20O,0.890000X1.550000*%
%TD*%
%TA.AperFunction,SMDPad,CuDef*%
%ADD21R,1.200000X1.550000*%
%TD*%
%TA.AperFunction,ComponentPad*%
%ADD22O,1.250000X0.950000*%
%TD*%
%TA.AperFunction,SMDPad,CuDef*%
%ADD23R,1.500000X1.550000*%
%TD*%
%TA.AperFunction,SMDPad,CuDef*%
%ADD24R,1.600000X0.550000*%
%TD*%
%TA.AperFunction,SMDPad,CuDef*%
%ADD25R,0.550000X1.600000*%
%TD*%
%TA.AperFunction,SMDPad,CuDef*%
%ADD26RoundRect,0.042000X0.988000X0.258000X-0.988000X0.258000X-0.988000X-0.258000X0.988000X-0.258000X0*%
%TD*%
%TA.AperFunction,SMDPad,CuDef*%
%ADD27RoundRect,0.250000X0.350000X0.450000X-0.350000X0.450000X-0.350000X-0.450000X0.350000X-0.450000X0*%
%TD*%
%TA.AperFunction,ComponentPad*%
%ADD28C,1.700000*%
%TD*%
%TA.AperFunction,ComponentPad*%
%ADD29C,3.500000*%
%TD*%
%TA.AperFunction,ViaPad*%
%ADD30C,0.800000*%
%TD*%
%TA.AperFunction,Conductor*%
%ADD31C,0.250000*%
%TD*%
%TA.AperFunction,Conductor*%
%ADD32C,0.200000*%
%TD*%
G04 APERTURE END LIST*
D10*
%TO.P,J57,1,Pin_1*%
%TO.N,INPUT5*%
X175000000Y-128000000D03*
%TD*%
D11*
%TO.P,Q1,1,D*%
%TO.N,+5V*%
X86360000Y-58310000D03*
D12*
%TO.P,Q1,2,G*%
%TO.N,MOSFET*%
X88900000Y-58310000D03*
%TO.P,Q1,3,S*%
%TO.N,VCC*%
X91440000Y-58310000D03*
%TD*%
D10*
%TO.P,J46,1,Pin_1*%
%TO.N,INPUT0*%
X175000000Y-48000000D03*
%TD*%
%TO.P,J43,1,Pin_1*%
%TO.N,OUTPUT5*%
X98000000Y-125460000D03*
D13*
%TO.P,J43,2,Pin_2*%
X98000000Y-128000000D03*
%TO.P,J43,3,Pin_3*%
X98000000Y-130540000D03*
%TD*%
D10*
%TO.P,J40,1,Pin_1*%
%TO.N,OUTPUT2*%
X98000000Y-77460000D03*
D13*
%TO.P,J40,2,Pin_2*%
X98000000Y-80000000D03*
%TO.P,J40,3,Pin_3*%
X98000000Y-82540000D03*
%TD*%
D10*
%TO.P,J55,1,Pin_1*%
%TO.N,INPUT4*%
X175000000Y-112000000D03*
%TD*%
%TO.P,J52,1,Pin_1*%
%TO.N,INPUT1*%
X175000000Y-64000000D03*
%TD*%
%TO.P,J61,1,Pin_1*%
%TO.N,+5V*%
X93980000Y-121920000D03*
D13*
%TO.P,J61,2,Pin_2*%
%TO.N,DATA4*%
X93980000Y-119380000D03*
%TO.P,J61,3,Pin_3*%
%TO.N,DATA3*%
X91440000Y-121920000D03*
%TO.P,J61,4,Pin_4*%
%TO.N,DATA5*%
X91440000Y-119380000D03*
%TO.P,J61,5,Pin_5*%
%TO.N,GND*%
X88900000Y-121920000D03*
%TO.P,J61,6,Pin_6*%
%TO.N,INPUT6*%
X88900000Y-119380000D03*
%TD*%
D10*
%TO.P,J48,1,Pin_1*%
%TO.N,INPUT4*%
X173500000Y-116190000D03*
D13*
%TO.P,J48,2,Pin_2*%
%TO.N,INPUT5*%
X173500000Y-118730000D03*
%TO.P,J48,3,Pin_3*%
%TO.N,INPUT6*%
X173500000Y-121270000D03*
%TO.P,J48,4,Pin_4*%
%TO.N,INPUT7*%
X173500000Y-123810000D03*
%TD*%
D10*
%TO.P,J37,1,Pin_1*%
%TO.N,OUTPUT0*%
X98000000Y-50540000D03*
D13*
%TO.P,J37,2,Pin_2*%
X98000000Y-48000000D03*
%TO.P,J37,3,Pin_3*%
X98000000Y-45460000D03*
%TD*%
D10*
%TO.P,J41,1,Pin_1*%
%TO.N,OUTPUT3*%
X98000000Y-93460000D03*
D13*
%TO.P,J41,2,Pin_2*%
X98000000Y-96000000D03*
%TO.P,J41,3,Pin_3*%
X98000000Y-98540000D03*
%TD*%
D10*
%TO.P,J44,1,Pin_1*%
%TO.N,VCC*%
X173500000Y-86725000D03*
D13*
%TO.P,J44,2,Pin_2*%
%TO.N,GND*%
X173500000Y-89265000D03*
%TD*%
D14*
%TO.P,D1,1*%
%TO.N,DATA4*%
X81280000Y-53080000D03*
D15*
%TO.P,D1,2*%
%TO.N,DATA3*%
X83820000Y-53080000D03*
%TO.P,D1,3*%
%TO.N,DATA2*%
X86360000Y-53080000D03*
%TO.P,D1,4*%
%TO.N,DATA6*%
X88900000Y-53080000D03*
%TO.P,D1,5*%
%TO.N,DATA7*%
X91440000Y-53080000D03*
%TO.P,D1,6*%
%TO.N,DIGIT1*%
X91440000Y-42920000D03*
%TO.P,D1,7*%
%TO.N,DATA0*%
X88900000Y-42920000D03*
%TO.P,D1,8*%
%TO.N,DATA1*%
X86360000Y-42920000D03*
%TO.P,D1,9*%
%TO.N,DIGIT0*%
X83820000Y-42920000D03*
%TO.P,D1,10*%
%TO.N,DATA5*%
X81280000Y-42920000D03*
%TD*%
D10*
%TO.P,J39,1,Pin_1*%
%TO.N,OUTPUT1*%
X98000000Y-61460000D03*
D13*
%TO.P,J39,2,Pin_2*%
X98000000Y-64000000D03*
%TO.P,J39,3,Pin_3*%
X98000000Y-66540000D03*
%TD*%
D10*
%TO.P,J51,1,Pin_1*%
%TO.N,VCC*%
X126725000Y-42500000D03*
D13*
%TO.P,J51,2,Pin_2*%
%TO.N,GND*%
X129265000Y-42500000D03*
%TD*%
D10*
%TO.P,J42,1,Pin_1*%
%TO.N,OUTPUT4*%
X98000000Y-109460000D03*
D13*
%TO.P,J42,2,Pin_2*%
X98000000Y-112000000D03*
%TO.P,J42,3,Pin_3*%
X98000000Y-114540000D03*
%TD*%
D10*
%TO.P,J59,1,Pin_1*%
%TO.N,OUTPUT0*%
X108190000Y-42500000D03*
D13*
%TO.P,J59,2,Pin_2*%
%TO.N,OUTPUT1*%
X110730000Y-42500000D03*
%TO.P,J59,3,Pin_3*%
%TO.N,INPUT1*%
X113270000Y-42500000D03*
%TO.P,J59,4,Pin_4*%
%TO.N,INPUT0*%
X115810000Y-42500000D03*
%TD*%
D10*
%TO.P,J54,1,Pin_1*%
%TO.N,INPUT3*%
X175000000Y-96000000D03*
%TD*%
D16*
%TO.P,D4,1,K*%
%TO.N,Net-(D4-K)*%
X142000000Y-58420000D03*
D17*
%TO.P,D4,2,A*%
%TO.N,USBD-*%
X142000000Y-48260000D03*
%TD*%
D10*
%TO.P,J49,1,Pin_1*%
%TO.N,INPUT0*%
X173500000Y-68190000D03*
D13*
%TO.P,J49,2,Pin_2*%
%TO.N,INPUT1*%
X173500000Y-70730000D03*
%TO.P,J49,3,Pin_3*%
%TO.N,INPUT2*%
X173500000Y-73270000D03*
%TO.P,J49,4,Pin_4*%
%TO.N,INPUT3*%
X173500000Y-75810000D03*
%TD*%
D10*
%TO.P,J53,1,Pin_1*%
%TO.N,INPUT2*%
X175000000Y-80000000D03*
%TD*%
%TO.P,J45,1,Pin_1*%
%TO.N,VCC*%
X125725000Y-133500000D03*
D13*
%TO.P,J45,2,Pin_2*%
%TO.N,GND*%
X128265000Y-133500000D03*
%TD*%
D18*
%TO.P,R2,1*%
%TO.N,BUTTON*%
X133620000Y-71120000D03*
%TO.P,R2,2*%
%TO.N,Net-(D2-K)*%
X135620000Y-71120000D03*
%TD*%
D19*
%TO.P,J38,1,VBUS*%
%TO.N,+5V*%
X141900000Y-44100000D03*
%TO.P,J38,2,D-*%
%TO.N,USBD-*%
X142550000Y-44100000D03*
%TO.P,J38,3,D+*%
%TO.N,USBD+*%
X143200000Y-44100000D03*
%TO.P,J38,4,ID*%
%TO.N,unconnected-(J38-ID-Pad4)*%
X143850000Y-44100000D03*
%TO.P,J38,5,GND*%
%TO.N,GND*%
X144500000Y-44100000D03*
D20*
%TO.P,J38,6,Shield*%
X139700000Y-41400000D03*
D21*
X140300000Y-41400000D03*
D22*
X140700000Y-44100000D03*
D23*
X142200000Y-41400000D03*
X144200000Y-41400000D03*
D22*
X145700000Y-44100000D03*
D21*
X146100000Y-41400000D03*
D20*
X146700000Y-41400000D03*
%TD*%
D10*
%TO.P,J47,1,Pin_1*%
%TO.N,INPUT0*%
X82500000Y-68190000D03*
D13*
%TO.P,J47,2,Pin_2*%
%TO.N,INPUT1*%
X82500000Y-70730000D03*
%TO.P,J47,3,Pin_3*%
%TO.N,INPUT2*%
X82500000Y-73270000D03*
%TO.P,J47,4,Pin_4*%
%TO.N,INPUT3*%
X82500000Y-75810000D03*
%TD*%
D24*
%TO.P,U1,1,PD3*%
%TO.N,ROTARYSWITCH3*%
X107250000Y-67130000D03*
%TO.P,U1,2,PD4*%
%TO.N,BUTTON*%
X107250000Y-66330000D03*
%TO.P,U1,3,PE0*%
%TO.N,MOSFET*%
X107250000Y-65530000D03*
%TO.P,U1,4,VCC*%
%TO.N,+5V*%
X107250000Y-64730000D03*
%TO.P,U1,5,GND*%
%TO.N,GND*%
X107250000Y-63930000D03*
%TO.P,U1,6,PE1*%
%TO.N,DATACLK*%
X107250000Y-63130000D03*
%TO.P,U1,7,XTAL1/PB6*%
%TO.N,DATA6*%
X107250000Y-62330000D03*
%TO.P,U1,8,XTAL2/PB7*%
%TO.N,DATA7*%
X107250000Y-61530000D03*
D25*
%TO.P,U1,9,PD5*%
%TO.N,DIGIT0*%
X108700000Y-60080000D03*
%TO.P,U1,10,PD6*%
%TO.N,DIGIT1*%
X109500000Y-60080000D03*
%TO.P,U1,11,PD7*%
%TO.N,INPUT7*%
X110300000Y-60080000D03*
%TO.P,U1,12,PB0*%
%TO.N,DATA0*%
X111100000Y-60080000D03*
%TO.P,U1,13,PB1*%
%TO.N,DATA1*%
X111900000Y-60080000D03*
%TO.P,U1,14,PB2*%
%TO.N,DATA2*%
X112700000Y-60080000D03*
%TO.P,U1,15,PB3*%
%TO.N,DATA3*%
X113500000Y-60080000D03*
%TO.P,U1,16,PB4*%
%TO.N,DATA4*%
X114300000Y-60080000D03*
D24*
%TO.P,U1,17,PB5*%
%TO.N,DATA5*%
X115750000Y-61530000D03*
%TO.P,U1,18,AVCC*%
%TO.N,+5V*%
X115750000Y-62330000D03*
%TO.P,U1,19,PE2*%
%TO.N,CURRENTSENSE*%
X115750000Y-63130000D03*
%TO.P,U1,20,AREF*%
%TO.N,+5V*%
X115750000Y-63930000D03*
%TO.P,U1,21,GND*%
%TO.N,GND*%
X115750000Y-64730000D03*
%TO.P,U1,22,PE3*%
%TO.N,RESET*%
X115750000Y-65530000D03*
%TO.P,U1,23,PC0*%
%TO.N,INPUT0*%
X115750000Y-66330000D03*
%TO.P,U1,24,PC1*%
%TO.N,INPUT1*%
X115750000Y-67130000D03*
D25*
%TO.P,U1,25,PC2*%
%TO.N,INPUT2*%
X114300000Y-68580000D03*
%TO.P,U1,26,PC3*%
%TO.N,INPUT3*%
X113500000Y-68580000D03*
%TO.P,U1,27,PC4*%
%TO.N,INPUT4*%
X112700000Y-68580000D03*
%TO.P,U1,28,PC5*%
%TO.N,INPUT5*%
X111900000Y-68580000D03*
%TO.P,U1,29,~{RESET}/PC6*%
%TO.N,INPUT6*%
X111100000Y-68580000D03*
%TO.P,U1,30,PD0*%
%TO.N,ROTARYSWITCH0*%
X110300000Y-68580000D03*
%TO.P,U1,31,PD1*%
%TO.N,ROTARYSWITCH1*%
X109500000Y-68580000D03*
%TO.P,U1,32,PD2*%
%TO.N,ROTARYSWITCH2*%
X108700000Y-68580000D03*
%TD*%
D16*
%TO.P,D3,1,K*%
%TO.N,Net-(D2-A)*%
X145500000Y-58420000D03*
D17*
%TO.P,D3,2,A*%
%TO.N,USBD+*%
X145500000Y-48260000D03*
%TD*%
D16*
%TO.P,D5,1,K*%
%TO.N,Net-(D5-K)*%
X142240000Y-71120000D03*
D17*
%TO.P,D5,2,A*%
%TO.N,Net-(D4-K)*%
X142240000Y-60960000D03*
%TD*%
D16*
%TO.P,D2,1,K*%
%TO.N,Net-(D2-K)*%
X147320000Y-71120000D03*
D17*
%TO.P,D2,2,A*%
%TO.N,Net-(D2-A)*%
X147320000Y-60960000D03*
%TD*%
D26*
%TO.P,U2,1,~{OE}*%
%TO.N,VCC*%
X118640000Y-45085000D03*
%TO.P,U2,2,1D*%
%TO.N,DATA0*%
X118640000Y-46355000D03*
%TO.P,U2,3,2D*%
%TO.N,DATA1*%
X118640000Y-47625000D03*
%TO.P,U2,4,3D*%
%TO.N,DATA2*%
X118640000Y-48895000D03*
%TO.P,U2,5,4D*%
%TO.N,DATA3*%
X118640000Y-50165000D03*
%TO.P,U2,6,5D*%
%TO.N,DATA4*%
X118640000Y-51435000D03*
%TO.P,U2,7,6D*%
%TO.N,DATA5*%
X118640000Y-52705000D03*
%TO.P,U2,8,7D*%
%TO.N,DATA6*%
X118640000Y-53975000D03*
%TO.P,U2,9,8D*%
%TO.N,DATA7*%
X118640000Y-55245000D03*
%TO.P,U2,10,GND*%
%TO.N,GND*%
X118640000Y-56515000D03*
%TO.P,U2,11,CLK*%
%TO.N,DATACLK*%
X109360000Y-56515000D03*
%TO.P,U2,12,8Q*%
%TO.N,OUTPUT7*%
X109360000Y-55245000D03*
%TO.P,U2,13,7Q*%
%TO.N,OUTPUT6*%
X109360000Y-53975000D03*
%TO.P,U2,14,6Q*%
%TO.N,OUTPUT5*%
X109360000Y-52705000D03*
%TO.P,U2,15,5Q*%
%TO.N,OUTPUT4*%
X109360000Y-51435000D03*
%TO.P,U2,16,4Q*%
%TO.N,OUTPUT3*%
X109360000Y-50165000D03*
%TO.P,U2,17,3Q*%
%TO.N,OUTPUT2*%
X109360000Y-48895000D03*
%TO.P,U2,18,2Q*%
%TO.N,OUTPUT1*%
X109360000Y-47625000D03*
%TO.P,U2,19,1Q*%
%TO.N,OUTPUT0*%
X109360000Y-46355000D03*
%TO.P,U2,20,VCC*%
%TO.N,VCC*%
X109360000Y-45085000D03*
%TD*%
D10*
%TO.P,J50,1,Pin_1*%
%TO.N,INPUT4*%
X82500000Y-116190000D03*
D13*
%TO.P,J50,2,Pin_2*%
%TO.N,INPUT5*%
X82500000Y-118730000D03*
%TO.P,J50,3,Pin_3*%
%TO.N,INPUT6*%
X82500000Y-121270000D03*
%TO.P,J50,4,Pin_4*%
%TO.N,INPUT7*%
X82500000Y-123810000D03*
%TD*%
D10*
%TO.P,J58,1,Pin_1*%
%TO.N,VCC*%
X82500000Y-86725000D03*
D13*
%TO.P,J58,2,Pin_2*%
%TO.N,GND*%
X82500000Y-89265000D03*
%TD*%
D27*
%TO.P,R1,1*%
%TO.N,VCC*%
X128000000Y-63500000D03*
%TO.P,R1,2*%
%TO.N,CURRENTSENSE*%
X126000000Y-63500000D03*
%TD*%
D10*
%TO.P,J60,1,VBUS*%
%TO.N,+5V*%
X158730000Y-59917500D03*
D28*
%TO.P,J60,2,D-*%
%TO.N,USBD-*%
X156230000Y-59917500D03*
%TO.P,J60,3,D+*%
%TO.N,USBD+*%
X156230000Y-57917500D03*
%TO.P,J60,4,GND*%
%TO.N,GND*%
X158730000Y-57917500D03*
D29*
%TO.P,J60,5,Shield*%
X151460000Y-55207500D03*
X163500000Y-55207500D03*
%TD*%
D27*
%TO.P,R3,1*%
%TO.N,Net-(D5-K)*%
X135620000Y-73660000D03*
%TO.P,R3,2*%
%TO.N,DATA3*%
X133620000Y-73660000D03*
%TD*%
D10*
%TO.P,J56,1,Pin_1*%
%TO.N,OUTPUT6*%
X108190000Y-133500000D03*
D13*
%TO.P,J56,2,Pin_2*%
%TO.N,OUTPUT7*%
X110730000Y-133500000D03*
%TO.P,J56,3,Pin_3*%
%TO.N,INPUT7*%
X113270000Y-133500000D03*
%TO.P,J56,4,Pin_4*%
%TO.N,INPUT6*%
X115810000Y-133500000D03*
%TD*%
D30*
%TO.N,GND*%
X106680000Y-93980000D03*
X152400000Y-81280000D03*
X86360000Y-71120000D03*
X88900000Y-111760000D03*
X135000000Y-64500000D03*
X119380000Y-119380000D03*
X152400000Y-48260000D03*
X104140000Y-65000000D03*
X127000000Y-58420000D03*
X112300000Y-118000000D03*
X86360000Y-45000000D03*
%TO.N,VCC*%
X109000000Y-45000000D03*
X119380000Y-86360000D03*
X137160000Y-81280000D03*
X134620000Y-111760000D03*
X152400000Y-63500000D03*
X119380000Y-96520000D03*
X127500000Y-63500000D03*
X104140000Y-81280000D03*
X134620000Y-48260000D03*
X116000000Y-45000000D03*
X110000000Y-104140000D03*
%TO.N,+5V*%
X93000000Y-73660000D03*
X94200000Y-90000000D03*
%TO.N,RESET*%
X109220000Y-66040000D03*
%TO.N,DATA2*%
X115000000Y-52000000D03*
%TO.N,DATA7*%
X116000000Y-58700000D03*
X107000000Y-58000000D03*
%TO.N,DIGIT1*%
X109000000Y-58000000D03*
X99000000Y-55880000D03*
%TO.N,DATA3*%
X116866801Y-71972203D03*
X115000000Y-53000000D03*
X114300000Y-111760000D03*
X111075500Y-114300000D03*
%TO.N,DATA5*%
X116000000Y-55200000D03*
X111760000Y-116840000D03*
X119380000Y-106680000D03*
%TO.N,DATA6*%
X124000000Y-56000000D03*
X105500000Y-59500000D03*
%TO.N,DATA1*%
X114000000Y-49000000D03*
%TO.N,DIGIT0*%
X108000000Y-58000000D03*
%TO.N,DATA0*%
X112000000Y-50000000D03*
%TO.N,BUTTON*%
X116840000Y-83820000D03*
X106680000Y-83820000D03*
X106680000Y-72500000D03*
X127000000Y-81280000D03*
%TO.N,MOSFET*%
X103500000Y-70000000D03*
%TO.N,INPUT0*%
X114300000Y-85000000D03*
X104140000Y-86360000D03*
X127000000Y-66000000D03*
X93980000Y-88000000D03*
%TO.N,INPUT1*%
X81280000Y-78740000D03*
X129540000Y-67200000D03*
X106680000Y-73660000D03*
X114300000Y-76200000D03*
X96000000Y-84000000D03*
%TO.N,INPUT2*%
X123000000Y-68580000D03*
%TO.N,INPUT3*%
X96000000Y-72700000D03*
X116840000Y-70000000D03*
X160020000Y-76200000D03*
%TO.N,INPUT4*%
X111000000Y-67000000D03*
%TO.N,INPUT5*%
X111900000Y-71120000D03*
%TO.N,INPUT7*%
X110000000Y-64000000D03*
X114300000Y-121920000D03*
%TO.N,ROTARYSWITCH0*%
X110220000Y-71120000D03*
%TO.N,ROTARYSWITCH1*%
X109220000Y-71120000D03*
%TO.N,ROTARYSWITCH2*%
X108220000Y-71120000D03*
%TO.N,ROTARYSWITCH3*%
X106680000Y-71120000D03*
%TO.N,DATA4*%
X114300000Y-106680000D03*
X115000000Y-54000000D03*
X111075500Y-109220000D03*
%TD*%
D31*
%TO.N,GND*%
X86360000Y-45000000D02*
X86360000Y-45720000D01*
X152195305Y-64730000D02*
X115750000Y-64730000D01*
X81325000Y-120783299D02*
X82013299Y-120095000D01*
X146100000Y-41400000D02*
X146700000Y-41400000D01*
X125550000Y-50800000D02*
X125550000Y-41325000D01*
X132215000Y-45450000D02*
X129265000Y-42500000D01*
X88900000Y-118205000D02*
X88900000Y-116840000D01*
X140700000Y-42900000D02*
X140700000Y-44100000D01*
X84955000Y-57015000D02*
X82415000Y-54475000D01*
X144200000Y-41400000D02*
X146100000Y-41400000D01*
X158116396Y-81280000D02*
X152400000Y-81280000D01*
X81325000Y-121965000D02*
X81325000Y-120783299D01*
X84955000Y-69715000D02*
X86360000Y-71120000D01*
X145700000Y-42400000D02*
X146700000Y-41400000D01*
X135345000Y-50075000D02*
X135345000Y-46445000D01*
X127000000Y-52250000D02*
X125550000Y-50800000D01*
X86360000Y-122635000D02*
X81995000Y-122635000D01*
X173500000Y-89265000D02*
X166101396Y-89265000D01*
X145700000Y-44100000D02*
X144500000Y-44100000D01*
X88900000Y-116840000D02*
X88900000Y-111760000D01*
X134350000Y-45450000D02*
X132215000Y-45450000D01*
X128090000Y-41325000D02*
X129265000Y-42500000D01*
X166101396Y-89265000D02*
X158116396Y-81280000D01*
X84955000Y-69715000D02*
X84955000Y-57015000D01*
X118640000Y-56515000D02*
X120015000Y-56515000D01*
X124460000Y-58420000D02*
X127000000Y-55880000D01*
X127000000Y-55880000D02*
X127000000Y-52250000D01*
X113680000Y-119380000D02*
X112300000Y-118000000D01*
X135345000Y-46445000D02*
X134350000Y-45450000D01*
X107250000Y-63930000D02*
X105210000Y-63930000D01*
X144200000Y-41400000D02*
X144200000Y-42600000D01*
X88900000Y-95665000D02*
X88900000Y-111760000D01*
X121920000Y-58420000D02*
X124460000Y-58420000D01*
X105210000Y-63930000D02*
X104140000Y-65000000D01*
X144500000Y-44100000D02*
X144500000Y-44575000D01*
X139700000Y-41400000D02*
X140300000Y-41400000D01*
X142200000Y-41400000D02*
X140700000Y-42900000D01*
X85645000Y-120095000D02*
X88900000Y-116840000D01*
X82415000Y-49665000D02*
X86360000Y-45720000D01*
X82013299Y-120095000D02*
X85645000Y-120095000D01*
X127000000Y-58420000D02*
X135345000Y-50075000D01*
X139700000Y-41400000D02*
X139700000Y-43100000D01*
X87075000Y-121920000D02*
X86360000Y-122635000D01*
X81995000Y-122635000D02*
X81325000Y-121965000D01*
X125550000Y-41325000D02*
X128090000Y-41325000D01*
X88900000Y-121920000D02*
X87075000Y-121920000D01*
X139700000Y-43100000D02*
X140700000Y-44100000D01*
X120015000Y-56515000D02*
X121920000Y-58420000D01*
X119380000Y-119380000D02*
X113680000Y-119380000D01*
X144200000Y-41400000D02*
X142200000Y-41400000D01*
X82415000Y-54475000D02*
X82415000Y-49665000D01*
X82500000Y-89265000D02*
X88900000Y-95665000D01*
%TO.N,VCC*%
X118640000Y-45085000D02*
X116085000Y-45085000D01*
X160435000Y-73660000D02*
X144780000Y-73660000D01*
X115915000Y-45085000D02*
X109360000Y-45085000D01*
X110000000Y-104140000D02*
X117620000Y-96520000D01*
X128000000Y-63500000D02*
X152400000Y-63500000D01*
X117620000Y-96520000D02*
X119380000Y-96520000D01*
X105654695Y-88900000D02*
X116840000Y-88900000D01*
X104140000Y-81280000D02*
X103415000Y-82005000D01*
X173500000Y-86725000D02*
X160435000Y-73660000D01*
X116840000Y-88900000D02*
X119380000Y-86360000D01*
X116085000Y-45085000D02*
X116000000Y-45000000D01*
X116000000Y-45000000D02*
X115915000Y-45085000D01*
X132485000Y-48260000D02*
X134620000Y-48260000D01*
X103415000Y-82005000D02*
X103415000Y-86660305D01*
X144780000Y-73660000D02*
X137160000Y-81280000D01*
X126725000Y-42500000D02*
X132485000Y-48260000D01*
X103415000Y-86660305D02*
X105654695Y-88900000D01*
%TO.N,+5V*%
X113731409Y-77146104D02*
X105086104Y-77146104D01*
X94200000Y-90000000D02*
X96825000Y-92625000D01*
X120105000Y-86660305D02*
X120105000Y-83519695D01*
X96825000Y-121920000D02*
X96825000Y-131026701D01*
X158730000Y-59917500D02*
X157555000Y-61092500D01*
X96725000Y-68675000D02*
X86360000Y-58310000D01*
X111216701Y-134675000D02*
X111905000Y-133986701D01*
X96725000Y-71120000D02*
X96725000Y-68675000D01*
X151022500Y-61092500D02*
X140015000Y-50085000D01*
X140015000Y-50085000D02*
X138985000Y-50085000D01*
X141900000Y-44545305D02*
X137672653Y-48772653D01*
X111905000Y-131588604D02*
X102500000Y-122183604D01*
X100473299Y-134675000D02*
X111216701Y-134675000D01*
X112560000Y-64730000D02*
X107250000Y-64730000D01*
X114300000Y-63930000D02*
X113360000Y-63930000D01*
X93980000Y-121920000D02*
X96825000Y-121920000D01*
X120105000Y-83519695D02*
X113731409Y-77146104D01*
X105900000Y-64730000D02*
X107250000Y-64730000D01*
X102050000Y-74110000D02*
X102050000Y-68580000D01*
X157555000Y-61092500D02*
X151022500Y-61092500D01*
X137672653Y-48772653D02*
X127270000Y-59175305D01*
X102500000Y-104265305D02*
X120105000Y-86660305D01*
X102500000Y-122183604D02*
X102500000Y-104265305D01*
X111905000Y-133986701D02*
X111905000Y-131588604D01*
X96825000Y-131026701D02*
X100473299Y-134675000D01*
X138985000Y-50085000D02*
X137672653Y-48772653D01*
X95540000Y-71120000D02*
X93000000Y-73660000D01*
X127270000Y-59175305D02*
X127270000Y-62330000D01*
X115750000Y-63930000D02*
X114300000Y-63930000D01*
X96825000Y-92625000D02*
X96825000Y-119380000D01*
X96825000Y-119380000D02*
X96825000Y-121920000D01*
X115750000Y-62330000D02*
X114700000Y-62330000D01*
X114300000Y-62730000D02*
X114300000Y-63930000D01*
X94200000Y-90000000D02*
X96725000Y-87475000D01*
X113360000Y-63930000D02*
X112560000Y-64730000D01*
X96725000Y-71120000D02*
X95540000Y-71120000D01*
X127270000Y-62330000D02*
X115750000Y-62330000D01*
X141900000Y-44100000D02*
X141900000Y-44545305D01*
X96725000Y-87475000D02*
X96725000Y-71120000D01*
X114700000Y-62330000D02*
X114300000Y-62730000D01*
X105086104Y-77146104D02*
X102050000Y-74110000D01*
X102050000Y-68580000D02*
X105900000Y-64730000D01*
%TO.N,RESET*%
X109730000Y-65530000D02*
X109220000Y-66040000D01*
X115750000Y-65530000D02*
X109730000Y-65530000D01*
%TO.N,Net-(D2-K)*%
X137045000Y-69695000D02*
X135620000Y-71120000D01*
X147320000Y-71120000D02*
X145895000Y-69695000D01*
X145895000Y-69695000D02*
X137045000Y-69695000D01*
%TO.N,DATA2*%
X86360000Y-53080000D02*
X87945000Y-54665000D01*
X92655000Y-54665000D02*
X93980000Y-53340000D01*
X87945000Y-54665000D02*
X92655000Y-54665000D01*
X106865000Y-41090000D02*
X116653604Y-41090000D01*
X106415000Y-41540000D02*
X106865000Y-41090000D01*
X93980000Y-45720000D02*
X98160000Y-41540000D01*
X98160000Y-41540000D02*
X106415000Y-41540000D01*
X120445000Y-48260000D02*
X119810000Y-48895000D01*
X115000000Y-52000000D02*
X115025305Y-52000000D01*
X115000000Y-52000000D02*
X114974695Y-52000000D01*
X115025305Y-52000000D02*
X118130305Y-48895000D01*
X118743604Y-43180000D02*
X119380000Y-43180000D01*
X119810000Y-48895000D02*
X118640000Y-48895000D01*
X118130305Y-48895000D02*
X118640000Y-48895000D01*
X93980000Y-53340000D02*
X93980000Y-45720000D01*
X120445000Y-44245000D02*
X120445000Y-48260000D01*
X119380000Y-43180000D02*
X120445000Y-44245000D01*
X112700000Y-54274695D02*
X112700000Y-60080000D01*
X114974695Y-52000000D02*
X112700000Y-54274695D01*
X116653604Y-41090000D02*
X118743604Y-43180000D01*
%TO.N,DATA7*%
X124193503Y-56831802D02*
X120968198Y-56831802D01*
X91440000Y-53080000D02*
X91440000Y-46216650D01*
X116000000Y-57000000D02*
X117755000Y-55245000D01*
X106275000Y-58699695D02*
X106974695Y-58000000D01*
X106275000Y-60555000D02*
X106275000Y-58699695D01*
X124725000Y-53605000D02*
X124725000Y-56300305D01*
X106974695Y-58000000D02*
X107000000Y-58000000D01*
X116000000Y-57000000D02*
X116000000Y-58800000D01*
X106042208Y-40640000D02*
X106492208Y-40190000D01*
X121920000Y-50800000D02*
X124725000Y-53605000D01*
X117755000Y-55245000D02*
X118640000Y-55245000D01*
X124725000Y-56300305D02*
X124193503Y-56831802D01*
X119381396Y-55245000D02*
X118640000Y-55245000D01*
X120968198Y-56831802D02*
X119381396Y-55245000D01*
X91440000Y-46216650D02*
X97016650Y-40640000D01*
X107250000Y-61530000D02*
X106275000Y-60555000D01*
X106492208Y-40190000D02*
X118930000Y-40190000D01*
X118930000Y-40190000D02*
X121920000Y-43180000D01*
X121920000Y-43180000D02*
X121920000Y-50800000D01*
X97016650Y-40640000D02*
X106042208Y-40640000D01*
D32*
%TO.N,USBD+*%
X159340000Y-54807500D02*
X159340000Y-47580000D01*
X145500000Y-48260000D02*
X143200000Y-45960000D01*
X150665862Y-43125000D02*
X143300000Y-43125000D01*
X143200000Y-43225000D02*
X143200000Y-44100000D01*
X156760000Y-45000000D02*
X152540862Y-45000000D01*
X152540862Y-45000000D02*
X150665862Y-43125000D01*
X143200000Y-45960000D02*
X143200000Y-44100000D01*
X156230000Y-57917500D02*
X159340000Y-54807500D01*
X143300000Y-43125000D02*
X143200000Y-43225000D01*
X159340000Y-47580000D02*
X156760000Y-45000000D01*
D31*
%TO.N,DIGIT1*%
X85225000Y-49135000D02*
X85225000Y-54745000D01*
X85225000Y-54745000D02*
X86360000Y-55880000D01*
X109000000Y-58000000D02*
X109000000Y-58530000D01*
X93980000Y-55880000D02*
X99060000Y-55880000D01*
X91440000Y-42920000D02*
X85225000Y-49135000D01*
X109500000Y-59030000D02*
X109500000Y-60080000D01*
X86360000Y-55880000D02*
X93980000Y-55880000D01*
X109000000Y-58530000D02*
X109500000Y-59030000D01*
%TO.N,DATA3*%
X117719004Y-71120000D02*
X121470000Y-71120000D01*
X111075500Y-114300000D02*
X111760000Y-114300000D01*
X114974695Y-53000000D02*
X113500000Y-54474695D01*
X116866801Y-71972203D02*
X117719004Y-71120000D01*
X118640000Y-50165000D02*
X117860305Y-50165000D01*
X111760000Y-114300000D02*
X114300000Y-111760000D01*
X113500000Y-54474695D02*
X113500000Y-60080000D01*
X124420000Y-74070000D02*
X133620000Y-74070000D01*
X115000000Y-53000000D02*
X114974695Y-53000000D01*
X117860305Y-50165000D02*
X115025305Y-53000000D01*
X121470000Y-71120000D02*
X124420000Y-74070000D01*
X115025305Y-53000000D02*
X115000000Y-53000000D01*
%TO.N,DATA5*%
X111760000Y-116840000D02*
X119380000Y-109220000D01*
X117610001Y-52705000D02*
X115315001Y-55000000D01*
X115000000Y-55000000D02*
X115000000Y-60780000D01*
X115000000Y-60780000D02*
X115750000Y-61530000D01*
X118640000Y-52705000D02*
X119669999Y-52705000D01*
X119380000Y-109220000D02*
X119380000Y-106680000D01*
X115315001Y-55000000D02*
X115000000Y-55000000D01*
X118640000Y-52705000D02*
X117610001Y-52705000D01*
X115800000Y-55000000D02*
X115000000Y-55000000D01*
X116000000Y-55200000D02*
X115800000Y-55000000D01*
%TO.N,DATA6*%
X106678604Y-40640000D02*
X106228604Y-41090000D01*
X118743604Y-40640000D02*
X106678604Y-40640000D01*
X92575000Y-53550133D02*
X91910133Y-54215000D01*
X118640000Y-53975000D02*
X121975000Y-53975000D01*
X97203046Y-41090000D02*
X91890000Y-46403046D01*
X91890000Y-46403046D02*
X91890000Y-48069695D01*
X119669999Y-53975000D02*
X121470000Y-52174999D01*
X121470000Y-52174999D02*
X121470000Y-43366396D01*
X92575000Y-48754695D02*
X92575000Y-53550133D01*
X121975000Y-53975000D02*
X124000000Y-56000000D01*
X105000000Y-61130000D02*
X105000000Y-60000000D01*
X91910133Y-54215000D02*
X90035000Y-54215000D01*
X118640000Y-53975000D02*
X119669999Y-53975000D01*
X105000000Y-61130000D02*
X106200000Y-62330000D01*
X90035000Y-54215000D02*
X88900000Y-53080000D01*
X105000000Y-60000000D02*
X105500000Y-59500000D01*
X106200000Y-62330000D02*
X107250000Y-62330000D01*
X121470000Y-43366396D02*
X118743604Y-40640000D01*
X106228604Y-41090000D02*
X97203046Y-41090000D01*
X91890000Y-48069695D02*
X92575000Y-48754695D01*
%TO.N,DATA1*%
X117475000Y-47625000D02*
X118640000Y-47625000D01*
X114500000Y-49000000D02*
X115875000Y-47625000D01*
X115875000Y-47625000D02*
X118640000Y-47625000D01*
X111900000Y-54074695D02*
X111900000Y-60080000D01*
X114974695Y-51000000D02*
X111900000Y-54074695D01*
X114500000Y-49000000D02*
X114500000Y-50525305D01*
X114500000Y-50525305D02*
X114974695Y-51000000D01*
%TO.N,DIGIT0*%
X108000000Y-58000000D02*
X108000000Y-59380000D01*
X108000000Y-59380000D02*
X108700000Y-60080000D01*
%TO.N,DATA0*%
X112000000Y-49974695D02*
X112000000Y-50000000D01*
X117610001Y-46355000D02*
X118640000Y-46355000D01*
X111100000Y-53874695D02*
X111100000Y-60080000D01*
X111760000Y-50240000D02*
X111760000Y-53214695D01*
X111760000Y-53214695D02*
X111100000Y-53874695D01*
X115619695Y-46355000D02*
X112000000Y-49974695D01*
X118640000Y-46355000D02*
X115619695Y-46355000D01*
%TO.N,OUTPUT0*%
X109360000Y-46355000D02*
X109220000Y-46355000D01*
X102185000Y-46355000D02*
X109220000Y-46355000D01*
X109220000Y-46355000D02*
X106678604Y-46355000D01*
X106678604Y-46355000D02*
X106230000Y-45906396D01*
X98000000Y-50540000D02*
X102185000Y-46355000D01*
X106230000Y-44460000D02*
X108190000Y-42500000D01*
X110389999Y-46355000D02*
X109360000Y-46355000D01*
X106230000Y-45906396D02*
X106230000Y-44460000D01*
%TO.N,BUTTON*%
X106200000Y-66330000D02*
X107250000Y-66330000D01*
X134545000Y-72045000D02*
X134545000Y-76275000D01*
X134545000Y-76275000D02*
X129540000Y-81280000D01*
X106680000Y-72500000D02*
X105970000Y-72500000D01*
X116840000Y-83820000D02*
X106680000Y-83820000D01*
X133620000Y-71120000D02*
X134545000Y-72045000D01*
X105970000Y-72500000D02*
X104590000Y-71120000D01*
X104590000Y-67940000D02*
X106200000Y-66330000D01*
X104590000Y-71120000D02*
X104590000Y-67940000D01*
X129540000Y-81280000D02*
X127000000Y-81280000D01*
%TO.N,CURRENTSENSE*%
X125630000Y-63130000D02*
X115750000Y-63130000D01*
X126000000Y-63500000D02*
X125630000Y-63130000D01*
%TO.N,OUTPUT1*%
X98000000Y-61460000D02*
X98000000Y-64000000D01*
X110389999Y-47625000D02*
X109360000Y-47625000D01*
X106685000Y-45725000D02*
X110496180Y-45725000D01*
X98000000Y-57955001D02*
X98000000Y-61460000D01*
X108955000Y-44275000D02*
X108125000Y-44275000D01*
X110730000Y-42500000D02*
X108955000Y-44275000D01*
X108125000Y-44275000D02*
X106680000Y-45720000D01*
X108330001Y-47625000D02*
X98000000Y-57955001D01*
X98000000Y-64000000D02*
X98000000Y-66540000D01*
X106680000Y-45720000D02*
X106685000Y-45725000D01*
X109360000Y-47625000D02*
X108330001Y-47625000D01*
X110839999Y-46068819D02*
X110839999Y-47175000D01*
X110839999Y-47175000D02*
X110389999Y-47625000D01*
X110496180Y-45725000D02*
X110839999Y-46068819D01*
%TO.N,OUTPUT2*%
X108585000Y-48895000D02*
X99175000Y-58305000D01*
X98000000Y-77460000D02*
X98000000Y-80000000D01*
X98000000Y-80000000D02*
X98000000Y-82540000D01*
X109360000Y-48895000D02*
X108585000Y-48895000D01*
X99175000Y-58305000D02*
X99175000Y-76285000D01*
X99175000Y-76285000D02*
X98000000Y-77460000D01*
%TO.N,MOSFET*%
X104140000Y-67590000D02*
X104140000Y-68580000D01*
X107250000Y-65530000D02*
X106200000Y-65530000D01*
X106200000Y-65530000D02*
X104140000Y-67590000D01*
X104140000Y-69360000D02*
X103500000Y-70000000D01*
X104140000Y-68580000D02*
X104140000Y-69360000D01*
%TO.N,OUTPUT3*%
X99625000Y-58870001D02*
X99625000Y-91835000D01*
X99625000Y-91835000D02*
X98000000Y-93460000D01*
X98000000Y-93460000D02*
X98000000Y-96000000D01*
X109360000Y-50165000D02*
X108330001Y-50165000D01*
X108330001Y-50165000D02*
X99625000Y-58870001D01*
X98000000Y-96000000D02*
X98000000Y-98540000D01*
%TO.N,OUTPUT4*%
X100075000Y-59945000D02*
X100075000Y-107385000D01*
X100075000Y-107385000D02*
X98000000Y-109460000D01*
X108585000Y-51435000D02*
X100075000Y-59945000D01*
X109360000Y-51435000D02*
X108585000Y-51435000D01*
X98000000Y-112000000D02*
X98000000Y-114540000D01*
X98000000Y-109460000D02*
X98000000Y-112000000D01*
%TO.N,OUTPUT5*%
X100525000Y-60510001D02*
X100525000Y-122935000D01*
X98000000Y-128000000D02*
X98000000Y-130540000D01*
X98000000Y-125460000D02*
X98000000Y-128000000D01*
X100525000Y-122935000D02*
X98000000Y-125460000D01*
X109360000Y-52705000D02*
X108330001Y-52705000D01*
X108330001Y-52705000D02*
X100525000Y-60510001D01*
%TO.N,OUTPUT6*%
X100975000Y-61330001D02*
X100975000Y-76200000D01*
X108330001Y-53975000D02*
X100975000Y-61330001D01*
X100975000Y-76200000D02*
X101600000Y-76825000D01*
X101600000Y-76825000D02*
X101600000Y-124460000D01*
X109360000Y-53975000D02*
X108330001Y-53975000D01*
X101600000Y-124460000D02*
X108190000Y-131050000D01*
X108190000Y-131050000D02*
X108190000Y-133500000D01*
%TO.N,OUTPUT7*%
X107696397Y-55245000D02*
X101600000Y-61341397D01*
X109360000Y-55245000D02*
X107696397Y-55245000D01*
X102050000Y-76638604D02*
X102050000Y-122370000D01*
X101600000Y-61341397D02*
X101600000Y-76188604D01*
X110730000Y-131050000D02*
X110730000Y-133500000D01*
X101600000Y-76188604D02*
X102050000Y-76638604D01*
X102050000Y-122370000D02*
X110730000Y-131050000D01*
%TO.N,INPUT0*%
X80875000Y-69815000D02*
X82500000Y-68190000D01*
X93980000Y-88000000D02*
X93065000Y-87085000D01*
X114300000Y-85000000D02*
X105500000Y-85000000D01*
X91476903Y-87085000D02*
X80875000Y-76483097D01*
X105500000Y-85000000D02*
X104140000Y-86360000D01*
X115750000Y-66330000D02*
X156670000Y-66330000D01*
X156670000Y-66330000D02*
X175000000Y-48000000D01*
X80875000Y-76483097D02*
X80875000Y-69815000D01*
X93065000Y-87085000D02*
X91476903Y-87085000D01*
%TO.N,INPUT1*%
X115865000Y-67015000D02*
X171985000Y-67015000D01*
X109220000Y-76200000D02*
X114300000Y-76200000D01*
X96000000Y-84000000D02*
X89028298Y-84000000D01*
X171985000Y-67015000D02*
X175000000Y-64000000D01*
X81325000Y-76296701D02*
X81325000Y-71905000D01*
X89028298Y-84000000D02*
X88874149Y-83845851D01*
X81325000Y-71905000D02*
X82500000Y-70730000D01*
X88874149Y-83845851D02*
X81325000Y-76296701D01*
X106680000Y-73660000D02*
X109220000Y-76200000D01*
X115750000Y-67130000D02*
X115865000Y-67015000D01*
%TO.N,INPUT2*%
X167640000Y-68580000D02*
X168810000Y-68580000D01*
X129540000Y-68580000D02*
X167640000Y-68580000D01*
X114300000Y-68580000D02*
X124460000Y-68580000D01*
X168810000Y-68580000D02*
X173500000Y-73270000D01*
X167640000Y-68580000D02*
X167640000Y-72640000D01*
X124460000Y-68580000D02*
X129540000Y-68580000D01*
X167640000Y-72640000D02*
X175000000Y-80000000D01*
%TO.N,INPUT3*%
X146744695Y-85910000D02*
X129780000Y-85910000D01*
X160020000Y-76200000D02*
X160020000Y-78740000D01*
X116065000Y-70775000D02*
X114645000Y-70775000D01*
X160020000Y-78740000D02*
X158205000Y-80555000D01*
X175260000Y-96520000D02*
X175260000Y-88900000D01*
X113500000Y-69630000D02*
X113500000Y-68580000D01*
X114645000Y-70775000D02*
X113500000Y-69630000D01*
X96000000Y-72700000D02*
X96000000Y-73000000D01*
X96000000Y-73000000D02*
X93190000Y-75810000D01*
X158205000Y-80555000D02*
X154940000Y-80555000D01*
X175260000Y-88900000D02*
X174260000Y-87900000D01*
X152099695Y-80555000D02*
X146744695Y-85910000D01*
X172325000Y-87900000D02*
X164980000Y-80555000D01*
X93190000Y-75810000D02*
X82500000Y-75810000D01*
X164980000Y-80555000D02*
X154940000Y-80555000D01*
X174260000Y-87900000D02*
X172325000Y-87900000D01*
X129780000Y-85910000D02*
X114645000Y-70775000D01*
X154940000Y-80555000D02*
X152099695Y-80555000D01*
X116840000Y-70000000D02*
X116065000Y-70775000D01*
%TO.N,INPUT4*%
X112700000Y-69630000D02*
X129430000Y-86360000D01*
X175000000Y-98800000D02*
X175000000Y-112000000D01*
X162560000Y-86360000D02*
X175000000Y-98800000D01*
X112700000Y-67530000D02*
X112170000Y-67000000D01*
X112700000Y-68580000D02*
X112700000Y-67530000D01*
X112700000Y-68580000D02*
X112700000Y-69630000D01*
X129430000Y-86360000D02*
X162560000Y-86360000D01*
X112170000Y-67000000D02*
X111000000Y-67000000D01*
%TO.N,INPUT5*%
X111900000Y-69630000D02*
X129080000Y-86810000D01*
X172070000Y-118730000D02*
X173500000Y-118730000D01*
X129080000Y-86810000D02*
X140150000Y-86810000D01*
X140150000Y-86810000D02*
X172070000Y-118730000D01*
X111900000Y-68580000D02*
X111900000Y-69630000D01*
X111900000Y-71020000D02*
X111900000Y-68580000D01*
X111800000Y-71120000D02*
X111900000Y-71020000D01*
%TO.N,INPUT6*%
X111760000Y-96520000D02*
X102950000Y-105330000D01*
X173986701Y-124985000D02*
X127000000Y-124985000D01*
X111100000Y-68580000D02*
X111100000Y-73660000D01*
X83025000Y-120745000D02*
X82500000Y-121270000D01*
X102950000Y-113110000D02*
X116840000Y-127000000D01*
X124460000Y-83820000D02*
X124460000Y-88900000D01*
X116840000Y-132470000D02*
X115810000Y-133500000D01*
X173500000Y-121270000D02*
X174675000Y-122445000D01*
X116840000Y-129540000D02*
X121395000Y-124985000D01*
X124460000Y-88900000D02*
X116840000Y-96520000D01*
X114300000Y-73660000D02*
X124460000Y-83820000D01*
X121395000Y-124985000D02*
X127000000Y-124985000D01*
X116840000Y-96520000D02*
X111760000Y-96520000D01*
X116840000Y-129540000D02*
X116840000Y-132470000D01*
X111100000Y-73660000D02*
X114300000Y-73660000D01*
X102950000Y-105330000D02*
X102950000Y-113110000D01*
X174675000Y-124296701D02*
X173986701Y-124985000D01*
X174675000Y-122445000D02*
X174675000Y-124296701D01*
X116840000Y-127000000D02*
X116840000Y-129540000D01*
X127000000Y-124985000D02*
X125825000Y-124985000D01*
%TO.N,INPUT7*%
X173500000Y-123810000D02*
X124460000Y-123810000D01*
X110895000Y-135875000D02*
X113270000Y-133500000D01*
X173500000Y-123810000D02*
X114950000Y-123810000D01*
X110000000Y-62000000D02*
X110000000Y-64000000D01*
X94565000Y-135875000D02*
X110895000Y-135875000D01*
X114300000Y-123160000D02*
X114950000Y-123810000D01*
X82500000Y-123810000D02*
X94565000Y-135875000D01*
X110300000Y-60080000D02*
X110300000Y-61700000D01*
X110300000Y-61700000D02*
X110000000Y-62000000D01*
X114300000Y-121920000D02*
X114300000Y-123160000D01*
%TO.N,DATACLK*%
X106200000Y-63130000D02*
X104140000Y-61070000D01*
X107250000Y-63130000D02*
X106200000Y-63130000D01*
X104140000Y-61070000D02*
X104140000Y-59437793D01*
X104140000Y-59437793D02*
X107062793Y-56515000D01*
X107062793Y-56515000D02*
X109360000Y-56515000D01*
D32*
%TO.N,USBD-*%
X143400000Y-49660000D02*
X149740000Y-49660000D01*
X142000000Y-48260000D02*
X143400000Y-49660000D01*
X149740000Y-49660000D02*
X152400000Y-47000000D01*
X142550000Y-47710000D02*
X142000000Y-48260000D01*
X142550000Y-44100000D02*
X142550000Y-47710000D01*
X149740000Y-49660000D02*
X153510000Y-53430000D01*
X153510000Y-53430000D02*
X153510000Y-57197500D01*
X153510000Y-57197500D02*
X156230000Y-59917500D01*
D31*
X141900000Y-47700000D02*
X141790000Y-47810000D01*
D32*
X142240000Y-48278960D02*
X142550000Y-47968960D01*
D31*
%TO.N,ROTARYSWITCH0*%
X110300000Y-68580000D02*
X110300000Y-71040000D01*
X110300000Y-71040000D02*
X110220000Y-71120000D01*
%TO.N,ROTARYSWITCH1*%
X109500000Y-68580000D02*
X109500000Y-70840000D01*
X109500000Y-70840000D02*
X109220000Y-71120000D01*
%TO.N,ROTARYSWITCH2*%
X108700000Y-68580000D02*
X108220000Y-69060000D01*
X108220000Y-69060000D02*
X108220000Y-71120000D01*
%TO.N,ROTARYSWITCH3*%
X107250000Y-70550000D02*
X106680000Y-71120000D01*
X107250000Y-67130000D02*
X107250000Y-70550000D01*
%TO.N,Net-(D5-K)*%
X138570000Y-71120000D02*
X135620000Y-74070000D01*
X142240000Y-71120000D02*
X138570000Y-71120000D01*
%TO.N,DATA4*%
X114275000Y-54699695D02*
X114974695Y-54000000D01*
X117610001Y-51435000D02*
X115045001Y-54000000D01*
X118640000Y-51435000D02*
X117610001Y-51435000D01*
X113615500Y-106680000D02*
X111075500Y-109220000D01*
X114300000Y-60080000D02*
X114275000Y-60055000D01*
X119669999Y-51435000D02*
X119995000Y-51109999D01*
X114275000Y-60055000D02*
X114275000Y-54699695D01*
X114300000Y-106680000D02*
X113615500Y-106680000D01*
X115045001Y-54000000D02*
X115000000Y-54000000D01*
X114974695Y-54000000D02*
X115000000Y-54000000D01*
X118640000Y-51435000D02*
X119669999Y-51435000D01*
%TD*%
M02*
