%TF.GenerationSoftware,KiCad,Pcbnew,7.0.9*%
%TF.CreationDate,2024-03-13T01:01:39-05:00*%
%TF.ProjectId,BOARD,424f4152-442e-46b6-9963-61645f706362,rev?*%
%TF.SameCoordinates,Original*%
%TF.FileFunction,Paste,Bot*%
%TF.FilePolarity,Positive*%
%FSLAX46Y46*%
G04 Gerber Fmt 4.6, Leading zero omitted, Abs format (unit mm)*
G04 Created by KiCad (PCBNEW 7.0.9) date 2024-03-13 01:01:39*
%MOMM*%
%LPD*%
G01*
G04 APERTURE LIST*
G04 Aperture macros list*
%AMRoundRect*
0 Rectangle with rounded corners*
0 $1 Rounding radius*
0 $2 $3 $4 $5 $6 $7 $8 $9 X,Y pos of 4 corners*
0 Add a 4 corners polygon primitive as box body*
4,1,4,$2,$3,$4,$5,$6,$7,$8,$9,$2,$3,0*
0 Add four circle primitives for the rounded corners*
1,1,$1+$1,$2,$3*
1,1,$1+$1,$4,$5*
1,1,$1+$1,$6,$7*
1,1,$1+$1,$8,$9*
0 Add four rect primitives between the rounded corners*
20,1,$1+$1,$2,$3,$4,$5,0*
20,1,$1+$1,$4,$5,$6,$7,0*
20,1,$1+$1,$6,$7,$8,$9,0*
20,1,$1+$1,$8,$9,$2,$3,0*%
G04 Aperture macros list end*
%ADD10RoundRect,0.250000X-0.350000X-0.450000X0.350000X-0.450000X0.350000X0.450000X-0.350000X0.450000X0*%
%ADD11O,0.890000X1.550000*%
%ADD12O,1.250000X0.950000*%
%ADD13R,0.400000X1.350000*%
%ADD14R,1.200000X1.550000*%
%ADD15R,1.500000X1.550000*%
%ADD16R,1.600000X0.550000*%
%ADD17R,0.550000X1.600000*%
%ADD18RoundRect,0.042000X0.988000X0.258000X-0.988000X0.258000X-0.988000X-0.258000X0.988000X-0.258000X0*%
%ADD19RoundRect,0.250000X0.350000X0.450000X-0.350000X0.450000X-0.350000X-0.450000X0.350000X-0.450000X0*%
G04 APERTURE END LIST*
D10*
%TO.C,R2*%
X133620000Y-71120000D03*
X135620000Y-71120000D03*
%TD*%
D11*
%TO.C,J38*%
X139700000Y-41400000D03*
D12*
X140700000Y-44100000D03*
X145700000Y-44100000D03*
D11*
X146700000Y-41400000D03*
D13*
X141900000Y-44100000D03*
X142550000Y-44100000D03*
X143200000Y-44100000D03*
X143850000Y-44100000D03*
X144500000Y-44100000D03*
D14*
X140300000Y-41400000D03*
D15*
X142200000Y-41400000D03*
X144200000Y-41400000D03*
D14*
X146100000Y-41400000D03*
%TD*%
D16*
%TO.C,U1*%
X107250000Y-67130000D03*
X107250000Y-66330000D03*
X107250000Y-65530000D03*
X107250000Y-64730000D03*
X107250000Y-63930000D03*
X107250000Y-63130000D03*
X107250000Y-62330000D03*
X107250000Y-61530000D03*
D17*
X108700000Y-60080000D03*
X109500000Y-60080000D03*
X110300000Y-60080000D03*
X111100000Y-60080000D03*
X111900000Y-60080000D03*
X112700000Y-60080000D03*
X113500000Y-60080000D03*
X114300000Y-60080000D03*
D16*
X115750000Y-61530000D03*
X115750000Y-62330000D03*
X115750000Y-63130000D03*
X115750000Y-63930000D03*
X115750000Y-64730000D03*
X115750000Y-65530000D03*
X115750000Y-66330000D03*
X115750000Y-67130000D03*
D17*
X114300000Y-68580000D03*
X113500000Y-68580000D03*
X112700000Y-68580000D03*
X111900000Y-68580000D03*
X111100000Y-68580000D03*
X110300000Y-68580000D03*
X109500000Y-68580000D03*
X108700000Y-68580000D03*
%TD*%
D18*
%TO.C,U2*%
X118640000Y-45085000D03*
X118640000Y-46355000D03*
X118640000Y-47625000D03*
X118640000Y-48895000D03*
X118640000Y-50165000D03*
X118640000Y-51435000D03*
X118640000Y-52705000D03*
X118640000Y-53975000D03*
X118640000Y-55245000D03*
X118640000Y-56515000D03*
X109360000Y-56515000D03*
X109360000Y-55245000D03*
X109360000Y-53975000D03*
X109360000Y-52705000D03*
X109360000Y-51435000D03*
X109360000Y-50165000D03*
X109360000Y-48895000D03*
X109360000Y-47625000D03*
X109360000Y-46355000D03*
X109360000Y-45085000D03*
%TD*%
D19*
%TO.C,R1*%
X128000000Y-63500000D03*
X126000000Y-63500000D03*
%TD*%
%TO.C,R3*%
X135620000Y-73660000D03*
X133620000Y-73660000D03*
%TD*%
M02*
