%TF.GenerationSoftware,KiCad,Pcbnew,7.0.9*%
%TF.CreationDate,2024-03-13T01:01:39-05:00*%
%TF.ProjectId,BOARD,424f4152-442e-46b6-9963-61645f706362,rev?*%
%TF.SameCoordinates,Original*%
%TF.FileFunction,Soldermask,Bot*%
%TF.FilePolarity,Negative*%
%FSLAX46Y46*%
G04 Gerber Fmt 4.6, Leading zero omitted, Abs format (unit mm)*
G04 Created by KiCad (PCBNEW 7.0.9) date 2024-03-13 01:01:39*
%MOMM*%
%LPD*%
G01*
G04 APERTURE LIST*
G04 Aperture macros list*
%AMRoundRect*
0 Rectangle with rounded corners*
0 $1 Rounding radius*
0 $2 $3 $4 $5 $6 $7 $8 $9 X,Y pos of 4 corners*
0 Add a 4 corners polygon primitive as box body*
4,1,4,$2,$3,$4,$5,$6,$7,$8,$9,$2,$3,0*
0 Add four circle primitives for the rounded corners*
1,1,$1+$1,$2,$3*
1,1,$1+$1,$4,$5*
1,1,$1+$1,$6,$7*
1,1,$1+$1,$8,$9*
0 Add four rect primitives between the rounded corners*
20,1,$1+$1,$2,$3,$4,$5,0*
20,1,$1+$1,$4,$5,$6,$7,0*
20,1,$1+$1,$6,$7,$8,$9,0*
20,1,$1+$1,$8,$9,$2,$3,0*%
G04 Aperture macros list end*
%ADD10R,1.700000X1.700000*%
%ADD11RoundRect,0.102000X-0.922500X-0.922500X0.922500X-0.922500X0.922500X0.922500X-0.922500X0.922500X0*%
%ADD12C,2.049000*%
%ADD13O,1.700000X1.700000*%
%ADD14RoundRect,0.102000X0.810000X-0.810000X0.810000X0.810000X-0.810000X0.810000X-0.810000X-0.810000X0*%
%ADD15C,1.824000*%
%ADD16R,2.200000X2.200000*%
%ADD17O,2.200000X2.200000*%
%ADD18RoundRect,0.250000X-0.350000X-0.450000X0.350000X-0.450000X0.350000X0.450000X-0.350000X0.450000X0*%
%ADD19R,0.400000X1.350000*%
%ADD20O,0.890000X1.550000*%
%ADD21R,1.200000X1.550000*%
%ADD22O,1.250000X0.950000*%
%ADD23R,1.500000X1.550000*%
%ADD24R,1.600000X0.550000*%
%ADD25R,0.550000X1.600000*%
%ADD26RoundRect,0.144000X0.988000X0.258000X-0.988000X0.258000X-0.988000X-0.258000X0.988000X-0.258000X0*%
%ADD27RoundRect,0.250000X0.350000X0.450000X-0.350000X0.450000X-0.350000X-0.450000X0.350000X-0.450000X0*%
%ADD28C,1.700000*%
%ADD29C,3.500000*%
G04 APERTURE END LIST*
D10*
%TO.C,J57*%
X175000000Y-128000000D03*
%TD*%
D11*
%TO.C,Q1*%
X86360000Y-58310000D03*
D12*
X88900000Y-58310000D03*
X91440000Y-58310000D03*
%TD*%
D10*
%TO.C,J46*%
X175000000Y-48000000D03*
%TD*%
%TO.C,J43*%
X98000000Y-125460000D03*
D13*
X98000000Y-128000000D03*
X98000000Y-130540000D03*
%TD*%
D10*
%TO.C,J40*%
X98000000Y-77460000D03*
D13*
X98000000Y-80000000D03*
X98000000Y-82540000D03*
%TD*%
D10*
%TO.C,J55*%
X175000000Y-112000000D03*
%TD*%
%TO.C,J52*%
X175000000Y-64000000D03*
%TD*%
%TO.C,J61*%
X93980000Y-121920000D03*
D13*
X93980000Y-119380000D03*
X91440000Y-121920000D03*
X91440000Y-119380000D03*
X88900000Y-121920000D03*
X88900000Y-119380000D03*
%TD*%
D10*
%TO.C,J48*%
X173500000Y-116190000D03*
D13*
X173500000Y-118730000D03*
X173500000Y-121270000D03*
X173500000Y-123810000D03*
%TD*%
D10*
%TO.C,J37*%
X98000000Y-50540000D03*
D13*
X98000000Y-48000000D03*
X98000000Y-45460000D03*
%TD*%
D10*
%TO.C,J41*%
X98000000Y-93460000D03*
D13*
X98000000Y-96000000D03*
X98000000Y-98540000D03*
%TD*%
D10*
%TO.C,J44*%
X173500000Y-86725000D03*
D13*
X173500000Y-89265000D03*
%TD*%
D14*
%TO.C,D1*%
X81280000Y-53080000D03*
D15*
X83820000Y-53080000D03*
X86360000Y-53080000D03*
X88900000Y-53080000D03*
X91440000Y-53080000D03*
X91440000Y-42920000D03*
X88900000Y-42920000D03*
X86360000Y-42920000D03*
X83820000Y-42920000D03*
X81280000Y-42920000D03*
%TD*%
D10*
%TO.C,J39*%
X98000000Y-61460000D03*
D13*
X98000000Y-64000000D03*
X98000000Y-66540000D03*
%TD*%
D10*
%TO.C,J51*%
X126725000Y-42500000D03*
D13*
X129265000Y-42500000D03*
%TD*%
D10*
%TO.C,J42*%
X98000000Y-109460000D03*
D13*
X98000000Y-112000000D03*
X98000000Y-114540000D03*
%TD*%
D10*
%TO.C,J59*%
X108190000Y-42500000D03*
D13*
X110730000Y-42500000D03*
X113270000Y-42500000D03*
X115810000Y-42500000D03*
%TD*%
D10*
%TO.C,J54*%
X175000000Y-96000000D03*
%TD*%
D16*
%TO.C,D4*%
X142000000Y-58420000D03*
D17*
X142000000Y-48260000D03*
%TD*%
D10*
%TO.C,J49*%
X173500000Y-68190000D03*
D13*
X173500000Y-70730000D03*
X173500000Y-73270000D03*
X173500000Y-75810000D03*
%TD*%
D10*
%TO.C,J53*%
X175000000Y-80000000D03*
%TD*%
%TO.C,J45*%
X125725000Y-133500000D03*
D13*
X128265000Y-133500000D03*
%TD*%
D18*
%TO.C,R2*%
X133620000Y-71120000D03*
X135620000Y-71120000D03*
%TD*%
D19*
%TO.C,J38*%
X141900000Y-44100000D03*
X142550000Y-44100000D03*
X143200000Y-44100000D03*
X143850000Y-44100000D03*
X144500000Y-44100000D03*
D20*
X139700000Y-41400000D03*
D21*
X140300000Y-41400000D03*
D22*
X140700000Y-44100000D03*
D23*
X142200000Y-41400000D03*
X144200000Y-41400000D03*
D22*
X145700000Y-44100000D03*
D21*
X146100000Y-41400000D03*
D20*
X146700000Y-41400000D03*
%TD*%
D10*
%TO.C,J47*%
X82500000Y-68190000D03*
D13*
X82500000Y-70730000D03*
X82500000Y-73270000D03*
X82500000Y-75810000D03*
%TD*%
D24*
%TO.C,U1*%
X107250000Y-67130000D03*
X107250000Y-66330000D03*
X107250000Y-65530000D03*
X107250000Y-64730000D03*
X107250000Y-63930000D03*
X107250000Y-63130000D03*
X107250000Y-62330000D03*
X107250000Y-61530000D03*
D25*
X108700000Y-60080000D03*
X109500000Y-60080000D03*
X110300000Y-60080000D03*
X111100000Y-60080000D03*
X111900000Y-60080000D03*
X112700000Y-60080000D03*
X113500000Y-60080000D03*
X114300000Y-60080000D03*
D24*
X115750000Y-61530000D03*
X115750000Y-62330000D03*
X115750000Y-63130000D03*
X115750000Y-63930000D03*
X115750000Y-64730000D03*
X115750000Y-65530000D03*
X115750000Y-66330000D03*
X115750000Y-67130000D03*
D25*
X114300000Y-68580000D03*
X113500000Y-68580000D03*
X112700000Y-68580000D03*
X111900000Y-68580000D03*
X111100000Y-68580000D03*
X110300000Y-68580000D03*
X109500000Y-68580000D03*
X108700000Y-68580000D03*
%TD*%
D16*
%TO.C,D3*%
X145500000Y-58420000D03*
D17*
X145500000Y-48260000D03*
%TD*%
D16*
%TO.C,D5*%
X142240000Y-71120000D03*
D17*
X142240000Y-60960000D03*
%TD*%
D16*
%TO.C,D2*%
X147320000Y-71120000D03*
D17*
X147320000Y-60960000D03*
%TD*%
D26*
%TO.C,U2*%
X118640000Y-45085000D03*
X118640000Y-46355000D03*
X118640000Y-47625000D03*
X118640000Y-48895000D03*
X118640000Y-50165000D03*
X118640000Y-51435000D03*
X118640000Y-52705000D03*
X118640000Y-53975000D03*
X118640000Y-55245000D03*
X118640000Y-56515000D03*
X109360000Y-56515000D03*
X109360000Y-55245000D03*
X109360000Y-53975000D03*
X109360000Y-52705000D03*
X109360000Y-51435000D03*
X109360000Y-50165000D03*
X109360000Y-48895000D03*
X109360000Y-47625000D03*
X109360000Y-46355000D03*
X109360000Y-45085000D03*
%TD*%
D10*
%TO.C,J50*%
X82500000Y-116190000D03*
D13*
X82500000Y-118730000D03*
X82500000Y-121270000D03*
X82500000Y-123810000D03*
%TD*%
D10*
%TO.C,J58*%
X82500000Y-86725000D03*
D13*
X82500000Y-89265000D03*
%TD*%
D27*
%TO.C,R1*%
X128000000Y-63500000D03*
X126000000Y-63500000D03*
%TD*%
D10*
%TO.C,J60*%
X158730000Y-59917500D03*
D28*
X156230000Y-59917500D03*
X156230000Y-57917500D03*
X158730000Y-57917500D03*
D29*
X151460000Y-55207500D03*
X163500000Y-55207500D03*
%TD*%
D27*
%TO.C,R3*%
X135620000Y-73660000D03*
X133620000Y-73660000D03*
%TD*%
D10*
%TO.C,J56*%
X108190000Y-133500000D03*
D13*
X110730000Y-133500000D03*
X113270000Y-133500000D03*
X115810000Y-133500000D03*
%TD*%
M02*
