%TF.GenerationSoftware,KiCad,Pcbnew,7.0.9*%
%TF.CreationDate,2024-03-13T01:01:39-05:00*%
%TF.ProjectId,BOARD,424f4152-442e-46b6-9963-61645f706362,rev?*%
%TF.SameCoordinates,Original*%
%TF.FileFunction,Legend,Bot*%
%TF.FilePolarity,Positive*%
%FSLAX46Y46*%
G04 Gerber Fmt 4.6, Leading zero omitted, Abs format (unit mm)*
G04 Created by KiCad (PCBNEW 7.0.9) date 2024-03-13 01:01:39*
%MOMM*%
%LPD*%
G01*
G04 APERTURE LIST*
%ADD10C,0.300000*%
%ADD11C,0.250000*%
%ADD12C,0.150000*%
%ADD13C,0.120000*%
%ADD14C,0.127000*%
%ADD15C,0.200000*%
G04 APERTURE END LIST*
D10*
X148805489Y-131220114D02*
X148591203Y-131291542D01*
X148591203Y-131291542D02*
X148519774Y-131362971D01*
X148519774Y-131362971D02*
X148448346Y-131505828D01*
X148448346Y-131505828D02*
X148448346Y-131720114D01*
X148448346Y-131720114D02*
X148519774Y-131862971D01*
X148519774Y-131862971D02*
X148591203Y-131934400D01*
X148591203Y-131934400D02*
X148734060Y-132005828D01*
X148734060Y-132005828D02*
X149305489Y-132005828D01*
X149305489Y-132005828D02*
X149305489Y-130505828D01*
X149305489Y-130505828D02*
X148805489Y-130505828D01*
X148805489Y-130505828D02*
X148662632Y-130577257D01*
X148662632Y-130577257D02*
X148591203Y-130648685D01*
X148591203Y-130648685D02*
X148519774Y-130791542D01*
X148519774Y-130791542D02*
X148519774Y-130934400D01*
X148519774Y-130934400D02*
X148591203Y-131077257D01*
X148591203Y-131077257D02*
X148662632Y-131148685D01*
X148662632Y-131148685D02*
X148805489Y-131220114D01*
X148805489Y-131220114D02*
X149305489Y-131220114D01*
X147591203Y-132005828D02*
X147734060Y-131934400D01*
X147734060Y-131934400D02*
X147805489Y-131862971D01*
X147805489Y-131862971D02*
X147876917Y-131720114D01*
X147876917Y-131720114D02*
X147876917Y-131291542D01*
X147876917Y-131291542D02*
X147805489Y-131148685D01*
X147805489Y-131148685D02*
X147734060Y-131077257D01*
X147734060Y-131077257D02*
X147591203Y-131005828D01*
X147591203Y-131005828D02*
X147376917Y-131005828D01*
X147376917Y-131005828D02*
X147234060Y-131077257D01*
X147234060Y-131077257D02*
X147162632Y-131148685D01*
X147162632Y-131148685D02*
X147091203Y-131291542D01*
X147091203Y-131291542D02*
X147091203Y-131720114D01*
X147091203Y-131720114D02*
X147162632Y-131862971D01*
X147162632Y-131862971D02*
X147234060Y-131934400D01*
X147234060Y-131934400D02*
X147376917Y-132005828D01*
X147376917Y-132005828D02*
X147591203Y-132005828D01*
X145805489Y-132005828D02*
X145805489Y-131220114D01*
X145805489Y-131220114D02*
X145876917Y-131077257D01*
X145876917Y-131077257D02*
X146019774Y-131005828D01*
X146019774Y-131005828D02*
X146305489Y-131005828D01*
X146305489Y-131005828D02*
X146448346Y-131077257D01*
X145805489Y-131934400D02*
X145948346Y-132005828D01*
X145948346Y-132005828D02*
X146305489Y-132005828D01*
X146305489Y-132005828D02*
X146448346Y-131934400D01*
X146448346Y-131934400D02*
X146519774Y-131791542D01*
X146519774Y-131791542D02*
X146519774Y-131648685D01*
X146519774Y-131648685D02*
X146448346Y-131505828D01*
X146448346Y-131505828D02*
X146305489Y-131434400D01*
X146305489Y-131434400D02*
X145948346Y-131434400D01*
X145948346Y-131434400D02*
X145805489Y-131362971D01*
X145091203Y-132005828D02*
X145091203Y-131005828D01*
X145091203Y-131291542D02*
X145019774Y-131148685D01*
X145019774Y-131148685D02*
X144948346Y-131077257D01*
X144948346Y-131077257D02*
X144805488Y-131005828D01*
X144805488Y-131005828D02*
X144662631Y-131005828D01*
X143519775Y-132005828D02*
X143519775Y-130505828D01*
X143519775Y-131934400D02*
X143662632Y-132005828D01*
X143662632Y-132005828D02*
X143948346Y-132005828D01*
X143948346Y-132005828D02*
X144091203Y-131934400D01*
X144091203Y-131934400D02*
X144162632Y-131862971D01*
X144162632Y-131862971D02*
X144234060Y-131720114D01*
X144234060Y-131720114D02*
X144234060Y-131291542D01*
X144234060Y-131291542D02*
X144162632Y-131148685D01*
X144162632Y-131148685D02*
X144091203Y-131077257D01*
X144091203Y-131077257D02*
X143948346Y-131005828D01*
X143948346Y-131005828D02*
X143662632Y-131005828D01*
X143662632Y-131005828D02*
X143519775Y-131077257D01*
X141662632Y-132005828D02*
X141662632Y-130505828D01*
X141662632Y-130505828D02*
X141091203Y-130505828D01*
X141091203Y-130505828D02*
X140948346Y-130577257D01*
X140948346Y-130577257D02*
X140876917Y-130648685D01*
X140876917Y-130648685D02*
X140805489Y-130791542D01*
X140805489Y-130791542D02*
X140805489Y-131005828D01*
X140805489Y-131005828D02*
X140876917Y-131148685D01*
X140876917Y-131148685D02*
X140948346Y-131220114D01*
X140948346Y-131220114D02*
X141091203Y-131291542D01*
X141091203Y-131291542D02*
X141662632Y-131291542D01*
X139305489Y-131862971D02*
X139376917Y-131934400D01*
X139376917Y-131934400D02*
X139591203Y-132005828D01*
X139591203Y-132005828D02*
X139734060Y-132005828D01*
X139734060Y-132005828D02*
X139948346Y-131934400D01*
X139948346Y-131934400D02*
X140091203Y-131791542D01*
X140091203Y-131791542D02*
X140162632Y-131648685D01*
X140162632Y-131648685D02*
X140234060Y-131362971D01*
X140234060Y-131362971D02*
X140234060Y-131148685D01*
X140234060Y-131148685D02*
X140162632Y-130862971D01*
X140162632Y-130862971D02*
X140091203Y-130720114D01*
X140091203Y-130720114D02*
X139948346Y-130577257D01*
X139948346Y-130577257D02*
X139734060Y-130505828D01*
X139734060Y-130505828D02*
X139591203Y-130505828D01*
X139591203Y-130505828D02*
X139376917Y-130577257D01*
X139376917Y-130577257D02*
X139305489Y-130648685D01*
X138162632Y-131220114D02*
X137948346Y-131291542D01*
X137948346Y-131291542D02*
X137876917Y-131362971D01*
X137876917Y-131362971D02*
X137805489Y-131505828D01*
X137805489Y-131505828D02*
X137805489Y-131720114D01*
X137805489Y-131720114D02*
X137876917Y-131862971D01*
X137876917Y-131862971D02*
X137948346Y-131934400D01*
X137948346Y-131934400D02*
X138091203Y-132005828D01*
X138091203Y-132005828D02*
X138662632Y-132005828D01*
X138662632Y-132005828D02*
X138662632Y-130505828D01*
X138662632Y-130505828D02*
X138162632Y-130505828D01*
X138162632Y-130505828D02*
X138019775Y-130577257D01*
X138019775Y-130577257D02*
X137948346Y-130648685D01*
X137948346Y-130648685D02*
X137876917Y-130791542D01*
X137876917Y-130791542D02*
X137876917Y-130934400D01*
X137876917Y-130934400D02*
X137948346Y-131077257D01*
X137948346Y-131077257D02*
X138019775Y-131148685D01*
X138019775Y-131148685D02*
X138162632Y-131220114D01*
X138162632Y-131220114D02*
X138662632Y-131220114D01*
X148448346Y-134420828D02*
X148948346Y-133706542D01*
X149305489Y-134420828D02*
X149305489Y-132920828D01*
X149305489Y-132920828D02*
X148734060Y-132920828D01*
X148734060Y-132920828D02*
X148591203Y-132992257D01*
X148591203Y-132992257D02*
X148519774Y-133063685D01*
X148519774Y-133063685D02*
X148448346Y-133206542D01*
X148448346Y-133206542D02*
X148448346Y-133420828D01*
X148448346Y-133420828D02*
X148519774Y-133563685D01*
X148519774Y-133563685D02*
X148591203Y-133635114D01*
X148591203Y-133635114D02*
X148734060Y-133706542D01*
X148734060Y-133706542D02*
X149305489Y-133706542D01*
X147234060Y-134349400D02*
X147376917Y-134420828D01*
X147376917Y-134420828D02*
X147662632Y-134420828D01*
X147662632Y-134420828D02*
X147805489Y-134349400D01*
X147805489Y-134349400D02*
X147876917Y-134206542D01*
X147876917Y-134206542D02*
X147876917Y-133635114D01*
X147876917Y-133635114D02*
X147805489Y-133492257D01*
X147805489Y-133492257D02*
X147662632Y-133420828D01*
X147662632Y-133420828D02*
X147376917Y-133420828D01*
X147376917Y-133420828D02*
X147234060Y-133492257D01*
X147234060Y-133492257D02*
X147162632Y-133635114D01*
X147162632Y-133635114D02*
X147162632Y-133777971D01*
X147162632Y-133777971D02*
X147876917Y-133920828D01*
X146662632Y-133420828D02*
X146305489Y-134420828D01*
X146305489Y-134420828D02*
X145948346Y-133420828D01*
X143448346Y-134420828D02*
X144305489Y-134420828D01*
X143876918Y-134420828D02*
X143876918Y-132920828D01*
X143876918Y-132920828D02*
X144019775Y-133135114D01*
X144019775Y-133135114D02*
X144162632Y-133277971D01*
X144162632Y-133277971D02*
X144305489Y-133349400D01*
D11*
X161871717Y-131874619D02*
X161871717Y-132588904D01*
X161871717Y-132588904D02*
X161919336Y-132731761D01*
X161919336Y-132731761D02*
X162014574Y-132827000D01*
X162014574Y-132827000D02*
X162157431Y-132874619D01*
X162157431Y-132874619D02*
X162252669Y-132874619D01*
X161252669Y-132874619D02*
X161347907Y-132827000D01*
X161347907Y-132827000D02*
X161395526Y-132779380D01*
X161395526Y-132779380D02*
X161443145Y-132684142D01*
X161443145Y-132684142D02*
X161443145Y-132398428D01*
X161443145Y-132398428D02*
X161395526Y-132303190D01*
X161395526Y-132303190D02*
X161347907Y-132255571D01*
X161347907Y-132255571D02*
X161252669Y-132207952D01*
X161252669Y-132207952D02*
X161109812Y-132207952D01*
X161109812Y-132207952D02*
X161014574Y-132255571D01*
X161014574Y-132255571D02*
X160966955Y-132303190D01*
X160966955Y-132303190D02*
X160919336Y-132398428D01*
X160919336Y-132398428D02*
X160919336Y-132684142D01*
X160919336Y-132684142D02*
X160966955Y-132779380D01*
X160966955Y-132779380D02*
X161014574Y-132827000D01*
X161014574Y-132827000D02*
X161109812Y-132874619D01*
X161109812Y-132874619D02*
X161252669Y-132874619D01*
X160490764Y-132207952D02*
X160490764Y-132874619D01*
X160490764Y-132303190D02*
X160443145Y-132255571D01*
X160443145Y-132255571D02*
X160347907Y-132207952D01*
X160347907Y-132207952D02*
X160205050Y-132207952D01*
X160205050Y-132207952D02*
X160109812Y-132255571D01*
X160109812Y-132255571D02*
X160062193Y-132350809D01*
X160062193Y-132350809D02*
X160062193Y-132874619D01*
X159157431Y-132874619D02*
X159157431Y-132350809D01*
X159157431Y-132350809D02*
X159205050Y-132255571D01*
X159205050Y-132255571D02*
X159300288Y-132207952D01*
X159300288Y-132207952D02*
X159490764Y-132207952D01*
X159490764Y-132207952D02*
X159586002Y-132255571D01*
X159157431Y-132827000D02*
X159252669Y-132874619D01*
X159252669Y-132874619D02*
X159490764Y-132874619D01*
X159490764Y-132874619D02*
X159586002Y-132827000D01*
X159586002Y-132827000D02*
X159633621Y-132731761D01*
X159633621Y-132731761D02*
X159633621Y-132636523D01*
X159633621Y-132636523D02*
X159586002Y-132541285D01*
X159586002Y-132541285D02*
X159490764Y-132493666D01*
X159490764Y-132493666D02*
X159252669Y-132493666D01*
X159252669Y-132493666D02*
X159157431Y-132446047D01*
X158824097Y-132207952D02*
X158443145Y-132207952D01*
X158681240Y-131874619D02*
X158681240Y-132731761D01*
X158681240Y-132731761D02*
X158633621Y-132827000D01*
X158633621Y-132827000D02*
X158538383Y-132874619D01*
X158538383Y-132874619D02*
X158443145Y-132874619D01*
X158109811Y-132874619D02*
X158109811Y-131874619D01*
X157681240Y-132874619D02*
X157681240Y-132350809D01*
X157681240Y-132350809D02*
X157728859Y-132255571D01*
X157728859Y-132255571D02*
X157824097Y-132207952D01*
X157824097Y-132207952D02*
X157966954Y-132207952D01*
X157966954Y-132207952D02*
X158062192Y-132255571D01*
X158062192Y-132255571D02*
X158109811Y-132303190D01*
X156776478Y-132874619D02*
X156776478Y-132350809D01*
X156776478Y-132350809D02*
X156824097Y-132255571D01*
X156824097Y-132255571D02*
X156919335Y-132207952D01*
X156919335Y-132207952D02*
X157109811Y-132207952D01*
X157109811Y-132207952D02*
X157205049Y-132255571D01*
X156776478Y-132827000D02*
X156871716Y-132874619D01*
X156871716Y-132874619D02*
X157109811Y-132874619D01*
X157109811Y-132874619D02*
X157205049Y-132827000D01*
X157205049Y-132827000D02*
X157252668Y-132731761D01*
X157252668Y-132731761D02*
X157252668Y-132636523D01*
X157252668Y-132636523D02*
X157205049Y-132541285D01*
X157205049Y-132541285D02*
X157109811Y-132493666D01*
X157109811Y-132493666D02*
X156871716Y-132493666D01*
X156871716Y-132493666D02*
X156776478Y-132446047D01*
X156300287Y-132207952D02*
X156300287Y-132874619D01*
X156300287Y-132303190D02*
X156252668Y-132255571D01*
X156252668Y-132255571D02*
X156157430Y-132207952D01*
X156157430Y-132207952D02*
X156014573Y-132207952D01*
X156014573Y-132207952D02*
X155919335Y-132255571D01*
X155919335Y-132255571D02*
X155871716Y-132350809D01*
X155871716Y-132350809D02*
X155871716Y-132874619D01*
X154633620Y-132874619D02*
X154633620Y-131874619D01*
X154633620Y-132350809D02*
X154062192Y-132350809D01*
X154062192Y-132874619D02*
X154062192Y-131874619D01*
X153205049Y-132827000D02*
X153300287Y-132874619D01*
X153300287Y-132874619D02*
X153490763Y-132874619D01*
X153490763Y-132874619D02*
X153586001Y-132827000D01*
X153586001Y-132827000D02*
X153633620Y-132731761D01*
X153633620Y-132731761D02*
X153633620Y-132350809D01*
X153633620Y-132350809D02*
X153586001Y-132255571D01*
X153586001Y-132255571D02*
X153490763Y-132207952D01*
X153490763Y-132207952D02*
X153300287Y-132207952D01*
X153300287Y-132207952D02*
X153205049Y-132255571D01*
X153205049Y-132255571D02*
X153157430Y-132350809D01*
X153157430Y-132350809D02*
X153157430Y-132446047D01*
X153157430Y-132446047D02*
X153633620Y-132541285D01*
X152776477Y-132827000D02*
X152681239Y-132874619D01*
X152681239Y-132874619D02*
X152490763Y-132874619D01*
X152490763Y-132874619D02*
X152395525Y-132827000D01*
X152395525Y-132827000D02*
X152347906Y-132731761D01*
X152347906Y-132731761D02*
X152347906Y-132684142D01*
X152347906Y-132684142D02*
X152395525Y-132588904D01*
X152395525Y-132588904D02*
X152490763Y-132541285D01*
X152490763Y-132541285D02*
X152633620Y-132541285D01*
X152633620Y-132541285D02*
X152728858Y-132493666D01*
X152728858Y-132493666D02*
X152776477Y-132398428D01*
X152776477Y-132398428D02*
X152776477Y-132350809D01*
X152776477Y-132350809D02*
X152728858Y-132255571D01*
X152728858Y-132255571D02*
X152633620Y-132207952D01*
X152633620Y-132207952D02*
X152490763Y-132207952D01*
X152490763Y-132207952D02*
X152395525Y-132255571D01*
X151966953Y-132827000D02*
X151871715Y-132874619D01*
X151871715Y-132874619D02*
X151681239Y-132874619D01*
X151681239Y-132874619D02*
X151586001Y-132827000D01*
X151586001Y-132827000D02*
X151538382Y-132731761D01*
X151538382Y-132731761D02*
X151538382Y-132684142D01*
X151538382Y-132684142D02*
X151586001Y-132588904D01*
X151586001Y-132588904D02*
X151681239Y-132541285D01*
X151681239Y-132541285D02*
X151824096Y-132541285D01*
X151824096Y-132541285D02*
X151919334Y-132493666D01*
X151919334Y-132493666D02*
X151966953Y-132398428D01*
X151966953Y-132398428D02*
X151966953Y-132350809D01*
X151966953Y-132350809D02*
X151919334Y-132255571D01*
X151919334Y-132255571D02*
X151824096Y-132207952D01*
X151824096Y-132207952D02*
X151681239Y-132207952D01*
X151681239Y-132207952D02*
X151586001Y-132255571D01*
X161871717Y-134865571D02*
X161919336Y-134817952D01*
X161919336Y-134817952D02*
X162014574Y-134675095D01*
X162014574Y-134675095D02*
X162062193Y-134579857D01*
X162062193Y-134579857D02*
X162109812Y-134437000D01*
X162109812Y-134437000D02*
X162157431Y-134198904D01*
X162157431Y-134198904D02*
X162157431Y-134008428D01*
X162157431Y-134008428D02*
X162109812Y-133770333D01*
X162109812Y-133770333D02*
X162062193Y-133627476D01*
X162062193Y-133627476D02*
X162014574Y-133532238D01*
X162014574Y-133532238D02*
X161919336Y-133389380D01*
X161919336Y-133389380D02*
X161871717Y-133341761D01*
X161490764Y-133817952D02*
X161490764Y-134675095D01*
X161490764Y-134675095D02*
X161538383Y-134770333D01*
X161538383Y-134770333D02*
X161633621Y-134817952D01*
X161633621Y-134817952D02*
X161681240Y-134817952D01*
X161490764Y-133484619D02*
X161538383Y-133532238D01*
X161538383Y-133532238D02*
X161490764Y-133579857D01*
X161490764Y-133579857D02*
X161443145Y-133532238D01*
X161443145Y-133532238D02*
X161490764Y-133484619D01*
X161490764Y-133484619D02*
X161490764Y-133579857D01*
X160633622Y-134437000D02*
X160728860Y-134484619D01*
X160728860Y-134484619D02*
X160919336Y-134484619D01*
X160919336Y-134484619D02*
X161014574Y-134437000D01*
X161014574Y-134437000D02*
X161062193Y-134341761D01*
X161062193Y-134341761D02*
X161062193Y-133960809D01*
X161062193Y-133960809D02*
X161014574Y-133865571D01*
X161014574Y-133865571D02*
X160919336Y-133817952D01*
X160919336Y-133817952D02*
X160728860Y-133817952D01*
X160728860Y-133817952D02*
X160633622Y-133865571D01*
X160633622Y-133865571D02*
X160586003Y-133960809D01*
X160586003Y-133960809D02*
X160586003Y-134056047D01*
X160586003Y-134056047D02*
X161062193Y-134151285D01*
X160300288Y-133817952D02*
X159919336Y-133817952D01*
X160157431Y-133484619D02*
X160157431Y-134341761D01*
X160157431Y-134341761D02*
X160109812Y-134437000D01*
X160109812Y-134437000D02*
X160014574Y-134484619D01*
X160014574Y-134484619D02*
X159919336Y-134484619D01*
X159633621Y-134437000D02*
X159538383Y-134484619D01*
X159538383Y-134484619D02*
X159347907Y-134484619D01*
X159347907Y-134484619D02*
X159252669Y-134437000D01*
X159252669Y-134437000D02*
X159205050Y-134341761D01*
X159205050Y-134341761D02*
X159205050Y-134294142D01*
X159205050Y-134294142D02*
X159252669Y-134198904D01*
X159252669Y-134198904D02*
X159347907Y-134151285D01*
X159347907Y-134151285D02*
X159490764Y-134151285D01*
X159490764Y-134151285D02*
X159586002Y-134103666D01*
X159586002Y-134103666D02*
X159633621Y-134008428D01*
X159633621Y-134008428D02*
X159633621Y-133960809D01*
X159633621Y-133960809D02*
X159586002Y-133865571D01*
X159586002Y-133865571D02*
X159490764Y-133817952D01*
X159490764Y-133817952D02*
X159347907Y-133817952D01*
X159347907Y-133817952D02*
X159252669Y-133865571D01*
X158347907Y-134484619D02*
X158347907Y-133960809D01*
X158347907Y-133960809D02*
X158395526Y-133865571D01*
X158395526Y-133865571D02*
X158490764Y-133817952D01*
X158490764Y-133817952D02*
X158681240Y-133817952D01*
X158681240Y-133817952D02*
X158776478Y-133865571D01*
X158347907Y-134437000D02*
X158443145Y-134484619D01*
X158443145Y-134484619D02*
X158681240Y-134484619D01*
X158681240Y-134484619D02*
X158776478Y-134437000D01*
X158776478Y-134437000D02*
X158824097Y-134341761D01*
X158824097Y-134341761D02*
X158824097Y-134246523D01*
X158824097Y-134246523D02*
X158776478Y-134151285D01*
X158776478Y-134151285D02*
X158681240Y-134103666D01*
X158681240Y-134103666D02*
X158443145Y-134103666D01*
X158443145Y-134103666D02*
X158347907Y-134056047D01*
X157871716Y-134484619D02*
X157871716Y-133817952D01*
X157871716Y-133913190D02*
X157824097Y-133865571D01*
X157824097Y-133865571D02*
X157728859Y-133817952D01*
X157728859Y-133817952D02*
X157586002Y-133817952D01*
X157586002Y-133817952D02*
X157490764Y-133865571D01*
X157490764Y-133865571D02*
X157443145Y-133960809D01*
X157443145Y-133960809D02*
X157443145Y-134484619D01*
X157443145Y-133960809D02*
X157395526Y-133865571D01*
X157395526Y-133865571D02*
X157300288Y-133817952D01*
X157300288Y-133817952D02*
X157157431Y-133817952D01*
X157157431Y-133817952D02*
X157062192Y-133865571D01*
X157062192Y-133865571D02*
X157014573Y-133960809D01*
X157014573Y-133960809D02*
X157014573Y-134484619D01*
X156109812Y-134484619D02*
X156109812Y-133960809D01*
X156109812Y-133960809D02*
X156157431Y-133865571D01*
X156157431Y-133865571D02*
X156252669Y-133817952D01*
X156252669Y-133817952D02*
X156443145Y-133817952D01*
X156443145Y-133817952D02*
X156538383Y-133865571D01*
X156109812Y-134437000D02*
X156205050Y-134484619D01*
X156205050Y-134484619D02*
X156443145Y-134484619D01*
X156443145Y-134484619D02*
X156538383Y-134437000D01*
X156538383Y-134437000D02*
X156586002Y-134341761D01*
X156586002Y-134341761D02*
X156586002Y-134246523D01*
X156586002Y-134246523D02*
X156538383Y-134151285D01*
X156538383Y-134151285D02*
X156443145Y-134103666D01*
X156443145Y-134103666D02*
X156205050Y-134103666D01*
X156205050Y-134103666D02*
X156109812Y-134056047D01*
X155633621Y-134389380D02*
X155586002Y-134437000D01*
X155586002Y-134437000D02*
X155633621Y-134484619D01*
X155633621Y-134484619D02*
X155681240Y-134437000D01*
X155681240Y-134437000D02*
X155633621Y-134389380D01*
X155633621Y-134389380D02*
X155633621Y-134484619D01*
X154728860Y-134437000D02*
X154824098Y-134484619D01*
X154824098Y-134484619D02*
X155014574Y-134484619D01*
X155014574Y-134484619D02*
X155109812Y-134437000D01*
X155109812Y-134437000D02*
X155157431Y-134389380D01*
X155157431Y-134389380D02*
X155205050Y-134294142D01*
X155205050Y-134294142D02*
X155205050Y-134008428D01*
X155205050Y-134008428D02*
X155157431Y-133913190D01*
X155157431Y-133913190D02*
X155109812Y-133865571D01*
X155109812Y-133865571D02*
X155014574Y-133817952D01*
X155014574Y-133817952D02*
X154824098Y-133817952D01*
X154824098Y-133817952D02*
X154728860Y-133865571D01*
X154157431Y-134484619D02*
X154252669Y-134437000D01*
X154252669Y-134437000D02*
X154300288Y-134389380D01*
X154300288Y-134389380D02*
X154347907Y-134294142D01*
X154347907Y-134294142D02*
X154347907Y-134008428D01*
X154347907Y-134008428D02*
X154300288Y-133913190D01*
X154300288Y-133913190D02*
X154252669Y-133865571D01*
X154252669Y-133865571D02*
X154157431Y-133817952D01*
X154157431Y-133817952D02*
X154014574Y-133817952D01*
X154014574Y-133817952D02*
X153919336Y-133865571D01*
X153919336Y-133865571D02*
X153871717Y-133913190D01*
X153871717Y-133913190D02*
X153824098Y-134008428D01*
X153824098Y-134008428D02*
X153824098Y-134294142D01*
X153824098Y-134294142D02*
X153871717Y-134389380D01*
X153871717Y-134389380D02*
X153919336Y-134437000D01*
X153919336Y-134437000D02*
X154014574Y-134484619D01*
X154014574Y-134484619D02*
X154157431Y-134484619D01*
X153395526Y-134484619D02*
X153395526Y-133817952D01*
X153395526Y-133913190D02*
X153347907Y-133865571D01*
X153347907Y-133865571D02*
X153252669Y-133817952D01*
X153252669Y-133817952D02*
X153109812Y-133817952D01*
X153109812Y-133817952D02*
X153014574Y-133865571D01*
X153014574Y-133865571D02*
X152966955Y-133960809D01*
X152966955Y-133960809D02*
X152966955Y-134484619D01*
X152966955Y-133960809D02*
X152919336Y-133865571D01*
X152919336Y-133865571D02*
X152824098Y-133817952D01*
X152824098Y-133817952D02*
X152681241Y-133817952D01*
X152681241Y-133817952D02*
X152586002Y-133865571D01*
X152586002Y-133865571D02*
X152538383Y-133960809D01*
X152538383Y-133960809D02*
X152538383Y-134484619D01*
X152157431Y-134865571D02*
X152109812Y-134817952D01*
X152109812Y-134817952D02*
X152014574Y-134675095D01*
X152014574Y-134675095D02*
X151966955Y-134579857D01*
X151966955Y-134579857D02*
X151919336Y-134437000D01*
X151919336Y-134437000D02*
X151871717Y-134198904D01*
X151871717Y-134198904D02*
X151871717Y-134008428D01*
X151871717Y-134008428D02*
X151919336Y-133770333D01*
X151919336Y-133770333D02*
X151966955Y-133627476D01*
X151966955Y-133627476D02*
X152014574Y-133532238D01*
X152014574Y-133532238D02*
X152109812Y-133389380D01*
X152109812Y-133389380D02*
X152157431Y-133341761D01*
D12*
X122909819Y-137075476D02*
X123624104Y-137075476D01*
X123624104Y-137075476D02*
X123766961Y-137027857D01*
X123766961Y-137027857D02*
X123862200Y-136932619D01*
X123862200Y-136932619D02*
X123909819Y-136789762D01*
X123909819Y-136789762D02*
X123909819Y-136694524D01*
X123243152Y-137980238D02*
X123909819Y-137980238D01*
X122862200Y-137742143D02*
X123576485Y-137504048D01*
X123576485Y-137504048D02*
X123576485Y-138123095D01*
X122909819Y-138980238D02*
X122909819Y-138504048D01*
X122909819Y-138504048D02*
X123386009Y-138456429D01*
X123386009Y-138456429D02*
X123338390Y-138504048D01*
X123338390Y-138504048D02*
X123290771Y-138599286D01*
X123290771Y-138599286D02*
X123290771Y-138837381D01*
X123290771Y-138837381D02*
X123338390Y-138932619D01*
X123338390Y-138932619D02*
X123386009Y-138980238D01*
X123386009Y-138980238D02*
X123481247Y-139027857D01*
X123481247Y-139027857D02*
X123719342Y-139027857D01*
X123719342Y-139027857D02*
X123814580Y-138980238D01*
X123814580Y-138980238D02*
X123862200Y-138932619D01*
X123862200Y-138932619D02*
X123909819Y-138837381D01*
X123909819Y-138837381D02*
X123909819Y-138599286D01*
X123909819Y-138599286D02*
X123862200Y-138504048D01*
X123862200Y-138504048D02*
X123814580Y-138456429D01*
X134786666Y-73224819D02*
X135119999Y-72748628D01*
X135358094Y-73224819D02*
X135358094Y-72224819D01*
X135358094Y-72224819D02*
X134977142Y-72224819D01*
X134977142Y-72224819D02*
X134881904Y-72272438D01*
X134881904Y-72272438D02*
X134834285Y-72320057D01*
X134834285Y-72320057D02*
X134786666Y-72415295D01*
X134786666Y-72415295D02*
X134786666Y-72558152D01*
X134786666Y-72558152D02*
X134834285Y-72653390D01*
X134834285Y-72653390D02*
X134881904Y-72701009D01*
X134881904Y-72701009D02*
X134977142Y-72748628D01*
X134977142Y-72748628D02*
X135358094Y-72748628D01*
X134405713Y-72320057D02*
X134358094Y-72272438D01*
X134358094Y-72272438D02*
X134262856Y-72224819D01*
X134262856Y-72224819D02*
X134024761Y-72224819D01*
X134024761Y-72224819D02*
X133929523Y-72272438D01*
X133929523Y-72272438D02*
X133881904Y-72320057D01*
X133881904Y-72320057D02*
X133834285Y-72415295D01*
X133834285Y-72415295D02*
X133834285Y-72510533D01*
X133834285Y-72510533D02*
X133881904Y-72653390D01*
X133881904Y-72653390D02*
X134453332Y-73224819D01*
X134453332Y-73224819D02*
X133834285Y-73224819D01*
X144009523Y-45654819D02*
X144009523Y-46369104D01*
X144009523Y-46369104D02*
X144057142Y-46511961D01*
X144057142Y-46511961D02*
X144152380Y-46607200D01*
X144152380Y-46607200D02*
X144295237Y-46654819D01*
X144295237Y-46654819D02*
X144390475Y-46654819D01*
X143628570Y-45654819D02*
X143009523Y-45654819D01*
X143009523Y-45654819D02*
X143342856Y-46035771D01*
X143342856Y-46035771D02*
X143199999Y-46035771D01*
X143199999Y-46035771D02*
X143104761Y-46083390D01*
X143104761Y-46083390D02*
X143057142Y-46131009D01*
X143057142Y-46131009D02*
X143009523Y-46226247D01*
X143009523Y-46226247D02*
X143009523Y-46464342D01*
X143009523Y-46464342D02*
X143057142Y-46559580D01*
X143057142Y-46559580D02*
X143104761Y-46607200D01*
X143104761Y-46607200D02*
X143199999Y-46654819D01*
X143199999Y-46654819D02*
X143485713Y-46654819D01*
X143485713Y-46654819D02*
X143580951Y-46607200D01*
X143580951Y-46607200D02*
X143628570Y-46559580D01*
X142438094Y-46083390D02*
X142533332Y-46035771D01*
X142533332Y-46035771D02*
X142580951Y-45988152D01*
X142580951Y-45988152D02*
X142628570Y-45892914D01*
X142628570Y-45892914D02*
X142628570Y-45845295D01*
X142628570Y-45845295D02*
X142580951Y-45750057D01*
X142580951Y-45750057D02*
X142533332Y-45702438D01*
X142533332Y-45702438D02*
X142438094Y-45654819D01*
X142438094Y-45654819D02*
X142247618Y-45654819D01*
X142247618Y-45654819D02*
X142152380Y-45702438D01*
X142152380Y-45702438D02*
X142104761Y-45750057D01*
X142104761Y-45750057D02*
X142057142Y-45845295D01*
X142057142Y-45845295D02*
X142057142Y-45892914D01*
X142057142Y-45892914D02*
X142104761Y-45988152D01*
X142104761Y-45988152D02*
X142152380Y-46035771D01*
X142152380Y-46035771D02*
X142247618Y-46083390D01*
X142247618Y-46083390D02*
X142438094Y-46083390D01*
X142438094Y-46083390D02*
X142533332Y-46131009D01*
X142533332Y-46131009D02*
X142580951Y-46178628D01*
X142580951Y-46178628D02*
X142628570Y-46273866D01*
X142628570Y-46273866D02*
X142628570Y-46464342D01*
X142628570Y-46464342D02*
X142580951Y-46559580D01*
X142580951Y-46559580D02*
X142533332Y-46607200D01*
X142533332Y-46607200D02*
X142438094Y-46654819D01*
X142438094Y-46654819D02*
X142247618Y-46654819D01*
X142247618Y-46654819D02*
X142152380Y-46607200D01*
X142152380Y-46607200D02*
X142104761Y-46559580D01*
X142104761Y-46559580D02*
X142057142Y-46464342D01*
X142057142Y-46464342D02*
X142057142Y-46273866D01*
X142057142Y-46273866D02*
X142104761Y-46178628D01*
X142104761Y-46178628D02*
X142152380Y-46131009D01*
X142152380Y-46131009D02*
X142247618Y-46083390D01*
X78924523Y-65374819D02*
X78924523Y-66089104D01*
X78924523Y-66089104D02*
X78972142Y-66231961D01*
X78972142Y-66231961D02*
X79067380Y-66327200D01*
X79067380Y-66327200D02*
X79210237Y-66374819D01*
X79210237Y-66374819D02*
X79305475Y-66374819D01*
X78019761Y-65708152D02*
X78019761Y-66374819D01*
X78257856Y-65327200D02*
X78495951Y-66041485D01*
X78495951Y-66041485D02*
X77876904Y-66041485D01*
X77591189Y-65374819D02*
X76924523Y-65374819D01*
X76924523Y-65374819D02*
X77353094Y-66374819D01*
X112261904Y-69834819D02*
X112261904Y-70644342D01*
X112261904Y-70644342D02*
X112214285Y-70739580D01*
X112214285Y-70739580D02*
X112166666Y-70787200D01*
X112166666Y-70787200D02*
X112071428Y-70834819D01*
X112071428Y-70834819D02*
X111880952Y-70834819D01*
X111880952Y-70834819D02*
X111785714Y-70787200D01*
X111785714Y-70787200D02*
X111738095Y-70739580D01*
X111738095Y-70739580D02*
X111690476Y-70644342D01*
X111690476Y-70644342D02*
X111690476Y-69834819D01*
X110690476Y-70834819D02*
X111261904Y-70834819D01*
X110976190Y-70834819D02*
X110976190Y-69834819D01*
X110976190Y-69834819D02*
X111071428Y-69977676D01*
X111071428Y-69977676D02*
X111166666Y-70072914D01*
X111166666Y-70072914D02*
X111261904Y-70120533D01*
X148424819Y-52601905D02*
X147424819Y-52601905D01*
X147424819Y-52601905D02*
X147424819Y-52840000D01*
X147424819Y-52840000D02*
X147472438Y-52982857D01*
X147472438Y-52982857D02*
X147567676Y-53078095D01*
X147567676Y-53078095D02*
X147662914Y-53125714D01*
X147662914Y-53125714D02*
X147853390Y-53173333D01*
X147853390Y-53173333D02*
X147996247Y-53173333D01*
X147996247Y-53173333D02*
X148186723Y-53125714D01*
X148186723Y-53125714D02*
X148281961Y-53078095D01*
X148281961Y-53078095D02*
X148377200Y-52982857D01*
X148377200Y-52982857D02*
X148424819Y-52840000D01*
X148424819Y-52840000D02*
X148424819Y-52601905D01*
X147424819Y-53506667D02*
X147424819Y-54125714D01*
X147424819Y-54125714D02*
X147805771Y-53792381D01*
X147805771Y-53792381D02*
X147805771Y-53935238D01*
X147805771Y-53935238D02*
X147853390Y-54030476D01*
X147853390Y-54030476D02*
X147901009Y-54078095D01*
X147901009Y-54078095D02*
X147996247Y-54125714D01*
X147996247Y-54125714D02*
X148234342Y-54125714D01*
X148234342Y-54125714D02*
X148329580Y-54078095D01*
X148329580Y-54078095D02*
X148377200Y-54030476D01*
X148377200Y-54030476D02*
X148424819Y-53935238D01*
X148424819Y-53935238D02*
X148424819Y-53649524D01*
X148424819Y-53649524D02*
X148377200Y-53554286D01*
X148377200Y-53554286D02*
X148329580Y-53506667D01*
X148054819Y-58158095D02*
X147054819Y-58158095D01*
X148054819Y-58729523D02*
X147483390Y-58300952D01*
X147054819Y-58729523D02*
X147626247Y-58158095D01*
X145164819Y-65301905D02*
X144164819Y-65301905D01*
X144164819Y-65301905D02*
X144164819Y-65540000D01*
X144164819Y-65540000D02*
X144212438Y-65682857D01*
X144212438Y-65682857D02*
X144307676Y-65778095D01*
X144307676Y-65778095D02*
X144402914Y-65825714D01*
X144402914Y-65825714D02*
X144593390Y-65873333D01*
X144593390Y-65873333D02*
X144736247Y-65873333D01*
X144736247Y-65873333D02*
X144926723Y-65825714D01*
X144926723Y-65825714D02*
X145021961Y-65778095D01*
X145021961Y-65778095D02*
X145117200Y-65682857D01*
X145117200Y-65682857D02*
X145164819Y-65540000D01*
X145164819Y-65540000D02*
X145164819Y-65301905D01*
X144164819Y-66778095D02*
X144164819Y-66301905D01*
X144164819Y-66301905D02*
X144641009Y-66254286D01*
X144641009Y-66254286D02*
X144593390Y-66301905D01*
X144593390Y-66301905D02*
X144545771Y-66397143D01*
X144545771Y-66397143D02*
X144545771Y-66635238D01*
X144545771Y-66635238D02*
X144593390Y-66730476D01*
X144593390Y-66730476D02*
X144641009Y-66778095D01*
X144641009Y-66778095D02*
X144736247Y-66825714D01*
X144736247Y-66825714D02*
X144974342Y-66825714D01*
X144974342Y-66825714D02*
X145069580Y-66778095D01*
X145069580Y-66778095D02*
X145117200Y-66730476D01*
X145117200Y-66730476D02*
X145164819Y-66635238D01*
X145164819Y-66635238D02*
X145164819Y-66397143D01*
X145164819Y-66397143D02*
X145117200Y-66301905D01*
X145117200Y-66301905D02*
X145069580Y-66254286D01*
X144794819Y-70858095D02*
X143794819Y-70858095D01*
X144794819Y-71429523D02*
X144223390Y-71000952D01*
X143794819Y-71429523D02*
X144366247Y-70858095D01*
X150244819Y-65301905D02*
X149244819Y-65301905D01*
X149244819Y-65301905D02*
X149244819Y-65540000D01*
X149244819Y-65540000D02*
X149292438Y-65682857D01*
X149292438Y-65682857D02*
X149387676Y-65778095D01*
X149387676Y-65778095D02*
X149482914Y-65825714D01*
X149482914Y-65825714D02*
X149673390Y-65873333D01*
X149673390Y-65873333D02*
X149816247Y-65873333D01*
X149816247Y-65873333D02*
X150006723Y-65825714D01*
X150006723Y-65825714D02*
X150101961Y-65778095D01*
X150101961Y-65778095D02*
X150197200Y-65682857D01*
X150197200Y-65682857D02*
X150244819Y-65540000D01*
X150244819Y-65540000D02*
X150244819Y-65301905D01*
X149340057Y-66254286D02*
X149292438Y-66301905D01*
X149292438Y-66301905D02*
X149244819Y-66397143D01*
X149244819Y-66397143D02*
X149244819Y-66635238D01*
X149244819Y-66635238D02*
X149292438Y-66730476D01*
X149292438Y-66730476D02*
X149340057Y-66778095D01*
X149340057Y-66778095D02*
X149435295Y-66825714D01*
X149435295Y-66825714D02*
X149530533Y-66825714D01*
X149530533Y-66825714D02*
X149673390Y-66778095D01*
X149673390Y-66778095D02*
X150244819Y-66206667D01*
X150244819Y-66206667D02*
X150244819Y-66825714D01*
X149874819Y-70858095D02*
X148874819Y-70858095D01*
X149874819Y-71429523D02*
X149303390Y-71000952D01*
X148874819Y-71429523D02*
X149446247Y-70858095D01*
X117446904Y-42619819D02*
X117446904Y-43429342D01*
X117446904Y-43429342D02*
X117399285Y-43524580D01*
X117399285Y-43524580D02*
X117351666Y-43572200D01*
X117351666Y-43572200D02*
X117256428Y-43619819D01*
X117256428Y-43619819D02*
X117065952Y-43619819D01*
X117065952Y-43619819D02*
X116970714Y-43572200D01*
X116970714Y-43572200D02*
X116923095Y-43524580D01*
X116923095Y-43524580D02*
X116875476Y-43429342D01*
X116875476Y-43429342D02*
X116875476Y-42619819D01*
X116446904Y-42715057D02*
X116399285Y-42667438D01*
X116399285Y-42667438D02*
X116304047Y-42619819D01*
X116304047Y-42619819D02*
X116065952Y-42619819D01*
X116065952Y-42619819D02*
X115970714Y-42667438D01*
X115970714Y-42667438D02*
X115923095Y-42715057D01*
X115923095Y-42715057D02*
X115875476Y-42810295D01*
X115875476Y-42810295D02*
X115875476Y-42905533D01*
X115875476Y-42905533D02*
X115923095Y-43048390D01*
X115923095Y-43048390D02*
X116494523Y-43619819D01*
X116494523Y-43619819D02*
X115875476Y-43619819D01*
X78924523Y-113374819D02*
X78924523Y-114089104D01*
X78924523Y-114089104D02*
X78972142Y-114231961D01*
X78972142Y-114231961D02*
X79067380Y-114327200D01*
X79067380Y-114327200D02*
X79210237Y-114374819D01*
X79210237Y-114374819D02*
X79305475Y-114374819D01*
X77972142Y-113374819D02*
X78448332Y-113374819D01*
X78448332Y-113374819D02*
X78495951Y-113851009D01*
X78495951Y-113851009D02*
X78448332Y-113803390D01*
X78448332Y-113803390D02*
X78353094Y-113755771D01*
X78353094Y-113755771D02*
X78114999Y-113755771D01*
X78114999Y-113755771D02*
X78019761Y-113803390D01*
X78019761Y-113803390D02*
X77972142Y-113851009D01*
X77972142Y-113851009D02*
X77924523Y-113946247D01*
X77924523Y-113946247D02*
X77924523Y-114184342D01*
X77924523Y-114184342D02*
X77972142Y-114279580D01*
X77972142Y-114279580D02*
X78019761Y-114327200D01*
X78019761Y-114327200D02*
X78114999Y-114374819D01*
X78114999Y-114374819D02*
X78353094Y-114374819D01*
X78353094Y-114374819D02*
X78448332Y-114327200D01*
X78448332Y-114327200D02*
X78495951Y-114279580D01*
X77305475Y-113374819D02*
X77210237Y-113374819D01*
X77210237Y-113374819D02*
X77114999Y-113422438D01*
X77114999Y-113422438D02*
X77067380Y-113470057D01*
X77067380Y-113470057D02*
X77019761Y-113565295D01*
X77019761Y-113565295D02*
X76972142Y-113755771D01*
X76972142Y-113755771D02*
X76972142Y-113993866D01*
X76972142Y-113993866D02*
X77019761Y-114184342D01*
X77019761Y-114184342D02*
X77067380Y-114279580D01*
X77067380Y-114279580D02*
X77114999Y-114327200D01*
X77114999Y-114327200D02*
X77210237Y-114374819D01*
X77210237Y-114374819D02*
X77305475Y-114374819D01*
X77305475Y-114374819D02*
X77400713Y-114327200D01*
X77400713Y-114327200D02*
X77448332Y-114279580D01*
X77448332Y-114279580D02*
X77495951Y-114184342D01*
X77495951Y-114184342D02*
X77543570Y-113993866D01*
X77543570Y-113993866D02*
X77543570Y-113755771D01*
X77543570Y-113755771D02*
X77495951Y-113565295D01*
X77495951Y-113565295D02*
X77448332Y-113470057D01*
X77448332Y-113470057D02*
X77400713Y-113422438D01*
X77400713Y-113422438D02*
X77305475Y-113374819D01*
X78924523Y-83909819D02*
X78924523Y-84624104D01*
X78924523Y-84624104D02*
X78972142Y-84766961D01*
X78972142Y-84766961D02*
X79067380Y-84862200D01*
X79067380Y-84862200D02*
X79210237Y-84909819D01*
X79210237Y-84909819D02*
X79305475Y-84909819D01*
X77972142Y-83909819D02*
X78448332Y-83909819D01*
X78448332Y-83909819D02*
X78495951Y-84386009D01*
X78495951Y-84386009D02*
X78448332Y-84338390D01*
X78448332Y-84338390D02*
X78353094Y-84290771D01*
X78353094Y-84290771D02*
X78114999Y-84290771D01*
X78114999Y-84290771D02*
X78019761Y-84338390D01*
X78019761Y-84338390D02*
X77972142Y-84386009D01*
X77972142Y-84386009D02*
X77924523Y-84481247D01*
X77924523Y-84481247D02*
X77924523Y-84719342D01*
X77924523Y-84719342D02*
X77972142Y-84814580D01*
X77972142Y-84814580D02*
X78019761Y-84862200D01*
X78019761Y-84862200D02*
X78114999Y-84909819D01*
X78114999Y-84909819D02*
X78353094Y-84909819D01*
X78353094Y-84909819D02*
X78448332Y-84862200D01*
X78448332Y-84862200D02*
X78495951Y-84814580D01*
X77353094Y-84338390D02*
X77448332Y-84290771D01*
X77448332Y-84290771D02*
X77495951Y-84243152D01*
X77495951Y-84243152D02*
X77543570Y-84147914D01*
X77543570Y-84147914D02*
X77543570Y-84100295D01*
X77543570Y-84100295D02*
X77495951Y-84005057D01*
X77495951Y-84005057D02*
X77448332Y-83957438D01*
X77448332Y-83957438D02*
X77353094Y-83909819D01*
X77353094Y-83909819D02*
X77162618Y-83909819D01*
X77162618Y-83909819D02*
X77067380Y-83957438D01*
X77067380Y-83957438D02*
X77019761Y-84005057D01*
X77019761Y-84005057D02*
X76972142Y-84100295D01*
X76972142Y-84100295D02*
X76972142Y-84147914D01*
X76972142Y-84147914D02*
X77019761Y-84243152D01*
X77019761Y-84243152D02*
X77067380Y-84290771D01*
X77067380Y-84290771D02*
X77162618Y-84338390D01*
X77162618Y-84338390D02*
X77353094Y-84338390D01*
X77353094Y-84338390D02*
X77448332Y-84386009D01*
X77448332Y-84386009D02*
X77495951Y-84433628D01*
X77495951Y-84433628D02*
X77543570Y-84528866D01*
X77543570Y-84528866D02*
X77543570Y-84719342D01*
X77543570Y-84719342D02*
X77495951Y-84814580D01*
X77495951Y-84814580D02*
X77448332Y-84862200D01*
X77448332Y-84862200D02*
X77353094Y-84909819D01*
X77353094Y-84909819D02*
X77162618Y-84909819D01*
X77162618Y-84909819D02*
X77067380Y-84862200D01*
X77067380Y-84862200D02*
X77019761Y-84814580D01*
X77019761Y-84814580D02*
X76972142Y-84719342D01*
X76972142Y-84719342D02*
X76972142Y-84528866D01*
X76972142Y-84528866D02*
X77019761Y-84433628D01*
X77019761Y-84433628D02*
X77067380Y-84386009D01*
X77067380Y-84386009D02*
X77162618Y-84338390D01*
X127166666Y-62304819D02*
X127499999Y-61828628D01*
X127738094Y-62304819D02*
X127738094Y-61304819D01*
X127738094Y-61304819D02*
X127357142Y-61304819D01*
X127357142Y-61304819D02*
X127261904Y-61352438D01*
X127261904Y-61352438D02*
X127214285Y-61400057D01*
X127214285Y-61400057D02*
X127166666Y-61495295D01*
X127166666Y-61495295D02*
X127166666Y-61638152D01*
X127166666Y-61638152D02*
X127214285Y-61733390D01*
X127214285Y-61733390D02*
X127261904Y-61781009D01*
X127261904Y-61781009D02*
X127357142Y-61828628D01*
X127357142Y-61828628D02*
X127738094Y-61828628D01*
X126214285Y-62304819D02*
X126785713Y-62304819D01*
X126499999Y-62304819D02*
X126499999Y-61304819D01*
X126499999Y-61304819D02*
X126595237Y-61447676D01*
X126595237Y-61447676D02*
X126690475Y-61542914D01*
X126690475Y-61542914D02*
X126785713Y-61590533D01*
X165954819Y-52347976D02*
X166669104Y-52347976D01*
X166669104Y-52347976D02*
X166811961Y-52300357D01*
X166811961Y-52300357D02*
X166907200Y-52205119D01*
X166907200Y-52205119D02*
X166954819Y-52062262D01*
X166954819Y-52062262D02*
X166954819Y-51967024D01*
X165954819Y-53252738D02*
X165954819Y-53062262D01*
X165954819Y-53062262D02*
X166002438Y-52967024D01*
X166002438Y-52967024D02*
X166050057Y-52919405D01*
X166050057Y-52919405D02*
X166192914Y-52824167D01*
X166192914Y-52824167D02*
X166383390Y-52776548D01*
X166383390Y-52776548D02*
X166764342Y-52776548D01*
X166764342Y-52776548D02*
X166859580Y-52824167D01*
X166859580Y-52824167D02*
X166907200Y-52871786D01*
X166907200Y-52871786D02*
X166954819Y-52967024D01*
X166954819Y-52967024D02*
X166954819Y-53157500D01*
X166954819Y-53157500D02*
X166907200Y-53252738D01*
X166907200Y-53252738D02*
X166859580Y-53300357D01*
X166859580Y-53300357D02*
X166764342Y-53347976D01*
X166764342Y-53347976D02*
X166526247Y-53347976D01*
X166526247Y-53347976D02*
X166431009Y-53300357D01*
X166431009Y-53300357D02*
X166383390Y-53252738D01*
X166383390Y-53252738D02*
X166335771Y-53157500D01*
X166335771Y-53157500D02*
X166335771Y-52967024D01*
X166335771Y-52967024D02*
X166383390Y-52871786D01*
X166383390Y-52871786D02*
X166431009Y-52824167D01*
X166431009Y-52824167D02*
X166526247Y-52776548D01*
X165954819Y-53967024D02*
X165954819Y-54062262D01*
X165954819Y-54062262D02*
X166002438Y-54157500D01*
X166002438Y-54157500D02*
X166050057Y-54205119D01*
X166050057Y-54205119D02*
X166145295Y-54252738D01*
X166145295Y-54252738D02*
X166335771Y-54300357D01*
X166335771Y-54300357D02*
X166573866Y-54300357D01*
X166573866Y-54300357D02*
X166764342Y-54252738D01*
X166764342Y-54252738D02*
X166859580Y-54205119D01*
X166859580Y-54205119D02*
X166907200Y-54157500D01*
X166907200Y-54157500D02*
X166954819Y-54062262D01*
X166954819Y-54062262D02*
X166954819Y-53967024D01*
X166954819Y-53967024D02*
X166907200Y-53871786D01*
X166907200Y-53871786D02*
X166859580Y-53824167D01*
X166859580Y-53824167D02*
X166764342Y-53776548D01*
X166764342Y-53776548D02*
X166573866Y-53728929D01*
X166573866Y-53728929D02*
X166335771Y-53728929D01*
X166335771Y-53728929D02*
X166145295Y-53776548D01*
X166145295Y-53776548D02*
X166050057Y-53824167D01*
X166050057Y-53824167D02*
X166002438Y-53871786D01*
X166002438Y-53871786D02*
X165954819Y-53967024D01*
X134786666Y-72464819D02*
X135119999Y-71988628D01*
X135358094Y-72464819D02*
X135358094Y-71464819D01*
X135358094Y-71464819D02*
X134977142Y-71464819D01*
X134977142Y-71464819D02*
X134881904Y-71512438D01*
X134881904Y-71512438D02*
X134834285Y-71560057D01*
X134834285Y-71560057D02*
X134786666Y-71655295D01*
X134786666Y-71655295D02*
X134786666Y-71798152D01*
X134786666Y-71798152D02*
X134834285Y-71893390D01*
X134834285Y-71893390D02*
X134881904Y-71941009D01*
X134881904Y-71941009D02*
X134977142Y-71988628D01*
X134977142Y-71988628D02*
X135358094Y-71988628D01*
X134453332Y-71464819D02*
X133834285Y-71464819D01*
X133834285Y-71464819D02*
X134167618Y-71845771D01*
X134167618Y-71845771D02*
X134024761Y-71845771D01*
X134024761Y-71845771D02*
X133929523Y-71893390D01*
X133929523Y-71893390D02*
X133881904Y-71941009D01*
X133881904Y-71941009D02*
X133834285Y-72036247D01*
X133834285Y-72036247D02*
X133834285Y-72274342D01*
X133834285Y-72274342D02*
X133881904Y-72369580D01*
X133881904Y-72369580D02*
X133929523Y-72417200D01*
X133929523Y-72417200D02*
X134024761Y-72464819D01*
X134024761Y-72464819D02*
X134310475Y-72464819D01*
X134310475Y-72464819D02*
X134405713Y-72417200D01*
X134405713Y-72417200D02*
X134453332Y-72369580D01*
X105374819Y-137075476D02*
X106089104Y-137075476D01*
X106089104Y-137075476D02*
X106231961Y-137027857D01*
X106231961Y-137027857D02*
X106327200Y-136932619D01*
X106327200Y-136932619D02*
X106374819Y-136789762D01*
X106374819Y-136789762D02*
X106374819Y-136694524D01*
X105374819Y-138027857D02*
X105374819Y-137551667D01*
X105374819Y-137551667D02*
X105851009Y-137504048D01*
X105851009Y-137504048D02*
X105803390Y-137551667D01*
X105803390Y-137551667D02*
X105755771Y-137646905D01*
X105755771Y-137646905D02*
X105755771Y-137885000D01*
X105755771Y-137885000D02*
X105803390Y-137980238D01*
X105803390Y-137980238D02*
X105851009Y-138027857D01*
X105851009Y-138027857D02*
X105946247Y-138075476D01*
X105946247Y-138075476D02*
X106184342Y-138075476D01*
X106184342Y-138075476D02*
X106279580Y-138027857D01*
X106279580Y-138027857D02*
X106327200Y-137980238D01*
X106327200Y-137980238D02*
X106374819Y-137885000D01*
X106374819Y-137885000D02*
X106374819Y-137646905D01*
X106374819Y-137646905D02*
X106327200Y-137551667D01*
X106327200Y-137551667D02*
X106279580Y-137504048D01*
X105374819Y-138932619D02*
X105374819Y-138742143D01*
X105374819Y-138742143D02*
X105422438Y-138646905D01*
X105422438Y-138646905D02*
X105470057Y-138599286D01*
X105470057Y-138599286D02*
X105612914Y-138504048D01*
X105612914Y-138504048D02*
X105803390Y-138456429D01*
X105803390Y-138456429D02*
X106184342Y-138456429D01*
X106184342Y-138456429D02*
X106279580Y-138504048D01*
X106279580Y-138504048D02*
X106327200Y-138551667D01*
X106327200Y-138551667D02*
X106374819Y-138646905D01*
X106374819Y-138646905D02*
X106374819Y-138837381D01*
X106374819Y-138837381D02*
X106327200Y-138932619D01*
X106327200Y-138932619D02*
X106279580Y-138980238D01*
X106279580Y-138980238D02*
X106184342Y-139027857D01*
X106184342Y-139027857D02*
X105946247Y-139027857D01*
X105946247Y-139027857D02*
X105851009Y-138980238D01*
X105851009Y-138980238D02*
X105803390Y-138932619D01*
X105803390Y-138932619D02*
X105755771Y-138837381D01*
X105755771Y-138837381D02*
X105755771Y-138646905D01*
X105755771Y-138646905D02*
X105803390Y-138551667D01*
X105803390Y-138551667D02*
X105851009Y-138504048D01*
X105851009Y-138504048D02*
X105946247Y-138456429D01*
%TO.C,G\u002A\u002A\u002A*%
G36*
X162767591Y-130163767D02*
G01*
X162780290Y-130163241D01*
X162786039Y-130163281D01*
X162798685Y-130169589D01*
X162817375Y-130184197D01*
X162843411Y-130208029D01*
X162856002Y-130220075D01*
X162874337Y-130238244D01*
X162885372Y-130251108D01*
X162890702Y-130261214D01*
X162891926Y-130271106D01*
X162890639Y-130283333D01*
X162889986Y-130288040D01*
X162887539Y-130307175D01*
X162886213Y-130320000D01*
X162885721Y-130324391D01*
X162882059Y-130340000D01*
X162881547Y-130341394D01*
X162877963Y-130345134D01*
X162873334Y-130336666D01*
X162871204Y-130331321D01*
X162868756Y-130327839D01*
X162866042Y-130331267D01*
X162861871Y-130343558D01*
X162855053Y-130366666D01*
X162853595Y-130372046D01*
X162848693Y-130400130D01*
X162846646Y-130431427D01*
X162847207Y-130463191D01*
X162850130Y-130492676D01*
X162855169Y-130517136D01*
X162862078Y-130533826D01*
X162870608Y-130540000D01*
X162874063Y-130536118D01*
X162878655Y-130522278D01*
X162882988Y-130502051D01*
X162886488Y-130479296D01*
X162888584Y-130457871D01*
X162888702Y-130441634D01*
X162886271Y-130434444D01*
X162884056Y-130433100D01*
X162880000Y-130423607D01*
X162880638Y-130419237D01*
X162885890Y-130403129D01*
X162894802Y-130381698D01*
X162905385Y-130359276D01*
X162915646Y-130340196D01*
X162923593Y-130328788D01*
X162926288Y-130325386D01*
X162934157Y-130309746D01*
X162940824Y-130289491D01*
X162943308Y-130280614D01*
X162948942Y-130265837D01*
X162953596Y-130260000D01*
X162953719Y-130259994D01*
X162958739Y-130253955D01*
X162963347Y-130239941D01*
X162963596Y-130238854D01*
X162968490Y-130226625D01*
X162974013Y-130223752D01*
X162975787Y-130224182D01*
X162986366Y-130220429D01*
X163000648Y-130210477D01*
X163004753Y-130207123D01*
X163018541Y-130197289D01*
X163027136Y-130193333D01*
X163031427Y-130191182D01*
X163044276Y-130181800D01*
X163062940Y-130166679D01*
X163085040Y-130147695D01*
X163105202Y-130130200D01*
X163122877Y-130116069D01*
X163135025Y-130108677D01*
X163143934Y-130106691D01*
X163151894Y-130108779D01*
X163162464Y-130117073D01*
X163171051Y-130132750D01*
X163175437Y-130147055D01*
X163183671Y-130166666D01*
X163188505Y-130176980D01*
X163197427Y-130197915D01*
X163206828Y-130221557D01*
X163210898Y-130231141D01*
X163224054Y-130255471D01*
X163240193Y-130279394D01*
X163257063Y-130300038D01*
X163272412Y-130314530D01*
X163283991Y-130320000D01*
X163292069Y-130321556D01*
X163306537Y-130328132D01*
X163313623Y-130331633D01*
X163324018Y-130330904D01*
X163338114Y-130321510D01*
X163352833Y-130310496D01*
X163387291Y-130291147D01*
X163419913Y-130282839D01*
X163422969Y-130282471D01*
X163434305Y-130279419D01*
X163446770Y-130272615D01*
X163462362Y-130260565D01*
X163483078Y-130241776D01*
X163510914Y-130214751D01*
X163515740Y-130209971D01*
X163541838Y-130183548D01*
X163565746Y-130158461D01*
X163584990Y-130137346D01*
X163597100Y-130122839D01*
X163602711Y-130115640D01*
X163618983Y-130097061D01*
X163633334Y-130083398D01*
X163648735Y-130070348D01*
X163665903Y-130054465D01*
X163678649Y-130044456D01*
X163685676Y-130045015D01*
X163686416Y-130055923D01*
X163680825Y-130076441D01*
X163668862Y-130105832D01*
X163665501Y-130113133D01*
X163653760Y-130136669D01*
X163643359Y-130154810D01*
X163636225Y-130164114D01*
X163631385Y-130171100D01*
X163624788Y-130188412D01*
X163619372Y-130210780D01*
X163615883Y-130225749D01*
X163605439Y-130256863D01*
X163592767Y-130284144D01*
X163584497Y-130299461D01*
X163576447Y-130316591D01*
X163573334Y-130326509D01*
X163571224Y-130336864D01*
X163561770Y-130357918D01*
X163546421Y-130383592D01*
X163527045Y-130410853D01*
X163505510Y-130436666D01*
X163489873Y-130453858D01*
X163465554Y-130480738D01*
X163438708Y-130510526D01*
X163412821Y-130539359D01*
X163402784Y-130550457D01*
X163376255Y-130578116D01*
X163352743Y-130599156D01*
X163328555Y-130616665D01*
X163300000Y-130633728D01*
X163290745Y-130638912D01*
X163258924Y-130656844D01*
X163227490Y-130674696D01*
X163202077Y-130689273D01*
X163180386Y-130700999D01*
X163148068Y-130716602D01*
X163118743Y-130728965D01*
X163101822Y-130734754D01*
X163066821Y-130744865D01*
X163026241Y-130755034D01*
X162984647Y-130764211D01*
X162946601Y-130771349D01*
X162916667Y-130775398D01*
X162899806Y-130776642D01*
X162859175Y-130778302D01*
X162814402Y-130778764D01*
X162769845Y-130778070D01*
X162729863Y-130776260D01*
X162698816Y-130773374D01*
X162671397Y-130769827D01*
X162642368Y-130766390D01*
X162620000Y-130764070D01*
X162602812Y-130761272D01*
X162571282Y-130753172D01*
X162532760Y-130741098D01*
X162490077Y-130726139D01*
X162446064Y-130709382D01*
X162403552Y-130691917D01*
X162365373Y-130674833D01*
X162334356Y-130659217D01*
X162313334Y-130646158D01*
X162309719Y-130643479D01*
X162288115Y-130628941D01*
X162267776Y-130617120D01*
X162266770Y-130616591D01*
X162250131Y-130605902D01*
X162228516Y-130589676D01*
X162206334Y-130571206D01*
X162183277Y-130551195D01*
X162153436Y-130525831D01*
X162126387Y-130503333D01*
X162123559Y-130501017D01*
X162089832Y-130473127D01*
X162064381Y-130451274D01*
X162045127Y-130433430D01*
X162029993Y-130417567D01*
X162016901Y-130401657D01*
X162003773Y-130383673D01*
X161999113Y-130376891D01*
X161979545Y-130345421D01*
X161961246Y-130311698D01*
X161945803Y-130279021D01*
X161934804Y-130250688D01*
X161929835Y-130230000D01*
X161929158Y-130223153D01*
X161925013Y-130193368D01*
X161919474Y-130165596D01*
X161913387Y-130143594D01*
X161907597Y-130131120D01*
X161901538Y-130120613D01*
X161892829Y-130100214D01*
X161883546Y-130074847D01*
X161875130Y-130048738D01*
X161869023Y-130026112D01*
X161866667Y-130011191D01*
X161866648Y-130010251D01*
X161864724Y-129995146D01*
X161860260Y-129972227D01*
X161854136Y-129946066D01*
X161847395Y-129917203D01*
X161841433Y-129887505D01*
X161837719Y-129864133D01*
X161836076Y-129854039D01*
X161830027Y-129833053D01*
X161822408Y-129818976D01*
X161816220Y-129809529D01*
X161817158Y-129800355D01*
X161823643Y-129796962D01*
X161838979Y-129797569D01*
X161854763Y-129804699D01*
X161865364Y-129816469D01*
X161869072Y-129822210D01*
X161881588Y-129836479D01*
X161899852Y-129854700D01*
X161921344Y-129874633D01*
X161943546Y-129894036D01*
X161963939Y-129910670D01*
X161980006Y-129922294D01*
X161989227Y-129926666D01*
X161995577Y-129928332D01*
X162006919Y-129936970D01*
X162013319Y-129942191D01*
X162024367Y-129943859D01*
X162026049Y-129943571D01*
X162036362Y-129948342D01*
X162048153Y-129960583D01*
X162065380Y-129979200D01*
X162098538Y-130004028D01*
X162141441Y-130027818D01*
X162192052Y-130049476D01*
X162248334Y-130067913D01*
X162252241Y-130069120D01*
X162267401Y-130076577D01*
X162273334Y-130084720D01*
X162274871Y-130089670D01*
X162284060Y-130102785D01*
X162299038Y-130119124D01*
X162316905Y-130136022D01*
X162334765Y-130150812D01*
X162349721Y-130160829D01*
X162358874Y-130163409D01*
X162369168Y-130164058D01*
X162382704Y-130171834D01*
X162393509Y-130180322D01*
X162413853Y-130194080D01*
X162437174Y-130208257D01*
X162459984Y-130220857D01*
X162478794Y-130229881D01*
X162490116Y-130233333D01*
X162491085Y-130233318D01*
X162498260Y-130229895D01*
X162496870Y-130218333D01*
X162494238Y-130207474D01*
X162492425Y-130190603D01*
X162491790Y-130183102D01*
X162486575Y-130166494D01*
X162485787Y-130164767D01*
X162485803Y-130163333D01*
X162613334Y-130163333D01*
X162616667Y-130166666D01*
X162620000Y-130163333D01*
X162616667Y-130160000D01*
X162613334Y-130163333D01*
X162485803Y-130163333D01*
X162485891Y-130155385D01*
X162493435Y-130142374D01*
X162509769Y-130123219D01*
X162539052Y-130091323D01*
X162577860Y-130109707D01*
X162596398Y-130118295D01*
X162621062Y-130129230D01*
X162640000Y-130137082D01*
X162640354Y-130137217D01*
X162662010Y-130144126D01*
X162689249Y-130150923D01*
X162718384Y-130156920D01*
X162745727Y-130161431D01*
X162763529Y-130163333D01*
X162767591Y-130163767D01*
G37*
G36*
X162229582Y-128316786D02*
G01*
X162221653Y-128318798D01*
X162213146Y-128321227D01*
X162200836Y-128331854D01*
X162196435Y-128346434D01*
X162200591Y-128360651D01*
X162213950Y-128370195D01*
X162221365Y-128375049D01*
X162226796Y-128388782D01*
X162226826Y-128389431D01*
X162233248Y-128402780D01*
X162250902Y-128422944D01*
X162279856Y-128450000D01*
X162296383Y-128465062D01*
X162315247Y-128483718D01*
X162328174Y-128498344D01*
X162333028Y-128506666D01*
X162331535Y-128508832D01*
X162323550Y-128504464D01*
X162310309Y-128491666D01*
X162308866Y-128490111D01*
X162288932Y-128472471D01*
X162273616Y-128466924D01*
X162263186Y-128473572D01*
X162262830Y-128475962D01*
X162266642Y-128487845D01*
X162275438Y-128505217D01*
X162287052Y-128524391D01*
X162299317Y-128541678D01*
X162310068Y-128553389D01*
X162315853Y-128561800D01*
X162311665Y-128573528D01*
X162310849Y-128574876D01*
X162307837Y-128586476D01*
X162315296Y-128598485D01*
X162322497Y-128608490D01*
X162326667Y-128620051D01*
X162328340Y-128630938D01*
X162333390Y-128650078D01*
X162340115Y-128670738D01*
X162346773Y-128687101D01*
X162348461Y-128695135D01*
X162345022Y-128709843D01*
X162341801Y-128718550D01*
X162345735Y-128734317D01*
X162347573Y-128738157D01*
X162351691Y-128755310D01*
X162353334Y-128776576D01*
X162353610Y-128785619D01*
X162355741Y-128800705D01*
X162359287Y-128806666D01*
X162362745Y-128808037D01*
X162369268Y-128817162D01*
X162369707Y-128818486D01*
X162367600Y-128831669D01*
X162356344Y-128842299D01*
X162339660Y-128846666D01*
X162335895Y-128846738D01*
X162329078Y-128849067D01*
X162333334Y-128856666D01*
X162339198Y-128861933D01*
X162351521Y-128866666D01*
X162353326Y-128866874D01*
X162365914Y-128872477D01*
X162381216Y-128883333D01*
X162385681Y-128887272D01*
X162393819Y-128896366D01*
X162393396Y-128900000D01*
X162389581Y-128902223D01*
X162389750Y-128912543D01*
X162390592Y-128920505D01*
X162386804Y-128924888D01*
X162383110Y-128929163D01*
X162376517Y-128933201D01*
X162377834Y-128940212D01*
X162391972Y-128948341D01*
X162418673Y-128957383D01*
X162432954Y-128961624D01*
X162454440Y-128969614D01*
X162466634Y-128978313D01*
X162472083Y-128990038D01*
X162473334Y-129007104D01*
X162473333Y-129007548D01*
X162470081Y-129029037D01*
X162459568Y-129042219D01*
X162456016Y-129044733D01*
X162449917Y-129050828D01*
X162452090Y-129057503D01*
X162463117Y-129069177D01*
X162465592Y-129071666D01*
X162475135Y-129083029D01*
X162476235Y-129092592D01*
X162470045Y-129106579D01*
X162469235Y-129108093D01*
X162459356Y-129121260D01*
X162449956Y-129126666D01*
X162442728Y-129130488D01*
X162436230Y-129142699D01*
X162435555Y-129146264D01*
X162436122Y-129157862D01*
X162441073Y-129173523D01*
X162451313Y-129195655D01*
X162467745Y-129226666D01*
X162486447Y-129262241D01*
X162498818Y-129290257D01*
X162504143Y-129311006D01*
X162502614Y-129326431D01*
X162494421Y-129338476D01*
X162479755Y-129349084D01*
X162479564Y-129349197D01*
X162463616Y-129365422D01*
X162458938Y-129387623D01*
X162465490Y-129414722D01*
X162483233Y-129445640D01*
X162493426Y-129460512D01*
X162501686Y-129474303D01*
X162503844Y-129480656D01*
X162503911Y-129481885D01*
X162510375Y-129489190D01*
X162523519Y-129500000D01*
X162537282Y-129511913D01*
X162550337Y-129527883D01*
X162556172Y-129541595D01*
X162553082Y-129550155D01*
X162551922Y-129550963D01*
X162546826Y-129562514D01*
X162551039Y-129579653D01*
X162553430Y-129583333D01*
X162563926Y-129599488D01*
X162572137Y-129609918D01*
X162572173Y-129610000D01*
X162575623Y-129617816D01*
X162570593Y-129620000D01*
X162565440Y-129620847D01*
X162560000Y-129626666D01*
X162556272Y-129632653D01*
X162545819Y-129631325D01*
X162532192Y-129622300D01*
X162528606Y-129619139D01*
X162521030Y-129613820D01*
X162521344Y-129617054D01*
X162528932Y-129627612D01*
X162543179Y-129644263D01*
X162551244Y-129653980D01*
X162562165Y-129670503D01*
X162566512Y-129682337D01*
X162566515Y-129683015D01*
X162564490Y-129690235D01*
X162556235Y-129692623D01*
X162538334Y-129691261D01*
X162533523Y-129690649D01*
X162510429Y-129687026D01*
X162491667Y-129683146D01*
X162484046Y-129681477D01*
X162475375Y-129682702D01*
X162473334Y-129691780D01*
X162473533Y-129693374D01*
X162479809Y-129705252D01*
X162492329Y-129720828D01*
X162507597Y-129736459D01*
X162522122Y-129748508D01*
X162532409Y-129753333D01*
X162532811Y-129753494D01*
X162538300Y-129760572D01*
X162547777Y-129775826D01*
X162559481Y-129796075D01*
X162571649Y-129818137D01*
X162582522Y-129838831D01*
X162590337Y-129854974D01*
X162593334Y-129863386D01*
X162593209Y-129863603D01*
X162586187Y-129863078D01*
X162571711Y-129859534D01*
X162541944Y-129853898D01*
X162516580Y-129857011D01*
X162494550Y-129870000D01*
X162491047Y-129872860D01*
X162477023Y-129882694D01*
X162467848Y-129886666D01*
X162462564Y-129888193D01*
X162451567Y-129896052D01*
X162451039Y-129896557D01*
X162437687Y-129904797D01*
X162419425Y-129911710D01*
X162418730Y-129911900D01*
X162402679Y-129914515D01*
X162388386Y-129911212D01*
X162369873Y-129900658D01*
X162342498Y-129882435D01*
X162293216Y-129846108D01*
X162255574Y-129812834D01*
X162230116Y-129783071D01*
X162227766Y-129779667D01*
X162214664Y-129761867D01*
X162204312Y-129752329D01*
X162192789Y-129748488D01*
X162176175Y-129747777D01*
X162170403Y-129747854D01*
X162155482Y-129749652D01*
X162145107Y-129755279D01*
X162138525Y-129766633D01*
X162134983Y-129785608D01*
X162133729Y-129814101D01*
X162134010Y-129854008D01*
X162134231Y-129868090D01*
X162134359Y-129898271D01*
X162133527Y-129918710D01*
X162131395Y-129932024D01*
X162127626Y-129940831D01*
X162121880Y-129947750D01*
X162108367Y-129961263D01*
X162065850Y-129932484D01*
X162062420Y-129930151D01*
X162041519Y-129915480D01*
X162025172Y-129903258D01*
X162016667Y-129895929D01*
X162016421Y-129895648D01*
X162007763Y-129887155D01*
X161992345Y-129873068D01*
X161973334Y-129856284D01*
X161972348Y-129855424D01*
X161953616Y-129837931D01*
X161939047Y-129822284D01*
X161931724Y-129811779D01*
X161927596Y-129804987D01*
X161920798Y-129802840D01*
X161920395Y-129802998D01*
X161912169Y-129799638D01*
X161897753Y-129789060D01*
X161879996Y-129773329D01*
X161864648Y-129759187D01*
X161849868Y-129747917D01*
X161838548Y-129743564D01*
X161827589Y-129744419D01*
X161814812Y-129749058D01*
X161805103Y-129756026D01*
X161802924Y-129764002D01*
X161801168Y-129783519D01*
X161800683Y-129800381D01*
X161800374Y-129811114D01*
X161800523Y-129843922D01*
X161801594Y-129879081D01*
X161803133Y-129906095D01*
X161803568Y-129913725D01*
X161806425Y-129944990D01*
X161806536Y-129945819D01*
X161808041Y-129957038D01*
X161814474Y-129991882D01*
X161823401Y-130029823D01*
X161833721Y-130066787D01*
X161844332Y-130098703D01*
X161854135Y-130121496D01*
X161859529Y-130136203D01*
X161863171Y-130155922D01*
X161863196Y-130156224D01*
X161865829Y-130173726D01*
X161871428Y-130193459D01*
X161880901Y-130217759D01*
X161880957Y-130217882D01*
X161895159Y-130248965D01*
X161915111Y-130289416D01*
X161948407Y-130355500D01*
X161822537Y-130351285D01*
X161816768Y-130351089D01*
X161768288Y-130349071D01*
X161726745Y-130346368D01*
X161688839Y-130342506D01*
X161651273Y-130337010D01*
X161610747Y-130329404D01*
X161563962Y-130319215D01*
X161507619Y-130305967D01*
X161474201Y-130298359D01*
X161403133Y-130285287D01*
X161340327Y-130278289D01*
X161286933Y-130277464D01*
X161244101Y-130282913D01*
X161238180Y-130284312D01*
X161182492Y-130299945D01*
X161123618Y-130321071D01*
X161059146Y-130348633D01*
X161005345Y-130374568D01*
X160986667Y-130383572D01*
X160883334Y-130435639D01*
X160803334Y-130435568D01*
X160771848Y-130435107D01*
X160729553Y-130432441D01*
X160687784Y-130426757D01*
X160640000Y-130417324D01*
X160609391Y-130411090D01*
X160561553Y-130403500D01*
X160511351Y-130398505D01*
X160453334Y-130395466D01*
X160350000Y-130391782D01*
X160270000Y-130418686D01*
X160241802Y-130427994D01*
X160239403Y-130428761D01*
X160195885Y-130442673D01*
X160156436Y-130454916D01*
X160148606Y-130457346D01*
X160106667Y-130469908D01*
X160095515Y-130473251D01*
X160020376Y-130500091D01*
X159950000Y-130532416D01*
X159913390Y-130551045D01*
X159871374Y-130570615D01*
X159834287Y-130585005D01*
X159798537Y-130595393D01*
X159760529Y-130602956D01*
X159716667Y-130608872D01*
X159700286Y-130609884D01*
X159671968Y-130610478D01*
X159634771Y-130610608D01*
X159590993Y-130610321D01*
X159542932Y-130609662D01*
X159492886Y-130608676D01*
X159443154Y-130607409D01*
X159396034Y-130605908D01*
X159353825Y-130604217D01*
X159318826Y-130602383D01*
X159293334Y-130600451D01*
X159273823Y-130598351D01*
X159229262Y-130592659D01*
X159183319Y-130585843D01*
X159143334Y-130578953D01*
X159140521Y-130578420D01*
X159117696Y-130574323D01*
X159096805Y-130571240D01*
X159075669Y-130569090D01*
X159052107Y-130567791D01*
X159023939Y-130567263D01*
X158988985Y-130567422D01*
X158945066Y-130568188D01*
X158890000Y-130569479D01*
X158845117Y-130570777D01*
X158797366Y-130572556D01*
X158754071Y-130574574D01*
X158717449Y-130576715D01*
X158689719Y-130578861D01*
X158673102Y-130580897D01*
X158661936Y-130582438D01*
X158632482Y-130584303D01*
X158592806Y-130585040D01*
X158544873Y-130584728D01*
X158490650Y-130583445D01*
X158432103Y-130581270D01*
X158371199Y-130578281D01*
X158309904Y-130574557D01*
X158250183Y-130570176D01*
X158194005Y-130565216D01*
X158143334Y-130559757D01*
X158085270Y-130551960D01*
X158001688Y-130537999D01*
X157912474Y-130519957D01*
X157815448Y-130497383D01*
X157708427Y-130469825D01*
X157699693Y-130467534D01*
X157668534Y-130460486D01*
X157638731Y-130456141D01*
X157605400Y-130453942D01*
X157563660Y-130453333D01*
X157553838Y-130453293D01*
X157509830Y-130451952D01*
X157475206Y-130448825D01*
X157451900Y-130444073D01*
X157444688Y-130441855D01*
X157421056Y-130435255D01*
X157391246Y-130427515D01*
X157360000Y-130419882D01*
X157353463Y-130418313D01*
X157304316Y-130404060D01*
X157271615Y-130390000D01*
X159193334Y-130390000D01*
X159195139Y-130395322D01*
X159205000Y-130399967D01*
X159206213Y-130400033D01*
X159219565Y-130402913D01*
X159240689Y-130409206D01*
X159265592Y-130417743D01*
X159275444Y-130421293D01*
X159298083Y-130428672D01*
X159314477Y-130431771D01*
X159329199Y-130431125D01*
X159346823Y-130427270D01*
X159354845Y-130425295D01*
X159373625Y-130422436D01*
X159389758Y-130424738D01*
X159410413Y-130432828D01*
X159413604Y-130434214D01*
X159443392Y-130444274D01*
X159466466Y-130446667D01*
X159468810Y-130445850D01*
X159533334Y-130445850D01*
X159534694Y-130450000D01*
X159542740Y-130459507D01*
X159550263Y-130463879D01*
X159556928Y-130459578D01*
X159558079Y-130454916D01*
X159552521Y-130446023D01*
X159549812Y-130444392D01*
X159537736Y-130440385D01*
X159533334Y-130445850D01*
X159468810Y-130445850D01*
X159481375Y-130441470D01*
X159486667Y-130428761D01*
X159483091Y-130423023D01*
X159469856Y-130423965D01*
X159467600Y-130424417D01*
X159446782Y-130422870D01*
X159419081Y-130413573D01*
X159401903Y-130406934D01*
X159378433Y-130402082D01*
X159353360Y-130403329D01*
X159338662Y-130404574D01*
X159310669Y-130402389D01*
X159276766Y-130393848D01*
X159244015Y-130384908D01*
X159216222Y-130380453D01*
X159199147Y-130382142D01*
X159193334Y-130390000D01*
X157271615Y-130390000D01*
X157264926Y-130387124D01*
X157232115Y-130365864D01*
X157202707Y-130338640D01*
X157180652Y-130312231D01*
X157157201Y-130273551D01*
X157144460Y-130235996D01*
X157143262Y-130201487D01*
X157145771Y-130186792D01*
X157162396Y-130130049D01*
X157188433Y-130082849D01*
X157713578Y-130082849D01*
X157715343Y-130104203D01*
X157716453Y-130113455D01*
X157721912Y-130136743D01*
X157732384Y-130154736D01*
X157750360Y-130170754D01*
X157778334Y-130188118D01*
X157792217Y-130196769D01*
X157807624Y-130209457D01*
X157813334Y-130219248D01*
X157813635Y-130221576D01*
X157821008Y-130235062D01*
X157836006Y-130252120D01*
X157855622Y-130269951D01*
X157876845Y-130285758D01*
X157896667Y-130296743D01*
X157900814Y-130298488D01*
X157953268Y-130319756D01*
X157996109Y-130335304D01*
X158031309Y-130345721D01*
X158060838Y-130351596D01*
X158086667Y-130353518D01*
X158098914Y-130353962D01*
X158134687Y-130358492D01*
X158166667Y-130366666D01*
X158172231Y-130368617D01*
X158194060Y-130375945D01*
X158206478Y-130379091D01*
X158212047Y-130378487D01*
X158213334Y-130374568D01*
X158207956Y-130367034D01*
X158191881Y-130358577D01*
X158167816Y-130350620D01*
X158138498Y-130344055D01*
X158106667Y-130339777D01*
X158070353Y-130334314D01*
X158027831Y-130323885D01*
X157983731Y-130309786D01*
X157941003Y-130293168D01*
X157902596Y-130275182D01*
X157871459Y-130256983D01*
X157850542Y-130239721D01*
X157841627Y-130229204D01*
X157830866Y-130214059D01*
X157826667Y-130204373D01*
X157824044Y-130199420D01*
X157812411Y-130189203D01*
X157794628Y-130178014D01*
X157782529Y-130171026D01*
X157763710Y-130158556D01*
X157751612Y-130148447D01*
X157750949Y-130147680D01*
X157743665Y-130134563D01*
X157738038Y-130117019D01*
X157734849Y-130099265D01*
X157734882Y-130085519D01*
X157738919Y-130080000D01*
X157742358Y-130079535D01*
X157756469Y-130071056D01*
X157770754Y-130054953D01*
X157782182Y-130035214D01*
X157787718Y-130015826D01*
X157787945Y-130012646D01*
X157786916Y-130002653D01*
X157941806Y-130002653D01*
X157943598Y-130015000D01*
X157950727Y-130032586D01*
X157969988Y-130063672D01*
X157996526Y-130095309D01*
X158027603Y-130123943D01*
X158053514Y-130144443D01*
X158075608Y-130160826D01*
X158092559Y-130171216D01*
X158107076Y-130176966D01*
X158121865Y-130179431D01*
X158139636Y-130179964D01*
X158142561Y-130179977D01*
X158165142Y-130181516D01*
X158180649Y-130186893D01*
X158194646Y-130197924D01*
X158203503Y-130206020D01*
X158213676Y-130211877D01*
X158225907Y-130212059D01*
X158245581Y-130207589D01*
X158255665Y-130205157D01*
X158273693Y-130202791D01*
X158290421Y-130205226D01*
X158312484Y-130212998D01*
X158332270Y-130220336D01*
X158352378Y-130225711D01*
X158363344Y-130224848D01*
X158366667Y-130217882D01*
X158366622Y-130217463D01*
X158359714Y-130210900D01*
X158343053Y-130202466D01*
X158319514Y-130193639D01*
X158294371Y-130185913D01*
X158276091Y-130182218D01*
X158261286Y-130182484D01*
X158245402Y-130186258D01*
X158239317Y-130188038D01*
X158223873Y-130190974D01*
X158213009Y-130187769D01*
X158200523Y-130177167D01*
X158199626Y-130176315D01*
X158185959Y-130166112D01*
X158169929Y-130161243D01*
X158146119Y-130160000D01*
X158142294Y-130159980D01*
X158120678Y-130158429D01*
X158102742Y-130153072D01*
X158084108Y-130142043D01*
X158060399Y-130123478D01*
X158044619Y-130110182D01*
X158011153Y-130079697D01*
X158003208Y-130071089D01*
X161256984Y-130071089D01*
X161260000Y-130076666D01*
X161264029Y-130080275D01*
X161281583Y-130085891D01*
X161305324Y-130085389D01*
X161331640Y-130079743D01*
X161356918Y-130069925D01*
X161377547Y-130056908D01*
X161384505Y-130048333D01*
X161553506Y-130048333D01*
X161556918Y-130052233D01*
X161568366Y-130052949D01*
X161583153Y-130049700D01*
X161596309Y-130043096D01*
X161605455Y-130037946D01*
X161615976Y-130039975D01*
X161621945Y-130044385D01*
X161633495Y-130045726D01*
X161648737Y-130039170D01*
X161669258Y-130023913D01*
X161696647Y-129999152D01*
X161711830Y-129984454D01*
X161729816Y-129966172D01*
X161742113Y-129952564D01*
X161746667Y-129945819D01*
X161744961Y-129940745D01*
X161735876Y-129941971D01*
X161718946Y-129953931D01*
X161694152Y-129976634D01*
X161686665Y-129983927D01*
X161663543Y-130005805D01*
X161647194Y-130019599D01*
X161635702Y-130026549D01*
X161627150Y-130027896D01*
X161619620Y-130024882D01*
X161615448Y-130022932D01*
X161601800Y-130022964D01*
X161581129Y-130030660D01*
X161573077Y-130034594D01*
X161559110Y-130042799D01*
X161553506Y-130048333D01*
X161384505Y-130048333D01*
X161389915Y-130041666D01*
X161396564Y-130032151D01*
X161407331Y-130026666D01*
X161412233Y-130025552D01*
X161426820Y-130018122D01*
X161444084Y-130006017D01*
X161451810Y-130000049D01*
X161471653Y-129985996D01*
X161487861Y-129976090D01*
X161501187Y-129966024D01*
X161510186Y-129952748D01*
X161515924Y-129940949D01*
X161527568Y-129925765D01*
X161535224Y-129915186D01*
X161536314Y-129906095D01*
X161531995Y-129906267D01*
X161521748Y-129914557D01*
X161508512Y-129929671D01*
X161497920Y-129942562D01*
X161486033Y-129955136D01*
X161479128Y-129960000D01*
X161475179Y-129961651D01*
X161463205Y-129970107D01*
X161447545Y-129983333D01*
X161444777Y-129985633D01*
X161437704Y-129991510D01*
X161421116Y-130002441D01*
X161409192Y-130006768D01*
X161404704Y-130006982D01*
X161387366Y-130013666D01*
X161379085Y-130030000D01*
X161379011Y-130030381D01*
X161369770Y-130044504D01*
X161350134Y-130056031D01*
X161322896Y-130063802D01*
X161290851Y-130066656D01*
X161274981Y-130066831D01*
X161261222Y-130068055D01*
X161256984Y-130071089D01*
X158003208Y-130071089D01*
X157990145Y-130056935D01*
X160929119Y-130056935D01*
X160936304Y-130059050D01*
X160951985Y-130058449D01*
X160973511Y-130055523D01*
X160998234Y-130050662D01*
X161023502Y-130044256D01*
X161046667Y-130036698D01*
X161052737Y-130034530D01*
X161080919Y-130026313D01*
X161108125Y-130020581D01*
X161123583Y-130017061D01*
X161145114Y-130008169D01*
X161160678Y-129996976D01*
X161166667Y-129985633D01*
X161166399Y-129983627D01*
X161160202Y-129979964D01*
X161148907Y-129983554D01*
X161136667Y-129993333D01*
X161121773Y-130003152D01*
X161096967Y-130006666D01*
X161091052Y-130006824D01*
X161072957Y-130009308D01*
X161062149Y-130013851D01*
X161056223Y-130017899D01*
X161038841Y-130024620D01*
X161010478Y-130032197D01*
X160970000Y-130040962D01*
X160958178Y-130043646D01*
X160940163Y-130049044D01*
X160930334Y-130053845D01*
X160929119Y-130056935D01*
X157990145Y-130056935D01*
X157986858Y-130053374D01*
X157970015Y-130029423D01*
X157966137Y-130023076D01*
X157954631Y-130007541D01*
X157946002Y-130000450D01*
X157941806Y-130002653D01*
X157786916Y-130002653D01*
X157786157Y-129995280D01*
X157779909Y-129989443D01*
X157771579Y-129995378D01*
X157763547Y-130013333D01*
X157761202Y-130020995D01*
X157753116Y-130041032D01*
X157743170Y-130052919D01*
X157728439Y-130060593D01*
X157719826Y-130064540D01*
X157714691Y-130070899D01*
X157713578Y-130082849D01*
X157188433Y-130082849D01*
X157189021Y-130081783D01*
X157226020Y-130041568D01*
X157273765Y-130008973D01*
X157332628Y-129983570D01*
X157333959Y-129983115D01*
X157365659Y-129969272D01*
X161213334Y-129969272D01*
X161214499Y-129972439D01*
X161222439Y-129973438D01*
X161234122Y-129968354D01*
X161245066Y-129958683D01*
X161253583Y-129948658D01*
X161265568Y-129936152D01*
X161282466Y-129919854D01*
X161305993Y-129898109D01*
X161337864Y-129869266D01*
X161356753Y-129851973D01*
X161369795Y-129838054D01*
X161377155Y-129825428D01*
X161381066Y-129810153D01*
X161383763Y-129788288D01*
X161384625Y-129767939D01*
X161567456Y-129767939D01*
X161569086Y-129783251D01*
X161572597Y-129803333D01*
X161575285Y-129812312D01*
X161579818Y-129817232D01*
X161583560Y-129812517D01*
X161585278Y-129800404D01*
X161583736Y-129783134D01*
X161583423Y-129781531D01*
X161578605Y-129765666D01*
X161573089Y-129756947D01*
X161568748Y-129757122D01*
X161567456Y-129767939D01*
X161384625Y-129767939D01*
X161385096Y-129756829D01*
X161379931Y-129729758D01*
X161366295Y-129705359D01*
X161342516Y-129679207D01*
X161329710Y-129667672D01*
X161321953Y-129663333D01*
X161380000Y-129663333D01*
X161383334Y-129666666D01*
X161386667Y-129663333D01*
X161383334Y-129660000D01*
X161380000Y-129663333D01*
X161321953Y-129663333D01*
X161317592Y-129660894D01*
X161302358Y-129658485D01*
X161278921Y-129658814D01*
X161259897Y-129659926D01*
X161241561Y-129661865D01*
X161232241Y-129664008D01*
X161227655Y-129669324D01*
X161232883Y-129674804D01*
X161236777Y-129675757D01*
X161248343Y-129678588D01*
X161272339Y-129680000D01*
X161292936Y-129680531D01*
X161308327Y-129683818D01*
X161321380Y-129692280D01*
X161337667Y-129708333D01*
X161344154Y-129715214D01*
X161360834Y-129735417D01*
X161369081Y-129752840D01*
X161370317Y-129771946D01*
X161365965Y-129797201D01*
X161361691Y-129813473D01*
X161354314Y-129829468D01*
X161341993Y-129843844D01*
X161331078Y-129853076D01*
X161321627Y-129861070D01*
X161299450Y-129879383D01*
X161273878Y-129902130D01*
X161250444Y-129924527D01*
X161231185Y-129944539D01*
X161218136Y-129960132D01*
X161213334Y-129969272D01*
X157365659Y-129969272D01*
X157405743Y-129951768D01*
X157475236Y-129908273D01*
X157541065Y-129853764D01*
X157601856Y-129789376D01*
X157650732Y-129723647D01*
X157853334Y-129723647D01*
X157853898Y-129725801D01*
X157860166Y-129724578D01*
X157865393Y-129720478D01*
X158732688Y-129720478D01*
X158735548Y-129737447D01*
X158742122Y-129756461D01*
X158751667Y-129773792D01*
X158757796Y-129781650D01*
X158771335Y-129794656D01*
X158782223Y-129799857D01*
X158788716Y-129798888D01*
X158792223Y-129793997D01*
X158786357Y-129781678D01*
X158776427Y-129763920D01*
X158764547Y-129744145D01*
X158762214Y-129740486D01*
X158834970Y-129740486D01*
X158839709Y-129761204D01*
X158850721Y-129785937D01*
X158855817Y-129793997D01*
X158867031Y-129811731D01*
X158875278Y-129822371D01*
X158886670Y-129835053D01*
X158893517Y-129840000D01*
X158897251Y-129839561D01*
X158902583Y-129832562D01*
X158898475Y-129816818D01*
X158884876Y-129792045D01*
X158874886Y-129775514D01*
X158862557Y-129753622D01*
X158854397Y-129737319D01*
X158853490Y-129735338D01*
X158896909Y-129735338D01*
X158898123Y-129749449D01*
X158906098Y-129769782D01*
X158919565Y-129793514D01*
X158937255Y-129817819D01*
X158939678Y-129820732D01*
X158951457Y-129832562D01*
X158958593Y-129839729D01*
X158972955Y-129846631D01*
X158982522Y-129841314D01*
X158981467Y-129836034D01*
X158973754Y-129823087D01*
X158960859Y-129806314D01*
X158951425Y-129794684D01*
X158945232Y-129786414D01*
X159576747Y-129786414D01*
X159577079Y-129803463D01*
X159588580Y-129823455D01*
X159607564Y-129841314D01*
X159610172Y-129843767D01*
X159640353Y-129863007D01*
X159677618Y-129879783D01*
X159686174Y-129882844D01*
X159723783Y-129892037D01*
X159752856Y-129891089D01*
X159773334Y-129880000D01*
X159782247Y-129868454D01*
X159786667Y-129856457D01*
X159781862Y-129845811D01*
X159770141Y-129841591D01*
X159757088Y-129846317D01*
X159746776Y-129849947D01*
X159727363Y-129850091D01*
X159705028Y-129846208D01*
X159684896Y-129838831D01*
X159675210Y-129832315D01*
X159658673Y-129819283D01*
X159639673Y-129803042D01*
X159620202Y-129787228D01*
X159599426Y-129775616D01*
X159585023Y-129775367D01*
X159576747Y-129786414D01*
X158945232Y-129786414D01*
X158934020Y-129771442D01*
X158921922Y-129753400D01*
X160354236Y-129753400D01*
X160358044Y-129767669D01*
X160368739Y-129787568D01*
X160385046Y-129810412D01*
X160394162Y-129820791D01*
X160407629Y-129831355D01*
X160416636Y-129831807D01*
X160419702Y-129821666D01*
X160419312Y-129819432D01*
X160413279Y-129807605D01*
X160401958Y-129791840D01*
X160387948Y-129775101D01*
X160373847Y-129760353D01*
X160373733Y-129760257D01*
X160446404Y-129760257D01*
X160447487Y-129771657D01*
X160453876Y-129787895D01*
X160464048Y-129805897D01*
X160475793Y-129821666D01*
X160476480Y-129822589D01*
X160489648Y-129834897D01*
X160491218Y-129835956D01*
X160502060Y-129839305D01*
X160508740Y-129830881D01*
X160507301Y-129823360D01*
X160499179Y-129808755D01*
X160486728Y-129791257D01*
X160472697Y-129774391D01*
X160459834Y-129761685D01*
X160450890Y-129756666D01*
X160446404Y-129760257D01*
X160373733Y-129760257D01*
X160364851Y-129752755D01*
X160509389Y-129752755D01*
X160516002Y-129765462D01*
X160516189Y-129765659D01*
X160525804Y-129776661D01*
X160540435Y-129794328D01*
X160556992Y-129814931D01*
X160557593Y-129815689D01*
X160570572Y-129830881D01*
X160580925Y-129842999D01*
X160595935Y-129856457D01*
X160598474Y-129858733D01*
X160610602Y-129863137D01*
X160617669Y-129856459D01*
X160618201Y-129853076D01*
X160612274Y-129838515D01*
X160595239Y-129817839D01*
X160585437Y-129807249D01*
X160566006Y-129784850D01*
X160550212Y-129765000D01*
X160544325Y-129757570D01*
X160531875Y-129744978D01*
X160522936Y-129740000D01*
X160513185Y-129742956D01*
X160509389Y-129752755D01*
X160364851Y-129752755D01*
X160362251Y-129750559D01*
X160355759Y-129748686D01*
X160354236Y-129753400D01*
X158921922Y-129753400D01*
X158920432Y-129751178D01*
X158916592Y-129745183D01*
X158905935Y-129732919D01*
X158898699Y-129731968D01*
X158896909Y-129735338D01*
X158853490Y-129735338D01*
X158852340Y-129732827D01*
X158845370Y-129723407D01*
X158838562Y-129725438D01*
X158837478Y-129726738D01*
X158834970Y-129740486D01*
X158762214Y-129740486D01*
X158752831Y-129725767D01*
X158743389Y-129712202D01*
X158738334Y-129706864D01*
X158734285Y-129709280D01*
X158732688Y-129720478D01*
X157865393Y-129720478D01*
X157873819Y-129713868D01*
X157895408Y-129693274D01*
X157910299Y-129677223D01*
X157918458Y-129665619D01*
X160409603Y-129665619D01*
X160413221Y-129683867D01*
X160423876Y-129697887D01*
X160431932Y-129702343D01*
X160449634Y-129704787D01*
X160466212Y-129699798D01*
X160478620Y-129689436D01*
X160483810Y-129675757D01*
X160478737Y-129660821D01*
X160477219Y-129658863D01*
X160469778Y-129651030D01*
X161429093Y-129651030D01*
X161429342Y-129656684D01*
X161440089Y-129662534D01*
X161443859Y-129663333D01*
X161460534Y-129666867D01*
X161467161Y-129667925D01*
X161493464Y-129675353D01*
X161517777Y-129686115D01*
X161538247Y-129701082D01*
X161555200Y-129725914D01*
X161560949Y-129738827D01*
X161565727Y-129743726D01*
X161569764Y-129738436D01*
X161570750Y-129732884D01*
X161627474Y-129732884D01*
X161636843Y-129740684D01*
X161655665Y-129749948D01*
X161668008Y-129756829D01*
X161677312Y-129762016D01*
X161696714Y-129784286D01*
X161700082Y-129790159D01*
X161707866Y-129800404D01*
X161709835Y-129802996D01*
X161717131Y-129806857D01*
X161720000Y-129800381D01*
X161719991Y-129799735D01*
X161713903Y-129781721D01*
X161698980Y-129762297D01*
X161678746Y-129744575D01*
X161656725Y-129731661D01*
X161636441Y-129726666D01*
X161628630Y-129727849D01*
X161628176Y-129729827D01*
X161627474Y-129732884D01*
X161570750Y-129732884D01*
X161571293Y-129729827D01*
X161565480Y-129712274D01*
X161550730Y-129693684D01*
X161529481Y-129675944D01*
X161504169Y-129660937D01*
X161477234Y-129650550D01*
X161451112Y-129646668D01*
X161440140Y-129647289D01*
X161429093Y-129651030D01*
X160469778Y-129651030D01*
X160462643Y-129643520D01*
X160447230Y-129631659D01*
X160435477Y-129626814D01*
X160434226Y-129626829D01*
X160424817Y-129631125D01*
X160420780Y-129632968D01*
X160412347Y-129647276D01*
X160409603Y-129665619D01*
X157918458Y-129665619D01*
X157919870Y-129663610D01*
X157920231Y-129656809D01*
X157912935Y-129656798D01*
X157899348Y-129664440D01*
X157883644Y-129677895D01*
X157868772Y-129694214D01*
X157857685Y-129710447D01*
X157853334Y-129723647D01*
X157650732Y-129723647D01*
X157656237Y-129716244D01*
X157656750Y-129715462D01*
X157678407Y-129681993D01*
X157700111Y-129647576D01*
X157713052Y-129626501D01*
X158053334Y-129626501D01*
X158057134Y-129632108D01*
X158068786Y-129631826D01*
X158068961Y-129631756D01*
X158813334Y-129631756D01*
X158814739Y-129636699D01*
X158821667Y-129648052D01*
X158826194Y-129652868D01*
X158834143Y-129656809D01*
X158844089Y-129661740D01*
X158863768Y-129661234D01*
X158880846Y-129652157D01*
X158890936Y-129635314D01*
X158891614Y-129631125D01*
X158887614Y-129613408D01*
X158875371Y-129599171D01*
X158858664Y-129593333D01*
X158857966Y-129593359D01*
X158845469Y-129598286D01*
X158830741Y-129608976D01*
X158818467Y-129621457D01*
X158813334Y-129631756D01*
X158068961Y-129631756D01*
X158085149Y-129625283D01*
X158103000Y-129613333D01*
X158122694Y-129596401D01*
X158144659Y-129573751D01*
X158156251Y-129555006D01*
X158158416Y-129538894D01*
X158157497Y-129528973D01*
X158161259Y-129521538D01*
X158162111Y-129521439D01*
X160894323Y-129521439D01*
X160902358Y-129529115D01*
X160908818Y-129533154D01*
X160925555Y-129543877D01*
X160945204Y-129556666D01*
X160957105Y-129564440D01*
X160974797Y-129575872D01*
X160986179Y-129583066D01*
X160998556Y-129590875D01*
X161014731Y-129601399D01*
X161030326Y-129610838D01*
X161037983Y-129612596D01*
X161040000Y-129607150D01*
X161039929Y-129606499D01*
X161033979Y-129597854D01*
X161021867Y-129586838D01*
X161008403Y-129577361D01*
X160998397Y-129573333D01*
X160996827Y-129573032D01*
X160986174Y-129567222D01*
X160971739Y-129556348D01*
X160958621Y-129546298D01*
X160938260Y-129533266D01*
X160918497Y-129522885D01*
X160904159Y-129517425D01*
X160940651Y-129517425D01*
X160943038Y-129526187D01*
X160947645Y-129531300D01*
X160959967Y-129539982D01*
X160969199Y-129543466D01*
X160975717Y-129541362D01*
X160973725Y-129533663D01*
X160962698Y-129523529D01*
X160961134Y-129522526D01*
X160947391Y-129516109D01*
X160940651Y-129517425D01*
X160904159Y-129517425D01*
X160902730Y-129516881D01*
X160894354Y-129516983D01*
X160894323Y-129521439D01*
X158162111Y-129521439D01*
X158174488Y-129520000D01*
X158187565Y-129518323D01*
X158193334Y-129514046D01*
X158192353Y-129510569D01*
X158181551Y-129504533D01*
X158160011Y-129502884D01*
X158157885Y-129502972D01*
X158148172Y-129505608D01*
X158142824Y-129514413D01*
X158139390Y-129532965D01*
X158136054Y-129549336D01*
X158126915Y-129567347D01*
X158109380Y-129585305D01*
X158100194Y-129592925D01*
X158082125Y-129606071D01*
X158068334Y-129613841D01*
X158058807Y-129619108D01*
X158053334Y-129626501D01*
X157713052Y-129626501D01*
X157719367Y-129616216D01*
X157733681Y-129591919D01*
X157734930Y-129589730D01*
X157756709Y-129555264D01*
X157781285Y-129521962D01*
X157806405Y-129492480D01*
X157829815Y-129469478D01*
X157849260Y-129455612D01*
X157851350Y-129454521D01*
X157871090Y-129441881D01*
X157890000Y-129426704D01*
X157907966Y-129412451D01*
X157935395Y-129395419D01*
X157964846Y-129380806D01*
X157992199Y-129370613D01*
X158013334Y-129366840D01*
X158015756Y-129366884D01*
X158039287Y-129368998D01*
X158063334Y-129373254D01*
X158092449Y-129378627D01*
X158134965Y-129383706D01*
X158183385Y-129387400D01*
X158233756Y-129389487D01*
X158282124Y-129389745D01*
X158324535Y-129387951D01*
X158356995Y-129385203D01*
X158380978Y-129382146D01*
X158397798Y-129378161D01*
X158410608Y-129372490D01*
X158422559Y-129364376D01*
X158429182Y-129359557D01*
X158443434Y-129350858D01*
X158451750Y-129348230D01*
X158453770Y-129347485D01*
X158463803Y-129339512D01*
X158480205Y-129324350D01*
X158501211Y-129303818D01*
X158525056Y-129279733D01*
X158549975Y-129253914D01*
X158574202Y-129228179D01*
X158595973Y-129204346D01*
X158613523Y-129184234D01*
X158625087Y-129169661D01*
X158652407Y-129135894D01*
X158688226Y-129099766D01*
X158733684Y-129060251D01*
X158790000Y-129016216D01*
X158799198Y-129009338D01*
X158860701Y-128965224D01*
X158917327Y-128928663D01*
X158972105Y-128898246D01*
X159028064Y-128872561D01*
X159088235Y-128850197D01*
X159155648Y-128829743D01*
X159233334Y-128809789D01*
X159246678Y-128806487D01*
X159278251Y-128798049D01*
X159306535Y-128789713D01*
X159326667Y-128782881D01*
X159334266Y-128780261D01*
X159353837Y-128775762D01*
X159380134Y-128772418D01*
X159415356Y-128769990D01*
X159461704Y-128768241D01*
X159505970Y-128767549D01*
X159569860Y-128768873D01*
X159633131Y-128773330D01*
X159698392Y-128781260D01*
X159768253Y-128792999D01*
X159845324Y-128808888D01*
X159932214Y-128829264D01*
X159936515Y-128830323D01*
X159971880Y-128839546D01*
X160003511Y-128849053D01*
X160034518Y-128860021D01*
X160068012Y-128873625D01*
X160107106Y-128891042D01*
X160154911Y-128913448D01*
X160163100Y-128917350D01*
X160203485Y-128936844D01*
X160241449Y-128955553D01*
X160274577Y-128972261D01*
X160300455Y-128985755D01*
X160316667Y-128994819D01*
X160348162Y-129015488D01*
X160406560Y-129060777D01*
X160464860Y-129114361D01*
X160520000Y-129173549D01*
X160527756Y-129182449D01*
X160558615Y-129216384D01*
X160594408Y-129254033D01*
X160631298Y-129291412D01*
X160665446Y-129324538D01*
X160747558Y-129401886D01*
X160867127Y-129398458D01*
X160891680Y-129397784D01*
X160928938Y-129397013D01*
X160956247Y-129397016D01*
X160975812Y-129397931D01*
X160989836Y-129399900D01*
X161000523Y-129403063D01*
X161010077Y-129407561D01*
X161011802Y-129408463D01*
X161034617Y-129417892D01*
X161057003Y-129423834D01*
X161058863Y-129424148D01*
X161082115Y-129429899D01*
X161105275Y-129437997D01*
X161106230Y-129438390D01*
X161131791Y-129445122D01*
X161167800Y-129449625D01*
X161211677Y-129451838D01*
X161260843Y-129451701D01*
X161312718Y-129449151D01*
X161364723Y-129444129D01*
X161387903Y-129441407D01*
X161456231Y-129435213D01*
X161515797Y-129433188D01*
X161569614Y-129435421D01*
X161620696Y-129441998D01*
X161672057Y-129453005D01*
X161698807Y-129459572D01*
X161744195Y-129470183D01*
X161791286Y-129480697D01*
X161833334Y-129489583D01*
X161875445Y-129498367D01*
X161919562Y-129508261D01*
X161942720Y-129514046D01*
X161953673Y-129516782D01*
X161977154Y-129523738D01*
X161989381Y-129528942D01*
X161989727Y-129532204D01*
X161977569Y-129533333D01*
X161965202Y-129535596D01*
X161958928Y-129541362D01*
X161955179Y-129544808D01*
X161948057Y-129558247D01*
X161929224Y-129577971D01*
X161905817Y-129590844D01*
X161882170Y-129593946D01*
X161881413Y-129593867D01*
X161871618Y-129597413D01*
X161870244Y-129607150D01*
X161870154Y-129607786D01*
X161877665Y-129621102D01*
X161891093Y-129632944D01*
X161909147Y-129644615D01*
X161920200Y-129649771D01*
X161929962Y-129650645D01*
X161938680Y-129644178D01*
X161940040Y-129642829D01*
X161945214Y-129637187D01*
X161944459Y-129633444D01*
X161935546Y-129629530D01*
X161916245Y-129623380D01*
X161909972Y-129620045D01*
X161909976Y-129620000D01*
X161980000Y-129620000D01*
X161985735Y-129624699D01*
X161999607Y-129626666D01*
X162014322Y-129624803D01*
X162023334Y-129620000D01*
X162023721Y-129619089D01*
X162018896Y-129614912D01*
X162003727Y-129613333D01*
X162000326Y-129613402D01*
X161985868Y-129615622D01*
X161980000Y-129620000D01*
X161909976Y-129620000D01*
X161910495Y-129613545D01*
X161922181Y-129606245D01*
X161943861Y-129599171D01*
X161944927Y-129598902D01*
X161962142Y-129593638D01*
X161968407Y-129588667D01*
X161965856Y-129582356D01*
X161965420Y-129581827D01*
X161961851Y-129575667D01*
X161968846Y-129577146D01*
X161972707Y-129577870D01*
X161988458Y-129576425D01*
X162008122Y-129571058D01*
X162026550Y-129565075D01*
X162049742Y-129559137D01*
X162068979Y-129555847D01*
X162081342Y-129555668D01*
X162083914Y-129559061D01*
X162075410Y-129564897D01*
X162060001Y-129570000D01*
X162059918Y-129570018D01*
X162041752Y-129576325D01*
X162035575Y-129585723D01*
X162040093Y-129600172D01*
X162041388Y-129602853D01*
X162046933Y-129619089D01*
X162047348Y-129620305D01*
X162052152Y-129641387D01*
X162052527Y-129643543D01*
X162057170Y-129660767D01*
X162065979Y-129670286D01*
X162083418Y-129677215D01*
X162086216Y-129678105D01*
X162107201Y-129684963D01*
X162134634Y-129694126D01*
X162163334Y-129703863D01*
X162169520Y-129705943D01*
X162197513Y-129714512D01*
X162222608Y-129720992D01*
X162240000Y-129724114D01*
X162260230Y-129726020D01*
X162299561Y-129731258D01*
X162326427Y-129737540D01*
X162341419Y-129744989D01*
X162350504Y-129750109D01*
X162363931Y-129750693D01*
X162371349Y-129749699D01*
X162384953Y-129754677D01*
X162398107Y-129762727D01*
X162418213Y-129771465D01*
X162438600Y-129778036D01*
X162453334Y-129780224D01*
X162461860Y-129779719D01*
X162478694Y-129779055D01*
X162485305Y-129778652D01*
X162490348Y-129775268D01*
X162485207Y-129765311D01*
X162483574Y-129763191D01*
X162469756Y-129752233D01*
X162451046Y-129743285D01*
X162442539Y-129740384D01*
X162431712Y-129737342D01*
X162430742Y-129739613D01*
X162437737Y-129747849D01*
X162438761Y-129748981D01*
X162445476Y-129757037D01*
X162443023Y-129757932D01*
X162429872Y-129752588D01*
X162411447Y-129743809D01*
X162398199Y-129734192D01*
X162396885Y-129726314D01*
X162396287Y-129723850D01*
X162388187Y-129714109D01*
X162372774Y-129699479D01*
X162352180Y-129682070D01*
X162344975Y-129676221D01*
X162319280Y-129654732D01*
X162295295Y-129633834D01*
X162277418Y-129617338D01*
X162268931Y-129610000D01*
X162506667Y-129610000D01*
X162510000Y-129613333D01*
X162513334Y-129610000D01*
X162510000Y-129606666D01*
X162506667Y-129610000D01*
X162268931Y-129610000D01*
X162261643Y-129603698D01*
X162238046Y-129590182D01*
X162217051Y-129583333D01*
X162480000Y-129583333D01*
X162483334Y-129586666D01*
X162486667Y-129583333D01*
X162483334Y-129580000D01*
X162480000Y-129583333D01*
X162217051Y-129583333D01*
X162207049Y-129580070D01*
X162184870Y-129573731D01*
X162159705Y-129565183D01*
X162141547Y-129557499D01*
X162127472Y-129550888D01*
X162119851Y-129550384D01*
X162115834Y-129556433D01*
X162112677Y-129561249D01*
X162100954Y-129566564D01*
X162100542Y-129566560D01*
X162093825Y-129565309D01*
X162099572Y-129560406D01*
X162104796Y-129553074D01*
X162100912Y-129543913D01*
X162089250Y-129536430D01*
X162072518Y-129533333D01*
X162069047Y-129533164D01*
X162056409Y-129528269D01*
X162052735Y-129519320D01*
X162060000Y-129510000D01*
X162063962Y-129504650D01*
X162066667Y-129491154D01*
X162067197Y-129486733D01*
X162073188Y-129469992D01*
X162083701Y-129451360D01*
X162098345Y-129429375D01*
X162117537Y-129399500D01*
X162136339Y-129369246D01*
X162153368Y-129340922D01*
X162167242Y-129316833D01*
X162176581Y-129299288D01*
X162180000Y-129290592D01*
X162181910Y-129277083D01*
X162188026Y-129259708D01*
X162196150Y-129245733D01*
X162203986Y-129240000D01*
X162210359Y-129238653D01*
X162213254Y-129232672D01*
X162210265Y-129220788D01*
X162200886Y-129201794D01*
X162184607Y-129174483D01*
X162160923Y-129137649D01*
X162157145Y-129131954D01*
X162143391Y-129112292D01*
X162132623Y-129098521D01*
X162126907Y-129093333D01*
X162125296Y-129086984D01*
X162123841Y-129068914D01*
X162122586Y-129040742D01*
X162121566Y-129004087D01*
X162120817Y-128960566D01*
X162120374Y-128911797D01*
X162120372Y-128910877D01*
X162360564Y-128910877D01*
X162363060Y-128919556D01*
X162364772Y-128921760D01*
X162374544Y-128926666D01*
X162377499Y-128924888D01*
X162373200Y-128916505D01*
X162365738Y-128910165D01*
X162360564Y-128910877D01*
X162120372Y-128910877D01*
X162120273Y-128859400D01*
X162120549Y-128804993D01*
X162120397Y-128777603D01*
X162119000Y-128758194D01*
X162115945Y-128747390D01*
X162110851Y-128742737D01*
X162109721Y-128742190D01*
X162100799Y-128732287D01*
X162093101Y-128715961D01*
X162092454Y-128714161D01*
X162084121Y-128697093D01*
X162069792Y-128672409D01*
X162051179Y-128642768D01*
X162029992Y-128610826D01*
X162007941Y-128579242D01*
X161986737Y-128550675D01*
X161976595Y-128536388D01*
X161967704Y-128517486D01*
X161966653Y-128499223D01*
X161973990Y-128479243D01*
X161990262Y-128455190D01*
X162016016Y-128424708D01*
X162037567Y-128401272D01*
X162069349Y-128369637D01*
X162098211Y-128344369D01*
X162122828Y-128326500D01*
X162140876Y-128317560D01*
X162181180Y-128317560D01*
X162186667Y-128320000D01*
X162190196Y-128319518D01*
X162191112Y-128315555D01*
X162190134Y-128314757D01*
X162182223Y-128315555D01*
X162181180Y-128317560D01*
X162140876Y-128317560D01*
X162141875Y-128317065D01*
X162154028Y-128317095D01*
X162157126Y-128317461D01*
X162160000Y-128310184D01*
X162158872Y-128304873D01*
X162150000Y-128295744D01*
X162149446Y-128295524D01*
X162140779Y-128287038D01*
X162143493Y-128275187D01*
X162157059Y-128262463D01*
X162169291Y-128255679D01*
X162180040Y-128255374D01*
X162195393Y-128261968D01*
X162198547Y-128263557D01*
X162210051Y-128270057D01*
X162210746Y-128273737D01*
X162201667Y-128277102D01*
X162194385Y-128279724D01*
X162187620Y-128286151D01*
X162193292Y-128294229D01*
X162211667Y-128304687D01*
X162215033Y-128306311D01*
X162227765Y-128313174D01*
X162228963Y-128315555D01*
X162229582Y-128316786D01*
G37*
G36*
X163447360Y-130240187D02*
G01*
X163439750Y-130241382D01*
X163421881Y-130246067D01*
X163400000Y-130253053D01*
X163379005Y-130260311D01*
X163364622Y-130264412D01*
X163356592Y-130264005D01*
X163351548Y-130258807D01*
X163346127Y-130248535D01*
X163344209Y-130245000D01*
X163338546Y-130236666D01*
X163346667Y-130236666D01*
X163350000Y-130240000D01*
X163353334Y-130236666D01*
X163350000Y-130233333D01*
X163346667Y-130236666D01*
X163338546Y-130236666D01*
X163331309Y-130226015D01*
X163317721Y-130212081D01*
X163306709Y-130206666D01*
X163303817Y-130205467D01*
X163293930Y-130196453D01*
X163281709Y-130181504D01*
X163259635Y-130152088D01*
X163236021Y-130123348D01*
X163218107Y-130105398D01*
X163205448Y-130097749D01*
X163196403Y-130092610D01*
X163196391Y-130080869D01*
X163197427Y-130072796D01*
X163191577Y-130066184D01*
X163175322Y-130060439D01*
X163171721Y-130059472D01*
X163151993Y-130055147D01*
X163137352Y-130053370D01*
X163136950Y-130053371D01*
X163117669Y-130056544D01*
X163093554Y-130064493D01*
X163069060Y-130075266D01*
X163048641Y-130086910D01*
X163036752Y-130097473D01*
X163026987Y-130108207D01*
X163016069Y-130113333D01*
X163013594Y-130113664D01*
X163000193Y-130119397D01*
X162983926Y-130130000D01*
X162970077Y-130139212D01*
X162949894Y-130145590D01*
X162928835Y-130141665D01*
X162903260Y-130127314D01*
X162893039Y-130120680D01*
X162874563Y-130109891D01*
X162861544Y-130103823D01*
X162858627Y-130103049D01*
X162842815Y-130100671D01*
X162820742Y-130098858D01*
X162795665Y-130097684D01*
X162770846Y-130097222D01*
X162749543Y-130097546D01*
X162735017Y-130098731D01*
X162730526Y-130100850D01*
X162731745Y-130103119D01*
X162730602Y-130106213D01*
X162721156Y-130104054D01*
X162701562Y-130096356D01*
X162693550Y-130092756D01*
X162683663Y-130085891D01*
X162685669Y-130080617D01*
X162688383Y-130078266D01*
X162686849Y-130072658D01*
X162675585Y-130068373D01*
X162657155Y-130066666D01*
X162644271Y-130063313D01*
X162629629Y-130052923D01*
X162618793Y-130044679D01*
X162605014Y-130042363D01*
X162592705Y-130040506D01*
X162577298Y-130028790D01*
X162576726Y-130028184D01*
X162561283Y-130016813D01*
X162545880Y-130012219D01*
X162545585Y-130012224D01*
X162531146Y-130012997D01*
X162508657Y-130014728D01*
X162483150Y-130016975D01*
X162459658Y-130019294D01*
X162443215Y-130021245D01*
X162432952Y-130020529D01*
X162416729Y-130017277D01*
X162403525Y-130014378D01*
X162401501Y-130016588D01*
X162409168Y-130025746D01*
X162416201Y-130036657D01*
X162416927Y-130046246D01*
X162416857Y-130046358D01*
X162406594Y-130052634D01*
X162393394Y-130051792D01*
X162384620Y-130044281D01*
X162384345Y-130043677D01*
X162375120Y-130036299D01*
X162359072Y-130030814D01*
X162353759Y-130029527D01*
X162335285Y-130022450D01*
X162317139Y-130012504D01*
X162302292Y-130001747D01*
X162293713Y-129992235D01*
X162294373Y-129986024D01*
X162295064Y-129985562D01*
X162295960Y-129979829D01*
X162284175Y-129972503D01*
X162276760Y-129969375D01*
X162266109Y-129967764D01*
X162259365Y-129973712D01*
X162256273Y-129981277D01*
X162255372Y-129997222D01*
X162255888Y-130002115D01*
X162252242Y-130009323D01*
X162238827Y-130011111D01*
X162238302Y-130011109D01*
X162224596Y-130008597D01*
X162221630Y-130000555D01*
X162220027Y-129994199D01*
X162210375Y-129990226D01*
X162190000Y-129988136D01*
X162169407Y-129986772D01*
X162152210Y-129984036D01*
X162145546Y-129978703D01*
X162147811Y-129969066D01*
X162157403Y-129953417D01*
X162164859Y-129941519D01*
X162170319Y-129929286D01*
X162172867Y-129915223D01*
X162173132Y-129895508D01*
X162171743Y-129866321D01*
X162171585Y-129863551D01*
X162170177Y-129836259D01*
X162170016Y-129820053D01*
X162171482Y-129812879D01*
X162174956Y-129812682D01*
X162180821Y-129817409D01*
X162188759Y-129826920D01*
X162193617Y-129839366D01*
X162197370Y-129845401D01*
X162210364Y-129857602D01*
X162230439Y-129873362D01*
X162255284Y-129890755D01*
X162271498Y-129901818D01*
X162295317Y-129919633D01*
X162310253Y-129933216D01*
X162314941Y-129941408D01*
X162317555Y-129947538D01*
X162331935Y-129958386D01*
X162358275Y-129971863D01*
X162375222Y-129979296D01*
X162397189Y-129986964D01*
X162415727Y-129989694D01*
X162435902Y-129988575D01*
X162443538Y-129987532D01*
X162459133Y-129983660D01*
X162473684Y-129976210D01*
X162490598Y-129963152D01*
X162513284Y-129942454D01*
X162558097Y-129900180D01*
X162629390Y-129923287D01*
X162663781Y-129933904D01*
X162703516Y-129944764D01*
X162738015Y-129952643D01*
X162765441Y-129957184D01*
X162783956Y-129958030D01*
X162791726Y-129954824D01*
X162797371Y-129951075D01*
X162811073Y-129952298D01*
X162828825Y-129958141D01*
X162846870Y-129967014D01*
X162861451Y-129977323D01*
X162868811Y-129987479D01*
X162869978Y-129990809D01*
X162875825Y-129996559D01*
X162888441Y-129999300D01*
X162911087Y-130000000D01*
X162927265Y-129999546D01*
X162952661Y-129997298D01*
X162971711Y-129993798D01*
X162972238Y-129993648D01*
X162987670Y-129990931D01*
X162993334Y-129993798D01*
X162993343Y-129994148D01*
X162998844Y-129999680D01*
X163012042Y-129999160D01*
X163029314Y-129993324D01*
X163047039Y-129982905D01*
X163047509Y-129982557D01*
X163065548Y-129970891D01*
X163090341Y-129956844D01*
X163116667Y-129943380D01*
X163130470Y-129936830D01*
X163150968Y-129928231D01*
X163167601Y-129924242D01*
X163185652Y-129923897D01*
X163210404Y-129926231D01*
X163235111Y-129930264D01*
X163266727Y-129938147D01*
X163292731Y-129947422D01*
X163327989Y-129963333D01*
X163325662Y-130043333D01*
X163323334Y-130123333D01*
X163348334Y-130122572D01*
X163352882Y-130122545D01*
X163367457Y-130124358D01*
X163373334Y-130128431D01*
X163374516Y-130130303D01*
X163385592Y-130132209D01*
X163406660Y-130130630D01*
X163439986Y-130126209D01*
X163426814Y-130159627D01*
X163419034Y-130183799D01*
X163418063Y-130202889D01*
X163425958Y-130212031D01*
X163442780Y-130211287D01*
X163468591Y-130200718D01*
X163482937Y-130194016D01*
X163491197Y-130192643D01*
X163493334Y-130197703D01*
X163493317Y-130198214D01*
X163487693Y-130210128D01*
X163475121Y-130223901D01*
X163460158Y-130235324D01*
X163456626Y-130236666D01*
X163447360Y-130240187D01*
G37*
G36*
X163231409Y-130179734D02*
G01*
X163240000Y-130193333D01*
X163242505Y-130197993D01*
X163249929Y-130213096D01*
X163253054Y-130221666D01*
X163251714Y-130226709D01*
X163246165Y-130221532D01*
X163237155Y-130205642D01*
X163234504Y-130200146D01*
X163228323Y-130184602D01*
X163227404Y-130177311D01*
X163231409Y-130179734D01*
G37*
G36*
X162977304Y-130198969D02*
G01*
X162975246Y-130201931D01*
X162969607Y-130206666D01*
X162968675Y-130206601D01*
X162967207Y-130202742D01*
X162974364Y-130196030D01*
X162978090Y-130194407D01*
X162977304Y-130198969D01*
G37*
G36*
X162849058Y-130157227D02*
G01*
X162854654Y-130160238D01*
X162860000Y-130167522D01*
X162864421Y-130173661D01*
X162876667Y-130181213D01*
X162887944Y-130187956D01*
X162893334Y-130194857D01*
X162892239Y-130196111D01*
X162884297Y-130193360D01*
X162871679Y-130185391D01*
X162857980Y-130174626D01*
X162846799Y-130163491D01*
X162844768Y-130160995D01*
X162841855Y-130155467D01*
X162849058Y-130157227D01*
G37*
G36*
X163214875Y-130113589D02*
G01*
X163220000Y-130120000D01*
X163219924Y-130121508D01*
X163217061Y-130126666D01*
X163215991Y-130126359D01*
X163210000Y-130120000D01*
X163208959Y-130117417D01*
X163212940Y-130113333D01*
X163214875Y-130113589D01*
G37*
G36*
X162621778Y-130092506D02*
G01*
X162622640Y-130093384D01*
X162625835Y-130098267D01*
X162618046Y-130096238D01*
X162611825Y-130092913D01*
X162609824Y-130087954D01*
X162613038Y-130087240D01*
X162621778Y-130092506D01*
G37*
G36*
X162353334Y-130096666D02*
G01*
X162350000Y-130100000D01*
X162346667Y-130096666D01*
X162350000Y-130093333D01*
X162353334Y-130096666D01*
G37*
G36*
X163186667Y-130083333D02*
G01*
X163183334Y-130086666D01*
X163180000Y-130083333D01*
X163183334Y-130080000D01*
X163186667Y-130083333D01*
G37*
G36*
X163167931Y-130074060D02*
G01*
X163173334Y-130079790D01*
X163171918Y-130082549D01*
X163163334Y-130082410D01*
X163158547Y-130080252D01*
X163153334Y-130075953D01*
X163154439Y-130074759D01*
X163163334Y-130073333D01*
X163167931Y-130074060D01*
G37*
G36*
X162306667Y-130043333D02*
G01*
X162303334Y-130046666D01*
X162300000Y-130043333D01*
X162303334Y-130040000D01*
X162306667Y-130043333D01*
G37*
G36*
X162715916Y-128184789D02*
G01*
X162756414Y-128201617D01*
X162797979Y-128219217D01*
X162837918Y-128236450D01*
X162873541Y-128252178D01*
X162902155Y-128265260D01*
X162921069Y-128274559D01*
X162930626Y-128279439D01*
X162948473Y-128287392D01*
X162960000Y-128290958D01*
X162964026Y-128291337D01*
X162978334Y-128292624D01*
X162982238Y-128294162D01*
X162986667Y-128303612D01*
X162990842Y-128310346D01*
X163005722Y-128320998D01*
X163029326Y-128333030D01*
X163042545Y-128339353D01*
X163071213Y-128354483D01*
X163103402Y-128372764D01*
X163134326Y-128391527D01*
X163149817Y-128401182D01*
X163184886Y-128422398D01*
X163220179Y-128443049D01*
X163250000Y-128459776D01*
X163261610Y-128466174D01*
X163294822Y-128485213D01*
X163330720Y-128506581D01*
X163363334Y-128526751D01*
X163377522Y-128535610D01*
X163410544Y-128555399D01*
X163443154Y-128574012D01*
X163470000Y-128588356D01*
X163474233Y-128590527D01*
X163498422Y-128604727D01*
X163522198Y-128622416D01*
X163548439Y-128645931D01*
X163580024Y-128677606D01*
X163580103Y-128677688D01*
X163607104Y-128706878D01*
X163633811Y-128737780D01*
X163657144Y-128766714D01*
X163674027Y-128790000D01*
X163694459Y-128822025D01*
X163715434Y-128856571D01*
X163734932Y-128890208D01*
X163751504Y-128920369D01*
X163763701Y-128944488D01*
X163770073Y-128960000D01*
X163770591Y-128961721D01*
X163777428Y-128979919D01*
X163786558Y-129000000D01*
X163802761Y-129040392D01*
X163815397Y-129099597D01*
X163817941Y-129163236D01*
X163810110Y-129228567D01*
X163808930Y-129234225D01*
X163801767Y-129262888D01*
X163793686Y-129288249D01*
X163786221Y-129305381D01*
X163784322Y-129308722D01*
X163776505Y-129324978D01*
X163773334Y-129336054D01*
X163770748Y-129346644D01*
X163761139Y-129367301D01*
X163745858Y-129394056D01*
X163726421Y-129424551D01*
X163704344Y-129456429D01*
X163681143Y-129487332D01*
X163658334Y-129514904D01*
X163654212Y-129519746D01*
X163644063Y-129533428D01*
X163640000Y-129541908D01*
X163635892Y-129552538D01*
X163623715Y-129568951D01*
X163606346Y-129587359D01*
X163586703Y-129604697D01*
X163567704Y-129617898D01*
X163558805Y-129623188D01*
X163532666Y-129640305D01*
X163509342Y-129657430D01*
X163492806Y-129670555D01*
X163448126Y-129704976D01*
X163409143Y-129732999D01*
X163372806Y-129756645D01*
X163336064Y-129777935D01*
X163295866Y-129798892D01*
X163259114Y-129817062D01*
X163218983Y-129836160D01*
X163186087Y-129850705D01*
X163157913Y-129861795D01*
X163131947Y-129870529D01*
X163111321Y-129878229D01*
X163094338Y-129888485D01*
X163088116Y-129898435D01*
X163093820Y-129906967D01*
X163095987Y-129908512D01*
X163097373Y-129912954D01*
X163089856Y-129917518D01*
X163072010Y-129922829D01*
X163042407Y-129929513D01*
X163018013Y-129935056D01*
X162995028Y-129941038D01*
X162980000Y-129945821D01*
X162969062Y-129949813D01*
X162954313Y-129952191D01*
X162939125Y-129948722D01*
X162918068Y-129938792D01*
X162907804Y-129934224D01*
X162875840Y-129925091D01*
X162836667Y-129919218D01*
X162832929Y-129918859D01*
X162804197Y-129915750D01*
X162778355Y-129912414D01*
X162760604Y-129909513D01*
X162747923Y-129907393D01*
X162741137Y-129908828D01*
X162742061Y-129915753D01*
X162743408Y-129921688D01*
X162740505Y-129926666D01*
X162737980Y-129925969D01*
X162731453Y-129918047D01*
X162730372Y-129916478D01*
X162719943Y-129908642D01*
X162701325Y-129897997D01*
X162677635Y-129886380D01*
X162672635Y-129884058D01*
X162648883Y-129871686D01*
X162632787Y-129860923D01*
X162626749Y-129853333D01*
X162626016Y-129848952D01*
X162621065Y-129833446D01*
X162613069Y-129814007D01*
X162608826Y-129804029D01*
X162603685Y-129788773D01*
X162603161Y-129781283D01*
X162605163Y-129781325D01*
X162614799Y-129787364D01*
X162629536Y-129799379D01*
X162646638Y-129814844D01*
X162663370Y-129831232D01*
X162676994Y-129846015D01*
X162684777Y-129856666D01*
X162688254Y-129861192D01*
X162704752Y-129871833D01*
X162731118Y-129881666D01*
X162749791Y-129887054D01*
X162769167Y-129891686D01*
X162780874Y-129892108D01*
X162787924Y-129888239D01*
X162793334Y-129880000D01*
X162800329Y-129872060D01*
X162814346Y-129866666D01*
X162819397Y-129866355D01*
X162825569Y-129861704D01*
X162824740Y-129848453D01*
X162824023Y-129835706D01*
X162829381Y-129816053D01*
X162843206Y-129792693D01*
X162866572Y-129763443D01*
X162878628Y-129748704D01*
X162889246Y-129733718D01*
X162893334Y-129725023D01*
X162896288Y-129718100D01*
X162905949Y-129703696D01*
X162920000Y-129685899D01*
X162925945Y-129678811D01*
X162939528Y-129661783D01*
X162945283Y-129652067D01*
X162944050Y-129647687D01*
X162936667Y-129646666D01*
X162929867Y-129645874D01*
X162927314Y-129640418D01*
X162933076Y-129627149D01*
X162935809Y-129619316D01*
X162931409Y-129605423D01*
X162930954Y-129604886D01*
X162917492Y-129592431D01*
X162895695Y-129575599D01*
X162868638Y-129556492D01*
X162839398Y-129537210D01*
X162811049Y-129519855D01*
X162786667Y-129506528D01*
X162786491Y-129506440D01*
X162762678Y-129494605D01*
X162741809Y-129484213D01*
X162728386Y-129477506D01*
X162719201Y-129470046D01*
X162713386Y-129455393D01*
X162712156Y-129445996D01*
X162707209Y-129437001D01*
X162701785Y-129428517D01*
X162695394Y-129409324D01*
X162688944Y-129382571D01*
X162682993Y-129351219D01*
X162678100Y-129318229D01*
X162674820Y-129286560D01*
X162673713Y-129259174D01*
X162674093Y-129203333D01*
X162729330Y-129157065D01*
X162747078Y-129142478D01*
X162769807Y-129124613D01*
X162788088Y-129111180D01*
X162799096Y-129104315D01*
X162809879Y-129096064D01*
X162818014Y-129080551D01*
X162819811Y-129063344D01*
X162814987Y-129048750D01*
X162803257Y-129041077D01*
X162801476Y-129040708D01*
X162789299Y-129035560D01*
X162775770Y-129024719D01*
X162759551Y-129006728D01*
X162739305Y-128980128D01*
X162713693Y-128943461D01*
X162703188Y-128928154D01*
X162680835Y-128896789D01*
X162663645Y-128875047D01*
X162650409Y-128861629D01*
X162639914Y-128855233D01*
X162630950Y-128854557D01*
X162630595Y-128854614D01*
X162619749Y-128850708D01*
X162603691Y-128838995D01*
X162585150Y-128822146D01*
X162566853Y-128802828D01*
X162551531Y-128783712D01*
X162541913Y-128767467D01*
X162539152Y-128758822D01*
X162534471Y-128736421D01*
X162530157Y-128707307D01*
X162526880Y-128675572D01*
X162524651Y-128641198D01*
X162524470Y-128613841D01*
X162526707Y-128591916D01*
X162531542Y-128571438D01*
X162535080Y-128558446D01*
X162540194Y-128535387D01*
X162542545Y-128518333D01*
X162544343Y-128505769D01*
X162547931Y-128500000D01*
X162548825Y-128499480D01*
X162551013Y-128490644D01*
X162551264Y-128474334D01*
X162550731Y-128467781D01*
X162548141Y-128457097D01*
X162542070Y-128446108D01*
X162530887Y-128432685D01*
X162512963Y-128414702D01*
X162486667Y-128390029D01*
X162472741Y-128377555D01*
X162444047Y-128353588D01*
X162411761Y-128328288D01*
X162377870Y-128303052D01*
X162344364Y-128279274D01*
X162313230Y-128258352D01*
X162286457Y-128241679D01*
X162266032Y-128230652D01*
X162253944Y-128226666D01*
X162250718Y-128226229D01*
X162235711Y-128221805D01*
X162213521Y-128213633D01*
X162187674Y-128202973D01*
X162176075Y-128198106D01*
X162137647Y-128184717D01*
X162106824Y-128178571D01*
X162084709Y-128179805D01*
X162072407Y-128188559D01*
X162069988Y-128191347D01*
X162055022Y-128197349D01*
X162029848Y-128200161D01*
X161996531Y-128199652D01*
X161957136Y-128195697D01*
X161925745Y-128191394D01*
X161940134Y-128176666D01*
X162160000Y-128176666D01*
X162163334Y-128180000D01*
X162166667Y-128176666D01*
X162163334Y-128173333D01*
X162160000Y-128176666D01*
X161940134Y-128176666D01*
X161957873Y-128158510D01*
X161974944Y-128142363D01*
X161998885Y-128122620D01*
X162020000Y-128108038D01*
X162030718Y-128101558D01*
X162048024Y-128090224D01*
X162058559Y-128082143D01*
X162060901Y-128080057D01*
X162071874Y-128073648D01*
X162087929Y-128068975D01*
X162110709Y-128065875D01*
X162141858Y-128064181D01*
X162183022Y-128063729D01*
X162235843Y-128064353D01*
X162256163Y-128064796D01*
X162312744Y-128067024D01*
X162360505Y-128070973D01*
X162402850Y-128077233D01*
X162443181Y-128086399D01*
X162484901Y-128099061D01*
X162531413Y-128115814D01*
X162540724Y-128119325D01*
X162572609Y-128131072D01*
X162603095Y-128141949D01*
X162626667Y-128149976D01*
X162627730Y-128150326D01*
X162648882Y-128158004D01*
X162679174Y-128169871D01*
X162695910Y-128176666D01*
X162715916Y-128184789D01*
G37*
G36*
X162720989Y-129810053D02*
G01*
X162736900Y-129811204D01*
X162743235Y-129814705D01*
X162742805Y-129821666D01*
X162741900Y-129825341D01*
X162744138Y-129832498D01*
X162753144Y-129830665D01*
X162766667Y-129820000D01*
X162771457Y-129815408D01*
X162778251Y-129811342D01*
X162780000Y-129816948D01*
X162778880Y-129823352D01*
X162771667Y-129836694D01*
X162766421Y-129841748D01*
X162757907Y-129846413D01*
X162750959Y-129844454D01*
X162736106Y-129838612D01*
X162717574Y-129830638D01*
X162699373Y-129822315D01*
X162685512Y-129815426D01*
X162680000Y-129811757D01*
X162682221Y-129811127D01*
X162694258Y-129810317D01*
X162713254Y-129810000D01*
X162720989Y-129810053D01*
G37*
G36*
X162673334Y-129803333D02*
G01*
X162670000Y-129806666D01*
X162666667Y-129803333D01*
X162670000Y-129800000D01*
X162673334Y-129803333D01*
G37*
G36*
X162831907Y-129734438D02*
G01*
X162833334Y-129743333D01*
X162832606Y-129747930D01*
X162826876Y-129753333D01*
X162824118Y-129751917D01*
X162824256Y-129743333D01*
X162826415Y-129738546D01*
X162830714Y-129733333D01*
X162831907Y-129734438D01*
G37*
G36*
X162092741Y-129613015D02*
G01*
X162098375Y-129615590D01*
X162117000Y-129621367D01*
X162140023Y-129626219D01*
X162163973Y-129629703D01*
X162185377Y-129631377D01*
X162200766Y-129630798D01*
X162206667Y-129627525D01*
X162211103Y-129622719D01*
X162223724Y-129620337D01*
X162239303Y-129621380D01*
X162252521Y-129626023D01*
X162256571Y-129629785D01*
X162257743Y-129638259D01*
X162257554Y-129638849D01*
X162262065Y-129646458D01*
X162274867Y-129658795D01*
X162293555Y-129673493D01*
X162296550Y-129675669D01*
X162315195Y-129689523D01*
X162328351Y-129699827D01*
X162333334Y-129704488D01*
X162333069Y-129705313D01*
X162325830Y-129706801D01*
X162312899Y-129704768D01*
X162299967Y-129699981D01*
X162292199Y-129696923D01*
X162283345Y-129699981D01*
X162274574Y-129705702D01*
X162254954Y-129704500D01*
X162225553Y-129694384D01*
X162225115Y-129694198D01*
X162197162Y-129683280D01*
X162176605Y-129677176D01*
X162164975Y-129676224D01*
X162163805Y-129680762D01*
X162165580Y-129684815D01*
X162160922Y-129683902D01*
X162157971Y-129681386D01*
X162156483Y-129673630D01*
X162156569Y-129670653D01*
X162148211Y-129665458D01*
X162131350Y-129661635D01*
X162109150Y-129660091D01*
X162090881Y-129657204D01*
X162078624Y-129646395D01*
X162070793Y-129625000D01*
X162070709Y-129624646D01*
X162069892Y-129610649D01*
X162076982Y-129606910D01*
X162092741Y-129613015D01*
G37*
G36*
X162656893Y-129680145D02*
G01*
X162669964Y-129683375D01*
X162673239Y-129689236D01*
X162665000Y-129695584D01*
X162659324Y-129697709D01*
X162649061Y-129698267D01*
X162640000Y-129690000D01*
X162636450Y-129684777D01*
X162638933Y-129680904D01*
X162652518Y-129680000D01*
X162656893Y-129680145D01*
G37*
G36*
X162766667Y-129690000D02*
G01*
X162763334Y-129693333D01*
X162760000Y-129690000D01*
X162763334Y-129686666D01*
X162766667Y-129690000D01*
G37*
G36*
X162633334Y-129616666D02*
G01*
X162630000Y-129620000D01*
X162626667Y-129616666D01*
X162630000Y-129613333D01*
X162633334Y-129616666D01*
G37*
G36*
X162654875Y-129593589D02*
G01*
X162660000Y-129600000D01*
X162659924Y-129601508D01*
X162657061Y-129606666D01*
X162655991Y-129606359D01*
X162650000Y-129600000D01*
X162648959Y-129597417D01*
X162652940Y-129593333D01*
X162654875Y-129593589D01*
G37*
G36*
X162605790Y-129527083D02*
G01*
X162617136Y-129539341D01*
X162620613Y-129543760D01*
X162628698Y-129557864D01*
X162629656Y-129567223D01*
X162623730Y-129569352D01*
X162613868Y-129563758D01*
X162603771Y-129553000D01*
X162596653Y-129540594D01*
X162595723Y-129530057D01*
X162599461Y-129524578D01*
X162605790Y-129527083D01*
G37*
G36*
X162234826Y-128285498D02*
G01*
X162240000Y-128293358D01*
X162237292Y-128296957D01*
X162226096Y-128293027D01*
X162217974Y-128287358D01*
X162215809Y-128281969D01*
X162224227Y-128280621D01*
X162234826Y-128285498D01*
G37*
D13*
%TO.C,J45*%
X125725000Y-132230000D02*
X124455000Y-132230000D01*
X124455000Y-132230000D02*
X124455000Y-133500000D01*
X128645000Y-134542929D02*
X128645000Y-134940000D01*
X127885000Y-134542929D02*
X127885000Y-134940000D01*
X126105000Y-134610000D02*
X126105000Y-134940000D01*
X125345000Y-134610000D02*
X125345000Y-134940000D01*
X129595000Y-134940000D02*
X129595000Y-137600000D01*
X126995000Y-134940000D02*
X126995000Y-137600000D01*
X124395000Y-134940000D02*
X129595000Y-134940000D01*
X129595000Y-137600000D02*
X124395000Y-137600000D01*
X127885000Y-137600000D02*
X127885000Y-143600000D01*
X126005000Y-137600000D02*
X126005000Y-143600000D01*
X125885000Y-137600000D02*
X125885000Y-143600000D01*
X125765000Y-137600000D02*
X125765000Y-143600000D01*
X125645000Y-137600000D02*
X125645000Y-143600000D01*
X125525000Y-137600000D02*
X125525000Y-143600000D01*
X125405000Y-137600000D02*
X125405000Y-143600000D01*
X125345000Y-137600000D02*
X125345000Y-143600000D01*
X124395000Y-137600000D02*
X124395000Y-134940000D01*
X128645000Y-143600000D02*
X128645000Y-137600000D01*
X127885000Y-143600000D02*
X128645000Y-143600000D01*
X126105000Y-143600000D02*
X126105000Y-137600000D01*
X125345000Y-143600000D02*
X126105000Y-143600000D01*
%TO.C,R2*%
X134392936Y-70385000D02*
X134847064Y-70385000D01*
X134392936Y-71855000D02*
X134847064Y-71855000D01*
%TO.C,J38*%
X139440000Y-40010000D02*
X139440000Y-40410000D01*
X139440000Y-42380000D02*
X139440000Y-44360000D01*
X139440000Y-44360000D02*
X139860000Y-44360000D01*
X141440000Y-44590000D02*
X141440000Y-45040000D01*
X141890000Y-45040000D02*
X141440000Y-45040000D01*
X146960000Y-40410000D02*
X146960000Y-40010000D01*
X146960000Y-42380000D02*
X146960000Y-44360000D01*
X146960000Y-44360000D02*
X146540000Y-44360000D01*
%TO.C,J47*%
X83770000Y-68190000D02*
X83770000Y-66920000D01*
X83770000Y-66920000D02*
X82500000Y-66920000D01*
X81457071Y-76190000D02*
X81060000Y-76190000D01*
X81457071Y-75430000D02*
X81060000Y-75430000D01*
X81457071Y-73650000D02*
X81060000Y-73650000D01*
X81457071Y-72890000D02*
X81060000Y-72890000D01*
X81457071Y-71110000D02*
X81060000Y-71110000D01*
X81457071Y-70350000D02*
X81060000Y-70350000D01*
X81390000Y-68570000D02*
X81060000Y-68570000D01*
X81390000Y-67810000D02*
X81060000Y-67810000D01*
X81060000Y-77140000D02*
X78400000Y-77140000D01*
X81060000Y-74540000D02*
X78400000Y-74540000D01*
X81060000Y-72000000D02*
X78400000Y-72000000D01*
X81060000Y-69460000D02*
X78400000Y-69460000D01*
X81060000Y-66860000D02*
X81060000Y-77140000D01*
X78400000Y-77140000D02*
X78400000Y-66860000D01*
X78400000Y-75430000D02*
X72400000Y-75430000D01*
X78400000Y-72890000D02*
X72400000Y-72890000D01*
X78400000Y-70350000D02*
X72400000Y-70350000D01*
X78400000Y-68470000D02*
X72400000Y-68470000D01*
X78400000Y-68350000D02*
X72400000Y-68350000D01*
X78400000Y-68230000D02*
X72400000Y-68230000D01*
X78400000Y-68110000D02*
X72400000Y-68110000D01*
X78400000Y-67990000D02*
X72400000Y-67990000D01*
X78400000Y-67870000D02*
X72400000Y-67870000D01*
X78400000Y-67810000D02*
X72400000Y-67810000D01*
X78400000Y-66860000D02*
X81060000Y-66860000D01*
X72400000Y-76190000D02*
X78400000Y-76190000D01*
X72400000Y-75430000D02*
X72400000Y-76190000D01*
X72400000Y-73650000D02*
X78400000Y-73650000D01*
X72400000Y-72890000D02*
X72400000Y-73650000D01*
X72400000Y-71110000D02*
X78400000Y-71110000D01*
X72400000Y-70350000D02*
X72400000Y-71110000D01*
X72400000Y-68570000D02*
X78400000Y-68570000D01*
X72400000Y-67810000D02*
X72400000Y-68570000D01*
D12*
%TO.C,U1*%
X107875000Y-60705000D02*
X107875000Y-61030000D01*
X107875000Y-60705000D02*
X108200000Y-60705000D01*
X107875000Y-67730000D02*
X106450000Y-67730000D01*
X107875000Y-67955000D02*
X107875000Y-67730000D01*
X107875000Y-67955000D02*
X108200000Y-67955000D01*
X115125000Y-60705000D02*
X114800000Y-60705000D01*
X115125000Y-60705000D02*
X115125000Y-61030000D01*
X115125000Y-67955000D02*
X114800000Y-67955000D01*
X115125000Y-67955000D02*
X115125000Y-67630000D01*
D13*
%TO.C,D3*%
X145500000Y-57080000D02*
X145500000Y-56060000D01*
X144030000Y-56060000D02*
X144030000Y-50620000D01*
X146970000Y-56060000D02*
X144030000Y-56060000D01*
X146970000Y-55280000D02*
X144030000Y-55280000D01*
X146970000Y-55160000D02*
X144030000Y-55160000D01*
X146970000Y-55040000D02*
X144030000Y-55040000D01*
X144030000Y-50620000D02*
X146970000Y-50620000D01*
X146970000Y-50620000D02*
X146970000Y-56060000D01*
X145500000Y-49600000D02*
X145500000Y-50620000D01*
%TO.C,D5*%
X142240000Y-69780000D02*
X142240000Y-68760000D01*
X140770000Y-68760000D02*
X140770000Y-63320000D01*
X143710000Y-68760000D02*
X140770000Y-68760000D01*
X143710000Y-67980000D02*
X140770000Y-67980000D01*
X143710000Y-67860000D02*
X140770000Y-67860000D01*
X143710000Y-67740000D02*
X140770000Y-67740000D01*
X140770000Y-63320000D02*
X143710000Y-63320000D01*
X143710000Y-63320000D02*
X143710000Y-68760000D01*
X142240000Y-62300000D02*
X142240000Y-63320000D01*
%TO.C,D2*%
X147320000Y-69780000D02*
X147320000Y-68760000D01*
X145850000Y-68760000D02*
X145850000Y-63320000D01*
X148790000Y-68760000D02*
X145850000Y-68760000D01*
X148790000Y-67980000D02*
X145850000Y-67980000D01*
X148790000Y-67860000D02*
X145850000Y-67860000D01*
X148790000Y-67740000D02*
X145850000Y-67740000D01*
X145850000Y-63320000D02*
X148790000Y-63320000D01*
X148790000Y-63320000D02*
X148790000Y-68760000D01*
X147320000Y-62300000D02*
X147320000Y-63320000D01*
D14*
%TO.C,U2*%
X117800000Y-57300000D02*
X110200000Y-57300000D01*
X117800000Y-44300000D02*
X110200000Y-44300000D01*
D15*
X120800000Y-44485000D02*
G75*
G03*
X120800000Y-44485000I-100000J0D01*
G01*
D13*
%TO.C,J50*%
X83770000Y-116190000D02*
X83770000Y-114920000D01*
X83770000Y-114920000D02*
X82500000Y-114920000D01*
X81457071Y-124190000D02*
X81060000Y-124190000D01*
X81457071Y-123430000D02*
X81060000Y-123430000D01*
X81457071Y-121650000D02*
X81060000Y-121650000D01*
X81457071Y-120890000D02*
X81060000Y-120890000D01*
X81457071Y-119110000D02*
X81060000Y-119110000D01*
X81457071Y-118350000D02*
X81060000Y-118350000D01*
X81390000Y-116570000D02*
X81060000Y-116570000D01*
X81390000Y-115810000D02*
X81060000Y-115810000D01*
X81060000Y-125140000D02*
X78400000Y-125140000D01*
X81060000Y-122540000D02*
X78400000Y-122540000D01*
X81060000Y-120000000D02*
X78400000Y-120000000D01*
X81060000Y-117460000D02*
X78400000Y-117460000D01*
X81060000Y-114860000D02*
X81060000Y-125140000D01*
X78400000Y-125140000D02*
X78400000Y-114860000D01*
X78400000Y-123430000D02*
X72400000Y-123430000D01*
X78400000Y-120890000D02*
X72400000Y-120890000D01*
X78400000Y-118350000D02*
X72400000Y-118350000D01*
X78400000Y-116470000D02*
X72400000Y-116470000D01*
X78400000Y-116350000D02*
X72400000Y-116350000D01*
X78400000Y-116230000D02*
X72400000Y-116230000D01*
X78400000Y-116110000D02*
X72400000Y-116110000D01*
X78400000Y-115990000D02*
X72400000Y-115990000D01*
X78400000Y-115870000D02*
X72400000Y-115870000D01*
X78400000Y-115810000D02*
X72400000Y-115810000D01*
X78400000Y-114860000D02*
X81060000Y-114860000D01*
X72400000Y-124190000D02*
X78400000Y-124190000D01*
X72400000Y-123430000D02*
X72400000Y-124190000D01*
X72400000Y-121650000D02*
X78400000Y-121650000D01*
X72400000Y-120890000D02*
X72400000Y-121650000D01*
X72400000Y-119110000D02*
X78400000Y-119110000D01*
X72400000Y-118350000D02*
X72400000Y-119110000D01*
X72400000Y-116570000D02*
X78400000Y-116570000D01*
X72400000Y-115810000D02*
X72400000Y-116570000D01*
%TO.C,J58*%
X83770000Y-86725000D02*
X83770000Y-85455000D01*
X83770000Y-85455000D02*
X82500000Y-85455000D01*
X81457071Y-89645000D02*
X81060000Y-89645000D01*
X81457071Y-88885000D02*
X81060000Y-88885000D01*
X81390000Y-87105000D02*
X81060000Y-87105000D01*
X81390000Y-86345000D02*
X81060000Y-86345000D01*
X81060000Y-90595000D02*
X78400000Y-90595000D01*
X81060000Y-87995000D02*
X78400000Y-87995000D01*
X81060000Y-85395000D02*
X81060000Y-90595000D01*
X78400000Y-90595000D02*
X78400000Y-85395000D01*
X78400000Y-88885000D02*
X72400000Y-88885000D01*
X78400000Y-87005000D02*
X72400000Y-87005000D01*
X78400000Y-86885000D02*
X72400000Y-86885000D01*
X78400000Y-86765000D02*
X72400000Y-86765000D01*
X78400000Y-86645000D02*
X72400000Y-86645000D01*
X78400000Y-86525000D02*
X72400000Y-86525000D01*
X78400000Y-86405000D02*
X72400000Y-86405000D01*
X78400000Y-86345000D02*
X72400000Y-86345000D01*
X78400000Y-85395000D02*
X81060000Y-85395000D01*
X72400000Y-89645000D02*
X78400000Y-89645000D01*
X72400000Y-88885000D02*
X72400000Y-89645000D01*
X72400000Y-87105000D02*
X78400000Y-87105000D01*
X72400000Y-86345000D02*
X72400000Y-87105000D01*
%TO.C,R1*%
X127227064Y-64235000D02*
X126772936Y-64235000D01*
X127227064Y-62765000D02*
X126772936Y-62765000D01*
%TO.C,J60*%
X158230000Y-62237500D02*
X158730000Y-61737500D01*
X159230000Y-62237500D02*
X158230000Y-62237500D01*
X158730000Y-61737500D02*
X159230000Y-62237500D01*
X151320000Y-61517500D02*
X151320000Y-57257500D01*
X163640000Y-61517500D02*
X151320000Y-61517500D01*
X163640000Y-57257500D02*
X163640000Y-61517500D01*
X163640000Y-53157500D02*
X163640000Y-44797500D01*
X151320000Y-44797500D02*
X151320000Y-53157500D01*
X163640000Y-44797500D02*
X151320000Y-44797500D01*
%TO.C,R3*%
X134847064Y-74395000D02*
X134392936Y-74395000D01*
X134847064Y-72925000D02*
X134392936Y-72925000D01*
%TO.C,J56*%
X108190000Y-132230000D02*
X106920000Y-132230000D01*
X106920000Y-132230000D02*
X106920000Y-133500000D01*
X116190000Y-134542929D02*
X116190000Y-134940000D01*
X115430000Y-134542929D02*
X115430000Y-134940000D01*
X113650000Y-134542929D02*
X113650000Y-134940000D01*
X112890000Y-134542929D02*
X112890000Y-134940000D01*
X111110000Y-134542929D02*
X111110000Y-134940000D01*
X110350000Y-134542929D02*
X110350000Y-134940000D01*
X108570000Y-134610000D02*
X108570000Y-134940000D01*
X107810000Y-134610000D02*
X107810000Y-134940000D01*
X117140000Y-134940000D02*
X117140000Y-137600000D01*
X114540000Y-134940000D02*
X114540000Y-137600000D01*
X112000000Y-134940000D02*
X112000000Y-137600000D01*
X109460000Y-134940000D02*
X109460000Y-137600000D01*
X106860000Y-134940000D02*
X117140000Y-134940000D01*
X117140000Y-137600000D02*
X106860000Y-137600000D01*
X115430000Y-137600000D02*
X115430000Y-143600000D01*
X112890000Y-137600000D02*
X112890000Y-143600000D01*
X110350000Y-137600000D02*
X110350000Y-143600000D01*
X108470000Y-137600000D02*
X108470000Y-143600000D01*
X108350000Y-137600000D02*
X108350000Y-143600000D01*
X108230000Y-137600000D02*
X108230000Y-143600000D01*
X108110000Y-137600000D02*
X108110000Y-143600000D01*
X107990000Y-137600000D02*
X107990000Y-143600000D01*
X107870000Y-137600000D02*
X107870000Y-143600000D01*
X107810000Y-137600000D02*
X107810000Y-143600000D01*
X106860000Y-137600000D02*
X106860000Y-134940000D01*
X116190000Y-143600000D02*
X116190000Y-137600000D01*
X115430000Y-143600000D02*
X116190000Y-143600000D01*
X113650000Y-143600000D02*
X113650000Y-137600000D01*
X112890000Y-143600000D02*
X113650000Y-143600000D01*
X111110000Y-143600000D02*
X111110000Y-137600000D01*
X110350000Y-143600000D02*
X111110000Y-143600000D01*
X108570000Y-143600000D02*
X108570000Y-137600000D01*
X107810000Y-143600000D02*
X108570000Y-143600000D01*
%TD*%
M02*
