%TF.GenerationSoftware,KiCad,Pcbnew,7.0.9*%
%TF.CreationDate,2024-03-13T01:01:39-05:00*%
%TF.ProjectId,BOARD,424f4152-442e-46b6-9963-61645f706362,rev?*%
%TF.SameCoordinates,Original*%
%TF.FileFunction,Legend,Top*%
%TF.FilePolarity,Positive*%
%FSLAX46Y46*%
G04 Gerber Fmt 4.6, Leading zero omitted, Abs format (unit mm)*
G04 Created by KiCad (PCBNEW 7.0.9) date 2024-03-13 01:01:39*
%MOMM*%
%LPD*%
G01*
G04 APERTURE LIST*
%ADD10C,0.150000*%
%ADD11C,0.100000*%
%ADD12C,0.254000*%
%ADD13C,0.120000*%
%ADD14C,0.127000*%
%ADD15C,0.200000*%
%ADD16C,0.152400*%
G04 APERTURE END LIST*
D10*
X174190476Y-124684819D02*
X174190476Y-125399104D01*
X174190476Y-125399104D02*
X174142857Y-125541961D01*
X174142857Y-125541961D02*
X174047619Y-125637200D01*
X174047619Y-125637200D02*
X173904762Y-125684819D01*
X173904762Y-125684819D02*
X173809524Y-125684819D01*
X175142857Y-124684819D02*
X174666667Y-124684819D01*
X174666667Y-124684819D02*
X174619048Y-125161009D01*
X174619048Y-125161009D02*
X174666667Y-125113390D01*
X174666667Y-125113390D02*
X174761905Y-125065771D01*
X174761905Y-125065771D02*
X175000000Y-125065771D01*
X175000000Y-125065771D02*
X175095238Y-125113390D01*
X175095238Y-125113390D02*
X175142857Y-125161009D01*
X175142857Y-125161009D02*
X175190476Y-125256247D01*
X175190476Y-125256247D02*
X175190476Y-125494342D01*
X175190476Y-125494342D02*
X175142857Y-125589580D01*
X175142857Y-125589580D02*
X175095238Y-125637200D01*
X175095238Y-125637200D02*
X175000000Y-125684819D01*
X175000000Y-125684819D02*
X174761905Y-125684819D01*
X174761905Y-125684819D02*
X174666667Y-125637200D01*
X174666667Y-125637200D02*
X174619048Y-125589580D01*
X175523810Y-124684819D02*
X176190476Y-124684819D01*
X176190476Y-124684819D02*
X175761905Y-125684819D01*
X93504819Y-77666666D02*
X93028628Y-77999999D01*
X93504819Y-78238094D02*
X92504819Y-78238094D01*
X92504819Y-78238094D02*
X92504819Y-77857142D01*
X92504819Y-77857142D02*
X92552438Y-77761904D01*
X92552438Y-77761904D02*
X92600057Y-77714285D01*
X92600057Y-77714285D02*
X92695295Y-77666666D01*
X92695295Y-77666666D02*
X92838152Y-77666666D01*
X92838152Y-77666666D02*
X92933390Y-77714285D01*
X92933390Y-77714285D02*
X92981009Y-77761904D01*
X92981009Y-77761904D02*
X93028628Y-77857142D01*
X93028628Y-77857142D02*
X93028628Y-78238094D01*
X92504819Y-76809523D02*
X92504819Y-76999999D01*
X92504819Y-76999999D02*
X92552438Y-77095237D01*
X92552438Y-77095237D02*
X92600057Y-77142856D01*
X92600057Y-77142856D02*
X92742914Y-77238094D01*
X92742914Y-77238094D02*
X92933390Y-77285713D01*
X92933390Y-77285713D02*
X93314342Y-77285713D01*
X93314342Y-77285713D02*
X93409580Y-77238094D01*
X93409580Y-77238094D02*
X93457200Y-77190475D01*
X93457200Y-77190475D02*
X93504819Y-77095237D01*
X93504819Y-77095237D02*
X93504819Y-76904761D01*
X93504819Y-76904761D02*
X93457200Y-76809523D01*
X93457200Y-76809523D02*
X93409580Y-76761904D01*
X93409580Y-76761904D02*
X93314342Y-76714285D01*
X93314342Y-76714285D02*
X93076247Y-76714285D01*
X93076247Y-76714285D02*
X92981009Y-76761904D01*
X92981009Y-76761904D02*
X92933390Y-76809523D01*
X92933390Y-76809523D02*
X92885771Y-76904761D01*
X92885771Y-76904761D02*
X92885771Y-77095237D01*
X92885771Y-77095237D02*
X92933390Y-77190475D01*
X92933390Y-77190475D02*
X92981009Y-77238094D01*
X92981009Y-77238094D02*
X93076247Y-77285713D01*
D11*
X87666666Y-78957419D02*
X87666666Y-79671704D01*
X87666666Y-79671704D02*
X87619047Y-79814561D01*
X87619047Y-79814561D02*
X87523809Y-79909800D01*
X87523809Y-79909800D02*
X87380952Y-79957419D01*
X87380952Y-79957419D02*
X87285714Y-79957419D01*
X88047619Y-78957419D02*
X88666666Y-78957419D01*
X88666666Y-78957419D02*
X88333333Y-79338371D01*
X88333333Y-79338371D02*
X88476190Y-79338371D01*
X88476190Y-79338371D02*
X88571428Y-79385990D01*
X88571428Y-79385990D02*
X88619047Y-79433609D01*
X88619047Y-79433609D02*
X88666666Y-79528847D01*
X88666666Y-79528847D02*
X88666666Y-79766942D01*
X88666666Y-79766942D02*
X88619047Y-79862180D01*
X88619047Y-79862180D02*
X88571428Y-79909800D01*
X88571428Y-79909800D02*
X88476190Y-79957419D01*
X88476190Y-79957419D02*
X88190476Y-79957419D01*
X88190476Y-79957419D02*
X88095238Y-79909800D01*
X88095238Y-79909800D02*
X88047619Y-79862180D01*
X167190476Y-78957419D02*
X167190476Y-79671704D01*
X167190476Y-79671704D02*
X167142857Y-79814561D01*
X167142857Y-79814561D02*
X167047619Y-79909800D01*
X167047619Y-79909800D02*
X166904762Y-79957419D01*
X166904762Y-79957419D02*
X166809524Y-79957419D01*
X167571429Y-78957419D02*
X168190476Y-78957419D01*
X168190476Y-78957419D02*
X167857143Y-79338371D01*
X167857143Y-79338371D02*
X168000000Y-79338371D01*
X168000000Y-79338371D02*
X168095238Y-79385990D01*
X168095238Y-79385990D02*
X168142857Y-79433609D01*
X168142857Y-79433609D02*
X168190476Y-79528847D01*
X168190476Y-79528847D02*
X168190476Y-79766942D01*
X168190476Y-79766942D02*
X168142857Y-79862180D01*
X168142857Y-79862180D02*
X168095238Y-79909800D01*
X168095238Y-79909800D02*
X168000000Y-79957419D01*
X168000000Y-79957419D02*
X167714286Y-79957419D01*
X167714286Y-79957419D02*
X167619048Y-79909800D01*
X167619048Y-79909800D02*
X167571429Y-79862180D01*
X168523810Y-78957419D02*
X169142857Y-78957419D01*
X169142857Y-78957419D02*
X168809524Y-79338371D01*
X168809524Y-79338371D02*
X168952381Y-79338371D01*
X168952381Y-79338371D02*
X169047619Y-79385990D01*
X169047619Y-79385990D02*
X169095238Y-79433609D01*
X169095238Y-79433609D02*
X169142857Y-79528847D01*
X169142857Y-79528847D02*
X169142857Y-79766942D01*
X169142857Y-79766942D02*
X169095238Y-79862180D01*
X169095238Y-79862180D02*
X169047619Y-79909800D01*
X169047619Y-79909800D02*
X168952381Y-79957419D01*
X168952381Y-79957419D02*
X168666667Y-79957419D01*
X168666667Y-79957419D02*
X168571429Y-79909800D01*
X168571429Y-79909800D02*
X168523810Y-79862180D01*
X119190476Y-46957419D02*
X119190476Y-47671704D01*
X119190476Y-47671704D02*
X119142857Y-47814561D01*
X119142857Y-47814561D02*
X119047619Y-47909800D01*
X119047619Y-47909800D02*
X118904762Y-47957419D01*
X118904762Y-47957419D02*
X118809524Y-47957419D01*
X120190476Y-47957419D02*
X119619048Y-47957419D01*
X119904762Y-47957419D02*
X119904762Y-46957419D01*
X119904762Y-46957419D02*
X119809524Y-47100276D01*
X119809524Y-47100276D02*
X119714286Y-47195514D01*
X119714286Y-47195514D02*
X119619048Y-47243133D01*
X120523810Y-46957419D02*
X121142857Y-46957419D01*
X121142857Y-46957419D02*
X120809524Y-47338371D01*
X120809524Y-47338371D02*
X120952381Y-47338371D01*
X120952381Y-47338371D02*
X121047619Y-47385990D01*
X121047619Y-47385990D02*
X121095238Y-47433609D01*
X121095238Y-47433609D02*
X121142857Y-47528847D01*
X121142857Y-47528847D02*
X121142857Y-47766942D01*
X121142857Y-47766942D02*
X121095238Y-47862180D01*
X121095238Y-47862180D02*
X121047619Y-47909800D01*
X121047619Y-47909800D02*
X120952381Y-47957419D01*
X120952381Y-47957419D02*
X120666667Y-47957419D01*
X120666667Y-47957419D02*
X120571429Y-47909800D01*
X120571429Y-47909800D02*
X120523810Y-47862180D01*
X151190476Y-110957419D02*
X151190476Y-111671704D01*
X151190476Y-111671704D02*
X151142857Y-111814561D01*
X151142857Y-111814561D02*
X151047619Y-111909800D01*
X151047619Y-111909800D02*
X150904762Y-111957419D01*
X150904762Y-111957419D02*
X150809524Y-111957419D01*
X151619048Y-111052657D02*
X151666667Y-111005038D01*
X151666667Y-111005038D02*
X151761905Y-110957419D01*
X151761905Y-110957419D02*
X152000000Y-110957419D01*
X152000000Y-110957419D02*
X152095238Y-111005038D01*
X152095238Y-111005038D02*
X152142857Y-111052657D01*
X152142857Y-111052657D02*
X152190476Y-111147895D01*
X152190476Y-111147895D02*
X152190476Y-111243133D01*
X152190476Y-111243133D02*
X152142857Y-111385990D01*
X152142857Y-111385990D02*
X151571429Y-111957419D01*
X151571429Y-111957419D02*
X152190476Y-111957419D01*
X152666667Y-111957419D02*
X152857143Y-111957419D01*
X152857143Y-111957419D02*
X152952381Y-111909800D01*
X152952381Y-111909800D02*
X153000000Y-111862180D01*
X153000000Y-111862180D02*
X153095238Y-111719323D01*
X153095238Y-111719323D02*
X153142857Y-111528847D01*
X153142857Y-111528847D02*
X153142857Y-111147895D01*
X153142857Y-111147895D02*
X153095238Y-111052657D01*
X153095238Y-111052657D02*
X153047619Y-111005038D01*
X153047619Y-111005038D02*
X152952381Y-110957419D01*
X152952381Y-110957419D02*
X152761905Y-110957419D01*
X152761905Y-110957419D02*
X152666667Y-111005038D01*
X152666667Y-111005038D02*
X152619048Y-111052657D01*
X152619048Y-111052657D02*
X152571429Y-111147895D01*
X152571429Y-111147895D02*
X152571429Y-111385990D01*
X152571429Y-111385990D02*
X152619048Y-111481228D01*
X152619048Y-111481228D02*
X152666667Y-111528847D01*
X152666667Y-111528847D02*
X152761905Y-111576466D01*
X152761905Y-111576466D02*
X152952381Y-111576466D01*
X152952381Y-111576466D02*
X153047619Y-111528847D01*
X153047619Y-111528847D02*
X153095238Y-111481228D01*
X153095238Y-111481228D02*
X153142857Y-111385990D01*
D10*
X86522261Y-53942557D02*
X86427023Y-53894938D01*
X86427023Y-53894938D02*
X86331785Y-53799700D01*
X86331785Y-53799700D02*
X86188928Y-53656842D01*
X86188928Y-53656842D02*
X86093690Y-53609223D01*
X86093690Y-53609223D02*
X85998452Y-53609223D01*
X86046071Y-53847319D02*
X85950833Y-53799700D01*
X85950833Y-53799700D02*
X85855595Y-53704461D01*
X85855595Y-53704461D02*
X85807976Y-53513985D01*
X85807976Y-53513985D02*
X85807976Y-53180652D01*
X85807976Y-53180652D02*
X85855595Y-52990176D01*
X85855595Y-52990176D02*
X85950833Y-52894938D01*
X85950833Y-52894938D02*
X86046071Y-52847319D01*
X86046071Y-52847319D02*
X86236547Y-52847319D01*
X86236547Y-52847319D02*
X86331785Y-52894938D01*
X86331785Y-52894938D02*
X86427023Y-52990176D01*
X86427023Y-52990176D02*
X86474642Y-53180652D01*
X86474642Y-53180652D02*
X86474642Y-53513985D01*
X86474642Y-53513985D02*
X86427023Y-53704461D01*
X86427023Y-53704461D02*
X86331785Y-53799700D01*
X86331785Y-53799700D02*
X86236547Y-53847319D01*
X86236547Y-53847319D02*
X86046071Y-53847319D01*
X87427023Y-53847319D02*
X86855595Y-53847319D01*
X87141309Y-53847319D02*
X87141309Y-52847319D01*
X87141309Y-52847319D02*
X87046071Y-52990176D01*
X87046071Y-52990176D02*
X86950833Y-53085414D01*
X86950833Y-53085414D02*
X86855595Y-53133033D01*
D11*
X151190476Y-78957419D02*
X151190476Y-79671704D01*
X151190476Y-79671704D02*
X151142857Y-79814561D01*
X151142857Y-79814561D02*
X151047619Y-79909800D01*
X151047619Y-79909800D02*
X150904762Y-79957419D01*
X150904762Y-79957419D02*
X150809524Y-79957419D01*
X151619048Y-79052657D02*
X151666667Y-79005038D01*
X151666667Y-79005038D02*
X151761905Y-78957419D01*
X151761905Y-78957419D02*
X152000000Y-78957419D01*
X152000000Y-78957419D02*
X152095238Y-79005038D01*
X152095238Y-79005038D02*
X152142857Y-79052657D01*
X152142857Y-79052657D02*
X152190476Y-79147895D01*
X152190476Y-79147895D02*
X152190476Y-79243133D01*
X152190476Y-79243133D02*
X152142857Y-79385990D01*
X152142857Y-79385990D02*
X151571429Y-79957419D01*
X151571429Y-79957419D02*
X152190476Y-79957419D01*
X152523810Y-78957419D02*
X153190476Y-78957419D01*
X153190476Y-78957419D02*
X152761905Y-79957419D01*
X87666666Y-62957419D02*
X87666666Y-63671704D01*
X87666666Y-63671704D02*
X87619047Y-63814561D01*
X87619047Y-63814561D02*
X87523809Y-63909800D01*
X87523809Y-63909800D02*
X87380952Y-63957419D01*
X87380952Y-63957419D02*
X87285714Y-63957419D01*
X88095238Y-63052657D02*
X88142857Y-63005038D01*
X88142857Y-63005038D02*
X88238095Y-62957419D01*
X88238095Y-62957419D02*
X88476190Y-62957419D01*
X88476190Y-62957419D02*
X88571428Y-63005038D01*
X88571428Y-63005038D02*
X88619047Y-63052657D01*
X88619047Y-63052657D02*
X88666666Y-63147895D01*
X88666666Y-63147895D02*
X88666666Y-63243133D01*
X88666666Y-63243133D02*
X88619047Y-63385990D01*
X88619047Y-63385990D02*
X88047619Y-63957419D01*
X88047619Y-63957419D02*
X88666666Y-63957419D01*
D10*
X174190476Y-44684819D02*
X174190476Y-45399104D01*
X174190476Y-45399104D02*
X174142857Y-45541961D01*
X174142857Y-45541961D02*
X174047619Y-45637200D01*
X174047619Y-45637200D02*
X173904762Y-45684819D01*
X173904762Y-45684819D02*
X173809524Y-45684819D01*
X175095238Y-45018152D02*
X175095238Y-45684819D01*
X174857143Y-44637200D02*
X174619048Y-45351485D01*
X174619048Y-45351485D02*
X175238095Y-45351485D01*
X176047619Y-44684819D02*
X175857143Y-44684819D01*
X175857143Y-44684819D02*
X175761905Y-44732438D01*
X175761905Y-44732438D02*
X175714286Y-44780057D01*
X175714286Y-44780057D02*
X175619048Y-44922914D01*
X175619048Y-44922914D02*
X175571429Y-45113390D01*
X175571429Y-45113390D02*
X175571429Y-45494342D01*
X175571429Y-45494342D02*
X175619048Y-45589580D01*
X175619048Y-45589580D02*
X175666667Y-45637200D01*
X175666667Y-45637200D02*
X175761905Y-45684819D01*
X175761905Y-45684819D02*
X175952381Y-45684819D01*
X175952381Y-45684819D02*
X176047619Y-45637200D01*
X176047619Y-45637200D02*
X176095238Y-45589580D01*
X176095238Y-45589580D02*
X176142857Y-45494342D01*
X176142857Y-45494342D02*
X176142857Y-45256247D01*
X176142857Y-45256247D02*
X176095238Y-45161009D01*
X176095238Y-45161009D02*
X176047619Y-45113390D01*
X176047619Y-45113390D02*
X175952381Y-45065771D01*
X175952381Y-45065771D02*
X175761905Y-45065771D01*
X175761905Y-45065771D02*
X175666667Y-45113390D01*
X175666667Y-45113390D02*
X175619048Y-45161009D01*
X175619048Y-45161009D02*
X175571429Y-45256247D01*
X172545180Y-62404761D02*
X172545180Y-61928571D01*
X172545180Y-61928571D02*
X173545180Y-61928571D01*
X173068990Y-62738095D02*
X173068990Y-63071428D01*
X172545180Y-63214285D02*
X172545180Y-62738095D01*
X172545180Y-62738095D02*
X173545180Y-62738095D01*
X173545180Y-62738095D02*
X173545180Y-63214285D01*
X172545180Y-63642857D02*
X173545180Y-63642857D01*
X173545180Y-63642857D02*
X173545180Y-63880952D01*
X173545180Y-63880952D02*
X173497561Y-64023809D01*
X173497561Y-64023809D02*
X173402323Y-64119047D01*
X173402323Y-64119047D02*
X173307085Y-64166666D01*
X173307085Y-64166666D02*
X173116609Y-64214285D01*
X173116609Y-64214285D02*
X172973752Y-64214285D01*
X172973752Y-64214285D02*
X172783276Y-64166666D01*
X172783276Y-64166666D02*
X172688038Y-64119047D01*
X172688038Y-64119047D02*
X172592800Y-64023809D01*
X172592800Y-64023809D02*
X172545180Y-63880952D01*
X172545180Y-63880952D02*
X172545180Y-63642857D01*
X172545180Y-65166666D02*
X172545180Y-64595238D01*
X172545180Y-64880952D02*
X173545180Y-64880952D01*
X173545180Y-64880952D02*
X173402323Y-64785714D01*
X173402323Y-64785714D02*
X173307085Y-64690476D01*
X173307085Y-64690476D02*
X173259466Y-64595238D01*
X173545180Y-65785714D02*
X173545180Y-65880952D01*
X173545180Y-65880952D02*
X173497561Y-65976190D01*
X173497561Y-65976190D02*
X173449942Y-66023809D01*
X173449942Y-66023809D02*
X173354704Y-66071428D01*
X173354704Y-66071428D02*
X173164228Y-66119047D01*
X173164228Y-66119047D02*
X172926133Y-66119047D01*
X172926133Y-66119047D02*
X172735657Y-66071428D01*
X172735657Y-66071428D02*
X172640419Y-66023809D01*
X172640419Y-66023809D02*
X172592800Y-65976190D01*
X172592800Y-65976190D02*
X172545180Y-65880952D01*
X172545180Y-65880952D02*
X172545180Y-65785714D01*
X172545180Y-65785714D02*
X172592800Y-65690476D01*
X172592800Y-65690476D02*
X172640419Y-65642857D01*
X172640419Y-65642857D02*
X172735657Y-65595238D01*
X172735657Y-65595238D02*
X172926133Y-65547619D01*
X172926133Y-65547619D02*
X173164228Y-65547619D01*
X173164228Y-65547619D02*
X173354704Y-65595238D01*
X173354704Y-65595238D02*
X173449942Y-65642857D01*
X173449942Y-65642857D02*
X173497561Y-65690476D01*
X173497561Y-65690476D02*
X173545180Y-65785714D01*
X97190476Y-125124819D02*
X97190476Y-125839104D01*
X97190476Y-125839104D02*
X97142857Y-125981961D01*
X97142857Y-125981961D02*
X97047619Y-126077200D01*
X97047619Y-126077200D02*
X96904762Y-126124819D01*
X96904762Y-126124819D02*
X96809524Y-126124819D01*
X98095238Y-125458152D02*
X98095238Y-126124819D01*
X97857143Y-125077200D02*
X97619048Y-125791485D01*
X97619048Y-125791485D02*
X98238095Y-125791485D01*
X98523810Y-125124819D02*
X99142857Y-125124819D01*
X99142857Y-125124819D02*
X98809524Y-125505771D01*
X98809524Y-125505771D02*
X98952381Y-125505771D01*
X98952381Y-125505771D02*
X99047619Y-125553390D01*
X99047619Y-125553390D02*
X99095238Y-125601009D01*
X99095238Y-125601009D02*
X99142857Y-125696247D01*
X99142857Y-125696247D02*
X99142857Y-125934342D01*
X99142857Y-125934342D02*
X99095238Y-126029580D01*
X99095238Y-126029580D02*
X99047619Y-126077200D01*
X99047619Y-126077200D02*
X98952381Y-126124819D01*
X98952381Y-126124819D02*
X98666667Y-126124819D01*
X98666667Y-126124819D02*
X98571429Y-126077200D01*
X98571429Y-126077200D02*
X98523810Y-126029580D01*
X97190476Y-77124819D02*
X97190476Y-77839104D01*
X97190476Y-77839104D02*
X97142857Y-77981961D01*
X97142857Y-77981961D02*
X97047619Y-78077200D01*
X97047619Y-78077200D02*
X96904762Y-78124819D01*
X96904762Y-78124819D02*
X96809524Y-78124819D01*
X98095238Y-77458152D02*
X98095238Y-78124819D01*
X97857143Y-77077200D02*
X97619048Y-77791485D01*
X97619048Y-77791485D02*
X98238095Y-77791485D01*
X98809524Y-77124819D02*
X98904762Y-77124819D01*
X98904762Y-77124819D02*
X99000000Y-77172438D01*
X99000000Y-77172438D02*
X99047619Y-77220057D01*
X99047619Y-77220057D02*
X99095238Y-77315295D01*
X99095238Y-77315295D02*
X99142857Y-77505771D01*
X99142857Y-77505771D02*
X99142857Y-77743866D01*
X99142857Y-77743866D02*
X99095238Y-77934342D01*
X99095238Y-77934342D02*
X99047619Y-78029580D01*
X99047619Y-78029580D02*
X99000000Y-78077200D01*
X99000000Y-78077200D02*
X98904762Y-78124819D01*
X98904762Y-78124819D02*
X98809524Y-78124819D01*
X98809524Y-78124819D02*
X98714286Y-78077200D01*
X98714286Y-78077200D02*
X98666667Y-78029580D01*
X98666667Y-78029580D02*
X98619048Y-77934342D01*
X98619048Y-77934342D02*
X98571429Y-77743866D01*
X98571429Y-77743866D02*
X98571429Y-77505771D01*
X98571429Y-77505771D02*
X98619048Y-77315295D01*
X98619048Y-77315295D02*
X98666667Y-77220057D01*
X98666667Y-77220057D02*
X98714286Y-77172438D01*
X98714286Y-77172438D02*
X98809524Y-77124819D01*
D11*
X167190476Y-110957419D02*
X167190476Y-111671704D01*
X167190476Y-111671704D02*
X167142857Y-111814561D01*
X167142857Y-111814561D02*
X167047619Y-111909800D01*
X167047619Y-111909800D02*
X166904762Y-111957419D01*
X166904762Y-111957419D02*
X166809524Y-111957419D01*
X167571429Y-110957419D02*
X168190476Y-110957419D01*
X168190476Y-110957419D02*
X167857143Y-111338371D01*
X167857143Y-111338371D02*
X168000000Y-111338371D01*
X168000000Y-111338371D02*
X168095238Y-111385990D01*
X168095238Y-111385990D02*
X168142857Y-111433609D01*
X168142857Y-111433609D02*
X168190476Y-111528847D01*
X168190476Y-111528847D02*
X168190476Y-111766942D01*
X168190476Y-111766942D02*
X168142857Y-111862180D01*
X168142857Y-111862180D02*
X168095238Y-111909800D01*
X168095238Y-111909800D02*
X168000000Y-111957419D01*
X168000000Y-111957419D02*
X167714286Y-111957419D01*
X167714286Y-111957419D02*
X167619048Y-111909800D01*
X167619048Y-111909800D02*
X167571429Y-111862180D01*
X169095238Y-110957419D02*
X168619048Y-110957419D01*
X168619048Y-110957419D02*
X168571429Y-111433609D01*
X168571429Y-111433609D02*
X168619048Y-111385990D01*
X168619048Y-111385990D02*
X168714286Y-111338371D01*
X168714286Y-111338371D02*
X168952381Y-111338371D01*
X168952381Y-111338371D02*
X169047619Y-111385990D01*
X169047619Y-111385990D02*
X169095238Y-111433609D01*
X169095238Y-111433609D02*
X169142857Y-111528847D01*
X169142857Y-111528847D02*
X169142857Y-111766942D01*
X169142857Y-111766942D02*
X169095238Y-111862180D01*
X169095238Y-111862180D02*
X169047619Y-111909800D01*
X169047619Y-111909800D02*
X168952381Y-111957419D01*
X168952381Y-111957419D02*
X168714286Y-111957419D01*
X168714286Y-111957419D02*
X168619048Y-111909800D01*
X168619048Y-111909800D02*
X168571429Y-111862180D01*
D10*
X96033333Y-59304819D02*
X95700000Y-58828628D01*
X95461905Y-59304819D02*
X95461905Y-58304819D01*
X95461905Y-58304819D02*
X95842857Y-58304819D01*
X95842857Y-58304819D02*
X95938095Y-58352438D01*
X95938095Y-58352438D02*
X95985714Y-58400057D01*
X95985714Y-58400057D02*
X96033333Y-58495295D01*
X96033333Y-58495295D02*
X96033333Y-58638152D01*
X96033333Y-58638152D02*
X95985714Y-58733390D01*
X95985714Y-58733390D02*
X95938095Y-58781009D01*
X95938095Y-58781009D02*
X95842857Y-58828628D01*
X95842857Y-58828628D02*
X95461905Y-58828628D01*
X96938095Y-58304819D02*
X96461905Y-58304819D01*
X96461905Y-58304819D02*
X96414286Y-58781009D01*
X96414286Y-58781009D02*
X96461905Y-58733390D01*
X96461905Y-58733390D02*
X96557143Y-58685771D01*
X96557143Y-58685771D02*
X96795238Y-58685771D01*
X96795238Y-58685771D02*
X96890476Y-58733390D01*
X96890476Y-58733390D02*
X96938095Y-58781009D01*
X96938095Y-58781009D02*
X96985714Y-58876247D01*
X96985714Y-58876247D02*
X96985714Y-59114342D01*
X96985714Y-59114342D02*
X96938095Y-59209580D01*
X96938095Y-59209580D02*
X96890476Y-59257200D01*
X96890476Y-59257200D02*
X96795238Y-59304819D01*
X96795238Y-59304819D02*
X96557143Y-59304819D01*
X96557143Y-59304819D02*
X96461905Y-59257200D01*
X96461905Y-59257200D02*
X96414286Y-59209580D01*
X89763095Y-92642200D02*
X89905952Y-92689819D01*
X89905952Y-92689819D02*
X90144047Y-92689819D01*
X90144047Y-92689819D02*
X90239285Y-92642200D01*
X90239285Y-92642200D02*
X90286904Y-92594580D01*
X90286904Y-92594580D02*
X90334523Y-92499342D01*
X90334523Y-92499342D02*
X90334523Y-92404104D01*
X90334523Y-92404104D02*
X90286904Y-92308866D01*
X90286904Y-92308866D02*
X90239285Y-92261247D01*
X90239285Y-92261247D02*
X90144047Y-92213628D01*
X90144047Y-92213628D02*
X89953571Y-92166009D01*
X89953571Y-92166009D02*
X89858333Y-92118390D01*
X89858333Y-92118390D02*
X89810714Y-92070771D01*
X89810714Y-92070771D02*
X89763095Y-91975533D01*
X89763095Y-91975533D02*
X89763095Y-91880295D01*
X89763095Y-91880295D02*
X89810714Y-91785057D01*
X89810714Y-91785057D02*
X89858333Y-91737438D01*
X89858333Y-91737438D02*
X89953571Y-91689819D01*
X89953571Y-91689819D02*
X90191666Y-91689819D01*
X90191666Y-91689819D02*
X90334523Y-91737438D01*
X90715476Y-91785057D02*
X90763095Y-91737438D01*
X90763095Y-91737438D02*
X90858333Y-91689819D01*
X90858333Y-91689819D02*
X91096428Y-91689819D01*
X91096428Y-91689819D02*
X91191666Y-91737438D01*
X91191666Y-91737438D02*
X91239285Y-91785057D01*
X91239285Y-91785057D02*
X91286904Y-91880295D01*
X91286904Y-91880295D02*
X91286904Y-91975533D01*
X91286904Y-91975533D02*
X91239285Y-92118390D01*
X91239285Y-92118390D02*
X90667857Y-92689819D01*
X90667857Y-92689819D02*
X91286904Y-92689819D01*
X174190476Y-108684819D02*
X174190476Y-109399104D01*
X174190476Y-109399104D02*
X174142857Y-109541961D01*
X174142857Y-109541961D02*
X174047619Y-109637200D01*
X174047619Y-109637200D02*
X173904762Y-109684819D01*
X173904762Y-109684819D02*
X173809524Y-109684819D01*
X175142857Y-108684819D02*
X174666667Y-108684819D01*
X174666667Y-108684819D02*
X174619048Y-109161009D01*
X174619048Y-109161009D02*
X174666667Y-109113390D01*
X174666667Y-109113390D02*
X174761905Y-109065771D01*
X174761905Y-109065771D02*
X175000000Y-109065771D01*
X175000000Y-109065771D02*
X175095238Y-109113390D01*
X175095238Y-109113390D02*
X175142857Y-109161009D01*
X175142857Y-109161009D02*
X175190476Y-109256247D01*
X175190476Y-109256247D02*
X175190476Y-109494342D01*
X175190476Y-109494342D02*
X175142857Y-109589580D01*
X175142857Y-109589580D02*
X175095238Y-109637200D01*
X175095238Y-109637200D02*
X175000000Y-109684819D01*
X175000000Y-109684819D02*
X174761905Y-109684819D01*
X174761905Y-109684819D02*
X174666667Y-109637200D01*
X174666667Y-109637200D02*
X174619048Y-109589580D01*
X176095238Y-108684819D02*
X175619048Y-108684819D01*
X175619048Y-108684819D02*
X175571429Y-109161009D01*
X175571429Y-109161009D02*
X175619048Y-109113390D01*
X175619048Y-109113390D02*
X175714286Y-109065771D01*
X175714286Y-109065771D02*
X175952381Y-109065771D01*
X175952381Y-109065771D02*
X176047619Y-109113390D01*
X176047619Y-109113390D02*
X176095238Y-109161009D01*
X176095238Y-109161009D02*
X176142857Y-109256247D01*
X176142857Y-109256247D02*
X176142857Y-109494342D01*
X176142857Y-109494342D02*
X176095238Y-109589580D01*
X176095238Y-109589580D02*
X176047619Y-109637200D01*
X176047619Y-109637200D02*
X175952381Y-109684819D01*
X175952381Y-109684819D02*
X175714286Y-109684819D01*
X175714286Y-109684819D02*
X175619048Y-109637200D01*
X175619048Y-109637200D02*
X175571429Y-109589580D01*
X174190476Y-60684819D02*
X174190476Y-61399104D01*
X174190476Y-61399104D02*
X174142857Y-61541961D01*
X174142857Y-61541961D02*
X174047619Y-61637200D01*
X174047619Y-61637200D02*
X173904762Y-61684819D01*
X173904762Y-61684819D02*
X173809524Y-61684819D01*
X175142857Y-60684819D02*
X174666667Y-60684819D01*
X174666667Y-60684819D02*
X174619048Y-61161009D01*
X174619048Y-61161009D02*
X174666667Y-61113390D01*
X174666667Y-61113390D02*
X174761905Y-61065771D01*
X174761905Y-61065771D02*
X175000000Y-61065771D01*
X175000000Y-61065771D02*
X175095238Y-61113390D01*
X175095238Y-61113390D02*
X175142857Y-61161009D01*
X175142857Y-61161009D02*
X175190476Y-61256247D01*
X175190476Y-61256247D02*
X175190476Y-61494342D01*
X175190476Y-61494342D02*
X175142857Y-61589580D01*
X175142857Y-61589580D02*
X175095238Y-61637200D01*
X175095238Y-61637200D02*
X175000000Y-61684819D01*
X175000000Y-61684819D02*
X174761905Y-61684819D01*
X174761905Y-61684819D02*
X174666667Y-61637200D01*
X174666667Y-61637200D02*
X174619048Y-61589580D01*
X175571429Y-60780057D02*
X175619048Y-60732438D01*
X175619048Y-60732438D02*
X175714286Y-60684819D01*
X175714286Y-60684819D02*
X175952381Y-60684819D01*
X175952381Y-60684819D02*
X176047619Y-60732438D01*
X176047619Y-60732438D02*
X176095238Y-60780057D01*
X176095238Y-60780057D02*
X176142857Y-60875295D01*
X176142857Y-60875295D02*
X176142857Y-60970533D01*
X176142857Y-60970533D02*
X176095238Y-61113390D01*
X176095238Y-61113390D02*
X175523810Y-61684819D01*
X175523810Y-61684819D02*
X176142857Y-61684819D01*
D11*
X119190476Y-126957419D02*
X119190476Y-127671704D01*
X119190476Y-127671704D02*
X119142857Y-127814561D01*
X119142857Y-127814561D02*
X119047619Y-127909800D01*
X119047619Y-127909800D02*
X118904762Y-127957419D01*
X118904762Y-127957419D02*
X118809524Y-127957419D01*
X120190476Y-127957419D02*
X119619048Y-127957419D01*
X119904762Y-127957419D02*
X119904762Y-126957419D01*
X119904762Y-126957419D02*
X119809524Y-127100276D01*
X119809524Y-127100276D02*
X119714286Y-127195514D01*
X119714286Y-127195514D02*
X119619048Y-127243133D01*
X120761905Y-127385990D02*
X120666667Y-127338371D01*
X120666667Y-127338371D02*
X120619048Y-127290752D01*
X120619048Y-127290752D02*
X120571429Y-127195514D01*
X120571429Y-127195514D02*
X120571429Y-127147895D01*
X120571429Y-127147895D02*
X120619048Y-127052657D01*
X120619048Y-127052657D02*
X120666667Y-127005038D01*
X120666667Y-127005038D02*
X120761905Y-126957419D01*
X120761905Y-126957419D02*
X120952381Y-126957419D01*
X120952381Y-126957419D02*
X121047619Y-127005038D01*
X121047619Y-127005038D02*
X121095238Y-127052657D01*
X121095238Y-127052657D02*
X121142857Y-127147895D01*
X121142857Y-127147895D02*
X121142857Y-127195514D01*
X121142857Y-127195514D02*
X121095238Y-127290752D01*
X121095238Y-127290752D02*
X121047619Y-127338371D01*
X121047619Y-127338371D02*
X120952381Y-127385990D01*
X120952381Y-127385990D02*
X120761905Y-127385990D01*
X120761905Y-127385990D02*
X120666667Y-127433609D01*
X120666667Y-127433609D02*
X120619048Y-127481228D01*
X120619048Y-127481228D02*
X120571429Y-127576466D01*
X120571429Y-127576466D02*
X120571429Y-127766942D01*
X120571429Y-127766942D02*
X120619048Y-127862180D01*
X120619048Y-127862180D02*
X120666667Y-127909800D01*
X120666667Y-127909800D02*
X120761905Y-127957419D01*
X120761905Y-127957419D02*
X120952381Y-127957419D01*
X120952381Y-127957419D02*
X121047619Y-127909800D01*
X121047619Y-127909800D02*
X121095238Y-127862180D01*
X121095238Y-127862180D02*
X121142857Y-127766942D01*
X121142857Y-127766942D02*
X121142857Y-127576466D01*
X121142857Y-127576466D02*
X121095238Y-127481228D01*
X121095238Y-127481228D02*
X121047619Y-127433609D01*
X121047619Y-127433609D02*
X120952381Y-127385990D01*
X87666666Y-126957419D02*
X87666666Y-127671704D01*
X87666666Y-127671704D02*
X87619047Y-127814561D01*
X87619047Y-127814561D02*
X87523809Y-127909800D01*
X87523809Y-127909800D02*
X87380952Y-127957419D01*
X87380952Y-127957419D02*
X87285714Y-127957419D01*
X88571428Y-126957419D02*
X88380952Y-126957419D01*
X88380952Y-126957419D02*
X88285714Y-127005038D01*
X88285714Y-127005038D02*
X88238095Y-127052657D01*
X88238095Y-127052657D02*
X88142857Y-127195514D01*
X88142857Y-127195514D02*
X88095238Y-127385990D01*
X88095238Y-127385990D02*
X88095238Y-127766942D01*
X88095238Y-127766942D02*
X88142857Y-127862180D01*
X88142857Y-127862180D02*
X88190476Y-127909800D01*
X88190476Y-127909800D02*
X88285714Y-127957419D01*
X88285714Y-127957419D02*
X88476190Y-127957419D01*
X88476190Y-127957419D02*
X88571428Y-127909800D01*
X88571428Y-127909800D02*
X88619047Y-127862180D01*
X88619047Y-127862180D02*
X88666666Y-127766942D01*
X88666666Y-127766942D02*
X88666666Y-127528847D01*
X88666666Y-127528847D02*
X88619047Y-127433609D01*
X88619047Y-127433609D02*
X88571428Y-127385990D01*
X88571428Y-127385990D02*
X88476190Y-127338371D01*
X88476190Y-127338371D02*
X88285714Y-127338371D01*
X88285714Y-127338371D02*
X88190476Y-127385990D01*
X88190476Y-127385990D02*
X88142857Y-127433609D01*
X88142857Y-127433609D02*
X88095238Y-127528847D01*
X151190476Y-126957419D02*
X151190476Y-127671704D01*
X151190476Y-127671704D02*
X151142857Y-127814561D01*
X151142857Y-127814561D02*
X151047619Y-127909800D01*
X151047619Y-127909800D02*
X150904762Y-127957419D01*
X150904762Y-127957419D02*
X150809524Y-127957419D01*
X151571429Y-126957419D02*
X152190476Y-126957419D01*
X152190476Y-126957419D02*
X151857143Y-127338371D01*
X151857143Y-127338371D02*
X152000000Y-127338371D01*
X152000000Y-127338371D02*
X152095238Y-127385990D01*
X152095238Y-127385990D02*
X152142857Y-127433609D01*
X152142857Y-127433609D02*
X152190476Y-127528847D01*
X152190476Y-127528847D02*
X152190476Y-127766942D01*
X152190476Y-127766942D02*
X152142857Y-127862180D01*
X152142857Y-127862180D02*
X152095238Y-127909800D01*
X152095238Y-127909800D02*
X152000000Y-127957419D01*
X152000000Y-127957419D02*
X151714286Y-127957419D01*
X151714286Y-127957419D02*
X151619048Y-127909800D01*
X151619048Y-127909800D02*
X151571429Y-127862180D01*
X152809524Y-126957419D02*
X152904762Y-126957419D01*
X152904762Y-126957419D02*
X153000000Y-127005038D01*
X153000000Y-127005038D02*
X153047619Y-127052657D01*
X153047619Y-127052657D02*
X153095238Y-127147895D01*
X153095238Y-127147895D02*
X153142857Y-127338371D01*
X153142857Y-127338371D02*
X153142857Y-127576466D01*
X153142857Y-127576466D02*
X153095238Y-127766942D01*
X153095238Y-127766942D02*
X153047619Y-127862180D01*
X153047619Y-127862180D02*
X153000000Y-127909800D01*
X153000000Y-127909800D02*
X152904762Y-127957419D01*
X152904762Y-127957419D02*
X152809524Y-127957419D01*
X152809524Y-127957419D02*
X152714286Y-127909800D01*
X152714286Y-127909800D02*
X152666667Y-127862180D01*
X152666667Y-127862180D02*
X152619048Y-127766942D01*
X152619048Y-127766942D02*
X152571429Y-127576466D01*
X152571429Y-127576466D02*
X152571429Y-127338371D01*
X152571429Y-127338371D02*
X152619048Y-127147895D01*
X152619048Y-127147895D02*
X152666667Y-127052657D01*
X152666667Y-127052657D02*
X152714286Y-127005038D01*
X152714286Y-127005038D02*
X152809524Y-126957419D01*
D10*
X173454819Y-97595238D02*
X173454819Y-98071428D01*
X173454819Y-98071428D02*
X172454819Y-98071428D01*
X172931009Y-97261904D02*
X172931009Y-96928571D01*
X173454819Y-96785714D02*
X173454819Y-97261904D01*
X173454819Y-97261904D02*
X172454819Y-97261904D01*
X172454819Y-97261904D02*
X172454819Y-96785714D01*
X173454819Y-96357142D02*
X172454819Y-96357142D01*
X172454819Y-96357142D02*
X172454819Y-96119047D01*
X172454819Y-96119047D02*
X172502438Y-95976190D01*
X172502438Y-95976190D02*
X172597676Y-95880952D01*
X172597676Y-95880952D02*
X172692914Y-95833333D01*
X172692914Y-95833333D02*
X172883390Y-95785714D01*
X172883390Y-95785714D02*
X173026247Y-95785714D01*
X173026247Y-95785714D02*
X173216723Y-95833333D01*
X173216723Y-95833333D02*
X173311961Y-95880952D01*
X173311961Y-95880952D02*
X173407200Y-95976190D01*
X173407200Y-95976190D02*
X173454819Y-96119047D01*
X173454819Y-96119047D02*
X173454819Y-96357142D01*
X173454819Y-94833333D02*
X173454819Y-95404761D01*
X173454819Y-95119047D02*
X172454819Y-95119047D01*
X172454819Y-95119047D02*
X172597676Y-95214285D01*
X172597676Y-95214285D02*
X172692914Y-95309523D01*
X172692914Y-95309523D02*
X172740533Y-95404761D01*
X172550057Y-94452380D02*
X172502438Y-94404761D01*
X172502438Y-94404761D02*
X172454819Y-94309523D01*
X172454819Y-94309523D02*
X172454819Y-94071428D01*
X172454819Y-94071428D02*
X172502438Y-93976190D01*
X172502438Y-93976190D02*
X172550057Y-93928571D01*
X172550057Y-93928571D02*
X172645295Y-93880952D01*
X172645295Y-93880952D02*
X172740533Y-93880952D01*
X172740533Y-93880952D02*
X172883390Y-93928571D01*
X172883390Y-93928571D02*
X173454819Y-94499999D01*
X173454819Y-94499999D02*
X173454819Y-93880952D01*
D11*
X167190476Y-62957419D02*
X167190476Y-63671704D01*
X167190476Y-63671704D02*
X167142857Y-63814561D01*
X167142857Y-63814561D02*
X167047619Y-63909800D01*
X167047619Y-63909800D02*
X166904762Y-63957419D01*
X166904762Y-63957419D02*
X166809524Y-63957419D01*
X167571429Y-62957419D02*
X168190476Y-62957419D01*
X168190476Y-62957419D02*
X167857143Y-63338371D01*
X167857143Y-63338371D02*
X168000000Y-63338371D01*
X168000000Y-63338371D02*
X168095238Y-63385990D01*
X168095238Y-63385990D02*
X168142857Y-63433609D01*
X168142857Y-63433609D02*
X168190476Y-63528847D01*
X168190476Y-63528847D02*
X168190476Y-63766942D01*
X168190476Y-63766942D02*
X168142857Y-63862180D01*
X168142857Y-63862180D02*
X168095238Y-63909800D01*
X168095238Y-63909800D02*
X168000000Y-63957419D01*
X168000000Y-63957419D02*
X167714286Y-63957419D01*
X167714286Y-63957419D02*
X167619048Y-63909800D01*
X167619048Y-63909800D02*
X167571429Y-63862180D01*
X168571429Y-63052657D02*
X168619048Y-63005038D01*
X168619048Y-63005038D02*
X168714286Y-62957419D01*
X168714286Y-62957419D02*
X168952381Y-62957419D01*
X168952381Y-62957419D02*
X169047619Y-63005038D01*
X169047619Y-63005038D02*
X169095238Y-63052657D01*
X169095238Y-63052657D02*
X169142857Y-63147895D01*
X169142857Y-63147895D02*
X169142857Y-63243133D01*
X169142857Y-63243133D02*
X169095238Y-63385990D01*
X169095238Y-63385990D02*
X168523810Y-63957419D01*
X168523810Y-63957419D02*
X169142857Y-63957419D01*
D10*
X101433333Y-91004819D02*
X101100000Y-90528628D01*
X100861905Y-91004819D02*
X100861905Y-90004819D01*
X100861905Y-90004819D02*
X101242857Y-90004819D01*
X101242857Y-90004819D02*
X101338095Y-90052438D01*
X101338095Y-90052438D02*
X101385714Y-90100057D01*
X101385714Y-90100057D02*
X101433333Y-90195295D01*
X101433333Y-90195295D02*
X101433333Y-90338152D01*
X101433333Y-90338152D02*
X101385714Y-90433390D01*
X101385714Y-90433390D02*
X101338095Y-90481009D01*
X101338095Y-90481009D02*
X101242857Y-90528628D01*
X101242857Y-90528628D02*
X100861905Y-90528628D01*
X101766667Y-90004819D02*
X102433333Y-90004819D01*
X102433333Y-90004819D02*
X102004762Y-91004819D01*
D11*
X151190476Y-62957419D02*
X151190476Y-63671704D01*
X151190476Y-63671704D02*
X151142857Y-63814561D01*
X151142857Y-63814561D02*
X151047619Y-63909800D01*
X151047619Y-63909800D02*
X150904762Y-63957419D01*
X150904762Y-63957419D02*
X150809524Y-63957419D01*
X151619048Y-63052657D02*
X151666667Y-63005038D01*
X151666667Y-63005038D02*
X151761905Y-62957419D01*
X151761905Y-62957419D02*
X152000000Y-62957419D01*
X152000000Y-62957419D02*
X152095238Y-63005038D01*
X152095238Y-63005038D02*
X152142857Y-63052657D01*
X152142857Y-63052657D02*
X152190476Y-63147895D01*
X152190476Y-63147895D02*
X152190476Y-63243133D01*
X152190476Y-63243133D02*
X152142857Y-63385990D01*
X152142857Y-63385990D02*
X151571429Y-63957419D01*
X151571429Y-63957419D02*
X152190476Y-63957419D01*
X153047619Y-62957419D02*
X152857143Y-62957419D01*
X152857143Y-62957419D02*
X152761905Y-63005038D01*
X152761905Y-63005038D02*
X152714286Y-63052657D01*
X152714286Y-63052657D02*
X152619048Y-63195514D01*
X152619048Y-63195514D02*
X152571429Y-63385990D01*
X152571429Y-63385990D02*
X152571429Y-63766942D01*
X152571429Y-63766942D02*
X152619048Y-63862180D01*
X152619048Y-63862180D02*
X152666667Y-63909800D01*
X152666667Y-63909800D02*
X152761905Y-63957419D01*
X152761905Y-63957419D02*
X152952381Y-63957419D01*
X152952381Y-63957419D02*
X153047619Y-63909800D01*
X153047619Y-63909800D02*
X153095238Y-63862180D01*
X153095238Y-63862180D02*
X153142857Y-63766942D01*
X153142857Y-63766942D02*
X153142857Y-63528847D01*
X153142857Y-63528847D02*
X153095238Y-63433609D01*
X153095238Y-63433609D02*
X153047619Y-63385990D01*
X153047619Y-63385990D02*
X152952381Y-63338371D01*
X152952381Y-63338371D02*
X152761905Y-63338371D01*
X152761905Y-63338371D02*
X152666667Y-63385990D01*
X152666667Y-63385990D02*
X152619048Y-63433609D01*
X152619048Y-63433609D02*
X152571429Y-63528847D01*
X135190476Y-94957419D02*
X135190476Y-95671704D01*
X135190476Y-95671704D02*
X135142857Y-95814561D01*
X135142857Y-95814561D02*
X135047619Y-95909800D01*
X135047619Y-95909800D02*
X134904762Y-95957419D01*
X134904762Y-95957419D02*
X134809524Y-95957419D01*
X135619048Y-95052657D02*
X135666667Y-95005038D01*
X135666667Y-95005038D02*
X135761905Y-94957419D01*
X135761905Y-94957419D02*
X136000000Y-94957419D01*
X136000000Y-94957419D02*
X136095238Y-95005038D01*
X136095238Y-95005038D02*
X136142857Y-95052657D01*
X136142857Y-95052657D02*
X136190476Y-95147895D01*
X136190476Y-95147895D02*
X136190476Y-95243133D01*
X136190476Y-95243133D02*
X136142857Y-95385990D01*
X136142857Y-95385990D02*
X135571429Y-95957419D01*
X135571429Y-95957419D02*
X136190476Y-95957419D01*
X136571429Y-95052657D02*
X136619048Y-95005038D01*
X136619048Y-95005038D02*
X136714286Y-94957419D01*
X136714286Y-94957419D02*
X136952381Y-94957419D01*
X136952381Y-94957419D02*
X137047619Y-95005038D01*
X137047619Y-95005038D02*
X137095238Y-95052657D01*
X137095238Y-95052657D02*
X137142857Y-95147895D01*
X137142857Y-95147895D02*
X137142857Y-95243133D01*
X137142857Y-95243133D02*
X137095238Y-95385990D01*
X137095238Y-95385990D02*
X136523810Y-95957419D01*
X136523810Y-95957419D02*
X137142857Y-95957419D01*
D12*
X88032380Y-104513842D02*
X88213809Y-104574318D01*
X88213809Y-104574318D02*
X88516190Y-104574318D01*
X88516190Y-104574318D02*
X88637142Y-104513842D01*
X88637142Y-104513842D02*
X88697618Y-104453365D01*
X88697618Y-104453365D02*
X88758095Y-104332413D01*
X88758095Y-104332413D02*
X88758095Y-104211461D01*
X88758095Y-104211461D02*
X88697618Y-104090508D01*
X88697618Y-104090508D02*
X88637142Y-104030032D01*
X88637142Y-104030032D02*
X88516190Y-103969556D01*
X88516190Y-103969556D02*
X88274285Y-103909080D01*
X88274285Y-103909080D02*
X88153333Y-103848603D01*
X88153333Y-103848603D02*
X88092856Y-103788127D01*
X88092856Y-103788127D02*
X88032380Y-103667175D01*
X88032380Y-103667175D02*
X88032380Y-103546222D01*
X88032380Y-103546222D02*
X88092856Y-103425270D01*
X88092856Y-103425270D02*
X88153333Y-103364794D01*
X88153333Y-103364794D02*
X88274285Y-103304318D01*
X88274285Y-103304318D02*
X88576666Y-103304318D01*
X88576666Y-103304318D02*
X88758095Y-103364794D01*
X89181428Y-103304318D02*
X89967619Y-103304318D01*
X89967619Y-103304318D02*
X89544285Y-103788127D01*
X89544285Y-103788127D02*
X89725714Y-103788127D01*
X89725714Y-103788127D02*
X89846666Y-103848603D01*
X89846666Y-103848603D02*
X89907142Y-103909080D01*
X89907142Y-103909080D02*
X89967619Y-104030032D01*
X89967619Y-104030032D02*
X89967619Y-104332413D01*
X89967619Y-104332413D02*
X89907142Y-104453365D01*
X89907142Y-104453365D02*
X89846666Y-104513842D01*
X89846666Y-104513842D02*
X89725714Y-104574318D01*
X89725714Y-104574318D02*
X89362857Y-104574318D01*
X89362857Y-104574318D02*
X89241904Y-104513842D01*
X89241904Y-104513842D02*
X89181428Y-104453365D01*
D10*
X96204819Y-121459523D02*
X96919104Y-121459523D01*
X96919104Y-121459523D02*
X97061961Y-121507142D01*
X97061961Y-121507142D02*
X97157200Y-121602380D01*
X97157200Y-121602380D02*
X97204819Y-121745237D01*
X97204819Y-121745237D02*
X97204819Y-121840475D01*
X96204819Y-120554761D02*
X96204819Y-120745237D01*
X96204819Y-120745237D02*
X96252438Y-120840475D01*
X96252438Y-120840475D02*
X96300057Y-120888094D01*
X96300057Y-120888094D02*
X96442914Y-120983332D01*
X96442914Y-120983332D02*
X96633390Y-121030951D01*
X96633390Y-121030951D02*
X97014342Y-121030951D01*
X97014342Y-121030951D02*
X97109580Y-120983332D01*
X97109580Y-120983332D02*
X97157200Y-120935713D01*
X97157200Y-120935713D02*
X97204819Y-120840475D01*
X97204819Y-120840475D02*
X97204819Y-120649999D01*
X97204819Y-120649999D02*
X97157200Y-120554761D01*
X97157200Y-120554761D02*
X97109580Y-120507142D01*
X97109580Y-120507142D02*
X97014342Y-120459523D01*
X97014342Y-120459523D02*
X96776247Y-120459523D01*
X96776247Y-120459523D02*
X96681009Y-120507142D01*
X96681009Y-120507142D02*
X96633390Y-120554761D01*
X96633390Y-120554761D02*
X96585771Y-120649999D01*
X96585771Y-120649999D02*
X96585771Y-120840475D01*
X96585771Y-120840475D02*
X96633390Y-120935713D01*
X96633390Y-120935713D02*
X96681009Y-120983332D01*
X96681009Y-120983332D02*
X96776247Y-121030951D01*
X97204819Y-119507142D02*
X97204819Y-120078570D01*
X97204819Y-119792856D02*
X96204819Y-119792856D01*
X96204819Y-119792856D02*
X96347676Y-119888094D01*
X96347676Y-119888094D02*
X96442914Y-119983332D01*
X96442914Y-119983332D02*
X96490533Y-120078570D01*
X177075476Y-113374819D02*
X177075476Y-114089104D01*
X177075476Y-114089104D02*
X177027857Y-114231961D01*
X177027857Y-114231961D02*
X176932619Y-114327200D01*
X176932619Y-114327200D02*
X176789762Y-114374819D01*
X176789762Y-114374819D02*
X176694524Y-114374819D01*
X177980238Y-113708152D02*
X177980238Y-114374819D01*
X177742143Y-113327200D02*
X177504048Y-114041485D01*
X177504048Y-114041485D02*
X178123095Y-114041485D01*
X178646905Y-113803390D02*
X178551667Y-113755771D01*
X178551667Y-113755771D02*
X178504048Y-113708152D01*
X178504048Y-113708152D02*
X178456429Y-113612914D01*
X178456429Y-113612914D02*
X178456429Y-113565295D01*
X178456429Y-113565295D02*
X178504048Y-113470057D01*
X178504048Y-113470057D02*
X178551667Y-113422438D01*
X178551667Y-113422438D02*
X178646905Y-113374819D01*
X178646905Y-113374819D02*
X178837381Y-113374819D01*
X178837381Y-113374819D02*
X178932619Y-113422438D01*
X178932619Y-113422438D02*
X178980238Y-113470057D01*
X178980238Y-113470057D02*
X179027857Y-113565295D01*
X179027857Y-113565295D02*
X179027857Y-113612914D01*
X179027857Y-113612914D02*
X178980238Y-113708152D01*
X178980238Y-113708152D02*
X178932619Y-113755771D01*
X178932619Y-113755771D02*
X178837381Y-113803390D01*
X178837381Y-113803390D02*
X178646905Y-113803390D01*
X178646905Y-113803390D02*
X178551667Y-113851009D01*
X178551667Y-113851009D02*
X178504048Y-113898628D01*
X178504048Y-113898628D02*
X178456429Y-113993866D01*
X178456429Y-113993866D02*
X178456429Y-114184342D01*
X178456429Y-114184342D02*
X178504048Y-114279580D01*
X178504048Y-114279580D02*
X178551667Y-114327200D01*
X178551667Y-114327200D02*
X178646905Y-114374819D01*
X178646905Y-114374819D02*
X178837381Y-114374819D01*
X178837381Y-114374819D02*
X178932619Y-114327200D01*
X178932619Y-114327200D02*
X178980238Y-114279580D01*
X178980238Y-114279580D02*
X179027857Y-114184342D01*
X179027857Y-114184342D02*
X179027857Y-113993866D01*
X179027857Y-113993866D02*
X178980238Y-113898628D01*
X178980238Y-113898628D02*
X178932619Y-113851009D01*
X178932619Y-113851009D02*
X178837381Y-113803390D01*
X172077142Y-82624819D02*
X171743809Y-82148628D01*
X171505714Y-82624819D02*
X171505714Y-81624819D01*
X171505714Y-81624819D02*
X171886666Y-81624819D01*
X171886666Y-81624819D02*
X171981904Y-81672438D01*
X171981904Y-81672438D02*
X172029523Y-81720057D01*
X172029523Y-81720057D02*
X172077142Y-81815295D01*
X172077142Y-81815295D02*
X172077142Y-81958152D01*
X172077142Y-81958152D02*
X172029523Y-82053390D01*
X172029523Y-82053390D02*
X171981904Y-82101009D01*
X171981904Y-82101009D02*
X171886666Y-82148628D01*
X171886666Y-82148628D02*
X171505714Y-82148628D01*
X173029523Y-82624819D02*
X172458095Y-82624819D01*
X172743809Y-82624819D02*
X172743809Y-81624819D01*
X172743809Y-81624819D02*
X172648571Y-81767676D01*
X172648571Y-81767676D02*
X172553333Y-81862914D01*
X172553333Y-81862914D02*
X172458095Y-81910533D01*
X173886666Y-81958152D02*
X173886666Y-82624819D01*
X173648571Y-81577200D02*
X173410476Y-82291485D01*
X173410476Y-82291485D02*
X174029523Y-82291485D01*
D11*
X103666666Y-78957419D02*
X103666666Y-79671704D01*
X103666666Y-79671704D02*
X103619047Y-79814561D01*
X103619047Y-79814561D02*
X103523809Y-79909800D01*
X103523809Y-79909800D02*
X103380952Y-79957419D01*
X103380952Y-79957419D02*
X103285714Y-79957419D01*
X104190476Y-79957419D02*
X104380952Y-79957419D01*
X104380952Y-79957419D02*
X104476190Y-79909800D01*
X104476190Y-79909800D02*
X104523809Y-79862180D01*
X104523809Y-79862180D02*
X104619047Y-79719323D01*
X104619047Y-79719323D02*
X104666666Y-79528847D01*
X104666666Y-79528847D02*
X104666666Y-79147895D01*
X104666666Y-79147895D02*
X104619047Y-79052657D01*
X104619047Y-79052657D02*
X104571428Y-79005038D01*
X104571428Y-79005038D02*
X104476190Y-78957419D01*
X104476190Y-78957419D02*
X104285714Y-78957419D01*
X104285714Y-78957419D02*
X104190476Y-79005038D01*
X104190476Y-79005038D02*
X104142857Y-79052657D01*
X104142857Y-79052657D02*
X104095238Y-79147895D01*
X104095238Y-79147895D02*
X104095238Y-79385990D01*
X104095238Y-79385990D02*
X104142857Y-79481228D01*
X104142857Y-79481228D02*
X104190476Y-79528847D01*
X104190476Y-79528847D02*
X104285714Y-79576466D01*
X104285714Y-79576466D02*
X104476190Y-79576466D01*
X104476190Y-79576466D02*
X104571428Y-79528847D01*
X104571428Y-79528847D02*
X104619047Y-79481228D01*
X104619047Y-79481228D02*
X104666666Y-79385990D01*
D10*
X96880952Y-122374819D02*
X96404762Y-122374819D01*
X96404762Y-122374819D02*
X96404762Y-121374819D01*
X97214286Y-121851009D02*
X97547619Y-121851009D01*
X97690476Y-122374819D02*
X97214286Y-122374819D01*
X97214286Y-122374819D02*
X97214286Y-121374819D01*
X97214286Y-121374819D02*
X97690476Y-121374819D01*
X98119048Y-122374819D02*
X98119048Y-121374819D01*
X98119048Y-121374819D02*
X98357143Y-121374819D01*
X98357143Y-121374819D02*
X98500000Y-121422438D01*
X98500000Y-121422438D02*
X98595238Y-121517676D01*
X98595238Y-121517676D02*
X98642857Y-121612914D01*
X98642857Y-121612914D02*
X98690476Y-121803390D01*
X98690476Y-121803390D02*
X98690476Y-121946247D01*
X98690476Y-121946247D02*
X98642857Y-122136723D01*
X98642857Y-122136723D02*
X98595238Y-122231961D01*
X98595238Y-122231961D02*
X98500000Y-122327200D01*
X98500000Y-122327200D02*
X98357143Y-122374819D01*
X98357143Y-122374819D02*
X98119048Y-122374819D01*
X99547619Y-121374819D02*
X99357143Y-121374819D01*
X99357143Y-121374819D02*
X99261905Y-121422438D01*
X99261905Y-121422438D02*
X99214286Y-121470057D01*
X99214286Y-121470057D02*
X99119048Y-121612914D01*
X99119048Y-121612914D02*
X99071429Y-121803390D01*
X99071429Y-121803390D02*
X99071429Y-122184342D01*
X99071429Y-122184342D02*
X99119048Y-122279580D01*
X99119048Y-122279580D02*
X99166667Y-122327200D01*
X99166667Y-122327200D02*
X99261905Y-122374819D01*
X99261905Y-122374819D02*
X99452381Y-122374819D01*
X99452381Y-122374819D02*
X99547619Y-122327200D01*
X99547619Y-122327200D02*
X99595238Y-122279580D01*
X99595238Y-122279580D02*
X99642857Y-122184342D01*
X99642857Y-122184342D02*
X99642857Y-121946247D01*
X99642857Y-121946247D02*
X99595238Y-121851009D01*
X99595238Y-121851009D02*
X99547619Y-121803390D01*
X99547619Y-121803390D02*
X99452381Y-121755771D01*
X99452381Y-121755771D02*
X99261905Y-121755771D01*
X99261905Y-121755771D02*
X99166667Y-121803390D01*
X99166667Y-121803390D02*
X99119048Y-121851009D01*
X99119048Y-121851009D02*
X99071429Y-121946247D01*
X97190476Y-49784819D02*
X97190476Y-50499104D01*
X97190476Y-50499104D02*
X97142857Y-50641961D01*
X97142857Y-50641961D02*
X97047619Y-50737200D01*
X97047619Y-50737200D02*
X96904762Y-50784819D01*
X96904762Y-50784819D02*
X96809524Y-50784819D01*
X97571429Y-49784819D02*
X98190476Y-49784819D01*
X98190476Y-49784819D02*
X97857143Y-50165771D01*
X97857143Y-50165771D02*
X98000000Y-50165771D01*
X98000000Y-50165771D02*
X98095238Y-50213390D01*
X98095238Y-50213390D02*
X98142857Y-50261009D01*
X98142857Y-50261009D02*
X98190476Y-50356247D01*
X98190476Y-50356247D02*
X98190476Y-50594342D01*
X98190476Y-50594342D02*
X98142857Y-50689580D01*
X98142857Y-50689580D02*
X98095238Y-50737200D01*
X98095238Y-50737200D02*
X98000000Y-50784819D01*
X98000000Y-50784819D02*
X97714286Y-50784819D01*
X97714286Y-50784819D02*
X97619048Y-50737200D01*
X97619048Y-50737200D02*
X97571429Y-50689580D01*
X98523810Y-49784819D02*
X99190476Y-49784819D01*
X99190476Y-49784819D02*
X98761905Y-50784819D01*
D11*
X103666666Y-46957419D02*
X103666666Y-47671704D01*
X103666666Y-47671704D02*
X103619047Y-47814561D01*
X103619047Y-47814561D02*
X103523809Y-47909800D01*
X103523809Y-47909800D02*
X103380952Y-47957419D01*
X103380952Y-47957419D02*
X103285714Y-47957419D01*
X104047619Y-46957419D02*
X104714285Y-46957419D01*
X104714285Y-46957419D02*
X104285714Y-47957419D01*
D10*
X171357142Y-57224819D02*
X171023809Y-56748628D01*
X170785714Y-57224819D02*
X170785714Y-56224819D01*
X170785714Y-56224819D02*
X171166666Y-56224819D01*
X171166666Y-56224819D02*
X171261904Y-56272438D01*
X171261904Y-56272438D02*
X171309523Y-56320057D01*
X171309523Y-56320057D02*
X171357142Y-56415295D01*
X171357142Y-56415295D02*
X171357142Y-56558152D01*
X171357142Y-56558152D02*
X171309523Y-56653390D01*
X171309523Y-56653390D02*
X171261904Y-56701009D01*
X171261904Y-56701009D02*
X171166666Y-56748628D01*
X171166666Y-56748628D02*
X170785714Y-56748628D01*
X172309523Y-57224819D02*
X171738095Y-57224819D01*
X172023809Y-57224819D02*
X172023809Y-56224819D01*
X172023809Y-56224819D02*
X171928571Y-56367676D01*
X171928571Y-56367676D02*
X171833333Y-56462914D01*
X171833333Y-56462914D02*
X171738095Y-56510533D01*
X172642857Y-56224819D02*
X173261904Y-56224819D01*
X173261904Y-56224819D02*
X172928571Y-56605771D01*
X172928571Y-56605771D02*
X173071428Y-56605771D01*
X173071428Y-56605771D02*
X173166666Y-56653390D01*
X173166666Y-56653390D02*
X173214285Y-56701009D01*
X173214285Y-56701009D02*
X173261904Y-56796247D01*
X173261904Y-56796247D02*
X173261904Y-57034342D01*
X173261904Y-57034342D02*
X173214285Y-57129580D01*
X173214285Y-57129580D02*
X173166666Y-57177200D01*
X173166666Y-57177200D02*
X173071428Y-57224819D01*
X173071428Y-57224819D02*
X172785714Y-57224819D01*
X172785714Y-57224819D02*
X172690476Y-57177200D01*
X172690476Y-57177200D02*
X172642857Y-57129580D01*
D11*
X167190476Y-126957419D02*
X167190476Y-127671704D01*
X167190476Y-127671704D02*
X167142857Y-127814561D01*
X167142857Y-127814561D02*
X167047619Y-127909800D01*
X167047619Y-127909800D02*
X166904762Y-127957419D01*
X166904762Y-127957419D02*
X166809524Y-127957419D01*
X167571429Y-126957419D02*
X168190476Y-126957419D01*
X168190476Y-126957419D02*
X167857143Y-127338371D01*
X167857143Y-127338371D02*
X168000000Y-127338371D01*
X168000000Y-127338371D02*
X168095238Y-127385990D01*
X168095238Y-127385990D02*
X168142857Y-127433609D01*
X168142857Y-127433609D02*
X168190476Y-127528847D01*
X168190476Y-127528847D02*
X168190476Y-127766942D01*
X168190476Y-127766942D02*
X168142857Y-127862180D01*
X168142857Y-127862180D02*
X168095238Y-127909800D01*
X168095238Y-127909800D02*
X168000000Y-127957419D01*
X168000000Y-127957419D02*
X167714286Y-127957419D01*
X167714286Y-127957419D02*
X167619048Y-127909800D01*
X167619048Y-127909800D02*
X167571429Y-127862180D01*
X169047619Y-126957419D02*
X168857143Y-126957419D01*
X168857143Y-126957419D02*
X168761905Y-127005038D01*
X168761905Y-127005038D02*
X168714286Y-127052657D01*
X168714286Y-127052657D02*
X168619048Y-127195514D01*
X168619048Y-127195514D02*
X168571429Y-127385990D01*
X168571429Y-127385990D02*
X168571429Y-127766942D01*
X168571429Y-127766942D02*
X168619048Y-127862180D01*
X168619048Y-127862180D02*
X168666667Y-127909800D01*
X168666667Y-127909800D02*
X168761905Y-127957419D01*
X168761905Y-127957419D02*
X168952381Y-127957419D01*
X168952381Y-127957419D02*
X169047619Y-127909800D01*
X169047619Y-127909800D02*
X169095238Y-127862180D01*
X169095238Y-127862180D02*
X169142857Y-127766942D01*
X169142857Y-127766942D02*
X169142857Y-127528847D01*
X169142857Y-127528847D02*
X169095238Y-127433609D01*
X169095238Y-127433609D02*
X169047619Y-127385990D01*
X169047619Y-127385990D02*
X168952381Y-127338371D01*
X168952381Y-127338371D02*
X168761905Y-127338371D01*
X168761905Y-127338371D02*
X168666667Y-127385990D01*
X168666667Y-127385990D02*
X168619048Y-127433609D01*
X168619048Y-127433609D02*
X168571429Y-127528847D01*
X167190476Y-46957419D02*
X167190476Y-47671704D01*
X167190476Y-47671704D02*
X167142857Y-47814561D01*
X167142857Y-47814561D02*
X167047619Y-47909800D01*
X167047619Y-47909800D02*
X166904762Y-47957419D01*
X166904762Y-47957419D02*
X166809524Y-47957419D01*
X167571429Y-46957419D02*
X168190476Y-46957419D01*
X168190476Y-46957419D02*
X167857143Y-47338371D01*
X167857143Y-47338371D02*
X168000000Y-47338371D01*
X168000000Y-47338371D02*
X168095238Y-47385990D01*
X168095238Y-47385990D02*
X168142857Y-47433609D01*
X168142857Y-47433609D02*
X168190476Y-47528847D01*
X168190476Y-47528847D02*
X168190476Y-47766942D01*
X168190476Y-47766942D02*
X168142857Y-47862180D01*
X168142857Y-47862180D02*
X168095238Y-47909800D01*
X168095238Y-47909800D02*
X168000000Y-47957419D01*
X168000000Y-47957419D02*
X167714286Y-47957419D01*
X167714286Y-47957419D02*
X167619048Y-47909800D01*
X167619048Y-47909800D02*
X167571429Y-47862180D01*
X169142857Y-47957419D02*
X168571429Y-47957419D01*
X168857143Y-47957419D02*
X168857143Y-46957419D01*
X168857143Y-46957419D02*
X168761905Y-47100276D01*
X168761905Y-47100276D02*
X168666667Y-47195514D01*
X168666667Y-47195514D02*
X168571429Y-47243133D01*
X135190476Y-78957419D02*
X135190476Y-79671704D01*
X135190476Y-79671704D02*
X135142857Y-79814561D01*
X135142857Y-79814561D02*
X135047619Y-79909800D01*
X135047619Y-79909800D02*
X134904762Y-79957419D01*
X134904762Y-79957419D02*
X134809524Y-79957419D01*
X135619048Y-79052657D02*
X135666667Y-79005038D01*
X135666667Y-79005038D02*
X135761905Y-78957419D01*
X135761905Y-78957419D02*
X136000000Y-78957419D01*
X136000000Y-78957419D02*
X136095238Y-79005038D01*
X136095238Y-79005038D02*
X136142857Y-79052657D01*
X136142857Y-79052657D02*
X136190476Y-79147895D01*
X136190476Y-79147895D02*
X136190476Y-79243133D01*
X136190476Y-79243133D02*
X136142857Y-79385990D01*
X136142857Y-79385990D02*
X135571429Y-79957419D01*
X135571429Y-79957419D02*
X136190476Y-79957419D01*
X137142857Y-79957419D02*
X136571429Y-79957419D01*
X136857143Y-79957419D02*
X136857143Y-78957419D01*
X136857143Y-78957419D02*
X136761905Y-79100276D01*
X136761905Y-79100276D02*
X136666667Y-79195514D01*
X136666667Y-79195514D02*
X136571429Y-79243133D01*
D10*
X166997142Y-118184819D02*
X166663809Y-117708628D01*
X166425714Y-118184819D02*
X166425714Y-117184819D01*
X166425714Y-117184819D02*
X166806666Y-117184819D01*
X166806666Y-117184819D02*
X166901904Y-117232438D01*
X166901904Y-117232438D02*
X166949523Y-117280057D01*
X166949523Y-117280057D02*
X166997142Y-117375295D01*
X166997142Y-117375295D02*
X166997142Y-117518152D01*
X166997142Y-117518152D02*
X166949523Y-117613390D01*
X166949523Y-117613390D02*
X166901904Y-117661009D01*
X166901904Y-117661009D02*
X166806666Y-117708628D01*
X166806666Y-117708628D02*
X166425714Y-117708628D01*
X167949523Y-118184819D02*
X167378095Y-118184819D01*
X167663809Y-118184819D02*
X167663809Y-117184819D01*
X167663809Y-117184819D02*
X167568571Y-117327676D01*
X167568571Y-117327676D02*
X167473333Y-117422914D01*
X167473333Y-117422914D02*
X167378095Y-117470533D01*
X168806666Y-117184819D02*
X168616190Y-117184819D01*
X168616190Y-117184819D02*
X168520952Y-117232438D01*
X168520952Y-117232438D02*
X168473333Y-117280057D01*
X168473333Y-117280057D02*
X168378095Y-117422914D01*
X168378095Y-117422914D02*
X168330476Y-117613390D01*
X168330476Y-117613390D02*
X168330476Y-117994342D01*
X168330476Y-117994342D02*
X168378095Y-118089580D01*
X168378095Y-118089580D02*
X168425714Y-118137200D01*
X168425714Y-118137200D02*
X168520952Y-118184819D01*
X168520952Y-118184819D02*
X168711428Y-118184819D01*
X168711428Y-118184819D02*
X168806666Y-118137200D01*
X168806666Y-118137200D02*
X168854285Y-118089580D01*
X168854285Y-118089580D02*
X168901904Y-117994342D01*
X168901904Y-117994342D02*
X168901904Y-117756247D01*
X168901904Y-117756247D02*
X168854285Y-117661009D01*
X168854285Y-117661009D02*
X168806666Y-117613390D01*
X168806666Y-117613390D02*
X168711428Y-117565771D01*
X168711428Y-117565771D02*
X168520952Y-117565771D01*
X168520952Y-117565771D02*
X168425714Y-117613390D01*
X168425714Y-117613390D02*
X168378095Y-117661009D01*
X168378095Y-117661009D02*
X168330476Y-117756247D01*
D11*
X167190476Y-94957419D02*
X167190476Y-95671704D01*
X167190476Y-95671704D02*
X167142857Y-95814561D01*
X167142857Y-95814561D02*
X167047619Y-95909800D01*
X167047619Y-95909800D02*
X166904762Y-95957419D01*
X166904762Y-95957419D02*
X166809524Y-95957419D01*
X167571429Y-94957419D02*
X168190476Y-94957419D01*
X168190476Y-94957419D02*
X167857143Y-95338371D01*
X167857143Y-95338371D02*
X168000000Y-95338371D01*
X168000000Y-95338371D02*
X168095238Y-95385990D01*
X168095238Y-95385990D02*
X168142857Y-95433609D01*
X168142857Y-95433609D02*
X168190476Y-95528847D01*
X168190476Y-95528847D02*
X168190476Y-95766942D01*
X168190476Y-95766942D02*
X168142857Y-95862180D01*
X168142857Y-95862180D02*
X168095238Y-95909800D01*
X168095238Y-95909800D02*
X168000000Y-95957419D01*
X168000000Y-95957419D02*
X167714286Y-95957419D01*
X167714286Y-95957419D02*
X167619048Y-95909800D01*
X167619048Y-95909800D02*
X167571429Y-95862180D01*
X169047619Y-95290752D02*
X169047619Y-95957419D01*
X168809524Y-94909800D02*
X168571429Y-95624085D01*
X168571429Y-95624085D02*
X169190476Y-95624085D01*
X87666666Y-46957419D02*
X87666666Y-47671704D01*
X87666666Y-47671704D02*
X87619047Y-47814561D01*
X87619047Y-47814561D02*
X87523809Y-47909800D01*
X87523809Y-47909800D02*
X87380952Y-47957419D01*
X87380952Y-47957419D02*
X87285714Y-47957419D01*
X88666666Y-47957419D02*
X88095238Y-47957419D01*
X88380952Y-47957419D02*
X88380952Y-46957419D01*
X88380952Y-46957419D02*
X88285714Y-47100276D01*
X88285714Y-47100276D02*
X88190476Y-47195514D01*
X88190476Y-47195514D02*
X88095238Y-47243133D01*
X119190476Y-78957419D02*
X119190476Y-79671704D01*
X119190476Y-79671704D02*
X119142857Y-79814561D01*
X119142857Y-79814561D02*
X119047619Y-79909800D01*
X119047619Y-79909800D02*
X118904762Y-79957419D01*
X118904762Y-79957419D02*
X118809524Y-79957419D01*
X120190476Y-79957419D02*
X119619048Y-79957419D01*
X119904762Y-79957419D02*
X119904762Y-78957419D01*
X119904762Y-78957419D02*
X119809524Y-79100276D01*
X119809524Y-79100276D02*
X119714286Y-79195514D01*
X119714286Y-79195514D02*
X119619048Y-79243133D01*
X121095238Y-78957419D02*
X120619048Y-78957419D01*
X120619048Y-78957419D02*
X120571429Y-79433609D01*
X120571429Y-79433609D02*
X120619048Y-79385990D01*
X120619048Y-79385990D02*
X120714286Y-79338371D01*
X120714286Y-79338371D02*
X120952381Y-79338371D01*
X120952381Y-79338371D02*
X121047619Y-79385990D01*
X121047619Y-79385990D02*
X121095238Y-79433609D01*
X121095238Y-79433609D02*
X121142857Y-79528847D01*
X121142857Y-79528847D02*
X121142857Y-79766942D01*
X121142857Y-79766942D02*
X121095238Y-79862180D01*
X121095238Y-79862180D02*
X121047619Y-79909800D01*
X121047619Y-79909800D02*
X120952381Y-79957419D01*
X120952381Y-79957419D02*
X120714286Y-79957419D01*
X120714286Y-79957419D02*
X120619048Y-79909800D01*
X120619048Y-79909800D02*
X120571429Y-79862180D01*
D10*
X93804819Y-45166666D02*
X93328628Y-45499999D01*
X93804819Y-45738094D02*
X92804819Y-45738094D01*
X92804819Y-45738094D02*
X92804819Y-45357142D01*
X92804819Y-45357142D02*
X92852438Y-45261904D01*
X92852438Y-45261904D02*
X92900057Y-45214285D01*
X92900057Y-45214285D02*
X92995295Y-45166666D01*
X92995295Y-45166666D02*
X93138152Y-45166666D01*
X93138152Y-45166666D02*
X93233390Y-45214285D01*
X93233390Y-45214285D02*
X93281009Y-45261904D01*
X93281009Y-45261904D02*
X93328628Y-45357142D01*
X93328628Y-45357142D02*
X93328628Y-45738094D01*
X93138152Y-44309523D02*
X93804819Y-44309523D01*
X92757200Y-44547618D02*
X93471485Y-44785713D01*
X93471485Y-44785713D02*
X93471485Y-44166666D01*
X97190476Y-93124819D02*
X97190476Y-93839104D01*
X97190476Y-93839104D02*
X97142857Y-93981961D01*
X97142857Y-93981961D02*
X97047619Y-94077200D01*
X97047619Y-94077200D02*
X96904762Y-94124819D01*
X96904762Y-94124819D02*
X96809524Y-94124819D01*
X98095238Y-93458152D02*
X98095238Y-94124819D01*
X97857143Y-93077200D02*
X97619048Y-93791485D01*
X97619048Y-93791485D02*
X98238095Y-93791485D01*
X99142857Y-94124819D02*
X98571429Y-94124819D01*
X98857143Y-94124819D02*
X98857143Y-93124819D01*
X98857143Y-93124819D02*
X98761905Y-93267676D01*
X98761905Y-93267676D02*
X98666667Y-93362914D01*
X98666667Y-93362914D02*
X98571429Y-93410533D01*
X99119047Y-42545180D02*
X99595237Y-42545180D01*
X99595237Y-42545180D02*
X99595237Y-43545180D01*
X98785713Y-43068990D02*
X98452380Y-43068990D01*
X98309523Y-42545180D02*
X98785713Y-42545180D01*
X98785713Y-42545180D02*
X98785713Y-43545180D01*
X98785713Y-43545180D02*
X98309523Y-43545180D01*
X97880951Y-42545180D02*
X97880951Y-43545180D01*
X97880951Y-43545180D02*
X97642856Y-43545180D01*
X97642856Y-43545180D02*
X97499999Y-43497561D01*
X97499999Y-43497561D02*
X97404761Y-43402323D01*
X97404761Y-43402323D02*
X97357142Y-43307085D01*
X97357142Y-43307085D02*
X97309523Y-43116609D01*
X97309523Y-43116609D02*
X97309523Y-42973752D01*
X97309523Y-42973752D02*
X97357142Y-42783276D01*
X97357142Y-42783276D02*
X97404761Y-42688038D01*
X97404761Y-42688038D02*
X97499999Y-42592800D01*
X97499999Y-42592800D02*
X97642856Y-42545180D01*
X97642856Y-42545180D02*
X97880951Y-42545180D01*
X96357142Y-42545180D02*
X96928570Y-42545180D01*
X96642856Y-42545180D02*
X96642856Y-43545180D01*
X96642856Y-43545180D02*
X96738094Y-43402323D01*
X96738094Y-43402323D02*
X96833332Y-43307085D01*
X96833332Y-43307085D02*
X96928570Y-43259466D01*
X177075476Y-83909819D02*
X177075476Y-84624104D01*
X177075476Y-84624104D02*
X177027857Y-84766961D01*
X177027857Y-84766961D02*
X176932619Y-84862200D01*
X176932619Y-84862200D02*
X176789762Y-84909819D01*
X176789762Y-84909819D02*
X176694524Y-84909819D01*
X177980238Y-84243152D02*
X177980238Y-84909819D01*
X177742143Y-83862200D02*
X177504048Y-84576485D01*
X177504048Y-84576485D02*
X178123095Y-84576485D01*
X178932619Y-84243152D02*
X178932619Y-84909819D01*
X178694524Y-83862200D02*
X178456429Y-84576485D01*
X178456429Y-84576485D02*
X179075476Y-84576485D01*
D11*
X135190476Y-126957419D02*
X135190476Y-127671704D01*
X135190476Y-127671704D02*
X135142857Y-127814561D01*
X135142857Y-127814561D02*
X135047619Y-127909800D01*
X135047619Y-127909800D02*
X134904762Y-127957419D01*
X134904762Y-127957419D02*
X134809524Y-127957419D01*
X135619048Y-127052657D02*
X135666667Y-127005038D01*
X135666667Y-127005038D02*
X135761905Y-126957419D01*
X135761905Y-126957419D02*
X136000000Y-126957419D01*
X136000000Y-126957419D02*
X136095238Y-127005038D01*
X136095238Y-127005038D02*
X136142857Y-127052657D01*
X136142857Y-127052657D02*
X136190476Y-127147895D01*
X136190476Y-127147895D02*
X136190476Y-127243133D01*
X136190476Y-127243133D02*
X136142857Y-127385990D01*
X136142857Y-127385990D02*
X135571429Y-127957419D01*
X135571429Y-127957419D02*
X136190476Y-127957419D01*
X137047619Y-127290752D02*
X137047619Y-127957419D01*
X136809524Y-126909800D02*
X136571429Y-127624085D01*
X136571429Y-127624085D02*
X137190476Y-127624085D01*
X103190476Y-94957419D02*
X103190476Y-95671704D01*
X103190476Y-95671704D02*
X103142857Y-95814561D01*
X103142857Y-95814561D02*
X103047619Y-95909800D01*
X103047619Y-95909800D02*
X102904762Y-95957419D01*
X102904762Y-95957419D02*
X102809524Y-95957419D01*
X104190476Y-95957419D02*
X103619048Y-95957419D01*
X103904762Y-95957419D02*
X103904762Y-94957419D01*
X103904762Y-94957419D02*
X103809524Y-95100276D01*
X103809524Y-95100276D02*
X103714286Y-95195514D01*
X103714286Y-95195514D02*
X103619048Y-95243133D01*
X104809524Y-94957419D02*
X104904762Y-94957419D01*
X104904762Y-94957419D02*
X105000000Y-95005038D01*
X105000000Y-95005038D02*
X105047619Y-95052657D01*
X105047619Y-95052657D02*
X105095238Y-95147895D01*
X105095238Y-95147895D02*
X105142857Y-95338371D01*
X105142857Y-95338371D02*
X105142857Y-95576466D01*
X105142857Y-95576466D02*
X105095238Y-95766942D01*
X105095238Y-95766942D02*
X105047619Y-95862180D01*
X105047619Y-95862180D02*
X105000000Y-95909800D01*
X105000000Y-95909800D02*
X104904762Y-95957419D01*
X104904762Y-95957419D02*
X104809524Y-95957419D01*
X104809524Y-95957419D02*
X104714286Y-95909800D01*
X104714286Y-95909800D02*
X104666667Y-95862180D01*
X104666667Y-95862180D02*
X104619048Y-95766942D01*
X104619048Y-95766942D02*
X104571429Y-95576466D01*
X104571429Y-95576466D02*
X104571429Y-95338371D01*
X104571429Y-95338371D02*
X104619048Y-95147895D01*
X104619048Y-95147895D02*
X104666667Y-95052657D01*
X104666667Y-95052657D02*
X104714286Y-95005038D01*
X104714286Y-95005038D02*
X104809524Y-94957419D01*
D10*
X96880952Y-59454819D02*
X96404762Y-59454819D01*
X96404762Y-59454819D02*
X96404762Y-58454819D01*
X97214286Y-58931009D02*
X97547619Y-58931009D01*
X97690476Y-59454819D02*
X97214286Y-59454819D01*
X97214286Y-59454819D02*
X97214286Y-58454819D01*
X97214286Y-58454819D02*
X97690476Y-58454819D01*
X98119048Y-59454819D02*
X98119048Y-58454819D01*
X98119048Y-58454819D02*
X98357143Y-58454819D01*
X98357143Y-58454819D02*
X98500000Y-58502438D01*
X98500000Y-58502438D02*
X98595238Y-58597676D01*
X98595238Y-58597676D02*
X98642857Y-58692914D01*
X98642857Y-58692914D02*
X98690476Y-58883390D01*
X98690476Y-58883390D02*
X98690476Y-59026247D01*
X98690476Y-59026247D02*
X98642857Y-59216723D01*
X98642857Y-59216723D02*
X98595238Y-59311961D01*
X98595238Y-59311961D02*
X98500000Y-59407200D01*
X98500000Y-59407200D02*
X98357143Y-59454819D01*
X98357143Y-59454819D02*
X98119048Y-59454819D01*
X99071429Y-58550057D02*
X99119048Y-58502438D01*
X99119048Y-58502438D02*
X99214286Y-58454819D01*
X99214286Y-58454819D02*
X99452381Y-58454819D01*
X99452381Y-58454819D02*
X99547619Y-58502438D01*
X99547619Y-58502438D02*
X99595238Y-58550057D01*
X99595238Y-58550057D02*
X99642857Y-58645295D01*
X99642857Y-58645295D02*
X99642857Y-58740533D01*
X99642857Y-58740533D02*
X99595238Y-58883390D01*
X99595238Y-58883390D02*
X99023810Y-59454819D01*
X99023810Y-59454819D02*
X99642857Y-59454819D01*
X75929819Y-52063094D02*
X74929819Y-52063094D01*
X74929819Y-52063094D02*
X74929819Y-51824999D01*
X74929819Y-51824999D02*
X74977438Y-51682142D01*
X74977438Y-51682142D02*
X75072676Y-51586904D01*
X75072676Y-51586904D02*
X75167914Y-51539285D01*
X75167914Y-51539285D02*
X75358390Y-51491666D01*
X75358390Y-51491666D02*
X75501247Y-51491666D01*
X75501247Y-51491666D02*
X75691723Y-51539285D01*
X75691723Y-51539285D02*
X75786961Y-51586904D01*
X75786961Y-51586904D02*
X75882200Y-51682142D01*
X75882200Y-51682142D02*
X75929819Y-51824999D01*
X75929819Y-51824999D02*
X75929819Y-52063094D01*
X75929819Y-50539285D02*
X75929819Y-51110713D01*
X75929819Y-50824999D02*
X74929819Y-50824999D01*
X74929819Y-50824999D02*
X75072676Y-50920237D01*
X75072676Y-50920237D02*
X75167914Y-51015475D01*
X75167914Y-51015475D02*
X75215533Y-51110713D01*
X97190476Y-61124819D02*
X97190476Y-61839104D01*
X97190476Y-61839104D02*
X97142857Y-61981961D01*
X97142857Y-61981961D02*
X97047619Y-62077200D01*
X97047619Y-62077200D02*
X96904762Y-62124819D01*
X96904762Y-62124819D02*
X96809524Y-62124819D01*
X97571429Y-61124819D02*
X98190476Y-61124819D01*
X98190476Y-61124819D02*
X97857143Y-61505771D01*
X97857143Y-61505771D02*
X98000000Y-61505771D01*
X98000000Y-61505771D02*
X98095238Y-61553390D01*
X98095238Y-61553390D02*
X98142857Y-61601009D01*
X98142857Y-61601009D02*
X98190476Y-61696247D01*
X98190476Y-61696247D02*
X98190476Y-61934342D01*
X98190476Y-61934342D02*
X98142857Y-62029580D01*
X98142857Y-62029580D02*
X98095238Y-62077200D01*
X98095238Y-62077200D02*
X98000000Y-62124819D01*
X98000000Y-62124819D02*
X97714286Y-62124819D01*
X97714286Y-62124819D02*
X97619048Y-62077200D01*
X97619048Y-62077200D02*
X97571429Y-62029580D01*
X98666667Y-62124819D02*
X98857143Y-62124819D01*
X98857143Y-62124819D02*
X98952381Y-62077200D01*
X98952381Y-62077200D02*
X99000000Y-62029580D01*
X99000000Y-62029580D02*
X99095238Y-61886723D01*
X99095238Y-61886723D02*
X99142857Y-61696247D01*
X99142857Y-61696247D02*
X99142857Y-61315295D01*
X99142857Y-61315295D02*
X99095238Y-61220057D01*
X99095238Y-61220057D02*
X99047619Y-61172438D01*
X99047619Y-61172438D02*
X98952381Y-61124819D01*
X98952381Y-61124819D02*
X98761905Y-61124819D01*
X98761905Y-61124819D02*
X98666667Y-61172438D01*
X98666667Y-61172438D02*
X98619048Y-61220057D01*
X98619048Y-61220057D02*
X98571429Y-61315295D01*
X98571429Y-61315295D02*
X98571429Y-61553390D01*
X98571429Y-61553390D02*
X98619048Y-61648628D01*
X98619048Y-61648628D02*
X98666667Y-61696247D01*
X98666667Y-61696247D02*
X98761905Y-61743866D01*
X98761905Y-61743866D02*
X98952381Y-61743866D01*
X98952381Y-61743866D02*
X99047619Y-61696247D01*
X99047619Y-61696247D02*
X99095238Y-61648628D01*
X99095238Y-61648628D02*
X99142857Y-61553390D01*
X123909819Y-38924523D02*
X124624104Y-38924523D01*
X124624104Y-38924523D02*
X124766961Y-38972142D01*
X124766961Y-38972142D02*
X124862200Y-39067380D01*
X124862200Y-39067380D02*
X124909819Y-39210237D01*
X124909819Y-39210237D02*
X124909819Y-39305475D01*
X123909819Y-37972142D02*
X123909819Y-38448332D01*
X123909819Y-38448332D02*
X124386009Y-38495951D01*
X124386009Y-38495951D02*
X124338390Y-38448332D01*
X124338390Y-38448332D02*
X124290771Y-38353094D01*
X124290771Y-38353094D02*
X124290771Y-38114999D01*
X124290771Y-38114999D02*
X124338390Y-38019761D01*
X124338390Y-38019761D02*
X124386009Y-37972142D01*
X124386009Y-37972142D02*
X124481247Y-37924523D01*
X124481247Y-37924523D02*
X124719342Y-37924523D01*
X124719342Y-37924523D02*
X124814580Y-37972142D01*
X124814580Y-37972142D02*
X124862200Y-38019761D01*
X124862200Y-38019761D02*
X124909819Y-38114999D01*
X124909819Y-38114999D02*
X124909819Y-38353094D01*
X124909819Y-38353094D02*
X124862200Y-38448332D01*
X124862200Y-38448332D02*
X124814580Y-38495951D01*
X124909819Y-36972142D02*
X124909819Y-37543570D01*
X124909819Y-37257856D02*
X123909819Y-37257856D01*
X123909819Y-37257856D02*
X124052676Y-37353094D01*
X124052676Y-37353094D02*
X124147914Y-37448332D01*
X124147914Y-37448332D02*
X124195533Y-37543570D01*
X173454819Y-81595238D02*
X173454819Y-82071428D01*
X173454819Y-82071428D02*
X172454819Y-82071428D01*
X172931009Y-81261904D02*
X172931009Y-80928571D01*
X173454819Y-80785714D02*
X173454819Y-81261904D01*
X173454819Y-81261904D02*
X172454819Y-81261904D01*
X172454819Y-81261904D02*
X172454819Y-80785714D01*
X173454819Y-80357142D02*
X172454819Y-80357142D01*
X172454819Y-80357142D02*
X172454819Y-80119047D01*
X172454819Y-80119047D02*
X172502438Y-79976190D01*
X172502438Y-79976190D02*
X172597676Y-79880952D01*
X172597676Y-79880952D02*
X172692914Y-79833333D01*
X172692914Y-79833333D02*
X172883390Y-79785714D01*
X172883390Y-79785714D02*
X173026247Y-79785714D01*
X173026247Y-79785714D02*
X173216723Y-79833333D01*
X173216723Y-79833333D02*
X173311961Y-79880952D01*
X173311961Y-79880952D02*
X173407200Y-79976190D01*
X173407200Y-79976190D02*
X173454819Y-80119047D01*
X173454819Y-80119047D02*
X173454819Y-80357142D01*
X173454819Y-78833333D02*
X173454819Y-79404761D01*
X173454819Y-79119047D02*
X172454819Y-79119047D01*
X172454819Y-79119047D02*
X172597676Y-79214285D01*
X172597676Y-79214285D02*
X172692914Y-79309523D01*
X172692914Y-79309523D02*
X172740533Y-79404761D01*
X173454819Y-77880952D02*
X173454819Y-78452380D01*
X173454819Y-78166666D02*
X172454819Y-78166666D01*
X172454819Y-78166666D02*
X172597676Y-78261904D01*
X172597676Y-78261904D02*
X172692914Y-78357142D01*
X172692914Y-78357142D02*
X172740533Y-78452380D01*
X89763095Y-76642200D02*
X89905952Y-76689819D01*
X89905952Y-76689819D02*
X90144047Y-76689819D01*
X90144047Y-76689819D02*
X90239285Y-76642200D01*
X90239285Y-76642200D02*
X90286904Y-76594580D01*
X90286904Y-76594580D02*
X90334523Y-76499342D01*
X90334523Y-76499342D02*
X90334523Y-76404104D01*
X90334523Y-76404104D02*
X90286904Y-76308866D01*
X90286904Y-76308866D02*
X90239285Y-76261247D01*
X90239285Y-76261247D02*
X90144047Y-76213628D01*
X90144047Y-76213628D02*
X89953571Y-76166009D01*
X89953571Y-76166009D02*
X89858333Y-76118390D01*
X89858333Y-76118390D02*
X89810714Y-76070771D01*
X89810714Y-76070771D02*
X89763095Y-75975533D01*
X89763095Y-75975533D02*
X89763095Y-75880295D01*
X89763095Y-75880295D02*
X89810714Y-75785057D01*
X89810714Y-75785057D02*
X89858333Y-75737438D01*
X89858333Y-75737438D02*
X89953571Y-75689819D01*
X89953571Y-75689819D02*
X90191666Y-75689819D01*
X90191666Y-75689819D02*
X90334523Y-75737438D01*
X91286904Y-76689819D02*
X90715476Y-76689819D01*
X91001190Y-76689819D02*
X91001190Y-75689819D01*
X91001190Y-75689819D02*
X90905952Y-75832676D01*
X90905952Y-75832676D02*
X90810714Y-75927914D01*
X90810714Y-75927914D02*
X90715476Y-75975533D01*
D11*
X119190476Y-110957419D02*
X119190476Y-111671704D01*
X119190476Y-111671704D02*
X119142857Y-111814561D01*
X119142857Y-111814561D02*
X119047619Y-111909800D01*
X119047619Y-111909800D02*
X118904762Y-111957419D01*
X118904762Y-111957419D02*
X118809524Y-111957419D01*
X120190476Y-111957419D02*
X119619048Y-111957419D01*
X119904762Y-111957419D02*
X119904762Y-110957419D01*
X119904762Y-110957419D02*
X119809524Y-111100276D01*
X119809524Y-111100276D02*
X119714286Y-111195514D01*
X119714286Y-111195514D02*
X119619048Y-111243133D01*
X120523810Y-110957419D02*
X121190476Y-110957419D01*
X121190476Y-110957419D02*
X120761905Y-111957419D01*
D10*
X93813333Y-113104819D02*
X93480000Y-112628628D01*
X93241905Y-113104819D02*
X93241905Y-112104819D01*
X93241905Y-112104819D02*
X93622857Y-112104819D01*
X93622857Y-112104819D02*
X93718095Y-112152438D01*
X93718095Y-112152438D02*
X93765714Y-112200057D01*
X93765714Y-112200057D02*
X93813333Y-112295295D01*
X93813333Y-112295295D02*
X93813333Y-112438152D01*
X93813333Y-112438152D02*
X93765714Y-112533390D01*
X93765714Y-112533390D02*
X93718095Y-112581009D01*
X93718095Y-112581009D02*
X93622857Y-112628628D01*
X93622857Y-112628628D02*
X93241905Y-112628628D01*
X94384762Y-112533390D02*
X94289524Y-112485771D01*
X94289524Y-112485771D02*
X94241905Y-112438152D01*
X94241905Y-112438152D02*
X94194286Y-112342914D01*
X94194286Y-112342914D02*
X94194286Y-112295295D01*
X94194286Y-112295295D02*
X94241905Y-112200057D01*
X94241905Y-112200057D02*
X94289524Y-112152438D01*
X94289524Y-112152438D02*
X94384762Y-112104819D01*
X94384762Y-112104819D02*
X94575238Y-112104819D01*
X94575238Y-112104819D02*
X94670476Y-112152438D01*
X94670476Y-112152438D02*
X94718095Y-112200057D01*
X94718095Y-112200057D02*
X94765714Y-112295295D01*
X94765714Y-112295295D02*
X94765714Y-112342914D01*
X94765714Y-112342914D02*
X94718095Y-112438152D01*
X94718095Y-112438152D02*
X94670476Y-112485771D01*
X94670476Y-112485771D02*
X94575238Y-112533390D01*
X94575238Y-112533390D02*
X94384762Y-112533390D01*
X94384762Y-112533390D02*
X94289524Y-112581009D01*
X94289524Y-112581009D02*
X94241905Y-112628628D01*
X94241905Y-112628628D02*
X94194286Y-112723866D01*
X94194286Y-112723866D02*
X94194286Y-112914342D01*
X94194286Y-112914342D02*
X94241905Y-113009580D01*
X94241905Y-113009580D02*
X94289524Y-113057200D01*
X94289524Y-113057200D02*
X94384762Y-113104819D01*
X94384762Y-113104819D02*
X94575238Y-113104819D01*
X94575238Y-113104819D02*
X94670476Y-113057200D01*
X94670476Y-113057200D02*
X94718095Y-113009580D01*
X94718095Y-113009580D02*
X94765714Y-112914342D01*
X94765714Y-112914342D02*
X94765714Y-112723866D01*
X94765714Y-112723866D02*
X94718095Y-112628628D01*
X94718095Y-112628628D02*
X94670476Y-112581009D01*
X94670476Y-112581009D02*
X94575238Y-112533390D01*
D11*
X103666666Y-62957419D02*
X103666666Y-63671704D01*
X103666666Y-63671704D02*
X103619047Y-63814561D01*
X103619047Y-63814561D02*
X103523809Y-63909800D01*
X103523809Y-63909800D02*
X103380952Y-63957419D01*
X103380952Y-63957419D02*
X103285714Y-63957419D01*
X104285714Y-63385990D02*
X104190476Y-63338371D01*
X104190476Y-63338371D02*
X104142857Y-63290752D01*
X104142857Y-63290752D02*
X104095238Y-63195514D01*
X104095238Y-63195514D02*
X104095238Y-63147895D01*
X104095238Y-63147895D02*
X104142857Y-63052657D01*
X104142857Y-63052657D02*
X104190476Y-63005038D01*
X104190476Y-63005038D02*
X104285714Y-62957419D01*
X104285714Y-62957419D02*
X104476190Y-62957419D01*
X104476190Y-62957419D02*
X104571428Y-63005038D01*
X104571428Y-63005038D02*
X104619047Y-63052657D01*
X104619047Y-63052657D02*
X104666666Y-63147895D01*
X104666666Y-63147895D02*
X104666666Y-63195514D01*
X104666666Y-63195514D02*
X104619047Y-63290752D01*
X104619047Y-63290752D02*
X104571428Y-63338371D01*
X104571428Y-63338371D02*
X104476190Y-63385990D01*
X104476190Y-63385990D02*
X104285714Y-63385990D01*
X104285714Y-63385990D02*
X104190476Y-63433609D01*
X104190476Y-63433609D02*
X104142857Y-63481228D01*
X104142857Y-63481228D02*
X104095238Y-63576466D01*
X104095238Y-63576466D02*
X104095238Y-63766942D01*
X104095238Y-63766942D02*
X104142857Y-63862180D01*
X104142857Y-63862180D02*
X104190476Y-63909800D01*
X104190476Y-63909800D02*
X104285714Y-63957419D01*
X104285714Y-63957419D02*
X104476190Y-63957419D01*
X104476190Y-63957419D02*
X104571428Y-63909800D01*
X104571428Y-63909800D02*
X104619047Y-63862180D01*
X104619047Y-63862180D02*
X104666666Y-63766942D01*
X104666666Y-63766942D02*
X104666666Y-63576466D01*
X104666666Y-63576466D02*
X104619047Y-63481228D01*
X104619047Y-63481228D02*
X104571428Y-63433609D01*
X104571428Y-63433609D02*
X104476190Y-63385990D01*
D10*
X97190476Y-109124819D02*
X97190476Y-109839104D01*
X97190476Y-109839104D02*
X97142857Y-109981961D01*
X97142857Y-109981961D02*
X97047619Y-110077200D01*
X97047619Y-110077200D02*
X96904762Y-110124819D01*
X96904762Y-110124819D02*
X96809524Y-110124819D01*
X98095238Y-109458152D02*
X98095238Y-110124819D01*
X97857143Y-109077200D02*
X97619048Y-109791485D01*
X97619048Y-109791485D02*
X98238095Y-109791485D01*
X98571429Y-109220057D02*
X98619048Y-109172438D01*
X98619048Y-109172438D02*
X98714286Y-109124819D01*
X98714286Y-109124819D02*
X98952381Y-109124819D01*
X98952381Y-109124819D02*
X99047619Y-109172438D01*
X99047619Y-109172438D02*
X99095238Y-109220057D01*
X99095238Y-109220057D02*
X99142857Y-109315295D01*
X99142857Y-109315295D02*
X99142857Y-109410533D01*
X99142857Y-109410533D02*
X99095238Y-109553390D01*
X99095238Y-109553390D02*
X98523810Y-110124819D01*
X98523810Y-110124819D02*
X99142857Y-110124819D01*
X99119047Y-90545180D02*
X99595237Y-90545180D01*
X99595237Y-90545180D02*
X99595237Y-91545180D01*
X98785713Y-91068990D02*
X98452380Y-91068990D01*
X98309523Y-90545180D02*
X98785713Y-90545180D01*
X98785713Y-90545180D02*
X98785713Y-91545180D01*
X98785713Y-91545180D02*
X98309523Y-91545180D01*
X97880951Y-90545180D02*
X97880951Y-91545180D01*
X97880951Y-91545180D02*
X97642856Y-91545180D01*
X97642856Y-91545180D02*
X97499999Y-91497561D01*
X97499999Y-91497561D02*
X97404761Y-91402323D01*
X97404761Y-91402323D02*
X97357142Y-91307085D01*
X97357142Y-91307085D02*
X97309523Y-91116609D01*
X97309523Y-91116609D02*
X97309523Y-90973752D01*
X97309523Y-90973752D02*
X97357142Y-90783276D01*
X97357142Y-90783276D02*
X97404761Y-90688038D01*
X97404761Y-90688038D02*
X97499999Y-90592800D01*
X97499999Y-90592800D02*
X97642856Y-90545180D01*
X97642856Y-90545180D02*
X97880951Y-90545180D01*
X96452380Y-91211847D02*
X96452380Y-90545180D01*
X96690475Y-91592800D02*
X96928570Y-90878514D01*
X96928570Y-90878514D02*
X96309523Y-90878514D01*
X172857142Y-100804819D02*
X172523809Y-100328628D01*
X172285714Y-100804819D02*
X172285714Y-99804819D01*
X172285714Y-99804819D02*
X172666666Y-99804819D01*
X172666666Y-99804819D02*
X172761904Y-99852438D01*
X172761904Y-99852438D02*
X172809523Y-99900057D01*
X172809523Y-99900057D02*
X172857142Y-99995295D01*
X172857142Y-99995295D02*
X172857142Y-100138152D01*
X172857142Y-100138152D02*
X172809523Y-100233390D01*
X172809523Y-100233390D02*
X172761904Y-100281009D01*
X172761904Y-100281009D02*
X172666666Y-100328628D01*
X172666666Y-100328628D02*
X172285714Y-100328628D01*
X173809523Y-100804819D02*
X173238095Y-100804819D01*
X173523809Y-100804819D02*
X173523809Y-99804819D01*
X173523809Y-99804819D02*
X173428571Y-99947676D01*
X173428571Y-99947676D02*
X173333333Y-100042914D01*
X173333333Y-100042914D02*
X173238095Y-100090533D01*
X174714285Y-99804819D02*
X174238095Y-99804819D01*
X174238095Y-99804819D02*
X174190476Y-100281009D01*
X174190476Y-100281009D02*
X174238095Y-100233390D01*
X174238095Y-100233390D02*
X174333333Y-100185771D01*
X174333333Y-100185771D02*
X174571428Y-100185771D01*
X174571428Y-100185771D02*
X174666666Y-100233390D01*
X174666666Y-100233390D02*
X174714285Y-100281009D01*
X174714285Y-100281009D02*
X174761904Y-100376247D01*
X174761904Y-100376247D02*
X174761904Y-100614342D01*
X174761904Y-100614342D02*
X174714285Y-100709580D01*
X174714285Y-100709580D02*
X174666666Y-100757200D01*
X174666666Y-100757200D02*
X174571428Y-100804819D01*
X174571428Y-100804819D02*
X174333333Y-100804819D01*
X174333333Y-100804819D02*
X174238095Y-100757200D01*
X174238095Y-100757200D02*
X174190476Y-100709580D01*
X105374819Y-38924523D02*
X106089104Y-38924523D01*
X106089104Y-38924523D02*
X106231961Y-38972142D01*
X106231961Y-38972142D02*
X106327200Y-39067380D01*
X106327200Y-39067380D02*
X106374819Y-39210237D01*
X106374819Y-39210237D02*
X106374819Y-39305475D01*
X105374819Y-37972142D02*
X105374819Y-38448332D01*
X105374819Y-38448332D02*
X105851009Y-38495951D01*
X105851009Y-38495951D02*
X105803390Y-38448332D01*
X105803390Y-38448332D02*
X105755771Y-38353094D01*
X105755771Y-38353094D02*
X105755771Y-38114999D01*
X105755771Y-38114999D02*
X105803390Y-38019761D01*
X105803390Y-38019761D02*
X105851009Y-37972142D01*
X105851009Y-37972142D02*
X105946247Y-37924523D01*
X105946247Y-37924523D02*
X106184342Y-37924523D01*
X106184342Y-37924523D02*
X106279580Y-37972142D01*
X106279580Y-37972142D02*
X106327200Y-38019761D01*
X106327200Y-38019761D02*
X106374819Y-38114999D01*
X106374819Y-38114999D02*
X106374819Y-38353094D01*
X106374819Y-38353094D02*
X106327200Y-38448332D01*
X106327200Y-38448332D02*
X106279580Y-38495951D01*
X106374819Y-37448332D02*
X106374819Y-37257856D01*
X106374819Y-37257856D02*
X106327200Y-37162618D01*
X106327200Y-37162618D02*
X106279580Y-37114999D01*
X106279580Y-37114999D02*
X106136723Y-37019761D01*
X106136723Y-37019761D02*
X105946247Y-36972142D01*
X105946247Y-36972142D02*
X105565295Y-36972142D01*
X105565295Y-36972142D02*
X105470057Y-37019761D01*
X105470057Y-37019761D02*
X105422438Y-37067380D01*
X105422438Y-37067380D02*
X105374819Y-37162618D01*
X105374819Y-37162618D02*
X105374819Y-37353094D01*
X105374819Y-37353094D02*
X105422438Y-37448332D01*
X105422438Y-37448332D02*
X105470057Y-37495951D01*
X105470057Y-37495951D02*
X105565295Y-37543570D01*
X105565295Y-37543570D02*
X105803390Y-37543570D01*
X105803390Y-37543570D02*
X105898628Y-37495951D01*
X105898628Y-37495951D02*
X105946247Y-37448332D01*
X105946247Y-37448332D02*
X105993866Y-37353094D01*
X105993866Y-37353094D02*
X105993866Y-37162618D01*
X105993866Y-37162618D02*
X105946247Y-37067380D01*
X105946247Y-37067380D02*
X105898628Y-37019761D01*
X105898628Y-37019761D02*
X105803390Y-36972142D01*
X93813333Y-123264819D02*
X93480000Y-122788628D01*
X93241905Y-123264819D02*
X93241905Y-122264819D01*
X93241905Y-122264819D02*
X93622857Y-122264819D01*
X93622857Y-122264819D02*
X93718095Y-122312438D01*
X93718095Y-122312438D02*
X93765714Y-122360057D01*
X93765714Y-122360057D02*
X93813333Y-122455295D01*
X93813333Y-122455295D02*
X93813333Y-122598152D01*
X93813333Y-122598152D02*
X93765714Y-122693390D01*
X93765714Y-122693390D02*
X93718095Y-122741009D01*
X93718095Y-122741009D02*
X93622857Y-122788628D01*
X93622857Y-122788628D02*
X93241905Y-122788628D01*
X94289524Y-123264819D02*
X94480000Y-123264819D01*
X94480000Y-123264819D02*
X94575238Y-123217200D01*
X94575238Y-123217200D02*
X94622857Y-123169580D01*
X94622857Y-123169580D02*
X94718095Y-123026723D01*
X94718095Y-123026723D02*
X94765714Y-122836247D01*
X94765714Y-122836247D02*
X94765714Y-122455295D01*
X94765714Y-122455295D02*
X94718095Y-122360057D01*
X94718095Y-122360057D02*
X94670476Y-122312438D01*
X94670476Y-122312438D02*
X94575238Y-122264819D01*
X94575238Y-122264819D02*
X94384762Y-122264819D01*
X94384762Y-122264819D02*
X94289524Y-122312438D01*
X94289524Y-122312438D02*
X94241905Y-122360057D01*
X94241905Y-122360057D02*
X94194286Y-122455295D01*
X94194286Y-122455295D02*
X94194286Y-122693390D01*
X94194286Y-122693390D02*
X94241905Y-122788628D01*
X94241905Y-122788628D02*
X94289524Y-122836247D01*
X94289524Y-122836247D02*
X94384762Y-122883866D01*
X94384762Y-122883866D02*
X94575238Y-122883866D01*
X94575238Y-122883866D02*
X94670476Y-122836247D01*
X94670476Y-122836247D02*
X94718095Y-122788628D01*
X94718095Y-122788628D02*
X94765714Y-122693390D01*
X91604819Y-77742857D02*
X91128628Y-78076190D01*
X91604819Y-78314285D02*
X90604819Y-78314285D01*
X90604819Y-78314285D02*
X90604819Y-77933333D01*
X90604819Y-77933333D02*
X90652438Y-77838095D01*
X90652438Y-77838095D02*
X90700057Y-77790476D01*
X90700057Y-77790476D02*
X90795295Y-77742857D01*
X90795295Y-77742857D02*
X90938152Y-77742857D01*
X90938152Y-77742857D02*
X91033390Y-77790476D01*
X91033390Y-77790476D02*
X91081009Y-77838095D01*
X91081009Y-77838095D02*
X91128628Y-77933333D01*
X91128628Y-77933333D02*
X91128628Y-78314285D01*
X90700057Y-77361904D02*
X90652438Y-77314285D01*
X90652438Y-77314285D02*
X90604819Y-77219047D01*
X90604819Y-77219047D02*
X90604819Y-76980952D01*
X90604819Y-76980952D02*
X90652438Y-76885714D01*
X90652438Y-76885714D02*
X90700057Y-76838095D01*
X90700057Y-76838095D02*
X90795295Y-76790476D01*
X90795295Y-76790476D02*
X90890533Y-76790476D01*
X90890533Y-76790476D02*
X91033390Y-76838095D01*
X91033390Y-76838095D02*
X91604819Y-77409523D01*
X91604819Y-77409523D02*
X91604819Y-76790476D01*
X91604819Y-75838095D02*
X91604819Y-76409523D01*
X91604819Y-76123809D02*
X90604819Y-76123809D01*
X90604819Y-76123809D02*
X90747676Y-76219047D01*
X90747676Y-76219047D02*
X90842914Y-76314285D01*
X90842914Y-76314285D02*
X90890533Y-76409523D01*
D11*
X151190476Y-94957419D02*
X151190476Y-95671704D01*
X151190476Y-95671704D02*
X151142857Y-95814561D01*
X151142857Y-95814561D02*
X151047619Y-95909800D01*
X151047619Y-95909800D02*
X150904762Y-95957419D01*
X150904762Y-95957419D02*
X150809524Y-95957419D01*
X151619048Y-95052657D02*
X151666667Y-95005038D01*
X151666667Y-95005038D02*
X151761905Y-94957419D01*
X151761905Y-94957419D02*
X152000000Y-94957419D01*
X152000000Y-94957419D02*
X152095238Y-95005038D01*
X152095238Y-95005038D02*
X152142857Y-95052657D01*
X152142857Y-95052657D02*
X152190476Y-95147895D01*
X152190476Y-95147895D02*
X152190476Y-95243133D01*
X152190476Y-95243133D02*
X152142857Y-95385990D01*
X152142857Y-95385990D02*
X151571429Y-95957419D01*
X151571429Y-95957419D02*
X152190476Y-95957419D01*
X152761905Y-95385990D02*
X152666667Y-95338371D01*
X152666667Y-95338371D02*
X152619048Y-95290752D01*
X152619048Y-95290752D02*
X152571429Y-95195514D01*
X152571429Y-95195514D02*
X152571429Y-95147895D01*
X152571429Y-95147895D02*
X152619048Y-95052657D01*
X152619048Y-95052657D02*
X152666667Y-95005038D01*
X152666667Y-95005038D02*
X152761905Y-94957419D01*
X152761905Y-94957419D02*
X152952381Y-94957419D01*
X152952381Y-94957419D02*
X153047619Y-95005038D01*
X153047619Y-95005038D02*
X153095238Y-95052657D01*
X153095238Y-95052657D02*
X153142857Y-95147895D01*
X153142857Y-95147895D02*
X153142857Y-95195514D01*
X153142857Y-95195514D02*
X153095238Y-95290752D01*
X153095238Y-95290752D02*
X153047619Y-95338371D01*
X153047619Y-95338371D02*
X152952381Y-95385990D01*
X152952381Y-95385990D02*
X152761905Y-95385990D01*
X152761905Y-95385990D02*
X152666667Y-95433609D01*
X152666667Y-95433609D02*
X152619048Y-95481228D01*
X152619048Y-95481228D02*
X152571429Y-95576466D01*
X152571429Y-95576466D02*
X152571429Y-95766942D01*
X152571429Y-95766942D02*
X152619048Y-95862180D01*
X152619048Y-95862180D02*
X152666667Y-95909800D01*
X152666667Y-95909800D02*
X152761905Y-95957419D01*
X152761905Y-95957419D02*
X152952381Y-95957419D01*
X152952381Y-95957419D02*
X153047619Y-95909800D01*
X153047619Y-95909800D02*
X153095238Y-95862180D01*
X153095238Y-95862180D02*
X153142857Y-95766942D01*
X153142857Y-95766942D02*
X153142857Y-95576466D01*
X153142857Y-95576466D02*
X153095238Y-95481228D01*
X153095238Y-95481228D02*
X153047619Y-95433609D01*
X153047619Y-95433609D02*
X152952381Y-95385990D01*
D10*
X172077142Y-133424819D02*
X171743809Y-132948628D01*
X171505714Y-133424819D02*
X171505714Y-132424819D01*
X171505714Y-132424819D02*
X171886666Y-132424819D01*
X171886666Y-132424819D02*
X171981904Y-132472438D01*
X171981904Y-132472438D02*
X172029523Y-132520057D01*
X172029523Y-132520057D02*
X172077142Y-132615295D01*
X172077142Y-132615295D02*
X172077142Y-132758152D01*
X172077142Y-132758152D02*
X172029523Y-132853390D01*
X172029523Y-132853390D02*
X171981904Y-132901009D01*
X171981904Y-132901009D02*
X171886666Y-132948628D01*
X171886666Y-132948628D02*
X171505714Y-132948628D01*
X173029523Y-133424819D02*
X172458095Y-133424819D01*
X172743809Y-133424819D02*
X172743809Y-132424819D01*
X172743809Y-132424819D02*
X172648571Y-132567676D01*
X172648571Y-132567676D02*
X172553333Y-132662914D01*
X172553333Y-132662914D02*
X172458095Y-132710533D01*
X173362857Y-132424819D02*
X174029523Y-132424819D01*
X174029523Y-132424819D02*
X173600952Y-133424819D01*
X94434819Y-112879047D02*
X94434819Y-113355237D01*
X94434819Y-113355237D02*
X93434819Y-113355237D01*
X93911009Y-112545713D02*
X93911009Y-112212380D01*
X94434819Y-112069523D02*
X94434819Y-112545713D01*
X94434819Y-112545713D02*
X93434819Y-112545713D01*
X93434819Y-112545713D02*
X93434819Y-112069523D01*
X94434819Y-111640951D02*
X93434819Y-111640951D01*
X93434819Y-111640951D02*
X93434819Y-111402856D01*
X93434819Y-111402856D02*
X93482438Y-111259999D01*
X93482438Y-111259999D02*
X93577676Y-111164761D01*
X93577676Y-111164761D02*
X93672914Y-111117142D01*
X93672914Y-111117142D02*
X93863390Y-111069523D01*
X93863390Y-111069523D02*
X94006247Y-111069523D01*
X94006247Y-111069523D02*
X94196723Y-111117142D01*
X94196723Y-111117142D02*
X94291961Y-111164761D01*
X94291961Y-111164761D02*
X94387200Y-111259999D01*
X94387200Y-111259999D02*
X94434819Y-111402856D01*
X94434819Y-111402856D02*
X94434819Y-111640951D01*
X93434819Y-110164761D02*
X93434819Y-110640951D01*
X93434819Y-110640951D02*
X93911009Y-110688570D01*
X93911009Y-110688570D02*
X93863390Y-110640951D01*
X93863390Y-110640951D02*
X93815771Y-110545713D01*
X93815771Y-110545713D02*
X93815771Y-110307618D01*
X93815771Y-110307618D02*
X93863390Y-110212380D01*
X93863390Y-110212380D02*
X93911009Y-110164761D01*
X93911009Y-110164761D02*
X94006247Y-110117142D01*
X94006247Y-110117142D02*
X94244342Y-110117142D01*
X94244342Y-110117142D02*
X94339580Y-110164761D01*
X94339580Y-110164761D02*
X94387200Y-110212380D01*
X94387200Y-110212380D02*
X94434819Y-110307618D01*
X94434819Y-110307618D02*
X94434819Y-110545713D01*
X94434819Y-110545713D02*
X94387200Y-110640951D01*
X94387200Y-110640951D02*
X94339580Y-110688570D01*
D11*
X103190476Y-110957419D02*
X103190476Y-111671704D01*
X103190476Y-111671704D02*
X103142857Y-111814561D01*
X103142857Y-111814561D02*
X103047619Y-111909800D01*
X103047619Y-111909800D02*
X102904762Y-111957419D01*
X102904762Y-111957419D02*
X102809524Y-111957419D01*
X104190476Y-111957419D02*
X103619048Y-111957419D01*
X103904762Y-111957419D02*
X103904762Y-110957419D01*
X103904762Y-110957419D02*
X103809524Y-111100276D01*
X103809524Y-111100276D02*
X103714286Y-111195514D01*
X103714286Y-111195514D02*
X103619048Y-111243133D01*
X105142857Y-111957419D02*
X104571429Y-111957419D01*
X104857143Y-111957419D02*
X104857143Y-110957419D01*
X104857143Y-110957419D02*
X104761905Y-111100276D01*
X104761905Y-111100276D02*
X104666667Y-111195514D01*
X104666667Y-111195514D02*
X104571429Y-111243133D01*
D10*
X171524819Y-53982857D02*
X171048628Y-54316190D01*
X171524819Y-54554285D02*
X170524819Y-54554285D01*
X170524819Y-54554285D02*
X170524819Y-54173333D01*
X170524819Y-54173333D02*
X170572438Y-54078095D01*
X170572438Y-54078095D02*
X170620057Y-54030476D01*
X170620057Y-54030476D02*
X170715295Y-53982857D01*
X170715295Y-53982857D02*
X170858152Y-53982857D01*
X170858152Y-53982857D02*
X170953390Y-54030476D01*
X170953390Y-54030476D02*
X171001009Y-54078095D01*
X171001009Y-54078095D02*
X171048628Y-54173333D01*
X171048628Y-54173333D02*
X171048628Y-54554285D01*
X171524819Y-53030476D02*
X171524819Y-53601904D01*
X171524819Y-53316190D02*
X170524819Y-53316190D01*
X170524819Y-53316190D02*
X170667676Y-53411428D01*
X170667676Y-53411428D02*
X170762914Y-53506666D01*
X170762914Y-53506666D02*
X170810533Y-53601904D01*
X170620057Y-52649523D02*
X170572438Y-52601904D01*
X170572438Y-52601904D02*
X170524819Y-52506666D01*
X170524819Y-52506666D02*
X170524819Y-52268571D01*
X170524819Y-52268571D02*
X170572438Y-52173333D01*
X170572438Y-52173333D02*
X170620057Y-52125714D01*
X170620057Y-52125714D02*
X170715295Y-52078095D01*
X170715295Y-52078095D02*
X170810533Y-52078095D01*
X170810533Y-52078095D02*
X170953390Y-52125714D01*
X170953390Y-52125714D02*
X171524819Y-52697142D01*
X171524819Y-52697142D02*
X171524819Y-52078095D01*
X174190476Y-92684819D02*
X174190476Y-93399104D01*
X174190476Y-93399104D02*
X174142857Y-93541961D01*
X174142857Y-93541961D02*
X174047619Y-93637200D01*
X174047619Y-93637200D02*
X173904762Y-93684819D01*
X173904762Y-93684819D02*
X173809524Y-93684819D01*
X175142857Y-92684819D02*
X174666667Y-92684819D01*
X174666667Y-92684819D02*
X174619048Y-93161009D01*
X174619048Y-93161009D02*
X174666667Y-93113390D01*
X174666667Y-93113390D02*
X174761905Y-93065771D01*
X174761905Y-93065771D02*
X175000000Y-93065771D01*
X175000000Y-93065771D02*
X175095238Y-93113390D01*
X175095238Y-93113390D02*
X175142857Y-93161009D01*
X175142857Y-93161009D02*
X175190476Y-93256247D01*
X175190476Y-93256247D02*
X175190476Y-93494342D01*
X175190476Y-93494342D02*
X175142857Y-93589580D01*
X175142857Y-93589580D02*
X175095238Y-93637200D01*
X175095238Y-93637200D02*
X175000000Y-93684819D01*
X175000000Y-93684819D02*
X174761905Y-93684819D01*
X174761905Y-93684819D02*
X174666667Y-93637200D01*
X174666667Y-93637200D02*
X174619048Y-93589580D01*
X176047619Y-93018152D02*
X176047619Y-93684819D01*
X175809524Y-92637200D02*
X175571429Y-93351485D01*
X175571429Y-93351485D02*
X176190476Y-93351485D01*
D11*
X135190476Y-110957419D02*
X135190476Y-111671704D01*
X135190476Y-111671704D02*
X135142857Y-111814561D01*
X135142857Y-111814561D02*
X135047619Y-111909800D01*
X135047619Y-111909800D02*
X134904762Y-111957419D01*
X134904762Y-111957419D02*
X134809524Y-111957419D01*
X135619048Y-111052657D02*
X135666667Y-111005038D01*
X135666667Y-111005038D02*
X135761905Y-110957419D01*
X135761905Y-110957419D02*
X136000000Y-110957419D01*
X136000000Y-110957419D02*
X136095238Y-111005038D01*
X136095238Y-111005038D02*
X136142857Y-111052657D01*
X136142857Y-111052657D02*
X136190476Y-111147895D01*
X136190476Y-111147895D02*
X136190476Y-111243133D01*
X136190476Y-111243133D02*
X136142857Y-111385990D01*
X136142857Y-111385990D02*
X135571429Y-111957419D01*
X135571429Y-111957419D02*
X136190476Y-111957419D01*
X136523810Y-110957419D02*
X137142857Y-110957419D01*
X137142857Y-110957419D02*
X136809524Y-111338371D01*
X136809524Y-111338371D02*
X136952381Y-111338371D01*
X136952381Y-111338371D02*
X137047619Y-111385990D01*
X137047619Y-111385990D02*
X137095238Y-111433609D01*
X137095238Y-111433609D02*
X137142857Y-111528847D01*
X137142857Y-111528847D02*
X137142857Y-111766942D01*
X137142857Y-111766942D02*
X137095238Y-111862180D01*
X137095238Y-111862180D02*
X137047619Y-111909800D01*
X137047619Y-111909800D02*
X136952381Y-111957419D01*
X136952381Y-111957419D02*
X136666667Y-111957419D01*
X136666667Y-111957419D02*
X136571429Y-111909800D01*
X136571429Y-111909800D02*
X136523810Y-111862180D01*
X135190476Y-62957419D02*
X135190476Y-63671704D01*
X135190476Y-63671704D02*
X135142857Y-63814561D01*
X135142857Y-63814561D02*
X135047619Y-63909800D01*
X135047619Y-63909800D02*
X134904762Y-63957419D01*
X134904762Y-63957419D02*
X134809524Y-63957419D01*
X135619048Y-63052657D02*
X135666667Y-63005038D01*
X135666667Y-63005038D02*
X135761905Y-62957419D01*
X135761905Y-62957419D02*
X136000000Y-62957419D01*
X136000000Y-62957419D02*
X136095238Y-63005038D01*
X136095238Y-63005038D02*
X136142857Y-63052657D01*
X136142857Y-63052657D02*
X136190476Y-63147895D01*
X136190476Y-63147895D02*
X136190476Y-63243133D01*
X136190476Y-63243133D02*
X136142857Y-63385990D01*
X136142857Y-63385990D02*
X135571429Y-63957419D01*
X135571429Y-63957419D02*
X136190476Y-63957419D01*
X136809524Y-62957419D02*
X136904762Y-62957419D01*
X136904762Y-62957419D02*
X137000000Y-63005038D01*
X137000000Y-63005038D02*
X137047619Y-63052657D01*
X137047619Y-63052657D02*
X137095238Y-63147895D01*
X137095238Y-63147895D02*
X137142857Y-63338371D01*
X137142857Y-63338371D02*
X137142857Y-63576466D01*
X137142857Y-63576466D02*
X137095238Y-63766942D01*
X137095238Y-63766942D02*
X137047619Y-63862180D01*
X137047619Y-63862180D02*
X137000000Y-63909800D01*
X137000000Y-63909800D02*
X136904762Y-63957419D01*
X136904762Y-63957419D02*
X136809524Y-63957419D01*
X136809524Y-63957419D02*
X136714286Y-63909800D01*
X136714286Y-63909800D02*
X136666667Y-63862180D01*
X136666667Y-63862180D02*
X136619048Y-63766942D01*
X136619048Y-63766942D02*
X136571429Y-63576466D01*
X136571429Y-63576466D02*
X136571429Y-63338371D01*
X136571429Y-63338371D02*
X136619048Y-63147895D01*
X136619048Y-63147895D02*
X136666667Y-63052657D01*
X136666667Y-63052657D02*
X136714286Y-63005038D01*
X136714286Y-63005038D02*
X136809524Y-62957419D01*
X135190476Y-46957419D02*
X135190476Y-47671704D01*
X135190476Y-47671704D02*
X135142857Y-47814561D01*
X135142857Y-47814561D02*
X135047619Y-47909800D01*
X135047619Y-47909800D02*
X134904762Y-47957419D01*
X134904762Y-47957419D02*
X134809524Y-47957419D01*
X136190476Y-47957419D02*
X135619048Y-47957419D01*
X135904762Y-47957419D02*
X135904762Y-46957419D01*
X135904762Y-46957419D02*
X135809524Y-47100276D01*
X135809524Y-47100276D02*
X135714286Y-47195514D01*
X135714286Y-47195514D02*
X135619048Y-47243133D01*
X136666667Y-47957419D02*
X136857143Y-47957419D01*
X136857143Y-47957419D02*
X136952381Y-47909800D01*
X136952381Y-47909800D02*
X137000000Y-47862180D01*
X137000000Y-47862180D02*
X137095238Y-47719323D01*
X137095238Y-47719323D02*
X137142857Y-47528847D01*
X137142857Y-47528847D02*
X137142857Y-47147895D01*
X137142857Y-47147895D02*
X137095238Y-47052657D01*
X137095238Y-47052657D02*
X137047619Y-47005038D01*
X137047619Y-47005038D02*
X136952381Y-46957419D01*
X136952381Y-46957419D02*
X136761905Y-46957419D01*
X136761905Y-46957419D02*
X136666667Y-47005038D01*
X136666667Y-47005038D02*
X136619048Y-47052657D01*
X136619048Y-47052657D02*
X136571429Y-47147895D01*
X136571429Y-47147895D02*
X136571429Y-47385990D01*
X136571429Y-47385990D02*
X136619048Y-47481228D01*
X136619048Y-47481228D02*
X136666667Y-47528847D01*
X136666667Y-47528847D02*
X136761905Y-47576466D01*
X136761905Y-47576466D02*
X136952381Y-47576466D01*
X136952381Y-47576466D02*
X137047619Y-47528847D01*
X137047619Y-47528847D02*
X137095238Y-47481228D01*
X137095238Y-47481228D02*
X137142857Y-47385990D01*
X103190476Y-126957419D02*
X103190476Y-127671704D01*
X103190476Y-127671704D02*
X103142857Y-127814561D01*
X103142857Y-127814561D02*
X103047619Y-127909800D01*
X103047619Y-127909800D02*
X102904762Y-127957419D01*
X102904762Y-127957419D02*
X102809524Y-127957419D01*
X104190476Y-127957419D02*
X103619048Y-127957419D01*
X103904762Y-127957419D02*
X103904762Y-126957419D01*
X103904762Y-126957419D02*
X103809524Y-127100276D01*
X103809524Y-127100276D02*
X103714286Y-127195514D01*
X103714286Y-127195514D02*
X103619048Y-127243133D01*
X104571429Y-127052657D02*
X104619048Y-127005038D01*
X104619048Y-127005038D02*
X104714286Y-126957419D01*
X104714286Y-126957419D02*
X104952381Y-126957419D01*
X104952381Y-126957419D02*
X105047619Y-127005038D01*
X105047619Y-127005038D02*
X105095238Y-127052657D01*
X105095238Y-127052657D02*
X105142857Y-127147895D01*
X105142857Y-127147895D02*
X105142857Y-127243133D01*
X105142857Y-127243133D02*
X105095238Y-127385990D01*
X105095238Y-127385990D02*
X104523810Y-127957419D01*
X104523810Y-127957419D02*
X105142857Y-127957419D01*
X119190476Y-62957419D02*
X119190476Y-63671704D01*
X119190476Y-63671704D02*
X119142857Y-63814561D01*
X119142857Y-63814561D02*
X119047619Y-63909800D01*
X119047619Y-63909800D02*
X118904762Y-63957419D01*
X118904762Y-63957419D02*
X118809524Y-63957419D01*
X120190476Y-63957419D02*
X119619048Y-63957419D01*
X119904762Y-63957419D02*
X119904762Y-62957419D01*
X119904762Y-62957419D02*
X119809524Y-63100276D01*
X119809524Y-63100276D02*
X119714286Y-63195514D01*
X119714286Y-63195514D02*
X119619048Y-63243133D01*
X121047619Y-63290752D02*
X121047619Y-63957419D01*
X120809524Y-62909800D02*
X120571429Y-63624085D01*
X120571429Y-63624085D02*
X121190476Y-63624085D01*
D10*
X139984819Y-54078094D02*
X138984819Y-54078094D01*
X138984819Y-54078094D02*
X138984819Y-53839999D01*
X138984819Y-53839999D02*
X139032438Y-53697142D01*
X139032438Y-53697142D02*
X139127676Y-53601904D01*
X139127676Y-53601904D02*
X139222914Y-53554285D01*
X139222914Y-53554285D02*
X139413390Y-53506666D01*
X139413390Y-53506666D02*
X139556247Y-53506666D01*
X139556247Y-53506666D02*
X139746723Y-53554285D01*
X139746723Y-53554285D02*
X139841961Y-53601904D01*
X139841961Y-53601904D02*
X139937200Y-53697142D01*
X139937200Y-53697142D02*
X139984819Y-53839999D01*
X139984819Y-53839999D02*
X139984819Y-54078094D01*
X139318152Y-52649523D02*
X139984819Y-52649523D01*
X138937200Y-52887618D02*
X139651485Y-53125713D01*
X139651485Y-53125713D02*
X139651485Y-52506666D01*
X140354819Y-58681904D02*
X139354819Y-58681904D01*
X140354819Y-58110476D02*
X139783390Y-58539047D01*
X139354819Y-58110476D02*
X139926247Y-58681904D01*
X96084819Y-81922857D02*
X95608628Y-82256190D01*
X96084819Y-82494285D02*
X95084819Y-82494285D01*
X95084819Y-82494285D02*
X95084819Y-82113333D01*
X95084819Y-82113333D02*
X95132438Y-82018095D01*
X95132438Y-82018095D02*
X95180057Y-81970476D01*
X95180057Y-81970476D02*
X95275295Y-81922857D01*
X95275295Y-81922857D02*
X95418152Y-81922857D01*
X95418152Y-81922857D02*
X95513390Y-81970476D01*
X95513390Y-81970476D02*
X95561009Y-82018095D01*
X95561009Y-82018095D02*
X95608628Y-82113333D01*
X95608628Y-82113333D02*
X95608628Y-82494285D01*
X95180057Y-81541904D02*
X95132438Y-81494285D01*
X95132438Y-81494285D02*
X95084819Y-81399047D01*
X95084819Y-81399047D02*
X95084819Y-81160952D01*
X95084819Y-81160952D02*
X95132438Y-81065714D01*
X95132438Y-81065714D02*
X95180057Y-81018095D01*
X95180057Y-81018095D02*
X95275295Y-80970476D01*
X95275295Y-80970476D02*
X95370533Y-80970476D01*
X95370533Y-80970476D02*
X95513390Y-81018095D01*
X95513390Y-81018095D02*
X96084819Y-81589523D01*
X96084819Y-81589523D02*
X96084819Y-80970476D01*
X95084819Y-80351428D02*
X95084819Y-80256190D01*
X95084819Y-80256190D02*
X95132438Y-80160952D01*
X95132438Y-80160952D02*
X95180057Y-80113333D01*
X95180057Y-80113333D02*
X95275295Y-80065714D01*
X95275295Y-80065714D02*
X95465771Y-80018095D01*
X95465771Y-80018095D02*
X95703866Y-80018095D01*
X95703866Y-80018095D02*
X95894342Y-80065714D01*
X95894342Y-80065714D02*
X95989580Y-80113333D01*
X95989580Y-80113333D02*
X96037200Y-80160952D01*
X96037200Y-80160952D02*
X96084819Y-80256190D01*
X96084819Y-80256190D02*
X96084819Y-80351428D01*
X96084819Y-80351428D02*
X96037200Y-80446666D01*
X96037200Y-80446666D02*
X95989580Y-80494285D01*
X95989580Y-80494285D02*
X95894342Y-80541904D01*
X95894342Y-80541904D02*
X95703866Y-80589523D01*
X95703866Y-80589523D02*
X95465771Y-80589523D01*
X95465771Y-80589523D02*
X95275295Y-80541904D01*
X95275295Y-80541904D02*
X95180057Y-80494285D01*
X95180057Y-80494285D02*
X95132438Y-80446666D01*
X95132438Y-80446666D02*
X95084819Y-80351428D01*
D11*
X87666666Y-110957419D02*
X87666666Y-111671704D01*
X87666666Y-111671704D02*
X87619047Y-111814561D01*
X87619047Y-111814561D02*
X87523809Y-111909800D01*
X87523809Y-111909800D02*
X87380952Y-111957419D01*
X87380952Y-111957419D02*
X87285714Y-111957419D01*
X88619047Y-110957419D02*
X88142857Y-110957419D01*
X88142857Y-110957419D02*
X88095238Y-111433609D01*
X88095238Y-111433609D02*
X88142857Y-111385990D01*
X88142857Y-111385990D02*
X88238095Y-111338371D01*
X88238095Y-111338371D02*
X88476190Y-111338371D01*
X88476190Y-111338371D02*
X88571428Y-111385990D01*
X88571428Y-111385990D02*
X88619047Y-111433609D01*
X88619047Y-111433609D02*
X88666666Y-111528847D01*
X88666666Y-111528847D02*
X88666666Y-111766942D01*
X88666666Y-111766942D02*
X88619047Y-111862180D01*
X88619047Y-111862180D02*
X88571428Y-111909800D01*
X88571428Y-111909800D02*
X88476190Y-111957419D01*
X88476190Y-111957419D02*
X88238095Y-111957419D01*
X88238095Y-111957419D02*
X88142857Y-111909800D01*
X88142857Y-111909800D02*
X88095238Y-111862180D01*
X87666666Y-94957419D02*
X87666666Y-95671704D01*
X87666666Y-95671704D02*
X87619047Y-95814561D01*
X87619047Y-95814561D02*
X87523809Y-95909800D01*
X87523809Y-95909800D02*
X87380952Y-95957419D01*
X87380952Y-95957419D02*
X87285714Y-95957419D01*
X88571428Y-95290752D02*
X88571428Y-95957419D01*
X88333333Y-94909800D02*
X88095238Y-95624085D01*
X88095238Y-95624085D02*
X88714285Y-95624085D01*
D10*
X173454819Y-129595238D02*
X173454819Y-130071428D01*
X173454819Y-130071428D02*
X172454819Y-130071428D01*
X172931009Y-129261904D02*
X172931009Y-128928571D01*
X173454819Y-128785714D02*
X173454819Y-129261904D01*
X173454819Y-129261904D02*
X172454819Y-129261904D01*
X172454819Y-129261904D02*
X172454819Y-128785714D01*
X173454819Y-128357142D02*
X172454819Y-128357142D01*
X172454819Y-128357142D02*
X172454819Y-128119047D01*
X172454819Y-128119047D02*
X172502438Y-127976190D01*
X172502438Y-127976190D02*
X172597676Y-127880952D01*
X172597676Y-127880952D02*
X172692914Y-127833333D01*
X172692914Y-127833333D02*
X172883390Y-127785714D01*
X172883390Y-127785714D02*
X173026247Y-127785714D01*
X173026247Y-127785714D02*
X173216723Y-127833333D01*
X173216723Y-127833333D02*
X173311961Y-127880952D01*
X173311961Y-127880952D02*
X173407200Y-127976190D01*
X173407200Y-127976190D02*
X173454819Y-128119047D01*
X173454819Y-128119047D02*
X173454819Y-128357142D01*
X173454819Y-126833333D02*
X173454819Y-127404761D01*
X173454819Y-127119047D02*
X172454819Y-127119047D01*
X172454819Y-127119047D02*
X172597676Y-127214285D01*
X172597676Y-127214285D02*
X172692914Y-127309523D01*
X172692914Y-127309523D02*
X172740533Y-127404761D01*
X172788152Y-125976190D02*
X173454819Y-125976190D01*
X172407200Y-126214285D02*
X173121485Y-126452380D01*
X173121485Y-126452380D02*
X173121485Y-125833333D01*
X173454819Y-49119047D02*
X173454819Y-49595237D01*
X173454819Y-49595237D02*
X172454819Y-49595237D01*
X172931009Y-48785713D02*
X172931009Y-48452380D01*
X173454819Y-48309523D02*
X173454819Y-48785713D01*
X173454819Y-48785713D02*
X172454819Y-48785713D01*
X172454819Y-48785713D02*
X172454819Y-48309523D01*
X173454819Y-47880951D02*
X172454819Y-47880951D01*
X172454819Y-47880951D02*
X172454819Y-47642856D01*
X172454819Y-47642856D02*
X172502438Y-47499999D01*
X172502438Y-47499999D02*
X172597676Y-47404761D01*
X172597676Y-47404761D02*
X172692914Y-47357142D01*
X172692914Y-47357142D02*
X172883390Y-47309523D01*
X172883390Y-47309523D02*
X173026247Y-47309523D01*
X173026247Y-47309523D02*
X173216723Y-47357142D01*
X173216723Y-47357142D02*
X173311961Y-47404761D01*
X173311961Y-47404761D02*
X173407200Y-47499999D01*
X173407200Y-47499999D02*
X173454819Y-47642856D01*
X173454819Y-47642856D02*
X173454819Y-47880951D01*
X173454819Y-46833332D02*
X173454819Y-46642856D01*
X173454819Y-46642856D02*
X173407200Y-46547618D01*
X173407200Y-46547618D02*
X173359580Y-46499999D01*
X173359580Y-46499999D02*
X173216723Y-46404761D01*
X173216723Y-46404761D02*
X173026247Y-46357142D01*
X173026247Y-46357142D02*
X172645295Y-46357142D01*
X172645295Y-46357142D02*
X172550057Y-46404761D01*
X172550057Y-46404761D02*
X172502438Y-46452380D01*
X172502438Y-46452380D02*
X172454819Y-46547618D01*
X172454819Y-46547618D02*
X172454819Y-46738094D01*
X172454819Y-46738094D02*
X172502438Y-46833332D01*
X172502438Y-46833332D02*
X172550057Y-46880951D01*
X172550057Y-46880951D02*
X172645295Y-46928570D01*
X172645295Y-46928570D02*
X172883390Y-46928570D01*
X172883390Y-46928570D02*
X172978628Y-46880951D01*
X172978628Y-46880951D02*
X173026247Y-46833332D01*
X173026247Y-46833332D02*
X173073866Y-46738094D01*
X173073866Y-46738094D02*
X173073866Y-46547618D01*
X173073866Y-46547618D02*
X173026247Y-46452380D01*
X173026247Y-46452380D02*
X172978628Y-46404761D01*
X172978628Y-46404761D02*
X172883390Y-46357142D01*
X173454819Y-113595238D02*
X173454819Y-114071428D01*
X173454819Y-114071428D02*
X172454819Y-114071428D01*
X172931009Y-113261904D02*
X172931009Y-112928571D01*
X173454819Y-112785714D02*
X173454819Y-113261904D01*
X173454819Y-113261904D02*
X172454819Y-113261904D01*
X172454819Y-113261904D02*
X172454819Y-112785714D01*
X173454819Y-112357142D02*
X172454819Y-112357142D01*
X172454819Y-112357142D02*
X172454819Y-112119047D01*
X172454819Y-112119047D02*
X172502438Y-111976190D01*
X172502438Y-111976190D02*
X172597676Y-111880952D01*
X172597676Y-111880952D02*
X172692914Y-111833333D01*
X172692914Y-111833333D02*
X172883390Y-111785714D01*
X172883390Y-111785714D02*
X173026247Y-111785714D01*
X173026247Y-111785714D02*
X173216723Y-111833333D01*
X173216723Y-111833333D02*
X173311961Y-111880952D01*
X173311961Y-111880952D02*
X173407200Y-111976190D01*
X173407200Y-111976190D02*
X173454819Y-112119047D01*
X173454819Y-112119047D02*
X173454819Y-112357142D01*
X173454819Y-110833333D02*
X173454819Y-111404761D01*
X173454819Y-111119047D02*
X172454819Y-111119047D01*
X172454819Y-111119047D02*
X172597676Y-111214285D01*
X172597676Y-111214285D02*
X172692914Y-111309523D01*
X172692914Y-111309523D02*
X172740533Y-111404761D01*
X172454819Y-110499999D02*
X172454819Y-109880952D01*
X172454819Y-109880952D02*
X172835771Y-110214285D01*
X172835771Y-110214285D02*
X172835771Y-110071428D01*
X172835771Y-110071428D02*
X172883390Y-109976190D01*
X172883390Y-109976190D02*
X172931009Y-109928571D01*
X172931009Y-109928571D02*
X173026247Y-109880952D01*
X173026247Y-109880952D02*
X173264342Y-109880952D01*
X173264342Y-109880952D02*
X173359580Y-109928571D01*
X173359580Y-109928571D02*
X173407200Y-109976190D01*
X173407200Y-109976190D02*
X173454819Y-110071428D01*
X173454819Y-110071428D02*
X173454819Y-110357142D01*
X173454819Y-110357142D02*
X173407200Y-110452380D01*
X173407200Y-110452380D02*
X173359580Y-110499999D01*
X96880952Y-75454819D02*
X96404762Y-75454819D01*
X96404762Y-75454819D02*
X96404762Y-74454819D01*
X97214286Y-74931009D02*
X97547619Y-74931009D01*
X97690476Y-75454819D02*
X97214286Y-75454819D01*
X97214286Y-75454819D02*
X97214286Y-74454819D01*
X97214286Y-74454819D02*
X97690476Y-74454819D01*
X98119048Y-75454819D02*
X98119048Y-74454819D01*
X98119048Y-74454819D02*
X98357143Y-74454819D01*
X98357143Y-74454819D02*
X98500000Y-74502438D01*
X98500000Y-74502438D02*
X98595238Y-74597676D01*
X98595238Y-74597676D02*
X98642857Y-74692914D01*
X98642857Y-74692914D02*
X98690476Y-74883390D01*
X98690476Y-74883390D02*
X98690476Y-75026247D01*
X98690476Y-75026247D02*
X98642857Y-75216723D01*
X98642857Y-75216723D02*
X98595238Y-75311961D01*
X98595238Y-75311961D02*
X98500000Y-75407200D01*
X98500000Y-75407200D02*
X98357143Y-75454819D01*
X98357143Y-75454819D02*
X98119048Y-75454819D01*
X99023810Y-74454819D02*
X99642857Y-74454819D01*
X99642857Y-74454819D02*
X99309524Y-74835771D01*
X99309524Y-74835771D02*
X99452381Y-74835771D01*
X99452381Y-74835771D02*
X99547619Y-74883390D01*
X99547619Y-74883390D02*
X99595238Y-74931009D01*
X99595238Y-74931009D02*
X99642857Y-75026247D01*
X99642857Y-75026247D02*
X99642857Y-75264342D01*
X99642857Y-75264342D02*
X99595238Y-75359580D01*
X99595238Y-75359580D02*
X99547619Y-75407200D01*
X99547619Y-75407200D02*
X99452381Y-75454819D01*
X99452381Y-75454819D02*
X99166667Y-75454819D01*
X99166667Y-75454819D02*
X99071429Y-75407200D01*
X99071429Y-75407200D02*
X99023810Y-75359580D01*
X177075476Y-65374819D02*
X177075476Y-66089104D01*
X177075476Y-66089104D02*
X177027857Y-66231961D01*
X177027857Y-66231961D02*
X176932619Y-66327200D01*
X176932619Y-66327200D02*
X176789762Y-66374819D01*
X176789762Y-66374819D02*
X176694524Y-66374819D01*
X177980238Y-65708152D02*
X177980238Y-66374819D01*
X177742143Y-65327200D02*
X177504048Y-66041485D01*
X177504048Y-66041485D02*
X178123095Y-66041485D01*
X178551667Y-66374819D02*
X178742143Y-66374819D01*
X178742143Y-66374819D02*
X178837381Y-66327200D01*
X178837381Y-66327200D02*
X178885000Y-66279580D01*
X178885000Y-66279580D02*
X178980238Y-66136723D01*
X178980238Y-66136723D02*
X179027857Y-65946247D01*
X179027857Y-65946247D02*
X179027857Y-65565295D01*
X179027857Y-65565295D02*
X178980238Y-65470057D01*
X178980238Y-65470057D02*
X178932619Y-65422438D01*
X178932619Y-65422438D02*
X178837381Y-65374819D01*
X178837381Y-65374819D02*
X178646905Y-65374819D01*
X178646905Y-65374819D02*
X178551667Y-65422438D01*
X178551667Y-65422438D02*
X178504048Y-65470057D01*
X178504048Y-65470057D02*
X178456429Y-65565295D01*
X178456429Y-65565295D02*
X178456429Y-65803390D01*
X178456429Y-65803390D02*
X178504048Y-65898628D01*
X178504048Y-65898628D02*
X178551667Y-65946247D01*
X178551667Y-65946247D02*
X178646905Y-65993866D01*
X178646905Y-65993866D02*
X178837381Y-65993866D01*
X178837381Y-65993866D02*
X178932619Y-65946247D01*
X178932619Y-65946247D02*
X178980238Y-65898628D01*
X178980238Y-65898628D02*
X179027857Y-65803390D01*
D11*
X151190476Y-46957419D02*
X151190476Y-47671704D01*
X151190476Y-47671704D02*
X151142857Y-47814561D01*
X151142857Y-47814561D02*
X151047619Y-47909800D01*
X151047619Y-47909800D02*
X150904762Y-47957419D01*
X150904762Y-47957419D02*
X150809524Y-47957419D01*
X151619048Y-47052657D02*
X151666667Y-47005038D01*
X151666667Y-47005038D02*
X151761905Y-46957419D01*
X151761905Y-46957419D02*
X152000000Y-46957419D01*
X152000000Y-46957419D02*
X152095238Y-47005038D01*
X152095238Y-47005038D02*
X152142857Y-47052657D01*
X152142857Y-47052657D02*
X152190476Y-47147895D01*
X152190476Y-47147895D02*
X152190476Y-47243133D01*
X152190476Y-47243133D02*
X152142857Y-47385990D01*
X152142857Y-47385990D02*
X151571429Y-47957419D01*
X151571429Y-47957419D02*
X152190476Y-47957419D01*
X153095238Y-46957419D02*
X152619048Y-46957419D01*
X152619048Y-46957419D02*
X152571429Y-47433609D01*
X152571429Y-47433609D02*
X152619048Y-47385990D01*
X152619048Y-47385990D02*
X152714286Y-47338371D01*
X152714286Y-47338371D02*
X152952381Y-47338371D01*
X152952381Y-47338371D02*
X153047619Y-47385990D01*
X153047619Y-47385990D02*
X153095238Y-47433609D01*
X153095238Y-47433609D02*
X153142857Y-47528847D01*
X153142857Y-47528847D02*
X153142857Y-47766942D01*
X153142857Y-47766942D02*
X153095238Y-47862180D01*
X153095238Y-47862180D02*
X153047619Y-47909800D01*
X153047619Y-47909800D02*
X152952381Y-47957419D01*
X152952381Y-47957419D02*
X152714286Y-47957419D01*
X152714286Y-47957419D02*
X152619048Y-47909800D01*
X152619048Y-47909800D02*
X152571429Y-47862180D01*
X119190476Y-94957419D02*
X119190476Y-95671704D01*
X119190476Y-95671704D02*
X119142857Y-95814561D01*
X119142857Y-95814561D02*
X119047619Y-95909800D01*
X119047619Y-95909800D02*
X118904762Y-95957419D01*
X118904762Y-95957419D02*
X118809524Y-95957419D01*
X120190476Y-95957419D02*
X119619048Y-95957419D01*
X119904762Y-95957419D02*
X119904762Y-94957419D01*
X119904762Y-94957419D02*
X119809524Y-95100276D01*
X119809524Y-95100276D02*
X119714286Y-95195514D01*
X119714286Y-95195514D02*
X119619048Y-95243133D01*
X121047619Y-94957419D02*
X120857143Y-94957419D01*
X120857143Y-94957419D02*
X120761905Y-95005038D01*
X120761905Y-95005038D02*
X120714286Y-95052657D01*
X120714286Y-95052657D02*
X120619048Y-95195514D01*
X120619048Y-95195514D02*
X120571429Y-95385990D01*
X120571429Y-95385990D02*
X120571429Y-95766942D01*
X120571429Y-95766942D02*
X120619048Y-95862180D01*
X120619048Y-95862180D02*
X120666667Y-95909800D01*
X120666667Y-95909800D02*
X120761905Y-95957419D01*
X120761905Y-95957419D02*
X120952381Y-95957419D01*
X120952381Y-95957419D02*
X121047619Y-95909800D01*
X121047619Y-95909800D02*
X121095238Y-95862180D01*
X121095238Y-95862180D02*
X121142857Y-95766942D01*
X121142857Y-95766942D02*
X121142857Y-95528847D01*
X121142857Y-95528847D02*
X121095238Y-95433609D01*
X121095238Y-95433609D02*
X121047619Y-95385990D01*
X121047619Y-95385990D02*
X120952381Y-95338371D01*
X120952381Y-95338371D02*
X120761905Y-95338371D01*
X120761905Y-95338371D02*
X120666667Y-95385990D01*
X120666667Y-95385990D02*
X120619048Y-95433609D01*
X120619048Y-95433609D02*
X120571429Y-95528847D01*
D10*
X174190476Y-76684819D02*
X174190476Y-77399104D01*
X174190476Y-77399104D02*
X174142857Y-77541961D01*
X174142857Y-77541961D02*
X174047619Y-77637200D01*
X174047619Y-77637200D02*
X173904762Y-77684819D01*
X173904762Y-77684819D02*
X173809524Y-77684819D01*
X175142857Y-76684819D02*
X174666667Y-76684819D01*
X174666667Y-76684819D02*
X174619048Y-77161009D01*
X174619048Y-77161009D02*
X174666667Y-77113390D01*
X174666667Y-77113390D02*
X174761905Y-77065771D01*
X174761905Y-77065771D02*
X175000000Y-77065771D01*
X175000000Y-77065771D02*
X175095238Y-77113390D01*
X175095238Y-77113390D02*
X175142857Y-77161009D01*
X175142857Y-77161009D02*
X175190476Y-77256247D01*
X175190476Y-77256247D02*
X175190476Y-77494342D01*
X175190476Y-77494342D02*
X175142857Y-77589580D01*
X175142857Y-77589580D02*
X175095238Y-77637200D01*
X175095238Y-77637200D02*
X175000000Y-77684819D01*
X175000000Y-77684819D02*
X174761905Y-77684819D01*
X174761905Y-77684819D02*
X174666667Y-77637200D01*
X174666667Y-77637200D02*
X174619048Y-77589580D01*
X175523810Y-76684819D02*
X176142857Y-76684819D01*
X176142857Y-76684819D02*
X175809524Y-77065771D01*
X175809524Y-77065771D02*
X175952381Y-77065771D01*
X175952381Y-77065771D02*
X176047619Y-77113390D01*
X176047619Y-77113390D02*
X176095238Y-77161009D01*
X176095238Y-77161009D02*
X176142857Y-77256247D01*
X176142857Y-77256247D02*
X176142857Y-77494342D01*
X176142857Y-77494342D02*
X176095238Y-77589580D01*
X176095238Y-77589580D02*
X176047619Y-77637200D01*
X176047619Y-77637200D02*
X175952381Y-77684819D01*
X175952381Y-77684819D02*
X175666667Y-77684819D01*
X175666667Y-77684819D02*
X175571429Y-77637200D01*
X175571429Y-77637200D02*
X175523810Y-77589580D01*
D13*
%TO.C,J57*%
X173670000Y-129210000D02*
X173670000Y-129330000D01*
X173670000Y-129330000D02*
X176330000Y-129330000D01*
X175000000Y-126670000D02*
X176330000Y-126670000D01*
X176330000Y-126670000D02*
X176330000Y-128000000D01*
X176330000Y-129210000D02*
X176330000Y-129330000D01*
%TO.C,R6*%
X93965000Y-77727064D02*
X93965000Y-77272936D01*
X95435000Y-77727064D02*
X95435000Y-77272936D01*
D14*
%TO.C,Q1*%
X83692500Y-55277500D02*
X94107500Y-55277500D01*
X83692500Y-59722500D02*
X83692500Y-55277500D01*
X94107500Y-55277500D02*
X94107500Y-59722500D01*
X94107500Y-59722500D02*
X83692500Y-59722500D01*
D15*
X83042500Y-58310000D02*
G75*
G03*
X83042500Y-58310000I-100000J0D01*
G01*
D13*
%TO.C,J46*%
X173670000Y-49210000D02*
X173670000Y-49330000D01*
X173670000Y-49330000D02*
X176330000Y-49330000D01*
X175000000Y-46670000D02*
X176330000Y-46670000D01*
X176330000Y-46670000D02*
X176330000Y-48000000D01*
X176330000Y-49210000D02*
X176330000Y-49330000D01*
D16*
%TO.C,LED10*%
X172568200Y-63558250D02*
X172568200Y-64441750D01*
X173431800Y-64441750D02*
X173431800Y-63558250D01*
D13*
%TO.C,J43*%
X96670000Y-124130000D02*
X98000000Y-124130000D01*
X96670000Y-125460000D02*
X96670000Y-124130000D01*
X96670000Y-126730000D02*
X96670000Y-131870000D01*
X96670000Y-126730000D02*
X99330000Y-126730000D01*
X96670000Y-131870000D02*
X99330000Y-131870000D01*
X99330000Y-126730000D02*
X99330000Y-131870000D01*
%TO.C,J40*%
X96670000Y-76130000D02*
X98000000Y-76130000D01*
X96670000Y-77460000D02*
X96670000Y-76130000D01*
X96670000Y-78730000D02*
X96670000Y-83870000D01*
X96670000Y-78730000D02*
X99330000Y-78730000D01*
X96670000Y-83870000D02*
X99330000Y-83870000D01*
X99330000Y-78730000D02*
X99330000Y-83870000D01*
%TO.C,R5*%
X96427064Y-57935000D02*
X95972936Y-57935000D01*
X96427064Y-56465000D02*
X95972936Y-56465000D01*
D14*
%TO.C,S2*%
X93500000Y-85000000D02*
X93500000Y-91000000D01*
X87500000Y-91000000D02*
X93500000Y-91000000D01*
X87500000Y-91000000D02*
X87500000Y-85000000D01*
X87500000Y-85000000D02*
X93500000Y-85000000D01*
D15*
X96850000Y-90300000D02*
G75*
G03*
X96850000Y-90300000I-100000J0D01*
G01*
D13*
%TO.C,J55*%
X173670000Y-113210000D02*
X173670000Y-113330000D01*
X173670000Y-113330000D02*
X176330000Y-113330000D01*
X175000000Y-110670000D02*
X176330000Y-110670000D01*
X176330000Y-110670000D02*
X176330000Y-112000000D01*
X176330000Y-113210000D02*
X176330000Y-113330000D01*
%TO.C,J52*%
X173670000Y-65210000D02*
X173670000Y-65330000D01*
X173670000Y-65330000D02*
X176330000Y-65330000D01*
X175000000Y-62670000D02*
X176330000Y-62670000D01*
X176330000Y-62670000D02*
X176330000Y-64000000D01*
X176330000Y-65210000D02*
X176330000Y-65330000D01*
D16*
%TO.C,LED12*%
X173431800Y-96441750D02*
X173431800Y-95558250D01*
X172568200Y-95558250D02*
X172568200Y-96441750D01*
D13*
%TO.C,R7*%
X101827064Y-89635000D02*
X101372936Y-89635000D01*
X101827064Y-88165000D02*
X101372936Y-88165000D01*
D11*
%TO.C,S3*%
X80700000Y-101460000D02*
X80700000Y-101460000D01*
X80800000Y-101460000D02*
X80800000Y-101460000D01*
D15*
X84000000Y-99000000D02*
X94000000Y-99000000D01*
X84000000Y-100250000D02*
X84000000Y-99000000D01*
X84000000Y-107750000D02*
X84000000Y-109000000D01*
X84000000Y-109000000D02*
X94000000Y-109000000D01*
X94000000Y-99000000D02*
X94000000Y-100250000D01*
X94000000Y-109000000D02*
X94000000Y-107750000D01*
D11*
X80800000Y-101460000D02*
G75*
G03*
X80700000Y-101460000I-50000J0D01*
G01*
X80700000Y-101460000D02*
G75*
G03*
X80800000Y-101460000I50000J0D01*
G01*
D13*
%TO.C,J61*%
X95310000Y-118050000D02*
X87570000Y-118050000D01*
X95310000Y-118050000D02*
X95310000Y-120650000D01*
X87570000Y-118050000D02*
X87570000Y-123250000D01*
X95310000Y-120650000D02*
X92710000Y-120650000D01*
X92710000Y-120650000D02*
X92710000Y-123250000D01*
X95310000Y-121920000D02*
X95310000Y-123250000D01*
X95310000Y-123250000D02*
X93980000Y-123250000D01*
X92710000Y-123250000D02*
X87570000Y-123250000D01*
%TO.C,J48*%
X172230000Y-114920000D02*
X173500000Y-114920000D01*
X172230000Y-116190000D02*
X172230000Y-114920000D01*
X174542929Y-118350000D02*
X174940000Y-118350000D01*
X174542929Y-119110000D02*
X174940000Y-119110000D01*
X174542929Y-120890000D02*
X174940000Y-120890000D01*
X174542929Y-121650000D02*
X174940000Y-121650000D01*
X174542929Y-123430000D02*
X174940000Y-123430000D01*
X174542929Y-124190000D02*
X174940000Y-124190000D01*
X174610000Y-115810000D02*
X174940000Y-115810000D01*
X174610000Y-116570000D02*
X174940000Y-116570000D01*
X174940000Y-114860000D02*
X174940000Y-125140000D01*
X174940000Y-117460000D02*
X177600000Y-117460000D01*
X174940000Y-120000000D02*
X177600000Y-120000000D01*
X174940000Y-122540000D02*
X177600000Y-122540000D01*
X174940000Y-125140000D02*
X177600000Y-125140000D01*
X177600000Y-114860000D02*
X174940000Y-114860000D01*
X177600000Y-115810000D02*
X183600000Y-115810000D01*
X177600000Y-115870000D02*
X183600000Y-115870000D01*
X177600000Y-115990000D02*
X183600000Y-115990000D01*
X177600000Y-116110000D02*
X183600000Y-116110000D01*
X177600000Y-116230000D02*
X183600000Y-116230000D01*
X177600000Y-116350000D02*
X183600000Y-116350000D01*
X177600000Y-116470000D02*
X183600000Y-116470000D01*
X177600000Y-118350000D02*
X183600000Y-118350000D01*
X177600000Y-120890000D02*
X183600000Y-120890000D01*
X177600000Y-123430000D02*
X183600000Y-123430000D01*
X177600000Y-125140000D02*
X177600000Y-114860000D01*
X183600000Y-115810000D02*
X183600000Y-116570000D01*
X183600000Y-116570000D02*
X177600000Y-116570000D01*
X183600000Y-118350000D02*
X183600000Y-119110000D01*
X183600000Y-119110000D02*
X177600000Y-119110000D01*
X183600000Y-120890000D02*
X183600000Y-121650000D01*
X183600000Y-121650000D02*
X177600000Y-121650000D01*
X183600000Y-123430000D02*
X183600000Y-124190000D01*
X183600000Y-124190000D02*
X177600000Y-124190000D01*
%TO.C,R14*%
X172492936Y-83085000D02*
X172947064Y-83085000D01*
X172492936Y-84555000D02*
X172947064Y-84555000D01*
D16*
%TO.C,LED6*%
X97558250Y-122351800D02*
X98441750Y-122351800D01*
X98441750Y-121488200D02*
X97558250Y-121488200D01*
D13*
%TO.C,J37*%
X99330000Y-51870000D02*
X98000000Y-51870000D01*
X99330000Y-50540000D02*
X99330000Y-51870000D01*
X99330000Y-49270000D02*
X99330000Y-44130000D01*
X99330000Y-49270000D02*
X96670000Y-49270000D01*
X99330000Y-44130000D02*
X96670000Y-44130000D01*
X96670000Y-49270000D02*
X96670000Y-44130000D01*
%TO.C,R13*%
X171772936Y-57685000D02*
X172227064Y-57685000D01*
X171772936Y-59155000D02*
X172227064Y-59155000D01*
%TO.C,R16*%
X167412936Y-118645000D02*
X167867064Y-118645000D01*
X167412936Y-120115000D02*
X167867064Y-120115000D01*
%TO.C,R4*%
X94265000Y-45227064D02*
X94265000Y-44772936D01*
X95735000Y-45227064D02*
X95735000Y-44772936D01*
%TO.C,J41*%
X96670000Y-92130000D02*
X98000000Y-92130000D01*
X96670000Y-93460000D02*
X96670000Y-92130000D01*
X96670000Y-94730000D02*
X96670000Y-99870000D01*
X96670000Y-94730000D02*
X99330000Y-94730000D01*
X96670000Y-99870000D02*
X99330000Y-99870000D01*
X99330000Y-94730000D02*
X99330000Y-99870000D01*
D16*
%TO.C,LED1*%
X98441750Y-42568200D02*
X97558250Y-42568200D01*
X97558250Y-43431800D02*
X98441750Y-43431800D01*
D13*
%TO.C,J44*%
X172230000Y-85455000D02*
X173500000Y-85455000D01*
X172230000Y-86725000D02*
X172230000Y-85455000D01*
X174542929Y-88885000D02*
X174940000Y-88885000D01*
X174542929Y-89645000D02*
X174940000Y-89645000D01*
X174610000Y-86345000D02*
X174940000Y-86345000D01*
X174610000Y-87105000D02*
X174940000Y-87105000D01*
X174940000Y-85395000D02*
X174940000Y-90595000D01*
X174940000Y-87995000D02*
X177600000Y-87995000D01*
X174940000Y-90595000D02*
X177600000Y-90595000D01*
X177600000Y-85395000D02*
X174940000Y-85395000D01*
X177600000Y-86345000D02*
X183600000Y-86345000D01*
X177600000Y-86405000D02*
X183600000Y-86405000D01*
X177600000Y-86525000D02*
X183600000Y-86525000D01*
X177600000Y-86645000D02*
X183600000Y-86645000D01*
X177600000Y-86765000D02*
X183600000Y-86765000D01*
X177600000Y-86885000D02*
X183600000Y-86885000D01*
X177600000Y-87005000D02*
X183600000Y-87005000D01*
X177600000Y-88885000D02*
X183600000Y-88885000D01*
X177600000Y-90595000D02*
X177600000Y-85395000D01*
X183600000Y-86345000D02*
X183600000Y-87105000D01*
X183600000Y-87105000D02*
X177600000Y-87105000D01*
X183600000Y-88885000D02*
X183600000Y-89645000D01*
X183600000Y-89645000D02*
X177600000Y-89645000D01*
D16*
%TO.C,LED2*%
X97558250Y-59431800D02*
X98441750Y-59431800D01*
X98441750Y-58568200D02*
X97558250Y-58568200D01*
D14*
%TO.C,D1*%
X76430000Y-54400000D02*
X76430000Y-41600000D01*
X96290000Y-54400000D02*
X76430000Y-54400000D01*
X76430000Y-41600000D02*
X96290000Y-41600000D01*
X96290000Y-41600000D02*
X96290000Y-54400000D01*
D15*
X81210000Y-55250000D02*
G75*
G03*
X81210000Y-55250000I-100000J0D01*
G01*
D13*
%TO.C,J39*%
X96670000Y-60130000D02*
X98000000Y-60130000D01*
X96670000Y-61460000D02*
X96670000Y-60130000D01*
X96670000Y-62730000D02*
X96670000Y-67870000D01*
X96670000Y-62730000D02*
X99330000Y-62730000D01*
X96670000Y-67870000D02*
X99330000Y-67870000D01*
X99330000Y-62730000D02*
X99330000Y-67870000D01*
%TO.C,J51*%
X125455000Y-43770000D02*
X125455000Y-42500000D01*
X126725000Y-43770000D02*
X125455000Y-43770000D01*
X128885000Y-41457071D02*
X128885000Y-41060000D01*
X129645000Y-41457071D02*
X129645000Y-41060000D01*
X126345000Y-41390000D02*
X126345000Y-41060000D01*
X127105000Y-41390000D02*
X127105000Y-41060000D01*
X125395000Y-41060000D02*
X130595000Y-41060000D01*
X127995000Y-41060000D02*
X127995000Y-38400000D01*
X130595000Y-41060000D02*
X130595000Y-38400000D01*
X125395000Y-38400000D02*
X125395000Y-41060000D01*
X126345000Y-38400000D02*
X126345000Y-32400000D01*
X126405000Y-38400000D02*
X126405000Y-32400000D01*
X126525000Y-38400000D02*
X126525000Y-32400000D01*
X126645000Y-38400000D02*
X126645000Y-32400000D01*
X126765000Y-38400000D02*
X126765000Y-32400000D01*
X126885000Y-38400000D02*
X126885000Y-32400000D01*
X127005000Y-38400000D02*
X127005000Y-32400000D01*
X128885000Y-38400000D02*
X128885000Y-32400000D01*
X130595000Y-38400000D02*
X125395000Y-38400000D01*
X126345000Y-32400000D02*
X127105000Y-32400000D01*
X127105000Y-32400000D02*
X127105000Y-38400000D01*
X128885000Y-32400000D02*
X129645000Y-32400000D01*
X129645000Y-32400000D02*
X129645000Y-38400000D01*
D16*
%TO.C,LED11*%
X173431800Y-80441750D02*
X173431800Y-79558250D01*
X172568200Y-79558250D02*
X172568200Y-80441750D01*
D14*
%TO.C,S1*%
X93500000Y-69000000D02*
X93500000Y-75000000D01*
X87500000Y-75000000D02*
X93500000Y-75000000D01*
X87500000Y-75000000D02*
X87500000Y-69000000D01*
X87500000Y-69000000D02*
X93500000Y-69000000D01*
D15*
X96850000Y-74300000D02*
G75*
G03*
X96850000Y-74300000I-100000J0D01*
G01*
D13*
%TO.C,R8*%
X93752936Y-113565000D02*
X94207064Y-113565000D01*
X93752936Y-115035000D02*
X94207064Y-115035000D01*
%TO.C,J42*%
X96670000Y-108130000D02*
X98000000Y-108130000D01*
X96670000Y-109460000D02*
X96670000Y-108130000D01*
X96670000Y-110730000D02*
X96670000Y-115870000D01*
X96670000Y-110730000D02*
X99330000Y-110730000D01*
X96670000Y-115870000D02*
X99330000Y-115870000D01*
X99330000Y-110730000D02*
X99330000Y-115870000D01*
D16*
%TO.C,LED4*%
X98441750Y-90568200D02*
X97558250Y-90568200D01*
X97558250Y-91431800D02*
X98441750Y-91431800D01*
D13*
%TO.C,R15*%
X173272936Y-101265000D02*
X173727064Y-101265000D01*
X173272936Y-102735000D02*
X173727064Y-102735000D01*
%TO.C,J59*%
X106920000Y-43770000D02*
X106920000Y-42500000D01*
X108190000Y-43770000D02*
X106920000Y-43770000D01*
X110350000Y-41457071D02*
X110350000Y-41060000D01*
X111110000Y-41457071D02*
X111110000Y-41060000D01*
X112890000Y-41457071D02*
X112890000Y-41060000D01*
X113650000Y-41457071D02*
X113650000Y-41060000D01*
X115430000Y-41457071D02*
X115430000Y-41060000D01*
X116190000Y-41457071D02*
X116190000Y-41060000D01*
X107810000Y-41390000D02*
X107810000Y-41060000D01*
X108570000Y-41390000D02*
X108570000Y-41060000D01*
X106860000Y-41060000D02*
X117140000Y-41060000D01*
X109460000Y-41060000D02*
X109460000Y-38400000D01*
X112000000Y-41060000D02*
X112000000Y-38400000D01*
X114540000Y-41060000D02*
X114540000Y-38400000D01*
X117140000Y-41060000D02*
X117140000Y-38400000D01*
X106860000Y-38400000D02*
X106860000Y-41060000D01*
X107810000Y-38400000D02*
X107810000Y-32400000D01*
X107870000Y-38400000D02*
X107870000Y-32400000D01*
X107990000Y-38400000D02*
X107990000Y-32400000D01*
X108110000Y-38400000D02*
X108110000Y-32400000D01*
X108230000Y-38400000D02*
X108230000Y-32400000D01*
X108350000Y-38400000D02*
X108350000Y-32400000D01*
X108470000Y-38400000D02*
X108470000Y-32400000D01*
X110350000Y-38400000D02*
X110350000Y-32400000D01*
X112890000Y-38400000D02*
X112890000Y-32400000D01*
X115430000Y-38400000D02*
X115430000Y-32400000D01*
X117140000Y-38400000D02*
X106860000Y-38400000D01*
X107810000Y-32400000D02*
X108570000Y-32400000D01*
X108570000Y-32400000D02*
X108570000Y-38400000D01*
X110350000Y-32400000D02*
X111110000Y-32400000D01*
X111110000Y-32400000D02*
X111110000Y-38400000D01*
X112890000Y-32400000D02*
X113650000Y-32400000D01*
X113650000Y-32400000D02*
X113650000Y-38400000D01*
X115430000Y-32400000D02*
X116190000Y-32400000D01*
X116190000Y-32400000D02*
X116190000Y-38400000D01*
%TO.C,R9*%
X93752936Y-123725000D02*
X94207064Y-123725000D01*
X93752936Y-125195000D02*
X94207064Y-125195000D01*
%TO.C,R21*%
X92065000Y-77327064D02*
X92065000Y-76872936D01*
X93535000Y-77327064D02*
X93535000Y-76872936D01*
%TO.C,R17*%
X172492936Y-133885000D02*
X172947064Y-133885000D01*
X172492936Y-135355000D02*
X172947064Y-135355000D01*
D16*
%TO.C,LED5*%
X94411800Y-112201750D02*
X94411800Y-111318250D01*
X93548200Y-111318250D02*
X93548200Y-112201750D01*
D13*
%TO.C,R12*%
X171985000Y-53567064D02*
X171985000Y-53112936D01*
X173455000Y-53567064D02*
X173455000Y-53112936D01*
%TO.C,J54*%
X173670000Y-97210000D02*
X173670000Y-97330000D01*
X173670000Y-97330000D02*
X176330000Y-97330000D01*
X175000000Y-94670000D02*
X176330000Y-94670000D01*
X176330000Y-94670000D02*
X176330000Y-96000000D01*
X176330000Y-97210000D02*
X176330000Y-97330000D01*
%TO.C,D4*%
X142000000Y-57080000D02*
X142000000Y-56060000D01*
X140530000Y-56060000D02*
X143470000Y-56060000D01*
X143470000Y-56060000D02*
X143470000Y-50620000D01*
X140530000Y-55280000D02*
X143470000Y-55280000D01*
X140530000Y-55160000D02*
X143470000Y-55160000D01*
X140530000Y-55040000D02*
X143470000Y-55040000D01*
X140530000Y-50620000D02*
X140530000Y-56060000D01*
X143470000Y-50620000D02*
X140530000Y-50620000D01*
X142000000Y-49600000D02*
X142000000Y-50620000D01*
%TO.C,R20*%
X94715000Y-81052936D02*
X94715000Y-81507064D01*
X93245000Y-81052936D02*
X93245000Y-81507064D01*
D16*
%TO.C,LED14*%
X173431800Y-128441750D02*
X173431800Y-127558250D01*
X172568200Y-127558250D02*
X172568200Y-128441750D01*
%TO.C,LED9*%
X173431800Y-48441750D02*
X173431800Y-47558250D01*
X172568200Y-47558250D02*
X172568200Y-48441750D01*
%TO.C,LED13*%
X173431800Y-112441750D02*
X173431800Y-111558250D01*
X172568200Y-111558250D02*
X172568200Y-112441750D01*
%TO.C,LED3*%
X97558250Y-75431800D02*
X98441750Y-75431800D01*
X98441750Y-74568200D02*
X97558250Y-74568200D01*
D13*
%TO.C,J49*%
X172230000Y-66920000D02*
X173500000Y-66920000D01*
X172230000Y-68190000D02*
X172230000Y-66920000D01*
X174542929Y-70350000D02*
X174940000Y-70350000D01*
X174542929Y-71110000D02*
X174940000Y-71110000D01*
X174542929Y-72890000D02*
X174940000Y-72890000D01*
X174542929Y-73650000D02*
X174940000Y-73650000D01*
X174542929Y-75430000D02*
X174940000Y-75430000D01*
X174542929Y-76190000D02*
X174940000Y-76190000D01*
X174610000Y-67810000D02*
X174940000Y-67810000D01*
X174610000Y-68570000D02*
X174940000Y-68570000D01*
X174940000Y-66860000D02*
X174940000Y-77140000D01*
X174940000Y-69460000D02*
X177600000Y-69460000D01*
X174940000Y-72000000D02*
X177600000Y-72000000D01*
X174940000Y-74540000D02*
X177600000Y-74540000D01*
X174940000Y-77140000D02*
X177600000Y-77140000D01*
X177600000Y-66860000D02*
X174940000Y-66860000D01*
X177600000Y-67810000D02*
X183600000Y-67810000D01*
X177600000Y-67870000D02*
X183600000Y-67870000D01*
X177600000Y-67990000D02*
X183600000Y-67990000D01*
X177600000Y-68110000D02*
X183600000Y-68110000D01*
X177600000Y-68230000D02*
X183600000Y-68230000D01*
X177600000Y-68350000D02*
X183600000Y-68350000D01*
X177600000Y-68470000D02*
X183600000Y-68470000D01*
X177600000Y-70350000D02*
X183600000Y-70350000D01*
X177600000Y-72890000D02*
X183600000Y-72890000D01*
X177600000Y-75430000D02*
X183600000Y-75430000D01*
X177600000Y-77140000D02*
X177600000Y-66860000D01*
X183600000Y-67810000D02*
X183600000Y-68570000D01*
X183600000Y-68570000D02*
X177600000Y-68570000D01*
X183600000Y-70350000D02*
X183600000Y-71110000D01*
X183600000Y-71110000D02*
X177600000Y-71110000D01*
X183600000Y-72890000D02*
X183600000Y-73650000D01*
X183600000Y-73650000D02*
X177600000Y-73650000D01*
X183600000Y-75430000D02*
X183600000Y-76190000D01*
X183600000Y-76190000D02*
X177600000Y-76190000D01*
%TO.C,J53*%
X173670000Y-81210000D02*
X173670000Y-81330000D01*
X173670000Y-81330000D02*
X176330000Y-81330000D01*
X175000000Y-78670000D02*
X176330000Y-78670000D01*
X176330000Y-78670000D02*
X176330000Y-80000000D01*
X176330000Y-81210000D02*
X176330000Y-81330000D01*
%TD*%
M02*
