%TF.GenerationSoftware,KiCad,Pcbnew,7.0.9*%
%TF.CreationDate,2024-03-13T01:01:44-05:00*%
%TF.ProjectId,BOARD,424f4152-442e-46b6-9963-61645f706362,rev?*%
%TF.SameCoordinates,Original*%
%TF.FileFunction,Drillmap*%
%TF.FilePolarity,Positive*%
%FSLAX45Y45*%
G04 Gerber Fmt 4.5, Leading zero omitted, Abs format (unit mm)*
G04 Created by KiCad (PCBNEW 7.0.9) date 2024-03-13 01:01:44*
%MOMM*%
%LPD*%
G01*
G04 APERTURE LIST*
%ADD10C,0.100000*%
%ADD11C,0.200000*%
G04 APERTURE END LIST*
D10*
X8000000Y-4000000D02*
X17600000Y-4000000D01*
X17600000Y-13600000D01*
X8000000Y-13600000D01*
X8000000Y-4000000D01*
D11*
X8255777Y-13916484D02*
X8255777Y-13716484D01*
X8255777Y-13716484D02*
X8303396Y-13716484D01*
X8303396Y-13716484D02*
X8331967Y-13726008D01*
X8331967Y-13726008D02*
X8351015Y-13745055D01*
X8351015Y-13745055D02*
X8360539Y-13764103D01*
X8360539Y-13764103D02*
X8370062Y-13802198D01*
X8370062Y-13802198D02*
X8370062Y-13830769D01*
X8370062Y-13830769D02*
X8360539Y-13868865D01*
X8360539Y-13868865D02*
X8351015Y-13887912D01*
X8351015Y-13887912D02*
X8331967Y-13906960D01*
X8331967Y-13906960D02*
X8303396Y-13916484D01*
X8303396Y-13916484D02*
X8255777Y-13916484D01*
X8455777Y-13916484D02*
X8455777Y-13783150D01*
X8455777Y-13821246D02*
X8465301Y-13802198D01*
X8465301Y-13802198D02*
X8474824Y-13792674D01*
X8474824Y-13792674D02*
X8493872Y-13783150D01*
X8493872Y-13783150D02*
X8512920Y-13783150D01*
X8579586Y-13916484D02*
X8579586Y-13783150D01*
X8579586Y-13716484D02*
X8570063Y-13726008D01*
X8570063Y-13726008D02*
X8579586Y-13735531D01*
X8579586Y-13735531D02*
X8589110Y-13726008D01*
X8589110Y-13726008D02*
X8579586Y-13716484D01*
X8579586Y-13716484D02*
X8579586Y-13735531D01*
X8703396Y-13916484D02*
X8684348Y-13906960D01*
X8684348Y-13906960D02*
X8674824Y-13887912D01*
X8674824Y-13887912D02*
X8674824Y-13716484D01*
X8808158Y-13916484D02*
X8789110Y-13906960D01*
X8789110Y-13906960D02*
X8779586Y-13887912D01*
X8779586Y-13887912D02*
X8779586Y-13716484D01*
X9036729Y-13916484D02*
X9036729Y-13716484D01*
X9036729Y-13716484D02*
X9103396Y-13859341D01*
X9103396Y-13859341D02*
X9170063Y-13716484D01*
X9170063Y-13716484D02*
X9170063Y-13916484D01*
X9351015Y-13916484D02*
X9351015Y-13811722D01*
X9351015Y-13811722D02*
X9341491Y-13792674D01*
X9341491Y-13792674D02*
X9322444Y-13783150D01*
X9322444Y-13783150D02*
X9284348Y-13783150D01*
X9284348Y-13783150D02*
X9265301Y-13792674D01*
X9351015Y-13906960D02*
X9331967Y-13916484D01*
X9331967Y-13916484D02*
X9284348Y-13916484D01*
X9284348Y-13916484D02*
X9265301Y-13906960D01*
X9265301Y-13906960D02*
X9255777Y-13887912D01*
X9255777Y-13887912D02*
X9255777Y-13868865D01*
X9255777Y-13868865D02*
X9265301Y-13849817D01*
X9265301Y-13849817D02*
X9284348Y-13840293D01*
X9284348Y-13840293D02*
X9331967Y-13840293D01*
X9331967Y-13840293D02*
X9351015Y-13830769D01*
X9446253Y-13783150D02*
X9446253Y-13983150D01*
X9446253Y-13792674D02*
X9465301Y-13783150D01*
X9465301Y-13783150D02*
X9503396Y-13783150D01*
X9503396Y-13783150D02*
X9522444Y-13792674D01*
X9522444Y-13792674D02*
X9531967Y-13802198D01*
X9531967Y-13802198D02*
X9541491Y-13821246D01*
X9541491Y-13821246D02*
X9541491Y-13878388D01*
X9541491Y-13878388D02*
X9531967Y-13897436D01*
X9531967Y-13897436D02*
X9522444Y-13906960D01*
X9522444Y-13906960D02*
X9503396Y-13916484D01*
X9503396Y-13916484D02*
X9465301Y-13916484D01*
X9465301Y-13916484D02*
X9446253Y-13906960D01*
X9627205Y-13897436D02*
X9636729Y-13906960D01*
X9636729Y-13906960D02*
X9627205Y-13916484D01*
X9627205Y-13916484D02*
X9617682Y-13906960D01*
X9617682Y-13906960D02*
X9627205Y-13897436D01*
X9627205Y-13897436D02*
X9627205Y-13916484D01*
X9627205Y-13792674D02*
X9636729Y-13802198D01*
X9636729Y-13802198D02*
X9627205Y-13811722D01*
X9627205Y-13811722D02*
X9617682Y-13802198D01*
X9617682Y-13802198D02*
X9627205Y-13792674D01*
X9627205Y-13792674D02*
X9627205Y-13811722D01*
M02*
