%TF.GenerationSoftware,KiCad,Pcbnew,7.0.9*%
%TF.CreationDate,2024-03-13T01:01:44-05:00*%
%TF.ProjectId,BOARD,424f4152-442e-46b6-9963-61645f706362,rev?*%
%TF.SameCoordinates,Original*%
%TF.FileFunction,Drillmap*%
%TF.FilePolarity,Positive*%
%FSLAX45Y45*%
G04 Gerber Fmt 4.5, Leading zero omitted, Abs format (unit mm)*
G04 Created by KiCad (PCBNEW 7.0.9) date 2024-03-13 01:01:44*
%MOMM*%
%LPD*%
G01*
G04 APERTURE LIST*
%ADD10C,0.100000*%
%ADD11C,0.200000*%
%ADD12C,0.108000*%
%ADD13C,0.110000*%
%ADD14C,0.123000*%
%ADD15C,0.233000*%
G04 APERTURE END LIST*
D10*
X8000000Y-4000000D02*
X17600000Y-4000000D01*
X17600000Y-13600000D01*
X8000000Y-13600000D01*
X8000000Y-4000000D01*
D11*
D10*
X8108000Y-7854000D02*
X8148000Y-7894000D01*
X8148000Y-7854000D02*
X8108000Y-7894000D01*
X8616000Y-4480000D02*
X8656000Y-4520000D01*
X8656000Y-4480000D02*
X8616000Y-4520000D01*
X8616000Y-7092000D02*
X8656000Y-7132000D01*
X8656000Y-7092000D02*
X8616000Y-7132000D01*
X8870000Y-11156000D02*
X8910000Y-11196000D01*
X8910000Y-11156000D02*
X8870000Y-11196000D01*
X9280000Y-7346000D02*
X9320000Y-7386000D01*
X9320000Y-7346000D02*
X9280000Y-7386000D01*
X9378000Y-8780000D02*
X9418000Y-8820000D01*
X9418000Y-8780000D02*
X9378000Y-8820000D01*
X9400000Y-8980000D02*
X9440000Y-9020000D01*
X9440000Y-8980000D02*
X9400000Y-9020000D01*
X9580000Y-7250000D02*
X9620000Y-7290000D01*
X9620000Y-7250000D02*
X9580000Y-7290000D01*
X9580000Y-8380000D02*
X9620000Y-8420000D01*
X9620000Y-8380000D02*
X9580000Y-8420000D01*
X9880000Y-5568000D02*
X9920000Y-5608000D01*
X9920000Y-5568000D02*
X9880000Y-5608000D01*
X10330000Y-6980000D02*
X10370000Y-7020000D01*
X10370000Y-6980000D02*
X10330000Y-7020000D01*
X10394000Y-6480000D02*
X10434000Y-6520000D01*
X10434000Y-6480000D02*
X10394000Y-6520000D01*
X10394000Y-8108000D02*
X10434000Y-8148000D01*
X10434000Y-8108000D02*
X10394000Y-8148000D01*
X10394000Y-8616000D02*
X10434000Y-8656000D01*
X10434000Y-8616000D02*
X10394000Y-8656000D01*
X10530000Y-5930000D02*
X10570000Y-5970000D01*
X10570000Y-5930000D02*
X10530000Y-5970000D01*
X10648000Y-7092000D02*
X10688000Y-7132000D01*
X10688000Y-7092000D02*
X10648000Y-7132000D01*
X10648000Y-7230000D02*
X10688000Y-7270000D01*
X10688000Y-7230000D02*
X10648000Y-7270000D01*
X10648000Y-7346000D02*
X10688000Y-7386000D01*
X10688000Y-7346000D02*
X10648000Y-7386000D01*
X10648000Y-8362000D02*
X10688000Y-8402000D01*
X10688000Y-8362000D02*
X10648000Y-8402000D01*
X10648000Y-9378000D02*
X10688000Y-9418000D01*
X10688000Y-9378000D02*
X10648000Y-9418000D01*
X10680000Y-5780000D02*
X10720000Y-5820000D01*
X10720000Y-5780000D02*
X10680000Y-5820000D01*
X10780000Y-5780000D02*
X10820000Y-5820000D01*
X10820000Y-5780000D02*
X10780000Y-5820000D01*
X10802000Y-7092000D02*
X10842000Y-7132000D01*
X10842000Y-7092000D02*
X10802000Y-7132000D01*
X10880000Y-4480000D02*
X10920000Y-4520000D01*
X10920000Y-4480000D02*
X10880000Y-4520000D01*
X10880000Y-5780000D02*
X10920000Y-5820000D01*
X10920000Y-5780000D02*
X10880000Y-5820000D01*
X10902000Y-6584000D02*
X10942000Y-6624000D01*
X10942000Y-6584000D02*
X10902000Y-6624000D01*
X10902000Y-7092000D02*
X10942000Y-7132000D01*
X10942000Y-7092000D02*
X10902000Y-7132000D01*
X10980000Y-6380000D02*
X11020000Y-6420000D01*
X11020000Y-6380000D02*
X10980000Y-6420000D01*
X10980000Y-10394000D02*
X11020000Y-10434000D01*
X11020000Y-10394000D02*
X10980000Y-10434000D01*
X11002000Y-7092000D02*
X11042000Y-7132000D01*
X11042000Y-7092000D02*
X11002000Y-7132000D01*
X11080000Y-6680000D02*
X11120000Y-6720000D01*
X11120000Y-6680000D02*
X11080000Y-6720000D01*
X11087550Y-10902000D02*
X11127550Y-10942000D01*
X11127550Y-10902000D02*
X11087550Y-10942000D01*
X11087550Y-11410000D02*
X11127550Y-11450000D01*
X11127550Y-11410000D02*
X11087550Y-11450000D01*
X11156000Y-11664000D02*
X11196000Y-11704000D01*
X11196000Y-11664000D02*
X11156000Y-11704000D01*
X11170000Y-7092000D02*
X11210000Y-7132000D01*
X11210000Y-7092000D02*
X11170000Y-7132000D01*
X11180000Y-4980000D02*
X11220000Y-5020000D01*
X11220000Y-4980000D02*
X11180000Y-5020000D01*
X11210000Y-11780000D02*
X11250000Y-11820000D01*
X11250000Y-11780000D02*
X11210000Y-11820000D01*
X11380000Y-4880000D02*
X11420000Y-4920000D01*
X11420000Y-4880000D02*
X11380000Y-4920000D01*
X11410000Y-7600000D02*
X11450000Y-7640000D01*
X11450000Y-7600000D02*
X11410000Y-7640000D01*
X11410000Y-8480000D02*
X11450000Y-8520000D01*
X11450000Y-8480000D02*
X11410000Y-8520000D01*
X11410000Y-10648000D02*
X11450000Y-10688000D01*
X11450000Y-10648000D02*
X11410000Y-10688000D01*
X11410000Y-11156000D02*
X11450000Y-11196000D01*
X11450000Y-11156000D02*
X11410000Y-11196000D01*
X11410000Y-12172000D02*
X11450000Y-12212000D01*
X11450000Y-12172000D02*
X11410000Y-12212000D01*
X11480000Y-5180000D02*
X11520000Y-5220000D01*
X11520000Y-5180000D02*
X11480000Y-5220000D01*
X11480000Y-5280000D02*
X11520000Y-5320000D01*
X11520000Y-5280000D02*
X11480000Y-5320000D01*
X11480000Y-5380000D02*
X11520000Y-5420000D01*
X11520000Y-5380000D02*
X11480000Y-5420000D01*
X11580000Y-4480000D02*
X11620000Y-4520000D01*
X11620000Y-4480000D02*
X11580000Y-4520000D01*
X11580000Y-5500000D02*
X11620000Y-5540000D01*
X11620000Y-5500000D02*
X11580000Y-5540000D01*
X11580000Y-5850000D02*
X11620000Y-5890000D01*
X11620000Y-5850000D02*
X11580000Y-5890000D01*
X11664000Y-6980000D02*
X11704000Y-7020000D01*
X11704000Y-6980000D02*
X11664000Y-7020000D01*
X11664000Y-8362000D02*
X11704000Y-8402000D01*
X11704000Y-8362000D02*
X11664000Y-8402000D01*
X11666680Y-7177220D02*
X11706680Y-7217220D01*
X11706680Y-7177220D02*
X11666680Y-7217220D01*
X11918000Y-8616000D02*
X11958000Y-8656000D01*
X11958000Y-8616000D02*
X11918000Y-8656000D01*
X11918000Y-9632000D02*
X11958000Y-9672000D01*
X11958000Y-9632000D02*
X11918000Y-9672000D01*
X11918000Y-10648000D02*
X11958000Y-10688000D01*
X11958000Y-10648000D02*
X11918000Y-10688000D01*
X11918000Y-11918000D02*
X11958000Y-11958000D01*
X11958000Y-11918000D02*
X11918000Y-11958000D01*
X12280000Y-6838000D02*
X12320000Y-6878000D01*
X12320000Y-6838000D02*
X12280000Y-6878000D01*
X12380000Y-5580000D02*
X12420000Y-5620000D01*
X12420000Y-5580000D02*
X12380000Y-5620000D01*
X12680000Y-5822000D02*
X12720000Y-5862000D01*
X12720000Y-5822000D02*
X12680000Y-5862000D01*
X12680000Y-6580000D02*
X12720000Y-6620000D01*
X12720000Y-6580000D02*
X12680000Y-6620000D01*
X12680000Y-8108000D02*
X12720000Y-8148000D01*
X12720000Y-8108000D02*
X12680000Y-8148000D01*
X12730000Y-6330000D02*
X12770000Y-6370000D01*
X12770000Y-6330000D02*
X12730000Y-6370000D01*
X12934000Y-6700000D02*
X12974000Y-6740000D01*
X12974000Y-6700000D02*
X12934000Y-6740000D01*
X13442000Y-4806000D02*
X13482000Y-4846000D01*
X13482000Y-4806000D02*
X13442000Y-4846000D01*
X13442000Y-11156000D02*
X13482000Y-11196000D01*
X13482000Y-11156000D02*
X13442000Y-11196000D01*
X13480000Y-6430000D02*
X13520000Y-6470000D01*
X13520000Y-6430000D02*
X13480000Y-6470000D01*
X13696000Y-8108000D02*
X13736000Y-8148000D01*
X13736000Y-8108000D02*
X13696000Y-8148000D01*
X15220000Y-4806000D02*
X15260000Y-4846000D01*
X15260000Y-4806000D02*
X15220000Y-4846000D01*
X15220000Y-6330000D02*
X15260000Y-6370000D01*
X15260000Y-6330000D02*
X15220000Y-6370000D01*
X15220000Y-8108000D02*
X15260000Y-8148000D01*
X15260000Y-8108000D02*
X15220000Y-8148000D01*
X15982000Y-7600000D02*
X16022000Y-7640000D01*
X16022000Y-7600000D02*
X15982000Y-7640000D01*
X13995000Y-4140000D02*
G75*
G03*
X13995000Y-4140000I-25000J0D01*
G01*
X13945000Y-4107500D02*
X13945000Y-4172500D01*
X13945000Y-4172500D02*
G75*
G03*
X13995000Y-4172500I25000J0D01*
G01*
X13995000Y-4172500D02*
X13995000Y-4107500D01*
X13995000Y-4107500D02*
G75*
G03*
X13945000Y-4107500I-25000J0D01*
G01*
X14695000Y-4140000D02*
G75*
G03*
X14695000Y-4140000I-25000J0D01*
G01*
X14645000Y-4107500D02*
X14645000Y-4172500D01*
X14645000Y-4172500D02*
G75*
G03*
X14695000Y-4172500I25000J0D01*
G01*
X14695000Y-4172500D02*
X14695000Y-4107500D01*
X14695000Y-4107500D02*
G75*
G03*
X14645000Y-4107500I-25000J0D01*
G01*
X14070000Y-4382500D02*
X14070000Y-4437500D01*
X14042500Y-4410000D02*
X14097500Y-4410000D01*
X14055000Y-4437500D02*
X14085000Y-4437500D01*
X14085000Y-4437500D02*
G75*
G03*
X14085000Y-4382500I0J27500D01*
G01*
X14085000Y-4382500D02*
X14055000Y-4382500D01*
X14055000Y-4382500D02*
G75*
G03*
X14055000Y-4437500I0J-27500D01*
G01*
X14570000Y-4382500D02*
X14570000Y-4437500D01*
X14542500Y-4410000D02*
X14597500Y-4410000D01*
X14555000Y-4437500D02*
X14585000Y-4437500D01*
X14585000Y-4437500D02*
G75*
G03*
X14585000Y-4382500I0J27500D01*
G01*
X14585000Y-4382500D02*
X14555000Y-4382500D01*
X14555000Y-4382500D02*
G75*
G03*
X14555000Y-4437500I0J-27500D01*
G01*
X15655527Y-5824277D02*
X15655527Y-5759223D01*
X15590473Y-5759223D01*
X15590473Y-5824277D01*
X15655527Y-5824277D01*
X15655527Y-6024277D02*
X15655527Y-5959223D01*
X15590473Y-5959223D01*
X15590473Y-6024277D01*
X15655527Y-6024277D01*
X15905527Y-5824277D02*
X15905527Y-5759223D01*
X15840473Y-5759223D01*
X15840473Y-5824277D01*
X15905527Y-5824277D01*
X15905527Y-6024277D02*
X15905527Y-5959223D01*
X15840473Y-5959223D01*
X15840473Y-6024277D01*
X15905527Y-6024277D01*
X8250000Y-6869000D02*
X8300000Y-6819000D01*
X8250000Y-6769000D01*
X8200000Y-6819000D01*
X8250000Y-6869000D01*
X8250000Y-7123000D02*
X8300000Y-7073000D01*
X8250000Y-7023000D01*
X8200000Y-7073000D01*
X8250000Y-7123000D01*
X8250000Y-7377000D02*
X8300000Y-7327000D01*
X8250000Y-7277000D01*
X8200000Y-7327000D01*
X8250000Y-7377000D01*
X8250000Y-7631000D02*
X8300000Y-7581000D01*
X8250000Y-7531000D01*
X8200000Y-7581000D01*
X8250000Y-7631000D01*
X8250000Y-8722500D02*
X8300000Y-8672500D01*
X8250000Y-8622500D01*
X8200000Y-8672500D01*
X8250000Y-8722500D01*
X8250000Y-8976500D02*
X8300000Y-8926500D01*
X8250000Y-8876500D01*
X8200000Y-8926500D01*
X8250000Y-8976500D01*
X8250000Y-11669000D02*
X8300000Y-11619000D01*
X8250000Y-11569000D01*
X8200000Y-11619000D01*
X8250000Y-11669000D01*
X8250000Y-11923000D02*
X8300000Y-11873000D01*
X8250000Y-11823000D01*
X8200000Y-11873000D01*
X8250000Y-11923000D01*
X8250000Y-12177000D02*
X8300000Y-12127000D01*
X8250000Y-12077000D01*
X8200000Y-12127000D01*
X8250000Y-12177000D01*
X8250000Y-12431000D02*
X8300000Y-12381000D01*
X8250000Y-12331000D01*
X8200000Y-12381000D01*
X8250000Y-12431000D01*
X8890000Y-11988000D02*
X8940000Y-11938000D01*
X8890000Y-11888000D01*
X8840000Y-11938000D01*
X8890000Y-11988000D01*
X8890000Y-12242000D02*
X8940000Y-12192000D01*
X8890000Y-12142000D01*
X8840000Y-12192000D01*
X8890000Y-12242000D01*
X9144000Y-11988000D02*
X9194000Y-11938000D01*
X9144000Y-11888000D01*
X9094000Y-11938000D01*
X9144000Y-11988000D01*
X9144000Y-12242000D02*
X9194000Y-12192000D01*
X9144000Y-12142000D01*
X9094000Y-12192000D01*
X9144000Y-12242000D01*
X9398000Y-11988000D02*
X9448000Y-11938000D01*
X9398000Y-11888000D01*
X9348000Y-11938000D01*
X9398000Y-11988000D01*
X9398000Y-12242000D02*
X9448000Y-12192000D01*
X9398000Y-12142000D01*
X9348000Y-12192000D01*
X9398000Y-12242000D01*
X9800000Y-4596000D02*
X9850000Y-4546000D01*
X9800000Y-4496000D01*
X9750000Y-4546000D01*
X9800000Y-4596000D01*
X9800000Y-4850000D02*
X9850000Y-4800000D01*
X9800000Y-4750000D01*
X9750000Y-4800000D01*
X9800000Y-4850000D01*
X9800000Y-5104000D02*
X9850000Y-5054000D01*
X9800000Y-5004000D01*
X9750000Y-5054000D01*
X9800000Y-5104000D01*
X9800000Y-6196000D02*
X9850000Y-6146000D01*
X9800000Y-6096000D01*
X9750000Y-6146000D01*
X9800000Y-6196000D01*
X9800000Y-6450000D02*
X9850000Y-6400000D01*
X9800000Y-6350000D01*
X9750000Y-6400000D01*
X9800000Y-6450000D01*
X9800000Y-6704000D02*
X9850000Y-6654000D01*
X9800000Y-6604000D01*
X9750000Y-6654000D01*
X9800000Y-6704000D01*
X9800000Y-7796000D02*
X9850000Y-7746000D01*
X9800000Y-7696000D01*
X9750000Y-7746000D01*
X9800000Y-7796000D01*
X9800000Y-8050000D02*
X9850000Y-8000000D01*
X9800000Y-7950000D01*
X9750000Y-8000000D01*
X9800000Y-8050000D01*
X9800000Y-8304000D02*
X9850000Y-8254000D01*
X9800000Y-8204000D01*
X9750000Y-8254000D01*
X9800000Y-8304000D01*
X9800000Y-9396000D02*
X9850000Y-9346000D01*
X9800000Y-9296000D01*
X9750000Y-9346000D01*
X9800000Y-9396000D01*
X9800000Y-9650000D02*
X9850000Y-9600000D01*
X9800000Y-9550000D01*
X9750000Y-9600000D01*
X9800000Y-9650000D01*
X9800000Y-9904000D02*
X9850000Y-9854000D01*
X9800000Y-9804000D01*
X9750000Y-9854000D01*
X9800000Y-9904000D01*
X9800000Y-10996000D02*
X9850000Y-10946000D01*
X9800000Y-10896000D01*
X9750000Y-10946000D01*
X9800000Y-10996000D01*
X9800000Y-11250000D02*
X9850000Y-11200000D01*
X9800000Y-11150000D01*
X9750000Y-11200000D01*
X9800000Y-11250000D01*
X9800000Y-11504000D02*
X9850000Y-11454000D01*
X9800000Y-11404000D01*
X9750000Y-11454000D01*
X9800000Y-11504000D01*
X9800000Y-12596000D02*
X9850000Y-12546000D01*
X9800000Y-12496000D01*
X9750000Y-12546000D01*
X9800000Y-12596000D01*
X9800000Y-12850000D02*
X9850000Y-12800000D01*
X9800000Y-12750000D01*
X9750000Y-12800000D01*
X9800000Y-12850000D01*
X9800000Y-13104000D02*
X9850000Y-13054000D01*
X9800000Y-13004000D01*
X9750000Y-13054000D01*
X9800000Y-13104000D01*
X10819000Y-4300000D02*
X10869000Y-4250000D01*
X10819000Y-4200000D01*
X10769000Y-4250000D01*
X10819000Y-4300000D01*
X10819000Y-13400000D02*
X10869000Y-13350000D01*
X10819000Y-13300000D01*
X10769000Y-13350000D01*
X10819000Y-13400000D01*
X11073000Y-4300000D02*
X11123000Y-4250000D01*
X11073000Y-4200000D01*
X11023000Y-4250000D01*
X11073000Y-4300000D01*
X11073000Y-13400000D02*
X11123000Y-13350000D01*
X11073000Y-13300000D01*
X11023000Y-13350000D01*
X11073000Y-13400000D01*
X11327000Y-4300000D02*
X11377000Y-4250000D01*
X11327000Y-4200000D01*
X11277000Y-4250000D01*
X11327000Y-4300000D01*
X11327000Y-13400000D02*
X11377000Y-13350000D01*
X11327000Y-13300000D01*
X11277000Y-13350000D01*
X11327000Y-13400000D01*
X11581000Y-4300000D02*
X11631000Y-4250000D01*
X11581000Y-4200000D01*
X11531000Y-4250000D01*
X11581000Y-4300000D01*
X11581000Y-13400000D02*
X11631000Y-13350000D01*
X11581000Y-13300000D01*
X11531000Y-13350000D01*
X11581000Y-13400000D01*
X12572500Y-13400000D02*
X12622500Y-13350000D01*
X12572500Y-13300000D01*
X12522500Y-13350000D01*
X12572500Y-13400000D01*
X12672500Y-4300000D02*
X12722500Y-4250000D01*
X12672500Y-4200000D01*
X12622500Y-4250000D01*
X12672500Y-4300000D01*
X12826500Y-13400000D02*
X12876500Y-13350000D01*
X12826500Y-13300000D01*
X12776500Y-13350000D01*
X12826500Y-13400000D01*
X12926500Y-4300000D02*
X12976500Y-4250000D01*
X12926500Y-4200000D01*
X12876500Y-4250000D01*
X12926500Y-4300000D01*
X17350000Y-6869000D02*
X17400000Y-6819000D01*
X17350000Y-6769000D01*
X17300000Y-6819000D01*
X17350000Y-6869000D01*
X17350000Y-7123000D02*
X17400000Y-7073000D01*
X17350000Y-7023000D01*
X17300000Y-7073000D01*
X17350000Y-7123000D01*
X17350000Y-7377000D02*
X17400000Y-7327000D01*
X17350000Y-7277000D01*
X17300000Y-7327000D01*
X17350000Y-7377000D01*
X17350000Y-7631000D02*
X17400000Y-7581000D01*
X17350000Y-7531000D01*
X17300000Y-7581000D01*
X17350000Y-7631000D01*
X17350000Y-8722500D02*
X17400000Y-8672500D01*
X17350000Y-8622500D01*
X17300000Y-8672500D01*
X17350000Y-8722500D01*
X17350000Y-8976500D02*
X17400000Y-8926500D01*
X17350000Y-8876500D01*
X17300000Y-8926500D01*
X17350000Y-8976500D01*
X17350000Y-11669000D02*
X17400000Y-11619000D01*
X17350000Y-11569000D01*
X17300000Y-11619000D01*
X17350000Y-11669000D01*
X17350000Y-11923000D02*
X17400000Y-11873000D01*
X17350000Y-11823000D01*
X17300000Y-11873000D01*
X17350000Y-11923000D01*
X17350000Y-12177000D02*
X17400000Y-12127000D01*
X17350000Y-12077000D01*
X17300000Y-12127000D01*
X17350000Y-12177000D01*
X17350000Y-12431000D02*
X17400000Y-12381000D01*
X17350000Y-12331000D01*
X17300000Y-12381000D01*
X17350000Y-12431000D01*
X17500000Y-4850000D02*
X17550000Y-4800000D01*
X17500000Y-4750000D01*
X17450000Y-4800000D01*
X17500000Y-4850000D01*
X17500000Y-6450000D02*
X17550000Y-6400000D01*
X17500000Y-6350000D01*
X17450000Y-6400000D01*
X17500000Y-6450000D01*
X17500000Y-8050000D02*
X17550000Y-8000000D01*
X17500000Y-7950000D01*
X17450000Y-8000000D01*
X17500000Y-8050000D01*
X17500000Y-9650000D02*
X17550000Y-9600000D01*
X17500000Y-9550000D01*
X17450000Y-9600000D01*
X17500000Y-9650000D01*
X17500000Y-11250000D02*
X17550000Y-11200000D01*
X17500000Y-11150000D01*
X17450000Y-11200000D01*
X17500000Y-11250000D01*
X17500000Y-12850000D02*
X17550000Y-12800000D01*
X17500000Y-12750000D01*
X17450000Y-12800000D01*
X17500000Y-12850000D01*
D12*
X8074000Y-4238000D02*
X8182000Y-4346000D01*
X8182000Y-4238000D02*
X8074000Y-4346000D01*
X8182000Y-4292000D02*
G75*
G03*
X8182000Y-4292000I-54000J0D01*
G01*
X8074000Y-5254000D02*
X8182000Y-5362000D01*
X8182000Y-5254000D02*
X8074000Y-5362000D01*
X8182000Y-5308000D02*
G75*
G03*
X8182000Y-5308000I-54000J0D01*
G01*
X8328000Y-4238000D02*
X8436000Y-4346000D01*
X8436000Y-4238000D02*
X8328000Y-4346000D01*
X8436000Y-4292000D02*
G75*
G03*
X8436000Y-4292000I-54000J0D01*
G01*
X8328000Y-5254000D02*
X8436000Y-5362000D01*
X8436000Y-5254000D02*
X8328000Y-5362000D01*
X8436000Y-5308000D02*
G75*
G03*
X8436000Y-5308000I-54000J0D01*
G01*
X8582000Y-4238000D02*
X8690000Y-4346000D01*
X8690000Y-4238000D02*
X8582000Y-4346000D01*
X8690000Y-4292000D02*
G75*
G03*
X8690000Y-4292000I-54000J0D01*
G01*
X8582000Y-5254000D02*
X8690000Y-5362000D01*
X8690000Y-5254000D02*
X8582000Y-5362000D01*
X8690000Y-5308000D02*
G75*
G03*
X8690000Y-5308000I-54000J0D01*
G01*
X8836000Y-4238000D02*
X8944000Y-4346000D01*
X8944000Y-4238000D02*
X8836000Y-4346000D01*
X8944000Y-4292000D02*
G75*
G03*
X8944000Y-4292000I-54000J0D01*
G01*
X8836000Y-5254000D02*
X8944000Y-5362000D01*
X8944000Y-5254000D02*
X8836000Y-5362000D01*
X8944000Y-5308000D02*
G75*
G03*
X8944000Y-5308000I-54000J0D01*
G01*
X9090000Y-4238000D02*
X9198000Y-4346000D01*
X9198000Y-4238000D02*
X9090000Y-4346000D01*
X9198000Y-4292000D02*
G75*
G03*
X9198000Y-4292000I-54000J0D01*
G01*
X9090000Y-5254000D02*
X9198000Y-5362000D01*
X9198000Y-5254000D02*
X9090000Y-5362000D01*
X9198000Y-5308000D02*
G75*
G03*
X9198000Y-5308000I-54000J0D01*
G01*
D13*
X14145000Y-4771000D02*
X14255000Y-4881000D01*
X14255000Y-4771000D02*
X14145000Y-4881000D01*
X14200000Y-4771000D02*
X14200000Y-4881000D01*
X14145000Y-4826000D02*
X14255000Y-4826000D01*
X14145000Y-5787000D02*
X14255000Y-5897000D01*
X14255000Y-5787000D02*
X14145000Y-5897000D01*
X14200000Y-5787000D02*
X14200000Y-5897000D01*
X14145000Y-5842000D02*
X14255000Y-5842000D01*
X14169000Y-6041000D02*
X14279000Y-6151000D01*
X14279000Y-6041000D02*
X14169000Y-6151000D01*
X14224000Y-6041000D02*
X14224000Y-6151000D01*
X14169000Y-6096000D02*
X14279000Y-6096000D01*
X14169000Y-7057000D02*
X14279000Y-7167000D01*
X14279000Y-7057000D02*
X14169000Y-7167000D01*
X14224000Y-7057000D02*
X14224000Y-7167000D01*
X14169000Y-7112000D02*
X14279000Y-7112000D01*
X14495000Y-4771000D02*
X14605000Y-4881000D01*
X14605000Y-4771000D02*
X14495000Y-4881000D01*
X14550000Y-4771000D02*
X14550000Y-4881000D01*
X14495000Y-4826000D02*
X14605000Y-4826000D01*
X14495000Y-5787000D02*
X14605000Y-5897000D01*
X14605000Y-5787000D02*
X14495000Y-5897000D01*
X14550000Y-5787000D02*
X14550000Y-5897000D01*
X14495000Y-5842000D02*
X14605000Y-5842000D01*
X14677000Y-6041000D02*
X14787000Y-6151000D01*
X14787000Y-6041000D02*
X14677000Y-6151000D01*
X14732000Y-6041000D02*
X14732000Y-6151000D01*
X14677000Y-6096000D02*
X14787000Y-6096000D01*
X14677000Y-7057000D02*
X14787000Y-7167000D01*
X14787000Y-7057000D02*
X14677000Y-7167000D01*
X14732000Y-7057000D02*
X14732000Y-7167000D01*
X14677000Y-7112000D02*
X14787000Y-7112000D01*
D14*
X8574500Y-5769500D02*
X8697500Y-5892500D01*
X8697500Y-5769500D02*
X8574500Y-5892500D01*
X8679488Y-5874487D02*
X8679488Y-5787512D01*
X8592513Y-5787512D01*
X8592513Y-5874487D01*
X8679488Y-5874487D01*
X8828500Y-5769500D02*
X8951500Y-5892500D01*
X8951500Y-5769500D02*
X8828500Y-5892500D01*
X8933488Y-5874487D02*
X8933488Y-5787512D01*
X8846513Y-5787512D01*
X8846513Y-5874487D01*
X8933488Y-5874487D01*
X9082500Y-5769500D02*
X9205500Y-5892500D01*
X9205500Y-5769500D02*
X9082500Y-5892500D01*
X9187488Y-5874487D02*
X9187488Y-5787512D01*
X9100513Y-5787512D01*
X9100513Y-5874487D01*
X9187488Y-5874487D01*
D15*
X15029500Y-5404250D02*
X15262500Y-5637250D01*
X15262500Y-5404250D02*
X15029500Y-5637250D01*
X15146000Y-5637250D02*
X15262500Y-5520750D01*
X15146000Y-5404250D01*
X15029500Y-5520750D01*
X15146000Y-5637250D01*
X16233500Y-5404250D02*
X16466500Y-5637250D01*
X16466500Y-5404250D02*
X16233500Y-5637250D01*
X16350000Y-5637250D02*
X16466500Y-5520750D01*
X16350000Y-5404250D01*
X16233500Y-5520750D01*
X16350000Y-5637250D01*
D11*
X8255777Y-13916484D02*
X8255777Y-13716484D01*
X8255777Y-13716484D02*
X8303396Y-13716484D01*
X8303396Y-13716484D02*
X8331967Y-13726008D01*
X8331967Y-13726008D02*
X8351015Y-13745055D01*
X8351015Y-13745055D02*
X8360539Y-13764103D01*
X8360539Y-13764103D02*
X8370062Y-13802198D01*
X8370062Y-13802198D02*
X8370062Y-13830769D01*
X8370062Y-13830769D02*
X8360539Y-13868865D01*
X8360539Y-13868865D02*
X8351015Y-13887912D01*
X8351015Y-13887912D02*
X8331967Y-13906960D01*
X8331967Y-13906960D02*
X8303396Y-13916484D01*
X8303396Y-13916484D02*
X8255777Y-13916484D01*
X8455777Y-13916484D02*
X8455777Y-13783150D01*
X8455777Y-13821246D02*
X8465301Y-13802198D01*
X8465301Y-13802198D02*
X8474824Y-13792674D01*
X8474824Y-13792674D02*
X8493872Y-13783150D01*
X8493872Y-13783150D02*
X8512920Y-13783150D01*
X8579586Y-13916484D02*
X8579586Y-13783150D01*
X8579586Y-13716484D02*
X8570063Y-13726008D01*
X8570063Y-13726008D02*
X8579586Y-13735531D01*
X8579586Y-13735531D02*
X8589110Y-13726008D01*
X8589110Y-13726008D02*
X8579586Y-13716484D01*
X8579586Y-13716484D02*
X8579586Y-13735531D01*
X8703396Y-13916484D02*
X8684348Y-13906960D01*
X8684348Y-13906960D02*
X8674824Y-13887912D01*
X8674824Y-13887912D02*
X8674824Y-13716484D01*
X8808158Y-13916484D02*
X8789110Y-13906960D01*
X8789110Y-13906960D02*
X8779586Y-13887912D01*
X8779586Y-13887912D02*
X8779586Y-13716484D01*
X9036729Y-13916484D02*
X9036729Y-13716484D01*
X9036729Y-13716484D02*
X9103396Y-13859341D01*
X9103396Y-13859341D02*
X9170063Y-13716484D01*
X9170063Y-13716484D02*
X9170063Y-13916484D01*
X9351015Y-13916484D02*
X9351015Y-13811722D01*
X9351015Y-13811722D02*
X9341491Y-13792674D01*
X9341491Y-13792674D02*
X9322444Y-13783150D01*
X9322444Y-13783150D02*
X9284348Y-13783150D01*
X9284348Y-13783150D02*
X9265301Y-13792674D01*
X9351015Y-13906960D02*
X9331967Y-13916484D01*
X9331967Y-13916484D02*
X9284348Y-13916484D01*
X9284348Y-13916484D02*
X9265301Y-13906960D01*
X9265301Y-13906960D02*
X9255777Y-13887912D01*
X9255777Y-13887912D02*
X9255777Y-13868865D01*
X9255777Y-13868865D02*
X9265301Y-13849817D01*
X9265301Y-13849817D02*
X9284348Y-13840293D01*
X9284348Y-13840293D02*
X9331967Y-13840293D01*
X9331967Y-13840293D02*
X9351015Y-13830769D01*
X9446253Y-13783150D02*
X9446253Y-13983150D01*
X9446253Y-13792674D02*
X9465301Y-13783150D01*
X9465301Y-13783150D02*
X9503396Y-13783150D01*
X9503396Y-13783150D02*
X9522444Y-13792674D01*
X9522444Y-13792674D02*
X9531967Y-13802198D01*
X9531967Y-13802198D02*
X9541491Y-13821246D01*
X9541491Y-13821246D02*
X9541491Y-13878388D01*
X9541491Y-13878388D02*
X9531967Y-13897436D01*
X9531967Y-13897436D02*
X9522444Y-13906960D01*
X9522444Y-13906960D02*
X9503396Y-13916484D01*
X9503396Y-13916484D02*
X9465301Y-13916484D01*
X9465301Y-13916484D02*
X9446253Y-13906960D01*
X9627205Y-13897436D02*
X9636729Y-13906960D01*
X9636729Y-13906960D02*
X9627205Y-13916484D01*
X9627205Y-13916484D02*
X9617682Y-13906960D01*
X9617682Y-13906960D02*
X9627205Y-13897436D01*
X9627205Y-13897436D02*
X9627205Y-13916484D01*
X9627205Y-13792674D02*
X9636729Y-13802198D01*
X9636729Y-13802198D02*
X9627205Y-13811722D01*
X9627205Y-13811722D02*
X9617682Y-13802198D01*
X9617682Y-13802198D02*
X9627205Y-13792674D01*
X9627205Y-13792674D02*
X9627205Y-13811722D01*
D10*
X7955000Y-14225000D02*
X7995000Y-14265000D01*
X7995000Y-14225000D02*
X7955000Y-14265000D01*
D11*
X8293872Y-14136484D02*
X8312920Y-14136484D01*
X8312920Y-14136484D02*
X8331967Y-14146008D01*
X8331967Y-14146008D02*
X8341491Y-14155531D01*
X8341491Y-14155531D02*
X8351015Y-14174579D01*
X8351015Y-14174579D02*
X8360539Y-14212674D01*
X8360539Y-14212674D02*
X8360539Y-14260293D01*
X8360539Y-14260293D02*
X8351015Y-14298388D01*
X8351015Y-14298388D02*
X8341491Y-14317436D01*
X8341491Y-14317436D02*
X8331967Y-14326960D01*
X8331967Y-14326960D02*
X8312920Y-14336484D01*
X8312920Y-14336484D02*
X8293872Y-14336484D01*
X8293872Y-14336484D02*
X8274824Y-14326960D01*
X8274824Y-14326960D02*
X8265301Y-14317436D01*
X8265301Y-14317436D02*
X8255777Y-14298388D01*
X8255777Y-14298388D02*
X8246253Y-14260293D01*
X8246253Y-14260293D02*
X8246253Y-14212674D01*
X8246253Y-14212674D02*
X8255777Y-14174579D01*
X8255777Y-14174579D02*
X8265301Y-14155531D01*
X8265301Y-14155531D02*
X8274824Y-14146008D01*
X8274824Y-14146008D02*
X8293872Y-14136484D01*
X8446253Y-14317436D02*
X8455777Y-14326960D01*
X8455777Y-14326960D02*
X8446253Y-14336484D01*
X8446253Y-14336484D02*
X8436729Y-14326960D01*
X8436729Y-14326960D02*
X8446253Y-14317436D01*
X8446253Y-14317436D02*
X8446253Y-14336484D01*
X8627205Y-14203150D02*
X8627205Y-14336484D01*
X8579586Y-14126960D02*
X8531967Y-14269817D01*
X8531967Y-14269817D02*
X8655777Y-14269817D01*
X8770063Y-14136484D02*
X8789110Y-14136484D01*
X8789110Y-14136484D02*
X8808158Y-14146008D01*
X8808158Y-14146008D02*
X8817682Y-14155531D01*
X8817682Y-14155531D02*
X8827205Y-14174579D01*
X8827205Y-14174579D02*
X8836729Y-14212674D01*
X8836729Y-14212674D02*
X8836729Y-14260293D01*
X8836729Y-14260293D02*
X8827205Y-14298388D01*
X8827205Y-14298388D02*
X8817682Y-14317436D01*
X8817682Y-14317436D02*
X8808158Y-14326960D01*
X8808158Y-14326960D02*
X8789110Y-14336484D01*
X8789110Y-14336484D02*
X8770063Y-14336484D01*
X8770063Y-14336484D02*
X8751015Y-14326960D01*
X8751015Y-14326960D02*
X8741491Y-14317436D01*
X8741491Y-14317436D02*
X8731967Y-14298388D01*
X8731967Y-14298388D02*
X8722444Y-14260293D01*
X8722444Y-14260293D02*
X8722444Y-14212674D01*
X8722444Y-14212674D02*
X8731967Y-14174579D01*
X8731967Y-14174579D02*
X8741491Y-14155531D01*
X8741491Y-14155531D02*
X8751015Y-14146008D01*
X8751015Y-14146008D02*
X8770063Y-14136484D01*
X8960539Y-14136484D02*
X8979586Y-14136484D01*
X8979586Y-14136484D02*
X8998634Y-14146008D01*
X8998634Y-14146008D02*
X9008158Y-14155531D01*
X9008158Y-14155531D02*
X9017682Y-14174579D01*
X9017682Y-14174579D02*
X9027205Y-14212674D01*
X9027205Y-14212674D02*
X9027205Y-14260293D01*
X9027205Y-14260293D02*
X9017682Y-14298388D01*
X9017682Y-14298388D02*
X9008158Y-14317436D01*
X9008158Y-14317436D02*
X8998634Y-14326960D01*
X8998634Y-14326960D02*
X8979586Y-14336484D01*
X8979586Y-14336484D02*
X8960539Y-14336484D01*
X8960539Y-14336484D02*
X8941491Y-14326960D01*
X8941491Y-14326960D02*
X8931967Y-14317436D01*
X8931967Y-14317436D02*
X8922444Y-14298388D01*
X8922444Y-14298388D02*
X8912920Y-14260293D01*
X8912920Y-14260293D02*
X8912920Y-14212674D01*
X8912920Y-14212674D02*
X8922444Y-14174579D01*
X8922444Y-14174579D02*
X8931967Y-14155531D01*
X8931967Y-14155531D02*
X8941491Y-14146008D01*
X8941491Y-14146008D02*
X8960539Y-14136484D01*
X9112920Y-14336484D02*
X9112920Y-14203150D01*
X9112920Y-14222198D02*
X9122444Y-14212674D01*
X9122444Y-14212674D02*
X9141491Y-14203150D01*
X9141491Y-14203150D02*
X9170063Y-14203150D01*
X9170063Y-14203150D02*
X9189110Y-14212674D01*
X9189110Y-14212674D02*
X9198634Y-14231722D01*
X9198634Y-14231722D02*
X9198634Y-14336484D01*
X9198634Y-14231722D02*
X9208158Y-14212674D01*
X9208158Y-14212674D02*
X9227205Y-14203150D01*
X9227205Y-14203150D02*
X9255777Y-14203150D01*
X9255777Y-14203150D02*
X9274825Y-14212674D01*
X9274825Y-14212674D02*
X9284348Y-14231722D01*
X9284348Y-14231722D02*
X9284348Y-14336484D01*
X9379586Y-14336484D02*
X9379586Y-14203150D01*
X9379586Y-14222198D02*
X9389110Y-14212674D01*
X9389110Y-14212674D02*
X9408158Y-14203150D01*
X9408158Y-14203150D02*
X9436729Y-14203150D01*
X9436729Y-14203150D02*
X9455777Y-14212674D01*
X9455777Y-14212674D02*
X9465301Y-14231722D01*
X9465301Y-14231722D02*
X9465301Y-14336484D01*
X9465301Y-14231722D02*
X9474825Y-14212674D01*
X9474825Y-14212674D02*
X9493872Y-14203150D01*
X9493872Y-14203150D02*
X9522444Y-14203150D01*
X9522444Y-14203150D02*
X9541491Y-14212674D01*
X9541491Y-14212674D02*
X9551015Y-14231722D01*
X9551015Y-14231722D02*
X9551015Y-14336484D01*
X9941491Y-14126960D02*
X9770063Y-14384103D01*
X10198634Y-14136484D02*
X10217682Y-14136484D01*
X10217682Y-14136484D02*
X10236729Y-14146008D01*
X10236729Y-14146008D02*
X10246253Y-14155531D01*
X10246253Y-14155531D02*
X10255777Y-14174579D01*
X10255777Y-14174579D02*
X10265301Y-14212674D01*
X10265301Y-14212674D02*
X10265301Y-14260293D01*
X10265301Y-14260293D02*
X10255777Y-14298388D01*
X10255777Y-14298388D02*
X10246253Y-14317436D01*
X10246253Y-14317436D02*
X10236729Y-14326960D01*
X10236729Y-14326960D02*
X10217682Y-14336484D01*
X10217682Y-14336484D02*
X10198634Y-14336484D01*
X10198634Y-14336484D02*
X10179587Y-14326960D01*
X10179587Y-14326960D02*
X10170063Y-14317436D01*
X10170063Y-14317436D02*
X10160539Y-14298388D01*
X10160539Y-14298388D02*
X10151015Y-14260293D01*
X10151015Y-14260293D02*
X10151015Y-14212674D01*
X10151015Y-14212674D02*
X10160539Y-14174579D01*
X10160539Y-14174579D02*
X10170063Y-14155531D01*
X10170063Y-14155531D02*
X10179587Y-14146008D01*
X10179587Y-14146008D02*
X10198634Y-14136484D01*
X10351015Y-14317436D02*
X10360539Y-14326960D01*
X10360539Y-14326960D02*
X10351015Y-14336484D01*
X10351015Y-14336484D02*
X10341491Y-14326960D01*
X10341491Y-14326960D02*
X10351015Y-14317436D01*
X10351015Y-14317436D02*
X10351015Y-14336484D01*
X10484348Y-14136484D02*
X10503396Y-14136484D01*
X10503396Y-14136484D02*
X10522444Y-14146008D01*
X10522444Y-14146008D02*
X10531968Y-14155531D01*
X10531968Y-14155531D02*
X10541491Y-14174579D01*
X10541491Y-14174579D02*
X10551015Y-14212674D01*
X10551015Y-14212674D02*
X10551015Y-14260293D01*
X10551015Y-14260293D02*
X10541491Y-14298388D01*
X10541491Y-14298388D02*
X10531968Y-14317436D01*
X10531968Y-14317436D02*
X10522444Y-14326960D01*
X10522444Y-14326960D02*
X10503396Y-14336484D01*
X10503396Y-14336484D02*
X10484348Y-14336484D01*
X10484348Y-14336484D02*
X10465301Y-14326960D01*
X10465301Y-14326960D02*
X10455777Y-14317436D01*
X10455777Y-14317436D02*
X10446253Y-14298388D01*
X10446253Y-14298388D02*
X10436729Y-14260293D01*
X10436729Y-14260293D02*
X10436729Y-14212674D01*
X10436729Y-14212674D02*
X10446253Y-14174579D01*
X10446253Y-14174579D02*
X10455777Y-14155531D01*
X10455777Y-14155531D02*
X10465301Y-14146008D01*
X10465301Y-14146008D02*
X10484348Y-14136484D01*
X10741491Y-14336484D02*
X10627206Y-14336484D01*
X10684348Y-14336484D02*
X10684348Y-14136484D01*
X10684348Y-14136484D02*
X10665301Y-14165055D01*
X10665301Y-14165055D02*
X10646253Y-14184103D01*
X10646253Y-14184103D02*
X10627206Y-14193627D01*
X10922444Y-14136484D02*
X10827206Y-14136484D01*
X10827206Y-14136484D02*
X10817682Y-14231722D01*
X10817682Y-14231722D02*
X10827206Y-14222198D01*
X10827206Y-14222198D02*
X10846253Y-14212674D01*
X10846253Y-14212674D02*
X10893872Y-14212674D01*
X10893872Y-14212674D02*
X10912920Y-14222198D01*
X10912920Y-14222198D02*
X10922444Y-14231722D01*
X10922444Y-14231722D02*
X10931968Y-14250769D01*
X10931968Y-14250769D02*
X10931968Y-14298388D01*
X10931968Y-14298388D02*
X10922444Y-14317436D01*
X10922444Y-14317436D02*
X10912920Y-14326960D01*
X10912920Y-14326960D02*
X10893872Y-14336484D01*
X10893872Y-14336484D02*
X10846253Y-14336484D01*
X10846253Y-14336484D02*
X10827206Y-14326960D01*
X10827206Y-14326960D02*
X10817682Y-14317436D01*
X10998634Y-14136484D02*
X11131968Y-14136484D01*
X11131968Y-14136484D02*
X11046253Y-14336484D01*
X11198634Y-14136484D02*
X11198634Y-14174579D01*
X11274825Y-14136484D02*
X11274825Y-14174579D01*
X11570063Y-14412674D02*
X11560539Y-14403150D01*
X11560539Y-14403150D02*
X11541491Y-14374579D01*
X11541491Y-14374579D02*
X11531968Y-14355531D01*
X11531968Y-14355531D02*
X11522444Y-14326960D01*
X11522444Y-14326960D02*
X11512920Y-14279341D01*
X11512920Y-14279341D02*
X11512920Y-14241246D01*
X11512920Y-14241246D02*
X11522444Y-14193627D01*
X11522444Y-14193627D02*
X11531968Y-14165055D01*
X11531968Y-14165055D02*
X11541491Y-14146008D01*
X11541491Y-14146008D02*
X11560539Y-14117436D01*
X11560539Y-14117436D02*
X11570063Y-14107912D01*
X11627206Y-14136484D02*
X11760539Y-14136484D01*
X11760539Y-14136484D02*
X11674825Y-14336484D01*
X11941491Y-14336484D02*
X11827206Y-14336484D01*
X11884348Y-14336484D02*
X11884348Y-14136484D01*
X11884348Y-14136484D02*
X11865301Y-14165055D01*
X11865301Y-14165055D02*
X11846253Y-14184103D01*
X11846253Y-14184103D02*
X11827206Y-14193627D01*
X12179587Y-14336484D02*
X12179587Y-14136484D01*
X12265301Y-14336484D02*
X12265301Y-14231722D01*
X12265301Y-14231722D02*
X12255777Y-14212674D01*
X12255777Y-14212674D02*
X12236730Y-14203150D01*
X12236730Y-14203150D02*
X12208158Y-14203150D01*
X12208158Y-14203150D02*
X12189110Y-14212674D01*
X12189110Y-14212674D02*
X12179587Y-14222198D01*
X12389110Y-14336484D02*
X12370063Y-14326960D01*
X12370063Y-14326960D02*
X12360539Y-14317436D01*
X12360539Y-14317436D02*
X12351015Y-14298388D01*
X12351015Y-14298388D02*
X12351015Y-14241246D01*
X12351015Y-14241246D02*
X12360539Y-14222198D01*
X12360539Y-14222198D02*
X12370063Y-14212674D01*
X12370063Y-14212674D02*
X12389110Y-14203150D01*
X12389110Y-14203150D02*
X12417682Y-14203150D01*
X12417682Y-14203150D02*
X12436730Y-14212674D01*
X12436730Y-14212674D02*
X12446253Y-14222198D01*
X12446253Y-14222198D02*
X12455777Y-14241246D01*
X12455777Y-14241246D02*
X12455777Y-14298388D01*
X12455777Y-14298388D02*
X12446253Y-14317436D01*
X12446253Y-14317436D02*
X12436730Y-14326960D01*
X12436730Y-14326960D02*
X12417682Y-14336484D01*
X12417682Y-14336484D02*
X12389110Y-14336484D01*
X12570063Y-14336484D02*
X12551015Y-14326960D01*
X12551015Y-14326960D02*
X12541491Y-14307912D01*
X12541491Y-14307912D02*
X12541491Y-14136484D01*
X12722444Y-14326960D02*
X12703396Y-14336484D01*
X12703396Y-14336484D02*
X12665301Y-14336484D01*
X12665301Y-14336484D02*
X12646253Y-14326960D01*
X12646253Y-14326960D02*
X12636730Y-14307912D01*
X12636730Y-14307912D02*
X12636730Y-14231722D01*
X12636730Y-14231722D02*
X12646253Y-14212674D01*
X12646253Y-14212674D02*
X12665301Y-14203150D01*
X12665301Y-14203150D02*
X12703396Y-14203150D01*
X12703396Y-14203150D02*
X12722444Y-14212674D01*
X12722444Y-14212674D02*
X12731968Y-14231722D01*
X12731968Y-14231722D02*
X12731968Y-14250769D01*
X12731968Y-14250769D02*
X12636730Y-14269817D01*
X12808158Y-14326960D02*
X12827206Y-14336484D01*
X12827206Y-14336484D02*
X12865301Y-14336484D01*
X12865301Y-14336484D02*
X12884349Y-14326960D01*
X12884349Y-14326960D02*
X12893872Y-14307912D01*
X12893872Y-14307912D02*
X12893872Y-14298388D01*
X12893872Y-14298388D02*
X12884349Y-14279341D01*
X12884349Y-14279341D02*
X12865301Y-14269817D01*
X12865301Y-14269817D02*
X12836730Y-14269817D01*
X12836730Y-14269817D02*
X12817682Y-14260293D01*
X12817682Y-14260293D02*
X12808158Y-14241246D01*
X12808158Y-14241246D02*
X12808158Y-14231722D01*
X12808158Y-14231722D02*
X12817682Y-14212674D01*
X12817682Y-14212674D02*
X12836730Y-14203150D01*
X12836730Y-14203150D02*
X12865301Y-14203150D01*
X12865301Y-14203150D02*
X12884349Y-14212674D01*
X12960539Y-14412674D02*
X12970063Y-14403150D01*
X12970063Y-14403150D02*
X12989111Y-14374579D01*
X12989111Y-14374579D02*
X12998634Y-14355531D01*
X12998634Y-14355531D02*
X13008158Y-14326960D01*
X13008158Y-14326960D02*
X13017682Y-14279341D01*
X13017682Y-14279341D02*
X13017682Y-14241246D01*
X13017682Y-14241246D02*
X13008158Y-14193627D01*
X13008158Y-14193627D02*
X12998634Y-14165055D01*
X12998634Y-14165055D02*
X12989111Y-14146008D01*
X12989111Y-14146008D02*
X12970063Y-14117436D01*
X12970063Y-14117436D02*
X12960539Y-14107912D01*
D10*
X7995000Y-14509000D02*
G75*
G03*
X7995000Y-14509000I-25000J0D01*
G01*
D11*
X8293872Y-14400484D02*
X8312920Y-14400484D01*
X8312920Y-14400484D02*
X8331967Y-14410008D01*
X8331967Y-14410008D02*
X8341491Y-14419531D01*
X8341491Y-14419531D02*
X8351015Y-14438579D01*
X8351015Y-14438579D02*
X8360539Y-14476674D01*
X8360539Y-14476674D02*
X8360539Y-14524293D01*
X8360539Y-14524293D02*
X8351015Y-14562388D01*
X8351015Y-14562388D02*
X8341491Y-14581436D01*
X8341491Y-14581436D02*
X8331967Y-14590960D01*
X8331967Y-14590960D02*
X8312920Y-14600484D01*
X8312920Y-14600484D02*
X8293872Y-14600484D01*
X8293872Y-14600484D02*
X8274824Y-14590960D01*
X8274824Y-14590960D02*
X8265301Y-14581436D01*
X8265301Y-14581436D02*
X8255777Y-14562388D01*
X8255777Y-14562388D02*
X8246253Y-14524293D01*
X8246253Y-14524293D02*
X8246253Y-14476674D01*
X8246253Y-14476674D02*
X8255777Y-14438579D01*
X8255777Y-14438579D02*
X8265301Y-14419531D01*
X8265301Y-14419531D02*
X8274824Y-14410008D01*
X8274824Y-14410008D02*
X8293872Y-14400484D01*
X8446253Y-14581436D02*
X8455777Y-14590960D01*
X8455777Y-14590960D02*
X8446253Y-14600484D01*
X8446253Y-14600484D02*
X8436729Y-14590960D01*
X8436729Y-14590960D02*
X8446253Y-14581436D01*
X8446253Y-14581436D02*
X8446253Y-14600484D01*
X8636729Y-14400484D02*
X8541491Y-14400484D01*
X8541491Y-14400484D02*
X8531967Y-14495722D01*
X8531967Y-14495722D02*
X8541491Y-14486198D01*
X8541491Y-14486198D02*
X8560539Y-14476674D01*
X8560539Y-14476674D02*
X8608158Y-14476674D01*
X8608158Y-14476674D02*
X8627205Y-14486198D01*
X8627205Y-14486198D02*
X8636729Y-14495722D01*
X8636729Y-14495722D02*
X8646253Y-14514769D01*
X8646253Y-14514769D02*
X8646253Y-14562388D01*
X8646253Y-14562388D02*
X8636729Y-14581436D01*
X8636729Y-14581436D02*
X8627205Y-14590960D01*
X8627205Y-14590960D02*
X8608158Y-14600484D01*
X8608158Y-14600484D02*
X8560539Y-14600484D01*
X8560539Y-14600484D02*
X8541491Y-14590960D01*
X8541491Y-14590960D02*
X8531967Y-14581436D01*
X8770063Y-14400484D02*
X8789110Y-14400484D01*
X8789110Y-14400484D02*
X8808158Y-14410008D01*
X8808158Y-14410008D02*
X8817682Y-14419531D01*
X8817682Y-14419531D02*
X8827205Y-14438579D01*
X8827205Y-14438579D02*
X8836729Y-14476674D01*
X8836729Y-14476674D02*
X8836729Y-14524293D01*
X8836729Y-14524293D02*
X8827205Y-14562388D01*
X8827205Y-14562388D02*
X8817682Y-14581436D01*
X8817682Y-14581436D02*
X8808158Y-14590960D01*
X8808158Y-14590960D02*
X8789110Y-14600484D01*
X8789110Y-14600484D02*
X8770063Y-14600484D01*
X8770063Y-14600484D02*
X8751015Y-14590960D01*
X8751015Y-14590960D02*
X8741491Y-14581436D01*
X8741491Y-14581436D02*
X8731967Y-14562388D01*
X8731967Y-14562388D02*
X8722444Y-14524293D01*
X8722444Y-14524293D02*
X8722444Y-14476674D01*
X8722444Y-14476674D02*
X8731967Y-14438579D01*
X8731967Y-14438579D02*
X8741491Y-14419531D01*
X8741491Y-14419531D02*
X8751015Y-14410008D01*
X8751015Y-14410008D02*
X8770063Y-14400484D01*
X8960539Y-14400484D02*
X8979586Y-14400484D01*
X8979586Y-14400484D02*
X8998634Y-14410008D01*
X8998634Y-14410008D02*
X9008158Y-14419531D01*
X9008158Y-14419531D02*
X9017682Y-14438579D01*
X9017682Y-14438579D02*
X9027205Y-14476674D01*
X9027205Y-14476674D02*
X9027205Y-14524293D01*
X9027205Y-14524293D02*
X9017682Y-14562388D01*
X9017682Y-14562388D02*
X9008158Y-14581436D01*
X9008158Y-14581436D02*
X8998634Y-14590960D01*
X8998634Y-14590960D02*
X8979586Y-14600484D01*
X8979586Y-14600484D02*
X8960539Y-14600484D01*
X8960539Y-14600484D02*
X8941491Y-14590960D01*
X8941491Y-14590960D02*
X8931967Y-14581436D01*
X8931967Y-14581436D02*
X8922444Y-14562388D01*
X8922444Y-14562388D02*
X8912920Y-14524293D01*
X8912920Y-14524293D02*
X8912920Y-14476674D01*
X8912920Y-14476674D02*
X8922444Y-14438579D01*
X8922444Y-14438579D02*
X8931967Y-14419531D01*
X8931967Y-14419531D02*
X8941491Y-14410008D01*
X8941491Y-14410008D02*
X8960539Y-14400484D01*
X9112920Y-14600484D02*
X9112920Y-14467150D01*
X9112920Y-14486198D02*
X9122444Y-14476674D01*
X9122444Y-14476674D02*
X9141491Y-14467150D01*
X9141491Y-14467150D02*
X9170063Y-14467150D01*
X9170063Y-14467150D02*
X9189110Y-14476674D01*
X9189110Y-14476674D02*
X9198634Y-14495722D01*
X9198634Y-14495722D02*
X9198634Y-14600484D01*
X9198634Y-14495722D02*
X9208158Y-14476674D01*
X9208158Y-14476674D02*
X9227205Y-14467150D01*
X9227205Y-14467150D02*
X9255777Y-14467150D01*
X9255777Y-14467150D02*
X9274825Y-14476674D01*
X9274825Y-14476674D02*
X9284348Y-14495722D01*
X9284348Y-14495722D02*
X9284348Y-14600484D01*
X9379586Y-14600484D02*
X9379586Y-14467150D01*
X9379586Y-14486198D02*
X9389110Y-14476674D01*
X9389110Y-14476674D02*
X9408158Y-14467150D01*
X9408158Y-14467150D02*
X9436729Y-14467150D01*
X9436729Y-14467150D02*
X9455777Y-14476674D01*
X9455777Y-14476674D02*
X9465301Y-14495722D01*
X9465301Y-14495722D02*
X9465301Y-14600484D01*
X9465301Y-14495722D02*
X9474825Y-14476674D01*
X9474825Y-14476674D02*
X9493872Y-14467150D01*
X9493872Y-14467150D02*
X9522444Y-14467150D01*
X9522444Y-14467150D02*
X9541491Y-14476674D01*
X9541491Y-14476674D02*
X9551015Y-14495722D01*
X9551015Y-14495722D02*
X9551015Y-14600484D01*
X9941491Y-14390960D02*
X9770063Y-14648103D01*
X10198634Y-14400484D02*
X10217682Y-14400484D01*
X10217682Y-14400484D02*
X10236729Y-14410008D01*
X10236729Y-14410008D02*
X10246253Y-14419531D01*
X10246253Y-14419531D02*
X10255777Y-14438579D01*
X10255777Y-14438579D02*
X10265301Y-14476674D01*
X10265301Y-14476674D02*
X10265301Y-14524293D01*
X10265301Y-14524293D02*
X10255777Y-14562388D01*
X10255777Y-14562388D02*
X10246253Y-14581436D01*
X10246253Y-14581436D02*
X10236729Y-14590960D01*
X10236729Y-14590960D02*
X10217682Y-14600484D01*
X10217682Y-14600484D02*
X10198634Y-14600484D01*
X10198634Y-14600484D02*
X10179587Y-14590960D01*
X10179587Y-14590960D02*
X10170063Y-14581436D01*
X10170063Y-14581436D02*
X10160539Y-14562388D01*
X10160539Y-14562388D02*
X10151015Y-14524293D01*
X10151015Y-14524293D02*
X10151015Y-14476674D01*
X10151015Y-14476674D02*
X10160539Y-14438579D01*
X10160539Y-14438579D02*
X10170063Y-14419531D01*
X10170063Y-14419531D02*
X10179587Y-14410008D01*
X10179587Y-14410008D02*
X10198634Y-14400484D01*
X10351015Y-14581436D02*
X10360539Y-14590960D01*
X10360539Y-14590960D02*
X10351015Y-14600484D01*
X10351015Y-14600484D02*
X10341491Y-14590960D01*
X10341491Y-14590960D02*
X10351015Y-14581436D01*
X10351015Y-14581436D02*
X10351015Y-14600484D01*
X10484348Y-14400484D02*
X10503396Y-14400484D01*
X10503396Y-14400484D02*
X10522444Y-14410008D01*
X10522444Y-14410008D02*
X10531968Y-14419531D01*
X10531968Y-14419531D02*
X10541491Y-14438579D01*
X10541491Y-14438579D02*
X10551015Y-14476674D01*
X10551015Y-14476674D02*
X10551015Y-14524293D01*
X10551015Y-14524293D02*
X10541491Y-14562388D01*
X10541491Y-14562388D02*
X10531968Y-14581436D01*
X10531968Y-14581436D02*
X10522444Y-14590960D01*
X10522444Y-14590960D02*
X10503396Y-14600484D01*
X10503396Y-14600484D02*
X10484348Y-14600484D01*
X10484348Y-14600484D02*
X10465301Y-14590960D01*
X10465301Y-14590960D02*
X10455777Y-14581436D01*
X10455777Y-14581436D02*
X10446253Y-14562388D01*
X10446253Y-14562388D02*
X10436729Y-14524293D01*
X10436729Y-14524293D02*
X10436729Y-14476674D01*
X10436729Y-14476674D02*
X10446253Y-14438579D01*
X10446253Y-14438579D02*
X10455777Y-14419531D01*
X10455777Y-14419531D02*
X10465301Y-14410008D01*
X10465301Y-14410008D02*
X10484348Y-14400484D01*
X10741491Y-14600484D02*
X10627206Y-14600484D01*
X10684348Y-14600484D02*
X10684348Y-14400484D01*
X10684348Y-14400484D02*
X10665301Y-14429055D01*
X10665301Y-14429055D02*
X10646253Y-14448103D01*
X10646253Y-14448103D02*
X10627206Y-14457627D01*
X10836729Y-14600484D02*
X10874825Y-14600484D01*
X10874825Y-14600484D02*
X10893872Y-14590960D01*
X10893872Y-14590960D02*
X10903396Y-14581436D01*
X10903396Y-14581436D02*
X10922444Y-14552865D01*
X10922444Y-14552865D02*
X10931968Y-14514769D01*
X10931968Y-14514769D02*
X10931968Y-14438579D01*
X10931968Y-14438579D02*
X10922444Y-14419531D01*
X10922444Y-14419531D02*
X10912920Y-14410008D01*
X10912920Y-14410008D02*
X10893872Y-14400484D01*
X10893872Y-14400484D02*
X10855777Y-14400484D01*
X10855777Y-14400484D02*
X10836729Y-14410008D01*
X10836729Y-14410008D02*
X10827206Y-14419531D01*
X10827206Y-14419531D02*
X10817682Y-14438579D01*
X10817682Y-14438579D02*
X10817682Y-14486198D01*
X10817682Y-14486198D02*
X10827206Y-14505246D01*
X10827206Y-14505246D02*
X10836729Y-14514769D01*
X10836729Y-14514769D02*
X10855777Y-14524293D01*
X10855777Y-14524293D02*
X10893872Y-14524293D01*
X10893872Y-14524293D02*
X10912920Y-14514769D01*
X10912920Y-14514769D02*
X10922444Y-14505246D01*
X10922444Y-14505246D02*
X10931968Y-14486198D01*
X10998634Y-14400484D02*
X11131968Y-14400484D01*
X11131968Y-14400484D02*
X11046253Y-14600484D01*
X11198634Y-14400484D02*
X11198634Y-14438579D01*
X11274825Y-14400484D02*
X11274825Y-14438579D01*
X11570063Y-14676674D02*
X11560539Y-14667150D01*
X11560539Y-14667150D02*
X11541491Y-14638579D01*
X11541491Y-14638579D02*
X11531968Y-14619531D01*
X11531968Y-14619531D02*
X11522444Y-14590960D01*
X11522444Y-14590960D02*
X11512920Y-14543341D01*
X11512920Y-14543341D02*
X11512920Y-14505246D01*
X11512920Y-14505246D02*
X11522444Y-14457627D01*
X11522444Y-14457627D02*
X11531968Y-14429055D01*
X11531968Y-14429055D02*
X11541491Y-14410008D01*
X11541491Y-14410008D02*
X11560539Y-14381436D01*
X11560539Y-14381436D02*
X11570063Y-14371912D01*
X11684348Y-14400484D02*
X11703396Y-14400484D01*
X11703396Y-14400484D02*
X11722444Y-14410008D01*
X11722444Y-14410008D02*
X11731968Y-14419531D01*
X11731968Y-14419531D02*
X11741491Y-14438579D01*
X11741491Y-14438579D02*
X11751015Y-14476674D01*
X11751015Y-14476674D02*
X11751015Y-14524293D01*
X11751015Y-14524293D02*
X11741491Y-14562388D01*
X11741491Y-14562388D02*
X11731968Y-14581436D01*
X11731968Y-14581436D02*
X11722444Y-14590960D01*
X11722444Y-14590960D02*
X11703396Y-14600484D01*
X11703396Y-14600484D02*
X11684348Y-14600484D01*
X11684348Y-14600484D02*
X11665301Y-14590960D01*
X11665301Y-14590960D02*
X11655777Y-14581436D01*
X11655777Y-14581436D02*
X11646253Y-14562388D01*
X11646253Y-14562388D02*
X11636729Y-14524293D01*
X11636729Y-14524293D02*
X11636729Y-14476674D01*
X11636729Y-14476674D02*
X11646253Y-14438579D01*
X11646253Y-14438579D02*
X11655777Y-14419531D01*
X11655777Y-14419531D02*
X11665301Y-14410008D01*
X11665301Y-14410008D02*
X11684348Y-14400484D01*
X11989110Y-14600484D02*
X11989110Y-14400484D01*
X12074825Y-14600484D02*
X12074825Y-14495722D01*
X12074825Y-14495722D02*
X12065301Y-14476674D01*
X12065301Y-14476674D02*
X12046253Y-14467150D01*
X12046253Y-14467150D02*
X12017682Y-14467150D01*
X12017682Y-14467150D02*
X11998634Y-14476674D01*
X11998634Y-14476674D02*
X11989110Y-14486198D01*
X12198634Y-14600484D02*
X12179587Y-14590960D01*
X12179587Y-14590960D02*
X12170063Y-14581436D01*
X12170063Y-14581436D02*
X12160539Y-14562388D01*
X12160539Y-14562388D02*
X12160539Y-14505246D01*
X12160539Y-14505246D02*
X12170063Y-14486198D01*
X12170063Y-14486198D02*
X12179587Y-14476674D01*
X12179587Y-14476674D02*
X12198634Y-14467150D01*
X12198634Y-14467150D02*
X12227206Y-14467150D01*
X12227206Y-14467150D02*
X12246253Y-14476674D01*
X12246253Y-14476674D02*
X12255777Y-14486198D01*
X12255777Y-14486198D02*
X12265301Y-14505246D01*
X12265301Y-14505246D02*
X12265301Y-14562388D01*
X12265301Y-14562388D02*
X12255777Y-14581436D01*
X12255777Y-14581436D02*
X12246253Y-14590960D01*
X12246253Y-14590960D02*
X12227206Y-14600484D01*
X12227206Y-14600484D02*
X12198634Y-14600484D01*
X12379587Y-14600484D02*
X12360539Y-14590960D01*
X12360539Y-14590960D02*
X12351015Y-14571912D01*
X12351015Y-14571912D02*
X12351015Y-14400484D01*
X12531968Y-14590960D02*
X12512920Y-14600484D01*
X12512920Y-14600484D02*
X12474825Y-14600484D01*
X12474825Y-14600484D02*
X12455777Y-14590960D01*
X12455777Y-14590960D02*
X12446253Y-14571912D01*
X12446253Y-14571912D02*
X12446253Y-14495722D01*
X12446253Y-14495722D02*
X12455777Y-14476674D01*
X12455777Y-14476674D02*
X12474825Y-14467150D01*
X12474825Y-14467150D02*
X12512920Y-14467150D01*
X12512920Y-14467150D02*
X12531968Y-14476674D01*
X12531968Y-14476674D02*
X12541491Y-14495722D01*
X12541491Y-14495722D02*
X12541491Y-14514769D01*
X12541491Y-14514769D02*
X12446253Y-14533817D01*
X12617682Y-14590960D02*
X12636730Y-14600484D01*
X12636730Y-14600484D02*
X12674825Y-14600484D01*
X12674825Y-14600484D02*
X12693872Y-14590960D01*
X12693872Y-14590960D02*
X12703396Y-14571912D01*
X12703396Y-14571912D02*
X12703396Y-14562388D01*
X12703396Y-14562388D02*
X12693872Y-14543341D01*
X12693872Y-14543341D02*
X12674825Y-14533817D01*
X12674825Y-14533817D02*
X12646253Y-14533817D01*
X12646253Y-14533817D02*
X12627206Y-14524293D01*
X12627206Y-14524293D02*
X12617682Y-14505246D01*
X12617682Y-14505246D02*
X12617682Y-14495722D01*
X12617682Y-14495722D02*
X12627206Y-14476674D01*
X12627206Y-14476674D02*
X12646253Y-14467150D01*
X12646253Y-14467150D02*
X12674825Y-14467150D01*
X12674825Y-14467150D02*
X12693872Y-14476674D01*
X12941492Y-14524293D02*
X13093873Y-14524293D01*
X13017682Y-14600484D02*
X13017682Y-14448103D01*
X13331968Y-14419531D02*
X13341492Y-14410008D01*
X13341492Y-14410008D02*
X13360539Y-14400484D01*
X13360539Y-14400484D02*
X13408158Y-14400484D01*
X13408158Y-14400484D02*
X13427206Y-14410008D01*
X13427206Y-14410008D02*
X13436730Y-14419531D01*
X13436730Y-14419531D02*
X13446253Y-14438579D01*
X13446253Y-14438579D02*
X13446253Y-14457627D01*
X13446253Y-14457627D02*
X13436730Y-14486198D01*
X13436730Y-14486198D02*
X13322444Y-14600484D01*
X13322444Y-14600484D02*
X13446253Y-14600484D01*
X13674825Y-14590960D02*
X13693873Y-14600484D01*
X13693873Y-14600484D02*
X13731968Y-14600484D01*
X13731968Y-14600484D02*
X13751015Y-14590960D01*
X13751015Y-14590960D02*
X13760539Y-14571912D01*
X13760539Y-14571912D02*
X13760539Y-14562388D01*
X13760539Y-14562388D02*
X13751015Y-14543341D01*
X13751015Y-14543341D02*
X13731968Y-14533817D01*
X13731968Y-14533817D02*
X13703396Y-14533817D01*
X13703396Y-14533817D02*
X13684349Y-14524293D01*
X13684349Y-14524293D02*
X13674825Y-14505246D01*
X13674825Y-14505246D02*
X13674825Y-14495722D01*
X13674825Y-14495722D02*
X13684349Y-14476674D01*
X13684349Y-14476674D02*
X13703396Y-14467150D01*
X13703396Y-14467150D02*
X13731968Y-14467150D01*
X13731968Y-14467150D02*
X13751015Y-14476674D01*
X13874825Y-14600484D02*
X13855777Y-14590960D01*
X13855777Y-14590960D02*
X13846254Y-14571912D01*
X13846254Y-14571912D02*
X13846254Y-14400484D01*
X13979587Y-14600484D02*
X13960539Y-14590960D01*
X13960539Y-14590960D02*
X13951015Y-14581436D01*
X13951015Y-14581436D02*
X13941492Y-14562388D01*
X13941492Y-14562388D02*
X13941492Y-14505246D01*
X13941492Y-14505246D02*
X13951015Y-14486198D01*
X13951015Y-14486198D02*
X13960539Y-14476674D01*
X13960539Y-14476674D02*
X13979587Y-14467150D01*
X13979587Y-14467150D02*
X14008158Y-14467150D01*
X14008158Y-14467150D02*
X14027206Y-14476674D01*
X14027206Y-14476674D02*
X14036730Y-14486198D01*
X14036730Y-14486198D02*
X14046254Y-14505246D01*
X14046254Y-14505246D02*
X14046254Y-14562388D01*
X14046254Y-14562388D02*
X14036730Y-14581436D01*
X14036730Y-14581436D02*
X14027206Y-14590960D01*
X14027206Y-14590960D02*
X14008158Y-14600484D01*
X14008158Y-14600484D02*
X13979587Y-14600484D01*
X14103396Y-14467150D02*
X14179587Y-14467150D01*
X14131968Y-14400484D02*
X14131968Y-14571912D01*
X14131968Y-14571912D02*
X14141492Y-14590960D01*
X14141492Y-14590960D02*
X14160539Y-14600484D01*
X14160539Y-14600484D02*
X14179587Y-14600484D01*
X14236730Y-14590960D02*
X14255777Y-14600484D01*
X14255777Y-14600484D02*
X14293873Y-14600484D01*
X14293873Y-14600484D02*
X14312920Y-14590960D01*
X14312920Y-14590960D02*
X14322444Y-14571912D01*
X14322444Y-14571912D02*
X14322444Y-14562388D01*
X14322444Y-14562388D02*
X14312920Y-14543341D01*
X14312920Y-14543341D02*
X14293873Y-14533817D01*
X14293873Y-14533817D02*
X14265301Y-14533817D01*
X14265301Y-14533817D02*
X14246254Y-14524293D01*
X14246254Y-14524293D02*
X14236730Y-14505246D01*
X14236730Y-14505246D02*
X14236730Y-14495722D01*
X14236730Y-14495722D02*
X14246254Y-14476674D01*
X14246254Y-14476674D02*
X14265301Y-14467150D01*
X14265301Y-14467150D02*
X14293873Y-14467150D01*
X14293873Y-14467150D02*
X14312920Y-14476674D01*
X14389111Y-14676674D02*
X14398635Y-14667150D01*
X14398635Y-14667150D02*
X14417682Y-14638579D01*
X14417682Y-14638579D02*
X14427206Y-14619531D01*
X14427206Y-14619531D02*
X14436730Y-14590960D01*
X14436730Y-14590960D02*
X14446254Y-14543341D01*
X14446254Y-14543341D02*
X14446254Y-14505246D01*
X14446254Y-14505246D02*
X14436730Y-14457627D01*
X14436730Y-14457627D02*
X14427206Y-14429055D01*
X14427206Y-14429055D02*
X14417682Y-14410008D01*
X14417682Y-14410008D02*
X14398635Y-14381436D01*
X14398635Y-14381436D02*
X14389111Y-14371912D01*
D10*
X7967500Y-14745500D02*
X7967500Y-14800500D01*
X7940000Y-14773000D02*
X7995000Y-14773000D01*
D11*
X8293872Y-14664484D02*
X8312920Y-14664484D01*
X8312920Y-14664484D02*
X8331967Y-14674008D01*
X8331967Y-14674008D02*
X8341491Y-14683531D01*
X8341491Y-14683531D02*
X8351015Y-14702579D01*
X8351015Y-14702579D02*
X8360539Y-14740674D01*
X8360539Y-14740674D02*
X8360539Y-14788293D01*
X8360539Y-14788293D02*
X8351015Y-14826388D01*
X8351015Y-14826388D02*
X8341491Y-14845436D01*
X8341491Y-14845436D02*
X8331967Y-14854960D01*
X8331967Y-14854960D02*
X8312920Y-14864484D01*
X8312920Y-14864484D02*
X8293872Y-14864484D01*
X8293872Y-14864484D02*
X8274824Y-14854960D01*
X8274824Y-14854960D02*
X8265301Y-14845436D01*
X8265301Y-14845436D02*
X8255777Y-14826388D01*
X8255777Y-14826388D02*
X8246253Y-14788293D01*
X8246253Y-14788293D02*
X8246253Y-14740674D01*
X8246253Y-14740674D02*
X8255777Y-14702579D01*
X8255777Y-14702579D02*
X8265301Y-14683531D01*
X8265301Y-14683531D02*
X8274824Y-14674008D01*
X8274824Y-14674008D02*
X8293872Y-14664484D01*
X8446253Y-14845436D02*
X8455777Y-14854960D01*
X8455777Y-14854960D02*
X8446253Y-14864484D01*
X8446253Y-14864484D02*
X8436729Y-14854960D01*
X8436729Y-14854960D02*
X8446253Y-14845436D01*
X8446253Y-14845436D02*
X8446253Y-14864484D01*
X8636729Y-14664484D02*
X8541491Y-14664484D01*
X8541491Y-14664484D02*
X8531967Y-14759722D01*
X8531967Y-14759722D02*
X8541491Y-14750198D01*
X8541491Y-14750198D02*
X8560539Y-14740674D01*
X8560539Y-14740674D02*
X8608158Y-14740674D01*
X8608158Y-14740674D02*
X8627205Y-14750198D01*
X8627205Y-14750198D02*
X8636729Y-14759722D01*
X8636729Y-14759722D02*
X8646253Y-14778769D01*
X8646253Y-14778769D02*
X8646253Y-14826388D01*
X8646253Y-14826388D02*
X8636729Y-14845436D01*
X8636729Y-14845436D02*
X8627205Y-14854960D01*
X8627205Y-14854960D02*
X8608158Y-14864484D01*
X8608158Y-14864484D02*
X8560539Y-14864484D01*
X8560539Y-14864484D02*
X8541491Y-14854960D01*
X8541491Y-14854960D02*
X8531967Y-14845436D01*
X8827205Y-14664484D02*
X8731967Y-14664484D01*
X8731967Y-14664484D02*
X8722444Y-14759722D01*
X8722444Y-14759722D02*
X8731967Y-14750198D01*
X8731967Y-14750198D02*
X8751015Y-14740674D01*
X8751015Y-14740674D02*
X8798634Y-14740674D01*
X8798634Y-14740674D02*
X8817682Y-14750198D01*
X8817682Y-14750198D02*
X8827205Y-14759722D01*
X8827205Y-14759722D02*
X8836729Y-14778769D01*
X8836729Y-14778769D02*
X8836729Y-14826388D01*
X8836729Y-14826388D02*
X8827205Y-14845436D01*
X8827205Y-14845436D02*
X8817682Y-14854960D01*
X8817682Y-14854960D02*
X8798634Y-14864484D01*
X8798634Y-14864484D02*
X8751015Y-14864484D01*
X8751015Y-14864484D02*
X8731967Y-14854960D01*
X8731967Y-14854960D02*
X8722444Y-14845436D01*
X8960539Y-14664484D02*
X8979586Y-14664484D01*
X8979586Y-14664484D02*
X8998634Y-14674008D01*
X8998634Y-14674008D02*
X9008158Y-14683531D01*
X9008158Y-14683531D02*
X9017682Y-14702579D01*
X9017682Y-14702579D02*
X9027205Y-14740674D01*
X9027205Y-14740674D02*
X9027205Y-14788293D01*
X9027205Y-14788293D02*
X9017682Y-14826388D01*
X9017682Y-14826388D02*
X9008158Y-14845436D01*
X9008158Y-14845436D02*
X8998634Y-14854960D01*
X8998634Y-14854960D02*
X8979586Y-14864484D01*
X8979586Y-14864484D02*
X8960539Y-14864484D01*
X8960539Y-14864484D02*
X8941491Y-14854960D01*
X8941491Y-14854960D02*
X8931967Y-14845436D01*
X8931967Y-14845436D02*
X8922444Y-14826388D01*
X8922444Y-14826388D02*
X8912920Y-14788293D01*
X8912920Y-14788293D02*
X8912920Y-14740674D01*
X8912920Y-14740674D02*
X8922444Y-14702579D01*
X8922444Y-14702579D02*
X8931967Y-14683531D01*
X8931967Y-14683531D02*
X8941491Y-14674008D01*
X8941491Y-14674008D02*
X8960539Y-14664484D01*
X9112920Y-14864484D02*
X9112920Y-14731150D01*
X9112920Y-14750198D02*
X9122444Y-14740674D01*
X9122444Y-14740674D02*
X9141491Y-14731150D01*
X9141491Y-14731150D02*
X9170063Y-14731150D01*
X9170063Y-14731150D02*
X9189110Y-14740674D01*
X9189110Y-14740674D02*
X9198634Y-14759722D01*
X9198634Y-14759722D02*
X9198634Y-14864484D01*
X9198634Y-14759722D02*
X9208158Y-14740674D01*
X9208158Y-14740674D02*
X9227205Y-14731150D01*
X9227205Y-14731150D02*
X9255777Y-14731150D01*
X9255777Y-14731150D02*
X9274825Y-14740674D01*
X9274825Y-14740674D02*
X9284348Y-14759722D01*
X9284348Y-14759722D02*
X9284348Y-14864484D01*
X9379586Y-14864484D02*
X9379586Y-14731150D01*
X9379586Y-14750198D02*
X9389110Y-14740674D01*
X9389110Y-14740674D02*
X9408158Y-14731150D01*
X9408158Y-14731150D02*
X9436729Y-14731150D01*
X9436729Y-14731150D02*
X9455777Y-14740674D01*
X9455777Y-14740674D02*
X9465301Y-14759722D01*
X9465301Y-14759722D02*
X9465301Y-14864484D01*
X9465301Y-14759722D02*
X9474825Y-14740674D01*
X9474825Y-14740674D02*
X9493872Y-14731150D01*
X9493872Y-14731150D02*
X9522444Y-14731150D01*
X9522444Y-14731150D02*
X9541491Y-14740674D01*
X9541491Y-14740674D02*
X9551015Y-14759722D01*
X9551015Y-14759722D02*
X9551015Y-14864484D01*
X9941491Y-14654960D02*
X9770063Y-14912103D01*
X10198634Y-14664484D02*
X10217682Y-14664484D01*
X10217682Y-14664484D02*
X10236729Y-14674008D01*
X10236729Y-14674008D02*
X10246253Y-14683531D01*
X10246253Y-14683531D02*
X10255777Y-14702579D01*
X10255777Y-14702579D02*
X10265301Y-14740674D01*
X10265301Y-14740674D02*
X10265301Y-14788293D01*
X10265301Y-14788293D02*
X10255777Y-14826388D01*
X10255777Y-14826388D02*
X10246253Y-14845436D01*
X10246253Y-14845436D02*
X10236729Y-14854960D01*
X10236729Y-14854960D02*
X10217682Y-14864484D01*
X10217682Y-14864484D02*
X10198634Y-14864484D01*
X10198634Y-14864484D02*
X10179587Y-14854960D01*
X10179587Y-14854960D02*
X10170063Y-14845436D01*
X10170063Y-14845436D02*
X10160539Y-14826388D01*
X10160539Y-14826388D02*
X10151015Y-14788293D01*
X10151015Y-14788293D02*
X10151015Y-14740674D01*
X10151015Y-14740674D02*
X10160539Y-14702579D01*
X10160539Y-14702579D02*
X10170063Y-14683531D01*
X10170063Y-14683531D02*
X10179587Y-14674008D01*
X10179587Y-14674008D02*
X10198634Y-14664484D01*
X10351015Y-14845436D02*
X10360539Y-14854960D01*
X10360539Y-14854960D02*
X10351015Y-14864484D01*
X10351015Y-14864484D02*
X10341491Y-14854960D01*
X10341491Y-14854960D02*
X10351015Y-14845436D01*
X10351015Y-14845436D02*
X10351015Y-14864484D01*
X10484348Y-14664484D02*
X10503396Y-14664484D01*
X10503396Y-14664484D02*
X10522444Y-14674008D01*
X10522444Y-14674008D02*
X10531968Y-14683531D01*
X10531968Y-14683531D02*
X10541491Y-14702579D01*
X10541491Y-14702579D02*
X10551015Y-14740674D01*
X10551015Y-14740674D02*
X10551015Y-14788293D01*
X10551015Y-14788293D02*
X10541491Y-14826388D01*
X10541491Y-14826388D02*
X10531968Y-14845436D01*
X10531968Y-14845436D02*
X10522444Y-14854960D01*
X10522444Y-14854960D02*
X10503396Y-14864484D01*
X10503396Y-14864484D02*
X10484348Y-14864484D01*
X10484348Y-14864484D02*
X10465301Y-14854960D01*
X10465301Y-14854960D02*
X10455777Y-14845436D01*
X10455777Y-14845436D02*
X10446253Y-14826388D01*
X10446253Y-14826388D02*
X10436729Y-14788293D01*
X10436729Y-14788293D02*
X10436729Y-14740674D01*
X10436729Y-14740674D02*
X10446253Y-14702579D01*
X10446253Y-14702579D02*
X10455777Y-14683531D01*
X10455777Y-14683531D02*
X10465301Y-14674008D01*
X10465301Y-14674008D02*
X10484348Y-14664484D01*
X10627206Y-14683531D02*
X10636729Y-14674008D01*
X10636729Y-14674008D02*
X10655777Y-14664484D01*
X10655777Y-14664484D02*
X10703396Y-14664484D01*
X10703396Y-14664484D02*
X10722444Y-14674008D01*
X10722444Y-14674008D02*
X10731968Y-14683531D01*
X10731968Y-14683531D02*
X10741491Y-14702579D01*
X10741491Y-14702579D02*
X10741491Y-14721627D01*
X10741491Y-14721627D02*
X10731968Y-14750198D01*
X10731968Y-14750198D02*
X10617682Y-14864484D01*
X10617682Y-14864484D02*
X10741491Y-14864484D01*
X10931968Y-14864484D02*
X10817682Y-14864484D01*
X10874825Y-14864484D02*
X10874825Y-14664484D01*
X10874825Y-14664484D02*
X10855777Y-14693055D01*
X10855777Y-14693055D02*
X10836729Y-14712103D01*
X10836729Y-14712103D02*
X10817682Y-14721627D01*
X10998634Y-14664484D02*
X11131968Y-14664484D01*
X11131968Y-14664484D02*
X11046253Y-14864484D01*
X11198634Y-14664484D02*
X11198634Y-14702579D01*
X11274825Y-14664484D02*
X11274825Y-14702579D01*
X11570063Y-14940674D02*
X11560539Y-14931150D01*
X11560539Y-14931150D02*
X11541491Y-14902579D01*
X11541491Y-14902579D02*
X11531968Y-14883531D01*
X11531968Y-14883531D02*
X11522444Y-14854960D01*
X11522444Y-14854960D02*
X11512920Y-14807341D01*
X11512920Y-14807341D02*
X11512920Y-14769246D01*
X11512920Y-14769246D02*
X11522444Y-14721627D01*
X11522444Y-14721627D02*
X11531968Y-14693055D01*
X11531968Y-14693055D02*
X11541491Y-14674008D01*
X11541491Y-14674008D02*
X11560539Y-14645436D01*
X11560539Y-14645436D02*
X11570063Y-14635912D01*
X11684348Y-14664484D02*
X11703396Y-14664484D01*
X11703396Y-14664484D02*
X11722444Y-14674008D01*
X11722444Y-14674008D02*
X11731968Y-14683531D01*
X11731968Y-14683531D02*
X11741491Y-14702579D01*
X11741491Y-14702579D02*
X11751015Y-14740674D01*
X11751015Y-14740674D02*
X11751015Y-14788293D01*
X11751015Y-14788293D02*
X11741491Y-14826388D01*
X11741491Y-14826388D02*
X11731968Y-14845436D01*
X11731968Y-14845436D02*
X11722444Y-14854960D01*
X11722444Y-14854960D02*
X11703396Y-14864484D01*
X11703396Y-14864484D02*
X11684348Y-14864484D01*
X11684348Y-14864484D02*
X11665301Y-14854960D01*
X11665301Y-14854960D02*
X11655777Y-14845436D01*
X11655777Y-14845436D02*
X11646253Y-14826388D01*
X11646253Y-14826388D02*
X11636729Y-14788293D01*
X11636729Y-14788293D02*
X11636729Y-14740674D01*
X11636729Y-14740674D02*
X11646253Y-14702579D01*
X11646253Y-14702579D02*
X11655777Y-14683531D01*
X11655777Y-14683531D02*
X11665301Y-14674008D01*
X11665301Y-14674008D02*
X11684348Y-14664484D01*
X11989110Y-14864484D02*
X11989110Y-14664484D01*
X12074825Y-14864484D02*
X12074825Y-14759722D01*
X12074825Y-14759722D02*
X12065301Y-14740674D01*
X12065301Y-14740674D02*
X12046253Y-14731150D01*
X12046253Y-14731150D02*
X12017682Y-14731150D01*
X12017682Y-14731150D02*
X11998634Y-14740674D01*
X11998634Y-14740674D02*
X11989110Y-14750198D01*
X12198634Y-14864484D02*
X12179587Y-14854960D01*
X12179587Y-14854960D02*
X12170063Y-14845436D01*
X12170063Y-14845436D02*
X12160539Y-14826388D01*
X12160539Y-14826388D02*
X12160539Y-14769246D01*
X12160539Y-14769246D02*
X12170063Y-14750198D01*
X12170063Y-14750198D02*
X12179587Y-14740674D01*
X12179587Y-14740674D02*
X12198634Y-14731150D01*
X12198634Y-14731150D02*
X12227206Y-14731150D01*
X12227206Y-14731150D02*
X12246253Y-14740674D01*
X12246253Y-14740674D02*
X12255777Y-14750198D01*
X12255777Y-14750198D02*
X12265301Y-14769246D01*
X12265301Y-14769246D02*
X12265301Y-14826388D01*
X12265301Y-14826388D02*
X12255777Y-14845436D01*
X12255777Y-14845436D02*
X12246253Y-14854960D01*
X12246253Y-14854960D02*
X12227206Y-14864484D01*
X12227206Y-14864484D02*
X12198634Y-14864484D01*
X12379587Y-14864484D02*
X12360539Y-14854960D01*
X12360539Y-14854960D02*
X12351015Y-14835912D01*
X12351015Y-14835912D02*
X12351015Y-14664484D01*
X12531968Y-14854960D02*
X12512920Y-14864484D01*
X12512920Y-14864484D02*
X12474825Y-14864484D01*
X12474825Y-14864484D02*
X12455777Y-14854960D01*
X12455777Y-14854960D02*
X12446253Y-14835912D01*
X12446253Y-14835912D02*
X12446253Y-14759722D01*
X12446253Y-14759722D02*
X12455777Y-14740674D01*
X12455777Y-14740674D02*
X12474825Y-14731150D01*
X12474825Y-14731150D02*
X12512920Y-14731150D01*
X12512920Y-14731150D02*
X12531968Y-14740674D01*
X12531968Y-14740674D02*
X12541491Y-14759722D01*
X12541491Y-14759722D02*
X12541491Y-14778769D01*
X12541491Y-14778769D02*
X12446253Y-14797817D01*
X12617682Y-14854960D02*
X12636730Y-14864484D01*
X12636730Y-14864484D02*
X12674825Y-14864484D01*
X12674825Y-14864484D02*
X12693872Y-14854960D01*
X12693872Y-14854960D02*
X12703396Y-14835912D01*
X12703396Y-14835912D02*
X12703396Y-14826388D01*
X12703396Y-14826388D02*
X12693872Y-14807341D01*
X12693872Y-14807341D02*
X12674825Y-14797817D01*
X12674825Y-14797817D02*
X12646253Y-14797817D01*
X12646253Y-14797817D02*
X12627206Y-14788293D01*
X12627206Y-14788293D02*
X12617682Y-14769246D01*
X12617682Y-14769246D02*
X12617682Y-14759722D01*
X12617682Y-14759722D02*
X12627206Y-14740674D01*
X12627206Y-14740674D02*
X12646253Y-14731150D01*
X12646253Y-14731150D02*
X12674825Y-14731150D01*
X12674825Y-14731150D02*
X12693872Y-14740674D01*
X12941492Y-14788293D02*
X13093873Y-14788293D01*
X13017682Y-14864484D02*
X13017682Y-14712103D01*
X13331968Y-14683531D02*
X13341492Y-14674008D01*
X13341492Y-14674008D02*
X13360539Y-14664484D01*
X13360539Y-14664484D02*
X13408158Y-14664484D01*
X13408158Y-14664484D02*
X13427206Y-14674008D01*
X13427206Y-14674008D02*
X13436730Y-14683531D01*
X13436730Y-14683531D02*
X13446253Y-14702579D01*
X13446253Y-14702579D02*
X13446253Y-14721627D01*
X13446253Y-14721627D02*
X13436730Y-14750198D01*
X13436730Y-14750198D02*
X13322444Y-14864484D01*
X13322444Y-14864484D02*
X13446253Y-14864484D01*
X13674825Y-14854960D02*
X13693873Y-14864484D01*
X13693873Y-14864484D02*
X13731968Y-14864484D01*
X13731968Y-14864484D02*
X13751015Y-14854960D01*
X13751015Y-14854960D02*
X13760539Y-14835912D01*
X13760539Y-14835912D02*
X13760539Y-14826388D01*
X13760539Y-14826388D02*
X13751015Y-14807341D01*
X13751015Y-14807341D02*
X13731968Y-14797817D01*
X13731968Y-14797817D02*
X13703396Y-14797817D01*
X13703396Y-14797817D02*
X13684349Y-14788293D01*
X13684349Y-14788293D02*
X13674825Y-14769246D01*
X13674825Y-14769246D02*
X13674825Y-14759722D01*
X13674825Y-14759722D02*
X13684349Y-14740674D01*
X13684349Y-14740674D02*
X13703396Y-14731150D01*
X13703396Y-14731150D02*
X13731968Y-14731150D01*
X13731968Y-14731150D02*
X13751015Y-14740674D01*
X13874825Y-14864484D02*
X13855777Y-14854960D01*
X13855777Y-14854960D02*
X13846254Y-14835912D01*
X13846254Y-14835912D02*
X13846254Y-14664484D01*
X13979587Y-14864484D02*
X13960539Y-14854960D01*
X13960539Y-14854960D02*
X13951015Y-14845436D01*
X13951015Y-14845436D02*
X13941492Y-14826388D01*
X13941492Y-14826388D02*
X13941492Y-14769246D01*
X13941492Y-14769246D02*
X13951015Y-14750198D01*
X13951015Y-14750198D02*
X13960539Y-14740674D01*
X13960539Y-14740674D02*
X13979587Y-14731150D01*
X13979587Y-14731150D02*
X14008158Y-14731150D01*
X14008158Y-14731150D02*
X14027206Y-14740674D01*
X14027206Y-14740674D02*
X14036730Y-14750198D01*
X14036730Y-14750198D02*
X14046254Y-14769246D01*
X14046254Y-14769246D02*
X14046254Y-14826388D01*
X14046254Y-14826388D02*
X14036730Y-14845436D01*
X14036730Y-14845436D02*
X14027206Y-14854960D01*
X14027206Y-14854960D02*
X14008158Y-14864484D01*
X14008158Y-14864484D02*
X13979587Y-14864484D01*
X14103396Y-14731150D02*
X14179587Y-14731150D01*
X14131968Y-14664484D02*
X14131968Y-14835912D01*
X14131968Y-14835912D02*
X14141492Y-14854960D01*
X14141492Y-14854960D02*
X14160539Y-14864484D01*
X14160539Y-14864484D02*
X14179587Y-14864484D01*
X14236730Y-14854960D02*
X14255777Y-14864484D01*
X14255777Y-14864484D02*
X14293873Y-14864484D01*
X14293873Y-14864484D02*
X14312920Y-14854960D01*
X14312920Y-14854960D02*
X14322444Y-14835912D01*
X14322444Y-14835912D02*
X14322444Y-14826388D01*
X14322444Y-14826388D02*
X14312920Y-14807341D01*
X14312920Y-14807341D02*
X14293873Y-14797817D01*
X14293873Y-14797817D02*
X14265301Y-14797817D01*
X14265301Y-14797817D02*
X14246254Y-14788293D01*
X14246254Y-14788293D02*
X14236730Y-14769246D01*
X14236730Y-14769246D02*
X14236730Y-14759722D01*
X14236730Y-14759722D02*
X14246254Y-14740674D01*
X14246254Y-14740674D02*
X14265301Y-14731150D01*
X14265301Y-14731150D02*
X14293873Y-14731150D01*
X14293873Y-14731150D02*
X14312920Y-14740674D01*
X14389111Y-14940674D02*
X14398635Y-14931150D01*
X14398635Y-14931150D02*
X14417682Y-14902579D01*
X14417682Y-14902579D02*
X14427206Y-14883531D01*
X14427206Y-14883531D02*
X14436730Y-14854960D01*
X14436730Y-14854960D02*
X14446254Y-14807341D01*
X14446254Y-14807341D02*
X14446254Y-14769246D01*
X14446254Y-14769246D02*
X14436730Y-14721627D01*
X14436730Y-14721627D02*
X14427206Y-14693055D01*
X14427206Y-14693055D02*
X14417682Y-14674008D01*
X14417682Y-14674008D02*
X14398635Y-14645436D01*
X14398635Y-14645436D02*
X14389111Y-14635912D01*
D10*
X7981527Y-15069527D02*
X7981527Y-15004473D01*
X7916473Y-15004473D01*
X7916473Y-15069527D01*
X7981527Y-15069527D01*
D11*
X8293872Y-14928484D02*
X8312920Y-14928484D01*
X8312920Y-14928484D02*
X8331967Y-14938008D01*
X8331967Y-14938008D02*
X8341491Y-14947531D01*
X8341491Y-14947531D02*
X8351015Y-14966579D01*
X8351015Y-14966579D02*
X8360539Y-15004674D01*
X8360539Y-15004674D02*
X8360539Y-15052293D01*
X8360539Y-15052293D02*
X8351015Y-15090388D01*
X8351015Y-15090388D02*
X8341491Y-15109436D01*
X8341491Y-15109436D02*
X8331967Y-15118960D01*
X8331967Y-15118960D02*
X8312920Y-15128484D01*
X8312920Y-15128484D02*
X8293872Y-15128484D01*
X8293872Y-15128484D02*
X8274824Y-15118960D01*
X8274824Y-15118960D02*
X8265301Y-15109436D01*
X8265301Y-15109436D02*
X8255777Y-15090388D01*
X8255777Y-15090388D02*
X8246253Y-15052293D01*
X8246253Y-15052293D02*
X8246253Y-15004674D01*
X8246253Y-15004674D02*
X8255777Y-14966579D01*
X8255777Y-14966579D02*
X8265301Y-14947531D01*
X8265301Y-14947531D02*
X8274824Y-14938008D01*
X8274824Y-14938008D02*
X8293872Y-14928484D01*
X8446253Y-15109436D02*
X8455777Y-15118960D01*
X8455777Y-15118960D02*
X8446253Y-15128484D01*
X8446253Y-15128484D02*
X8436729Y-15118960D01*
X8436729Y-15118960D02*
X8446253Y-15109436D01*
X8446253Y-15109436D02*
X8446253Y-15128484D01*
X8551015Y-15128484D02*
X8589110Y-15128484D01*
X8589110Y-15128484D02*
X8608158Y-15118960D01*
X8608158Y-15118960D02*
X8617682Y-15109436D01*
X8617682Y-15109436D02*
X8636729Y-15080865D01*
X8636729Y-15080865D02*
X8646253Y-15042769D01*
X8646253Y-15042769D02*
X8646253Y-14966579D01*
X8646253Y-14966579D02*
X8636729Y-14947531D01*
X8636729Y-14947531D02*
X8627205Y-14938008D01*
X8627205Y-14938008D02*
X8608158Y-14928484D01*
X8608158Y-14928484D02*
X8570063Y-14928484D01*
X8570063Y-14928484D02*
X8551015Y-14938008D01*
X8551015Y-14938008D02*
X8541491Y-14947531D01*
X8541491Y-14947531D02*
X8531967Y-14966579D01*
X8531967Y-14966579D02*
X8531967Y-15014198D01*
X8531967Y-15014198D02*
X8541491Y-15033246D01*
X8541491Y-15033246D02*
X8551015Y-15042769D01*
X8551015Y-15042769D02*
X8570063Y-15052293D01*
X8570063Y-15052293D02*
X8608158Y-15052293D01*
X8608158Y-15052293D02*
X8627205Y-15042769D01*
X8627205Y-15042769D02*
X8636729Y-15033246D01*
X8636729Y-15033246D02*
X8646253Y-15014198D01*
X8722444Y-14947531D02*
X8731967Y-14938008D01*
X8731967Y-14938008D02*
X8751015Y-14928484D01*
X8751015Y-14928484D02*
X8798634Y-14928484D01*
X8798634Y-14928484D02*
X8817682Y-14938008D01*
X8817682Y-14938008D02*
X8827205Y-14947531D01*
X8827205Y-14947531D02*
X8836729Y-14966579D01*
X8836729Y-14966579D02*
X8836729Y-14985627D01*
X8836729Y-14985627D02*
X8827205Y-15014198D01*
X8827205Y-15014198D02*
X8712920Y-15128484D01*
X8712920Y-15128484D02*
X8836729Y-15128484D01*
X8960539Y-14928484D02*
X8979586Y-14928484D01*
X8979586Y-14928484D02*
X8998634Y-14938008D01*
X8998634Y-14938008D02*
X9008158Y-14947531D01*
X9008158Y-14947531D02*
X9017682Y-14966579D01*
X9017682Y-14966579D02*
X9027205Y-15004674D01*
X9027205Y-15004674D02*
X9027205Y-15052293D01*
X9027205Y-15052293D02*
X9017682Y-15090388D01*
X9017682Y-15090388D02*
X9008158Y-15109436D01*
X9008158Y-15109436D02*
X8998634Y-15118960D01*
X8998634Y-15118960D02*
X8979586Y-15128484D01*
X8979586Y-15128484D02*
X8960539Y-15128484D01*
X8960539Y-15128484D02*
X8941491Y-15118960D01*
X8941491Y-15118960D02*
X8931967Y-15109436D01*
X8931967Y-15109436D02*
X8922444Y-15090388D01*
X8922444Y-15090388D02*
X8912920Y-15052293D01*
X8912920Y-15052293D02*
X8912920Y-15004674D01*
X8912920Y-15004674D02*
X8922444Y-14966579D01*
X8922444Y-14966579D02*
X8931967Y-14947531D01*
X8931967Y-14947531D02*
X8941491Y-14938008D01*
X8941491Y-14938008D02*
X8960539Y-14928484D01*
X9112920Y-15128484D02*
X9112920Y-14995150D01*
X9112920Y-15014198D02*
X9122444Y-15004674D01*
X9122444Y-15004674D02*
X9141491Y-14995150D01*
X9141491Y-14995150D02*
X9170063Y-14995150D01*
X9170063Y-14995150D02*
X9189110Y-15004674D01*
X9189110Y-15004674D02*
X9198634Y-15023722D01*
X9198634Y-15023722D02*
X9198634Y-15128484D01*
X9198634Y-15023722D02*
X9208158Y-15004674D01*
X9208158Y-15004674D02*
X9227205Y-14995150D01*
X9227205Y-14995150D02*
X9255777Y-14995150D01*
X9255777Y-14995150D02*
X9274825Y-15004674D01*
X9274825Y-15004674D02*
X9284348Y-15023722D01*
X9284348Y-15023722D02*
X9284348Y-15128484D01*
X9379586Y-15128484D02*
X9379586Y-14995150D01*
X9379586Y-15014198D02*
X9389110Y-15004674D01*
X9389110Y-15004674D02*
X9408158Y-14995150D01*
X9408158Y-14995150D02*
X9436729Y-14995150D01*
X9436729Y-14995150D02*
X9455777Y-15004674D01*
X9455777Y-15004674D02*
X9465301Y-15023722D01*
X9465301Y-15023722D02*
X9465301Y-15128484D01*
X9465301Y-15023722D02*
X9474825Y-15004674D01*
X9474825Y-15004674D02*
X9493872Y-14995150D01*
X9493872Y-14995150D02*
X9522444Y-14995150D01*
X9522444Y-14995150D02*
X9541491Y-15004674D01*
X9541491Y-15004674D02*
X9551015Y-15023722D01*
X9551015Y-15023722D02*
X9551015Y-15128484D01*
X9941491Y-14918960D02*
X9770063Y-15176103D01*
X10198634Y-14928484D02*
X10217682Y-14928484D01*
X10217682Y-14928484D02*
X10236729Y-14938008D01*
X10236729Y-14938008D02*
X10246253Y-14947531D01*
X10246253Y-14947531D02*
X10255777Y-14966579D01*
X10255777Y-14966579D02*
X10265301Y-15004674D01*
X10265301Y-15004674D02*
X10265301Y-15052293D01*
X10265301Y-15052293D02*
X10255777Y-15090388D01*
X10255777Y-15090388D02*
X10246253Y-15109436D01*
X10246253Y-15109436D02*
X10236729Y-15118960D01*
X10236729Y-15118960D02*
X10217682Y-15128484D01*
X10217682Y-15128484D02*
X10198634Y-15128484D01*
X10198634Y-15128484D02*
X10179587Y-15118960D01*
X10179587Y-15118960D02*
X10170063Y-15109436D01*
X10170063Y-15109436D02*
X10160539Y-15090388D01*
X10160539Y-15090388D02*
X10151015Y-15052293D01*
X10151015Y-15052293D02*
X10151015Y-15004674D01*
X10151015Y-15004674D02*
X10160539Y-14966579D01*
X10160539Y-14966579D02*
X10170063Y-14947531D01*
X10170063Y-14947531D02*
X10179587Y-14938008D01*
X10179587Y-14938008D02*
X10198634Y-14928484D01*
X10351015Y-15109436D02*
X10360539Y-15118960D01*
X10360539Y-15118960D02*
X10351015Y-15128484D01*
X10351015Y-15128484D02*
X10341491Y-15118960D01*
X10341491Y-15118960D02*
X10351015Y-15109436D01*
X10351015Y-15109436D02*
X10351015Y-15128484D01*
X10484348Y-14928484D02*
X10503396Y-14928484D01*
X10503396Y-14928484D02*
X10522444Y-14938008D01*
X10522444Y-14938008D02*
X10531968Y-14947531D01*
X10531968Y-14947531D02*
X10541491Y-14966579D01*
X10541491Y-14966579D02*
X10551015Y-15004674D01*
X10551015Y-15004674D02*
X10551015Y-15052293D01*
X10551015Y-15052293D02*
X10541491Y-15090388D01*
X10541491Y-15090388D02*
X10531968Y-15109436D01*
X10531968Y-15109436D02*
X10522444Y-15118960D01*
X10522444Y-15118960D02*
X10503396Y-15128484D01*
X10503396Y-15128484D02*
X10484348Y-15128484D01*
X10484348Y-15128484D02*
X10465301Y-15118960D01*
X10465301Y-15118960D02*
X10455777Y-15109436D01*
X10455777Y-15109436D02*
X10446253Y-15090388D01*
X10446253Y-15090388D02*
X10436729Y-15052293D01*
X10436729Y-15052293D02*
X10436729Y-15004674D01*
X10436729Y-15004674D02*
X10446253Y-14966579D01*
X10446253Y-14966579D02*
X10455777Y-14947531D01*
X10455777Y-14947531D02*
X10465301Y-14938008D01*
X10465301Y-14938008D02*
X10484348Y-14928484D01*
X10617682Y-14928484D02*
X10741491Y-14928484D01*
X10741491Y-14928484D02*
X10674825Y-15004674D01*
X10674825Y-15004674D02*
X10703396Y-15004674D01*
X10703396Y-15004674D02*
X10722444Y-15014198D01*
X10722444Y-15014198D02*
X10731968Y-15023722D01*
X10731968Y-15023722D02*
X10741491Y-15042769D01*
X10741491Y-15042769D02*
X10741491Y-15090388D01*
X10741491Y-15090388D02*
X10731968Y-15109436D01*
X10731968Y-15109436D02*
X10722444Y-15118960D01*
X10722444Y-15118960D02*
X10703396Y-15128484D01*
X10703396Y-15128484D02*
X10646253Y-15128484D01*
X10646253Y-15128484D02*
X10627206Y-15118960D01*
X10627206Y-15118960D02*
X10617682Y-15109436D01*
X10912920Y-14928484D02*
X10874825Y-14928484D01*
X10874825Y-14928484D02*
X10855777Y-14938008D01*
X10855777Y-14938008D02*
X10846253Y-14947531D01*
X10846253Y-14947531D02*
X10827206Y-14976103D01*
X10827206Y-14976103D02*
X10817682Y-15014198D01*
X10817682Y-15014198D02*
X10817682Y-15090388D01*
X10817682Y-15090388D02*
X10827206Y-15109436D01*
X10827206Y-15109436D02*
X10836729Y-15118960D01*
X10836729Y-15118960D02*
X10855777Y-15128484D01*
X10855777Y-15128484D02*
X10893872Y-15128484D01*
X10893872Y-15128484D02*
X10912920Y-15118960D01*
X10912920Y-15118960D02*
X10922444Y-15109436D01*
X10922444Y-15109436D02*
X10931968Y-15090388D01*
X10931968Y-15090388D02*
X10931968Y-15042769D01*
X10931968Y-15042769D02*
X10922444Y-15023722D01*
X10922444Y-15023722D02*
X10912920Y-15014198D01*
X10912920Y-15014198D02*
X10893872Y-15004674D01*
X10893872Y-15004674D02*
X10855777Y-15004674D01*
X10855777Y-15004674D02*
X10836729Y-15014198D01*
X10836729Y-15014198D02*
X10827206Y-15023722D01*
X10827206Y-15023722D02*
X10817682Y-15042769D01*
X11008158Y-14947531D02*
X11017682Y-14938008D01*
X11017682Y-14938008D02*
X11036729Y-14928484D01*
X11036729Y-14928484D02*
X11084349Y-14928484D01*
X11084349Y-14928484D02*
X11103396Y-14938008D01*
X11103396Y-14938008D02*
X11112920Y-14947531D01*
X11112920Y-14947531D02*
X11122444Y-14966579D01*
X11122444Y-14966579D02*
X11122444Y-14985627D01*
X11122444Y-14985627D02*
X11112920Y-15014198D01*
X11112920Y-15014198D02*
X10998634Y-15128484D01*
X10998634Y-15128484D02*
X11122444Y-15128484D01*
X11198634Y-14928484D02*
X11198634Y-14966579D01*
X11274825Y-14928484D02*
X11274825Y-14966579D01*
X11570063Y-15204674D02*
X11560539Y-15195150D01*
X11560539Y-15195150D02*
X11541491Y-15166579D01*
X11541491Y-15166579D02*
X11531968Y-15147531D01*
X11531968Y-15147531D02*
X11522444Y-15118960D01*
X11522444Y-15118960D02*
X11512920Y-15071341D01*
X11512920Y-15071341D02*
X11512920Y-15033246D01*
X11512920Y-15033246D02*
X11522444Y-14985627D01*
X11522444Y-14985627D02*
X11531968Y-14957055D01*
X11531968Y-14957055D02*
X11541491Y-14938008D01*
X11541491Y-14938008D02*
X11560539Y-14909436D01*
X11560539Y-14909436D02*
X11570063Y-14899912D01*
X11731968Y-14995150D02*
X11731968Y-15128484D01*
X11684348Y-14918960D02*
X11636729Y-15061817D01*
X11636729Y-15061817D02*
X11760539Y-15061817D01*
X11989110Y-15128484D02*
X11989110Y-14928484D01*
X12074825Y-15128484D02*
X12074825Y-15023722D01*
X12074825Y-15023722D02*
X12065301Y-15004674D01*
X12065301Y-15004674D02*
X12046253Y-14995150D01*
X12046253Y-14995150D02*
X12017682Y-14995150D01*
X12017682Y-14995150D02*
X11998634Y-15004674D01*
X11998634Y-15004674D02*
X11989110Y-15014198D01*
X12198634Y-15128484D02*
X12179587Y-15118960D01*
X12179587Y-15118960D02*
X12170063Y-15109436D01*
X12170063Y-15109436D02*
X12160539Y-15090388D01*
X12160539Y-15090388D02*
X12160539Y-15033246D01*
X12160539Y-15033246D02*
X12170063Y-15014198D01*
X12170063Y-15014198D02*
X12179587Y-15004674D01*
X12179587Y-15004674D02*
X12198634Y-14995150D01*
X12198634Y-14995150D02*
X12227206Y-14995150D01*
X12227206Y-14995150D02*
X12246253Y-15004674D01*
X12246253Y-15004674D02*
X12255777Y-15014198D01*
X12255777Y-15014198D02*
X12265301Y-15033246D01*
X12265301Y-15033246D02*
X12265301Y-15090388D01*
X12265301Y-15090388D02*
X12255777Y-15109436D01*
X12255777Y-15109436D02*
X12246253Y-15118960D01*
X12246253Y-15118960D02*
X12227206Y-15128484D01*
X12227206Y-15128484D02*
X12198634Y-15128484D01*
X12379587Y-15128484D02*
X12360539Y-15118960D01*
X12360539Y-15118960D02*
X12351015Y-15099912D01*
X12351015Y-15099912D02*
X12351015Y-14928484D01*
X12531968Y-15118960D02*
X12512920Y-15128484D01*
X12512920Y-15128484D02*
X12474825Y-15128484D01*
X12474825Y-15128484D02*
X12455777Y-15118960D01*
X12455777Y-15118960D02*
X12446253Y-15099912D01*
X12446253Y-15099912D02*
X12446253Y-15023722D01*
X12446253Y-15023722D02*
X12455777Y-15004674D01*
X12455777Y-15004674D02*
X12474825Y-14995150D01*
X12474825Y-14995150D02*
X12512920Y-14995150D01*
X12512920Y-14995150D02*
X12531968Y-15004674D01*
X12531968Y-15004674D02*
X12541491Y-15023722D01*
X12541491Y-15023722D02*
X12541491Y-15042769D01*
X12541491Y-15042769D02*
X12446253Y-15061817D01*
X12617682Y-15118960D02*
X12636730Y-15128484D01*
X12636730Y-15128484D02*
X12674825Y-15128484D01*
X12674825Y-15128484D02*
X12693872Y-15118960D01*
X12693872Y-15118960D02*
X12703396Y-15099912D01*
X12703396Y-15099912D02*
X12703396Y-15090388D01*
X12703396Y-15090388D02*
X12693872Y-15071341D01*
X12693872Y-15071341D02*
X12674825Y-15061817D01*
X12674825Y-15061817D02*
X12646253Y-15061817D01*
X12646253Y-15061817D02*
X12627206Y-15052293D01*
X12627206Y-15052293D02*
X12617682Y-15033246D01*
X12617682Y-15033246D02*
X12617682Y-15023722D01*
X12617682Y-15023722D02*
X12627206Y-15004674D01*
X12627206Y-15004674D02*
X12646253Y-14995150D01*
X12646253Y-14995150D02*
X12674825Y-14995150D01*
X12674825Y-14995150D02*
X12693872Y-15004674D01*
X12770063Y-15204674D02*
X12779587Y-15195150D01*
X12779587Y-15195150D02*
X12798634Y-15166579D01*
X12798634Y-15166579D02*
X12808158Y-15147531D01*
X12808158Y-15147531D02*
X12817682Y-15118960D01*
X12817682Y-15118960D02*
X12827206Y-15071341D01*
X12827206Y-15071341D02*
X12827206Y-15033246D01*
X12827206Y-15033246D02*
X12817682Y-14985627D01*
X12817682Y-14985627D02*
X12808158Y-14957055D01*
X12808158Y-14957055D02*
X12798634Y-14938008D01*
X12798634Y-14938008D02*
X12779587Y-14909436D01*
X12779587Y-14909436D02*
X12770063Y-14899912D01*
D10*
X7945000Y-15351000D02*
X7995000Y-15301000D01*
X7945000Y-15251000D01*
X7895000Y-15301000D01*
X7945000Y-15351000D01*
D11*
X8360539Y-15392484D02*
X8246253Y-15392484D01*
X8303396Y-15392484D02*
X8303396Y-15192484D01*
X8303396Y-15192484D02*
X8284348Y-15221055D01*
X8284348Y-15221055D02*
X8265301Y-15240103D01*
X8265301Y-15240103D02*
X8246253Y-15249627D01*
X8446253Y-15373436D02*
X8455777Y-15382960D01*
X8455777Y-15382960D02*
X8446253Y-15392484D01*
X8446253Y-15392484D02*
X8436729Y-15382960D01*
X8436729Y-15382960D02*
X8446253Y-15373436D01*
X8446253Y-15373436D02*
X8446253Y-15392484D01*
X8579586Y-15192484D02*
X8598634Y-15192484D01*
X8598634Y-15192484D02*
X8617682Y-15202008D01*
X8617682Y-15202008D02*
X8627205Y-15211531D01*
X8627205Y-15211531D02*
X8636729Y-15230579D01*
X8636729Y-15230579D02*
X8646253Y-15268674D01*
X8646253Y-15268674D02*
X8646253Y-15316293D01*
X8646253Y-15316293D02*
X8636729Y-15354388D01*
X8636729Y-15354388D02*
X8627205Y-15373436D01*
X8627205Y-15373436D02*
X8617682Y-15382960D01*
X8617682Y-15382960D02*
X8598634Y-15392484D01*
X8598634Y-15392484D02*
X8579586Y-15392484D01*
X8579586Y-15392484D02*
X8560539Y-15382960D01*
X8560539Y-15382960D02*
X8551015Y-15373436D01*
X8551015Y-15373436D02*
X8541491Y-15354388D01*
X8541491Y-15354388D02*
X8531967Y-15316293D01*
X8531967Y-15316293D02*
X8531967Y-15268674D01*
X8531967Y-15268674D02*
X8541491Y-15230579D01*
X8541491Y-15230579D02*
X8551015Y-15211531D01*
X8551015Y-15211531D02*
X8560539Y-15202008D01*
X8560539Y-15202008D02*
X8579586Y-15192484D01*
X8770063Y-15192484D02*
X8789110Y-15192484D01*
X8789110Y-15192484D02*
X8808158Y-15202008D01*
X8808158Y-15202008D02*
X8817682Y-15211531D01*
X8817682Y-15211531D02*
X8827205Y-15230579D01*
X8827205Y-15230579D02*
X8836729Y-15268674D01*
X8836729Y-15268674D02*
X8836729Y-15316293D01*
X8836729Y-15316293D02*
X8827205Y-15354388D01*
X8827205Y-15354388D02*
X8817682Y-15373436D01*
X8817682Y-15373436D02*
X8808158Y-15382960D01*
X8808158Y-15382960D02*
X8789110Y-15392484D01*
X8789110Y-15392484D02*
X8770063Y-15392484D01*
X8770063Y-15392484D02*
X8751015Y-15382960D01*
X8751015Y-15382960D02*
X8741491Y-15373436D01*
X8741491Y-15373436D02*
X8731967Y-15354388D01*
X8731967Y-15354388D02*
X8722444Y-15316293D01*
X8722444Y-15316293D02*
X8722444Y-15268674D01*
X8722444Y-15268674D02*
X8731967Y-15230579D01*
X8731967Y-15230579D02*
X8741491Y-15211531D01*
X8741491Y-15211531D02*
X8751015Y-15202008D01*
X8751015Y-15202008D02*
X8770063Y-15192484D01*
X8960539Y-15192484D02*
X8979586Y-15192484D01*
X8979586Y-15192484D02*
X8998634Y-15202008D01*
X8998634Y-15202008D02*
X9008158Y-15211531D01*
X9008158Y-15211531D02*
X9017682Y-15230579D01*
X9017682Y-15230579D02*
X9027205Y-15268674D01*
X9027205Y-15268674D02*
X9027205Y-15316293D01*
X9027205Y-15316293D02*
X9017682Y-15354388D01*
X9017682Y-15354388D02*
X9008158Y-15373436D01*
X9008158Y-15373436D02*
X8998634Y-15382960D01*
X8998634Y-15382960D02*
X8979586Y-15392484D01*
X8979586Y-15392484D02*
X8960539Y-15392484D01*
X8960539Y-15392484D02*
X8941491Y-15382960D01*
X8941491Y-15382960D02*
X8931967Y-15373436D01*
X8931967Y-15373436D02*
X8922444Y-15354388D01*
X8922444Y-15354388D02*
X8912920Y-15316293D01*
X8912920Y-15316293D02*
X8912920Y-15268674D01*
X8912920Y-15268674D02*
X8922444Y-15230579D01*
X8922444Y-15230579D02*
X8931967Y-15211531D01*
X8931967Y-15211531D02*
X8941491Y-15202008D01*
X8941491Y-15202008D02*
X8960539Y-15192484D01*
X9112920Y-15392484D02*
X9112920Y-15259150D01*
X9112920Y-15278198D02*
X9122444Y-15268674D01*
X9122444Y-15268674D02*
X9141491Y-15259150D01*
X9141491Y-15259150D02*
X9170063Y-15259150D01*
X9170063Y-15259150D02*
X9189110Y-15268674D01*
X9189110Y-15268674D02*
X9198634Y-15287722D01*
X9198634Y-15287722D02*
X9198634Y-15392484D01*
X9198634Y-15287722D02*
X9208158Y-15268674D01*
X9208158Y-15268674D02*
X9227205Y-15259150D01*
X9227205Y-15259150D02*
X9255777Y-15259150D01*
X9255777Y-15259150D02*
X9274825Y-15268674D01*
X9274825Y-15268674D02*
X9284348Y-15287722D01*
X9284348Y-15287722D02*
X9284348Y-15392484D01*
X9379586Y-15392484D02*
X9379586Y-15259150D01*
X9379586Y-15278198D02*
X9389110Y-15268674D01*
X9389110Y-15268674D02*
X9408158Y-15259150D01*
X9408158Y-15259150D02*
X9436729Y-15259150D01*
X9436729Y-15259150D02*
X9455777Y-15268674D01*
X9455777Y-15268674D02*
X9465301Y-15287722D01*
X9465301Y-15287722D02*
X9465301Y-15392484D01*
X9465301Y-15287722D02*
X9474825Y-15268674D01*
X9474825Y-15268674D02*
X9493872Y-15259150D01*
X9493872Y-15259150D02*
X9522444Y-15259150D01*
X9522444Y-15259150D02*
X9541491Y-15268674D01*
X9541491Y-15268674D02*
X9551015Y-15287722D01*
X9551015Y-15287722D02*
X9551015Y-15392484D01*
X9941491Y-15182960D02*
X9770063Y-15440103D01*
X10198634Y-15192484D02*
X10217682Y-15192484D01*
X10217682Y-15192484D02*
X10236729Y-15202008D01*
X10236729Y-15202008D02*
X10246253Y-15211531D01*
X10246253Y-15211531D02*
X10255777Y-15230579D01*
X10255777Y-15230579D02*
X10265301Y-15268674D01*
X10265301Y-15268674D02*
X10265301Y-15316293D01*
X10265301Y-15316293D02*
X10255777Y-15354388D01*
X10255777Y-15354388D02*
X10246253Y-15373436D01*
X10246253Y-15373436D02*
X10236729Y-15382960D01*
X10236729Y-15382960D02*
X10217682Y-15392484D01*
X10217682Y-15392484D02*
X10198634Y-15392484D01*
X10198634Y-15392484D02*
X10179587Y-15382960D01*
X10179587Y-15382960D02*
X10170063Y-15373436D01*
X10170063Y-15373436D02*
X10160539Y-15354388D01*
X10160539Y-15354388D02*
X10151015Y-15316293D01*
X10151015Y-15316293D02*
X10151015Y-15268674D01*
X10151015Y-15268674D02*
X10160539Y-15230579D01*
X10160539Y-15230579D02*
X10170063Y-15211531D01*
X10170063Y-15211531D02*
X10179587Y-15202008D01*
X10179587Y-15202008D02*
X10198634Y-15192484D01*
X10351015Y-15373436D02*
X10360539Y-15382960D01*
X10360539Y-15382960D02*
X10351015Y-15392484D01*
X10351015Y-15392484D02*
X10341491Y-15382960D01*
X10341491Y-15382960D02*
X10351015Y-15373436D01*
X10351015Y-15373436D02*
X10351015Y-15392484D01*
X10484348Y-15192484D02*
X10503396Y-15192484D01*
X10503396Y-15192484D02*
X10522444Y-15202008D01*
X10522444Y-15202008D02*
X10531968Y-15211531D01*
X10531968Y-15211531D02*
X10541491Y-15230579D01*
X10541491Y-15230579D02*
X10551015Y-15268674D01*
X10551015Y-15268674D02*
X10551015Y-15316293D01*
X10551015Y-15316293D02*
X10541491Y-15354388D01*
X10541491Y-15354388D02*
X10531968Y-15373436D01*
X10531968Y-15373436D02*
X10522444Y-15382960D01*
X10522444Y-15382960D02*
X10503396Y-15392484D01*
X10503396Y-15392484D02*
X10484348Y-15392484D01*
X10484348Y-15392484D02*
X10465301Y-15382960D01*
X10465301Y-15382960D02*
X10455777Y-15373436D01*
X10455777Y-15373436D02*
X10446253Y-15354388D01*
X10446253Y-15354388D02*
X10436729Y-15316293D01*
X10436729Y-15316293D02*
X10436729Y-15268674D01*
X10436729Y-15268674D02*
X10446253Y-15230579D01*
X10446253Y-15230579D02*
X10455777Y-15211531D01*
X10455777Y-15211531D02*
X10465301Y-15202008D01*
X10465301Y-15202008D02*
X10484348Y-15192484D01*
X10617682Y-15192484D02*
X10741491Y-15192484D01*
X10741491Y-15192484D02*
X10674825Y-15268674D01*
X10674825Y-15268674D02*
X10703396Y-15268674D01*
X10703396Y-15268674D02*
X10722444Y-15278198D01*
X10722444Y-15278198D02*
X10731968Y-15287722D01*
X10731968Y-15287722D02*
X10741491Y-15306769D01*
X10741491Y-15306769D02*
X10741491Y-15354388D01*
X10741491Y-15354388D02*
X10731968Y-15373436D01*
X10731968Y-15373436D02*
X10722444Y-15382960D01*
X10722444Y-15382960D02*
X10703396Y-15392484D01*
X10703396Y-15392484D02*
X10646253Y-15392484D01*
X10646253Y-15392484D02*
X10627206Y-15382960D01*
X10627206Y-15382960D02*
X10617682Y-15373436D01*
X10836729Y-15392484D02*
X10874825Y-15392484D01*
X10874825Y-15392484D02*
X10893872Y-15382960D01*
X10893872Y-15382960D02*
X10903396Y-15373436D01*
X10903396Y-15373436D02*
X10922444Y-15344865D01*
X10922444Y-15344865D02*
X10931968Y-15306769D01*
X10931968Y-15306769D02*
X10931968Y-15230579D01*
X10931968Y-15230579D02*
X10922444Y-15211531D01*
X10922444Y-15211531D02*
X10912920Y-15202008D01*
X10912920Y-15202008D02*
X10893872Y-15192484D01*
X10893872Y-15192484D02*
X10855777Y-15192484D01*
X10855777Y-15192484D02*
X10836729Y-15202008D01*
X10836729Y-15202008D02*
X10827206Y-15211531D01*
X10827206Y-15211531D02*
X10817682Y-15230579D01*
X10817682Y-15230579D02*
X10817682Y-15278198D01*
X10817682Y-15278198D02*
X10827206Y-15297246D01*
X10827206Y-15297246D02*
X10836729Y-15306769D01*
X10836729Y-15306769D02*
X10855777Y-15316293D01*
X10855777Y-15316293D02*
X10893872Y-15316293D01*
X10893872Y-15316293D02*
X10912920Y-15306769D01*
X10912920Y-15306769D02*
X10922444Y-15297246D01*
X10922444Y-15297246D02*
X10931968Y-15278198D01*
X11103396Y-15259150D02*
X11103396Y-15392484D01*
X11055777Y-15182960D02*
X11008158Y-15325817D01*
X11008158Y-15325817D02*
X11131968Y-15325817D01*
X11198634Y-15192484D02*
X11198634Y-15230579D01*
X11274825Y-15192484D02*
X11274825Y-15230579D01*
X11570063Y-15468674D02*
X11560539Y-15459150D01*
X11560539Y-15459150D02*
X11541491Y-15430579D01*
X11541491Y-15430579D02*
X11531968Y-15411531D01*
X11531968Y-15411531D02*
X11522444Y-15382960D01*
X11522444Y-15382960D02*
X11512920Y-15335341D01*
X11512920Y-15335341D02*
X11512920Y-15297246D01*
X11512920Y-15297246D02*
X11522444Y-15249627D01*
X11522444Y-15249627D02*
X11531968Y-15221055D01*
X11531968Y-15221055D02*
X11541491Y-15202008D01*
X11541491Y-15202008D02*
X11560539Y-15173436D01*
X11560539Y-15173436D02*
X11570063Y-15163912D01*
X11731968Y-15192484D02*
X11693872Y-15192484D01*
X11693872Y-15192484D02*
X11674825Y-15202008D01*
X11674825Y-15202008D02*
X11665301Y-15211531D01*
X11665301Y-15211531D02*
X11646253Y-15240103D01*
X11646253Y-15240103D02*
X11636729Y-15278198D01*
X11636729Y-15278198D02*
X11636729Y-15354388D01*
X11636729Y-15354388D02*
X11646253Y-15373436D01*
X11646253Y-15373436D02*
X11655777Y-15382960D01*
X11655777Y-15382960D02*
X11674825Y-15392484D01*
X11674825Y-15392484D02*
X11712920Y-15392484D01*
X11712920Y-15392484D02*
X11731968Y-15382960D01*
X11731968Y-15382960D02*
X11741491Y-15373436D01*
X11741491Y-15373436D02*
X11751015Y-15354388D01*
X11751015Y-15354388D02*
X11751015Y-15306769D01*
X11751015Y-15306769D02*
X11741491Y-15287722D01*
X11741491Y-15287722D02*
X11731968Y-15278198D01*
X11731968Y-15278198D02*
X11712920Y-15268674D01*
X11712920Y-15268674D02*
X11674825Y-15268674D01*
X11674825Y-15268674D02*
X11655777Y-15278198D01*
X11655777Y-15278198D02*
X11646253Y-15287722D01*
X11646253Y-15287722D02*
X11636729Y-15306769D01*
X11827206Y-15211531D02*
X11836729Y-15202008D01*
X11836729Y-15202008D02*
X11855777Y-15192484D01*
X11855777Y-15192484D02*
X11903396Y-15192484D01*
X11903396Y-15192484D02*
X11922444Y-15202008D01*
X11922444Y-15202008D02*
X11931968Y-15211531D01*
X11931968Y-15211531D02*
X11941491Y-15230579D01*
X11941491Y-15230579D02*
X11941491Y-15249627D01*
X11941491Y-15249627D02*
X11931968Y-15278198D01*
X11931968Y-15278198D02*
X11817682Y-15392484D01*
X11817682Y-15392484D02*
X11941491Y-15392484D01*
X12179587Y-15392484D02*
X12179587Y-15192484D01*
X12265301Y-15392484D02*
X12265301Y-15287722D01*
X12265301Y-15287722D02*
X12255777Y-15268674D01*
X12255777Y-15268674D02*
X12236730Y-15259150D01*
X12236730Y-15259150D02*
X12208158Y-15259150D01*
X12208158Y-15259150D02*
X12189110Y-15268674D01*
X12189110Y-15268674D02*
X12179587Y-15278198D01*
X12389110Y-15392484D02*
X12370063Y-15382960D01*
X12370063Y-15382960D02*
X12360539Y-15373436D01*
X12360539Y-15373436D02*
X12351015Y-15354388D01*
X12351015Y-15354388D02*
X12351015Y-15297246D01*
X12351015Y-15297246D02*
X12360539Y-15278198D01*
X12360539Y-15278198D02*
X12370063Y-15268674D01*
X12370063Y-15268674D02*
X12389110Y-15259150D01*
X12389110Y-15259150D02*
X12417682Y-15259150D01*
X12417682Y-15259150D02*
X12436730Y-15268674D01*
X12436730Y-15268674D02*
X12446253Y-15278198D01*
X12446253Y-15278198D02*
X12455777Y-15297246D01*
X12455777Y-15297246D02*
X12455777Y-15354388D01*
X12455777Y-15354388D02*
X12446253Y-15373436D01*
X12446253Y-15373436D02*
X12436730Y-15382960D01*
X12436730Y-15382960D02*
X12417682Y-15392484D01*
X12417682Y-15392484D02*
X12389110Y-15392484D01*
X12570063Y-15392484D02*
X12551015Y-15382960D01*
X12551015Y-15382960D02*
X12541491Y-15363912D01*
X12541491Y-15363912D02*
X12541491Y-15192484D01*
X12722444Y-15382960D02*
X12703396Y-15392484D01*
X12703396Y-15392484D02*
X12665301Y-15392484D01*
X12665301Y-15392484D02*
X12646253Y-15382960D01*
X12646253Y-15382960D02*
X12636730Y-15363912D01*
X12636730Y-15363912D02*
X12636730Y-15287722D01*
X12636730Y-15287722D02*
X12646253Y-15268674D01*
X12646253Y-15268674D02*
X12665301Y-15259150D01*
X12665301Y-15259150D02*
X12703396Y-15259150D01*
X12703396Y-15259150D02*
X12722444Y-15268674D01*
X12722444Y-15268674D02*
X12731968Y-15287722D01*
X12731968Y-15287722D02*
X12731968Y-15306769D01*
X12731968Y-15306769D02*
X12636730Y-15325817D01*
X12808158Y-15382960D02*
X12827206Y-15392484D01*
X12827206Y-15392484D02*
X12865301Y-15392484D01*
X12865301Y-15392484D02*
X12884349Y-15382960D01*
X12884349Y-15382960D02*
X12893872Y-15363912D01*
X12893872Y-15363912D02*
X12893872Y-15354388D01*
X12893872Y-15354388D02*
X12884349Y-15335341D01*
X12884349Y-15335341D02*
X12865301Y-15325817D01*
X12865301Y-15325817D02*
X12836730Y-15325817D01*
X12836730Y-15325817D02*
X12817682Y-15316293D01*
X12817682Y-15316293D02*
X12808158Y-15297246D01*
X12808158Y-15297246D02*
X12808158Y-15287722D01*
X12808158Y-15287722D02*
X12817682Y-15268674D01*
X12817682Y-15268674D02*
X12836730Y-15259150D01*
X12836730Y-15259150D02*
X12865301Y-15259150D01*
X12865301Y-15259150D02*
X12884349Y-15268674D01*
X12960539Y-15468674D02*
X12970063Y-15459150D01*
X12970063Y-15459150D02*
X12989111Y-15430579D01*
X12989111Y-15430579D02*
X12998634Y-15411531D01*
X12998634Y-15411531D02*
X13008158Y-15382960D01*
X13008158Y-15382960D02*
X13017682Y-15335341D01*
X13017682Y-15335341D02*
X13017682Y-15297246D01*
X13017682Y-15297246D02*
X13008158Y-15249627D01*
X13008158Y-15249627D02*
X12998634Y-15221055D01*
X12998634Y-15221055D02*
X12989111Y-15202008D01*
X12989111Y-15202008D02*
X12970063Y-15173436D01*
X12970063Y-15173436D02*
X12960539Y-15163912D01*
D12*
X7887000Y-15511000D02*
X7995000Y-15619000D01*
X7995000Y-15511000D02*
X7887000Y-15619000D01*
X7995000Y-15565000D02*
G75*
G03*
X7995000Y-15565000I-54000J0D01*
G01*
D11*
X8360539Y-15656484D02*
X8246253Y-15656484D01*
X8303396Y-15656484D02*
X8303396Y-15456484D01*
X8303396Y-15456484D02*
X8284348Y-15485055D01*
X8284348Y-15485055D02*
X8265301Y-15504103D01*
X8265301Y-15504103D02*
X8246253Y-15513627D01*
X8446253Y-15637436D02*
X8455777Y-15646960D01*
X8455777Y-15646960D02*
X8446253Y-15656484D01*
X8446253Y-15656484D02*
X8436729Y-15646960D01*
X8436729Y-15646960D02*
X8446253Y-15637436D01*
X8446253Y-15637436D02*
X8446253Y-15656484D01*
X8579586Y-15456484D02*
X8598634Y-15456484D01*
X8598634Y-15456484D02*
X8617682Y-15466008D01*
X8617682Y-15466008D02*
X8627205Y-15475531D01*
X8627205Y-15475531D02*
X8636729Y-15494579D01*
X8636729Y-15494579D02*
X8646253Y-15532674D01*
X8646253Y-15532674D02*
X8646253Y-15580293D01*
X8646253Y-15580293D02*
X8636729Y-15618388D01*
X8636729Y-15618388D02*
X8627205Y-15637436D01*
X8627205Y-15637436D02*
X8617682Y-15646960D01*
X8617682Y-15646960D02*
X8598634Y-15656484D01*
X8598634Y-15656484D02*
X8579586Y-15656484D01*
X8579586Y-15656484D02*
X8560539Y-15646960D01*
X8560539Y-15646960D02*
X8551015Y-15637436D01*
X8551015Y-15637436D02*
X8541491Y-15618388D01*
X8541491Y-15618388D02*
X8531967Y-15580293D01*
X8531967Y-15580293D02*
X8531967Y-15532674D01*
X8531967Y-15532674D02*
X8541491Y-15494579D01*
X8541491Y-15494579D02*
X8551015Y-15475531D01*
X8551015Y-15475531D02*
X8560539Y-15466008D01*
X8560539Y-15466008D02*
X8579586Y-15456484D01*
X8760539Y-15542198D02*
X8741491Y-15532674D01*
X8741491Y-15532674D02*
X8731967Y-15523150D01*
X8731967Y-15523150D02*
X8722444Y-15504103D01*
X8722444Y-15504103D02*
X8722444Y-15494579D01*
X8722444Y-15494579D02*
X8731967Y-15475531D01*
X8731967Y-15475531D02*
X8741491Y-15466008D01*
X8741491Y-15466008D02*
X8760539Y-15456484D01*
X8760539Y-15456484D02*
X8798634Y-15456484D01*
X8798634Y-15456484D02*
X8817682Y-15466008D01*
X8817682Y-15466008D02*
X8827205Y-15475531D01*
X8827205Y-15475531D02*
X8836729Y-15494579D01*
X8836729Y-15494579D02*
X8836729Y-15504103D01*
X8836729Y-15504103D02*
X8827205Y-15523150D01*
X8827205Y-15523150D02*
X8817682Y-15532674D01*
X8817682Y-15532674D02*
X8798634Y-15542198D01*
X8798634Y-15542198D02*
X8760539Y-15542198D01*
X8760539Y-15542198D02*
X8741491Y-15551722D01*
X8741491Y-15551722D02*
X8731967Y-15561246D01*
X8731967Y-15561246D02*
X8722444Y-15580293D01*
X8722444Y-15580293D02*
X8722444Y-15618388D01*
X8722444Y-15618388D02*
X8731967Y-15637436D01*
X8731967Y-15637436D02*
X8741491Y-15646960D01*
X8741491Y-15646960D02*
X8760539Y-15656484D01*
X8760539Y-15656484D02*
X8798634Y-15656484D01*
X8798634Y-15656484D02*
X8817682Y-15646960D01*
X8817682Y-15646960D02*
X8827205Y-15637436D01*
X8827205Y-15637436D02*
X8836729Y-15618388D01*
X8836729Y-15618388D02*
X8836729Y-15580293D01*
X8836729Y-15580293D02*
X8827205Y-15561246D01*
X8827205Y-15561246D02*
X8817682Y-15551722D01*
X8817682Y-15551722D02*
X8798634Y-15542198D01*
X8960539Y-15456484D02*
X8979586Y-15456484D01*
X8979586Y-15456484D02*
X8998634Y-15466008D01*
X8998634Y-15466008D02*
X9008158Y-15475531D01*
X9008158Y-15475531D02*
X9017682Y-15494579D01*
X9017682Y-15494579D02*
X9027205Y-15532674D01*
X9027205Y-15532674D02*
X9027205Y-15580293D01*
X9027205Y-15580293D02*
X9017682Y-15618388D01*
X9017682Y-15618388D02*
X9008158Y-15637436D01*
X9008158Y-15637436D02*
X8998634Y-15646960D01*
X8998634Y-15646960D02*
X8979586Y-15656484D01*
X8979586Y-15656484D02*
X8960539Y-15656484D01*
X8960539Y-15656484D02*
X8941491Y-15646960D01*
X8941491Y-15646960D02*
X8931967Y-15637436D01*
X8931967Y-15637436D02*
X8922444Y-15618388D01*
X8922444Y-15618388D02*
X8912920Y-15580293D01*
X8912920Y-15580293D02*
X8912920Y-15532674D01*
X8912920Y-15532674D02*
X8922444Y-15494579D01*
X8922444Y-15494579D02*
X8931967Y-15475531D01*
X8931967Y-15475531D02*
X8941491Y-15466008D01*
X8941491Y-15466008D02*
X8960539Y-15456484D01*
X9112920Y-15656484D02*
X9112920Y-15523150D01*
X9112920Y-15542198D02*
X9122444Y-15532674D01*
X9122444Y-15532674D02*
X9141491Y-15523150D01*
X9141491Y-15523150D02*
X9170063Y-15523150D01*
X9170063Y-15523150D02*
X9189110Y-15532674D01*
X9189110Y-15532674D02*
X9198634Y-15551722D01*
X9198634Y-15551722D02*
X9198634Y-15656484D01*
X9198634Y-15551722D02*
X9208158Y-15532674D01*
X9208158Y-15532674D02*
X9227205Y-15523150D01*
X9227205Y-15523150D02*
X9255777Y-15523150D01*
X9255777Y-15523150D02*
X9274825Y-15532674D01*
X9274825Y-15532674D02*
X9284348Y-15551722D01*
X9284348Y-15551722D02*
X9284348Y-15656484D01*
X9379586Y-15656484D02*
X9379586Y-15523150D01*
X9379586Y-15542198D02*
X9389110Y-15532674D01*
X9389110Y-15532674D02*
X9408158Y-15523150D01*
X9408158Y-15523150D02*
X9436729Y-15523150D01*
X9436729Y-15523150D02*
X9455777Y-15532674D01*
X9455777Y-15532674D02*
X9465301Y-15551722D01*
X9465301Y-15551722D02*
X9465301Y-15656484D01*
X9465301Y-15551722D02*
X9474825Y-15532674D01*
X9474825Y-15532674D02*
X9493872Y-15523150D01*
X9493872Y-15523150D02*
X9522444Y-15523150D01*
X9522444Y-15523150D02*
X9541491Y-15532674D01*
X9541491Y-15532674D02*
X9551015Y-15551722D01*
X9551015Y-15551722D02*
X9551015Y-15656484D01*
X9941491Y-15446960D02*
X9770063Y-15704103D01*
X10198634Y-15456484D02*
X10217682Y-15456484D01*
X10217682Y-15456484D02*
X10236729Y-15466008D01*
X10236729Y-15466008D02*
X10246253Y-15475531D01*
X10246253Y-15475531D02*
X10255777Y-15494579D01*
X10255777Y-15494579D02*
X10265301Y-15532674D01*
X10265301Y-15532674D02*
X10265301Y-15580293D01*
X10265301Y-15580293D02*
X10255777Y-15618388D01*
X10255777Y-15618388D02*
X10246253Y-15637436D01*
X10246253Y-15637436D02*
X10236729Y-15646960D01*
X10236729Y-15646960D02*
X10217682Y-15656484D01*
X10217682Y-15656484D02*
X10198634Y-15656484D01*
X10198634Y-15656484D02*
X10179587Y-15646960D01*
X10179587Y-15646960D02*
X10170063Y-15637436D01*
X10170063Y-15637436D02*
X10160539Y-15618388D01*
X10160539Y-15618388D02*
X10151015Y-15580293D01*
X10151015Y-15580293D02*
X10151015Y-15532674D01*
X10151015Y-15532674D02*
X10160539Y-15494579D01*
X10160539Y-15494579D02*
X10170063Y-15475531D01*
X10170063Y-15475531D02*
X10179587Y-15466008D01*
X10179587Y-15466008D02*
X10198634Y-15456484D01*
X10351015Y-15637436D02*
X10360539Y-15646960D01*
X10360539Y-15646960D02*
X10351015Y-15656484D01*
X10351015Y-15656484D02*
X10341491Y-15646960D01*
X10341491Y-15646960D02*
X10351015Y-15637436D01*
X10351015Y-15637436D02*
X10351015Y-15656484D01*
X10484348Y-15456484D02*
X10503396Y-15456484D01*
X10503396Y-15456484D02*
X10522444Y-15466008D01*
X10522444Y-15466008D02*
X10531968Y-15475531D01*
X10531968Y-15475531D02*
X10541491Y-15494579D01*
X10541491Y-15494579D02*
X10551015Y-15532674D01*
X10551015Y-15532674D02*
X10551015Y-15580293D01*
X10551015Y-15580293D02*
X10541491Y-15618388D01*
X10541491Y-15618388D02*
X10531968Y-15637436D01*
X10531968Y-15637436D02*
X10522444Y-15646960D01*
X10522444Y-15646960D02*
X10503396Y-15656484D01*
X10503396Y-15656484D02*
X10484348Y-15656484D01*
X10484348Y-15656484D02*
X10465301Y-15646960D01*
X10465301Y-15646960D02*
X10455777Y-15637436D01*
X10455777Y-15637436D02*
X10446253Y-15618388D01*
X10446253Y-15618388D02*
X10436729Y-15580293D01*
X10436729Y-15580293D02*
X10436729Y-15532674D01*
X10436729Y-15532674D02*
X10446253Y-15494579D01*
X10446253Y-15494579D02*
X10455777Y-15475531D01*
X10455777Y-15475531D02*
X10465301Y-15466008D01*
X10465301Y-15466008D02*
X10484348Y-15456484D01*
X10722444Y-15523150D02*
X10722444Y-15656484D01*
X10674825Y-15446960D02*
X10627206Y-15589817D01*
X10627206Y-15589817D02*
X10751015Y-15589817D01*
X10817682Y-15475531D02*
X10827206Y-15466008D01*
X10827206Y-15466008D02*
X10846253Y-15456484D01*
X10846253Y-15456484D02*
X10893872Y-15456484D01*
X10893872Y-15456484D02*
X10912920Y-15466008D01*
X10912920Y-15466008D02*
X10922444Y-15475531D01*
X10922444Y-15475531D02*
X10931968Y-15494579D01*
X10931968Y-15494579D02*
X10931968Y-15513627D01*
X10931968Y-15513627D02*
X10922444Y-15542198D01*
X10922444Y-15542198D02*
X10808158Y-15656484D01*
X10808158Y-15656484D02*
X10931968Y-15656484D01*
X11112920Y-15456484D02*
X11017682Y-15456484D01*
X11017682Y-15456484D02*
X11008158Y-15551722D01*
X11008158Y-15551722D02*
X11017682Y-15542198D01*
X11017682Y-15542198D02*
X11036729Y-15532674D01*
X11036729Y-15532674D02*
X11084349Y-15532674D01*
X11084349Y-15532674D02*
X11103396Y-15542198D01*
X11103396Y-15542198D02*
X11112920Y-15551722D01*
X11112920Y-15551722D02*
X11122444Y-15570769D01*
X11122444Y-15570769D02*
X11122444Y-15618388D01*
X11122444Y-15618388D02*
X11112920Y-15637436D01*
X11112920Y-15637436D02*
X11103396Y-15646960D01*
X11103396Y-15646960D02*
X11084349Y-15656484D01*
X11084349Y-15656484D02*
X11036729Y-15656484D01*
X11036729Y-15656484D02*
X11017682Y-15646960D01*
X11017682Y-15646960D02*
X11008158Y-15637436D01*
X11198634Y-15456484D02*
X11198634Y-15494579D01*
X11274825Y-15456484D02*
X11274825Y-15494579D01*
X11570063Y-15732674D02*
X11560539Y-15723150D01*
X11560539Y-15723150D02*
X11541491Y-15694579D01*
X11541491Y-15694579D02*
X11531968Y-15675531D01*
X11531968Y-15675531D02*
X11522444Y-15646960D01*
X11522444Y-15646960D02*
X11512920Y-15599341D01*
X11512920Y-15599341D02*
X11512920Y-15561246D01*
X11512920Y-15561246D02*
X11522444Y-15513627D01*
X11522444Y-15513627D02*
X11531968Y-15485055D01*
X11531968Y-15485055D02*
X11541491Y-15466008D01*
X11541491Y-15466008D02*
X11560539Y-15437436D01*
X11560539Y-15437436D02*
X11570063Y-15427912D01*
X11751015Y-15656484D02*
X11636729Y-15656484D01*
X11693872Y-15656484D02*
X11693872Y-15456484D01*
X11693872Y-15456484D02*
X11674825Y-15485055D01*
X11674825Y-15485055D02*
X11655777Y-15504103D01*
X11655777Y-15504103D02*
X11636729Y-15513627D01*
X11874825Y-15456484D02*
X11893872Y-15456484D01*
X11893872Y-15456484D02*
X11912920Y-15466008D01*
X11912920Y-15466008D02*
X11922444Y-15475531D01*
X11922444Y-15475531D02*
X11931968Y-15494579D01*
X11931968Y-15494579D02*
X11941491Y-15532674D01*
X11941491Y-15532674D02*
X11941491Y-15580293D01*
X11941491Y-15580293D02*
X11931968Y-15618388D01*
X11931968Y-15618388D02*
X11922444Y-15637436D01*
X11922444Y-15637436D02*
X11912920Y-15646960D01*
X11912920Y-15646960D02*
X11893872Y-15656484D01*
X11893872Y-15656484D02*
X11874825Y-15656484D01*
X11874825Y-15656484D02*
X11855777Y-15646960D01*
X11855777Y-15646960D02*
X11846253Y-15637436D01*
X11846253Y-15637436D02*
X11836729Y-15618388D01*
X11836729Y-15618388D02*
X11827206Y-15580293D01*
X11827206Y-15580293D02*
X11827206Y-15532674D01*
X11827206Y-15532674D02*
X11836729Y-15494579D01*
X11836729Y-15494579D02*
X11846253Y-15475531D01*
X11846253Y-15475531D02*
X11855777Y-15466008D01*
X11855777Y-15466008D02*
X11874825Y-15456484D01*
X12179587Y-15656484D02*
X12179587Y-15456484D01*
X12265301Y-15656484D02*
X12265301Y-15551722D01*
X12265301Y-15551722D02*
X12255777Y-15532674D01*
X12255777Y-15532674D02*
X12236730Y-15523150D01*
X12236730Y-15523150D02*
X12208158Y-15523150D01*
X12208158Y-15523150D02*
X12189110Y-15532674D01*
X12189110Y-15532674D02*
X12179587Y-15542198D01*
X12389110Y-15656484D02*
X12370063Y-15646960D01*
X12370063Y-15646960D02*
X12360539Y-15637436D01*
X12360539Y-15637436D02*
X12351015Y-15618388D01*
X12351015Y-15618388D02*
X12351015Y-15561246D01*
X12351015Y-15561246D02*
X12360539Y-15542198D01*
X12360539Y-15542198D02*
X12370063Y-15532674D01*
X12370063Y-15532674D02*
X12389110Y-15523150D01*
X12389110Y-15523150D02*
X12417682Y-15523150D01*
X12417682Y-15523150D02*
X12436730Y-15532674D01*
X12436730Y-15532674D02*
X12446253Y-15542198D01*
X12446253Y-15542198D02*
X12455777Y-15561246D01*
X12455777Y-15561246D02*
X12455777Y-15618388D01*
X12455777Y-15618388D02*
X12446253Y-15637436D01*
X12446253Y-15637436D02*
X12436730Y-15646960D01*
X12436730Y-15646960D02*
X12417682Y-15656484D01*
X12417682Y-15656484D02*
X12389110Y-15656484D01*
X12570063Y-15656484D02*
X12551015Y-15646960D01*
X12551015Y-15646960D02*
X12541491Y-15627912D01*
X12541491Y-15627912D02*
X12541491Y-15456484D01*
X12722444Y-15646960D02*
X12703396Y-15656484D01*
X12703396Y-15656484D02*
X12665301Y-15656484D01*
X12665301Y-15656484D02*
X12646253Y-15646960D01*
X12646253Y-15646960D02*
X12636730Y-15627912D01*
X12636730Y-15627912D02*
X12636730Y-15551722D01*
X12636730Y-15551722D02*
X12646253Y-15532674D01*
X12646253Y-15532674D02*
X12665301Y-15523150D01*
X12665301Y-15523150D02*
X12703396Y-15523150D01*
X12703396Y-15523150D02*
X12722444Y-15532674D01*
X12722444Y-15532674D02*
X12731968Y-15551722D01*
X12731968Y-15551722D02*
X12731968Y-15570769D01*
X12731968Y-15570769D02*
X12636730Y-15589817D01*
X12808158Y-15646960D02*
X12827206Y-15656484D01*
X12827206Y-15656484D02*
X12865301Y-15656484D01*
X12865301Y-15656484D02*
X12884349Y-15646960D01*
X12884349Y-15646960D02*
X12893872Y-15627912D01*
X12893872Y-15627912D02*
X12893872Y-15618388D01*
X12893872Y-15618388D02*
X12884349Y-15599341D01*
X12884349Y-15599341D02*
X12865301Y-15589817D01*
X12865301Y-15589817D02*
X12836730Y-15589817D01*
X12836730Y-15589817D02*
X12817682Y-15580293D01*
X12817682Y-15580293D02*
X12808158Y-15561246D01*
X12808158Y-15561246D02*
X12808158Y-15551722D01*
X12808158Y-15551722D02*
X12817682Y-15532674D01*
X12817682Y-15532674D02*
X12836730Y-15523150D01*
X12836730Y-15523150D02*
X12865301Y-15523150D01*
X12865301Y-15523150D02*
X12884349Y-15532674D01*
X12960539Y-15732674D02*
X12970063Y-15723150D01*
X12970063Y-15723150D02*
X12989111Y-15694579D01*
X12989111Y-15694579D02*
X12998634Y-15675531D01*
X12998634Y-15675531D02*
X13008158Y-15646960D01*
X13008158Y-15646960D02*
X13017682Y-15599341D01*
X13017682Y-15599341D02*
X13017682Y-15561246D01*
X13017682Y-15561246D02*
X13008158Y-15513627D01*
X13008158Y-15513627D02*
X12998634Y-15485055D01*
X12998634Y-15485055D02*
X12989111Y-15466008D01*
X12989111Y-15466008D02*
X12970063Y-15437436D01*
X12970063Y-15437436D02*
X12960539Y-15427912D01*
D13*
X7885000Y-15774000D02*
X7995000Y-15884000D01*
X7995000Y-15774000D02*
X7885000Y-15884000D01*
X7940000Y-15774000D02*
X7940000Y-15884000D01*
X7885000Y-15829000D02*
X7995000Y-15829000D01*
D11*
X8360539Y-15920484D02*
X8246253Y-15920484D01*
X8303396Y-15920484D02*
X8303396Y-15720484D01*
X8303396Y-15720484D02*
X8284348Y-15749055D01*
X8284348Y-15749055D02*
X8265301Y-15768103D01*
X8265301Y-15768103D02*
X8246253Y-15777627D01*
X8446253Y-15901436D02*
X8455777Y-15910960D01*
X8455777Y-15910960D02*
X8446253Y-15920484D01*
X8446253Y-15920484D02*
X8436729Y-15910960D01*
X8436729Y-15910960D02*
X8446253Y-15901436D01*
X8446253Y-15901436D02*
X8446253Y-15920484D01*
X8646253Y-15920484D02*
X8531967Y-15920484D01*
X8589110Y-15920484D02*
X8589110Y-15720484D01*
X8589110Y-15720484D02*
X8570063Y-15749055D01*
X8570063Y-15749055D02*
X8551015Y-15768103D01*
X8551015Y-15768103D02*
X8531967Y-15777627D01*
X8770063Y-15720484D02*
X8789110Y-15720484D01*
X8789110Y-15720484D02*
X8808158Y-15730008D01*
X8808158Y-15730008D02*
X8817682Y-15739531D01*
X8817682Y-15739531D02*
X8827205Y-15758579D01*
X8827205Y-15758579D02*
X8836729Y-15796674D01*
X8836729Y-15796674D02*
X8836729Y-15844293D01*
X8836729Y-15844293D02*
X8827205Y-15882388D01*
X8827205Y-15882388D02*
X8817682Y-15901436D01*
X8817682Y-15901436D02*
X8808158Y-15910960D01*
X8808158Y-15910960D02*
X8789110Y-15920484D01*
X8789110Y-15920484D02*
X8770063Y-15920484D01*
X8770063Y-15920484D02*
X8751015Y-15910960D01*
X8751015Y-15910960D02*
X8741491Y-15901436D01*
X8741491Y-15901436D02*
X8731967Y-15882388D01*
X8731967Y-15882388D02*
X8722444Y-15844293D01*
X8722444Y-15844293D02*
X8722444Y-15796674D01*
X8722444Y-15796674D02*
X8731967Y-15758579D01*
X8731967Y-15758579D02*
X8741491Y-15739531D01*
X8741491Y-15739531D02*
X8751015Y-15730008D01*
X8751015Y-15730008D02*
X8770063Y-15720484D01*
X8960539Y-15720484D02*
X8979586Y-15720484D01*
X8979586Y-15720484D02*
X8998634Y-15730008D01*
X8998634Y-15730008D02*
X9008158Y-15739531D01*
X9008158Y-15739531D02*
X9017682Y-15758579D01*
X9017682Y-15758579D02*
X9027205Y-15796674D01*
X9027205Y-15796674D02*
X9027205Y-15844293D01*
X9027205Y-15844293D02*
X9017682Y-15882388D01*
X9017682Y-15882388D02*
X9008158Y-15901436D01*
X9008158Y-15901436D02*
X8998634Y-15910960D01*
X8998634Y-15910960D02*
X8979586Y-15920484D01*
X8979586Y-15920484D02*
X8960539Y-15920484D01*
X8960539Y-15920484D02*
X8941491Y-15910960D01*
X8941491Y-15910960D02*
X8931967Y-15901436D01*
X8931967Y-15901436D02*
X8922444Y-15882388D01*
X8922444Y-15882388D02*
X8912920Y-15844293D01*
X8912920Y-15844293D02*
X8912920Y-15796674D01*
X8912920Y-15796674D02*
X8922444Y-15758579D01*
X8922444Y-15758579D02*
X8931967Y-15739531D01*
X8931967Y-15739531D02*
X8941491Y-15730008D01*
X8941491Y-15730008D02*
X8960539Y-15720484D01*
X9112920Y-15920484D02*
X9112920Y-15787150D01*
X9112920Y-15806198D02*
X9122444Y-15796674D01*
X9122444Y-15796674D02*
X9141491Y-15787150D01*
X9141491Y-15787150D02*
X9170063Y-15787150D01*
X9170063Y-15787150D02*
X9189110Y-15796674D01*
X9189110Y-15796674D02*
X9198634Y-15815722D01*
X9198634Y-15815722D02*
X9198634Y-15920484D01*
X9198634Y-15815722D02*
X9208158Y-15796674D01*
X9208158Y-15796674D02*
X9227205Y-15787150D01*
X9227205Y-15787150D02*
X9255777Y-15787150D01*
X9255777Y-15787150D02*
X9274825Y-15796674D01*
X9274825Y-15796674D02*
X9284348Y-15815722D01*
X9284348Y-15815722D02*
X9284348Y-15920484D01*
X9379586Y-15920484D02*
X9379586Y-15787150D01*
X9379586Y-15806198D02*
X9389110Y-15796674D01*
X9389110Y-15796674D02*
X9408158Y-15787150D01*
X9408158Y-15787150D02*
X9436729Y-15787150D01*
X9436729Y-15787150D02*
X9455777Y-15796674D01*
X9455777Y-15796674D02*
X9465301Y-15815722D01*
X9465301Y-15815722D02*
X9465301Y-15920484D01*
X9465301Y-15815722D02*
X9474825Y-15796674D01*
X9474825Y-15796674D02*
X9493872Y-15787150D01*
X9493872Y-15787150D02*
X9522444Y-15787150D01*
X9522444Y-15787150D02*
X9541491Y-15796674D01*
X9541491Y-15796674D02*
X9551015Y-15815722D01*
X9551015Y-15815722D02*
X9551015Y-15920484D01*
X9941491Y-15710960D02*
X9770063Y-15968103D01*
X10198634Y-15720484D02*
X10217682Y-15720484D01*
X10217682Y-15720484D02*
X10236729Y-15730008D01*
X10236729Y-15730008D02*
X10246253Y-15739531D01*
X10246253Y-15739531D02*
X10255777Y-15758579D01*
X10255777Y-15758579D02*
X10265301Y-15796674D01*
X10265301Y-15796674D02*
X10265301Y-15844293D01*
X10265301Y-15844293D02*
X10255777Y-15882388D01*
X10255777Y-15882388D02*
X10246253Y-15901436D01*
X10246253Y-15901436D02*
X10236729Y-15910960D01*
X10236729Y-15910960D02*
X10217682Y-15920484D01*
X10217682Y-15920484D02*
X10198634Y-15920484D01*
X10198634Y-15920484D02*
X10179587Y-15910960D01*
X10179587Y-15910960D02*
X10170063Y-15901436D01*
X10170063Y-15901436D02*
X10160539Y-15882388D01*
X10160539Y-15882388D02*
X10151015Y-15844293D01*
X10151015Y-15844293D02*
X10151015Y-15796674D01*
X10151015Y-15796674D02*
X10160539Y-15758579D01*
X10160539Y-15758579D02*
X10170063Y-15739531D01*
X10170063Y-15739531D02*
X10179587Y-15730008D01*
X10179587Y-15730008D02*
X10198634Y-15720484D01*
X10351015Y-15901436D02*
X10360539Y-15910960D01*
X10360539Y-15910960D02*
X10351015Y-15920484D01*
X10351015Y-15920484D02*
X10341491Y-15910960D01*
X10341491Y-15910960D02*
X10351015Y-15901436D01*
X10351015Y-15901436D02*
X10351015Y-15920484D01*
X10484348Y-15720484D02*
X10503396Y-15720484D01*
X10503396Y-15720484D02*
X10522444Y-15730008D01*
X10522444Y-15730008D02*
X10531968Y-15739531D01*
X10531968Y-15739531D02*
X10541491Y-15758579D01*
X10541491Y-15758579D02*
X10551015Y-15796674D01*
X10551015Y-15796674D02*
X10551015Y-15844293D01*
X10551015Y-15844293D02*
X10541491Y-15882388D01*
X10541491Y-15882388D02*
X10531968Y-15901436D01*
X10531968Y-15901436D02*
X10522444Y-15910960D01*
X10522444Y-15910960D02*
X10503396Y-15920484D01*
X10503396Y-15920484D02*
X10484348Y-15920484D01*
X10484348Y-15920484D02*
X10465301Y-15910960D01*
X10465301Y-15910960D02*
X10455777Y-15901436D01*
X10455777Y-15901436D02*
X10446253Y-15882388D01*
X10446253Y-15882388D02*
X10436729Y-15844293D01*
X10436729Y-15844293D02*
X10436729Y-15796674D01*
X10436729Y-15796674D02*
X10446253Y-15758579D01*
X10446253Y-15758579D02*
X10455777Y-15739531D01*
X10455777Y-15739531D02*
X10465301Y-15730008D01*
X10465301Y-15730008D02*
X10484348Y-15720484D01*
X10722444Y-15787150D02*
X10722444Y-15920484D01*
X10674825Y-15710960D02*
X10627206Y-15853817D01*
X10627206Y-15853817D02*
X10751015Y-15853817D01*
X10808158Y-15720484D02*
X10931968Y-15720484D01*
X10931968Y-15720484D02*
X10865301Y-15796674D01*
X10865301Y-15796674D02*
X10893872Y-15796674D01*
X10893872Y-15796674D02*
X10912920Y-15806198D01*
X10912920Y-15806198D02*
X10922444Y-15815722D01*
X10922444Y-15815722D02*
X10931968Y-15834769D01*
X10931968Y-15834769D02*
X10931968Y-15882388D01*
X10931968Y-15882388D02*
X10922444Y-15901436D01*
X10922444Y-15901436D02*
X10912920Y-15910960D01*
X10912920Y-15910960D02*
X10893872Y-15920484D01*
X10893872Y-15920484D02*
X10836729Y-15920484D01*
X10836729Y-15920484D02*
X10817682Y-15910960D01*
X10817682Y-15910960D02*
X10808158Y-15901436D01*
X10998634Y-15720484D02*
X11122444Y-15720484D01*
X11122444Y-15720484D02*
X11055777Y-15796674D01*
X11055777Y-15796674D02*
X11084349Y-15796674D01*
X11084349Y-15796674D02*
X11103396Y-15806198D01*
X11103396Y-15806198D02*
X11112920Y-15815722D01*
X11112920Y-15815722D02*
X11122444Y-15834769D01*
X11122444Y-15834769D02*
X11122444Y-15882388D01*
X11122444Y-15882388D02*
X11112920Y-15901436D01*
X11112920Y-15901436D02*
X11103396Y-15910960D01*
X11103396Y-15910960D02*
X11084349Y-15920484D01*
X11084349Y-15920484D02*
X11027206Y-15920484D01*
X11027206Y-15920484D02*
X11008158Y-15910960D01*
X11008158Y-15910960D02*
X10998634Y-15901436D01*
X11198634Y-15720484D02*
X11198634Y-15758579D01*
X11274825Y-15720484D02*
X11274825Y-15758579D01*
X11570063Y-15996674D02*
X11560539Y-15987150D01*
X11560539Y-15987150D02*
X11541491Y-15958579D01*
X11541491Y-15958579D02*
X11531968Y-15939531D01*
X11531968Y-15939531D02*
X11522444Y-15910960D01*
X11522444Y-15910960D02*
X11512920Y-15863341D01*
X11512920Y-15863341D02*
X11512920Y-15825246D01*
X11512920Y-15825246D02*
X11522444Y-15777627D01*
X11522444Y-15777627D02*
X11531968Y-15749055D01*
X11531968Y-15749055D02*
X11541491Y-15730008D01*
X11541491Y-15730008D02*
X11560539Y-15701436D01*
X11560539Y-15701436D02*
X11570063Y-15691912D01*
X11674825Y-15806198D02*
X11655777Y-15796674D01*
X11655777Y-15796674D02*
X11646253Y-15787150D01*
X11646253Y-15787150D02*
X11636729Y-15768103D01*
X11636729Y-15768103D02*
X11636729Y-15758579D01*
X11636729Y-15758579D02*
X11646253Y-15739531D01*
X11646253Y-15739531D02*
X11655777Y-15730008D01*
X11655777Y-15730008D02*
X11674825Y-15720484D01*
X11674825Y-15720484D02*
X11712920Y-15720484D01*
X11712920Y-15720484D02*
X11731968Y-15730008D01*
X11731968Y-15730008D02*
X11741491Y-15739531D01*
X11741491Y-15739531D02*
X11751015Y-15758579D01*
X11751015Y-15758579D02*
X11751015Y-15768103D01*
X11751015Y-15768103D02*
X11741491Y-15787150D01*
X11741491Y-15787150D02*
X11731968Y-15796674D01*
X11731968Y-15796674D02*
X11712920Y-15806198D01*
X11712920Y-15806198D02*
X11674825Y-15806198D01*
X11674825Y-15806198D02*
X11655777Y-15815722D01*
X11655777Y-15815722D02*
X11646253Y-15825246D01*
X11646253Y-15825246D02*
X11636729Y-15844293D01*
X11636729Y-15844293D02*
X11636729Y-15882388D01*
X11636729Y-15882388D02*
X11646253Y-15901436D01*
X11646253Y-15901436D02*
X11655777Y-15910960D01*
X11655777Y-15910960D02*
X11674825Y-15920484D01*
X11674825Y-15920484D02*
X11712920Y-15920484D01*
X11712920Y-15920484D02*
X11731968Y-15910960D01*
X11731968Y-15910960D02*
X11741491Y-15901436D01*
X11741491Y-15901436D02*
X11751015Y-15882388D01*
X11751015Y-15882388D02*
X11751015Y-15844293D01*
X11751015Y-15844293D02*
X11741491Y-15825246D01*
X11741491Y-15825246D02*
X11731968Y-15815722D01*
X11731968Y-15815722D02*
X11712920Y-15806198D01*
X11989110Y-15920484D02*
X11989110Y-15720484D01*
X12074825Y-15920484D02*
X12074825Y-15815722D01*
X12074825Y-15815722D02*
X12065301Y-15796674D01*
X12065301Y-15796674D02*
X12046253Y-15787150D01*
X12046253Y-15787150D02*
X12017682Y-15787150D01*
X12017682Y-15787150D02*
X11998634Y-15796674D01*
X11998634Y-15796674D02*
X11989110Y-15806198D01*
X12198634Y-15920484D02*
X12179587Y-15910960D01*
X12179587Y-15910960D02*
X12170063Y-15901436D01*
X12170063Y-15901436D02*
X12160539Y-15882388D01*
X12160539Y-15882388D02*
X12160539Y-15825246D01*
X12160539Y-15825246D02*
X12170063Y-15806198D01*
X12170063Y-15806198D02*
X12179587Y-15796674D01*
X12179587Y-15796674D02*
X12198634Y-15787150D01*
X12198634Y-15787150D02*
X12227206Y-15787150D01*
X12227206Y-15787150D02*
X12246253Y-15796674D01*
X12246253Y-15796674D02*
X12255777Y-15806198D01*
X12255777Y-15806198D02*
X12265301Y-15825246D01*
X12265301Y-15825246D02*
X12265301Y-15882388D01*
X12265301Y-15882388D02*
X12255777Y-15901436D01*
X12255777Y-15901436D02*
X12246253Y-15910960D01*
X12246253Y-15910960D02*
X12227206Y-15920484D01*
X12227206Y-15920484D02*
X12198634Y-15920484D01*
X12379587Y-15920484D02*
X12360539Y-15910960D01*
X12360539Y-15910960D02*
X12351015Y-15891912D01*
X12351015Y-15891912D02*
X12351015Y-15720484D01*
X12531968Y-15910960D02*
X12512920Y-15920484D01*
X12512920Y-15920484D02*
X12474825Y-15920484D01*
X12474825Y-15920484D02*
X12455777Y-15910960D01*
X12455777Y-15910960D02*
X12446253Y-15891912D01*
X12446253Y-15891912D02*
X12446253Y-15815722D01*
X12446253Y-15815722D02*
X12455777Y-15796674D01*
X12455777Y-15796674D02*
X12474825Y-15787150D01*
X12474825Y-15787150D02*
X12512920Y-15787150D01*
X12512920Y-15787150D02*
X12531968Y-15796674D01*
X12531968Y-15796674D02*
X12541491Y-15815722D01*
X12541491Y-15815722D02*
X12541491Y-15834769D01*
X12541491Y-15834769D02*
X12446253Y-15853817D01*
X12617682Y-15910960D02*
X12636730Y-15920484D01*
X12636730Y-15920484D02*
X12674825Y-15920484D01*
X12674825Y-15920484D02*
X12693872Y-15910960D01*
X12693872Y-15910960D02*
X12703396Y-15891912D01*
X12703396Y-15891912D02*
X12703396Y-15882388D01*
X12703396Y-15882388D02*
X12693872Y-15863341D01*
X12693872Y-15863341D02*
X12674825Y-15853817D01*
X12674825Y-15853817D02*
X12646253Y-15853817D01*
X12646253Y-15853817D02*
X12627206Y-15844293D01*
X12627206Y-15844293D02*
X12617682Y-15825246D01*
X12617682Y-15825246D02*
X12617682Y-15815722D01*
X12617682Y-15815722D02*
X12627206Y-15796674D01*
X12627206Y-15796674D02*
X12646253Y-15787150D01*
X12646253Y-15787150D02*
X12674825Y-15787150D01*
X12674825Y-15787150D02*
X12693872Y-15796674D01*
X12770063Y-15996674D02*
X12779587Y-15987150D01*
X12779587Y-15987150D02*
X12798634Y-15958579D01*
X12798634Y-15958579D02*
X12808158Y-15939531D01*
X12808158Y-15939531D02*
X12817682Y-15910960D01*
X12817682Y-15910960D02*
X12827206Y-15863341D01*
X12827206Y-15863341D02*
X12827206Y-15825246D01*
X12827206Y-15825246D02*
X12817682Y-15777627D01*
X12817682Y-15777627D02*
X12808158Y-15749055D01*
X12808158Y-15749055D02*
X12798634Y-15730008D01*
X12798634Y-15730008D02*
X12779587Y-15701436D01*
X12779587Y-15701436D02*
X12770063Y-15691912D01*
D14*
X7872000Y-16031500D02*
X7995000Y-16154500D01*
X7995000Y-16031500D02*
X7872000Y-16154500D01*
X7976987Y-16136487D02*
X7976987Y-16049512D01*
X7890012Y-16049512D01*
X7890012Y-16136487D01*
X7976987Y-16136487D01*
D11*
X8360539Y-16184484D02*
X8246253Y-16184484D01*
X8303396Y-16184484D02*
X8303396Y-15984484D01*
X8303396Y-15984484D02*
X8284348Y-16013055D01*
X8284348Y-16013055D02*
X8265301Y-16032103D01*
X8265301Y-16032103D02*
X8246253Y-16041627D01*
X8446253Y-16165436D02*
X8455777Y-16174960D01*
X8455777Y-16174960D02*
X8446253Y-16184484D01*
X8446253Y-16184484D02*
X8436729Y-16174960D01*
X8436729Y-16174960D02*
X8446253Y-16165436D01*
X8446253Y-16165436D02*
X8446253Y-16184484D01*
X8531967Y-16003531D02*
X8541491Y-15994008D01*
X8541491Y-15994008D02*
X8560539Y-15984484D01*
X8560539Y-15984484D02*
X8608158Y-15984484D01*
X8608158Y-15984484D02*
X8627205Y-15994008D01*
X8627205Y-15994008D02*
X8636729Y-16003531D01*
X8636729Y-16003531D02*
X8646253Y-16022579D01*
X8646253Y-16022579D02*
X8646253Y-16041627D01*
X8646253Y-16041627D02*
X8636729Y-16070198D01*
X8636729Y-16070198D02*
X8522444Y-16184484D01*
X8522444Y-16184484D02*
X8646253Y-16184484D01*
X8712920Y-15984484D02*
X8836729Y-15984484D01*
X8836729Y-15984484D02*
X8770063Y-16060674D01*
X8770063Y-16060674D02*
X8798634Y-16060674D01*
X8798634Y-16060674D02*
X8817682Y-16070198D01*
X8817682Y-16070198D02*
X8827205Y-16079722D01*
X8827205Y-16079722D02*
X8836729Y-16098769D01*
X8836729Y-16098769D02*
X8836729Y-16146388D01*
X8836729Y-16146388D02*
X8827205Y-16165436D01*
X8827205Y-16165436D02*
X8817682Y-16174960D01*
X8817682Y-16174960D02*
X8798634Y-16184484D01*
X8798634Y-16184484D02*
X8741491Y-16184484D01*
X8741491Y-16184484D02*
X8722444Y-16174960D01*
X8722444Y-16174960D02*
X8712920Y-16165436D01*
X8960539Y-15984484D02*
X8979586Y-15984484D01*
X8979586Y-15984484D02*
X8998634Y-15994008D01*
X8998634Y-15994008D02*
X9008158Y-16003531D01*
X9008158Y-16003531D02*
X9017682Y-16022579D01*
X9017682Y-16022579D02*
X9027205Y-16060674D01*
X9027205Y-16060674D02*
X9027205Y-16108293D01*
X9027205Y-16108293D02*
X9017682Y-16146388D01*
X9017682Y-16146388D02*
X9008158Y-16165436D01*
X9008158Y-16165436D02*
X8998634Y-16174960D01*
X8998634Y-16174960D02*
X8979586Y-16184484D01*
X8979586Y-16184484D02*
X8960539Y-16184484D01*
X8960539Y-16184484D02*
X8941491Y-16174960D01*
X8941491Y-16174960D02*
X8931967Y-16165436D01*
X8931967Y-16165436D02*
X8922444Y-16146388D01*
X8922444Y-16146388D02*
X8912920Y-16108293D01*
X8912920Y-16108293D02*
X8912920Y-16060674D01*
X8912920Y-16060674D02*
X8922444Y-16022579D01*
X8922444Y-16022579D02*
X8931967Y-16003531D01*
X8931967Y-16003531D02*
X8941491Y-15994008D01*
X8941491Y-15994008D02*
X8960539Y-15984484D01*
X9112920Y-16184484D02*
X9112920Y-16051150D01*
X9112920Y-16070198D02*
X9122444Y-16060674D01*
X9122444Y-16060674D02*
X9141491Y-16051150D01*
X9141491Y-16051150D02*
X9170063Y-16051150D01*
X9170063Y-16051150D02*
X9189110Y-16060674D01*
X9189110Y-16060674D02*
X9198634Y-16079722D01*
X9198634Y-16079722D02*
X9198634Y-16184484D01*
X9198634Y-16079722D02*
X9208158Y-16060674D01*
X9208158Y-16060674D02*
X9227205Y-16051150D01*
X9227205Y-16051150D02*
X9255777Y-16051150D01*
X9255777Y-16051150D02*
X9274825Y-16060674D01*
X9274825Y-16060674D02*
X9284348Y-16079722D01*
X9284348Y-16079722D02*
X9284348Y-16184484D01*
X9379586Y-16184484D02*
X9379586Y-16051150D01*
X9379586Y-16070198D02*
X9389110Y-16060674D01*
X9389110Y-16060674D02*
X9408158Y-16051150D01*
X9408158Y-16051150D02*
X9436729Y-16051150D01*
X9436729Y-16051150D02*
X9455777Y-16060674D01*
X9455777Y-16060674D02*
X9465301Y-16079722D01*
X9465301Y-16079722D02*
X9465301Y-16184484D01*
X9465301Y-16079722D02*
X9474825Y-16060674D01*
X9474825Y-16060674D02*
X9493872Y-16051150D01*
X9493872Y-16051150D02*
X9522444Y-16051150D01*
X9522444Y-16051150D02*
X9541491Y-16060674D01*
X9541491Y-16060674D02*
X9551015Y-16079722D01*
X9551015Y-16079722D02*
X9551015Y-16184484D01*
X9941491Y-15974960D02*
X9770063Y-16232103D01*
X10198634Y-15984484D02*
X10217682Y-15984484D01*
X10217682Y-15984484D02*
X10236729Y-15994008D01*
X10236729Y-15994008D02*
X10246253Y-16003531D01*
X10246253Y-16003531D02*
X10255777Y-16022579D01*
X10255777Y-16022579D02*
X10265301Y-16060674D01*
X10265301Y-16060674D02*
X10265301Y-16108293D01*
X10265301Y-16108293D02*
X10255777Y-16146388D01*
X10255777Y-16146388D02*
X10246253Y-16165436D01*
X10246253Y-16165436D02*
X10236729Y-16174960D01*
X10236729Y-16174960D02*
X10217682Y-16184484D01*
X10217682Y-16184484D02*
X10198634Y-16184484D01*
X10198634Y-16184484D02*
X10179587Y-16174960D01*
X10179587Y-16174960D02*
X10170063Y-16165436D01*
X10170063Y-16165436D02*
X10160539Y-16146388D01*
X10160539Y-16146388D02*
X10151015Y-16108293D01*
X10151015Y-16108293D02*
X10151015Y-16060674D01*
X10151015Y-16060674D02*
X10160539Y-16022579D01*
X10160539Y-16022579D02*
X10170063Y-16003531D01*
X10170063Y-16003531D02*
X10179587Y-15994008D01*
X10179587Y-15994008D02*
X10198634Y-15984484D01*
X10351015Y-16165436D02*
X10360539Y-16174960D01*
X10360539Y-16174960D02*
X10351015Y-16184484D01*
X10351015Y-16184484D02*
X10341491Y-16174960D01*
X10341491Y-16174960D02*
X10351015Y-16165436D01*
X10351015Y-16165436D02*
X10351015Y-16184484D01*
X10484348Y-15984484D02*
X10503396Y-15984484D01*
X10503396Y-15984484D02*
X10522444Y-15994008D01*
X10522444Y-15994008D02*
X10531968Y-16003531D01*
X10531968Y-16003531D02*
X10541491Y-16022579D01*
X10541491Y-16022579D02*
X10551015Y-16060674D01*
X10551015Y-16060674D02*
X10551015Y-16108293D01*
X10551015Y-16108293D02*
X10541491Y-16146388D01*
X10541491Y-16146388D02*
X10531968Y-16165436D01*
X10531968Y-16165436D02*
X10522444Y-16174960D01*
X10522444Y-16174960D02*
X10503396Y-16184484D01*
X10503396Y-16184484D02*
X10484348Y-16184484D01*
X10484348Y-16184484D02*
X10465301Y-16174960D01*
X10465301Y-16174960D02*
X10455777Y-16165436D01*
X10455777Y-16165436D02*
X10446253Y-16146388D01*
X10446253Y-16146388D02*
X10436729Y-16108293D01*
X10436729Y-16108293D02*
X10436729Y-16060674D01*
X10436729Y-16060674D02*
X10446253Y-16022579D01*
X10446253Y-16022579D02*
X10455777Y-16003531D01*
X10455777Y-16003531D02*
X10465301Y-15994008D01*
X10465301Y-15994008D02*
X10484348Y-15984484D01*
X10722444Y-16051150D02*
X10722444Y-16184484D01*
X10674825Y-15974960D02*
X10627206Y-16117817D01*
X10627206Y-16117817D02*
X10751015Y-16117817D01*
X10855777Y-16070198D02*
X10836729Y-16060674D01*
X10836729Y-16060674D02*
X10827206Y-16051150D01*
X10827206Y-16051150D02*
X10817682Y-16032103D01*
X10817682Y-16032103D02*
X10817682Y-16022579D01*
X10817682Y-16022579D02*
X10827206Y-16003531D01*
X10827206Y-16003531D02*
X10836729Y-15994008D01*
X10836729Y-15994008D02*
X10855777Y-15984484D01*
X10855777Y-15984484D02*
X10893872Y-15984484D01*
X10893872Y-15984484D02*
X10912920Y-15994008D01*
X10912920Y-15994008D02*
X10922444Y-16003531D01*
X10922444Y-16003531D02*
X10931968Y-16022579D01*
X10931968Y-16022579D02*
X10931968Y-16032103D01*
X10931968Y-16032103D02*
X10922444Y-16051150D01*
X10922444Y-16051150D02*
X10912920Y-16060674D01*
X10912920Y-16060674D02*
X10893872Y-16070198D01*
X10893872Y-16070198D02*
X10855777Y-16070198D01*
X10855777Y-16070198D02*
X10836729Y-16079722D01*
X10836729Y-16079722D02*
X10827206Y-16089246D01*
X10827206Y-16089246D02*
X10817682Y-16108293D01*
X10817682Y-16108293D02*
X10817682Y-16146388D01*
X10817682Y-16146388D02*
X10827206Y-16165436D01*
X10827206Y-16165436D02*
X10836729Y-16174960D01*
X10836729Y-16174960D02*
X10855777Y-16184484D01*
X10855777Y-16184484D02*
X10893872Y-16184484D01*
X10893872Y-16184484D02*
X10912920Y-16174960D01*
X10912920Y-16174960D02*
X10922444Y-16165436D01*
X10922444Y-16165436D02*
X10931968Y-16146388D01*
X10931968Y-16146388D02*
X10931968Y-16108293D01*
X10931968Y-16108293D02*
X10922444Y-16089246D01*
X10922444Y-16089246D02*
X10912920Y-16079722D01*
X10912920Y-16079722D02*
X10893872Y-16070198D01*
X11103396Y-16051150D02*
X11103396Y-16184484D01*
X11055777Y-15974960D02*
X11008158Y-16117817D01*
X11008158Y-16117817D02*
X11131968Y-16117817D01*
X11198634Y-15984484D02*
X11198634Y-16022579D01*
X11274825Y-15984484D02*
X11274825Y-16022579D01*
X11570063Y-16260674D02*
X11560539Y-16251150D01*
X11560539Y-16251150D02*
X11541491Y-16222579D01*
X11541491Y-16222579D02*
X11531968Y-16203531D01*
X11531968Y-16203531D02*
X11522444Y-16174960D01*
X11522444Y-16174960D02*
X11512920Y-16127341D01*
X11512920Y-16127341D02*
X11512920Y-16089246D01*
X11512920Y-16089246D02*
X11522444Y-16041627D01*
X11522444Y-16041627D02*
X11531968Y-16013055D01*
X11531968Y-16013055D02*
X11541491Y-15994008D01*
X11541491Y-15994008D02*
X11560539Y-15965436D01*
X11560539Y-15965436D02*
X11570063Y-15955912D01*
X11627206Y-15984484D02*
X11751015Y-15984484D01*
X11751015Y-15984484D02*
X11684348Y-16060674D01*
X11684348Y-16060674D02*
X11712920Y-16060674D01*
X11712920Y-16060674D02*
X11731968Y-16070198D01*
X11731968Y-16070198D02*
X11741491Y-16079722D01*
X11741491Y-16079722D02*
X11751015Y-16098769D01*
X11751015Y-16098769D02*
X11751015Y-16146388D01*
X11751015Y-16146388D02*
X11741491Y-16165436D01*
X11741491Y-16165436D02*
X11731968Y-16174960D01*
X11731968Y-16174960D02*
X11712920Y-16184484D01*
X11712920Y-16184484D02*
X11655777Y-16184484D01*
X11655777Y-16184484D02*
X11636729Y-16174960D01*
X11636729Y-16174960D02*
X11627206Y-16165436D01*
X11989110Y-16184484D02*
X11989110Y-15984484D01*
X12074825Y-16184484D02*
X12074825Y-16079722D01*
X12074825Y-16079722D02*
X12065301Y-16060674D01*
X12065301Y-16060674D02*
X12046253Y-16051150D01*
X12046253Y-16051150D02*
X12017682Y-16051150D01*
X12017682Y-16051150D02*
X11998634Y-16060674D01*
X11998634Y-16060674D02*
X11989110Y-16070198D01*
X12198634Y-16184484D02*
X12179587Y-16174960D01*
X12179587Y-16174960D02*
X12170063Y-16165436D01*
X12170063Y-16165436D02*
X12160539Y-16146388D01*
X12160539Y-16146388D02*
X12160539Y-16089246D01*
X12160539Y-16089246D02*
X12170063Y-16070198D01*
X12170063Y-16070198D02*
X12179587Y-16060674D01*
X12179587Y-16060674D02*
X12198634Y-16051150D01*
X12198634Y-16051150D02*
X12227206Y-16051150D01*
X12227206Y-16051150D02*
X12246253Y-16060674D01*
X12246253Y-16060674D02*
X12255777Y-16070198D01*
X12255777Y-16070198D02*
X12265301Y-16089246D01*
X12265301Y-16089246D02*
X12265301Y-16146388D01*
X12265301Y-16146388D02*
X12255777Y-16165436D01*
X12255777Y-16165436D02*
X12246253Y-16174960D01*
X12246253Y-16174960D02*
X12227206Y-16184484D01*
X12227206Y-16184484D02*
X12198634Y-16184484D01*
X12379587Y-16184484D02*
X12360539Y-16174960D01*
X12360539Y-16174960D02*
X12351015Y-16155912D01*
X12351015Y-16155912D02*
X12351015Y-15984484D01*
X12531968Y-16174960D02*
X12512920Y-16184484D01*
X12512920Y-16184484D02*
X12474825Y-16184484D01*
X12474825Y-16184484D02*
X12455777Y-16174960D01*
X12455777Y-16174960D02*
X12446253Y-16155912D01*
X12446253Y-16155912D02*
X12446253Y-16079722D01*
X12446253Y-16079722D02*
X12455777Y-16060674D01*
X12455777Y-16060674D02*
X12474825Y-16051150D01*
X12474825Y-16051150D02*
X12512920Y-16051150D01*
X12512920Y-16051150D02*
X12531968Y-16060674D01*
X12531968Y-16060674D02*
X12541491Y-16079722D01*
X12541491Y-16079722D02*
X12541491Y-16098769D01*
X12541491Y-16098769D02*
X12446253Y-16117817D01*
X12617682Y-16174960D02*
X12636730Y-16184484D01*
X12636730Y-16184484D02*
X12674825Y-16184484D01*
X12674825Y-16184484D02*
X12693872Y-16174960D01*
X12693872Y-16174960D02*
X12703396Y-16155912D01*
X12703396Y-16155912D02*
X12703396Y-16146388D01*
X12703396Y-16146388D02*
X12693872Y-16127341D01*
X12693872Y-16127341D02*
X12674825Y-16117817D01*
X12674825Y-16117817D02*
X12646253Y-16117817D01*
X12646253Y-16117817D02*
X12627206Y-16108293D01*
X12627206Y-16108293D02*
X12617682Y-16089246D01*
X12617682Y-16089246D02*
X12617682Y-16079722D01*
X12617682Y-16079722D02*
X12627206Y-16060674D01*
X12627206Y-16060674D02*
X12646253Y-16051150D01*
X12646253Y-16051150D02*
X12674825Y-16051150D01*
X12674825Y-16051150D02*
X12693872Y-16060674D01*
X12770063Y-16260674D02*
X12779587Y-16251150D01*
X12779587Y-16251150D02*
X12798634Y-16222579D01*
X12798634Y-16222579D02*
X12808158Y-16203531D01*
X12808158Y-16203531D02*
X12817682Y-16174960D01*
X12817682Y-16174960D02*
X12827206Y-16127341D01*
X12827206Y-16127341D02*
X12827206Y-16089246D01*
X12827206Y-16089246D02*
X12817682Y-16041627D01*
X12817682Y-16041627D02*
X12808158Y-16013055D01*
X12808158Y-16013055D02*
X12798634Y-15994008D01*
X12798634Y-15994008D02*
X12779587Y-15965436D01*
X12779587Y-15965436D02*
X12770063Y-15955912D01*
X7795000Y-16257000D02*
X7995000Y-16457000D01*
X7995000Y-16257000D02*
X7795000Y-16457000D01*
X7895000Y-16457000D02*
X7995000Y-16357000D01*
X7895000Y-16257000D01*
X7795000Y-16357000D01*
X7895000Y-16457000D01*
X8246253Y-16267531D02*
X8255777Y-16258008D01*
X8255777Y-16258008D02*
X8274824Y-16248484D01*
X8274824Y-16248484D02*
X8322443Y-16248484D01*
X8322443Y-16248484D02*
X8341491Y-16258008D01*
X8341491Y-16258008D02*
X8351015Y-16267531D01*
X8351015Y-16267531D02*
X8360539Y-16286579D01*
X8360539Y-16286579D02*
X8360539Y-16305627D01*
X8360539Y-16305627D02*
X8351015Y-16334198D01*
X8351015Y-16334198D02*
X8236729Y-16448484D01*
X8236729Y-16448484D02*
X8360539Y-16448484D01*
X8446253Y-16429436D02*
X8455777Y-16438960D01*
X8455777Y-16438960D02*
X8446253Y-16448484D01*
X8446253Y-16448484D02*
X8436729Y-16438960D01*
X8436729Y-16438960D02*
X8446253Y-16429436D01*
X8446253Y-16429436D02*
X8446253Y-16448484D01*
X8522444Y-16248484D02*
X8646253Y-16248484D01*
X8646253Y-16248484D02*
X8579586Y-16324674D01*
X8579586Y-16324674D02*
X8608158Y-16324674D01*
X8608158Y-16324674D02*
X8627205Y-16334198D01*
X8627205Y-16334198D02*
X8636729Y-16343722D01*
X8636729Y-16343722D02*
X8646253Y-16362769D01*
X8646253Y-16362769D02*
X8646253Y-16410388D01*
X8646253Y-16410388D02*
X8636729Y-16429436D01*
X8636729Y-16429436D02*
X8627205Y-16438960D01*
X8627205Y-16438960D02*
X8608158Y-16448484D01*
X8608158Y-16448484D02*
X8551015Y-16448484D01*
X8551015Y-16448484D02*
X8531967Y-16438960D01*
X8531967Y-16438960D02*
X8522444Y-16429436D01*
X8712920Y-16248484D02*
X8836729Y-16248484D01*
X8836729Y-16248484D02*
X8770063Y-16324674D01*
X8770063Y-16324674D02*
X8798634Y-16324674D01*
X8798634Y-16324674D02*
X8817682Y-16334198D01*
X8817682Y-16334198D02*
X8827205Y-16343722D01*
X8827205Y-16343722D02*
X8836729Y-16362769D01*
X8836729Y-16362769D02*
X8836729Y-16410388D01*
X8836729Y-16410388D02*
X8827205Y-16429436D01*
X8827205Y-16429436D02*
X8817682Y-16438960D01*
X8817682Y-16438960D02*
X8798634Y-16448484D01*
X8798634Y-16448484D02*
X8741491Y-16448484D01*
X8741491Y-16448484D02*
X8722444Y-16438960D01*
X8722444Y-16438960D02*
X8712920Y-16429436D01*
X8960539Y-16248484D02*
X8979586Y-16248484D01*
X8979586Y-16248484D02*
X8998634Y-16258008D01*
X8998634Y-16258008D02*
X9008158Y-16267531D01*
X9008158Y-16267531D02*
X9017682Y-16286579D01*
X9017682Y-16286579D02*
X9027205Y-16324674D01*
X9027205Y-16324674D02*
X9027205Y-16372293D01*
X9027205Y-16372293D02*
X9017682Y-16410388D01*
X9017682Y-16410388D02*
X9008158Y-16429436D01*
X9008158Y-16429436D02*
X8998634Y-16438960D01*
X8998634Y-16438960D02*
X8979586Y-16448484D01*
X8979586Y-16448484D02*
X8960539Y-16448484D01*
X8960539Y-16448484D02*
X8941491Y-16438960D01*
X8941491Y-16438960D02*
X8931967Y-16429436D01*
X8931967Y-16429436D02*
X8922444Y-16410388D01*
X8922444Y-16410388D02*
X8912920Y-16372293D01*
X8912920Y-16372293D02*
X8912920Y-16324674D01*
X8912920Y-16324674D02*
X8922444Y-16286579D01*
X8922444Y-16286579D02*
X8931967Y-16267531D01*
X8931967Y-16267531D02*
X8941491Y-16258008D01*
X8941491Y-16258008D02*
X8960539Y-16248484D01*
X9112920Y-16448484D02*
X9112920Y-16315150D01*
X9112920Y-16334198D02*
X9122444Y-16324674D01*
X9122444Y-16324674D02*
X9141491Y-16315150D01*
X9141491Y-16315150D02*
X9170063Y-16315150D01*
X9170063Y-16315150D02*
X9189110Y-16324674D01*
X9189110Y-16324674D02*
X9198634Y-16343722D01*
X9198634Y-16343722D02*
X9198634Y-16448484D01*
X9198634Y-16343722D02*
X9208158Y-16324674D01*
X9208158Y-16324674D02*
X9227205Y-16315150D01*
X9227205Y-16315150D02*
X9255777Y-16315150D01*
X9255777Y-16315150D02*
X9274825Y-16324674D01*
X9274825Y-16324674D02*
X9284348Y-16343722D01*
X9284348Y-16343722D02*
X9284348Y-16448484D01*
X9379586Y-16448484D02*
X9379586Y-16315150D01*
X9379586Y-16334198D02*
X9389110Y-16324674D01*
X9389110Y-16324674D02*
X9408158Y-16315150D01*
X9408158Y-16315150D02*
X9436729Y-16315150D01*
X9436729Y-16315150D02*
X9455777Y-16324674D01*
X9455777Y-16324674D02*
X9465301Y-16343722D01*
X9465301Y-16343722D02*
X9465301Y-16448484D01*
X9465301Y-16343722D02*
X9474825Y-16324674D01*
X9474825Y-16324674D02*
X9493872Y-16315150D01*
X9493872Y-16315150D02*
X9522444Y-16315150D01*
X9522444Y-16315150D02*
X9541491Y-16324674D01*
X9541491Y-16324674D02*
X9551015Y-16343722D01*
X9551015Y-16343722D02*
X9551015Y-16448484D01*
X9941491Y-16238960D02*
X9770063Y-16496103D01*
X10198634Y-16248484D02*
X10217682Y-16248484D01*
X10217682Y-16248484D02*
X10236729Y-16258008D01*
X10236729Y-16258008D02*
X10246253Y-16267531D01*
X10246253Y-16267531D02*
X10255777Y-16286579D01*
X10255777Y-16286579D02*
X10265301Y-16324674D01*
X10265301Y-16324674D02*
X10265301Y-16372293D01*
X10265301Y-16372293D02*
X10255777Y-16410388D01*
X10255777Y-16410388D02*
X10246253Y-16429436D01*
X10246253Y-16429436D02*
X10236729Y-16438960D01*
X10236729Y-16438960D02*
X10217682Y-16448484D01*
X10217682Y-16448484D02*
X10198634Y-16448484D01*
X10198634Y-16448484D02*
X10179587Y-16438960D01*
X10179587Y-16438960D02*
X10170063Y-16429436D01*
X10170063Y-16429436D02*
X10160539Y-16410388D01*
X10160539Y-16410388D02*
X10151015Y-16372293D01*
X10151015Y-16372293D02*
X10151015Y-16324674D01*
X10151015Y-16324674D02*
X10160539Y-16286579D01*
X10160539Y-16286579D02*
X10170063Y-16267531D01*
X10170063Y-16267531D02*
X10179587Y-16258008D01*
X10179587Y-16258008D02*
X10198634Y-16248484D01*
X10351015Y-16429436D02*
X10360539Y-16438960D01*
X10360539Y-16438960D02*
X10351015Y-16448484D01*
X10351015Y-16448484D02*
X10341491Y-16438960D01*
X10341491Y-16438960D02*
X10351015Y-16429436D01*
X10351015Y-16429436D02*
X10351015Y-16448484D01*
X10484348Y-16248484D02*
X10503396Y-16248484D01*
X10503396Y-16248484D02*
X10522444Y-16258008D01*
X10522444Y-16258008D02*
X10531968Y-16267531D01*
X10531968Y-16267531D02*
X10541491Y-16286579D01*
X10541491Y-16286579D02*
X10551015Y-16324674D01*
X10551015Y-16324674D02*
X10551015Y-16372293D01*
X10551015Y-16372293D02*
X10541491Y-16410388D01*
X10541491Y-16410388D02*
X10531968Y-16429436D01*
X10531968Y-16429436D02*
X10522444Y-16438960D01*
X10522444Y-16438960D02*
X10503396Y-16448484D01*
X10503396Y-16448484D02*
X10484348Y-16448484D01*
X10484348Y-16448484D02*
X10465301Y-16438960D01*
X10465301Y-16438960D02*
X10455777Y-16429436D01*
X10455777Y-16429436D02*
X10446253Y-16410388D01*
X10446253Y-16410388D02*
X10436729Y-16372293D01*
X10436729Y-16372293D02*
X10436729Y-16324674D01*
X10436729Y-16324674D02*
X10446253Y-16286579D01*
X10446253Y-16286579D02*
X10455777Y-16267531D01*
X10455777Y-16267531D02*
X10465301Y-16258008D01*
X10465301Y-16258008D02*
X10484348Y-16248484D01*
X10646253Y-16448484D02*
X10684348Y-16448484D01*
X10684348Y-16448484D02*
X10703396Y-16438960D01*
X10703396Y-16438960D02*
X10712920Y-16429436D01*
X10712920Y-16429436D02*
X10731968Y-16400865D01*
X10731968Y-16400865D02*
X10741491Y-16362769D01*
X10741491Y-16362769D02*
X10741491Y-16286579D01*
X10741491Y-16286579D02*
X10731968Y-16267531D01*
X10731968Y-16267531D02*
X10722444Y-16258008D01*
X10722444Y-16258008D02*
X10703396Y-16248484D01*
X10703396Y-16248484D02*
X10665301Y-16248484D01*
X10665301Y-16248484D02*
X10646253Y-16258008D01*
X10646253Y-16258008D02*
X10636729Y-16267531D01*
X10636729Y-16267531D02*
X10627206Y-16286579D01*
X10627206Y-16286579D02*
X10627206Y-16334198D01*
X10627206Y-16334198D02*
X10636729Y-16353246D01*
X10636729Y-16353246D02*
X10646253Y-16362769D01*
X10646253Y-16362769D02*
X10665301Y-16372293D01*
X10665301Y-16372293D02*
X10703396Y-16372293D01*
X10703396Y-16372293D02*
X10722444Y-16362769D01*
X10722444Y-16362769D02*
X10731968Y-16353246D01*
X10731968Y-16353246D02*
X10741491Y-16334198D01*
X10931968Y-16448484D02*
X10817682Y-16448484D01*
X10874825Y-16448484D02*
X10874825Y-16248484D01*
X10874825Y-16248484D02*
X10855777Y-16277055D01*
X10855777Y-16277055D02*
X10836729Y-16296103D01*
X10836729Y-16296103D02*
X10817682Y-16305627D01*
X10998634Y-16248484D02*
X11131968Y-16248484D01*
X11131968Y-16248484D02*
X11046253Y-16448484D01*
X11198634Y-16248484D02*
X11198634Y-16286579D01*
X11274825Y-16248484D02*
X11274825Y-16286579D01*
X11570063Y-16524674D02*
X11560539Y-16515150D01*
X11560539Y-16515150D02*
X11541491Y-16486579D01*
X11541491Y-16486579D02*
X11531968Y-16467531D01*
X11531968Y-16467531D02*
X11522444Y-16438960D01*
X11522444Y-16438960D02*
X11512920Y-16391341D01*
X11512920Y-16391341D02*
X11512920Y-16353246D01*
X11512920Y-16353246D02*
X11522444Y-16305627D01*
X11522444Y-16305627D02*
X11531968Y-16277055D01*
X11531968Y-16277055D02*
X11541491Y-16258008D01*
X11541491Y-16258008D02*
X11560539Y-16229436D01*
X11560539Y-16229436D02*
X11570063Y-16219912D01*
X11636729Y-16267531D02*
X11646253Y-16258008D01*
X11646253Y-16258008D02*
X11665301Y-16248484D01*
X11665301Y-16248484D02*
X11712920Y-16248484D01*
X11712920Y-16248484D02*
X11731968Y-16258008D01*
X11731968Y-16258008D02*
X11741491Y-16267531D01*
X11741491Y-16267531D02*
X11751015Y-16286579D01*
X11751015Y-16286579D02*
X11751015Y-16305627D01*
X11751015Y-16305627D02*
X11741491Y-16334198D01*
X11741491Y-16334198D02*
X11627206Y-16448484D01*
X11627206Y-16448484D02*
X11751015Y-16448484D01*
X11989110Y-16448484D02*
X11989110Y-16248484D01*
X12074825Y-16448484D02*
X12074825Y-16343722D01*
X12074825Y-16343722D02*
X12065301Y-16324674D01*
X12065301Y-16324674D02*
X12046253Y-16315150D01*
X12046253Y-16315150D02*
X12017682Y-16315150D01*
X12017682Y-16315150D02*
X11998634Y-16324674D01*
X11998634Y-16324674D02*
X11989110Y-16334198D01*
X12198634Y-16448484D02*
X12179587Y-16438960D01*
X12179587Y-16438960D02*
X12170063Y-16429436D01*
X12170063Y-16429436D02*
X12160539Y-16410388D01*
X12160539Y-16410388D02*
X12160539Y-16353246D01*
X12160539Y-16353246D02*
X12170063Y-16334198D01*
X12170063Y-16334198D02*
X12179587Y-16324674D01*
X12179587Y-16324674D02*
X12198634Y-16315150D01*
X12198634Y-16315150D02*
X12227206Y-16315150D01*
X12227206Y-16315150D02*
X12246253Y-16324674D01*
X12246253Y-16324674D02*
X12255777Y-16334198D01*
X12255777Y-16334198D02*
X12265301Y-16353246D01*
X12265301Y-16353246D02*
X12265301Y-16410388D01*
X12265301Y-16410388D02*
X12255777Y-16429436D01*
X12255777Y-16429436D02*
X12246253Y-16438960D01*
X12246253Y-16438960D02*
X12227206Y-16448484D01*
X12227206Y-16448484D02*
X12198634Y-16448484D01*
X12379587Y-16448484D02*
X12360539Y-16438960D01*
X12360539Y-16438960D02*
X12351015Y-16419912D01*
X12351015Y-16419912D02*
X12351015Y-16248484D01*
X12531968Y-16438960D02*
X12512920Y-16448484D01*
X12512920Y-16448484D02*
X12474825Y-16448484D01*
X12474825Y-16448484D02*
X12455777Y-16438960D01*
X12455777Y-16438960D02*
X12446253Y-16419912D01*
X12446253Y-16419912D02*
X12446253Y-16343722D01*
X12446253Y-16343722D02*
X12455777Y-16324674D01*
X12455777Y-16324674D02*
X12474825Y-16315150D01*
X12474825Y-16315150D02*
X12512920Y-16315150D01*
X12512920Y-16315150D02*
X12531968Y-16324674D01*
X12531968Y-16324674D02*
X12541491Y-16343722D01*
X12541491Y-16343722D02*
X12541491Y-16362769D01*
X12541491Y-16362769D02*
X12446253Y-16381817D01*
X12617682Y-16438960D02*
X12636730Y-16448484D01*
X12636730Y-16448484D02*
X12674825Y-16448484D01*
X12674825Y-16448484D02*
X12693872Y-16438960D01*
X12693872Y-16438960D02*
X12703396Y-16419912D01*
X12703396Y-16419912D02*
X12703396Y-16410388D01*
X12703396Y-16410388D02*
X12693872Y-16391341D01*
X12693872Y-16391341D02*
X12674825Y-16381817D01*
X12674825Y-16381817D02*
X12646253Y-16381817D01*
X12646253Y-16381817D02*
X12627206Y-16372293D01*
X12627206Y-16372293D02*
X12617682Y-16353246D01*
X12617682Y-16353246D02*
X12617682Y-16343722D01*
X12617682Y-16343722D02*
X12627206Y-16324674D01*
X12627206Y-16324674D02*
X12646253Y-16315150D01*
X12646253Y-16315150D02*
X12674825Y-16315150D01*
X12674825Y-16315150D02*
X12693872Y-16324674D01*
X12770063Y-16524674D02*
X12779587Y-16515150D01*
X12779587Y-16515150D02*
X12798634Y-16486579D01*
X12798634Y-16486579D02*
X12808158Y-16467531D01*
X12808158Y-16467531D02*
X12817682Y-16438960D01*
X12817682Y-16438960D02*
X12827206Y-16391341D01*
X12827206Y-16391341D02*
X12827206Y-16353246D01*
X12827206Y-16353246D02*
X12817682Y-16305627D01*
X12817682Y-16305627D02*
X12808158Y-16277055D01*
X12808158Y-16277055D02*
X12798634Y-16258008D01*
X12798634Y-16258008D02*
X12779587Y-16229436D01*
X12779587Y-16229436D02*
X12770063Y-16219912D01*
M02*
