%TF.GenerationSoftware,KiCad,Pcbnew,7.0.9*%
%TF.CreationDate,2024-03-13T01:01:39-05:00*%
%TF.ProjectId,BOARD,424f4152-442e-46b6-9963-61645f706362,rev?*%
%TF.SameCoordinates,Original*%
%TF.FileFunction,Soldermask,Top*%
%TF.FilePolarity,Negative*%
%FSLAX46Y46*%
G04 Gerber Fmt 4.6, Leading zero omitted, Abs format (unit mm)*
G04 Created by KiCad (PCBNEW 7.0.9) date 2024-03-13 01:01:39*
%MOMM*%
%LPD*%
G01*
G04 APERTURE LIST*
G04 Aperture macros list*
%AMRoundRect*
0 Rectangle with rounded corners*
0 $1 Rounding radius*
0 $2 $3 $4 $5 $6 $7 $8 $9 X,Y pos of 4 corners*
0 Add a 4 corners polygon primitive as box body*
4,1,4,$2,$3,$4,$5,$6,$7,$8,$9,$2,$3,0*
0 Add four circle primitives for the rounded corners*
1,1,$1+$1,$2,$3*
1,1,$1+$1,$4,$5*
1,1,$1+$1,$6,$7*
1,1,$1+$1,$8,$9*
0 Add four rect primitives between the rounded corners*
20,1,$1+$1,$2,$3,$4,$5,0*
20,1,$1+$1,$4,$5,$6,$7,0*
20,1,$1+$1,$6,$7,$8,$9,0*
20,1,$1+$1,$8,$9,$2,$3,0*%
G04 Aperture macros list end*
%ADD10R,1.700000X1.700000*%
%ADD11RoundRect,0.250000X0.450000X-0.350000X0.450000X0.350000X-0.450000X0.350000X-0.450000X-0.350000X0*%
%ADD12C,8.050000*%
%ADD13RoundRect,0.102000X-0.922500X-0.922500X0.922500X-0.922500X0.922500X0.922500X-0.922500X0.922500X0*%
%ADD14C,2.049000*%
%ADD15R,0.609600X0.660400*%
%ADD16O,1.700000X1.700000*%
%ADD17RoundRect,0.250000X0.350000X0.450000X-0.350000X0.450000X-0.350000X-0.450000X0.350000X-0.450000X0*%
%ADD18RoundRect,0.102000X1.050000X0.700000X-1.050000X0.700000X-1.050000X-0.700000X1.050000X-0.700000X0*%
%ADD19R,2.700000X1.000000*%
%ADD20RoundRect,0.250000X-0.350000X-0.450000X0.350000X-0.450000X0.350000X0.450000X-0.350000X0.450000X0*%
%ADD21R,0.660400X0.609600*%
%ADD22RoundRect,0.102000X0.810000X-0.810000X0.810000X0.810000X-0.810000X0.810000X-0.810000X-0.810000X0*%
%ADD23C,1.824000*%
%ADD24R,2.200000X2.200000*%
%ADD25O,2.200000X2.200000*%
%ADD26RoundRect,0.250000X-0.450000X0.350000X-0.450000X-0.350000X0.450000X-0.350000X0.450000X0.350000X0*%
%ADD27O,0.890000X1.550000*%
%ADD28O,1.250000X0.950000*%
%ADD29C,1.700000*%
%ADD30C,3.500000*%
G04 APERTURE END LIST*
D10*
%TO.C,J57*%
X175000000Y-128000000D03*
%TD*%
D11*
%TO.C,R6*%
X94700000Y-78500000D03*
X94700000Y-76500000D03*
%TD*%
D12*
%TO.C,J3*%
X88000000Y-80000000D03*
%TD*%
%TO.C,J33*%
X168000000Y-80000000D03*
%TD*%
%TO.C,J13*%
X120000000Y-48000000D03*
%TD*%
%TO.C,J29*%
X152000000Y-112000000D03*
%TD*%
D13*
%TO.C,Q1*%
X86360000Y-58310000D03*
D14*
X88900000Y-58310000D03*
X91440000Y-58310000D03*
%TD*%
D12*
%TO.C,J27*%
X152000000Y-80000000D03*
%TD*%
%TO.C,J2*%
X88000000Y-64000000D03*
%TD*%
D10*
%TO.C,J46*%
X175000000Y-48000000D03*
%TD*%
D15*
%TO.C,LED10*%
X173000000Y-62920500D03*
X173000000Y-65079500D03*
%TD*%
D10*
%TO.C,J43*%
X98000000Y-125460000D03*
D16*
X98000000Y-128000000D03*
X98000000Y-130540000D03*
%TD*%
D10*
%TO.C,J40*%
X98000000Y-77460000D03*
D16*
X98000000Y-80000000D03*
X98000000Y-82540000D03*
%TD*%
D12*
%TO.C,J35*%
X168000000Y-112000000D03*
%TD*%
D17*
%TO.C,R5*%
X97200000Y-57200000D03*
X95200000Y-57200000D03*
%TD*%
D18*
%TO.C,S2*%
X95050000Y-90250000D03*
X85950000Y-90250000D03*
X95050000Y-85750000D03*
X85950000Y-85750000D03*
%TD*%
D10*
%TO.C,J55*%
X175000000Y-112000000D03*
%TD*%
%TO.C,J52*%
X175000000Y-64000000D03*
%TD*%
D12*
%TO.C,J18*%
X120000000Y-128000000D03*
%TD*%
%TO.C,J6*%
X88000000Y-128000000D03*
%TD*%
%TO.C,J30*%
X152000000Y-128000000D03*
%TD*%
D15*
%TO.C,LED12*%
X173000000Y-97079500D03*
X173000000Y-94920500D03*
%TD*%
D12*
%TO.C,J32*%
X168000000Y-64000000D03*
%TD*%
D17*
%TO.C,R7*%
X102600000Y-88900000D03*
X100600000Y-88900000D03*
%TD*%
D12*
%TO.C,J26*%
X152000000Y-64000000D03*
%TD*%
%TO.C,J22*%
X136000000Y-96000000D03*
%TD*%
D19*
%TO.C,S3*%
X82650000Y-101460000D03*
X95350000Y-106540000D03*
X82650000Y-106540000D03*
X95350000Y-101460000D03*
X82650000Y-104000000D03*
X95350000Y-104000000D03*
%TD*%
D10*
%TO.C,J61*%
X93980000Y-121920000D03*
D16*
X93980000Y-119380000D03*
X91440000Y-121920000D03*
X91440000Y-119380000D03*
X88900000Y-121920000D03*
X88900000Y-119380000D03*
%TD*%
D10*
%TO.C,J48*%
X173500000Y-116190000D03*
D16*
X173500000Y-118730000D03*
X173500000Y-121270000D03*
X173500000Y-123810000D03*
%TD*%
D20*
%TO.C,R14*%
X171720000Y-83820000D03*
X173720000Y-83820000D03*
%TD*%
D12*
%TO.C,J9*%
X104000000Y-80000000D03*
%TD*%
D21*
%TO.C,LED6*%
X96920500Y-121920000D03*
X99079500Y-121920000D03*
%TD*%
D10*
%TO.C,J37*%
X98000000Y-50540000D03*
D16*
X98000000Y-48000000D03*
X98000000Y-45460000D03*
%TD*%
D12*
%TO.C,J7*%
X104000000Y-48000000D03*
%TD*%
D20*
%TO.C,R13*%
X171000000Y-58420000D03*
X173000000Y-58420000D03*
%TD*%
D12*
%TO.C,J36*%
X168000000Y-128000000D03*
%TD*%
%TO.C,J31*%
X168000000Y-48000000D03*
%TD*%
%TO.C,J21*%
X136000000Y-80000000D03*
%TD*%
D20*
%TO.C,R16*%
X166640000Y-119380000D03*
X168640000Y-119380000D03*
%TD*%
D12*
%TO.C,J34*%
X168000000Y-96000000D03*
%TD*%
%TO.C,J1*%
X88000000Y-48000000D03*
%TD*%
%TO.C,J15*%
X120000000Y-80000000D03*
%TD*%
D11*
%TO.C,R4*%
X95000000Y-46000000D03*
X95000000Y-44000000D03*
%TD*%
D10*
%TO.C,J41*%
X98000000Y-93460000D03*
D16*
X98000000Y-96000000D03*
X98000000Y-98540000D03*
%TD*%
D21*
%TO.C,LED1*%
X99079500Y-43000000D03*
X96920500Y-43000000D03*
%TD*%
D10*
%TO.C,J44*%
X173500000Y-86725000D03*
D16*
X173500000Y-89265000D03*
%TD*%
D12*
%TO.C,J24*%
X136000000Y-128000000D03*
%TD*%
%TO.C,J10*%
X104000000Y-96000000D03*
%TD*%
D21*
%TO.C,LED2*%
X96920500Y-59000000D03*
X99079500Y-59000000D03*
%TD*%
D22*
%TO.C,D1*%
X81280000Y-53080000D03*
D23*
X83820000Y-53080000D03*
X86360000Y-53080000D03*
X88900000Y-53080000D03*
X91440000Y-53080000D03*
X91440000Y-42920000D03*
X88900000Y-42920000D03*
X86360000Y-42920000D03*
X83820000Y-42920000D03*
X81280000Y-42920000D03*
%TD*%
D10*
%TO.C,J39*%
X98000000Y-61460000D03*
D16*
X98000000Y-64000000D03*
X98000000Y-66540000D03*
%TD*%
D10*
%TO.C,J51*%
X126725000Y-42500000D03*
D16*
X129265000Y-42500000D03*
%TD*%
D15*
%TO.C,LED11*%
X173000000Y-81079500D03*
X173000000Y-78920500D03*
%TD*%
D18*
%TO.C,S1*%
X95050000Y-74250000D03*
X85950000Y-74250000D03*
X95050000Y-69750000D03*
X85950000Y-69750000D03*
%TD*%
D12*
%TO.C,J17*%
X120000000Y-112000000D03*
%TD*%
D20*
%TO.C,R8*%
X92980000Y-114300000D03*
X94980000Y-114300000D03*
%TD*%
D12*
%TO.C,J8*%
X104000000Y-64000000D03*
%TD*%
D10*
%TO.C,J42*%
X98000000Y-109460000D03*
D16*
X98000000Y-112000000D03*
X98000000Y-114540000D03*
%TD*%
D21*
%TO.C,LED4*%
X99079500Y-91000000D03*
X96920500Y-91000000D03*
%TD*%
D20*
%TO.C,R15*%
X172500000Y-102000000D03*
X174500000Y-102000000D03*
%TD*%
D10*
%TO.C,J59*%
X108190000Y-42500000D03*
D16*
X110730000Y-42500000D03*
X113270000Y-42500000D03*
X115810000Y-42500000D03*
%TD*%
D20*
%TO.C,R9*%
X92980000Y-124460000D03*
X94980000Y-124460000D03*
%TD*%
D11*
%TO.C,R21*%
X92800000Y-78100000D03*
X92800000Y-76100000D03*
%TD*%
D12*
%TO.C,J28*%
X152000000Y-96000000D03*
%TD*%
D20*
%TO.C,R17*%
X171720000Y-134620000D03*
X173720000Y-134620000D03*
%TD*%
D15*
%TO.C,LED5*%
X93980000Y-112839500D03*
X93980000Y-110680500D03*
%TD*%
D12*
%TO.C,J11*%
X104000000Y-112000000D03*
%TD*%
D11*
%TO.C,R12*%
X172720000Y-54340000D03*
X172720000Y-52340000D03*
%TD*%
D10*
%TO.C,J54*%
X175000000Y-96000000D03*
%TD*%
D12*
%TO.C,J23*%
X136000000Y-112000000D03*
%TD*%
%TO.C,J20*%
X136000000Y-64000000D03*
%TD*%
%TO.C,J19*%
X136000000Y-48000000D03*
%TD*%
%TO.C,J12*%
X104000000Y-128000000D03*
%TD*%
%TO.C,J14*%
X120000000Y-64000000D03*
%TD*%
D24*
%TO.C,D4*%
X142000000Y-58420000D03*
D25*
X142000000Y-48260000D03*
%TD*%
D26*
%TO.C,R20*%
X93980000Y-80280000D03*
X93980000Y-82280000D03*
%TD*%
D12*
%TO.C,J5*%
X88000000Y-112000000D03*
%TD*%
%TO.C,J4*%
X88000000Y-96000000D03*
%TD*%
D15*
%TO.C,LED14*%
X173000000Y-129079500D03*
X173000000Y-126920500D03*
%TD*%
%TO.C,LED9*%
X173000000Y-49079500D03*
X173000000Y-46920500D03*
%TD*%
%TO.C,LED13*%
X173000000Y-113079500D03*
X173000000Y-110920500D03*
%TD*%
D21*
%TO.C,LED3*%
X96920500Y-75000000D03*
X99079500Y-75000000D03*
%TD*%
D10*
%TO.C,J49*%
X173500000Y-68190000D03*
D16*
X173500000Y-70730000D03*
X173500000Y-73270000D03*
X173500000Y-75810000D03*
%TD*%
D12*
%TO.C,J25*%
X152000000Y-48000000D03*
%TD*%
%TO.C,J16*%
X120000000Y-96000000D03*
%TD*%
D10*
%TO.C,J53*%
X175000000Y-80000000D03*
%TD*%
%TO.C,J45*%
X125725000Y-133500000D03*
D16*
X128265000Y-133500000D03*
%TD*%
D27*
%TO.C,J38*%
X139700000Y-41400000D03*
D28*
X140700000Y-44100000D03*
X145700000Y-44100000D03*
D27*
X146700000Y-41400000D03*
%TD*%
D10*
%TO.C,J47*%
X82500000Y-68190000D03*
D16*
X82500000Y-70730000D03*
X82500000Y-73270000D03*
X82500000Y-75810000D03*
%TD*%
D24*
%TO.C,D3*%
X145500000Y-58420000D03*
D25*
X145500000Y-48260000D03*
%TD*%
D24*
%TO.C,D5*%
X142240000Y-71120000D03*
D25*
X142240000Y-60960000D03*
%TD*%
D24*
%TO.C,D2*%
X147320000Y-71120000D03*
D25*
X147320000Y-60960000D03*
%TD*%
D10*
%TO.C,J50*%
X82500000Y-116190000D03*
D16*
X82500000Y-118730000D03*
X82500000Y-121270000D03*
X82500000Y-123810000D03*
%TD*%
D10*
%TO.C,J58*%
X82500000Y-86725000D03*
D16*
X82500000Y-89265000D03*
%TD*%
D10*
%TO.C,J60*%
X158730000Y-59917500D03*
D29*
X156230000Y-59917500D03*
X156230000Y-57917500D03*
X158730000Y-57917500D03*
D30*
X151460000Y-55207500D03*
X163500000Y-55207500D03*
%TD*%
D10*
%TO.C,J56*%
X108190000Y-133500000D03*
D16*
X110730000Y-133500000D03*
X113270000Y-133500000D03*
X115810000Y-133500000D03*
%TD*%
M02*
