%TF.GenerationSoftware,KiCad,Pcbnew,7.0.5*%
%TF.CreationDate,2024-03-05T22:02:34-06:00*%
%TF.ProjectId,GATE,47415445-2e6b-4696-9361-645f70636258,rev?*%
%TF.SameCoordinates,Original*%
%TF.FileFunction,Legend,Top*%
%TF.FilePolarity,Positive*%
%FSLAX46Y46*%
G04 Gerber Fmt 4.6, Leading zero omitted, Abs format (unit mm)*
G04 Created by KiCad (PCBNEW 7.0.5) date 2024-03-05 22:02:34*
%MOMM*%
%LPD*%
G01*
G04 APERTURE LIST*
%ADD10C,0.150000*%
%ADD11C,0.100000*%
%ADD12C,0.152400*%
%ADD13C,0.120000*%
%ADD14C,0.127000*%
G04 APERTURE END LIST*
D10*
%TO.C,U1*%
X154238095Y-90954819D02*
X154238095Y-91764342D01*
X154238095Y-91764342D02*
X154285714Y-91859580D01*
X154285714Y-91859580D02*
X154333333Y-91907200D01*
X154333333Y-91907200D02*
X154428571Y-91954819D01*
X154428571Y-91954819D02*
X154619047Y-91954819D01*
X154619047Y-91954819D02*
X154714285Y-91907200D01*
X154714285Y-91907200D02*
X154761904Y-91859580D01*
X154761904Y-91859580D02*
X154809523Y-91764342D01*
X154809523Y-91764342D02*
X154809523Y-90954819D01*
X155809523Y-91954819D02*
X155238095Y-91954819D01*
X155523809Y-91954819D02*
X155523809Y-90954819D01*
X155523809Y-90954819D02*
X155428571Y-91097676D01*
X155428571Y-91097676D02*
X155333333Y-91192914D01*
X155333333Y-91192914D02*
X155238095Y-91240533D01*
X153552200Y-88303019D02*
X153552200Y-88541114D01*
X153314105Y-88445876D02*
X153552200Y-88541114D01*
X153552200Y-88541114D02*
X153790295Y-88445876D01*
X153409343Y-88731590D02*
X153552200Y-88541114D01*
X153552200Y-88541114D02*
X153695057Y-88731590D01*
X153552200Y-88303019D02*
X153552200Y-88541114D01*
X153314105Y-88445876D02*
X153552200Y-88541114D01*
X153552200Y-88541114D02*
X153790295Y-88445876D01*
X153409343Y-88731590D02*
X153552200Y-88541114D01*
X153552200Y-88541114D02*
X153695057Y-88731590D01*
%TO.C,LED4*%
X148954819Y-88619047D02*
X148954819Y-89095237D01*
X148954819Y-89095237D02*
X147954819Y-89095237D01*
X148431009Y-88285713D02*
X148431009Y-87952380D01*
X148954819Y-87809523D02*
X148954819Y-88285713D01*
X148954819Y-88285713D02*
X147954819Y-88285713D01*
X147954819Y-88285713D02*
X147954819Y-87809523D01*
X148954819Y-87380951D02*
X147954819Y-87380951D01*
X147954819Y-87380951D02*
X147954819Y-87142856D01*
X147954819Y-87142856D02*
X148002438Y-86999999D01*
X148002438Y-86999999D02*
X148097676Y-86904761D01*
X148097676Y-86904761D02*
X148192914Y-86857142D01*
X148192914Y-86857142D02*
X148383390Y-86809523D01*
X148383390Y-86809523D02*
X148526247Y-86809523D01*
X148526247Y-86809523D02*
X148716723Y-86857142D01*
X148716723Y-86857142D02*
X148811961Y-86904761D01*
X148811961Y-86904761D02*
X148907200Y-86999999D01*
X148907200Y-86999999D02*
X148954819Y-87142856D01*
X148954819Y-87142856D02*
X148954819Y-87380951D01*
X148288152Y-85952380D02*
X148954819Y-85952380D01*
X147907200Y-86190475D02*
X148621485Y-86428570D01*
X148621485Y-86428570D02*
X148621485Y-85809523D01*
%TO.C,LED3*%
X161954819Y-88619047D02*
X161954819Y-89095237D01*
X161954819Y-89095237D02*
X160954819Y-89095237D01*
X161431009Y-88285713D02*
X161431009Y-87952380D01*
X161954819Y-87809523D02*
X161954819Y-88285713D01*
X161954819Y-88285713D02*
X160954819Y-88285713D01*
X160954819Y-88285713D02*
X160954819Y-87809523D01*
X161954819Y-87380951D02*
X160954819Y-87380951D01*
X160954819Y-87380951D02*
X160954819Y-87142856D01*
X160954819Y-87142856D02*
X161002438Y-86999999D01*
X161002438Y-86999999D02*
X161097676Y-86904761D01*
X161097676Y-86904761D02*
X161192914Y-86857142D01*
X161192914Y-86857142D02*
X161383390Y-86809523D01*
X161383390Y-86809523D02*
X161526247Y-86809523D01*
X161526247Y-86809523D02*
X161716723Y-86857142D01*
X161716723Y-86857142D02*
X161811961Y-86904761D01*
X161811961Y-86904761D02*
X161907200Y-86999999D01*
X161907200Y-86999999D02*
X161954819Y-87142856D01*
X161954819Y-87142856D02*
X161954819Y-87380951D01*
X160954819Y-86476189D02*
X160954819Y-85857142D01*
X160954819Y-85857142D02*
X161335771Y-86190475D01*
X161335771Y-86190475D02*
X161335771Y-86047618D01*
X161335771Y-86047618D02*
X161383390Y-85952380D01*
X161383390Y-85952380D02*
X161431009Y-85904761D01*
X161431009Y-85904761D02*
X161526247Y-85857142D01*
X161526247Y-85857142D02*
X161764342Y-85857142D01*
X161764342Y-85857142D02*
X161859580Y-85904761D01*
X161859580Y-85904761D02*
X161907200Y-85952380D01*
X161907200Y-85952380D02*
X161954819Y-86047618D01*
X161954819Y-86047618D02*
X161954819Y-86333332D01*
X161954819Y-86333332D02*
X161907200Y-86428570D01*
X161907200Y-86428570D02*
X161859580Y-86476189D01*
%TO.C,LED2*%
X148045180Y-90130952D02*
X148045180Y-89654762D01*
X148045180Y-89654762D02*
X149045180Y-89654762D01*
X148568990Y-90464286D02*
X148568990Y-90797619D01*
X148045180Y-90940476D02*
X148045180Y-90464286D01*
X148045180Y-90464286D02*
X149045180Y-90464286D01*
X149045180Y-90464286D02*
X149045180Y-90940476D01*
X148045180Y-91369048D02*
X149045180Y-91369048D01*
X149045180Y-91369048D02*
X149045180Y-91607143D01*
X149045180Y-91607143D02*
X148997561Y-91750000D01*
X148997561Y-91750000D02*
X148902323Y-91845238D01*
X148902323Y-91845238D02*
X148807085Y-91892857D01*
X148807085Y-91892857D02*
X148616609Y-91940476D01*
X148616609Y-91940476D02*
X148473752Y-91940476D01*
X148473752Y-91940476D02*
X148283276Y-91892857D01*
X148283276Y-91892857D02*
X148188038Y-91845238D01*
X148188038Y-91845238D02*
X148092800Y-91750000D01*
X148092800Y-91750000D02*
X148045180Y-91607143D01*
X148045180Y-91607143D02*
X148045180Y-91369048D01*
X148949942Y-92321429D02*
X148997561Y-92369048D01*
X148997561Y-92369048D02*
X149045180Y-92464286D01*
X149045180Y-92464286D02*
X149045180Y-92702381D01*
X149045180Y-92702381D02*
X148997561Y-92797619D01*
X148997561Y-92797619D02*
X148949942Y-92845238D01*
X148949942Y-92845238D02*
X148854704Y-92892857D01*
X148854704Y-92892857D02*
X148759466Y-92892857D01*
X148759466Y-92892857D02*
X148616609Y-92845238D01*
X148616609Y-92845238D02*
X148045180Y-92273810D01*
X148045180Y-92273810D02*
X148045180Y-92892857D01*
%TO.C,LED1*%
X148954819Y-84869047D02*
X148954819Y-85345237D01*
X148954819Y-85345237D02*
X147954819Y-85345237D01*
X148431009Y-84535713D02*
X148431009Y-84202380D01*
X148954819Y-84059523D02*
X148954819Y-84535713D01*
X148954819Y-84535713D02*
X147954819Y-84535713D01*
X147954819Y-84535713D02*
X147954819Y-84059523D01*
X148954819Y-83630951D02*
X147954819Y-83630951D01*
X147954819Y-83630951D02*
X147954819Y-83392856D01*
X147954819Y-83392856D02*
X148002438Y-83249999D01*
X148002438Y-83249999D02*
X148097676Y-83154761D01*
X148097676Y-83154761D02*
X148192914Y-83107142D01*
X148192914Y-83107142D02*
X148383390Y-83059523D01*
X148383390Y-83059523D02*
X148526247Y-83059523D01*
X148526247Y-83059523D02*
X148716723Y-83107142D01*
X148716723Y-83107142D02*
X148811961Y-83154761D01*
X148811961Y-83154761D02*
X148907200Y-83249999D01*
X148907200Y-83249999D02*
X148954819Y-83392856D01*
X148954819Y-83392856D02*
X148954819Y-83630951D01*
X148954819Y-82107142D02*
X148954819Y-82678570D01*
X148954819Y-82392856D02*
X147954819Y-82392856D01*
X147954819Y-82392856D02*
X148097676Y-82488094D01*
X148097676Y-82488094D02*
X148192914Y-82583332D01*
X148192914Y-82583332D02*
X148240533Y-82678570D01*
D11*
%TO.C,J6*%
X144613333Y-86086109D02*
X144613333Y-86443252D01*
X144613333Y-86443252D02*
X144589524Y-86514680D01*
X144589524Y-86514680D02*
X144541905Y-86562300D01*
X144541905Y-86562300D02*
X144470476Y-86586109D01*
X144470476Y-86586109D02*
X144422857Y-86586109D01*
X145065714Y-86086109D02*
X144970476Y-86086109D01*
X144970476Y-86086109D02*
X144922857Y-86109919D01*
X144922857Y-86109919D02*
X144899047Y-86133728D01*
X144899047Y-86133728D02*
X144851428Y-86205157D01*
X144851428Y-86205157D02*
X144827619Y-86300395D01*
X144827619Y-86300395D02*
X144827619Y-86490871D01*
X144827619Y-86490871D02*
X144851428Y-86538490D01*
X144851428Y-86538490D02*
X144875238Y-86562300D01*
X144875238Y-86562300D02*
X144922857Y-86586109D01*
X144922857Y-86586109D02*
X145018095Y-86586109D01*
X145018095Y-86586109D02*
X145065714Y-86562300D01*
X145065714Y-86562300D02*
X145089523Y-86538490D01*
X145089523Y-86538490D02*
X145113333Y-86490871D01*
X145113333Y-86490871D02*
X145113333Y-86371823D01*
X145113333Y-86371823D02*
X145089523Y-86324204D01*
X145089523Y-86324204D02*
X145065714Y-86300395D01*
X145065714Y-86300395D02*
X145018095Y-86276585D01*
X145018095Y-86276585D02*
X144922857Y-86276585D01*
X144922857Y-86276585D02*
X144875238Y-86300395D01*
X144875238Y-86300395D02*
X144851428Y-86324204D01*
X144851428Y-86324204D02*
X144827619Y-86371823D01*
%TO.C,R3*%
X158226109Y-88083333D02*
X157988014Y-88249999D01*
X158226109Y-88369047D02*
X157726109Y-88369047D01*
X157726109Y-88369047D02*
X157726109Y-88178571D01*
X157726109Y-88178571D02*
X157749919Y-88130952D01*
X157749919Y-88130952D02*
X157773728Y-88107142D01*
X157773728Y-88107142D02*
X157821347Y-88083333D01*
X157821347Y-88083333D02*
X157892776Y-88083333D01*
X157892776Y-88083333D02*
X157940395Y-88107142D01*
X157940395Y-88107142D02*
X157964204Y-88130952D01*
X157964204Y-88130952D02*
X157988014Y-88178571D01*
X157988014Y-88178571D02*
X157988014Y-88369047D01*
X157726109Y-87916666D02*
X157726109Y-87607142D01*
X157726109Y-87607142D02*
X157916585Y-87773809D01*
X157916585Y-87773809D02*
X157916585Y-87702380D01*
X157916585Y-87702380D02*
X157940395Y-87654761D01*
X157940395Y-87654761D02*
X157964204Y-87630952D01*
X157964204Y-87630952D02*
X158011823Y-87607142D01*
X158011823Y-87607142D02*
X158130871Y-87607142D01*
X158130871Y-87607142D02*
X158178490Y-87630952D01*
X158178490Y-87630952D02*
X158202300Y-87654761D01*
X158202300Y-87654761D02*
X158226109Y-87702380D01*
X158226109Y-87702380D02*
X158226109Y-87845237D01*
X158226109Y-87845237D02*
X158202300Y-87892856D01*
X158202300Y-87892856D02*
X158178490Y-87916666D01*
%TO.C,R1*%
X150526109Y-86083333D02*
X150288014Y-86249999D01*
X150526109Y-86369047D02*
X150026109Y-86369047D01*
X150026109Y-86369047D02*
X150026109Y-86178571D01*
X150026109Y-86178571D02*
X150049919Y-86130952D01*
X150049919Y-86130952D02*
X150073728Y-86107142D01*
X150073728Y-86107142D02*
X150121347Y-86083333D01*
X150121347Y-86083333D02*
X150192776Y-86083333D01*
X150192776Y-86083333D02*
X150240395Y-86107142D01*
X150240395Y-86107142D02*
X150264204Y-86130952D01*
X150264204Y-86130952D02*
X150288014Y-86178571D01*
X150288014Y-86178571D02*
X150288014Y-86369047D01*
X150526109Y-85607142D02*
X150526109Y-85892856D01*
X150526109Y-85749999D02*
X150026109Y-85749999D01*
X150026109Y-85749999D02*
X150097538Y-85797618D01*
X150097538Y-85797618D02*
X150145157Y-85845237D01*
X150145157Y-85845237D02*
X150168966Y-85892856D01*
%TO.C,R2*%
X150726109Y-88983333D02*
X150488014Y-89149999D01*
X150726109Y-89269047D02*
X150226109Y-89269047D01*
X150226109Y-89269047D02*
X150226109Y-89078571D01*
X150226109Y-89078571D02*
X150249919Y-89030952D01*
X150249919Y-89030952D02*
X150273728Y-89007142D01*
X150273728Y-89007142D02*
X150321347Y-88983333D01*
X150321347Y-88983333D02*
X150392776Y-88983333D01*
X150392776Y-88983333D02*
X150440395Y-89007142D01*
X150440395Y-89007142D02*
X150464204Y-89030952D01*
X150464204Y-89030952D02*
X150488014Y-89078571D01*
X150488014Y-89078571D02*
X150488014Y-89269047D01*
X150273728Y-88792856D02*
X150249919Y-88769047D01*
X150249919Y-88769047D02*
X150226109Y-88721428D01*
X150226109Y-88721428D02*
X150226109Y-88602380D01*
X150226109Y-88602380D02*
X150249919Y-88554761D01*
X150249919Y-88554761D02*
X150273728Y-88530952D01*
X150273728Y-88530952D02*
X150321347Y-88507142D01*
X150321347Y-88507142D02*
X150368966Y-88507142D01*
X150368966Y-88507142D02*
X150440395Y-88530952D01*
X150440395Y-88530952D02*
X150726109Y-88816666D01*
X150726109Y-88816666D02*
X150726109Y-88507142D01*
%TO.C,J1*%
X144613333Y-81006109D02*
X144613333Y-81363252D01*
X144613333Y-81363252D02*
X144589524Y-81434680D01*
X144589524Y-81434680D02*
X144541905Y-81482300D01*
X144541905Y-81482300D02*
X144470476Y-81506109D01*
X144470476Y-81506109D02*
X144422857Y-81506109D01*
X145113333Y-81506109D02*
X144827619Y-81506109D01*
X144970476Y-81506109D02*
X144970476Y-81006109D01*
X144970476Y-81006109D02*
X144922857Y-81077538D01*
X144922857Y-81077538D02*
X144875238Y-81125157D01*
X144875238Y-81125157D02*
X144827619Y-81148966D01*
%TO.C,J2*%
X144613333Y-91166109D02*
X144613333Y-91523252D01*
X144613333Y-91523252D02*
X144589524Y-91594680D01*
X144589524Y-91594680D02*
X144541905Y-91642300D01*
X144541905Y-91642300D02*
X144470476Y-91666109D01*
X144470476Y-91666109D02*
X144422857Y-91666109D01*
X144827619Y-91213728D02*
X144851428Y-91189919D01*
X144851428Y-91189919D02*
X144899047Y-91166109D01*
X144899047Y-91166109D02*
X145018095Y-91166109D01*
X145018095Y-91166109D02*
X145065714Y-91189919D01*
X145065714Y-91189919D02*
X145089523Y-91213728D01*
X145089523Y-91213728D02*
X145113333Y-91261347D01*
X145113333Y-91261347D02*
X145113333Y-91308966D01*
X145113333Y-91308966D02*
X145089523Y-91380395D01*
X145089523Y-91380395D02*
X144803809Y-91666109D01*
X144803809Y-91666109D02*
X145113333Y-91666109D01*
%TO.C,J3*%
X168333333Y-81956109D02*
X168333333Y-82313252D01*
X168333333Y-82313252D02*
X168309524Y-82384680D01*
X168309524Y-82384680D02*
X168261905Y-82432300D01*
X168261905Y-82432300D02*
X168190476Y-82456109D01*
X168190476Y-82456109D02*
X168142857Y-82456109D01*
X168523809Y-81956109D02*
X168833333Y-81956109D01*
X168833333Y-81956109D02*
X168666666Y-82146585D01*
X168666666Y-82146585D02*
X168738095Y-82146585D01*
X168738095Y-82146585D02*
X168785714Y-82170395D01*
X168785714Y-82170395D02*
X168809523Y-82194204D01*
X168809523Y-82194204D02*
X168833333Y-82241823D01*
X168833333Y-82241823D02*
X168833333Y-82360871D01*
X168833333Y-82360871D02*
X168809523Y-82408490D01*
X168809523Y-82408490D02*
X168785714Y-82432300D01*
X168785714Y-82432300D02*
X168738095Y-82456109D01*
X168738095Y-82456109D02*
X168595238Y-82456109D01*
X168595238Y-82456109D02*
X168547619Y-82432300D01*
X168547619Y-82432300D02*
X168523809Y-82408490D01*
%TO.C,D1*%
X155166109Y-83869047D02*
X154666109Y-83869047D01*
X154666109Y-83869047D02*
X154666109Y-83749999D01*
X154666109Y-83749999D02*
X154689919Y-83678571D01*
X154689919Y-83678571D02*
X154737538Y-83630952D01*
X154737538Y-83630952D02*
X154785157Y-83607142D01*
X154785157Y-83607142D02*
X154880395Y-83583333D01*
X154880395Y-83583333D02*
X154951823Y-83583333D01*
X154951823Y-83583333D02*
X155047061Y-83607142D01*
X155047061Y-83607142D02*
X155094680Y-83630952D01*
X155094680Y-83630952D02*
X155142300Y-83678571D01*
X155142300Y-83678571D02*
X155166109Y-83749999D01*
X155166109Y-83749999D02*
X155166109Y-83869047D01*
X155166109Y-83107142D02*
X155166109Y-83392856D01*
X155166109Y-83249999D02*
X154666109Y-83249999D01*
X154666109Y-83249999D02*
X154737538Y-83297618D01*
X154737538Y-83297618D02*
X154785157Y-83345237D01*
X154785157Y-83345237D02*
X154808966Y-83392856D01*
D12*
%TO.C,U1*%
X154697484Y-93024000D02*
X155302516Y-93024000D01*
X155302516Y-89976000D02*
X154697484Y-89976000D01*
X155876300Y-91837861D02*
X155876300Y-91162139D01*
X154875128Y-90254047D02*
G75*
G03*
X155124872Y-90254047I124872J278049D01*
G01*
%TO.C,LED4*%
X148931800Y-87941750D02*
X148931800Y-87058250D01*
X148068200Y-87058250D02*
X148068200Y-87941750D01*
%TO.C,LED3*%
X161931800Y-87941750D02*
X161931800Y-87058250D01*
X161068200Y-87058250D02*
X161068200Y-87941750D01*
%TO.C,LED2*%
X148068200Y-90808250D02*
X148068200Y-91691750D01*
X148931800Y-91691750D02*
X148931800Y-90808250D01*
%TO.C,LED1*%
X148931800Y-84191750D02*
X148931800Y-83308250D01*
X148068200Y-83308250D02*
X148068200Y-84191750D01*
D13*
%TO.C,J6*%
X140170000Y-88710000D02*
X140170000Y-88830000D01*
X140170000Y-88830000D02*
X142830000Y-88830000D01*
X142830000Y-88710000D02*
X142830000Y-88830000D01*
X142830000Y-86170000D02*
X142830000Y-87500000D01*
X141500000Y-86170000D02*
X142830000Y-86170000D01*
%TO.C,R3*%
X160235000Y-87772936D02*
X160235000Y-88227064D01*
X158765000Y-87772936D02*
X158765000Y-88227064D01*
%TO.C,R1*%
X150935000Y-83522936D02*
X150935000Y-83977064D01*
X149465000Y-83522936D02*
X149465000Y-83977064D01*
%TO.C,R2*%
X151235000Y-91022936D02*
X151235000Y-91477064D01*
X149765000Y-91022936D02*
X149765000Y-91477064D01*
%TO.C,J1*%
X140170000Y-83710000D02*
X140170000Y-83830000D01*
X140170000Y-83830000D02*
X142830000Y-83830000D01*
X142830000Y-83710000D02*
X142830000Y-83830000D01*
X142830000Y-81170000D02*
X142830000Y-82500000D01*
X141500000Y-81170000D02*
X142830000Y-81170000D01*
%TO.C,J2*%
X140170000Y-93710000D02*
X140170000Y-93830000D01*
X140170000Y-93830000D02*
X142830000Y-93830000D01*
X142830000Y-93710000D02*
X142830000Y-93830000D01*
X142830000Y-91170000D02*
X142830000Y-92500000D01*
X141500000Y-91170000D02*
X142830000Y-91170000D01*
%TO.C,J3*%
X168500000Y-83670000D02*
X169830000Y-83670000D01*
X169830000Y-86270000D02*
X169830000Y-91410000D01*
X167170000Y-86270000D02*
X167170000Y-91410000D01*
X167170000Y-86270000D02*
X169830000Y-86270000D01*
X169830000Y-83670000D02*
X169830000Y-85000000D01*
X167170000Y-91410000D02*
X169830000Y-91410000D01*
D14*
%TO.C,D1*%
X150250000Y-82250000D02*
X150750000Y-82250000D01*
X150250000Y-84750000D02*
X150750000Y-84750000D01*
X150500000Y-82000000D02*
X150500000Y-82500000D01*
X153075000Y-81137500D02*
X153075000Y-81405000D01*
X153075000Y-85595000D02*
X153075000Y-85862500D01*
X153075000Y-85862500D02*
X156925000Y-85862500D01*
X156925000Y-81137500D02*
X153075000Y-81137500D01*
X156925000Y-81405000D02*
X156925000Y-81137500D01*
X156925000Y-85862500D02*
X156925000Y-85595000D01*
%TD*%
M02*
