%TF.GenerationSoftware,KiCad,Pcbnew,7.0.5*%
%TF.CreationDate,2024-03-05T22:02:39-06:00*%
%TF.ProjectId,GATE,47415445-2e6b-4696-9361-645f70636258,rev?*%
%TF.SameCoordinates,Original*%
%TF.FileFunction,Drillmap*%
%TF.FilePolarity,Positive*%
%FSLAX45Y45*%
G04 Gerber Fmt 4.5, Leading zero omitted, Abs format (unit mm)*
G04 Created by KiCad (PCBNEW 7.0.5) date 2024-03-05 22:02:39*
%MOMM*%
%LPD*%
G01*
G04 APERTURE LIST*
%ADD10C,0.100000*%
%ADD11C,0.200000*%
%ADD12C,0.040000*%
G04 APERTURE END LIST*
D10*
X14750000Y-8100000D02*
X15050000Y-8100000D01*
X15050000Y-8000000D01*
X17000000Y-8000000D01*
X17000000Y-9500000D01*
X15050000Y-9500000D01*
X15050000Y-9400000D01*
X14750000Y-9400000D01*
X14750000Y-9500000D01*
X14000000Y-9500000D01*
X14000000Y-8000000D01*
X14750000Y-8000000D01*
X14750000Y-8100000D01*
X15625000Y-8750000D02*
G75*
G03*
X15625000Y-8750000I-125000J0D01*
G01*
D11*
D12*
X15680000Y-8312000D02*
X15720000Y-8352000D01*
X15720000Y-8312000D02*
X15680000Y-8352000D01*
X15680000Y-8560000D02*
X15720000Y-8600000D01*
X15720000Y-8560000D02*
X15680000Y-8600000D01*
D10*
X14200000Y-8250000D02*
G75*
G03*
X14200000Y-8250000I-50000J0D01*
G01*
X14200000Y-8750000D02*
G75*
G03*
X14200000Y-8750000I-50000J0D01*
G01*
X14200000Y-9250000D02*
G75*
G03*
X14200000Y-9250000I-50000J0D01*
G01*
X16900000Y-8500000D02*
G75*
G03*
X16900000Y-8500000I-50000J0D01*
G01*
X16900000Y-8754000D02*
G75*
G03*
X16900000Y-8754000I-50000J0D01*
G01*
X16900000Y-9008000D02*
G75*
G03*
X16900000Y-9008000I-50000J0D01*
G01*
D11*
X14255777Y-9816484D02*
X14255777Y-9616484D01*
X14255777Y-9616484D02*
X14303396Y-9616484D01*
X14303396Y-9616484D02*
X14331967Y-9626008D01*
X14331967Y-9626008D02*
X14351015Y-9645055D01*
X14351015Y-9645055D02*
X14360539Y-9664103D01*
X14360539Y-9664103D02*
X14370062Y-9702198D01*
X14370062Y-9702198D02*
X14370062Y-9730770D01*
X14370062Y-9730770D02*
X14360539Y-9768865D01*
X14360539Y-9768865D02*
X14351015Y-9787912D01*
X14351015Y-9787912D02*
X14331967Y-9806960D01*
X14331967Y-9806960D02*
X14303396Y-9816484D01*
X14303396Y-9816484D02*
X14255777Y-9816484D01*
X14455777Y-9816484D02*
X14455777Y-9683150D01*
X14455777Y-9721246D02*
X14465301Y-9702198D01*
X14465301Y-9702198D02*
X14474824Y-9692674D01*
X14474824Y-9692674D02*
X14493872Y-9683150D01*
X14493872Y-9683150D02*
X14512920Y-9683150D01*
X14579586Y-9816484D02*
X14579586Y-9683150D01*
X14579586Y-9616484D02*
X14570062Y-9626008D01*
X14570062Y-9626008D02*
X14579586Y-9635531D01*
X14579586Y-9635531D02*
X14589110Y-9626008D01*
X14589110Y-9626008D02*
X14579586Y-9616484D01*
X14579586Y-9616484D02*
X14579586Y-9635531D01*
X14703396Y-9816484D02*
X14684348Y-9806960D01*
X14684348Y-9806960D02*
X14674824Y-9787912D01*
X14674824Y-9787912D02*
X14674824Y-9616484D01*
X14808158Y-9816484D02*
X14789110Y-9806960D01*
X14789110Y-9806960D02*
X14779586Y-9787912D01*
X14779586Y-9787912D02*
X14779586Y-9616484D01*
X15036729Y-9816484D02*
X15036729Y-9616484D01*
X15036729Y-9616484D02*
X15103396Y-9759341D01*
X15103396Y-9759341D02*
X15170062Y-9616484D01*
X15170062Y-9616484D02*
X15170062Y-9816484D01*
X15351015Y-9816484D02*
X15351015Y-9711722D01*
X15351015Y-9711722D02*
X15341491Y-9692674D01*
X15341491Y-9692674D02*
X15322443Y-9683150D01*
X15322443Y-9683150D02*
X15284348Y-9683150D01*
X15284348Y-9683150D02*
X15265301Y-9692674D01*
X15351015Y-9806960D02*
X15331967Y-9816484D01*
X15331967Y-9816484D02*
X15284348Y-9816484D01*
X15284348Y-9816484D02*
X15265301Y-9806960D01*
X15265301Y-9806960D02*
X15255777Y-9787912D01*
X15255777Y-9787912D02*
X15255777Y-9768865D01*
X15255777Y-9768865D02*
X15265301Y-9749817D01*
X15265301Y-9749817D02*
X15284348Y-9740293D01*
X15284348Y-9740293D02*
X15331967Y-9740293D01*
X15331967Y-9740293D02*
X15351015Y-9730770D01*
X15446253Y-9683150D02*
X15446253Y-9883150D01*
X15446253Y-9692674D02*
X15465301Y-9683150D01*
X15465301Y-9683150D02*
X15503396Y-9683150D01*
X15503396Y-9683150D02*
X15522443Y-9692674D01*
X15522443Y-9692674D02*
X15531967Y-9702198D01*
X15531967Y-9702198D02*
X15541491Y-9721246D01*
X15541491Y-9721246D02*
X15541491Y-9778389D01*
X15541491Y-9778389D02*
X15531967Y-9797436D01*
X15531967Y-9797436D02*
X15522443Y-9806960D01*
X15522443Y-9806960D02*
X15503396Y-9816484D01*
X15503396Y-9816484D02*
X15465301Y-9816484D01*
X15465301Y-9816484D02*
X15446253Y-9806960D01*
X15627205Y-9797436D02*
X15636729Y-9806960D01*
X15636729Y-9806960D02*
X15627205Y-9816484D01*
X15627205Y-9816484D02*
X15617682Y-9806960D01*
X15617682Y-9806960D02*
X15627205Y-9797436D01*
X15627205Y-9797436D02*
X15627205Y-9816484D01*
X15627205Y-9692674D02*
X15636729Y-9702198D01*
X15636729Y-9702198D02*
X15627205Y-9711722D01*
X15627205Y-9711722D02*
X15617682Y-9702198D01*
X15617682Y-9702198D02*
X15627205Y-9692674D01*
X15627205Y-9692674D02*
X15627205Y-9711722D01*
D12*
X13955000Y-10125000D02*
X13995000Y-10165000D01*
X13995000Y-10125000D02*
X13955000Y-10165000D01*
D11*
X14293872Y-10036484D02*
X14312920Y-10036484D01*
X14312920Y-10036484D02*
X14331967Y-10046008D01*
X14331967Y-10046008D02*
X14341491Y-10055531D01*
X14341491Y-10055531D02*
X14351015Y-10074579D01*
X14351015Y-10074579D02*
X14360539Y-10112674D01*
X14360539Y-10112674D02*
X14360539Y-10160293D01*
X14360539Y-10160293D02*
X14351015Y-10198389D01*
X14351015Y-10198389D02*
X14341491Y-10217436D01*
X14341491Y-10217436D02*
X14331967Y-10226960D01*
X14331967Y-10226960D02*
X14312920Y-10236484D01*
X14312920Y-10236484D02*
X14293872Y-10236484D01*
X14293872Y-10236484D02*
X14274824Y-10226960D01*
X14274824Y-10226960D02*
X14265301Y-10217436D01*
X14265301Y-10217436D02*
X14255777Y-10198389D01*
X14255777Y-10198389D02*
X14246253Y-10160293D01*
X14246253Y-10160293D02*
X14246253Y-10112674D01*
X14246253Y-10112674D02*
X14255777Y-10074579D01*
X14255777Y-10074579D02*
X14265301Y-10055531D01*
X14265301Y-10055531D02*
X14274824Y-10046008D01*
X14274824Y-10046008D02*
X14293872Y-10036484D01*
X14446253Y-10217436D02*
X14455777Y-10226960D01*
X14455777Y-10226960D02*
X14446253Y-10236484D01*
X14446253Y-10236484D02*
X14436729Y-10226960D01*
X14436729Y-10226960D02*
X14446253Y-10217436D01*
X14446253Y-10217436D02*
X14446253Y-10236484D01*
X14627205Y-10103150D02*
X14627205Y-10236484D01*
X14579586Y-10026960D02*
X14531967Y-10169817D01*
X14531967Y-10169817D02*
X14655777Y-10169817D01*
X14770062Y-10036484D02*
X14789110Y-10036484D01*
X14789110Y-10036484D02*
X14808158Y-10046008D01*
X14808158Y-10046008D02*
X14817682Y-10055531D01*
X14817682Y-10055531D02*
X14827205Y-10074579D01*
X14827205Y-10074579D02*
X14836729Y-10112674D01*
X14836729Y-10112674D02*
X14836729Y-10160293D01*
X14836729Y-10160293D02*
X14827205Y-10198389D01*
X14827205Y-10198389D02*
X14817682Y-10217436D01*
X14817682Y-10217436D02*
X14808158Y-10226960D01*
X14808158Y-10226960D02*
X14789110Y-10236484D01*
X14789110Y-10236484D02*
X14770062Y-10236484D01*
X14770062Y-10236484D02*
X14751015Y-10226960D01*
X14751015Y-10226960D02*
X14741491Y-10217436D01*
X14741491Y-10217436D02*
X14731967Y-10198389D01*
X14731967Y-10198389D02*
X14722443Y-10160293D01*
X14722443Y-10160293D02*
X14722443Y-10112674D01*
X14722443Y-10112674D02*
X14731967Y-10074579D01*
X14731967Y-10074579D02*
X14741491Y-10055531D01*
X14741491Y-10055531D02*
X14751015Y-10046008D01*
X14751015Y-10046008D02*
X14770062Y-10036484D01*
X14960539Y-10036484D02*
X14979586Y-10036484D01*
X14979586Y-10036484D02*
X14998634Y-10046008D01*
X14998634Y-10046008D02*
X15008158Y-10055531D01*
X15008158Y-10055531D02*
X15017682Y-10074579D01*
X15017682Y-10074579D02*
X15027205Y-10112674D01*
X15027205Y-10112674D02*
X15027205Y-10160293D01*
X15027205Y-10160293D02*
X15017682Y-10198389D01*
X15017682Y-10198389D02*
X15008158Y-10217436D01*
X15008158Y-10217436D02*
X14998634Y-10226960D01*
X14998634Y-10226960D02*
X14979586Y-10236484D01*
X14979586Y-10236484D02*
X14960539Y-10236484D01*
X14960539Y-10236484D02*
X14941491Y-10226960D01*
X14941491Y-10226960D02*
X14931967Y-10217436D01*
X14931967Y-10217436D02*
X14922443Y-10198389D01*
X14922443Y-10198389D02*
X14912920Y-10160293D01*
X14912920Y-10160293D02*
X14912920Y-10112674D01*
X14912920Y-10112674D02*
X14922443Y-10074579D01*
X14922443Y-10074579D02*
X14931967Y-10055531D01*
X14931967Y-10055531D02*
X14941491Y-10046008D01*
X14941491Y-10046008D02*
X14960539Y-10036484D01*
X15112920Y-10236484D02*
X15112920Y-10103150D01*
X15112920Y-10122198D02*
X15122443Y-10112674D01*
X15122443Y-10112674D02*
X15141491Y-10103150D01*
X15141491Y-10103150D02*
X15170063Y-10103150D01*
X15170063Y-10103150D02*
X15189110Y-10112674D01*
X15189110Y-10112674D02*
X15198634Y-10131722D01*
X15198634Y-10131722D02*
X15198634Y-10236484D01*
X15198634Y-10131722D02*
X15208158Y-10112674D01*
X15208158Y-10112674D02*
X15227205Y-10103150D01*
X15227205Y-10103150D02*
X15255777Y-10103150D01*
X15255777Y-10103150D02*
X15274824Y-10112674D01*
X15274824Y-10112674D02*
X15284348Y-10131722D01*
X15284348Y-10131722D02*
X15284348Y-10236484D01*
X15379586Y-10236484D02*
X15379586Y-10103150D01*
X15379586Y-10122198D02*
X15389110Y-10112674D01*
X15389110Y-10112674D02*
X15408158Y-10103150D01*
X15408158Y-10103150D02*
X15436729Y-10103150D01*
X15436729Y-10103150D02*
X15455777Y-10112674D01*
X15455777Y-10112674D02*
X15465301Y-10131722D01*
X15465301Y-10131722D02*
X15465301Y-10236484D01*
X15465301Y-10131722D02*
X15474824Y-10112674D01*
X15474824Y-10112674D02*
X15493872Y-10103150D01*
X15493872Y-10103150D02*
X15522443Y-10103150D01*
X15522443Y-10103150D02*
X15541491Y-10112674D01*
X15541491Y-10112674D02*
X15551015Y-10131722D01*
X15551015Y-10131722D02*
X15551015Y-10236484D01*
X15941491Y-10026960D02*
X15770063Y-10284103D01*
X16198634Y-10036484D02*
X16217682Y-10036484D01*
X16217682Y-10036484D02*
X16236729Y-10046008D01*
X16236729Y-10046008D02*
X16246253Y-10055531D01*
X16246253Y-10055531D02*
X16255777Y-10074579D01*
X16255777Y-10074579D02*
X16265301Y-10112674D01*
X16265301Y-10112674D02*
X16265301Y-10160293D01*
X16265301Y-10160293D02*
X16255777Y-10198389D01*
X16255777Y-10198389D02*
X16246253Y-10217436D01*
X16246253Y-10217436D02*
X16236729Y-10226960D01*
X16236729Y-10226960D02*
X16217682Y-10236484D01*
X16217682Y-10236484D02*
X16198634Y-10236484D01*
X16198634Y-10236484D02*
X16179586Y-10226960D01*
X16179586Y-10226960D02*
X16170063Y-10217436D01*
X16170063Y-10217436D02*
X16160539Y-10198389D01*
X16160539Y-10198389D02*
X16151015Y-10160293D01*
X16151015Y-10160293D02*
X16151015Y-10112674D01*
X16151015Y-10112674D02*
X16160539Y-10074579D01*
X16160539Y-10074579D02*
X16170063Y-10055531D01*
X16170063Y-10055531D02*
X16179586Y-10046008D01*
X16179586Y-10046008D02*
X16198634Y-10036484D01*
X16351015Y-10217436D02*
X16360539Y-10226960D01*
X16360539Y-10226960D02*
X16351015Y-10236484D01*
X16351015Y-10236484D02*
X16341491Y-10226960D01*
X16341491Y-10226960D02*
X16351015Y-10217436D01*
X16351015Y-10217436D02*
X16351015Y-10236484D01*
X16484348Y-10036484D02*
X16503396Y-10036484D01*
X16503396Y-10036484D02*
X16522444Y-10046008D01*
X16522444Y-10046008D02*
X16531967Y-10055531D01*
X16531967Y-10055531D02*
X16541491Y-10074579D01*
X16541491Y-10074579D02*
X16551015Y-10112674D01*
X16551015Y-10112674D02*
X16551015Y-10160293D01*
X16551015Y-10160293D02*
X16541491Y-10198389D01*
X16541491Y-10198389D02*
X16531967Y-10217436D01*
X16531967Y-10217436D02*
X16522444Y-10226960D01*
X16522444Y-10226960D02*
X16503396Y-10236484D01*
X16503396Y-10236484D02*
X16484348Y-10236484D01*
X16484348Y-10236484D02*
X16465301Y-10226960D01*
X16465301Y-10226960D02*
X16455777Y-10217436D01*
X16455777Y-10217436D02*
X16446253Y-10198389D01*
X16446253Y-10198389D02*
X16436729Y-10160293D01*
X16436729Y-10160293D02*
X16436729Y-10112674D01*
X16436729Y-10112674D02*
X16446253Y-10074579D01*
X16446253Y-10074579D02*
X16455777Y-10055531D01*
X16455777Y-10055531D02*
X16465301Y-10046008D01*
X16465301Y-10046008D02*
X16484348Y-10036484D01*
X16741491Y-10236484D02*
X16627206Y-10236484D01*
X16684348Y-10236484D02*
X16684348Y-10036484D01*
X16684348Y-10036484D02*
X16665301Y-10065055D01*
X16665301Y-10065055D02*
X16646253Y-10084103D01*
X16646253Y-10084103D02*
X16627206Y-10093627D01*
X16922444Y-10036484D02*
X16827206Y-10036484D01*
X16827206Y-10036484D02*
X16817682Y-10131722D01*
X16817682Y-10131722D02*
X16827206Y-10122198D01*
X16827206Y-10122198D02*
X16846253Y-10112674D01*
X16846253Y-10112674D02*
X16893872Y-10112674D01*
X16893872Y-10112674D02*
X16912920Y-10122198D01*
X16912920Y-10122198D02*
X16922444Y-10131722D01*
X16922444Y-10131722D02*
X16931968Y-10150770D01*
X16931968Y-10150770D02*
X16931968Y-10198389D01*
X16931968Y-10198389D02*
X16922444Y-10217436D01*
X16922444Y-10217436D02*
X16912920Y-10226960D01*
X16912920Y-10226960D02*
X16893872Y-10236484D01*
X16893872Y-10236484D02*
X16846253Y-10236484D01*
X16846253Y-10236484D02*
X16827206Y-10226960D01*
X16827206Y-10226960D02*
X16817682Y-10217436D01*
X16998634Y-10036484D02*
X17131968Y-10036484D01*
X17131968Y-10036484D02*
X17046253Y-10236484D01*
X17198634Y-10036484D02*
X17198634Y-10074579D01*
X17274825Y-10036484D02*
X17274825Y-10074579D01*
X17570063Y-10312674D02*
X17560539Y-10303150D01*
X17560539Y-10303150D02*
X17541491Y-10274579D01*
X17541491Y-10274579D02*
X17531968Y-10255531D01*
X17531968Y-10255531D02*
X17522444Y-10226960D01*
X17522444Y-10226960D02*
X17512920Y-10179341D01*
X17512920Y-10179341D02*
X17512920Y-10141246D01*
X17512920Y-10141246D02*
X17522444Y-10093627D01*
X17522444Y-10093627D02*
X17531968Y-10065055D01*
X17531968Y-10065055D02*
X17541491Y-10046008D01*
X17541491Y-10046008D02*
X17560539Y-10017436D01*
X17560539Y-10017436D02*
X17570063Y-10007912D01*
X17636730Y-10055531D02*
X17646253Y-10046008D01*
X17646253Y-10046008D02*
X17665301Y-10036484D01*
X17665301Y-10036484D02*
X17712920Y-10036484D01*
X17712920Y-10036484D02*
X17731968Y-10046008D01*
X17731968Y-10046008D02*
X17741491Y-10055531D01*
X17741491Y-10055531D02*
X17751015Y-10074579D01*
X17751015Y-10074579D02*
X17751015Y-10093627D01*
X17751015Y-10093627D02*
X17741491Y-10122198D01*
X17741491Y-10122198D02*
X17627206Y-10236484D01*
X17627206Y-10236484D02*
X17751015Y-10236484D01*
X17989111Y-10236484D02*
X17989111Y-10036484D01*
X18074825Y-10236484D02*
X18074825Y-10131722D01*
X18074825Y-10131722D02*
X18065301Y-10112674D01*
X18065301Y-10112674D02*
X18046253Y-10103150D01*
X18046253Y-10103150D02*
X18017682Y-10103150D01*
X18017682Y-10103150D02*
X17998634Y-10112674D01*
X17998634Y-10112674D02*
X17989111Y-10122198D01*
X18198634Y-10236484D02*
X18179587Y-10226960D01*
X18179587Y-10226960D02*
X18170063Y-10217436D01*
X18170063Y-10217436D02*
X18160539Y-10198389D01*
X18160539Y-10198389D02*
X18160539Y-10141246D01*
X18160539Y-10141246D02*
X18170063Y-10122198D01*
X18170063Y-10122198D02*
X18179587Y-10112674D01*
X18179587Y-10112674D02*
X18198634Y-10103150D01*
X18198634Y-10103150D02*
X18227206Y-10103150D01*
X18227206Y-10103150D02*
X18246253Y-10112674D01*
X18246253Y-10112674D02*
X18255777Y-10122198D01*
X18255777Y-10122198D02*
X18265301Y-10141246D01*
X18265301Y-10141246D02*
X18265301Y-10198389D01*
X18265301Y-10198389D02*
X18255777Y-10217436D01*
X18255777Y-10217436D02*
X18246253Y-10226960D01*
X18246253Y-10226960D02*
X18227206Y-10236484D01*
X18227206Y-10236484D02*
X18198634Y-10236484D01*
X18379587Y-10236484D02*
X18360539Y-10226960D01*
X18360539Y-10226960D02*
X18351015Y-10207912D01*
X18351015Y-10207912D02*
X18351015Y-10036484D01*
X18531968Y-10226960D02*
X18512920Y-10236484D01*
X18512920Y-10236484D02*
X18474825Y-10236484D01*
X18474825Y-10236484D02*
X18455777Y-10226960D01*
X18455777Y-10226960D02*
X18446253Y-10207912D01*
X18446253Y-10207912D02*
X18446253Y-10131722D01*
X18446253Y-10131722D02*
X18455777Y-10112674D01*
X18455777Y-10112674D02*
X18474825Y-10103150D01*
X18474825Y-10103150D02*
X18512920Y-10103150D01*
X18512920Y-10103150D02*
X18531968Y-10112674D01*
X18531968Y-10112674D02*
X18541492Y-10131722D01*
X18541492Y-10131722D02*
X18541492Y-10150770D01*
X18541492Y-10150770D02*
X18446253Y-10169817D01*
X18617682Y-10226960D02*
X18636730Y-10236484D01*
X18636730Y-10236484D02*
X18674825Y-10236484D01*
X18674825Y-10236484D02*
X18693873Y-10226960D01*
X18693873Y-10226960D02*
X18703396Y-10207912D01*
X18703396Y-10207912D02*
X18703396Y-10198389D01*
X18703396Y-10198389D02*
X18693873Y-10179341D01*
X18693873Y-10179341D02*
X18674825Y-10169817D01*
X18674825Y-10169817D02*
X18646253Y-10169817D01*
X18646253Y-10169817D02*
X18627206Y-10160293D01*
X18627206Y-10160293D02*
X18617682Y-10141246D01*
X18617682Y-10141246D02*
X18617682Y-10131722D01*
X18617682Y-10131722D02*
X18627206Y-10112674D01*
X18627206Y-10112674D02*
X18646253Y-10103150D01*
X18646253Y-10103150D02*
X18674825Y-10103150D01*
X18674825Y-10103150D02*
X18693873Y-10112674D01*
X18770063Y-10312674D02*
X18779587Y-10303150D01*
X18779587Y-10303150D02*
X18798634Y-10274579D01*
X18798634Y-10274579D02*
X18808158Y-10255531D01*
X18808158Y-10255531D02*
X18817682Y-10226960D01*
X18817682Y-10226960D02*
X18827206Y-10179341D01*
X18827206Y-10179341D02*
X18827206Y-10141246D01*
X18827206Y-10141246D02*
X18817682Y-10093627D01*
X18817682Y-10093627D02*
X18808158Y-10065055D01*
X18808158Y-10065055D02*
X18798634Y-10046008D01*
X18798634Y-10046008D02*
X18779587Y-10017436D01*
X18779587Y-10017436D02*
X18770063Y-10007912D01*
D10*
X13995000Y-10409000D02*
G75*
G03*
X13995000Y-10409000I-50000J0D01*
G01*
D11*
X14360539Y-10500484D02*
X14246253Y-10500484D01*
X14303396Y-10500484D02*
X14303396Y-10300484D01*
X14303396Y-10300484D02*
X14284348Y-10329055D01*
X14284348Y-10329055D02*
X14265301Y-10348103D01*
X14265301Y-10348103D02*
X14246253Y-10357627D01*
X14446253Y-10481436D02*
X14455777Y-10490960D01*
X14455777Y-10490960D02*
X14446253Y-10500484D01*
X14446253Y-10500484D02*
X14436729Y-10490960D01*
X14436729Y-10490960D02*
X14446253Y-10481436D01*
X14446253Y-10481436D02*
X14446253Y-10500484D01*
X14579586Y-10300484D02*
X14598634Y-10300484D01*
X14598634Y-10300484D02*
X14617682Y-10310008D01*
X14617682Y-10310008D02*
X14627205Y-10319531D01*
X14627205Y-10319531D02*
X14636729Y-10338579D01*
X14636729Y-10338579D02*
X14646253Y-10376674D01*
X14646253Y-10376674D02*
X14646253Y-10424293D01*
X14646253Y-10424293D02*
X14636729Y-10462389D01*
X14636729Y-10462389D02*
X14627205Y-10481436D01*
X14627205Y-10481436D02*
X14617682Y-10490960D01*
X14617682Y-10490960D02*
X14598634Y-10500484D01*
X14598634Y-10500484D02*
X14579586Y-10500484D01*
X14579586Y-10500484D02*
X14560539Y-10490960D01*
X14560539Y-10490960D02*
X14551015Y-10481436D01*
X14551015Y-10481436D02*
X14541491Y-10462389D01*
X14541491Y-10462389D02*
X14531967Y-10424293D01*
X14531967Y-10424293D02*
X14531967Y-10376674D01*
X14531967Y-10376674D02*
X14541491Y-10338579D01*
X14541491Y-10338579D02*
X14551015Y-10319531D01*
X14551015Y-10319531D02*
X14560539Y-10310008D01*
X14560539Y-10310008D02*
X14579586Y-10300484D01*
X14770062Y-10300484D02*
X14789110Y-10300484D01*
X14789110Y-10300484D02*
X14808158Y-10310008D01*
X14808158Y-10310008D02*
X14817682Y-10319531D01*
X14817682Y-10319531D02*
X14827205Y-10338579D01*
X14827205Y-10338579D02*
X14836729Y-10376674D01*
X14836729Y-10376674D02*
X14836729Y-10424293D01*
X14836729Y-10424293D02*
X14827205Y-10462389D01*
X14827205Y-10462389D02*
X14817682Y-10481436D01*
X14817682Y-10481436D02*
X14808158Y-10490960D01*
X14808158Y-10490960D02*
X14789110Y-10500484D01*
X14789110Y-10500484D02*
X14770062Y-10500484D01*
X14770062Y-10500484D02*
X14751015Y-10490960D01*
X14751015Y-10490960D02*
X14741491Y-10481436D01*
X14741491Y-10481436D02*
X14731967Y-10462389D01*
X14731967Y-10462389D02*
X14722443Y-10424293D01*
X14722443Y-10424293D02*
X14722443Y-10376674D01*
X14722443Y-10376674D02*
X14731967Y-10338579D01*
X14731967Y-10338579D02*
X14741491Y-10319531D01*
X14741491Y-10319531D02*
X14751015Y-10310008D01*
X14751015Y-10310008D02*
X14770062Y-10300484D01*
X14960539Y-10300484D02*
X14979586Y-10300484D01*
X14979586Y-10300484D02*
X14998634Y-10310008D01*
X14998634Y-10310008D02*
X15008158Y-10319531D01*
X15008158Y-10319531D02*
X15017682Y-10338579D01*
X15017682Y-10338579D02*
X15027205Y-10376674D01*
X15027205Y-10376674D02*
X15027205Y-10424293D01*
X15027205Y-10424293D02*
X15017682Y-10462389D01*
X15017682Y-10462389D02*
X15008158Y-10481436D01*
X15008158Y-10481436D02*
X14998634Y-10490960D01*
X14998634Y-10490960D02*
X14979586Y-10500484D01*
X14979586Y-10500484D02*
X14960539Y-10500484D01*
X14960539Y-10500484D02*
X14941491Y-10490960D01*
X14941491Y-10490960D02*
X14931967Y-10481436D01*
X14931967Y-10481436D02*
X14922443Y-10462389D01*
X14922443Y-10462389D02*
X14912920Y-10424293D01*
X14912920Y-10424293D02*
X14912920Y-10376674D01*
X14912920Y-10376674D02*
X14922443Y-10338579D01*
X14922443Y-10338579D02*
X14931967Y-10319531D01*
X14931967Y-10319531D02*
X14941491Y-10310008D01*
X14941491Y-10310008D02*
X14960539Y-10300484D01*
X15112920Y-10500484D02*
X15112920Y-10367150D01*
X15112920Y-10386198D02*
X15122443Y-10376674D01*
X15122443Y-10376674D02*
X15141491Y-10367150D01*
X15141491Y-10367150D02*
X15170063Y-10367150D01*
X15170063Y-10367150D02*
X15189110Y-10376674D01*
X15189110Y-10376674D02*
X15198634Y-10395722D01*
X15198634Y-10395722D02*
X15198634Y-10500484D01*
X15198634Y-10395722D02*
X15208158Y-10376674D01*
X15208158Y-10376674D02*
X15227205Y-10367150D01*
X15227205Y-10367150D02*
X15255777Y-10367150D01*
X15255777Y-10367150D02*
X15274824Y-10376674D01*
X15274824Y-10376674D02*
X15284348Y-10395722D01*
X15284348Y-10395722D02*
X15284348Y-10500484D01*
X15379586Y-10500484D02*
X15379586Y-10367150D01*
X15379586Y-10386198D02*
X15389110Y-10376674D01*
X15389110Y-10376674D02*
X15408158Y-10367150D01*
X15408158Y-10367150D02*
X15436729Y-10367150D01*
X15436729Y-10367150D02*
X15455777Y-10376674D01*
X15455777Y-10376674D02*
X15465301Y-10395722D01*
X15465301Y-10395722D02*
X15465301Y-10500484D01*
X15465301Y-10395722D02*
X15474824Y-10376674D01*
X15474824Y-10376674D02*
X15493872Y-10367150D01*
X15493872Y-10367150D02*
X15522443Y-10367150D01*
X15522443Y-10367150D02*
X15541491Y-10376674D01*
X15541491Y-10376674D02*
X15551015Y-10395722D01*
X15551015Y-10395722D02*
X15551015Y-10500484D01*
X15941491Y-10290960D02*
X15770063Y-10548103D01*
X16198634Y-10300484D02*
X16217682Y-10300484D01*
X16217682Y-10300484D02*
X16236729Y-10310008D01*
X16236729Y-10310008D02*
X16246253Y-10319531D01*
X16246253Y-10319531D02*
X16255777Y-10338579D01*
X16255777Y-10338579D02*
X16265301Y-10376674D01*
X16265301Y-10376674D02*
X16265301Y-10424293D01*
X16265301Y-10424293D02*
X16255777Y-10462389D01*
X16255777Y-10462389D02*
X16246253Y-10481436D01*
X16246253Y-10481436D02*
X16236729Y-10490960D01*
X16236729Y-10490960D02*
X16217682Y-10500484D01*
X16217682Y-10500484D02*
X16198634Y-10500484D01*
X16198634Y-10500484D02*
X16179586Y-10490960D01*
X16179586Y-10490960D02*
X16170063Y-10481436D01*
X16170063Y-10481436D02*
X16160539Y-10462389D01*
X16160539Y-10462389D02*
X16151015Y-10424293D01*
X16151015Y-10424293D02*
X16151015Y-10376674D01*
X16151015Y-10376674D02*
X16160539Y-10338579D01*
X16160539Y-10338579D02*
X16170063Y-10319531D01*
X16170063Y-10319531D02*
X16179586Y-10310008D01*
X16179586Y-10310008D02*
X16198634Y-10300484D01*
X16351015Y-10481436D02*
X16360539Y-10490960D01*
X16360539Y-10490960D02*
X16351015Y-10500484D01*
X16351015Y-10500484D02*
X16341491Y-10490960D01*
X16341491Y-10490960D02*
X16351015Y-10481436D01*
X16351015Y-10481436D02*
X16351015Y-10500484D01*
X16484348Y-10300484D02*
X16503396Y-10300484D01*
X16503396Y-10300484D02*
X16522444Y-10310008D01*
X16522444Y-10310008D02*
X16531967Y-10319531D01*
X16531967Y-10319531D02*
X16541491Y-10338579D01*
X16541491Y-10338579D02*
X16551015Y-10376674D01*
X16551015Y-10376674D02*
X16551015Y-10424293D01*
X16551015Y-10424293D02*
X16541491Y-10462389D01*
X16541491Y-10462389D02*
X16531967Y-10481436D01*
X16531967Y-10481436D02*
X16522444Y-10490960D01*
X16522444Y-10490960D02*
X16503396Y-10500484D01*
X16503396Y-10500484D02*
X16484348Y-10500484D01*
X16484348Y-10500484D02*
X16465301Y-10490960D01*
X16465301Y-10490960D02*
X16455777Y-10481436D01*
X16455777Y-10481436D02*
X16446253Y-10462389D01*
X16446253Y-10462389D02*
X16436729Y-10424293D01*
X16436729Y-10424293D02*
X16436729Y-10376674D01*
X16436729Y-10376674D02*
X16446253Y-10338579D01*
X16446253Y-10338579D02*
X16455777Y-10319531D01*
X16455777Y-10319531D02*
X16465301Y-10310008D01*
X16465301Y-10310008D02*
X16484348Y-10300484D01*
X16617682Y-10300484D02*
X16741491Y-10300484D01*
X16741491Y-10300484D02*
X16674825Y-10376674D01*
X16674825Y-10376674D02*
X16703396Y-10376674D01*
X16703396Y-10376674D02*
X16722444Y-10386198D01*
X16722444Y-10386198D02*
X16731967Y-10395722D01*
X16731967Y-10395722D02*
X16741491Y-10414770D01*
X16741491Y-10414770D02*
X16741491Y-10462389D01*
X16741491Y-10462389D02*
X16731967Y-10481436D01*
X16731967Y-10481436D02*
X16722444Y-10490960D01*
X16722444Y-10490960D02*
X16703396Y-10500484D01*
X16703396Y-10500484D02*
X16646253Y-10500484D01*
X16646253Y-10500484D02*
X16627206Y-10490960D01*
X16627206Y-10490960D02*
X16617682Y-10481436D01*
X16836729Y-10500484D02*
X16874825Y-10500484D01*
X16874825Y-10500484D02*
X16893872Y-10490960D01*
X16893872Y-10490960D02*
X16903396Y-10481436D01*
X16903396Y-10481436D02*
X16922444Y-10452865D01*
X16922444Y-10452865D02*
X16931968Y-10414770D01*
X16931968Y-10414770D02*
X16931968Y-10338579D01*
X16931968Y-10338579D02*
X16922444Y-10319531D01*
X16922444Y-10319531D02*
X16912920Y-10310008D01*
X16912920Y-10310008D02*
X16893872Y-10300484D01*
X16893872Y-10300484D02*
X16855777Y-10300484D01*
X16855777Y-10300484D02*
X16836729Y-10310008D01*
X16836729Y-10310008D02*
X16827206Y-10319531D01*
X16827206Y-10319531D02*
X16817682Y-10338579D01*
X16817682Y-10338579D02*
X16817682Y-10386198D01*
X16817682Y-10386198D02*
X16827206Y-10405246D01*
X16827206Y-10405246D02*
X16836729Y-10414770D01*
X16836729Y-10414770D02*
X16855777Y-10424293D01*
X16855777Y-10424293D02*
X16893872Y-10424293D01*
X16893872Y-10424293D02*
X16912920Y-10414770D01*
X16912920Y-10414770D02*
X16922444Y-10405246D01*
X16922444Y-10405246D02*
X16931968Y-10386198D01*
X17103396Y-10367150D02*
X17103396Y-10500484D01*
X17055777Y-10290960D02*
X17008158Y-10433817D01*
X17008158Y-10433817D02*
X17131968Y-10433817D01*
X17198634Y-10300484D02*
X17198634Y-10338579D01*
X17274825Y-10300484D02*
X17274825Y-10338579D01*
X17570063Y-10576674D02*
X17560539Y-10567150D01*
X17560539Y-10567150D02*
X17541491Y-10538579D01*
X17541491Y-10538579D02*
X17531968Y-10519531D01*
X17531968Y-10519531D02*
X17522444Y-10490960D01*
X17522444Y-10490960D02*
X17512920Y-10443341D01*
X17512920Y-10443341D02*
X17512920Y-10405246D01*
X17512920Y-10405246D02*
X17522444Y-10357627D01*
X17522444Y-10357627D02*
X17531968Y-10329055D01*
X17531968Y-10329055D02*
X17541491Y-10310008D01*
X17541491Y-10310008D02*
X17560539Y-10281436D01*
X17560539Y-10281436D02*
X17570063Y-10271912D01*
X17731968Y-10300484D02*
X17693872Y-10300484D01*
X17693872Y-10300484D02*
X17674825Y-10310008D01*
X17674825Y-10310008D02*
X17665301Y-10319531D01*
X17665301Y-10319531D02*
X17646253Y-10348103D01*
X17646253Y-10348103D02*
X17636730Y-10386198D01*
X17636730Y-10386198D02*
X17636730Y-10462389D01*
X17636730Y-10462389D02*
X17646253Y-10481436D01*
X17646253Y-10481436D02*
X17655777Y-10490960D01*
X17655777Y-10490960D02*
X17674825Y-10500484D01*
X17674825Y-10500484D02*
X17712920Y-10500484D01*
X17712920Y-10500484D02*
X17731968Y-10490960D01*
X17731968Y-10490960D02*
X17741491Y-10481436D01*
X17741491Y-10481436D02*
X17751015Y-10462389D01*
X17751015Y-10462389D02*
X17751015Y-10414770D01*
X17751015Y-10414770D02*
X17741491Y-10395722D01*
X17741491Y-10395722D02*
X17731968Y-10386198D01*
X17731968Y-10386198D02*
X17712920Y-10376674D01*
X17712920Y-10376674D02*
X17674825Y-10376674D01*
X17674825Y-10376674D02*
X17655777Y-10386198D01*
X17655777Y-10386198D02*
X17646253Y-10395722D01*
X17646253Y-10395722D02*
X17636730Y-10414770D01*
X17989111Y-10500484D02*
X17989111Y-10300484D01*
X18074825Y-10500484D02*
X18074825Y-10395722D01*
X18074825Y-10395722D02*
X18065301Y-10376674D01*
X18065301Y-10376674D02*
X18046253Y-10367150D01*
X18046253Y-10367150D02*
X18017682Y-10367150D01*
X18017682Y-10367150D02*
X17998634Y-10376674D01*
X17998634Y-10376674D02*
X17989111Y-10386198D01*
X18198634Y-10500484D02*
X18179587Y-10490960D01*
X18179587Y-10490960D02*
X18170063Y-10481436D01*
X18170063Y-10481436D02*
X18160539Y-10462389D01*
X18160539Y-10462389D02*
X18160539Y-10405246D01*
X18160539Y-10405246D02*
X18170063Y-10386198D01*
X18170063Y-10386198D02*
X18179587Y-10376674D01*
X18179587Y-10376674D02*
X18198634Y-10367150D01*
X18198634Y-10367150D02*
X18227206Y-10367150D01*
X18227206Y-10367150D02*
X18246253Y-10376674D01*
X18246253Y-10376674D02*
X18255777Y-10386198D01*
X18255777Y-10386198D02*
X18265301Y-10405246D01*
X18265301Y-10405246D02*
X18265301Y-10462389D01*
X18265301Y-10462389D02*
X18255777Y-10481436D01*
X18255777Y-10481436D02*
X18246253Y-10490960D01*
X18246253Y-10490960D02*
X18227206Y-10500484D01*
X18227206Y-10500484D02*
X18198634Y-10500484D01*
X18379587Y-10500484D02*
X18360539Y-10490960D01*
X18360539Y-10490960D02*
X18351015Y-10471912D01*
X18351015Y-10471912D02*
X18351015Y-10300484D01*
X18531968Y-10490960D02*
X18512920Y-10500484D01*
X18512920Y-10500484D02*
X18474825Y-10500484D01*
X18474825Y-10500484D02*
X18455777Y-10490960D01*
X18455777Y-10490960D02*
X18446253Y-10471912D01*
X18446253Y-10471912D02*
X18446253Y-10395722D01*
X18446253Y-10395722D02*
X18455777Y-10376674D01*
X18455777Y-10376674D02*
X18474825Y-10367150D01*
X18474825Y-10367150D02*
X18512920Y-10367150D01*
X18512920Y-10367150D02*
X18531968Y-10376674D01*
X18531968Y-10376674D02*
X18541492Y-10395722D01*
X18541492Y-10395722D02*
X18541492Y-10414770D01*
X18541492Y-10414770D02*
X18446253Y-10433817D01*
X18617682Y-10490960D02*
X18636730Y-10500484D01*
X18636730Y-10500484D02*
X18674825Y-10500484D01*
X18674825Y-10500484D02*
X18693873Y-10490960D01*
X18693873Y-10490960D02*
X18703396Y-10471912D01*
X18703396Y-10471912D02*
X18703396Y-10462389D01*
X18703396Y-10462389D02*
X18693873Y-10443341D01*
X18693873Y-10443341D02*
X18674825Y-10433817D01*
X18674825Y-10433817D02*
X18646253Y-10433817D01*
X18646253Y-10433817D02*
X18627206Y-10424293D01*
X18627206Y-10424293D02*
X18617682Y-10405246D01*
X18617682Y-10405246D02*
X18617682Y-10395722D01*
X18617682Y-10395722D02*
X18627206Y-10376674D01*
X18627206Y-10376674D02*
X18646253Y-10367150D01*
X18646253Y-10367150D02*
X18674825Y-10367150D01*
X18674825Y-10367150D02*
X18693873Y-10376674D01*
X18770063Y-10576674D02*
X18779587Y-10567150D01*
X18779587Y-10567150D02*
X18798634Y-10538579D01*
X18798634Y-10538579D02*
X18808158Y-10519531D01*
X18808158Y-10519531D02*
X18817682Y-10490960D01*
X18817682Y-10490960D02*
X18827206Y-10443341D01*
X18827206Y-10443341D02*
X18827206Y-10405246D01*
X18827206Y-10405246D02*
X18817682Y-10357627D01*
X18817682Y-10357627D02*
X18808158Y-10329055D01*
X18808158Y-10329055D02*
X18798634Y-10310008D01*
X18798634Y-10310008D02*
X18779587Y-10281436D01*
X18779587Y-10281436D02*
X18770063Y-10271912D01*
M02*
