%TF.GenerationSoftware,KiCad,Pcbnew,7.0.9*%
%TF.CreationDate,2024-03-13T00:38:59-05:00*%
%TF.ProjectId,DISPLAY,44495350-4c41-4592-9e6b-696361645f70,rev?*%
%TF.SameCoordinates,Original*%
%TF.FileFunction,Paste,Top*%
%TF.FilePolarity,Positive*%
%FSLAX46Y46*%
G04 Gerber Fmt 4.6, Leading zero omitted, Abs format (unit mm)*
G04 Created by KiCad (PCBNEW 7.0.9) date 2024-03-13 00:38:59*
%MOMM*%
%LPD*%
G01*
G04 APERTURE LIST*
G04 Aperture macros list*
%AMRoundRect*
0 Rectangle with rounded corners*
0 $1 Rounding radius*
0 $2 $3 $4 $5 $6 $7 $8 $9 X,Y pos of 4 corners*
0 Add a 4 corners polygon primitive as box body*
4,1,4,$2,$3,$4,$5,$6,$7,$8,$9,$2,$3,0*
0 Add four circle primitives for the rounded corners*
1,1,$1+$1,$2,$3*
1,1,$1+$1,$4,$5*
1,1,$1+$1,$6,$7*
1,1,$1+$1,$8,$9*
0 Add four rect primitives between the rounded corners*
20,1,$1+$1,$2,$3,$4,$5,0*
20,1,$1+$1,$4,$5,$6,$7,0*
20,1,$1+$1,$6,$7,$8,$9,0*
20,1,$1+$1,$8,$9,$2,$3,0*%
G04 Aperture macros list end*
%ADD10RoundRect,0.250000X0.350000X0.450000X-0.350000X0.450000X-0.350000X-0.450000X0.350000X-0.450000X0*%
%ADD11RoundRect,0.250000X0.450000X-0.350000X0.450000X0.350000X-0.450000X0.350000X-0.450000X-0.350000X0*%
%ADD12R,1.050000X1.875000*%
%ADD13R,0.550000X1.600000*%
%ADD14R,1.600000X0.550000*%
G04 APERTURE END LIST*
D10*
%TO.C,R2*%
X155500000Y-84100000D03*
X153500000Y-84100000D03*
%TD*%
D11*
%TO.C,R1*%
X164000000Y-85820000D03*
X164000000Y-83820000D03*
%TD*%
D12*
%TO.C,D1*%
X161250000Y-84837500D03*
X161250000Y-90162500D03*
X158750000Y-84837500D03*
X158750000Y-90162500D03*
%TD*%
D13*
%TO.C,U1*%
X143200000Y-91750000D03*
X144000000Y-91750000D03*
X144800000Y-91750000D03*
X145600000Y-91750000D03*
X146400000Y-91750000D03*
X147200000Y-91750000D03*
X148000000Y-91750000D03*
X148800000Y-91750000D03*
D14*
X150250000Y-90300000D03*
X150250000Y-89500000D03*
X150250000Y-88700000D03*
X150250000Y-87900000D03*
X150250000Y-87100000D03*
X150250000Y-86300000D03*
X150250000Y-85500000D03*
X150250000Y-84700000D03*
D13*
X148800000Y-83250000D03*
X148000000Y-83250000D03*
X147200000Y-83250000D03*
X146400000Y-83250000D03*
X145600000Y-83250000D03*
X144800000Y-83250000D03*
X144000000Y-83250000D03*
X143200000Y-83250000D03*
D14*
X141750000Y-84700000D03*
X141750000Y-85500000D03*
X141750000Y-86300000D03*
X141750000Y-87100000D03*
X141750000Y-87900000D03*
X141750000Y-88700000D03*
X141750000Y-89500000D03*
X141750000Y-90300000D03*
%TD*%
M02*
