%TF.GenerationSoftware,KiCad,Pcbnew,7.0.9*%
%TF.CreationDate,2024-03-13T00:38:59-05:00*%
%TF.ProjectId,DISPLAY,44495350-4c41-4592-9e6b-696361645f70,rev?*%
%TF.SameCoordinates,Original*%
%TF.FileFunction,Copper,L1,Top*%
%TF.FilePolarity,Positive*%
%FSLAX46Y46*%
G04 Gerber Fmt 4.6, Leading zero omitted, Abs format (unit mm)*
G04 Created by KiCad (PCBNEW 7.0.9) date 2024-03-13 00:38:59*
%MOMM*%
%LPD*%
G01*
G04 APERTURE LIST*
G04 Aperture macros list*
%AMRoundRect*
0 Rectangle with rounded corners*
0 $1 Rounding radius*
0 $2 $3 $4 $5 $6 $7 $8 $9 X,Y pos of 4 corners*
0 Add a 4 corners polygon primitive as box body*
4,1,4,$2,$3,$4,$5,$6,$7,$8,$9,$2,$3,0*
0 Add four circle primitives for the rounded corners*
1,1,$1+$1,$2,$3*
1,1,$1+$1,$4,$5*
1,1,$1+$1,$6,$7*
1,1,$1+$1,$8,$9*
0 Add four rect primitives between the rounded corners*
20,1,$1+$1,$2,$3,$4,$5,0*
20,1,$1+$1,$4,$5,$6,$7,0*
20,1,$1+$1,$6,$7,$8,$9,0*
20,1,$1+$1,$8,$9,$2,$3,0*%
G04 Aperture macros list end*
%TA.AperFunction,ConnectorPad*%
%ADD10R,4.000000X0.560000*%
%TD*%
%TA.AperFunction,ComponentPad*%
%ADD11R,1.700000X1.700000*%
%TD*%
%TA.AperFunction,ComponentPad*%
%ADD12C,1.620000*%
%TD*%
%TA.AperFunction,ComponentPad*%
%ADD13R,1.620000X1.620000*%
%TD*%
%TA.AperFunction,SMDPad,CuDef*%
%ADD14RoundRect,0.250000X0.350000X0.450000X-0.350000X0.450000X-0.350000X-0.450000X0.350000X-0.450000X0*%
%TD*%
%TA.AperFunction,SMDPad,CuDef*%
%ADD15RoundRect,0.250000X0.450000X-0.350000X0.450000X0.350000X-0.450000X0.350000X-0.450000X-0.350000X0*%
%TD*%
%TA.AperFunction,SMDPad,CuDef*%
%ADD16R,1.050000X1.875000*%
%TD*%
%TA.AperFunction,SMDPad,CuDef*%
%ADD17R,0.550000X1.600000*%
%TD*%
%TA.AperFunction,SMDPad,CuDef*%
%ADD18R,1.600000X0.550000*%
%TD*%
%TA.AperFunction,ViaPad*%
%ADD19C,0.800000*%
%TD*%
%TA.AperFunction,Conductor*%
%ADD20C,0.250000*%
%TD*%
G04 APERTURE END LIST*
D10*
%TO.P,J11,9,Pin_9*%
%TO.N,RST*%
X168000000Y-82410000D03*
%TO.P,J11,7,Pin_7*%
%TO.N,DIGIT1*%
X168000000Y-84950000D03*
%TO.P,J11,5,Pin_5*%
%TO.N,DIGIT0*%
X168000000Y-87490000D03*
%TO.P,J11,3,Pin_3*%
%TO.N,MOSI*%
X168000000Y-90030000D03*
%TO.P,J11,1,Pin_1*%
%TO.N,PW2*%
X168000000Y-92570000D03*
%TD*%
D11*
%TO.P,J6,1,Pin_1*%
%TO.N,Input3*%
X150000000Y-81000000D03*
%TD*%
D12*
%TO.P,D2,10*%
%TO.N,SEG5*%
X154420000Y-82420000D03*
%TO.P,D2,9*%
%TO.N,Net-(D2-Pad9)*%
X156960000Y-82420000D03*
%TO.P,D2,8*%
%TO.N,MOSI*%
X159500000Y-82420000D03*
%TO.P,D2,7*%
%TO.N,RST*%
X162040000Y-82420000D03*
%TO.P,D2,6*%
%TO.N,Net-(D2-Pad6)*%
X164580000Y-82420000D03*
%TO.P,D2,5*%
%TO.N,SEG7*%
X164580000Y-92580000D03*
%TO.P,D2,4*%
%TO.N,SEG6*%
X162040000Y-92580000D03*
%TO.P,D2,3*%
%TO.N,SEG2*%
X159500000Y-92580000D03*
%TO.P,D2,2*%
%TO.N,SEG3*%
X156960000Y-92580000D03*
D13*
%TO.P,D2,1*%
%TO.N,SEG4*%
X154420000Y-92580000D03*
%TD*%
D14*
%TO.P,R2,1*%
%TO.N,Net-(D2-Pad9)*%
X155500000Y-84100000D03*
%TO.P,R2,2*%
%TO.N,DIGIT1*%
X153500000Y-84100000D03*
%TD*%
D15*
%TO.P,R1,1*%
%TO.N,DIGIT0*%
X164000000Y-85820000D03*
%TO.P,R1,2*%
%TO.N,Net-(D2-Pad6)*%
X164000000Y-83820000D03*
%TD*%
D11*
%TO.P,J7,1,Pin_1*%
%TO.N,Input4*%
X141000000Y-94000000D03*
%TD*%
%TO.P,J8,1,Pin_1*%
%TO.N,Input5*%
X144000000Y-94000000D03*
%TD*%
%TO.P,J1,1,Pin_1*%
%TO.N,Input0*%
X141000000Y-81000000D03*
%TD*%
%TO.P,J9,1,Pin_1*%
%TO.N,Input6*%
X147000000Y-94000000D03*
%TD*%
D16*
%TO.P,D1,1*%
%TO.N,VCC*%
X161250000Y-84837500D03*
%TO.P,D1,2*%
%TO.N,PW1*%
X161250000Y-90162500D03*
%TO.P,D1,3*%
%TO.N,GND*%
X158750000Y-84837500D03*
%TO.P,D1,4*%
%TO.N,PW2*%
X158750000Y-90162500D03*
%TD*%
D17*
%TO.P,U1,1,PD3*%
%TO.N,Input4*%
X143200000Y-91750000D03*
%TO.P,U1,2,PD4*%
%TO.N,Input5*%
X144000000Y-91750000D03*
%TO.P,U1,3,PE0*%
%TO.N,unconnected-(U1-PE0-Pad3)*%
X144800000Y-91750000D03*
%TO.P,U1,4,VCC*%
%TO.N,VCC*%
X145600000Y-91750000D03*
%TO.P,U1,5,GND*%
%TO.N,GND*%
X146400000Y-91750000D03*
%TO.P,U1,6,PE1*%
%TO.N,Input6*%
X147200000Y-91750000D03*
%TO.P,U1,7,XTAL1/PB6*%
%TO.N,Input7*%
X148000000Y-91750000D03*
%TO.P,U1,8,XTAL2/PB7*%
%TO.N,SEG7*%
X148800000Y-91750000D03*
D18*
%TO.P,U1,9,PD5*%
%TO.N,SEG4*%
X150250000Y-90300000D03*
%TO.P,U1,10,PD6*%
%TO.N,SEG3*%
X150250000Y-89500000D03*
%TO.P,U1,11,PD7*%
%TO.N,SEG2*%
X150250000Y-88700000D03*
%TO.P,U1,12,PB0*%
%TO.N,SEG6*%
X150250000Y-87900000D03*
%TO.P,U1,13,PB1*%
%TO.N,unconnected-(U1-PB1-Pad13)*%
X150250000Y-87100000D03*
%TO.P,U1,14,PB2*%
%TO.N,SEG5*%
X150250000Y-86300000D03*
%TO.P,U1,15,PB3*%
%TO.N,MOSI*%
X150250000Y-85500000D03*
%TO.P,U1,16,PB4*%
%TO.N,DIGIT0*%
X150250000Y-84700000D03*
D17*
%TO.P,U1,17,PB5*%
%TO.N,DIGIT1*%
X148800000Y-83250000D03*
%TO.P,U1,18,AVCC*%
%TO.N,unconnected-(U1-AVCC-Pad18)*%
X148000000Y-83250000D03*
%TO.P,U1,19,PE2*%
%TO.N,Input2*%
X147200000Y-83250000D03*
%TO.P,U1,20,AREF*%
%TO.N,unconnected-(U1-AREF-Pad20)*%
X146400000Y-83250000D03*
%TO.P,U1,21,GND*%
%TO.N,GND*%
X145600000Y-83250000D03*
%TO.P,U1,22,PE3*%
%TO.N,Input3*%
X144800000Y-83250000D03*
%TO.P,U1,23,PC0*%
%TO.N,Input1*%
X144000000Y-83250000D03*
%TO.P,U1,24,PC1*%
%TO.N,Input0*%
X143200000Y-83250000D03*
D18*
%TO.P,U1,25,PC2*%
%TO.N,unconnected-(U1-PC2-Pad25)*%
X141750000Y-84700000D03*
%TO.P,U1,26,PC3*%
%TO.N,unconnected-(U1-PC3-Pad26)*%
X141750000Y-85500000D03*
%TO.P,U1,27,PC4*%
%TO.N,unconnected-(U1-PC4-Pad27)*%
X141750000Y-86300000D03*
%TO.P,U1,28,PC5*%
%TO.N,unconnected-(U1-PC5-Pad28)*%
X141750000Y-87100000D03*
%TO.P,U1,29,~{RESET}/PC6*%
%TO.N,RST*%
X141750000Y-87900000D03*
%TO.P,U1,30,PD0*%
%TO.N,unconnected-(U1-PD0-Pad30)*%
X141750000Y-88700000D03*
%TO.P,U1,31,PD1*%
%TO.N,unconnected-(U1-PD1-Pad31)*%
X141750000Y-89500000D03*
%TO.P,U1,32,PD2*%
%TO.N,unconnected-(U1-PD2-Pad32)*%
X141750000Y-90300000D03*
%TD*%
D11*
%TO.P,J3,1,Pin_1*%
%TO.N,Input2*%
X147000000Y-81000000D03*
%TD*%
%TO.P,J10,1,Pin_1*%
%TO.N,Input7*%
X150000000Y-94000000D03*
%TD*%
%TO.P,J2,1,Pin_1*%
%TO.N,Input1*%
X144000000Y-81000000D03*
%TD*%
D19*
%TO.N,GND*%
X143200000Y-84650000D03*
X159000000Y-84500000D03*
%TO.N,VCC*%
X160000000Y-83820000D03*
X143200000Y-90350000D03*
%TO.N,Input3*%
X145500000Y-81700000D03*
%TO.N,MOSI*%
X154000000Y-85900000D03*
%TO.N,PW1*%
X164900000Y-89500000D03*
%TO.N,PW2*%
X155000000Y-90000000D03*
X159000000Y-91000000D03*
X167640000Y-93980000D03*
%TO.N,RST*%
X140500000Y-87800000D03*
X167640000Y-81400000D03*
%TO.N,SEG5*%
X152400000Y-86360000D03*
%TD*%
D20*
%TO.N,PW2*%
X168000000Y-93620000D02*
X167640000Y-93980000D01*
X168000000Y-92570000D02*
X168000000Y-93620000D01*
%TO.N,DIGIT1*%
X164900100Y-84950000D02*
X168000000Y-84950000D01*
X164695100Y-84745000D02*
X164900100Y-84950000D01*
%TO.N,RST*%
X167640000Y-82050000D02*
X168000000Y-82410000D01*
X167640000Y-81700000D02*
X167640000Y-82050000D01*
%TO.N,MOSI*%
X168000000Y-89500000D02*
X168000000Y-90030000D01*
X167260000Y-88760000D02*
X168000000Y-89500000D01*
X162420000Y-88760000D02*
X167260000Y-88760000D01*
%TO.N,GND*%
X145600000Y-83250000D02*
X145600000Y-84300000D01*
X145600000Y-84300000D02*
X145200000Y-84700000D01*
X146400000Y-90425000D02*
X145600000Y-89625000D01*
X145600000Y-89625000D02*
X145600000Y-83250000D01*
X145200000Y-84700000D02*
X143200000Y-84700000D01*
X146400000Y-91750000D02*
X146400000Y-90425000D01*
%TO.N,VCC*%
X160000000Y-83820000D02*
X160232500Y-83820000D01*
X160232500Y-83820000D02*
X161250000Y-84837500D01*
X145600000Y-91750000D02*
X145600000Y-90700000D01*
X145100000Y-90200000D02*
X143200000Y-90200000D01*
X145600000Y-90700000D02*
X145100000Y-90200000D01*
%TO.N,DIGIT0*%
X164000000Y-85820000D02*
X162380000Y-85820000D01*
X156498909Y-86173604D02*
X155500305Y-85175000D01*
X152954900Y-85175000D02*
X152479900Y-84700000D01*
X162026396Y-86173604D02*
X156498909Y-86173604D01*
X164650000Y-86360000D02*
X165780000Y-87490000D01*
X150450000Y-84500000D02*
X150250000Y-84700000D01*
X162380000Y-85820000D02*
X162026396Y-86173604D01*
X165780000Y-87490000D02*
X167500000Y-87490000D01*
X152479900Y-84700000D02*
X150250000Y-84700000D01*
X155500305Y-85175000D02*
X152954900Y-85175000D01*
%TO.N,DIGIT1*%
X152680000Y-84100000D02*
X152400000Y-83820000D01*
X152400000Y-82834867D02*
X152400000Y-83820000D01*
X149125000Y-83575000D02*
X148800000Y-83250000D01*
X148800000Y-83250000D02*
X151830000Y-83250000D01*
X162134900Y-83575000D02*
X161589867Y-83575000D01*
X149630000Y-82420000D02*
X148800000Y-83250000D01*
X164695100Y-84745000D02*
X163304900Y-84745000D01*
X161589867Y-83575000D02*
X160905000Y-82890133D01*
X153954867Y-81280000D02*
X152400000Y-82834867D01*
X151830000Y-83250000D02*
X152400000Y-83820000D01*
X160020000Y-81280000D02*
X153954867Y-81280000D01*
X153500000Y-84100000D02*
X152680000Y-84100000D01*
X160905000Y-82890133D02*
X160905000Y-82165000D01*
X163304900Y-84745000D02*
X162134900Y-83575000D01*
X160905000Y-82165000D02*
X160020000Y-81280000D01*
%TO.N,Input0*%
X141000000Y-81050000D02*
X141000000Y-81000000D01*
X143200000Y-83250000D02*
X141000000Y-81050000D01*
%TO.N,Input1*%
X144000000Y-83250000D02*
X144000000Y-81000000D01*
%TO.N,Input2*%
X147000000Y-83050000D02*
X147200000Y-83250000D01*
X147000000Y-81000000D02*
X147000000Y-83050000D01*
%TO.N,Input3*%
X144800000Y-82400000D02*
X145500000Y-81700000D01*
X144800000Y-83250000D02*
X144800000Y-82400000D01*
X144780000Y-83230000D02*
X144800000Y-83250000D01*
%TO.N,Input4*%
X143200000Y-91750000D02*
X143200000Y-91800000D01*
X143200000Y-91800000D02*
X141000000Y-94000000D01*
%TO.N,Input5*%
X144000000Y-91750000D02*
X144000000Y-94000000D01*
%TO.N,Input6*%
X147200000Y-93800000D02*
X147000000Y-94000000D01*
X147200000Y-91750000D02*
X147200000Y-93800000D01*
%TO.N,Input7*%
X149200000Y-94000000D02*
X150000000Y-94000000D01*
X148000000Y-92800000D02*
X149200000Y-94000000D01*
X148000000Y-91750000D02*
X148000000Y-92800000D01*
%TO.N,SEG2*%
X153448148Y-90391852D02*
X154046296Y-90990000D01*
X150425057Y-88875057D02*
X151931353Y-88875057D01*
X150250000Y-88700000D02*
X150425057Y-88875057D01*
X154940000Y-90990000D02*
X157480000Y-90990000D01*
X151931353Y-88875057D02*
X153448148Y-90391852D01*
X159070000Y-92580000D02*
X157480000Y-90990000D01*
X159500000Y-92580000D02*
X159070000Y-92580000D01*
X154046296Y-90990000D02*
X154940000Y-90990000D01*
%TO.N,SEG6*%
X160020000Y-91045000D02*
X161555000Y-92580000D01*
X157974695Y-88900000D02*
X158699695Y-88175000D01*
X159300305Y-88175000D02*
X160020000Y-88894695D01*
X152592692Y-88900000D02*
X157974695Y-88900000D01*
X158699695Y-88175000D02*
X159300305Y-88175000D01*
X150250000Y-87900000D02*
X151592692Y-87900000D01*
X160020000Y-88894695D02*
X160020000Y-91045000D01*
X161555000Y-92580000D02*
X162040000Y-92580000D01*
X151592692Y-87900000D02*
X152592692Y-88900000D01*
%TO.N,SEG7*%
X163285000Y-93875000D02*
X153445000Y-93875000D01*
X164580000Y-92580000D02*
X163285000Y-93875000D01*
X153445000Y-93875000D02*
X151320000Y-91750000D01*
X151320000Y-91750000D02*
X148800000Y-91750000D01*
%TO.N,MOSI*%
X155588909Y-85900000D02*
X156312513Y-86623604D01*
X153043504Y-85900000D02*
X152643504Y-85500000D01*
X154000000Y-85900000D02*
X155588909Y-85900000D01*
X160283604Y-86623604D02*
X162420000Y-88760000D01*
X150250000Y-85500000D02*
X150325000Y-85575000D01*
X152643504Y-85500000D02*
X150250000Y-85500000D01*
X151300000Y-85500000D02*
X151375000Y-85575000D01*
X156312513Y-86623604D02*
X160283604Y-86623604D01*
X154000000Y-85900000D02*
X153043504Y-85900000D01*
X150250000Y-85500000D02*
X151300000Y-85500000D01*
%TO.N,PW1*%
X164337500Y-90162500D02*
X161250000Y-90162500D01*
X165000000Y-89500000D02*
X164337500Y-90162500D01*
%TO.N,PW2*%
X167640000Y-93980000D02*
X167253223Y-93980000D01*
X155162500Y-90162500D02*
X155000000Y-90000000D01*
X158750000Y-90162500D02*
X155162500Y-90162500D01*
%TO.N,MOSI*%
X167343223Y-90030000D02*
X167500000Y-90030000D01*
%TO.N,Net-(D2-Pad6)*%
X164500000Y-83820000D02*
X164500000Y-82500000D01*
X164000000Y-83000000D02*
X164580000Y-82420000D01*
X164500000Y-82500000D02*
X164580000Y-82420000D01*
X164000000Y-83820000D02*
X164000000Y-83000000D01*
%TO.N,Net-(D2-Pad9)*%
X155500000Y-84100000D02*
X155500000Y-83880000D01*
X157000000Y-82460000D02*
X156960000Y-82420000D01*
X155500000Y-83880000D02*
X156960000Y-82420000D01*
X155000000Y-84700000D02*
X155025305Y-84700000D01*
%TO.N,SEG4*%
X151260000Y-90300000D02*
X153540000Y-92580000D01*
X150250000Y-90300000D02*
X151260000Y-90300000D01*
X153540000Y-92580000D02*
X154420000Y-92580000D01*
%TO.N,SEG3*%
X153859900Y-91440000D02*
X154940000Y-91440000D01*
X151919900Y-89500000D02*
X153859900Y-91440000D01*
X155820000Y-91440000D02*
X156960000Y-92580000D01*
X154940000Y-91440000D02*
X155820000Y-91440000D01*
X150250000Y-89500000D02*
X151919900Y-89500000D01*
%TO.N,RST*%
X167225000Y-81285000D02*
X163175000Y-81285000D01*
%TO.N,DIGIT1*%
X167323223Y-84950000D02*
X167500000Y-84950000D01*
%TO.N,RST*%
X141750000Y-87900000D02*
X140600000Y-87900000D01*
X167640000Y-81700000D02*
X167225000Y-81285000D01*
X163175000Y-81285000D02*
X162040000Y-82420000D01*
X140600000Y-87900000D02*
X140500000Y-87800000D01*
%TO.N,SEG5*%
X152400000Y-86360000D02*
X152340000Y-86300000D01*
X150250000Y-86300000D02*
X152400000Y-86360000D01*
%TD*%
M02*
