%TF.GenerationSoftware,KiCad,Pcbnew,7.0.5*%
%TF.CreationDate,2024-02-17T16:30:34-06:00*%
%TF.ProjectId,NOTGATE,4e4f5447-4154-4452-9e6b-696361645f70,rev?*%
%TF.SameCoordinates,Original*%
%TF.FileFunction,Legend,Bot*%
%TF.FilePolarity,Positive*%
%FSLAX46Y46*%
G04 Gerber Fmt 4.6, Leading zero omitted, Abs format (unit mm)*
G04 Created by KiCad (PCBNEW 7.0.5) date 2024-02-17 16:30:34*
%MOMM*%
%LPD*%
G01*
G04 APERTURE LIST*
%ADD10C,0.100000*%
G04 APERTURE END LIST*
D10*
%TO.C,J4*%
X147333333Y-86457419D02*
X147333333Y-87171704D01*
X147333333Y-87171704D02*
X147380952Y-87314561D01*
X147380952Y-87314561D02*
X147476190Y-87409800D01*
X147476190Y-87409800D02*
X147619047Y-87457419D01*
X147619047Y-87457419D02*
X147714285Y-87457419D01*
X146428571Y-86790752D02*
X146428571Y-87457419D01*
X146666666Y-86409800D02*
X146904761Y-87124085D01*
X146904761Y-87124085D02*
X146285714Y-87124085D01*
%TO.C,J5*%
X163333333Y-86457419D02*
X163333333Y-87171704D01*
X163333333Y-87171704D02*
X163380952Y-87314561D01*
X163380952Y-87314561D02*
X163476190Y-87409800D01*
X163476190Y-87409800D02*
X163619047Y-87457419D01*
X163619047Y-87457419D02*
X163714285Y-87457419D01*
X162380952Y-86457419D02*
X162857142Y-86457419D01*
X162857142Y-86457419D02*
X162904761Y-86933609D01*
X162904761Y-86933609D02*
X162857142Y-86885990D01*
X162857142Y-86885990D02*
X162761904Y-86838371D01*
X162761904Y-86838371D02*
X162523809Y-86838371D01*
X162523809Y-86838371D02*
X162428571Y-86885990D01*
X162428571Y-86885990D02*
X162380952Y-86933609D01*
X162380952Y-86933609D02*
X162333333Y-87028847D01*
X162333333Y-87028847D02*
X162333333Y-87266942D01*
X162333333Y-87266942D02*
X162380952Y-87362180D01*
X162380952Y-87362180D02*
X162428571Y-87409800D01*
X162428571Y-87409800D02*
X162523809Y-87457419D01*
X162523809Y-87457419D02*
X162761904Y-87457419D01*
X162761904Y-87457419D02*
X162857142Y-87409800D01*
X162857142Y-87409800D02*
X162904761Y-87362180D01*
%TD*%
M02*
